<?xml version="1.0" encoding="utf-8"?>
<!-- Generator: Adobe Illustrator 18.1.1, SVG Export Plug-In . SVG Version: 6.00 Build 0)  -->
<!DOCTYPE svg PUBLIC "-//W3C//DTD SVG 1.1//EN" "http://www.w3.org/Graphics/SVG/1.1/DTD/svg11.dtd">
<svg version="1.1" id="Capa_1" xmlns="http://www.w3.org/2000/svg" xmlns:xlink="http://www.w3.org/1999/xlink" x="0px" y="0px"
	 width="23px" height="24px" viewBox="-8 9 23 24" enable-background="new -8 9 23 24" xml:space="preserve">
<path fill="#FFFFFF" d="M9,17h4v4H9V17z M9,22h4v4H9V22z M9,27h4v4H9V27z M4,17h4v4H4V17z M4,22h4v4H4V22z M4,27h4v4H4V27z M-1,17h4
	v4h-4V17z M-1,22h4v4h-4V22z M-1,27h4v4h-4V27z M-6,17h4v4h-4V17z M-6,22h4v4h-4V22z M-6,27h4v4h-4V27z M-8,13v20h23V13h-5V9H6v4H1
	V9h-4v4H-8z M7,10h2v4H7V10z M-2,10h2v4h-2V10z"/>
</svg>
