<?xml version="1.0" encoding="utf-8"?>
<!-- Generator: Adobe Illustrator 18.1.1, SVG Export Plug-In . SVG Version: 6.00 Build 0)  -->
<!DOCTYPE svg PUBLIC "-//W3C//DTD SVG 1.1//EN" "http://www.w3.org/Graphics/SVG/1.1/DTD/svg11.dtd">
<svg version="1.1" id="Capa_1" xmlns="http://www.w3.org/2000/svg" xmlns:xlink="http://www.w3.org/1999/xlink" x="0px" y="0px"
	 width="28px" height="28px" viewBox="0 0 28 28" enable-background="new 0 0 28 28" xml:space="preserve">
<g>
	<path fill-rule="evenodd" clip-rule="evenodd" fill="#EEEEEE" d="M23.5,23c0,1.1-0.9,2-2,2h-15c-1.1,0-2-0.9-2-2V11h19V23z M27.5,4
		c0-0.7-0.8-1.5-2-2h-3V1c0-0.7-0.4-1-1-1h-1c-0.9,0-1.2,0.3-1,1v1h-11V1c0.3-0.7,0-1,0-1h-2c-0.4,0-0.8,0.3-1,1v1h-3
		c-1.2,0.5-2,1.3-2,2v7h1v15c0,1.1,0.8,2,2,2h21c1,0,1.9-0.9,2-2V11h1V4z"/>
	<rect x="7.5" y="13" fill-rule="evenodd" clip-rule="evenodd" fill="#EEEEEE" width="3" height="3"/>
	<rect x="12.5" y="13" fill-rule="evenodd" clip-rule="evenodd" fill="#EEEEEE" width="3" height="3"/>
	<rect x="17.5" y="13" fill-rule="evenodd" clip-rule="evenodd" fill="#EEEEEE" width="3" height="3"/>
	<rect x="7.5" y="19" fill-rule="evenodd" clip-rule="evenodd" fill="#EEEEEE" width="3" height="3"/>
	<rect x="12.5" y="19" fill-rule="evenodd" clip-rule="evenodd" fill="#EEEEEE" width="3" height="3"/>
	<rect x="17.5" y="19" fill-rule="evenodd" clip-rule="evenodd" fill="#EEEEEE" width="3" height="3"/>
</g>
</svg>
