<?xml version="1.0" encoding="utf-8"?>
<!-- Generator: Adobe Illustrator 18.1.1, SVG Export Plug-In . SVG Version: 6.00 Build 0)  -->
<!DOCTYPE svg PUBLIC "-//W3C//DTD SVG 1.1//EN" "http://www.w3.org/Graphics/SVG/1.1/DTD/svg11.dtd">
<svg version="1.1" id="Capa_1" xmlns="http://www.w3.org/2000/svg" xmlns:xlink="http://www.w3.org/1999/xlink" x="0px" y="0px"
	 width="28px" height="28px" viewBox="0 0 28 28" enable-background="new 0 0 28 28" xml:space="preserve">
<g>
	<path fill-rule="evenodd" clip-rule="evenodd" fill="#EEEEEE" d="M14,26C7.4,26,2,20.6,2,14C2,7.4,7.4,2,14,2c6.6,0,12,5.4,12,12
		C26,20.6,20.6,26,14,26z M14,0C6.3,0,0,6.3,0,14s6.3,14,14,14c7.7,0,14-6.3,14-14S21.7,0,14,0z"/>
	<circle fill-rule="evenodd" clip-rule="evenodd" fill="#EEEEEE" cx="14" cy="5" r="1"/>
	<circle fill-rule="evenodd" clip-rule="evenodd" fill="#EEEEEE" cx="14" cy="23" r="1"/>
	<circle fill-rule="evenodd" clip-rule="evenodd" fill="#EEEEEE" cx="23" cy="14" r="1"/>
	<circle fill-rule="evenodd" clip-rule="evenodd" fill="#EEEEEE" cx="5" cy="14" r="1"/>
	<circle fill-rule="evenodd" clip-rule="evenodd" fill="#EEEEEE" cx="20" cy="8" r="1"/>
	<circle fill-rule="evenodd" clip-rule="evenodd" fill="#EEEEEE" cx="8" cy="20" r="1"/>
	<circle fill-rule="evenodd" clip-rule="evenodd" fill="#EEEEEE" cx="20" cy="20" r="1"/>
	<circle fill-rule="evenodd" clip-rule="evenodd" fill="#EEEEEE" cx="8" cy="8" r="1"/>
	<path fill-rule="evenodd" clip-rule="evenodd" fill="#EEEEEE" d="M20,13.7h-3.6c-0.2-0.6-0.6-1-1.1-1.3V9.1c0-0.6-0.5-1.1-1-1.1
		c-0.6,0-1,0.5-1,1.1v3.3c-0.8,0.4-1.2,1.2-1.2,2.2c0,1.3,1,2.5,2.3,2.5c0.8,0,1.5-0.4,1.9-1.1H20c0.6,0,1-0.5,1-1.1
		C21,14.2,20.5,13.7,20,13.7z"/>
</g>
</svg>
