<?xml version="1.0" encoding="utf-8"?>
<!-- Generator: Adobe Illustrator 18.1.1, SVG Export Plug-In . SVG Version: 6.00 Build 0)  -->
<!DOCTYPE svg PUBLIC "-//W3C//DTD SVG 1.1//EN" "http://www.w3.org/Graphics/SVG/1.1/DTD/svg11.dtd">
<svg version="1.1" id="Capa_1" xmlns="http://www.w3.org/2000/svg" xmlns:xlink="http://www.w3.org/1999/xlink" x="0px" y="0px"
	 width="28px" height="28px" viewBox="0 0 28 28" enable-background="new 0 0 28 28" xml:space="preserve">
<g>
	<path fill-rule="evenodd" clip-rule="evenodd" fill="#EEEEEE" d="M9.4,22.7H4.2c-1,0-1.8-0.8-1.8-1.7V5c0-1,0.8-1.7,1.8-1.7h12.7
		c1,0,1.8,0.8,1.8,1.7v13.3l2.3-2.7V3.3C21,2,20,1,18.6,1H2.3C1,1,0,2,0,3.2v19.4C0,24,1.1,25,2.4,25h9.2l-1.1-0.9
		C10,23.7,9.6,23.2,9.4,22.7z"/>
	<path fill-rule="evenodd" clip-rule="evenodd" fill="#EEEEEE" d="M15.8,6H5.2C4.5,6,4,6.4,4,7c0,0.6,0.5,1,1.2,1h10.6
		C16.5,8,17,7.6,17,7C17,6.4,16.5,6,15.8,6z"/>
	<path fill-rule="evenodd" clip-rule="evenodd" fill="#EEEEEE" d="M15.8,9.7H5.2c-0.7,0-1.2,0.4-1.2,1c0,0.5,0.5,1,1.2,1h10.6
		c0.7,0,1.2-0.5,1.2-1C17,10.1,16.5,9.7,15.8,9.7z"/>
	<path fill-rule="evenodd" clip-rule="evenodd" fill="#EEEEEE" d="M15.8,13.3H5.2c-0.7,0-1.2,0.4-1.2,1c0,0.6,0.5,1,1.2,1h10.6
		c0.7,0,1.2-0.4,1.2-1C17,13.8,16.5,13.3,15.8,13.3z"/>
	<g>
		<path fill-rule="evenodd" clip-rule="evenodd" fill="#EEEEEE" d="M4,18c0,0.6,0.5,1,1.1,1H9c0.2-0.4,0.4-0.8,0.7-1.2
			c0.4-0.4,0.8-0.6,1.2-0.8H5.2C4.5,17,4,17.4,4,18z"/>
		<path fill-rule="evenodd" clip-rule="evenodd" fill="#EEEEEE" d="M15.9,17H15c0.3,0.2,0.5,0.4,0.8,0.7l1.1,1.3
			c0-0.2,0.1-0.3,0.1-0.5C17,17.7,16.5,17,15.9,17z"/>
	</g>
	<path fill-rule="evenodd" clip-rule="evenodd" fill="#EEEEEE" d="M27.3,14.5c-0.9-0.7-2.1-0.6-2.9,0.2l-6.7,7.6l-3.3-2.8
		c-0.9-0.7-2.1-0.6-2.9,0.2c-0.7,0.8-0.6,2.1,0.2,2.8l4.9,4.1c0.4,0.3,0.8,0.5,1.3,0.5c0.1,0,0.1,0,0.2,0c0.5,0,1-0.3,1.4-0.7l8-9.1
		C28.2,16.4,28.1,15.2,27.3,14.5z"/>
</g>
</svg>
