<?xml version="1.0" encoding="utf-8"?>
<!-- Generator: Adobe Illustrator 18.1.1, SVG Export Plug-In . SVG Version: 6.00 Build 0)  -->
<svg version="1.1" id="Capa_1" xmlns="http://www.w3.org/2000/svg" xmlns:xlink="http://www.w3.org/1999/xlink" x="0px" y="0px"
	 width="14.9px" height="13.7px" viewBox="78.4 -1.5 14.9 13.7" enable-background="new 78.4 -1.5 14.9 13.7" xml:space="preserve">
<path fill="#ffffff" d="M89.8,3h-2.3v-4c0-0.2-0.1-0.3-0.2-0.4c-0.1-0.1-0.2-0.2-0.4-0.2h-2.3c-0.2,0-0.3,0.1-0.4,0.2
	c-0.1,0.1-0.2,0.2-0.2,0.4v4h-2.3c-0.3,0-0.4,0.1-0.5,0.3c-0.1,0.2-0.1,0.5,0.1,0.6l4,4c0.1,0.1,0.2,0.2,0.4,0.2
	c0.2,0,0.3-0.1,0.4-0.2l4-4c0.2-0.2,0.2-0.4,0.1-0.6C90.2,3.1,90,3,89.8,3 M93,7.8c-0.2-0.2-0.4-0.3-0.6-0.3h-4.1L87,8.8
	c-0.3,0.3-0.7,0.5-1.2,0.5c-0.5,0-0.9-0.2-1.2-0.5l-1.2-1.2h-4.2c-0.2,0-0.4,0.1-0.6,0.3c-0.2,0.2-0.3,0.4-0.3,0.6v2.9
	c0,0.2,0.1,0.4,0.3,0.6c0.2,0.2,0.4,0.3,0.6,0.3h13.1c0.2,0,0.4-0.1,0.6-0.3s0.3-0.4,0.3-0.6V8.5C93.2,8.2,93.1,8,93,7.8 M91.5,11
	c-0.2,0-0.3-0.1-0.4-0.2c-0.1-0.1-0.2-0.2-0.2-0.4c0-0.2,0.1-0.3,0.2-0.4c0.1-0.1,0.2-0.2,0.4-0.2c0.2,0,0.3,0.1,0.4,0.2
	c0.1,0.1,0.2,0.2,0.2,0.4c0,0.2-0.1,0.3-0.2,0.4C91.8,11,91.7,11,91.5,11 M89.2,11c-0.2,0-0.3-0.1-0.4-0.2c-0.1-0.1-0.2-0.2-0.2-0.4
	c0-0.2,0.1-0.3,0.2-0.4s0.2-0.2,0.4-0.2s0.3,0.1,0.4,0.2s0.2,0.2,0.2,0.4c0,0.2-0.1,0.3-0.2,0.4C89.5,11,89.4,11,89.2,11"/>
</svg>
