<?xml version="1.0" encoding="utf-8"?>
<!-- Generator: Adobe Illustrator 18.1.1, SVG Export Plug-In . SVG Version: 6.00 Build 0)  -->
<!DOCTYPE svg PUBLIC "-//W3C//DTD SVG 1.1//EN" "http://www.w3.org/Graphics/SVG/1.1/DTD/svg11.dtd">
<svg version="1.1" id="Capa_1" xmlns="http://www.w3.org/2000/svg" xmlns:xlink="http://www.w3.org/1999/xlink" x="0px" y="0px"
	 width="10px" height="10px" viewBox="0 0 10 10" enable-background="new 0 0 10 10" xml:space="preserve">
<g>
	<path fill="#D67F38" d="M9.5,5.7C9.2,5.7,9,6,9,6.2V9H1V6.3V1h2.7c0.4,0,0.6-0.2,0.6-0.4S4.1,0,3.8,0H0.6C0.3,0,0,0.2,0,0.6v5.7
		v3.1C0,9.7,0.3,10,0.6,10h3h5.8C9.8,10,10,9.7,10,9.4V6.3C10,6,9.9,5.7,9.5,5.7z"/>
	<path fill="#D67F38" d="M9.9,0.2C9.8,0.1,9.6,0,9.5,0H6.2C5.8,0,5.6,0.2,5.6,0.5S5.9,1,6.2,1h1.9L4.6,4.6c-0.2,0.2-0.2,0.6,0,0.8
		s0.7,0.2,0.8,0l3.5-3.5v2c0,0.4,0.2,0.5,0.4,0.5c0.3,0,0.6-0.3,0.6-0.5V0.6C10,0.4,9.9,0.3,9.9,0.2z"/>
</g>
</svg>
