<?xml version="1.0" encoding="utf-8"?>
<!-- Generator: Adobe Illustrator 18.1.1, SVG Export Plug-In . SVG Version: 6.00 Build 0)  -->
<!DOCTYPE svg PUBLIC "-//W3C//DTD SVG 1.1//EN" "http://www.w3.org/Graphics/SVG/1.1/DTD/svg11.dtd">
<svg version="1.1" id="Capa_1" xmlns="http://www.w3.org/2000/svg" xmlns:xlink="http://www.w3.org/1999/xlink" x="0px" y="0px"
	 width="16px" height="16px" viewBox="-13.7 37 16 16" enable-background="new -13.7 37 16 16" xml:space="preserve">
<g>
	<path fill="#FFFFFF" d="M1.5,46.1c-0.5,0-0.8,0.5-0.8,1v4.3h-12.8v-4.3v-8.5h4.3c0.6,0,1-0.3,1-0.8S-7.1,37-7.6,37h-5
		c-0.5,0-1.1,0.3-1.1,1v9.1v5c0,0.5,0.6,1,1.1,1h5h9.3c0.3,0,0.6-0.5,0.6-1v-5C2.3,46.6,2.2,46.1,1.5,46.1z"/>
	<path fill="#FFFFFF" d="M2.2,37.2C2,37.2,1.8,37,1.5,37h-5.3c-0.5,0-0.8,0.2-0.8,0.8s0.3,0.8,0.8,0.8h3l-5.6,5.8
		c-0.3,0.3-0.3,1,0,1.3s1,0.3,1.4,0L0.7,40v3c0,0.6,0.3,1,0.8,1s0.8-0.5,0.8-1V38C2.3,37.6,2.3,37.5,2.2,37.2z"/>
</g>
</svg>
