<?xml version="1.0" encoding="utf-8"?>
<!-- Generator: Adobe Illustrator 18.1.1, SVG Export Plug-In . SVG Version: 6.00 Build 0)  -->
<!DOCTYPE svg PUBLIC "-//W3C//DTD SVG 1.1//EN" "http://www.w3.org/Graphics/SVG/1.1/DTD/svg11.dtd">
<svg version="1.1" id="Capa_1" xmlns="http://www.w3.org/2000/svg" xmlns:xlink="http://www.w3.org/1999/xlink" x="0px" y="0px"
	 width="10px" height="10px" viewBox="0 0 10 10" enable-background="new 0 0 10 10" xml:space="preserve">
<g>
	<path fill-rule="evenodd" clip-rule="evenodd" fill="#B5B5B5" d="M9.5,5.7C9.2,5.7,9,6,9,6.3V9H1V6.3V1h2.7c0.4,0,0.6-0.2,0.6-0.5
		S4.1,0,3.8,0H0.7C0.4,0,0,0.2,0,0.6v5.7v3.1C0,9.7,0.4,10,0.7,10h3.1h5.8C9.8,10,10,9.7,10,9.4V6.3C10,6,9.9,5.7,9.5,5.7z"/>
	<path fill-rule="evenodd" clip-rule="evenodd" fill="#B5B5B5" d="M9.9,0.1C9.8,0.1,9.7,0,9.5,0H6.2C5.9,0,5.7,0.1,5.7,0.5
		C5.7,0.9,5.9,1,6.2,1h1.9L4.6,4.6c-0.2,0.2-0.2,0.6,0,0.8s0.6,0.2,0.9,0L9,1.9v1.9c0,0.4,0.2,0.6,0.5,0.6c0.3,0,0.5-0.3,0.5-0.6
		V0.6C10,0.4,10,0.3,9.9,0.1z"/>
</g>
</svg>
