<?xml version="1.0" encoding="utf-8"?>
<!-- Generator: Adobe Illustrator 18.1.1, SVG Export Plug-In . SVG Version: 6.00 Build 0)  -->
<!DOCTYPE svg PUBLIC "-//W3C//DTD SVG 1.1//EN" "http://www.w3.org/Graphics/SVG/1.1/DTD/svg11.dtd">
<svg version="1.1" id="Capa_1" xmlns="http://www.w3.org/2000/svg" xmlns:xlink="http://www.w3.org/1999/xlink" x="0px" y="0px"
	 width="31px" height="31px" viewBox="0 0 31 31" enable-background="new 0 0 31 31" xml:space="preserve">
<path fill-rule="evenodd" clip-rule="evenodd" fill="#00AAA4" d="M31,5.9c-1.1,0.5-2.4,0.8-3.7,1c1.3-0.8,2.3-2,2.8-3.5
	c-1.2,0.7-2.6,1.3-4,1.5c-1.2-1.2-2.8-2-4.6-2c-3.5,0-6.4,2.8-6.4,6.4c0,0.5,0.1,1,0.2,1.4C10,10.4,5.3,7.9,2.2,4.1
	C1.6,5,1.3,6.1,1.3,7.3c0,2.2,1.1,4.2,2.8,5.3c-1,0-2-0.3-2.9-0.8c0,0,0,0.1,0,0.1c0,3.1,2.2,5.7,5.1,6.2c-0.5,0.1-1.1,0.2-1.7,0.2
	c-0.4,0-0.8,0-1.2-0.1c0.8,2.5,3.2,4.4,5.9,4.4c-2.2,1.7-4.9,2.7-7.9,2.7c-0.5,0-1,0-1.5-0.1c2.8,1.8,6.2,2.9,9.7,2.9
	c11.7,0,18.1-9.7,18.1-18.1c0-0.3,0-0.5,0-0.8C29.1,8.3,30.1,7.2,31,5.9z"/>
</svg>
