<svg id="Capa_1" data-name="Capa 1" xmlns="http://www.w3.org/2000/svg" width="31.0138" height="31.0016" viewBox="0 0 31.0138 31.0016"><defs><style>.cls-1{fill:#00aaa4;}</style></defs><title>footer-social-youtube</title><path id="SVGID" class="cls-1" d="M27.4516,7.44h0A1.966,1.966,0,0,1,25.503,9.3883H23.7314A1.966,1.966,0,0,1,21.7828,7.44V5.6681a1.966,1.966,0,0,1,1.9487-1.9487H25.503a1.966,1.966,0,0,1,1.9487,1.9487V7.44Zm0,18.0695a2.1271,2.1271,0,0,1-2.1258,1.9487H5.8391a2.1271,2.1271,0,0,1-2.1258-1.9487V15.7657a2.1271,2.1271,0,0,1,2.1258-1.9487H6.902a0.6263,0.6263,0,0,1,.7086.7086v1.0629a7.9718,7.9718,0,1,0,15.9437,0V14.5257a0.6263,0.6263,0,0,1,.7086-0.7086h1.24a2.1271,2.1271,0,0,1,2.1258,1.9487l-0.1772,9.7434h0ZM15.5825,10.9826a4.69,4.69,0,0,1,4.6059,4.6059,4.69,4.69,0,0,1-4.6059,4.6059,4.69,4.69,0,0,1-4.6059-4.6059A4.69,4.69,0,0,1,15.5825,10.9826ZM27.2745-.0008H3.89A3.9319,3.9319,0,0,0-.0069,3.8966V27.1034A3.9319,3.9319,0,0,0,3.89,31.0008H27.0973a3.9319,3.9319,0,0,0,3.8973-3.8973V3.8966A3.6753,3.6753,0,0,0,27.2745-.0008Z" transform="translate(0.0069 0.0008)"/></svg>