<?xml version="1.0" encoding="utf-8"?>
<!-- Generator: Adobe Illustrator 18.1.1, SVG Export Plug-In . SVG Version: 6.00 Build 0)  -->
<!DOCTYPE svg PUBLIC "-//W3C//DTD SVG 1.1//EN" "http://www.w3.org/Graphics/SVG/1.1/DTD/svg11.dtd">
<svg version="1.1" id="Capa_1" xmlns="http://www.w3.org/2000/svg" xmlns:xlink="http://www.w3.org/1999/xlink" x="0px" y="0px"
	 width="31px" height="31px" viewBox="0 0 31 31" enable-background="new 0 0 31 31" xml:space="preserve">
<path fill-rule="evenodd" clip-rule="evenodd" fill="#00AAA4" d="M29.3,0H1.7C0.8,0,0,0.8,0,1.7v27.6C0,30.2,0.8,31,1.7,31h14.8V19
	h-4v-4.7h4v-3.5c0-4,2.4-6.2,6-6.2c1.7,0,3.2,0.1,3.6,0.2V9l-2.5,0c-1.9,0-2.3,0.9-2.3,2.3v3H26L25.4,19h-4v12h7.9
	c0.9,0,1.7-0.8,1.7-1.7V1.7C31,0.8,30.2,0,29.3,0z"/>
</svg>
