<?xml version="1.0" encoding="utf-8"?>
<!-- Generator: Adobe Illustrator 18.1.1, SVG Export Plug-In . SVG Version: 6.00 Build 0)  -->
<!DOCTYPE svg PUBLIC "-//W3C//DTD SVG 1.1//EN" "http://www.w3.org/Graphics/SVG/1.1/DTD/svg11.dtd">
<svg version="1.1" id="Capa_1" xmlns="http://www.w3.org/2000/svg" xmlns:xlink="http://www.w3.org/1999/xlink" x="0px" y="0px"
	 width="20px" height="20px" viewBox="6 56 20 20" enable-background="new 6 56 20 20" xml:space="preserve">
<g>
	<path fill="#00AAA4" d="M14.2,58.8c-4.3,0-7.7,3.3-7.7,7.5c0,2,0.8,3.9,2.2,5.2c-0.1,1.4-0.3,3-1.1,4c1.5,0,3.1-1.2,4-2.1
		c0.8,0.3,1.7,0.4,2.6,0.4c4.3,0,7.7-3.3,7.7-7.5C21.9,62.2,18.5,58.8,14.2,58.8z"/>
	<path fill="#00AAA4" d="M24.4,67.7c0.7-1.1,1-2.4,1-3.7c0-4.1-3.5-7.5-7.9-7.5c-1.9,0-3.7,0.6-5.1,1.7c0.6-0.1,1.3-0.2,2-0.2
		c4.7,0,8.5,3.7,8.5,8.2c0,1.8-0.6,3.4-1.6,4.8c1,0.9,2.6,2.1,4.1,2.1C24.4,71.9,24.4,69,24.4,67.7z"/>
</g>
</svg>
