<?xml version="1.0" encoding="utf-8"?>
<!-- Generator: Adobe Illustrator 18.1.1, SVG Export Plug-In . SVG Version: 6.00 Build 0)  -->
<!DOCTYPE svg PUBLIC "-//W3C//DTD SVG 1.1//EN" "http://www.w3.org/Graphics/SVG/1.1/DTD/svg11.dtd">
<svg version="1.1" id="Capa_1" xmlns="http://www.w3.org/2000/svg" xmlns:xlink="http://www.w3.org/1999/xlink" x="0px" y="0px"
	 width="16px" height="16px" viewBox="0 0 16 16" enable-background="new 0 0 16 16" xml:space="preserve">
<path fill-rule="evenodd" clip-rule="evenodd" fill="#00AAA4" d="M0.3,3C0.1,3.3,0,3.7,0,4.1v8c0,0.3,0.1,0.7,0.2,1L5,7.4L0.3,3z
	 M9.9,8L8.3,9.4C8.2,9.5,8.1,9.5,8,9.5c-0.1,0-0.2,0-0.3-0.1L6.1,8L1,13.7C1.3,13.9,1.7,14,2,14H14c0.4,0,0.7-0.1,1-0.3L9.9,8z
	 M15,2.2C14.7,2.1,14.4,2,14,2H2C1.6,2,1.3,2.1,1,2.2L8,8L15,2.2z M16,12c0,0.3-0.1,0.7-0.2,1L11,7.4L15.7,3C15.9,3.3,16,3.7,16,4.1
	V12z"/>
</svg>
