<?xml version="1.0" encoding="utf-8"?>
<!-- Generator: Adobe Illustrator 18.1.1, SVG Export Plug-In . SVG Version: 6.00 Build 0)  -->
<!DOCTYPE svg PUBLIC "-//W3C//DTD SVG 1.1//EN" "http://www.w3.org/Graphics/SVG/1.1/DTD/svg11.dtd">
<svg version="1.1" id="Capa_1" xmlns="http://www.w3.org/2000/svg" xmlns:xlink="http://www.w3.org/1999/xlink" x="0px" y="0px"
	 width="16px" height="16px" viewBox="0 0 16 16" enable-background="new 0 0 16 16" xml:space="preserve">
<path fill-rule="evenodd" clip-rule="evenodd" fill="#00AAA4" d="M13.2,10.2c-0.5-0.5-1.3-0.5-1.8,0l-1.2,1.2
	c-0.1,0-0.2-0.1-0.2-0.1c-0.8-0.4-1.9-1-3-2.2C5.7,8,5.1,6.9,4.7,6.1c0-0.1-0.1-0.2-0.1-0.2l0.8-0.8l0.4-0.4c0.5-0.5,0.5-1.3,0-1.8
	L3.4,0.4c-0.5-0.5-1.3-0.5-1.8,0L0.9,1.1c-0.2,0.3-0.4,0.7-0.6,1c-0.1,0.4-0.2,0.7-0.3,1C-0.3,5.9,1,8.3,4.3,11.7
	C9,16.4,12.7,16,12.8,16c0.4,0,0.7-0.1,1-0.3c0.4-0.1,0.7-0.3,1-0.6l0.7-0.7c0.5-0.5,0.5-1.3,0-1.8L13.2,10.2z"/>
</svg>
