<?xml version="1.0" encoding="utf-8"?>
<!-- Generator: Adobe Illustrator 18.1.1, SVG Export Plug-In . SVG Version: 6.00 Build 0)  -->
<!DOCTYPE svg PUBLIC "-//W3C//DTD SVG 1.1//EN" "http://www.w3.org/Graphics/SVG/1.1/DTD/svg11.dtd">
<svg version="1.1" id="Capa_1" xmlns="http://www.w3.org/2000/svg" xmlns:xlink="http://www.w3.org/1999/xlink" x="0px" y="0px"
	 width="16px" height="16px" viewBox="0 0 16 16" enable-background="new 0 0 16 16" xml:space="preserve">
<path fill-rule="evenodd" clip-rule="evenodd" fill="#00AAA4" d="M8,0C3.6,0,0,3.6,0,8s3.6,8,8,8s8-3.6,8-8S12.4,0,8,0z M12.3,9.3
	h-3C9.1,9.6,8.6,9.9,8.2,9.9c-0.7,0-1.3-0.6-1.3-1.3c0-0.5,0.3-0.9,0.6-1.1V3.7C7.5,3.4,7.8,3,8.2,3c0.4,0,0.7,0.3,0.7,0.7v3.7
	C9,7.5,9.2,7.7,9.3,7.9h3c0.4,0,0.7,0.3,0.7,0.7C13,8.9,12.6,9.3,12.3,9.3z"/>
</svg>
