<?xml version="1.0" encoding="utf-8"?>
<!-- Generator: Adobe Illustrator 18.1.1, SVG Export Plug-In . SVG Version: 6.00 Build 0)  -->
<!DOCTYPE svg PUBLIC "-//W3C//DTD SVG 1.1//EN" "http://www.w3.org/Graphics/SVG/1.1/DTD/svg11.dtd">
<svg version="1.1" id="Capa_1" xmlns="http://www.w3.org/2000/svg" xmlns:xlink="http://www.w3.org/1999/xlink" x="0px" y="0px"
	 width="16px" height="16px" viewBox="0 0 16 16" enable-background="new 0 0 16 16" xml:space="preserve">
<g>
	<path fill-rule="evenodd" clip-rule="evenodd" fill="#00AAA4" d="M6.5,2C2.9,2,0,4.8,0,8.3c0,1.7,0.7,3.3,1.8,4.4
		c-0.1,1.2-0.3,2.6-0.9,3.3c1.3,0,2.6-1,3.4-1.8c0.7,0.2,1.4,0.4,2.2,0.4c3.6,0,6.5-2.8,6.5-6.3C13,4.8,10.1,2,6.5,2z"/>
	<path fill-rule="evenodd" clip-rule="evenodd" fill="#00AAA4" d="M15,9.4c0.6-0.9,0.9-2,0.9-3.1c0-3.5-3-6.3-6.7-6.3
		C7.6,0,6.2,0.5,5,1.5c0.5-0.1,1.1-0.2,1.7-0.2c4,0,7.2,3.1,7.2,6.9c0,1.5-0.5,2.9-1.3,4C13.4,13,14.7,14,16,14
		C15.1,12.9,15,10.5,15,9.4z"/>
</g>
</svg>
