<?xml version="1.0" encoding="utf-8"?>
<!-- Generator: Adobe Illustrator 18.1.1, SVG Export Plug-In . SVG Version: 6.00 Build 0)  -->
<!DOCTYPE svg PUBLIC "-//W3C//DTD SVG 1.1//EN" "http://www.w3.org/Graphics/SVG/1.1/DTD/svg11.dtd">
<svg version="1.1" id="Capa_1" xmlns="http://www.w3.org/2000/svg" xmlns:xlink="http://www.w3.org/1999/xlink" x="0px" y="0px"
	 width="16px" height="16px" viewBox="-34 43 16 16" enable-background="new -34 43 16 16" xml:space="preserve">
<path fill="#00AAA4" d="M-18.9,43h-14.2c-0.5,0-0.9,0.4-0.9,0.9v14.2c0,0.5,0.4,0.9,0.9,0.9h7.6v-6.2h-2.1v-2.4h2.1v-1.8
	c0-2.1,1.2-3.2,3.1-3.2c0.9,0,1.7,0.1,1.9,0.1v2.2h-1.3c-1,0-1.2,0.5-1.2,1.2v1.5h2.4l-0.3,2.4H-23V59h4.1c0.5,0,0.9-0.4,0.9-0.9
	V43.9C-18,43.4-18.4,43-18.9,43z"/>
</svg>
