<?xml version="1.0" encoding="utf-8"?>
<!-- Generator: Adobe Illustrator 18.1.1, SVG Export Plug-In . SVG Version: 6.00 Build 0)  -->
<!DOCTYPE svg PUBLIC "-//W3C//DTD SVG 1.1//EN" "http://www.w3.org/Graphics/SVG/1.1/DTD/svg11.dtd">
<svg version="1.1" id="Capa_1" xmlns="http://www.w3.org/2000/svg" xmlns:xlink="http://www.w3.org/1999/xlink" x="0px" y="0px"
	 width="16px" height="16px" viewBox="0 0 16 16" enable-background="new 0 0 16 16" xml:space="preserve">
<path fill-rule="evenodd" clip-rule="evenodd" fill="#00AAA4" d="M9.1,5.8C8.6,6.3,8.5,6.8,8.5,7.3C8.5,7.7,8.2,8,7.9,8H7.6
	C7.2,8,6.9,7.7,6.9,7.3l0-0.1C6.8,6.6,7,6,7.6,5.4c0.4-0.4,0.7-0.8,0.7-1.2c0-0.4-0.3-0.7-0.8-0.7c-0.2,0-0.4,0-0.6,0.1
	C6.5,3.6,6.1,3.4,6,3.1C5.9,2.7,6.1,2.3,6.4,2.2C6.8,2.1,7.3,2,7.8,2C9.3,2,10,2.9,10,3.8C10,4.7,9.5,5.3,9.1,5.8z M8,11
	c-0.6,0-1-0.4-1-1c0-0.6,0.4-1,1-1c0.6,0,1,0.4,1,1C9,10.6,8.6,11,8,11z M16,2.9C16,1.3,14.7,0,13.1,0H2.9C2.1,0,1.4,0.3,0.9,0.9
	C0.3,1.4,0,2.2,0,2.9l0,7.8c0,1.6,1.3,2.9,2.9,2.9h2.9l1.4,2C7.4,15.8,7.7,16,8,16s0.6-0.2,0.8-0.4l1.4-2h2.9c0.8,0,1.5-0.3,2.1-0.8
	c0.5-0.6,0.9-1.3,0.9-2.1L16,2.9z"/>
</svg>
