<?xml version="1.0" encoding="utf-8"?>
<!-- Generator: Adobe Illustrator 18.1.1, SVG Export Plug-In . SVG Version: 6.00 Build 0)  -->
<!DOCTYPE svg PUBLIC "-//W3C//DTD SVG 1.1//EN" "http://www.w3.org/Graphics/SVG/1.1/DTD/svg11.dtd">
<svg version="1.1" id="Capa_1" xmlns="http://www.w3.org/2000/svg" xmlns:xlink="http://www.w3.org/1999/xlink" x="0px" y="0px"
	 width="16px" height="16px" viewBox="-34 43 16 16" enable-background="new -34 43 16 16" xml:space="preserve">
<path fill="#00AAA4" d="M-18,46.1c-0.6,0.3-1.2,0.4-1.9,0.5c0.7-0.4,1.2-1,1.4-1.8c-0.6,0.4-1.3,0.7-2.1,0.8c-0.6-0.6-1.4-1-2.4-1
	c-1.8,0-3.3,1.4-3.3,3.3c0,0.3,0.1,0.5,0.1,0.7c-2.7-0.2-5.1-1.4-6.7-3.4c-0.3,0.5-0.5,1-0.5,1.6c0,1.1,0.6,2.2,1.4,2.7
	c-0.5,0-1-0.2-1.5-0.4v0.1c0,1.6,1.1,2.9,2.6,3.2c-0.3,0.1-0.6,0.1-0.9,0.1c-0.2,0-0.4,0-0.6-0.1c0.4,1.3,1.6,2.3,3,2.3
	c-1.1,0.9-2.5,1.4-4.1,1.4c-0.3,0-0.5,0-0.8-0.1c1.4,0.9,3.2,1.5,5,1.5c6,0,9.3-5,9.3-9.3c0-0.2,0-0.3,0-0.4
	C-19,47.3-18.5,46.7-18,46.1z"/>
</svg>
