<?xml version="1.0" encoding="utf-8"?>
<!-- Generator: Adobe Illustrator 18.1.1, SVG Export Plug-In . SVG Version: 6.00 Build 0)  -->
<!DOCTYPE svg PUBLIC "-//W3C//DTD SVG 1.1//EN" "http://www.w3.org/Graphics/SVG/1.1/DTD/svg11.dtd">
<svg version="1.1" id="Capa_1" xmlns="http://www.w3.org/2000/svg" xmlns:xlink="http://www.w3.org/1999/xlink" x="0px" y="0px"
	 width="18px" height="21px" viewBox="0 0 18 21" enable-background="new 0 0 18 21" xml:space="preserve">
<path fill="#424242" d="M18,7.5v12.4c0,0.6-0.5,1.1-1.1,1.1H1.1C0.5,21,0,20.5,0,19.9V1.1C0,0.5,0.5,0,1.1,0h9.4v6.4
	c0,0.6,0.5,1.1,1.1,1.1H18z M13.5,9.4c0-0.2-0.2-0.4-0.4-0.4H4.9C4.7,9,4.5,9.2,4.5,9.4v0.8c0,0.2,0.2,0.4,0.4,0.4h8.2
	c0.2,0,0.4-0.2,0.4-0.4V9.4z M13.5,12.4c0-0.2-0.2-0.4-0.4-0.4H4.9c-0.2,0-0.4,0.2-0.4,0.4v0.8c0,0.2,0.2,0.4,0.4,0.4h8.2
	c0.2,0,0.4-0.2,0.4-0.4V12.4z M13.5,15.4c0-0.2-0.2-0.4-0.4-0.4H4.9c-0.2,0-0.4,0.2-0.4,0.4v0.8c0,0.2,0.2,0.4,0.4,0.4h8.2
	c0.2,0,0.4-0.2,0.4-0.4V15.4z M17.5,6H12V0.5c0.2,0.1,0.3,0.2,0.4,0.3l4.8,4.8C17.3,5.7,17.4,5.8,17.5,6z"/>
</svg>
