<?xml version="1.0" encoding="utf-8"?>
<!-- Generator: Adobe Illustrator 18.1.1, SVG Export Plug-In . SVG Version: 6.00 Build 0)  -->
<!DOCTYPE svg PUBLIC "-//W3C//DTD SVG 1.1//EN" "http://www.w3.org/Graphics/SVG/1.1/DTD/svg11.dtd">
<svg version="1.1" id="Capa_1" xmlns="http://www.w3.org/2000/svg" xmlns:xlink="http://www.w3.org/1999/xlink" x="0px" y="0px"
	 width="18px" height="21px" viewBox="-33 40 18 21" enable-background="new -33 40 18 21" xml:space="preserve">
<path fill="#FFFFFF" d="M-15,47.5v12.4c0,0.6-0.5,1.1-1.1,1.1h-15.8c-0.6,0-1.1-0.5-1.1-1.1V41.1c0-0.6,0.5-1.1,1.1-1.1h9.4v6.4
	c0,0.6,0.5,1.1,1.1,1.1H-15z M-19.5,49.4c0-0.2-0.2-0.4-0.4-0.4h-8.2c-0.2,0-0.4,0.2-0.4,0.4v0.8c0,0.2,0.2,0.4,0.4,0.4h8.2
	c0.2,0,0.4-0.2,0.4-0.4V49.4z M-19.5,52.4c0-0.2-0.2-0.4-0.4-0.4h-8.2c-0.2,0-0.4,0.2-0.4,0.4v0.8c0,0.2,0.2,0.4,0.4,0.4h8.2
	c0.2,0,0.4-0.2,0.4-0.4V52.4z M-19.5,55.4c0-0.2-0.2-0.4-0.4-0.4h-8.2c-0.2,0-0.4,0.2-0.4,0.4v0.8c0,0.2,0.2,0.4,0.4,0.4h8.2
	c0.2,0,0.4-0.2,0.4-0.4V55.4z M-15.5,46H-21v-5.5c0.2,0.1,0.3,0.2,0.4,0.3l4.8,4.8C-15.7,45.7-15.6,45.8-15.5,46z"/>
</svg>
