<?xml version="1.0" encoding="utf-8"?>
<!-- Generator: Adobe Illustrator 18.1.1, SVG Export Plug-In . SVG Version: 6.00 Build 0)  -->
<!DOCTYPE svg PUBLIC "-//W3C//DTD SVG 1.1//EN" "http://www.w3.org/Graphics/SVG/1.1/DTD/svg11.dtd">
<svg version="1.1" id="Capa_1" xmlns="http://www.w3.org/2000/svg" xmlns:xlink="http://www.w3.org/1999/xlink" x="0px" y="0px"
	 width="31px" height="36.2px" viewBox="159.5 -154.6 31 36.2" enable-background="new 159.5 -154.6 31 36.2" xml:space="preserve">
<path fill="#9CB93F" d="M190.5-141.7v21.4c0,1-0.9,1.9-1.9,1.9h-27.2c-1,0-1.9-0.9-1.9-1.9v-32.4c0-1,0.9-1.9,1.9-1.9h16.2v11
	c0,1,0.9,1.9,1.9,1.9H190.5z M182.8-138.4c0-0.3-0.3-0.7-0.7-0.7h-14.1c-0.3,0-0.7,0.3-0.7,0.7v1.4c0,0.3,0.3,0.7,0.7,0.7h14.1
	c0.3,0,0.7-0.3,0.7-0.7V-138.4z M182.8-133.2c0-0.3-0.3-0.7-0.7-0.7h-14.1c-0.3,0-0.7,0.3-0.7,0.7v1.4c0,0.3,0.3,0.7,0.7,0.7h14.1
	c0.3,0,0.7-0.3,0.7-0.7V-133.2z M182.8-128.1c0-0.3-0.3-0.7-0.7-0.7h-14.1c-0.3,0-0.7,0.3-0.7,0.7v1.4c0,0.3,0.3,0.7,0.7,0.7h14.1
	c0.3,0,0.7-0.3,0.7-0.7V-128.1z M189.6-144.2h-9.5v-9.5c0.3,0.2,0.5,0.3,0.7,0.5l8.3,8.3C189.3-144.8,189.5-144.6,189.6-144.2z"/>
</svg>
