<?xml version="1.0" encoding="utf-8"?>
<!-- Generator: Adobe Illustrator 18.1.1, SVG Export Plug-In . SVG Version: 6.00 Build 0)  -->
<!DOCTYPE svg PUBLIC "-//W3C//DTD SVG 1.1//EN" "http://www.w3.org/Graphics/SVG/1.1/DTD/svg11.dtd">
<svg version="1.1" id="Capa_1" xmlns="http://www.w3.org/2000/svg" xmlns:xlink="http://www.w3.org/1999/xlink" x="0px" y="0px"
	 width="22px" height="22px" viewBox="0 0 22 22" enable-background="new 0 0 22 22" xml:space="preserve">
<g>
	<defs>
		<path id="SVGID_1_" d="M18.6,15L16,12.4c-0.3-0.3-0.6-0.4-0.9-0.4c-0.4,0-0.7,0.1-0.9,0.4c0.4,0.4,0.9,0.7,0.9,1.4
			c0,0.7-0.6,1.3-1.3,1.3c-0.7,0-1-0.4-1.4-0.9c-0.3,0.3-0.4,0.6-0.4,1c0,0.3,0.1,0.6,0.4,0.9l2.6,2.6c0.3,0.3,0.6,0.3,0.9,0.3
			c0.3,0,0.6-0.1,0.9-0.3l1.9-1.9c0.3-0.3,0.4-0.6,0.4-0.9C19,15.6,18.9,15.3,18.6,15z M9.6,6.1L7,3.4C6.7,3.1,6.4,3,6.1,3
			S5.6,3.1,5.3,3.4L3.4,5.3C3.1,5.5,3,5.8,3,6.2c0,0.3,0.1,0.6,0.4,0.9L6,9.7C6.3,10,6.6,10,6.9,10c0.4,0,0.7-0.1,0.9-0.4
			C7.4,9.3,6.9,9,6.9,8.2s0.6-1.3,1.3-1.3c0.7,0,1,0.4,1.4,0.9c0.3-0.3,0.4-0.6,0.4-1C10,6.6,9.9,6.4,9.6,6.1z M20.7,19l-1.9,2
			C18,21.7,17.1,22,16,22c-1,0-1.9-0.5-2.7-1.2l-2.7-2.7c-0.7-0.6-1.2-1.7-1.2-2.6c0-1.1,0.4-2.1,1.2-2.9l-1.2-1.2
			c-0.7,0.8-1.8,1.2-2.8,1.2s-1.9-0.5-2.7-1.2L1.2,8.6C0.4,7.9,0,7,0,5.9s0.4-2,1.2-2.7l1.9-2C3.9,0.5,4.8,0,5.8,0s1.9,0.5,2.7,1.2
			l2.7,2.7c0.7,0.8,1.2,1.8,1.2,2.7c0,1.1-0.4,2.1-1.2,2.9l1.2,1.2c0.7-0.8,1.8-1.2,2.8-1.2s1.9,0.5,2.7,1.1l2.8,2.9
			c0.7,0.8,1.2,1.7,1.2,2.7C21.9,17.3,21.4,18.4,20.7,19z"/>
	</defs>
	<clipPath id="SVGID_2_">
		<use xlink:href="#SVGID_1_"  overflow="visible"/>
	</clipPath>
	<rect x="-5" y="-5" clip-path="url(#SVGID_2_)" fill="#FFFFFF" width="32" height="32"/>
</g>
</svg>
