<?xml version="1.0" encoding="utf-8"?>
<!DOCTYPE svg PUBLIC "-//W3C//DTD SVG 1.1//EN" "http://www.w3.org/Graphics/SVG/1.1/DTD/svg11.dtd">
<svg version="1.1" id="Capa_1" xmlns="http://www.w3.org/2000/svg" xmlns:xlink="http://www.w3.org/1999/xlink" x="0px" y="0px"
	 width="8px" height="12px" viewBox="0 0 8 12" enable-background="new 0 0 8 12" xml:space="preserve">
<path fill="#333333" d="M4,6C2.9,6,1.9,5.1,1.9,4S2.9,1.9,4,1.9S6,2.9,6,4S5.1,6,4,6z M4,0C1.8,0,0,1.8,0,4c0,0.9,0.6,2.4,1.7,4.4 c0.8,1.5,1.6,2.7,1.7,2.7L4,12l0.6-0.9c0.1-0.1,0.8-1.3,1.7-2.7C7.4,6.3,8,4.9,8,4C8,1.8,6.2,0,4,0z"/>
</svg>
