<?xml version="1.0" encoding="utf-8"?>
<!-- Generator: Adobe Illustrator 18.1.1, SVG Export Plug-In . SVG Version: 6.00 Build 0)  -->
<!DOCTYPE svg PUBLIC "-//W3C//DTD SVG 1.1//EN" "http://www.w3.org/Graphics/SVG/1.1/DTD/svg11.dtd">
<svg version="1.1" id="Capa_1" xmlns="http://www.w3.org/2000/svg" xmlns:xlink="http://www.w3.org/1999/xlink" x="0px" y="0px"
	 width="14px" height="14px" viewBox="36.4 44.4 14 14" enable-background="new 36.4 44.4 14 14" xml:space="preserve">
<g>
	<path fill="#9C9C9C" d="M48.5,56.3c1-1,1.6-2.1,1.9-3.4c0.1-0.4-0.3-0.6-0.6-0.3c0,0,0,0,0,0c-2.1,2.1-5.6,2.1-7.7-0.1
		c-2-2.1-1.9-5.3,0.1-7.4c0,0,0.1-0.1,0.1-0.1c0.3-0.3,0-0.7-0.3-0.6c-1.2,0.3-2.4,0.9-3.3,1.9c-2.8,2.8-2.8,7.3,0,10
		C41.3,59.1,45.8,59.1,48.5,56.3z"/>
</g>
</svg>
