<?xml version="1.0" encoding="utf-8"?>
<!-- Generator: Adobe Illustrator 18.1.1, SVG Export Plug-In . SVG Version: 6.00 Build 0)  -->
<!DOCTYPE svg PUBLIC "-//W3C//DTD SVG 1.1//EN" "http://www.w3.org/Graphics/SVG/1.1/DTD/svg11.dtd">
<svg version="1.1" id="Capa_1" xmlns="http://www.w3.org/2000/svg" xmlns:xlink="http://www.w3.org/1999/xlink" x="0px" y="0px"
	 width="28px" height="24px" viewBox="0 0 28 24" enable-background="new 0 0 28 24" xml:space="preserve">
<path fill-rule="evenodd" clip-rule="evenodd" fill="#FFFFFF" d="M13.3,12.7l-3.9,2.9c-0.2,0.1-0.4,0.2-0.6,0.2
	c-0.1,0-0.3,0-0.4-0.1C8.2,15.6,8,15.3,8,14.9V9.1c0-0.4,0.2-0.7,0.5-0.8c0.3-0.2,0.7-0.1,1,0.1l3.9,2.9c0.2,0.2,0.4,0.4,0.4,0.7
	C13.7,12.3,13.5,12.6,13.3,12.7z M26.8,5c-0.7-0.3-1.5-0.1-2.1,0.4L21.2,9V6.8c0-1.6-1.3-2.8-2.8-2.8H2.8C1.3,4,0,5.3,0,6.8v10.4
	C0,18.7,1.3,20,2.8,20h15.5c1.6,0,2.8-1.3,2.8-2.8V15l3.6,3.6c0.4,0.4,0.8,0.6,1.3,0.6c0.2,0,0.5,0,0.7-0.1c0.7-0.3,1.2-1,1.2-1.7
	V6.7C28,6,27.5,5.3,26.8,5z"/>
</svg>
