<?xml version="1.0" encoding="utf-8"?>
<!-- Generator: Adobe Illustrator 18.1.1, SVG Export Plug-In . SVG Version: 6.00 Build 0)  -->
<!DOCTYPE svg PUBLIC "-//W3C//DTD SVG 1.1//EN" "http://www.w3.org/Graphics/SVG/1.1/DTD/svg11.dtd">
<svg version="1.1" id="Capa_1" xmlns="http://www.w3.org/2000/svg" xmlns:xlink="http://www.w3.org/1999/xlink" x="0px" y="0px"
	 width="19px" height="26px" viewBox="0 0 19 26" enable-background="new 0 0 19 26" xml:space="preserve">
<g>
	<g>
		<path fill="#FFFFFF" d="M9.4,10.8c-0.3,0-0.5,0-0.6,0.1V15c0.1,0,0.3,0,0.5,0c1.3,0,2.1-0.7,2.1-2.2C11.4,11.5,10.6,10.8,9.4,10.8
			z"/>
		<path fill="#FFFFFF" d="M3.9,10.8c-0.3,0-0.5,0-0.6,0.1v1.9c0.1,0,0.3,0,0.5,0c0.8,0,1.2-0.4,1.2-1C5,11.1,4.6,10.8,3.9,10.8z"/>
		<path fill="#FFFFFF" d="M13.3,0H0v26h19V7.7l-6.7-4.7L13.3,0z M5.8,13.2c-0.5,0.5-1.2,0.7-2.1,0.7c-0.2,0-0.4,0-0.5,0v2.3H1.8V9.8
			c0.4-0.1,1.1-0.1,1.9-0.1c0.9,0,1.5,0.2,1.9,0.5c0.4,0.3,0.7,0.8,0.7,1.5C6.4,12.3,6.2,12.8,5.8,13.2z M13.8,9.8h3.9v1.2h-2.4v1.4
			h2.3v1.2h-2.3v2.5h-1.4C13.8,16.1,13.8,9.8,13.8,9.8z M12.9,12.8c0,1.2-0.4,2-1.1,2.6c-0.7,0.6-1.7,0.8-2.9,0.8
			c-0.7,0-1.3,0-1.6-0.1V9.8c0.5-0.1,1.2-0.1,1.9-0.1c1.2,0,2,0.2,2.6,0.7C12.5,10.9,12.9,11.7,12.9,12.8z"/>
		<polygon fill="#FFFFFF" points="14.7,0 13.8,2.5 19,6.1 		"/>
	</g>
</g>
</svg>
