<?xml version="1.0" encoding="utf-8"?>
<!-- Generator: Adobe Illustrator 18.1.1, SVG Export Plug-In . SVG Version: 6.00 Build 0)  -->
<!DOCTYPE svg PUBLIC "-//W3C//DTD SVG 1.1//EN" "http://www.w3.org/Graphics/SVG/1.1/DTD/svg11.dtd">
<svg version="1.1" id="Capa_1" xmlns="http://www.w3.org/2000/svg" xmlns:xlink="http://www.w3.org/1999/xlink" x="0px" y="0px"
	 width="20px" height="20px" viewBox="-4.9 6.9 20 20" enable-background="new -4.9 6.9 20 20" xml:space="preserve">
<path fill-rule="evenodd" clip-rule="evenodd" fill="#00AAA4" d="M6.9,20.5c3,0,5.4-2.4,5.4-5.4c0-3-2.4-5.4-5.4-5.4
	c-3,0-5.4,2.4-5.4,5.4C1.5,18.1,3.9,20.5,6.9,20.5z M-4.4,24.1l4.3-4.3c0,0,0.1,0,0.1-0.1c-0.9-1.3-1.4-2.8-1.4-4.5
	c0-4.5,3.7-8.2,8.2-8.2s8.2,3.7,8.2,8.2c0,4.5-3.7,8.2-8.2,8.2c-1.7,0-3.2-0.5-4.5-1.4c0,0,0,0.1-0.1,0.1l-4.3,4.3
	c-0.7,0.7-1.7,0.7-2.4,0C-5.1,25.8-5.1,24.7-4.4,24.1z"/>
</svg>
