<?xml version="1.0" encoding="utf-8"?>
<!-- Generator: Adobe Illustrator 18.1.1, SVG Export Plug-In . SVG Version: 6.00 Build 0)  -->
<!DOCTYPE svg PUBLIC "-//W3C//DTD SVG 1.1//EN" "http://www.w3.org/Graphics/SVG/1.1/DTD/svg11.dtd">
<svg version="1.1" id="Capa_1" xmlns="http://www.w3.org/2000/svg" xmlns:xlink="http://www.w3.org/1999/xlink" x="0px" y="0px"
	 width="30px" height="30px" viewBox="0 0 30 30" enable-background="new 0 0 30 30" xml:space="preserve">
<path fill-rule="evenodd" clip-rule="evenodd" fill="#8BC300" d="M22,11.1l-1.6-1.6c-0.2-0.2-0.5-0.2-0.7,0l-6.7,6.8l-2.8-2.9
	c-0.2-0.2-0.5-0.2-0.7,0L8,15c-0.2,0.2-0.2,0.5,0,0.7l4.8,4.9c0.1,0.1,0.2,0.1,0.3,0.1c0.1,0,0.2,0,0.3-0.1l8.6-8.8
	c0.1-0.1,0.1-0.2,0.1-0.4C22.2,11.3,22.1,11.2,22,11.1z"/>
<g>
	<path fill="#8BC300" d="M15,3c6.6,0,12,5.4,12,12s-5.4,12-12,12S3,21.6,3,15S8.4,3,15,3 M15,0C6.7,0,0,6.7,0,15s6.7,15,15,15
		s15-6.7,15-15S23.3,0,15,0L15,0z"/>
</g>
</svg>
