<?xml version="1.0" encoding="utf-8"?>
<!-- Generator: Adobe Illustrator 18.1.1, SVG Export Plug-In . SVG Version: 6.00 Build 0)  -->
<!DOCTYPE svg PUBLIC "-//W3C//DTD SVG 1.1//EN" "http://www.w3.org/Graphics/SVG/1.1/DTD/svg11.dtd">
<svg version="1.1" id="Capa_1" xmlns="http://www.w3.org/2000/svg" xmlns:xlink="http://www.w3.org/1999/xlink" x="0px" y="0px"
	 width="14px" height="14px" viewBox="36.4 44.4 14 14" enable-background="new 36.4 44.4 14 14" xml:space="preserve">
<g>
	<g>
		<path fill="#9C9C9C" d="M43.4,47.9c-1.9,0-3.5,1.6-3.5,3.5c0,1.9,1.6,3.5,3.5,3.5c1.9,0,3.5-1.6,3.5-3.5
			C46.9,49.5,45.4,47.9,43.4,47.9z"/>
		<g>
			<g>
				<path fill="#9C9C9C" d="M43.4,46.9c-0.4,0-0.7-0.3-0.7-0.7v-1.1c0-0.4,0.3-0.7,0.7-0.7s0.7,0.3,0.7,0.7v1.1
					C44.1,46.6,43.8,46.9,43.4,46.9z"/>
			</g>
			<g>
				<path fill="#9C9C9C" d="M43.4,56c-0.4,0-0.7,0.3-0.7,0.7v1.1c0,0.4,0.3,0.7,0.7,0.7s0.7-0.3,0.7-0.7v-1.1
					C44.1,56.3,43.8,56,43.4,56z"/>
			</g>
			<g>
				<path fill="#9C9C9C" d="M46.6,48.2c-0.3-0.3-0.3-0.7,0-1l0.8-0.8c0.3-0.3,0.7-0.3,1,0c0.3,0.3,0.3,0.7,0,1l-0.8,0.8
					C47.3,48.5,46.9,48.5,46.6,48.2z"/>
			</g>
			<g>
				<path fill="#9C9C9C" d="M40.2,54.6c-0.3-0.3-0.7-0.3-1,0l-0.8,0.8c-0.3,0.3-0.3,0.7,0,1c0.3,0.3,0.7,0.3,1,0l0.8-0.8
					C40.5,55.3,40.5,54.9,40.2,54.6z"/>
			</g>
			<g>
				<path fill="#9C9C9C" d="M48,51.4c0-0.4,0.3-0.7,0.7-0.7h1.1c0.4,0,0.7,0.3,0.7,0.7s-0.3,0.7-0.7,0.7h-1.1
					C48.3,52.1,48,51.8,48,51.4z"/>
			</g>
			<g>
				<path fill="#9C9C9C" d="M38.9,51.4c0-0.4-0.3-0.7-0.7-0.7h-1.1c-0.4,0-0.7,0.3-0.7,0.7s0.3,0.7,0.7,0.7h1.1
					C38.6,52.1,38.9,51.8,38.9,51.4z"/>
			</g>
			<g>
				<path fill="#9C9C9C" d="M46.6,54.6c0.3-0.3,0.7-0.3,1,0l0.8,0.8c0.3,0.3,0.3,0.7,0,1c-0.3,0.3-0.7,0.3-1,0l-0.8-0.8
					C46.4,55.3,46.4,54.9,46.6,54.6z"/>
			</g>
			<g>
				<path fill="#9C9C9C" d="M40.2,48.2c0.3-0.3,0.3-0.7,0-1l-0.8-0.8c-0.3-0.3-0.7-0.3-1,0c-0.3,0.3-0.3,0.7,0,1l0.8,0.8
					C39.5,48.5,40,48.5,40.2,48.2z"/>
			</g>
		</g>
	</g>
</g>
</svg>
