<?xml version="1.0" encoding="utf-8"?>
<!-- Generator: Adobe Illustrator 18.1.1, SVG Export Plug-In . SVG Version: 6.00 Build 0)  -->
<svg version="1.1" id="Capa_1" xmlns="http://www.w3.org/2000/svg" xmlns:xlink="http://www.w3.org/1999/xlink" x="0px" y="0px"
	 width="16.7px" height="16.7px" viewBox="41.3 1.4 16.7 16.7" enable-background="new 41.3 1.4 16.7 16.7" xml:space="preserve">
<path fill="#333333" d="M57.5,10.3l-7.9-7.9c-0.2-0.3-0.6-0.5-1.1-0.7c-0.5-0.2-0.9-0.3-1.3-0.3h-4.6c-0.4,0-0.7,0.1-1,0.4
	c-0.3,0.3-0.4,0.7-0.4,1v4.6c0,0.4,0.1,0.9,0.3,1.3c0.2,0.5,0.4,0.8,0.7,1.1l7.9,7.9c0.3,0.3,0.6,0.4,1,0.4c0.4,0,0.7-0.1,1-0.4
	l5.4-5.4c0.3-0.3,0.4-0.6,0.4-1C58,10.9,57.8,10.6,57.5,10.3 M44.8,6.4c-0.4,0-0.7-0.1-1-0.4s-0.4-0.6-0.4-1c0-0.4,0.1-0.7,0.4-1
	s0.6-0.4,1-0.4s0.7,0.1,1,0.4c0.3,0.2,0.5,0.6,0.5,1c0,0.4-0.1,0.7-0.4,1C45.5,6.2,45.2,6.4,44.8,6.4"/>
</svg>
