<?xml version="1.0" encoding="utf-8"?>
<!-- Generator: Adobe Illustrator 20.1.0, SVG Export Plug-In . SVG Version: 6.00 Build 0)  -->
<svg version="1.1" id="Capa_1" xmlns="http://www.w3.org/2000/svg" xmlns:xlink="http://www.w3.org/1999/xlink" x="0px" y="0px"
	 width="209.4px" height="68.9px" viewBox="0 0 209.4 68.9" style="enable-background:new 0 0 209.4 68.9;" xml:space="preserve">
<style type="text/css">
	.st0{fill:#231F20;}
	.st1{fill:#00483A;}
</style>
<g>
	<g>
		<path class="st0" d="M27.1,5.9c0-1-0.2-1.3-0.6-1.3c-0.7,0-0.8,0.6-0.8,2.9s0.1,2.9,0.8,2.9c0.6,0,0.7-0.5,0.7-2.1h2.2V9
			c0,2.4-1.4,3-2.8,3c-2.5,0-3.1-1.3-3.1-4.4c0-3.3,0.7-4.4,3.1-4.4c2,0,2.8,1.1,2.8,2.7v0.5h-2.2V5.9z"/>
		<path class="st0" d="M30.1,3.3h5.1v1.8h-2.8v1.5H35v1.7h-2.7V10h2.9v1.8h-5.2V3.3z"/>
		<path class="st0" d="M36.1,3.3h2.5L40,8.5h0V3.3h2.1v8.6h-2.4l-1.5-5.3h0v5.3h-2.1V3.3z"/>
		<path class="st0" d="M44.3,5.1h-1.7V3.3h5.6v1.9h-1.7v6.7h-2.2V5.1z"/>
		<path class="st0" d="M48.7,3.3h3.5c1.7,0,2.3,1,2.3,2.3c0,1.1-0.4,1.9-1.5,2v0c1.1,0.1,1.4,0.8,1.4,1.9v0.7c0,0.4,0,1,0.1,1.2
			c0.1,0.1,0.1,0.2,0.3,0.3v0.1h-2.4c-0.2-0.5-0.2-1.3-0.2-1.6V9.6c0-1-0.2-1.2-0.7-1.2h-0.6v3.4h-2.2V3.3z M50.9,6.9h0.4
			c0.6,0,0.9-0.4,0.9-1c0-0.7-0.3-1-0.9-1h-0.4V6.9z"/>
		<path class="st0" d="M58.4,3.1c2.3,0,3.1,1.2,3.1,4.4c0,3.2-0.8,4.4-3.1,4.4c-2.3,0-3.1-1.2-3.1-4.4C55.3,4.3,56.1,3.1,58.4,3.1z
			 M58.4,10.5c0.7,0,0.8-0.6,0.8-2.9s-0.1-2.9-0.8-2.9s-0.8,0.6-0.8,2.9S57.7,10.5,58.4,10.5z"/>
		<path class="st0" d="M65.4,3.3h3.2c2.6,0,2.7,2,2.7,4.3s-0.1,4.3-2.7,4.3h-3.2V3.3z M67.6,10.2H68c0.9,0,1-0.4,1-2.7
			s-0.1-2.7-1-2.7h-0.4V10.2z"/>
		<path class="st0" d="M72.2,3.3h5.1v1.8h-2.8v1.5h2.7v1.7h-2.7V10h2.9v1.8h-5.2V3.3z"/>
		<path class="st0" d="M81.3,3.3h5.1v1.8h-2.8v1.5h2.7v1.7h-2.7v3.5h-2.2V3.3z"/>
		<path class="st0" d="M89.9,3.1c2.3,0,3.1,1.2,3.1,4.4c0,3.2-0.8,4.4-3.1,4.4c-2.3,0-3.1-1.2-3.1-4.4C86.9,4.3,87.6,3.1,89.9,3.1z
			 M89.9,10.5c0.7,0,0.8-0.6,0.8-2.9s-0.1-2.9-0.8-2.9c-0.7,0-0.8,0.6-0.8,2.9S89.2,10.5,89.9,10.5z"/>
		<path class="st0" d="M93.8,3.3h3.5c1.7,0,2.3,1,2.3,2.3c0,1.1-0.4,1.9-1.5,2v0c1.1,0.1,1.4,0.8,1.4,1.9v0.7c0,0.4,0,1,0.1,1.2
			c0.1,0.1,0.1,0.2,0.3,0.3v0.1h-2.4c-0.2-0.5-0.2-1.3-0.2-1.6V9.6c0-1-0.2-1.2-0.7-1.2H96v3.4h-2.2V3.3z M96,6.9h0.4
			c0.6,0,0.9-0.4,0.9-1c0-0.7-0.3-1-0.9-1H96V6.9z"/>
		<path class="st0" d="M100.6,3.3h3.2l0.9,5.1h0l0.9-5.1h3.2v8.6h-2.1V5.4h0l-1.2,6.4h-1.6l-1.2-6.4h0v6.4h-2.1V3.3z"/>
		<path class="st0" d="M111.1,3.3h2.8l2.1,8.6h-2.4l-0.2-1.5h-1.8l-0.2,1.5H109L111.1,3.3z M112.5,5L112.5,5l-0.6,3.6h1.2L112.5,5z"
			/>
		<path class="st0" d="M119.8,5.9c0-1-0.2-1.3-0.6-1.3c-0.7,0-0.8,0.6-0.8,2.9s0.1,2.9,0.8,2.9c0.6,0,0.7-0.5,0.7-2.1h2.2V9
			c0,2.4-1.4,3-2.8,3c-2.5,0-3.1-1.3-3.1-4.4c0-3.3,0.7-4.4,3.1-4.4c2,0,2.8,1.1,2.8,2.7v0.5h-2.2V5.9z"/>
		<path class="st0" d="M122.7,3.3h2.2v8.6h-2.2V3.3z"/>
		<path class="st0" d="M128.7,3.1c2.3,0,3.1,1.2,3.1,4.4c0,3.2-0.8,4.4-3.1,4.4s-3.1-1.2-3.1-4.4C125.7,4.3,126.5,3.1,128.7,3.1z
			 M128.4,0.9h2l-1.1,1.7h-1.4L128.4,0.9z M128.7,10.5c0.7,0,0.8-0.6,0.8-2.9s-0.1-2.9-0.8-2.9S128,5.2,128,7.5S128,10.5,128.7,10.5
			z"/>
		<path class="st0" d="M132.6,3.3h2.5l1.4,5.3h0V3.3h2.1v8.6h-2.4l-1.5-5.3h0v5.3h-2.1V3.3z"/>
		<path class="st0" d="M146.6,5.1h-1.7V3.3h5.6v1.9h-1.7v6.7h-2.2V5.1z"/>
		<path class="st0" d="M151,3.3h5.1v1.8h-2.8v1.5h2.7v1.7h-2.7V10h2.9v1.8H151V3.3z M153.1,0.9h2L154,2.7h-1.4L153.1,0.9z"/>
		<path class="st0" d="M160.4,5.9c0-1-0.2-1.3-0.6-1.3c-0.7,0-0.8,0.6-0.8,2.9s0.1,2.9,0.8,2.9c0.6,0,0.7-0.5,0.7-2.1h2.2V9
			c0,2.4-1.4,3-2.8,3c-2.5,0-3.1-1.3-3.1-4.4c0-3.3,0.7-4.4,3.1-4.4c2,0,2.8,1.1,2.8,2.7v0.5h-2.2V5.9z"/>
		<path class="st0" d="M163.4,3.3h2.5l1.4,5.3h0V3.3h2.1v8.6H167l-1.5-5.3h0v5.3h-2.1V3.3z"/>
		<path class="st0" d="M170.4,3.3h2.2v8.6h-2.2V3.3z"/>
		<path class="st0" d="M177,5.9c0-1-0.2-1.3-0.6-1.3c-0.7,0-0.8,0.6-0.8,2.9s0.1,2.9,0.8,2.9c0.6,0,0.7-0.5,0.7-2.1h2.2V9
			c0,2.4-1.4,3-2.8,3c-2.5,0-3.1-1.3-3.1-4.4c0-3.3,0.7-4.4,3.1-4.4c2,0,2.8,1.1,2.8,2.7v0.5H177V5.9z"/>
		<path class="st0" d="M181.5,3.3h2.8l2.1,8.6H184l-0.2-1.5H182l-0.2,1.5h-2.4L181.5,3.3z M182.9,5L182.9,5l-0.6,3.6h1.2L182.9,5z"
			/>
	</g>
	<g>
		<path class="st1" d="M17.1,20.5H24l5.1,21.1h-5.8l-0.6-3.7h-4.4l-0.6,3.7h-5.8L17.1,20.5z M20.5,24.8L20.5,24.8L19,33.7h3.1
			L20.5,24.8z"/>
		<path class="st1" d="M42.2,26.9c0-2.4-0.4-3.1-1.5-3.1c-1.7,0-1.9,1.5-1.9,7.2s0.2,7.2,1.9,7.2c1.4,0,1.7-1.2,1.7-5.2h5.3v1.6
			c0,5.9-3.4,7.3-7,7.3c-6.2,0-7.5-3.1-7.5-10.9c0-8,1.8-10.9,7.5-10.9c5,0,6.8,2.6,6.8,6.7v1.3h-5.3V26.9z"/>
		<path class="st1" d="M53.5,20.5h8.6c4.2,0,5.8,2.4,5.8,5.6c0,2.8-1.1,4.6-3.6,5v0.1c2.7,0.2,3.5,1.9,3.5,4.7v1.8
			c0,1.1,0,2.5,0.3,2.9c0.1,0.2,0.3,0.5,0.6,0.6v0.3h-5.8c-0.5-1.1-0.5-3.1-0.5-4v-1.4c0-2.4-0.5-3-1.8-3H59v8.4h-5.5V20.5z
			 M59,29.4h1.1c1.6,0,2.3-1,2.3-2.5c0-1.7-0.7-2.4-2.3-2.4H59V29.4z"/>
		<path class="st1" d="M74.2,20.5h12.5V25h-7v3.6h6.5v4.3h-6.5v4.2H87v4.5H74.2V20.5z"/>
		<path class="st1" d="M92.8,20.5h8c6.3,0,6.7,5,6.7,10.5c0,5.5-0.3,10.5-6.7,10.5h-8V20.5z M98.3,37.6h1.1c2.1,0,2.4-0.9,2.4-6.6
			s-0.3-6.6-2.4-6.6h-1.1V37.6z"/>
		<path class="st1" d="M113.3,20.5h5.5v21.1h-5.5V20.5z"/>
		<path class="st1" d="M127.8,25.2h-4.1v-4.7h13.7v4.7h-4.1v16.4h-5.5V25.2z"/>
		<path class="st1" d="M144.3,20.5h6.9l5.1,21.1h-5.8l-0.6-3.7h-4.4l-0.6,3.7h-5.8L144.3,20.5z M147.8,24.8L147.8,24.8l-1.6,8.9h3.1
			L147.8,24.8z"/>
		<path class="st1" d="M161,20.5h8c6.3,0,6.7,5,6.7,10.5c0,5.5-0.3,10.5-6.7,10.5h-8V20.5z M166.5,37.6h1.1c2.1,0,2.4-0.9,2.4-6.6
			s-0.3-6.6-2.4-6.6h-1.1V37.6z"/>
		<path class="st1" d="M188.7,20.1c5.6,0,7.5,3.1,7.5,10.9S194.3,42,188.7,42c-5.6,0-7.5-3.1-7.5-10.9S183.1,20.1,188.7,20.1z
			 M188.7,38.3c1.7,0,1.9-1.5,1.9-7.2s-0.2-7.2-1.9-7.2c-1.7,0-1.9,1.5-1.9,7.2S187,38.3,188.7,38.3z"/>
	</g>
	<g>
		<path class="st0" d="M2.6,52.5h2.3v3.8H3.7l0-0.6h0c-0.2,0.6-0.9,0.7-1.5,0.7c-1.8,0-2-1.3-2-3.6c0-2.3,0.4-3.6,2.6-3.6
			c1.3,0,2.2,0.6,2.2,2.3H3.2c0-0.3,0-0.6-0.1-0.8c-0.1-0.2-0.2-0.3-0.4-0.3c-0.6,0-0.6,0.5-0.6,2.4s0.1,2.4,0.6,2.4
			c0.4,0,0.6-0.2,0.6-1.5H2.6V52.5z"/>
		<path class="st0" d="M7.9,53.9v0.7c0,0.6,0.2,0.7,0.5,0.7c0.3,0,0.5-0.2,0.5-0.9h1.6c0,0.6-0.2,1.1-0.5,1.5
			c-0.3,0.3-0.8,0.5-1.6,0.5c-1.7,0-2.2-0.8-2.2-2.7c0-2,0.7-2.8,2.2-2.8c1.4,0,2.1,0.6,2.1,2.5v0.5H7.9z M8.9,52.8
			c0-0.6-0.1-0.8-0.5-0.8c-0.4,0-0.5,0.3-0.5,0.8V53h1V52.8z"/>
		<path class="st0" d="M13.1,54.6c0,0.2,0,0.4,0.1,0.5c0.1,0.1,0.2,0.2,0.4,0.2c0.3,0,0.5-0.2,0.5-0.4c0-0.9-2.5-0.4-2.5-2.4
			c0-0.9,0.7-1.6,2.1-1.6c1.3,0,2,0.6,2,1.6h-1.5c0-0.4-0.2-0.6-0.5-0.6c-0.3,0-0.4,0.2-0.4,0.4c0,0.9,2.5,0.3,2.5,2.3
			c0,1-0.8,1.8-2.1,1.8c-1.5,0-2.1-0.6-2.1-1.8H13.1z"/>
		<path class="st0" d="M16.7,51h0.6v-1.5H19V51h0.7v1.2H19v2.5c0,0.3,0.1,0.4,0.4,0.4h0.3v1.2c-0.3,0-0.7,0.1-0.9,0.1
			c-1.1,0-1.5-0.2-1.5-1.3v-2.8h-0.6V51z"/>
		<path class="st0" d="M20.9,49.3h1.7v1.3h-1.7V49.3z M20.9,51h1.7v5.2h-1.7V51z"/>
		<path class="st0" d="M26.2,56.4c-2,0-2.2-1.2-2.2-2.8c0-1.4,0.3-2.7,2.2-2.7c2,0,2.2,1.2,2.2,2.8C28.4,55,28.1,56.4,26.2,56.4z
			 M25.9,49.1h1.6l-0.9,1.4h-1.1L25.9,49.1z M26.2,55.3c0.4,0,0.5-0.3,0.5-1.6c0-1.3-0.1-1.6-0.5-1.6c-0.4,0-0.5,0.3-0.5,1.6
			C25.7,55,25.8,55.3,26.2,55.3z"/>
		<path class="st0" d="M29.7,51h1.7v0.6h0c0.2-0.5,0.7-0.8,1.3-0.8c0.8,0,1.4,0.3,1.4,1.4v3.9h-1.7v-3.5c0-0.4-0.1-0.6-0.4-0.6
			c-0.3,0-0.4,0.2-0.4,0.6v3.5h-1.7V51z"/>
		<path class="st0" d="M38.8,49.3h1.8v6.9h-1.8V49.3z"/>
		<path class="st0" d="M42.1,51h1.7v0.6h0c0.2-0.5,0.7-0.8,1.3-0.8c0.8,0,1.4,0.3,1.4,1.4v3.9h-1.7v-3.5c0-0.4-0.1-0.6-0.4-0.6
			c-0.3,0-0.4,0.2-0.4,0.6v3.5h-1.7V51z"/>
		<path class="st0" d="M49.2,54.6c0,0.2,0,0.4,0.1,0.5c0.1,0.1,0.2,0.2,0.4,0.2c0.3,0,0.5-0.2,0.5-0.4c0-0.9-2.5-0.4-2.5-2.4
			c0-0.9,0.7-1.6,2.1-1.6c1.3,0,2,0.6,2,1.6h-1.5c0-0.4-0.2-0.6-0.5-0.6c-0.3,0-0.4,0.2-0.4,0.4c0,0.9,2.5,0.3,2.5,2.3
			c0,1-0.8,1.8-2.1,1.8c-1.5,0-2.1-0.6-2.1-1.8H49.2z"/>
		<path class="st0" d="M52.8,51h0.6v-1.5h1.7V51h0.7v1.2h-0.7v2.5c0,0.3,0.1,0.4,0.4,0.4h0.3v1.2c-0.3,0-0.7,0.1-0.9,0.1
			c-1.1,0-1.5-0.2-1.5-1.3v-2.8h-0.6V51z"/>
		<path class="st0" d="M57,49.3h1.7v1.3H57V49.3z M57,51h1.7v5.2H57V51z"/>
		<path class="st0" d="M59.9,51h0.6v-1.5h1.7V51h0.7v1.2h-0.7v2.5c0,0.3,0.1,0.4,0.4,0.4h0.3v1.2c-0.3,0-0.7,0.1-0.9,0.1
			c-1.1,0-1.5-0.2-1.5-1.3v-2.8h-0.6V51z"/>
		<path class="st0" d="M64,51h1.7v3.5c0,0.4,0.1,0.6,0.4,0.6c0.3,0,0.4-0.2,0.4-0.6V51h1.7v5.2h-1.7v-0.6h0
			c-0.2,0.5-0.7,0.8-1.3,0.8c-0.8,0-1.4-0.3-1.4-1.4V51z"/>
		<path class="st0" d="M72.4,53.1c0-0.4,0-0.7-0.1-0.8c-0.1-0.2-0.2-0.2-0.4-0.2c-0.4,0-0.5,0.3-0.5,1.6s0.1,1.6,0.5,1.6
			c0.3,0,0.5-0.2,0.5-0.9v-0.3H74c0,0.8-0.1,1.4-0.5,1.8c-0.3,0.4-0.9,0.6-1.6,0.6c-1.3,0-2.3-0.4-2.3-2.7c0-2.5,1-2.8,2.3-2.8
			c1.5,0,2,0.9,2,2.2H72.4z"/>
		<path class="st0" d="M75.3,49.3H77v1.3h-1.7V49.3z M75.3,51H77v5.2h-1.7V51z"/>
		<path class="st0" d="M80.6,56.4c-2,0-2.2-1.2-2.2-2.8c0-1.4,0.3-2.7,2.2-2.7c2,0,2.2,1.2,2.2,2.8C82.8,55,82.6,56.4,80.6,56.4z
			 M80.6,55.3c0.4,0,0.5-0.3,0.5-1.6c0-1.3-0.1-1.6-0.5-1.6c-0.4,0-0.5,0.3-0.5,1.6C80.1,55,80.2,55.3,80.6,55.3z"/>
		<path class="st0" d="M84.1,51h1.7v0.6h0c0.2-0.5,0.7-0.8,1.3-0.8c0.8,0,1.4,0.3,1.4,1.4v3.9h-1.7v-3.5c0-0.4-0.1-0.6-0.4-0.6
			s-0.4,0.2-0.4,0.6v3.5h-1.7V51z"/>
		<path class="st0" d="M92.5,56.3c-0.1-0.2-0.1-0.4-0.1-0.6h0c-0.2,0.5-0.7,0.7-1.2,0.7c-1,0-1.5-0.6-1.5-1.5c0-1,0.3-1.4,1.5-1.7
			l0.7-0.2c0.4-0.1,0.5-0.3,0.5-0.6c0-0.3-0.1-0.5-0.4-0.5c-0.3,0-0.5,0.1-0.5,0.7h-1.5c0-1.5,1.2-1.8,2-1.8c1.2,0,2.1,0.3,2.1,1.7
			v2.6c0,0.5,0,0.9,0.2,1.1H92.5z M92.4,54.4v-0.6h0c-0.1,0.1-0.3,0.1-0.6,0.2c-0.3,0.1-0.4,0.3-0.4,0.7c0,0.3,0.2,0.6,0.4,0.6
			C92.2,55.2,92.4,54.9,92.4,54.4z"/>
		<path class="st0" d="M95.6,49.3h1.7v6.9h-1.7V49.3z"/>
	</g>
	<g>
		<path class="st0" d="M103.2,49.2h1.3l-2.2,7.2H101L103.2,49.2z"/>
	</g>
	<g>
		<path class="st0" d="M107.4,49.3h2.6c2.1,0,2.2,1.6,2.2,3.5c0,1.8-0.1,3.5-2.2,3.5h-2.6V49.3z M109.2,55h0.4
			c0.7,0,0.8-0.3,0.8-2.2s-0.1-2.2-0.8-2.2h-0.4V55z"/>
		<path class="st0" d="M115.7,56.4c-2,0-2.2-1.2-2.2-2.8c0-1.4,0.3-2.7,2.2-2.7c2,0,2.2,1.2,2.2,2.8C117.9,55,117.7,56.4,115.7,56.4
			z M115.7,55.3c0.4,0,0.5-0.3,0.5-1.6c0-1.3-0.1-1.6-0.5-1.6c-0.4,0-0.5,0.3-0.5,1.6C115.2,55,115.3,55.3,115.7,55.3z"/>
		<path class="st0" d="M121.8,53.1c0-0.4,0-0.7-0.1-0.8c-0.1-0.2-0.2-0.2-0.4-0.2c-0.4,0-0.5,0.3-0.5,1.6s0.1,1.6,0.5,1.6
			c0.3,0,0.5-0.2,0.5-0.9v-0.3h1.6c0,0.8-0.1,1.4-0.5,1.8c-0.3,0.4-0.9,0.6-1.6,0.6c-1.3,0-2.3-0.4-2.3-2.7c0-2.5,1-2.8,2.3-2.8
			c1.5,0,2,0.9,2,2.2H121.8z"/>
		<path class="st0" d="M126.3,53.9v0.7c0,0.6,0.2,0.7,0.5,0.7c0.3,0,0.5-0.2,0.5-0.9h1.6c0,0.6-0.2,1.1-0.5,1.5
			c-0.3,0.3-0.8,0.5-1.6,0.5c-1.7,0-2.2-0.8-2.2-2.7c0-2,0.7-2.8,2.2-2.8c1.4,0,2.1,0.6,2.1,2.5v0.5H126.3z M127.2,52.8
			c0-0.6-0.1-0.8-0.5-0.8c-0.4,0-0.5,0.3-0.5,0.8V53h1V52.8z"/>
		<path class="st0" d="M130.1,51h1.7v0.6h0c0.2-0.5,0.7-0.8,1.3-0.8c0.8,0,1.4,0.3,1.4,1.4v3.9h-1.7v-3.5c0-0.4-0.1-0.6-0.4-0.6
			s-0.4,0.2-0.4,0.6v3.5h-1.7V51z"/>
		<path class="st0" d="M138.5,53.1c0-0.4,0-0.7-0.1-0.8c-0.1-0.2-0.2-0.2-0.4-0.2c-0.4,0-0.5,0.3-0.5,1.6s0.1,1.6,0.5,1.6
			c0.3,0,0.5-0.2,0.5-0.9v-0.3h1.6c0,0.8-0.1,1.4-0.5,1.8c-0.3,0.4-0.9,0.6-1.6,0.6c-1.3,0-2.3-0.4-2.3-2.7c0-2.5,1-2.8,2.3-2.8
			c1.5,0,2,0.9,2,2.2H138.5z"/>
		<path class="st0" d="M141.4,49.3h1.7v1.3h-1.7V49.3z M141.4,51h1.7v5.2h-1.7V51z"/>
		<path class="st0" d="M147.1,56.3c-0.1-0.2-0.1-0.4-0.1-0.6h0c-0.2,0.5-0.7,0.7-1.2,0.7c-1,0-1.5-0.6-1.5-1.5c0-1,0.3-1.4,1.5-1.7
			l0.7-0.2c0.4-0.1,0.5-0.3,0.5-0.6c0-0.3-0.1-0.5-0.4-0.5c-0.3,0-0.5,0.1-0.5,0.7h-1.5c0-1.5,1.2-1.8,2-1.8c1.2,0,2.1,0.3,2.1,1.7
			v2.6c0,0.5,0,0.9,0.2,1.1H147.1z M147,54.4v-0.6h0c-0.1,0.1-0.3,0.1-0.6,0.2c-0.3,0.1-0.4,0.3-0.4,0.7c0,0.3,0.2,0.6,0.4,0.6
			C146.9,55.2,147,54.9,147,54.4z"/>
		<path class="st0" d="M156,49.3h1.7v6.9h-1.7v-0.7h0c-0.2,0.6-0.6,0.9-1.2,0.9c-1.2,0-1.6-0.9-1.6-2.9c0-2,0.6-2.6,1.6-2.6
			c0.5,0,0.9,0.2,1.1,0.7h0V49.3z M155.6,55.1c0.4,0,0.5-0.3,0.5-1.5c0-1.1-0.1-1.5-0.5-1.5c-0.4,0-0.5,0.3-0.5,1.5
			C155.1,54.8,155.2,55.1,155.6,55.1z"/>
		<path class="st0" d="M160.9,53.9v0.7c0,0.6,0.2,0.7,0.5,0.7c0.3,0,0.5-0.2,0.5-0.9h1.6c0,0.6-0.2,1.1-0.5,1.5
			c-0.3,0.3-0.8,0.5-1.6,0.5c-1.7,0-2.2-0.8-2.2-2.7c0-2,0.7-2.8,2.2-2.8c1.4,0,2.1,0.6,2.1,2.5v0.5H160.9z M161.8,52.8
			c0-0.6-0.1-0.8-0.5-0.8c-0.4,0-0.5,0.3-0.5,0.8V53h1V52.8z"/>
		<path class="st0" d="M168,49.3h2.7c1.4,0,2,0.9,2,2.1c0,1.4-0.8,2.1-2.3,2.1h-0.6v2.6H168V49.3z M169.8,52.3h0.3
			c0.5,0,0.7-0.3,0.7-0.8c0-0.6-0.2-0.8-0.7-0.8h-0.3V52.3z"/>
		<path class="st0" d="M173.9,51h1.7v0.8h0c0.2-0.6,0.7-1,1.2-1h0.3v1.6c-0.2,0-0.3,0-0.4,0c-0.6,0-1,0.2-1,0.9v2.9h-1.7V51z"/>
		<path class="st0" d="M179.7,53.9v0.7c0,0.6,0.2,0.7,0.5,0.7c0.3,0,0.5-0.2,0.5-0.9h1.6c0,0.6-0.2,1.1-0.5,1.5
			c-0.3,0.3-0.8,0.5-1.6,0.5c-1.7,0-2.2-0.8-2.2-2.7c0-2,0.7-2.8,2.2-2.8c1.4,0,2.1,0.6,2.1,2.5v0.5H179.7z M180.7,52.8
			c0-0.6-0.1-0.8-0.5-0.8c-0.4,0-0.5,0.3-0.5,0.8V53h1V52.8z"/>
		<path class="st0" d="M186.2,51h1.6v5.1c0,1.4-1,1.9-2.2,1.9c-1.1,0-2-0.3-2-1.5h1.6c0,0.3,0.2,0.4,0.4,0.4c0.3,0,0.5-0.1,0.5-0.6
			v-1h0c-0.2,0.6-0.7,0.8-1.2,0.8c-0.7,0-1.5-0.4-1.5-2.6c0-2,0.6-2.6,1.6-2.6c0.5,0,1,0.2,1.2,0.9h0V51z M185.7,54.8
			c0.3,0,0.5-0.2,0.5-1.3c0-1.1-0.2-1.3-0.5-1.3c-0.3,0-0.5,0.2-0.5,1.3C185.2,54.6,185.4,54.8,185.7,54.8z"/>
		<path class="st0" d="M189.3,51h1.7v0.8h0c0.2-0.6,0.7-1,1.2-1h0.3v1.6c-0.2,0-0.3,0-0.4,0c-0.6,0-1,0.2-1,0.9v2.9h-1.7V51z"/>
		<path class="st0" d="M196.1,56.3c-0.1-0.2-0.1-0.4-0.1-0.6h0c-0.2,0.5-0.7,0.7-1.2,0.7c-1,0-1.5-0.6-1.5-1.5c0-1,0.3-1.4,1.5-1.7
			l0.7-0.2c0.4-0.1,0.5-0.3,0.5-0.6c0-0.3-0.1-0.5-0.4-0.5c-0.3,0-0.5,0.1-0.5,0.7h-1.5c0-1.5,1.2-1.8,2-1.8c1.2,0,2.1,0.3,2.1,1.7
			v2.6c0,0.5,0,0.9,0.2,1.1H196.1z M196,54.4v-0.6h0c-0.1,0.1-0.3,0.1-0.6,0.2c-0.3,0.1-0.4,0.3-0.4,0.7c0,0.3,0.2,0.6,0.4,0.6
			C195.8,55.2,196,54.9,196,54.4z"/>
		<path class="st0" d="M201.7,49.3h1.7v6.9h-1.7v-0.7h0c-0.2,0.6-0.6,0.9-1.2,0.9c-1.2,0-1.6-0.9-1.6-2.9c0-2,0.6-2.6,1.6-2.6
			c0.5,0,0.9,0.2,1.1,0.7h0V49.3z M201.2,55.1c0.4,0,0.5-0.3,0.5-1.5c0-1.1-0.1-1.5-0.5-1.5c-0.4,0-0.5,0.3-0.5,1.5
			C200.7,54.8,200.8,55.1,201.2,55.1z"/>
		<path class="st0" d="M207,56.4c-2,0-2.2-1.2-2.2-2.8c0-1.4,0.3-2.7,2.2-2.7c2,0,2.2,1.2,2.2,2.8C209.2,55,209,56.4,207,56.4z
			 M207,55.3c0.4,0,0.5-0.3,0.5-1.6c0-1.3-0.1-1.6-0.5-1.6c-0.4,0-0.5,0.3-0.5,1.6C206.5,55,206.6,55.3,207,55.3z"/>
	</g>
	<g>
		<path class="st0" d="M10.8,65.8c0,0.6,0.1,1.1,0.6,1.1c0.4,0,0.6-0.2,0.6-1c0-0.9-0.2-1.1-0.9-1.1h-0.4v-1h0.4
			c0.5,0,0.7-0.4,0.7-1c0-0.5-0.2-0.8-0.5-0.8c-0.4,0-0.6,0.2-0.6,1H9.3c0-0.7,0.2-1.2,0.5-1.5c0.4-0.3,0.9-0.5,1.7-0.5
			c1.3,0,2,0.6,2,1.9c0,0.7-0.3,1.2-1,1.4v0c0.8,0.2,1.1,0.7,1.1,1.6c0,1.5-1,2.1-2.2,2.1c-1.4,0-2.3-0.4-2.3-2.1H10.8z"/>
		<path class="st0" d="M18.2,61h2l1.7,6.9h-1.7L20,66.5h-1.7l-0.2,1.3h-1.7L18.2,61z M19.2,62.2L19.2,62.2l-0.6,3.1h1.2L19.2,62.2z"
			/>
		<path class="st0" d="M22.5,61h1.9l1.3,4.5h0V61h1.5v6.9h-1.8L24,63.1h0v4.8h-1.5V61z M26.4,59.2c0,0.6-0.3,1.3-1,1.3
			c-0.5,0-0.9-0.3-1.1-0.3c-0.2,0-0.3,0.2-0.3,0.3h-0.7c0-0.3,0.1-0.7,0.3-0.9c0.2-0.2,0.4-0.4,0.6-0.4c0.3,0,0.5,0.1,0.7,0.1
			c0.2,0.1,0.3,0.1,0.5,0.1c0.2,0,0.3-0.2,0.3-0.3H26.4z"/>
		<path class="st0" d="M30.5,68c-2.1,0-2.4-1.4-2.4-3.6s0.3-3.6,2.4-3.6c2.3,0,2.4,1.7,2.4,3.6C32.9,66.3,32.8,68,30.5,68z
			 M30.5,66.9c0.7,0,0.8-0.6,0.8-2.5c0-1.9-0.1-2.5-0.8-2.5c-0.6,0-0.7,0.6-0.7,2.5C29.8,66.3,29.8,66.9,30.5,66.9z"/>
		<path class="st0" d="M35.1,65.8V66c0,0.5,0.1,0.9,0.7,0.9c0.6,0,0.7-0.4,0.7-0.8c0-1.5-3-0.7-3-3.2c0-1.1,0.6-2,2.3-2
			c1.6,0,2.2,0.8,2.2,1.9v0.2h-1.6c0-0.3,0-0.6-0.1-0.7c-0.1-0.2-0.3-0.2-0.5-0.2c-0.4,0-0.6,0.2-0.6,0.7c0,1.4,3,0.7,3,3.2
			c0,1.6-0.9,2.2-2.4,2.2c-1.2,0-2.3-0.4-2.3-1.8v-0.4H35.1z"/>
		<path class="st0" d="M43.1,60.8h1.3L42.2,68h-1.3L43.1,60.8z"/>
		<path class="st0" d="M47.4,61h2.4c1.6,0,2.3,0.8,2.3,3.2c0,2.5-0.3,3.7-2.5,3.7h-2.2V61z M49,66.7h0.4c0.8,0,1-0.3,1-2.4
			c0-1.7-0.1-2.1-1-2.1H49V66.7z"/>
		<path class="st0" d="M54.3,65.5v0.3c0,0.8,0.1,1.2,0.6,1.2c0.4,0,0.5-0.3,0.6-1h1.5c0,1.3-0.7,1.9-2,1.9c-2,0-2.1-1.4-2.1-2.9
			c0-1.5,0.4-2.6,2.1-2.6c1.9,0,2.1,1.2,2.1,3H54.3z M55.4,64.6c0-0.7-0.1-1.1-0.5-1.1c-0.5,0-0.6,0.4-0.6,1.1H55.4z"/>
		<path class="st0" d="M58.7,66.2c0,0.2,0,0.4,0.1,0.6c0.1,0.1,0.2,0.2,0.5,0.2c0.4,0,0.6-0.2,0.6-0.5c0-0.2-0.1-0.5-0.6-0.6
			c-1.3-0.4-1.9-0.7-1.9-1.8c0-1,0.7-1.6,2-1.6c1.5,0,1.9,0.7,1.9,1.5v0.2h-1.4V64c0-0.5-0.2-0.6-0.5-0.6c-0.4,0-0.5,0.2-0.5,0.5
			c0,0.9,2.5,0.3,2.5,2.3c0,1.1-0.7,1.7-2,1.7c-1.4,0-2-0.5-2-1.6v-0.2H58.7z"/>
		<path class="st0" d="M64.7,67.2L64.7,67.2c-0.1,0.4-0.5,0.8-1.2,0.8c-1.1,0-1.6-0.8-1.6-2.7c0-1.6,0.2-2.8,1.5-2.8
			c0.4,0,0.9,0.1,1.2,0.7h0V61h1.6v6.9h-1.5V67.2z M64.1,63.6c-0.6,0-0.6,0.6-0.6,1.6c0,0.8,0,1.6,0.6,1.6c0.5,0,0.6-0.6,0.6-1.6
			C64.6,64.4,64.6,63.6,64.1,63.6z"/>
		<path class="st0" d="M68.4,65.5v0.3c0,0.8,0.1,1.2,0.6,1.2c0.4,0,0.5-0.3,0.6-1H71c0,1.3-0.7,1.9-2,1.9c-2,0-2.1-1.4-2.1-2.9
			c0-1.5,0.4-2.6,2.1-2.6c1.9,0,2.1,1.2,2.1,3H68.4z M69.6,64.6c0-0.7-0.1-1.1-0.5-1.1c-0.5,0-0.6,0.4-0.6,1.1H69.6z"/>
		<path class="st0" d="M74.3,61h2.4c1.6,0,2.3,0.8,2.3,3.2c0,2.5-0.3,3.7-2.5,3.7h-2.2V61z M75.9,66.7h0.4c0.8,0,1-0.3,1-2.4
			c0-1.7-0.1-2.1-1-2.1h-0.5V66.7z"/>
		<path class="st0" d="M79.8,60.9h1.6v1.2h-1.6V60.9z M79.8,62.6h1.6v5.2h-1.6V62.6z"/>
		<path class="st0" d="M84.9,64.6c0-0.8-0.2-1.1-0.6-1.1c-0.5,0-0.6,0.7-0.6,1.7c0,1.2,0.1,1.7,0.6,1.7c0.5,0,0.6-0.3,0.6-1.2h1.5
			c0,1.6-0.6,2.3-2.1,2.3c-2,0-2.1-1.4-2.1-2.9c0-1.5,0.4-2.6,2.1-2.6c1.6,0,2.1,0.9,2.1,2.1H84.9z"/>
		<path class="st0" d="M87,66.1h1.5v1.7H87V66.1z"/>
		<path class="st0" d="M94.3,67.2L94.3,67.2c-0.1,0.4-0.5,0.8-1.2,0.8c-1.1,0-1.6-0.8-1.6-2.7c0-1.6,0.2-2.8,1.5-2.8
			c0.4,0,0.9,0.1,1.2,0.7h0V61h1.6v6.9h-1.5V67.2z M93.7,63.6c-0.6,0-0.6,0.6-0.6,1.6c0,0.8,0,1.6,0.6,1.6c0.5,0,0.6-0.6,0.6-1.6
			C94.2,64.4,94.2,63.6,93.7,63.6z"/>
		<path class="st0" d="M98,65.5v0.3c0,0.8,0.1,1.2,0.6,1.2c0.4,0,0.5-0.3,0.6-1h1.5c0,1.3-0.7,1.9-2,1.9c-2,0-2.1-1.4-2.1-2.9
			c0-1.5,0.4-2.6,2.1-2.6c1.9,0,2.1,1.2,2.1,3H98z M99.2,64.6c0-0.7-0.1-1.1-0.5-1.1c-0.5,0-0.6,0.4-0.6,1.1H99.2z"/>
		<path class="st0" d="M103.7,63.3v-0.2c0-1.4,0.7-2.1,2.2-2.1c1.7,0,2.1,0.8,2.1,1.9c0,1-0.2,1.4-1.1,2.2c-0.7,0.6-1.2,1.1-1.3,1.5
			h2.4v1.3h-4.4c0-1.6,1-2.6,1.5-3.1c1.2-1,1.2-1.3,1.2-1.8c0-0.5-0.1-0.9-0.6-0.9c-0.6,0-0.6,0.7-0.6,1.3H103.7z"/>
		<path class="st0" d="M110.9,68c-2.1,0-2.3-1.3-2.3-3.5c0-2,0.2-3.5,2.3-3.5c2.1,0,2.3,1.3,2.3,3.5C113.2,66.5,113,68,110.9,68z
			 M110.9,67c0.6,0,0.6-0.5,0.6-2.5c0-2-0.1-2.5-0.6-2.5c-0.6,0-0.6,0.5-0.6,2.5C110.3,66.4,110.4,67,110.9,67z"/>
		<path class="st0" d="M115.3,63.1H114v-1h0.2c1.2,0,1.5-0.6,1.6-1.1h1.1v6.8h-1.6V63.1z"/>
		<path class="st0" d="M121.5,62.8c0-0.2,0-0.4-0.1-0.5c-0.1-0.1-0.2-0.2-0.4-0.2c-0.5,0-0.7,0.4-0.7,1.9h0c0.2-0.4,0.6-0.6,1.2-0.6
			c1,0,1.6,0.6,1.6,2.1c0,1.4-0.4,2.5-2.2,2.5c-2,0-2.3-1.3-2.3-3.3c0-2.3,0.2-3.6,2.4-3.6c1.2,0,2,0.5,2,1.8H121.5z M121.6,65.8
			c0-0.8-0.1-1.2-0.6-1.2c-0.5,0-0.6,0.5-0.6,1.1c0,0.8,0.1,1.3,0.6,1.3C121.5,67,121.6,66.5,121.6,65.8z"/>
		<path class="st0" d="M126.4,61h1.6v2.2h0c0.3-0.5,0.7-0.7,1.2-0.7c0.9,0,1.4,0.4,1.4,1.5v3.9H129v-3.6c0-0.4-0.2-0.6-0.5-0.6
			c-0.3,0-0.6,0.2-0.6,0.7v3.4h-1.6V61z"/>
		<path class="st0" d="M131.4,64.2c0-0.7,0.2-1.2,0.6-1.4c0.4-0.3,0.8-0.3,1.5-0.3c1.3,0,1.9,0.4,1.9,1.5v2.7c0,0.4,0,0.9,0.2,1.1
			H134c-0.1-0.2-0.1-0.4-0.1-0.6h0c-0.2,0.5-0.7,0.7-1.2,0.7c-0.9,0-1.4-0.5-1.4-1.6c0-0.6,0.3-1.1,0.6-1.3c0.4-0.2,1-0.3,1.4-0.4
			c0.5-0.1,0.6-0.2,0.6-0.6c0-0.3-0.1-0.5-0.5-0.5c-0.4,0-0.6,0.3-0.6,0.7H131.4z M133.2,66.9c0.3,0,0.6-0.2,0.6-0.7
			c0-0.4,0-0.7,0-0.9c-0.5,0.3-0.7,0.3-0.9,0.4c-0.2,0.1-0.2,0.3-0.2,0.6C132.8,66.7,133,66.9,133.2,66.9z"/>
		<path class="st0" d="M137.5,66.2c0,0.2,0,0.4,0.1,0.6c0.1,0.1,0.2,0.2,0.5,0.2c0.4,0,0.6-0.2,0.6-0.5c0-0.2-0.1-0.5-0.6-0.6
			c-1.3-0.4-1.9-0.7-1.9-1.8c0-1,0.7-1.6,2-1.6c1.5,0,1.9,0.7,1.9,1.5v0.2h-1.4V64c0-0.5-0.2-0.6-0.5-0.6c-0.4,0-0.5,0.2-0.5,0.5
			c0,0.9,2.5,0.3,2.5,2.3c0,1.1-0.7,1.7-2,1.7c-1.4,0-2-0.5-2-1.6v-0.2H137.5z"/>
		<path class="st0" d="M141,63.7h-0.6v-1.1h0.6v-1.5h1.6v1.5h0.7v1.1h-0.7v2.6c0,0.4,0.1,0.5,0.5,0.5c0.1,0,0.2,0,0.2,0v1
			c-0.3,0-0.6,0.1-0.9,0.1c-1.1,0-1.4-0.2-1.4-1.4V63.7z"/>
		<path class="st0" d="M143.8,64.2c0-0.7,0.2-1.2,0.6-1.4c0.4-0.3,0.8-0.3,1.5-0.3c1.3,0,1.9,0.4,1.9,1.5v2.7c0,0.4,0,0.9,0.2,1.1
			h-1.5c-0.1-0.2-0.1-0.4-0.1-0.6h0c-0.2,0.5-0.7,0.7-1.2,0.7c-0.9,0-1.4-0.5-1.4-1.6c0-0.6,0.3-1.1,0.6-1.3c0.4-0.2,1-0.3,1.4-0.4
			c0.5-0.1,0.6-0.2,0.6-0.6c0-0.3-0.1-0.5-0.5-0.5c-0.4,0-0.6,0.3-0.6,0.7H143.8z M145.6,66.9c0.3,0,0.6-0.2,0.6-0.7
			c0-0.4,0-0.7,0-0.9c-0.5,0.3-0.7,0.3-0.9,0.4c-0.2,0.1-0.2,0.3-0.2,0.6C145.2,66.7,145.3,66.9,145.6,66.9z"/>
		<path class="st0" d="M151.2,61h2.4c1.6,0,2.3,0.8,2.3,3.2c0,2.5-0.3,3.7-2.5,3.7h-2.2V61z M152.9,66.7h0.4c0.8,0,1-0.3,1-2.4
			c0-1.7-0.1-2.1-1-2.1h-0.5V66.7z"/>
		<path class="st0" d="M156.8,60.9h1.6v1.2h-1.6V60.9z M156.8,62.6h1.6v5.2h-1.6V62.6z"/>
		<path class="st0" d="M161.8,64.6c0-0.8-0.2-1.1-0.6-1.1c-0.5,0-0.6,0.7-0.6,1.7c0,1.2,0.1,1.7,0.6,1.7c0.5,0,0.6-0.3,0.6-1.2h1.5
			c0,1.6-0.6,2.3-2.1,2.3c-2,0-2.1-1.4-2.1-2.9c0-1.5,0.4-2.6,2.1-2.6c1.6,0,2.1,0.9,2.1,2.1H161.8z"/>
		<path class="st0" d="M164,66.1h1.5v1.7H164V66.1z"/>
		<path class="st0" d="M171.2,67.2L171.2,67.2c-0.1,0.4-0.5,0.8-1.2,0.8c-1.1,0-1.6-0.8-1.6-2.7c0-1.6,0.2-2.8,1.5-2.8
			c0.4,0,0.9,0.1,1.2,0.7h0V61h1.6v6.9h-1.5V67.2z M170.6,63.6c-0.6,0-0.6,0.6-0.6,1.6c0,0.8,0,1.6,0.6,1.6c0.5,0,0.6-0.6,0.6-1.6
			C171.2,64.4,171.1,63.6,170.6,63.6z"/>
		<path class="st0" d="M175,65.5v0.3c0,0.8,0.1,1.2,0.6,1.2c0.4,0,0.5-0.3,0.6-1h1.5c0,1.3-0.7,1.9-2,1.9c-2,0-2.1-1.4-2.1-2.9
			c0-1.5,0.4-2.6,2.1-2.6c1.9,0,2.1,1.2,2.1,3H175z M176.1,64.6c0-0.7-0.1-1.1-0.5-1.1c-0.5,0-0.6,0.4-0.6,1.1H176.1z"/>
		<path class="st0" d="M180.7,63.3v-0.2c0-1.4,0.7-2.1,2.2-2.1c1.7,0,2.1,0.8,2.1,1.9c0,1-0.2,1.4-1.1,2.2c-0.7,0.6-1.2,1.1-1.3,1.5
			h2.4v1.3h-4.4c0-1.6,1-2.6,1.5-3.1c1.2-1,1.2-1.3,1.2-1.8c0-0.5-0.1-0.9-0.6-0.9c-0.6,0-0.6,0.7-0.6,1.3H180.7z"/>
		<path class="st0" d="M187.9,68c-2.1,0-2.3-1.3-2.3-3.5c0-2,0.2-3.5,2.3-3.5c2.1,0,2.3,1.3,2.3,3.5C190.1,66.5,189.9,68,187.9,68z
			 M187.9,67c0.6,0,0.6-0.5,0.6-2.5c0-2-0.1-2.5-0.6-2.5c-0.6,0-0.6,0.5-0.6,2.5C187.2,66.4,187.3,67,187.9,67z"/>
		<path class="st0" d="M192.3,63.1H191v-1h0.2c1.2,0,1.5-0.6,1.6-1.1h1.1v6.8h-1.6V63.1z"/>
		<path class="st0" d="M197.4,66.3c0,0.2,0,0.4,0.1,0.5c0.1,0.1,0.2,0.2,0.4,0.2c0.5,0,0.7-0.4,0.7-1.9h0c-0.2,0.4-0.6,0.6-1.2,0.6
			c-1,0-1.6-0.6-1.6-2.1c0-1.4,0.4-2.5,2.2-2.5c2,0,2.3,1.3,2.3,3.3c0,2.3-0.2,3.6-2.4,3.6c-1.2,0-2-0.5-2-1.7H197.4z M198.5,63.3
			c0-0.8-0.1-1.3-0.6-1.3c-0.5,0-0.6,0.4-0.6,1.2c0,0.8,0.1,1.2,0.6,1.2C198.4,64.4,198.5,64,198.5,63.3z"/>
	</g>
</g>
</svg>
