<?xml version="1.0" encoding="utf-8"?>
<!-- Generator: Adobe Illustrator 20.1.0, SVG Export Plug-In . SVG Version: 6.00 Build 0)  -->
<svg version="1.1" id="Capa_1" xmlns="http://www.w3.org/2000/svg" xmlns:xlink="http://www.w3.org/1999/xlink" x="0px" y="0px"
	 width="212.3px" height="69.9px" viewBox="0 0 212.3 69.9" style="enable-background:new 0 0 212.3 69.9;" xml:space="preserve">
<style type="text/css">
	.st0{fill:#231F20;}
	.st1{fill:#00483A;}
</style>
<g>
	<g>
		<path class="st0" d="M45.6,2.7h2.3v8.7h-2.3V2.7z"/>
		<path class="st0" d="M48.9,2.7h2.5L52.9,8h0V2.7H55v8.7h-2.5L51,6h0v5.4h-2.1V2.7z"/>
		<path class="st0" d="M59.5,5.2V5c0-0.5-0.2-0.9-0.6-0.9c-0.5,0-0.7,0.4-0.7,0.8c0,1.7,3.7,0.9,3.7,4c0,1.8-1.1,2.7-3.1,2.7
			c-1.9,0-2.9-0.6-2.9-2.4V8.8H58V9c0,0.7,0.3,1,0.7,1c0.5,0,0.7-0.4,0.7-0.8c0-1.7-3.6-0.9-3.6-3.9c0-1.8,0.9-2.7,2.8-2.7
			c2,0,2.8,0.8,2.8,2.7H59.5z"/>
		<path class="st0" d="M63.8,4.6h-1.7V2.7h5.7v1.9H66v6.8h-2.3V4.6z"/>
		<path class="st0" d="M68.2,2.7h2.3v8.7h-2.3V2.7z"/>
		<path class="st0" d="M72.5,4.6h-1.7V2.7h5.7v1.9h-1.7v6.8h-2.3V4.6z"/>
		<path class="st0" d="M79.2,2.7V9c0,0.8,0.3,1.1,0.7,1.1c0.4,0,0.7-0.2,0.7-1.1V2.7h2.3v5.7c0,2.4-1,3.2-2.9,3.2
			c-1.9,0-2.9-0.7-2.9-3.2V2.7H79.2z"/>
		<path class="st0" d="M84.9,4.6h-1.7V2.7h5.7v1.9h-1.7v6.8h-2.3V4.6z"/>
		<path class="st0" d="M92.2,2.5c2.3,0,3.1,1.3,3.1,4.5s-0.8,4.5-3.1,4.5s-3.1-1.3-3.1-4.5S89.9,2.5,92.2,2.5z M92.2,10
			c0.7,0,0.8-0.6,0.8-3s-0.1-3-0.8-3s-0.8,0.6-0.8,3S91.6,10,92.2,10z"/>
		<path class="st0" d="M99.2,2.7h3.4c1.7,0,2.5,1.2,2.5,2.7c0,1.8-1,2.7-2.8,2.7h-0.8v3.3h-2.3V2.7z M101.5,6.4h0.4
			c0.6,0,0.9-0.3,0.9-1.1c0-0.7-0.3-1.1-0.9-1.1h-0.4V6.4z"/>
		<path class="st0" d="M105.9,2.7h3.5c1.7,0,2.4,1,2.4,2.3c0,1.2-0.5,1.9-1.5,2.1v0c1.1,0.1,1.4,0.8,1.4,1.9v0.7c0,0.5,0,1,0.1,1.2
			c0.1,0.1,0.1,0.2,0.3,0.3v0.1h-2.4c-0.2-0.5-0.2-1.3-0.2-1.7V9.1c0-1-0.2-1.2-0.7-1.2h-0.6v3.5h-2.3V2.7z M108.1,6.4h0.5
			c0.6,0,0.9-0.4,0.9-1c0-0.7-0.3-1-1-1h-0.4V6.4z"/>
		<path class="st0" d="M115.7,2.5c2.3,0,3.1,1.3,3.1,4.5s-0.8,4.5-3.1,4.5s-3.1-1.3-3.1-4.5S113.4,2.5,115.7,2.5z M115.7,10
			c0.7,0,0.8-0.6,0.8-3s-0.1-3-0.8-3s-0.8,0.6-0.8,3S115,10,115.7,10z"/>
		<path class="st0" d="M119.6,2.7h5.1v1.8h-2.9V6h2.7v1.8h-2.7v3.6h-2.3V2.7z"/>
		<path class="st0" d="M125.4,2.7h5.1v1.8h-2.9V6h2.7v1.8h-2.7v1.7h3v1.8h-5.3V2.7z"/>
		<path class="st0" d="M134.9,5.2V5c0-0.5-0.2-0.9-0.6-0.9c-0.5,0-0.7,0.4-0.7,0.8c0,1.7,3.7,0.9,3.7,4c0,1.8-1.1,2.7-3.1,2.7
			c-1.9,0-2.9-0.6-2.9-2.4V8.8h2.2V9c0,0.7,0.3,1,0.7,1c0.5,0,0.7-0.4,0.7-0.8c0-1.7-3.6-0.9-3.6-3.9c0-1.8,0.9-2.7,2.8-2.7
			c2,0,2.8,0.8,2.8,2.7H134.9z"/>
		<path class="st0" d="M138,2.7h2.3v8.7H138V2.7z"/>
		<path class="st0" d="M144.1,2.5c2.3,0,3.1,1.3,3.1,4.5s-0.8,4.5-3.1,4.5c-2.3,0-3.1-1.3-3.1-4.5S141.8,2.5,144.1,2.5z M144.1,10
			c0.7,0,0.8-0.6,0.8-3s-0.1-3-0.8-3c-0.7,0-0.8,0.6-0.8,3S143.4,10,144.1,10z"/>
		<path class="st0" d="M148,2.7h2.5L152,8h0V2.7h2.1v8.7h-2.5L150.1,6h0v5.4H148V2.7z"/>
		<path class="st0" d="M156.6,2.7h2.8l2.1,8.7h-2.4l-0.2-1.5h-1.8l-0.2,1.5h-2.4L156.6,2.7z M158,4.5L158,4.5l-0.6,3.7h1.3L158,4.5z
			"/>
		<path class="st0" d="M161.9,2.7h2.3v6.8h2.8v1.8h-5V2.7z"/>
	</g>
	<g>
		<path class="st1" d="M17.2,19.2h7l5.2,21.4h-5.9l-0.6-3.7h-4.4l-0.6,3.7H12L17.2,19.2z M20.7,23.5L20.7,23.5l-1.6,9.1h3.1
			L20.7,23.5z"/>
		<path class="st1" d="M42.7,25.7c0-2.4-0.4-3.1-1.5-3.1c-1.7,0-1.9,1.6-1.9,7.3c0,5.8,0.2,7.3,1.9,7.3c1.4,0,1.7-1.2,1.7-5.2h5.4
			v1.6c0,6-3.5,7.4-7.1,7.4c-6.3,0-7.6-3.1-7.6-11.1c0-8.2,1.9-11.1,7.6-11.1c5,0,6.9,2.6,6.9,6.8v1.3h-5.4V25.7z"/>
		<path class="st1" d="M54.1,19.2h8.7c4.3,0,5.9,2.4,5.9,5.7c0,2.8-1.1,4.7-3.7,5.1V30c2.7,0.2,3.5,1.9,3.5,4.8v1.8
			c0,1.1,0,2.5,0.3,3c0.1,0.2,0.3,0.5,0.6,0.7v0.3h-5.9C63,39.4,63,37.4,63,36.5V35c0-2.4-0.5-3.1-1.8-3.1h-1.5v8.6h-5.6V19.2z
			 M59.7,28.2h1.1c1.6,0,2.3-1,2.3-2.5c0-1.7-0.7-2.5-2.4-2.5h-1.1V28.2z"/>
		<path class="st1" d="M75.2,19.2h12.7v4.6h-7.1v3.7h6.6v4.4h-6.6V36h7.4v4.6H75.2V19.2z"/>
		<path class="st1" d="M94.1,19.2h8.1c6.4,0,6.8,5.1,6.8,10.7c0,5.6-0.3,10.7-6.8,10.7h-8.1V19.2z M99.6,36.5h1.1
			c2.2,0,2.4-0.9,2.4-6.7c0-5.8-0.3-6.7-2.4-6.7h-1.1V36.5z"/>
		<path class="st1" d="M114.9,19.2h5.6v21.4h-5.6V19.2z"/>
		<path class="st1" d="M129.6,23.9h-4.2v-4.7h14v4.7h-4.2v16.6h-5.6V23.9z"/>
		<path class="st1" d="M146.3,19.2h7l5.2,21.4h-5.9l-0.6-3.7h-4.4l-0.6,3.7h-5.9L146.3,19.2z M149.9,23.5L149.9,23.5l-1.6,9.1h3.1
			L149.9,23.5z"/>
		<path class="st1" d="M163.3,19.2h8.1c6.4,0,6.8,5.1,6.8,10.7c0,5.6-0.3,10.7-6.8,10.7h-8.1V19.2z M168.9,36.5h1.1
			c2.2,0,2.4-0.9,2.4-6.7c0-5.8-0.3-6.7-2.4-6.7h-1.1V36.5z"/>
		<path class="st1" d="M191.4,18.7c5.7,0,7.6,3.1,7.6,11.1c0,8-1.9,11.1-7.6,11.1c-5.7,0-7.6-3.1-7.6-11.1
			C183.8,21.9,185.7,18.7,191.4,18.7z M191.4,37.2c1.7,0,1.9-1.6,1.9-7.3c0-5.8-0.2-7.3-1.9-7.3c-1.7,0-1.9,1.6-1.9,7.3
			C189.5,35.6,189.7,37.2,191.4,37.2z"/>
	</g>
	<g>
		<path class="st0" d="M2.5,51.6h2.4v3.8H3.6l0-0.6h0c-0.2,0.6-0.9,0.8-1.5,0.8c-1.9,0-2-1.3-2-3.6c0-2.3,0.5-3.6,2.6-3.6
			c1.3,0,2.2,0.7,2.2,2.4H3.1c0-0.4,0-0.6-0.1-0.8c-0.1-0.2-0.2-0.3-0.4-0.3c-0.6,0-0.7,0.5-0.7,2.4s0.1,2.4,0.6,2.4
			c0.4,0,0.6-0.2,0.6-1.5H2.5V51.6z"/>
		<path class="st0" d="M7.9,53.1v0.7c0,0.6,0.2,0.7,0.5,0.7c0.3,0,0.5-0.2,0.5-0.9h1.6c0,0.6-0.2,1.1-0.5,1.5
			c-0.3,0.3-0.8,0.5-1.6,0.5c-1.7,0-2.3-0.8-2.3-2.8c0-2,0.7-2.8,2.3-2.8c1.4,0,2.1,0.6,2.1,2.6v0.5H7.9z M8.9,51.9
			c0-0.6-0.1-0.8-0.5-0.8c-0.4,0-0.5,0.3-0.5,0.8v0.2h1V51.9z"/>
		<path class="st0" d="M13.2,53.8c0,0.2,0,0.4,0.1,0.5c0.1,0.1,0.2,0.2,0.4,0.2c0.3,0,0.5-0.2,0.5-0.5c0-0.9-2.6-0.4-2.6-2.4
			c0-0.9,0.7-1.7,2.1-1.7c1.3,0,2,0.6,2,1.7h-1.5c0-0.5-0.2-0.6-0.5-0.6c-0.3,0-0.5,0.2-0.5,0.4c0,0.9,2.6,0.3,2.6,2.3
			c0,1-0.8,1.8-2.1,1.8c-1.5,0-2.1-0.6-2.1-1.8H13.2z"/>
		<path class="st0" d="M16.8,50.1h0.6v-1.6h1.8v1.6h0.7v1.2h-0.7v2.5c0,0.3,0.1,0.4,0.4,0.4h0.3v1.2c-0.3,0-0.7,0.1-1,0.1
			c-1.1,0-1.5-0.2-1.5-1.4v-2.8h-0.6V50.1z"/>
		<path class="st0" d="M21,48.4h1.8v1.3H21V48.4z M21,50.1h1.8v5.3H21V50.1z"/>
		<path class="st0" d="M26.4,55.6c-2.1,0-2.3-1.3-2.3-2.8c0-1.4,0.3-2.8,2.3-2.8c2.1,0,2.3,1.3,2.3,2.8
			C28.7,54.2,28.4,55.6,26.4,55.6z M26.1,48.2h1.6l-0.9,1.4h-1.1L26.1,48.2z M26.4,54.4c0.4,0,0.5-0.3,0.5-1.7
			c0-1.3-0.1-1.7-0.5-1.7c-0.4,0-0.5,0.3-0.5,1.7C25.9,54.1,26,54.4,26.4,54.4z"/>
		<path class="st0" d="M30,50.1h1.7v0.6h0C32,50.3,32.4,50,33,50c0.8,0,1.4,0.3,1.4,1.4v4h-1.8v-3.5c0-0.4-0.1-0.6-0.4-0.6
			c-0.3,0-0.4,0.2-0.4,0.6v3.5H30V50.1z"/>
		<path class="st0" d="M39.2,48.4h1.8v7h-1.8V48.4z"/>
		<path class="st0" d="M42.6,50.1h1.7v0.6h0c0.2-0.5,0.7-0.8,1.3-0.8c0.8,0,1.4,0.3,1.4,1.4v4h-1.8v-3.5c0-0.4-0.1-0.6-0.4-0.6
			c-0.3,0-0.4,0.2-0.4,0.6v3.5h-1.8V50.1z"/>
		<path class="st0" d="M49.8,53.8c0,0.2,0,0.4,0.1,0.5c0.1,0.1,0.2,0.2,0.4,0.2c0.3,0,0.5-0.2,0.5-0.5c0-0.9-2.6-0.4-2.6-2.4
			c0-0.9,0.7-1.7,2.1-1.7c1.3,0,2,0.6,2,1.7h-1.5c0-0.5-0.2-0.6-0.5-0.6c-0.3,0-0.5,0.2-0.5,0.4c0,0.9,2.6,0.3,2.6,2.3
			c0,1-0.8,1.8-2.1,1.8c-1.5,0-2.1-0.6-2.1-1.8H49.8z"/>
		<path class="st0" d="M53.5,50.1H54v-1.6h1.8v1.6h0.7v1.2h-0.7v2.5c0,0.3,0.1,0.4,0.4,0.4h0.3v1.2c-0.3,0-0.7,0.1-1,0.1
			c-1.1,0-1.5-0.2-1.5-1.4v-2.8h-0.6V50.1z"/>
		<path class="st0" d="M57.7,48.4h1.8v1.3h-1.8V48.4z M57.7,50.1h1.8v5.3h-1.8V50.1z"/>
		<path class="st0" d="M60.7,50.1h0.6v-1.6H63v1.6h0.7v1.2H63v2.5c0,0.3,0.1,0.4,0.4,0.4h0.3v1.2c-0.3,0-0.7,0.1-1,0.1
			c-1.1,0-1.5-0.2-1.5-1.4v-2.8h-0.6V50.1z"/>
		<path class="st0" d="M64.9,50.1h1.8v3.5c0,0.4,0.1,0.6,0.4,0.6c0.3,0,0.4-0.2,0.4-0.6v-3.5h1.8v5.3h-1.7v-0.6h0
			c-0.2,0.5-0.7,0.8-1.3,0.8c-0.8,0-1.4-0.3-1.4-1.4V50.1z"/>
		<path class="st0" d="M73.4,52.2c0-0.4,0-0.7-0.1-0.9c-0.1-0.2-0.2-0.2-0.4-0.2c-0.4,0-0.5,0.4-0.5,1.7c0,1.3,0.1,1.7,0.5,1.7
			c0.3,0,0.5-0.2,0.5-0.9v-0.3H75c0,0.8-0.1,1.4-0.5,1.8c-0.3,0.4-0.9,0.6-1.6,0.6c-1.4,0-2.3-0.4-2.3-2.7c0-2.5,1.1-2.9,2.4-2.9
			c1.6,0,2,0.9,2,2.2H73.4z"/>
		<path class="st0" d="M76.3,48.4h1.8v1.3h-1.8V48.4z M76.3,50.1h1.8v5.3h-1.8V50.1z"/>
		<path class="st0" d="M81.7,55.6c-2.1,0-2.3-1.3-2.3-2.8c0-1.4,0.3-2.8,2.3-2.8c2.1,0,2.3,1.3,2.3,2.8C84,54.2,83.7,55.6,81.7,55.6
			z M81.7,54.4c0.4,0,0.5-0.3,0.5-1.7c0-1.3-0.1-1.7-0.5-1.7c-0.4,0-0.5,0.3-0.5,1.7C81.2,54.1,81.3,54.4,81.7,54.4z"/>
		<path class="st0" d="M85.3,50.1H87v0.6h0c0.2-0.5,0.7-0.8,1.3-0.8c0.8,0,1.4,0.3,1.4,1.4v4h-1.8v-3.5c0-0.4-0.1-0.6-0.4-0.6
			c-0.3,0-0.4,0.2-0.4,0.6v3.5h-1.8V50.1z"/>
		<path class="st0" d="M93.8,55.4c-0.1-0.2-0.1-0.4-0.1-0.6h0c-0.2,0.5-0.7,0.7-1.2,0.7c-1.1,0-1.5-0.6-1.5-1.6c0-1,0.3-1.4,1.5-1.7
			l0.7-0.2c0.4-0.1,0.5-0.3,0.5-0.6c0-0.3-0.1-0.5-0.5-0.5c-0.3,0-0.5,0.1-0.5,0.7h-1.5c0-1.5,1.2-1.8,2-1.8c1.2,0,2.1,0.3,2.1,1.7
			v2.6c0,0.5,0,0.9,0.2,1.1H93.8z M93.6,53.5v-0.6h0C93.5,53,93.3,53,93,53.1c-0.3,0.1-0.4,0.3-0.4,0.7c0,0.4,0.2,0.6,0.4,0.6
			C93.5,54.4,93.6,54.1,93.6,53.5z"/>
		<path class="st0" d="M96.9,48.4h1.8v7h-1.8V48.4z"/>
	</g>
	<g>
		<path class="st0" d="M104.6,48.3h1.3l-2.2,7.3h-1.3L104.6,48.3z"/>
	</g>
	<g>
		<path class="st0" d="M108.9,48.4h2.7c2.1,0,2.2,1.7,2.2,3.5c0,1.8-0.1,3.5-2.2,3.5h-2.7V48.4z M110.7,54.1h0.4
			c0.7,0,0.8-0.3,0.8-2.2s-0.1-2.2-0.8-2.2h-0.4V54.1z"/>
		<path class="st0" d="M117.3,55.6c-2.1,0-2.3-1.3-2.3-2.8c0-1.4,0.3-2.8,2.3-2.8c2.1,0,2.3,1.3,2.3,2.8
			C119.6,54.2,119.3,55.6,117.3,55.6z M117.3,54.4c0.4,0,0.5-0.3,0.5-1.7c0-1.3-0.1-1.7-0.5-1.7c-0.4,0-0.5,0.3-0.5,1.7
			C116.8,54.1,116.9,54.4,117.3,54.4z"/>
		<path class="st0" d="M123.6,52.2c0-0.4,0-0.7-0.1-0.9c-0.1-0.2-0.2-0.2-0.4-0.2c-0.4,0-0.5,0.4-0.5,1.7c0,1.3,0.1,1.7,0.5,1.7
			c0.3,0,0.5-0.2,0.5-0.9v-0.3h1.6c0,0.8-0.1,1.4-0.5,1.8c-0.3,0.4-0.9,0.6-1.6,0.6c-1.4,0-2.3-0.4-2.3-2.7c0-2.5,1.1-2.9,2.4-2.9
			c1.6,0,2,0.9,2,2.2H123.6z"/>
		<path class="st0" d="M128,53.1v0.7c0,0.6,0.2,0.7,0.5,0.7c0.3,0,0.5-0.2,0.5-0.9h1.6c0,0.6-0.2,1.1-0.5,1.5
			c-0.3,0.3-0.8,0.5-1.6,0.5c-1.7,0-2.3-0.8-2.3-2.8c0-2,0.7-2.8,2.3-2.8c1.4,0,2.1,0.6,2.1,2.6v0.5H128z M129,51.9
			c0-0.6-0.1-0.8-0.5-0.8c-0.4,0-0.5,0.3-0.5,0.8v0.2h1V51.9z"/>
		<path class="st0" d="M131.9,50.1h1.7v0.6h0c0.2-0.5,0.7-0.8,1.3-0.8c0.8,0,1.4,0.3,1.4,1.4v4h-1.8v-3.5c0-0.4-0.1-0.6-0.4-0.6
			c-0.3,0-0.4,0.2-0.4,0.6v3.5h-1.8V50.1z"/>
		<path class="st0" d="M140.5,52.2c0-0.4,0-0.7-0.1-0.9c-0.1-0.2-0.2-0.2-0.4-0.2c-0.4,0-0.5,0.4-0.5,1.7c0,1.3,0.1,1.7,0.5,1.7
			c0.3,0,0.5-0.2,0.5-0.9v-0.3h1.6c0,0.8-0.1,1.4-0.5,1.8c-0.3,0.4-0.9,0.6-1.6,0.6c-1.4,0-2.3-0.4-2.3-2.7c0-2.5,1.1-2.9,2.4-2.9
			c1.6,0,2,0.9,2,2.2H140.5z"/>
		<path class="st0" d="M143.4,48.4h1.8v1.3h-1.8V48.4z M143.4,50.1h1.8v5.3h-1.8V50.1z"/>
		<path class="st0" d="M149.2,55.4c-0.1-0.2-0.1-0.4-0.1-0.6h0c-0.2,0.5-0.7,0.7-1.2,0.7c-1.1,0-1.5-0.6-1.5-1.6
			c0-1,0.3-1.4,1.5-1.7l0.7-0.2c0.4-0.1,0.5-0.3,0.5-0.6c0-0.3-0.1-0.5-0.5-0.5c-0.3,0-0.5,0.1-0.5,0.7h-1.5c0-1.5,1.2-1.8,2-1.8
			c1.2,0,2.1,0.3,2.1,1.7v2.6c0,0.5,0,0.9,0.2,1.1H149.2z M149.1,53.5v-0.6h0c-0.1,0.1-0.3,0.1-0.6,0.2c-0.3,0.1-0.4,0.3-0.4,0.7
			c0,0.4,0.2,0.6,0.4,0.6C149,54.4,149.1,54.1,149.1,53.5z"/>
		<path class="st0" d="M158.3,48.4h1.8v7h-1.7v-0.7h0c-0.2,0.6-0.6,0.9-1.2,0.9c-1.2,0-1.6-0.9-1.6-2.9c0-2,0.6-2.7,1.6-2.7
			c0.5,0,0.9,0.2,1.1,0.7h0V48.4z M157.8,54.3c0.4,0,0.5-0.3,0.5-1.5c0-1.1-0.1-1.5-0.5-1.5c-0.4,0-0.5,0.3-0.5,1.5
			C157.3,53.9,157.4,54.3,157.8,54.3z"/>
		<path class="st0" d="M163.2,53.1v0.7c0,0.6,0.2,0.7,0.5,0.7c0.3,0,0.5-0.2,0.5-0.9h1.6c0,0.6-0.2,1.1-0.5,1.5
			c-0.3,0.3-0.8,0.5-1.6,0.5c-1.7,0-2.3-0.8-2.3-2.8c0-2,0.7-2.8,2.3-2.8c1.4,0,2.1,0.6,2.1,2.6v0.5H163.2z M164.2,51.9
			c0-0.6-0.1-0.8-0.5-0.8c-0.4,0-0.5,0.3-0.5,0.8v0.2h1V51.9z"/>
		<path class="st0" d="M170.4,48.4h2.7c1.4,0,2,0.9,2,2.2c0,1.4-0.8,2.2-2.3,2.2h-0.6v2.7h-1.8V48.4z M172.2,51.5h0.3
			c0.5,0,0.7-0.3,0.7-0.9c0-0.6-0.2-0.9-0.7-0.9h-0.3V51.5z"/>
		<path class="st0" d="M176.4,50.1h1.7V51h0c0.2-0.6,0.7-1,1.2-1h0.3v1.7c-0.2,0-0.3,0-0.4,0c-0.6,0-1,0.2-1,0.9v2.9h-1.8V50.1z"/>
		<path class="st0" d="M182.3,53.1v0.7c0,0.6,0.2,0.7,0.5,0.7c0.3,0,0.5-0.2,0.5-0.9h1.6c0,0.6-0.2,1.1-0.5,1.5
			c-0.3,0.3-0.8,0.5-1.6,0.5c-1.7,0-2.3-0.8-2.3-2.8c0-2,0.7-2.8,2.3-2.8c1.4,0,2.1,0.6,2.1,2.6v0.5H182.3z M183.3,51.9
			c0-0.6-0.1-0.8-0.5-0.8c-0.4,0-0.5,0.3-0.5,0.8v0.2h1V51.9z"/>
		<path class="st0" d="M188.9,50.1h1.6v5.2c0,1.5-1,1.9-2.2,1.9c-1.1,0-2-0.3-2.1-1.5h1.6c0,0.3,0.2,0.4,0.4,0.4
			c0.3,0,0.5-0.1,0.5-0.7v-1h0c-0.2,0.6-0.7,0.8-1.2,0.8c-0.7,0-1.6-0.4-1.6-2.6c0-2.1,0.6-2.7,1.6-2.7c0.5,0,1,0.2,1.2,0.9h0V50.1z
			 M188.4,54c0.3,0,0.5-0.2,0.5-1.3c0-1.1-0.2-1.3-0.5-1.3c-0.3,0-0.5,0.2-0.5,1.3C187.9,53.8,188.1,54,188.4,54z"/>
		<path class="st0" d="M192.1,50.1h1.7V51h0c0.2-0.6,0.7-1,1.2-1h0.3v1.7c-0.2,0-0.3,0-0.4,0c-0.6,0-1,0.2-1,0.9v2.9h-1.8V50.1z"/>
		<path class="st0" d="M198.9,55.4c-0.1-0.2-0.1-0.4-0.1-0.6h0c-0.2,0.5-0.7,0.7-1.2,0.7c-1.1,0-1.5-0.6-1.5-1.6
			c0-1,0.3-1.4,1.5-1.7l0.7-0.2c0.4-0.1,0.5-0.3,0.5-0.6c0-0.3-0.1-0.5-0.5-0.5c-0.3,0-0.5,0.1-0.5,0.7h-1.5c0-1.5,1.2-1.8,2-1.8
			c1.2,0,2.1,0.3,2.1,1.7v2.6c0,0.5,0,0.9,0.2,1.1H198.9z M198.8,53.5v-0.6h0c-0.1,0.1-0.3,0.1-0.6,0.2c-0.3,0.1-0.4,0.3-0.4,0.7
			c0,0.4,0.2,0.6,0.4,0.6C198.7,54.4,198.8,54.1,198.8,53.5z"/>
		<path class="st0" d="M204.6,48.4h1.8v7h-1.7v-0.7h0c-0.2,0.6-0.6,0.9-1.2,0.9c-1.2,0-1.6-0.9-1.6-2.9c0-2,0.6-2.7,1.6-2.7
			c0.5,0,0.9,0.2,1.1,0.7h0V48.4z M204.2,54.3c0.4,0,0.5-0.3,0.5-1.5c0-1.1-0.1-1.5-0.5-1.5c-0.4,0-0.5,0.3-0.5,1.5
			C203.7,53.9,203.7,54.3,204.2,54.3z"/>
		<path class="st0" d="M210,55.6c-2.1,0-2.3-1.3-2.3-2.8c0-1.4,0.3-2.8,2.3-2.8c2.1,0,2.3,1.3,2.3,2.8C212.3,54.2,212,55.6,210,55.6
			z M210,54.4c0.4,0,0.5-0.3,0.5-1.7c0-1.3-0.1-1.7-0.5-1.7c-0.4,0-0.5,0.3-0.5,1.7C209.6,54.1,209.6,54.4,210,54.4z"/>
	</g>
	<g>
		<path class="st0" d="M8.8,65.2c0,0.6,0.1,1.1,0.6,1.1c0.4,0,0.6-0.2,0.6-1c0-0.9-0.2-1.1-0.9-1.1H8.8v-1h0.5c0.5,0,0.7-0.4,0.7-1
			c0-0.5-0.2-0.8-0.5-0.8c-0.4,0-0.6,0.2-0.6,1H7.3c0-0.7,0.2-1.2,0.5-1.5c0.4-0.3,0.9-0.5,1.7-0.5c1.4,0,2,0.6,2,1.9
			c0,0.7-0.4,1.2-1,1.4v0c0.8,0.2,1.1,0.7,1.1,1.7c0,1.5-1,2.1-2.2,2.1c-1.4,0-2.3-0.4-2.3-2.2H8.8z"/>
		<path class="st0" d="M16.4,60.2h2.1l1.7,7h-1.7l-0.3-1.3h-1.7l-0.2,1.3h-1.7L16.4,60.2z M17.4,61.5L17.4,61.5l-0.6,3.1H18
			L17.4,61.5z"/>
		<path class="st0" d="M20.7,60.2h1.9l1.4,4.6h0v-4.6h1.5v7h-1.9l-1.4-4.8h0v4.8h-1.5V60.2z M24.7,58.4c0,0.6-0.3,1.3-1,1.3
			c-0.5,0-0.9-0.3-1.2-0.3c-0.2,0-0.3,0.2-0.3,0.3h-0.8c0-0.3,0.1-0.7,0.3-0.9c0.2-0.2,0.4-0.4,0.7-0.4c0.3,0,0.5,0.1,0.7,0.1
			c0.2,0.1,0.4,0.1,0.5,0.1c0.2,0,0.3-0.2,0.3-0.3H24.7z"/>
		<path class="st0" d="M28.9,67.4c-2.2,0-2.5-1.4-2.5-3.6s0.3-3.6,2.5-3.6c2.3,0,2.5,1.7,2.5,3.6C31.3,65.7,31.2,67.4,28.9,67.4z
			 M28.9,66.3c0.7,0,0.8-0.6,0.8-2.5c0-1.9-0.1-2.5-0.8-2.5c-0.6,0-0.7,0.6-0.7,2.5C28.1,65.7,28.2,66.3,28.9,66.3z"/>
		<path class="st0" d="M33.6,65.1v0.2c0,0.5,0.1,0.9,0.7,0.9c0.6,0,0.7-0.4,0.7-0.8c0-1.5-3-0.7-3-3.3c0-1.1,0.6-2.1,2.3-2.1
			c1.6,0,2.2,0.8,2.2,1.9v0.2H35c0-0.3,0-0.6-0.1-0.7c-0.1-0.2-0.3-0.2-0.5-0.2c-0.4,0-0.7,0.2-0.7,0.8c0,1.5,3,0.7,3,3.2
			c0,1.6-0.9,2.2-2.4,2.2c-1.2,0-2.3-0.4-2.3-1.8v-0.5H33.6z"/>
		<path class="st0" d="M41.7,60.1H43l-2.2,7.3h-1.3L41.7,60.1z"/>
		<path class="st0" d="M46,60.2h2.4c1.6,0,2.3,0.8,2.3,3.3c0,2.5-0.3,3.7-2.5,3.7H46V60.2z M47.7,66h0.4c0.8,0,1-0.3,1-2.4
			c0-1.7-0.1-2.2-1-2.2h-0.5V66z"/>
		<path class="st0" d="M53,64.8v0.3c0,0.8,0.1,1.2,0.6,1.2c0.4,0,0.5-0.3,0.6-1h1.5c0,1.3-0.7,2-2.1,2c-2,0-2.2-1.4-2.2-3
			c0-1.5,0.4-2.6,2.2-2.6c2,0,2.1,1.2,2.1,3.1H53z M54.2,63.9c0-0.7-0.1-1.1-0.5-1.1c-0.5,0-0.6,0.4-0.6,1.1H54.2z"/>
		<path class="st0" d="M57.5,65.5c0,0.2,0,0.4,0.1,0.6c0.1,0.1,0.2,0.2,0.5,0.2c0.4,0,0.6-0.2,0.6-0.5c0-0.2-0.1-0.5-0.6-0.6
			c-1.3-0.4-1.9-0.7-1.9-1.8c0-1.1,0.7-1.6,2-1.6c1.5,0,1.9,0.7,1.9,1.5v0.2h-1.4v-0.1c0-0.5-0.2-0.6-0.5-0.6
			c-0.4,0-0.5,0.2-0.5,0.5c0,0.9,2.5,0.3,2.5,2.4c0,1.1-0.7,1.7-2,1.7c-1.4,0-2-0.5-2-1.6v-0.2H57.5z"/>
		<path class="st0" d="M63.6,66.6L63.6,66.6c-0.1,0.4-0.5,0.8-1.2,0.8c-1.1,0-1.6-0.8-1.6-2.8c0-1.6,0.2-2.8,1.5-2.8
			c0.4,0,0.9,0.1,1.2,0.7h0v-2.3h1.6v7h-1.5V66.6z M62.9,62.9c-0.6,0-0.6,0.6-0.6,1.6c0,0.9,0,1.7,0.6,1.7c0.5,0,0.6-0.6,0.6-1.6
			C63.5,63.7,63.5,62.9,62.9,62.9z"/>
		<path class="st0" d="M67.4,64.8v0.3c0,0.8,0.1,1.2,0.6,1.2c0.4,0,0.5-0.3,0.6-1H70c0,1.3-0.7,2-2.1,2c-2,0-2.2-1.4-2.2-3
			c0-1.5,0.4-2.6,2.2-2.6c2,0,2.1,1.2,2.1,3.1H67.4z M68.5,63.9c0-0.7-0.1-1.1-0.5-1.1c-0.5,0-0.6,0.4-0.6,1.1H68.5z"/>
		<path class="st0" d="M73.3,60.2h1.9l1.4,4.6h0v-4.6h1.5v7h-1.9l-1.4-4.8h0v4.8h-1.5V60.2z"/>
		<path class="st0" d="M78.9,64.6c0-1.6,0.4-2.8,2.2-2.8c1.9,0,2.2,1.2,2.2,2.8c0,1.6-0.4,2.8-2.2,2.8
			C79.1,67.4,78.9,66.2,78.9,64.6z M81.1,62.8c-0.5,0-0.6,0.5-0.6,1.7c0,1.3,0.1,1.8,0.6,1.8c0.5,0,0.6-0.4,0.6-1.7
			C81.7,63.3,81.6,62.8,81.1,62.8z"/>
		<path class="st0" d="M83.6,61.9h1.6l0.6,3.9h0l0.6-3.9h1.6l-1.3,5.3h-1.9L83.6,61.9z"/>
		<path class="st0" d="M88.2,65.5h1.5v1.8h-1.5V65.5z"/>
		<path class="st0" d="M95.6,66.6L95.6,66.6c-0.1,0.4-0.5,0.8-1.2,0.8c-1.1,0-1.6-0.8-1.6-2.8c0-1.6,0.2-2.8,1.5-2.8
			c0.4,0,0.9,0.1,1.2,0.7h0v-2.3h1.6v7h-1.5V66.6z M94.9,62.9c-0.6,0-0.6,0.6-0.6,1.6c0,0.9,0,1.7,0.6,1.7c0.5,0,0.6-0.6,0.6-1.6
			C95.5,63.7,95.5,62.9,94.9,62.9z"/>
		<path class="st0" d="M99.4,64.8v0.3c0,0.8,0.1,1.2,0.6,1.2c0.4,0,0.5-0.3,0.6-1h1.5c0,1.3-0.7,2-2.1,2c-2,0-2.2-1.4-2.2-3
			c0-1.5,0.4-2.6,2.2-2.6c2,0,2.1,1.2,2.1,3.1H99.4z M100.5,63.9c0-0.7-0.1-1.1-0.5-1.1c-0.5,0-0.6,0.4-0.6,1.1H100.5z"/>
		<path class="st0" d="M105.2,62.6v-0.2c0-1.4,0.7-2.1,2.2-2.1c1.7,0,2.1,0.9,2.1,1.9c0,1-0.2,1.4-1.1,2.3c-0.7,0.6-1.2,1.1-1.4,1.5
			h2.5v1.3h-4.4c0-1.6,1-2.6,1.6-3.1c1.2-1.1,1.2-1.3,1.2-1.9c0-0.5-0.1-0.9-0.6-0.9c-0.6,0-0.6,0.7-0.6,1.3H105.2z"/>
		<path class="st0" d="M112.5,67.4c-2.1,0-2.3-1.3-2.3-3.5c0-2,0.2-3.5,2.3-3.5c2.1,0,2.3,1.3,2.3,3.5
			C114.7,65.8,114.5,67.4,112.5,67.4z M112.5,66.3c0.6,0,0.6-0.5,0.6-2.5c0-2-0.1-2.5-0.6-2.5c-0.6,0-0.6,0.5-0.6,2.5
			C111.8,65.8,111.9,66.3,112.5,66.3z"/>
		<path class="st0" d="M117,62.4h-1.3v-1h0.2c1.2,0,1.5-0.6,1.6-1.1h1.2v7H117V62.4z"/>
		<path class="st0" d="M120.3,64.6l2.3-4.2h1.8v4.2h0.6v1.3h-0.6v1.3h-1.5v-1.3h-2.5V64.6z M122.8,62.3L122.8,62.3l-1.2,2.3h1.2
			V62.3z"/>
		<path class="st0" d="M128.2,60.2h1.6v2.3h0c0.3-0.5,0.7-0.7,1.2-0.7c0.9,0,1.4,0.5,1.4,1.5v4h-1.6v-3.6c0-0.4-0.2-0.6-0.5-0.6
			c-0.3,0-0.6,0.2-0.6,0.8v3.5h-1.6V60.2z"/>
		<path class="st0" d="M133.3,63.6c0-0.7,0.2-1.2,0.6-1.4c0.4-0.3,0.8-0.3,1.5-0.3c1.3,0,1.9,0.5,1.9,1.6v2.7c0,0.4,0,0.9,0.2,1.1
			h-1.5c-0.1-0.2-0.1-0.4-0.1-0.6h0c-0.2,0.5-0.7,0.7-1.2,0.7c-0.9,0-1.4-0.5-1.4-1.6c0-0.6,0.3-1.1,0.6-1.4c0.4-0.2,1-0.3,1.4-0.4
			c0.5-0.1,0.6-0.2,0.6-0.6c0-0.3-0.1-0.5-0.5-0.5c-0.4,0-0.6,0.3-0.6,0.7H133.3z M135.1,66.3c0.3,0,0.6-0.2,0.6-0.7
			c0-0.4,0-0.7,0-0.9c-0.5,0.3-0.7,0.3-0.9,0.4c-0.2,0.1-0.2,0.3-0.2,0.6C134.7,66,134.8,66.3,135.1,66.3z"/>
		<path class="st0" d="M139.5,65.5c0,0.2,0,0.4,0.1,0.6c0.1,0.1,0.2,0.2,0.5,0.2c0.4,0,0.6-0.2,0.6-0.5c0-0.2-0.1-0.5-0.6-0.6
			c-1.3-0.4-1.9-0.7-1.9-1.8c0-1.1,0.7-1.6,2-1.6c1.5,0,1.9,0.7,1.9,1.5v0.2h-1.4v-0.1c0-0.5-0.2-0.6-0.5-0.6
			c-0.4,0-0.5,0.2-0.5,0.5c0,0.9,2.5,0.3,2.5,2.4c0,1.1-0.7,1.7-2,1.7c-1.4,0-2-0.5-2-1.6v-0.2H139.5z"/>
		<path class="st0" d="M143,63h-0.7v-1.1h0.7v-1.6h1.6v1.6h0.7V63h-0.7v2.7c0,0.4,0.1,0.5,0.5,0.5c0.1,0,0.2,0,0.2,0v1.1
			c-0.3,0-0.6,0.1-0.9,0.1c-1.1,0-1.4-0.2-1.4-1.4V63z"/>
		<path class="st0" d="M145.9,63.6c0-0.7,0.2-1.2,0.6-1.4c0.4-0.3,0.8-0.3,1.5-0.3c1.3,0,1.9,0.5,1.9,1.6v2.7c0,0.4,0,0.9,0.2,1.1
			h-1.5c-0.1-0.2-0.1-0.4-0.1-0.6h0c-0.2,0.5-0.7,0.7-1.2,0.7c-0.9,0-1.4-0.5-1.4-1.6c0-0.6,0.3-1.1,0.6-1.4c0.4-0.2,1-0.3,1.4-0.4
			c0.5-0.1,0.6-0.2,0.6-0.6c0-0.3-0.1-0.5-0.5-0.5c-0.4,0-0.6,0.3-0.6,0.7H145.9z M147.7,66.3c0.3,0,0.6-0.2,0.6-0.7
			c0-0.4,0-0.7,0-0.9c-0.5,0.3-0.7,0.3-0.9,0.4c-0.2,0.1-0.2,0.3-0.2,0.6C147.2,66,147.4,66.3,147.7,66.3z"/>
		<path class="st0" d="M153.4,60.2h1.9l1.4,4.6h0v-4.6h1.5v7h-1.9l-1.4-4.8h0v4.8h-1.5V60.2z"/>
		<path class="st0" d="M159,64.6c0-1.6,0.4-2.8,2.2-2.8c1.9,0,2.2,1.2,2.2,2.8c0,1.6-0.4,2.8-2.2,2.8C159.2,67.4,159,66.2,159,64.6z
			 M161.2,62.8c-0.5,0-0.6,0.5-0.6,1.7c0,1.3,0.1,1.8,0.6,1.8c0.5,0,0.6-0.4,0.6-1.7C161.8,63.3,161.7,62.8,161.2,62.8z"/>
		<path class="st0" d="M163.7,61.9h1.6l0.6,3.9h0l0.6-3.9h1.6l-1.3,5.3H165L163.7,61.9z"/>
		<path class="st0" d="M168.3,65.5h1.5v1.8h-1.5V65.5z"/>
		<path class="st0" d="M175.6,66.6L175.6,66.6c-0.1,0.4-0.5,0.8-1.2,0.8c-1.1,0-1.6-0.8-1.6-2.8c0-1.6,0.2-2.8,1.5-2.8
			c0.4,0,0.9,0.1,1.2,0.7h0v-2.3h1.6v7h-1.5V66.6z M175,62.9c-0.6,0-0.6,0.6-0.6,1.6c0,0.9,0,1.7,0.6,1.7c0.5,0,0.6-0.6,0.6-1.6
			C175.6,63.7,175.6,62.9,175,62.9z"/>
		<path class="st0" d="M179.5,64.8v0.3c0,0.8,0.1,1.2,0.6,1.2c0.4,0,0.5-0.3,0.6-1h1.5c0,1.3-0.7,2-2.1,2c-2,0-2.2-1.4-2.2-3
			c0-1.5,0.4-2.6,2.2-2.6c2,0,2.1,1.2,2.1,3.1H179.5z M180.6,63.9c0-0.7-0.1-1.1-0.5-1.1c-0.5,0-0.6,0.4-0.6,1.1H180.6z"/>
		<path class="st0" d="M185.3,62.6v-0.2c0-1.4,0.7-2.1,2.2-2.1c1.7,0,2.1,0.9,2.1,1.9c0,1-0.2,1.4-1.1,2.3c-0.7,0.6-1.2,1.1-1.4,1.5
			h2.5v1.3h-4.4c0-1.6,1-2.6,1.6-3.1c1.2-1.1,1.2-1.3,1.2-1.9c0-0.5-0.1-0.9-0.6-0.9c-0.6,0-0.6,0.7-0.6,1.3H185.3z"/>
		<path class="st0" d="M192.6,67.4c-2.1,0-2.3-1.3-2.3-3.5c0-2,0.2-3.5,2.3-3.5c2.1,0,2.3,1.3,2.3,3.5
			C194.8,65.8,194.6,67.4,192.6,67.4z M192.6,66.3c0.6,0,0.6-0.5,0.6-2.5c0-2-0.1-2.5-0.6-2.5c-0.6,0-0.6,0.5-0.6,2.5
			C191.9,65.8,192,66.3,192.6,66.3z"/>
		<path class="st0" d="M197,62.4h-1.3v-1h0.2c1.2,0,1.5-0.6,1.6-1.1h1.2v7H197V62.4z"/>
		<path class="st0" d="M200.5,61.8v-1.4h4.4v1.2c-1.1,1.6-1.8,4-1.9,5.6h-1.7c0.1-1.6,1-4.1,2-5.4H200.5z"/>
	</g>
</g>
</svg>
