<?xml version="1.0" encoding="utf-8"?>
<!-- Generator: Adobe Illustrator 20.1.0, SVG Export Plug-In . SVG Version: 6.00 Build 0)  -->
<svg version="1.1" id="Capa_1" xmlns="http://www.w3.org/2000/svg" xmlns:xlink="http://www.w3.org/1999/xlink" x="0px" y="0px"
	 width="209.2px" height="67.2px" viewBox="0 0 209.2 67.2" style="enable-background:new 0 0 209.2 67.2;" xml:space="preserve">
<style type="text/css">
	.st0{fill:#231F20;}
	.st1{fill:#00483A;}
</style>
<g>
	<g>
		<path class="st0" d="M74.4,1.9V8c0,0.8,0.3,1,0.7,1c0.4,0,0.7-0.2,0.7-1V1.9H78v5.6c0,2.4-1,3.1-2.9,3.1c-1.9,0-2.9-0.7-2.9-3.1
			V1.9H74.4z"/>
		<path class="st0" d="M78.9,1.9h2.5l1.4,5.3h0V1.9H85v8.5h-2.4L81,5.1h0v5.3h-2.1V1.9z"/>
		<path class="st0" d="M85.9,1.9h2.2v8.5h-2.2V1.9z"/>
		<path class="st0" d="M88.4,1.9h2.4l0.9,6.4h0l0.9-6.4H95l-1.8,8.5h-2.9L88.4,1.9z"/>
		<path class="st0" d="M95.3,1.9h5.1v1.8h-2.8v1.5h2.7v1.7h-2.7v1.7h2.9v1.8h-5.2V1.9z"/>
		<path class="st0" d="M101.3,1.9h3.5c1.7,0,2.3,1,2.3,2.3c0,1.1-0.4,1.9-1.5,2v0c1.1,0.1,1.4,0.8,1.4,1.9v0.7c0,0.4,0,1,0.1,1.2
			c0.1,0.1,0.1,0.2,0.3,0.3v0.1h-2.4c-0.2-0.5-0.2-1.3-0.2-1.6V8.2c0-1-0.2-1.2-0.7-1.2h-0.6v3.4h-2.2V1.9z M103.6,5.5h0.4
			c0.6,0,0.9-0.4,0.9-1c0-0.7-0.3-1-0.9-1h-0.4V5.5z"/>
		<path class="st0" d="M111.5,4.3V4.1c0-0.5-0.2-0.9-0.6-0.9c-0.5,0-0.7,0.4-0.7,0.8c0,1.7,3.6,0.9,3.6,4c0,1.8-1.1,2.6-3,2.6
			c-1.8,0-2.9-0.6-2.9-2.4V7.9h2.2v0.2c0,0.7,0.3,1,0.7,1c0.5,0,0.7-0.4,0.7-0.8c0-1.7-3.5-0.9-3.5-3.9c0-1.7,0.9-2.7,2.8-2.7
			c1.9,0,2.8,0.8,2.8,2.6H111.5z"/>
		<path class="st0" d="M114.5,1.9h2.2v8.5h-2.2V1.9z"/>
		<path class="st0" d="M117.7,1.9h3.2c2.6,0,2.7,2,2.7,4.3s-0.1,4.3-2.7,4.3h-3.2V1.9z M120,8.8h0.4c0.9,0,1-0.4,1-2.7
			s-0.1-2.7-1-2.7H120V8.8z"/>
		<path class="st0" d="M125.8,1.9h2.8l2.1,8.5h-2.4l-0.2-1.5h-1.8l-0.2,1.5h-2.4L125.8,1.9z M127.2,3.6L127.2,3.6l-0.6,3.6h1.2
			L127.2,3.6z"/>
		<path class="st0" d="M131,1.9h3.2c2.6,0,2.7,2,2.7,4.3s-0.1,4.3-2.7,4.3H131V1.9z M133.3,8.8h0.4c0.9,0,1-0.4,1-2.7
			s-0.1-2.7-1-2.7h-0.4V8.8z"/>
	</g>
	<g>
		<path class="st1" d="M17.3,18.1h6.9l5.1,21h-5.8l-0.6-3.7h-4.4L18,39.1h-5.8L17.3,18.1z M20.8,22.4L20.8,22.4l-1.6,8.9h3.1
			L20.8,22.4z"/>
		<path class="st1" d="M42.4,24.5c0-2.4-0.4-3.1-1.5-3.1c-1.7,0-1.9,1.5-1.9,7.2s0.2,7.2,1.9,7.2c1.4,0,1.6-1.2,1.6-5.2h5.3v1.6
			c0,5.9-3.4,7.3-7,7.3c-6.2,0-7.5-3.1-7.5-10.9c0-8,1.8-10.9,7.5-10.9c5,0,6.8,2.6,6.8,6.7v1.3h-5.3V24.5z"/>
		<path class="st1" d="M53.7,18.1h8.6c4.2,0,5.8,2.4,5.8,5.6c0,2.8-1.1,4.6-3.6,5v0.1c2.7,0.2,3.4,1.9,3.4,4.7v1.8
			c0,1.1,0,2.5,0.3,2.9c0.1,0.2,0.3,0.5,0.6,0.6v0.3h-5.8c-0.5-1.1-0.5-3.1-0.5-4v-1.4c0-2.4-0.5-3-1.8-3h-1.4v8.4h-5.5V18.1z
			 M59.2,27h1.1c1.6,0,2.3-1,2.3-2.5c0-1.7-0.7-2.4-2.3-2.4h-1.1V27z"/>
		<path class="st1" d="M74.4,18.1h12.5v4.5h-7v3.6h6.5v4.3h-6.5v4.2h7.2v4.5H74.4V18.1z"/>
		<path class="st1" d="M93,18.1h8c6.3,0,6.7,5,6.7,10.5c0,5.5-0.3,10.5-6.7,10.5h-8V18.1z M98.5,35.1h1.1c2.1,0,2.4-0.9,2.4-6.6
			s-0.3-6.6-2.4-6.6h-1.1V35.1z"/>
		<path class="st1" d="M113.5,18.1h5.5v21h-5.5V18.1z"/>
		<path class="st1" d="M128,22.7h-4.1v-4.7h13.7v4.7h-4.1v16.4H128V22.7z"/>
		<path class="st1" d="M144.5,18.1h6.9l5.1,21h-5.8l-0.6-3.7h-4.4l-0.6,3.7h-5.8L144.5,18.1z M147.9,22.4L147.9,22.4l-1.6,8.9h3.1
			L147.9,22.4z"/>
		<path class="st1" d="M161.2,18.1h8c6.3,0,6.7,5,6.7,10.5c0,5.5-0.3,10.5-6.7,10.5h-8V18.1z M166.7,35.1h1.1c2.1,0,2.4-0.9,2.4-6.6
			s-0.3-6.6-2.4-6.6h-1.1V35.1z"/>
		<path class="st1" d="M184.9,18.1h6.9l5.1,21H191l-0.6-3.7h-4.4l-0.6,3.7h-5.8L184.9,18.1z M188.3,22.4L188.3,22.4l-1.6,8.9h3.1
			L188.3,22.4z"/>
	</g>
	<g>
		<path class="st0" d="M2.6,50h2.3v3.8H3.7l0-0.6h0c-0.2,0.6-0.9,0.7-1.5,0.7c-1.8,0-2-1.3-2-3.6c0-2.3,0.4-3.6,2.6-3.6
			c1.3,0,2.2,0.6,2.2,2.3H3.1c0-0.3,0-0.6-0.1-0.8C3,48.1,2.8,48,2.6,48C2,48,2,48.5,2,50.3c0,1.9,0.1,2.4,0.6,2.4
			c0.4,0,0.6-0.2,0.6-1.4H2.6V50z"/>
		<path class="st0" d="M7.9,51.5v0.7c0,0.6,0.2,0.7,0.5,0.7c0.3,0,0.5-0.2,0.5-0.9h1.6c0,0.6-0.2,1.1-0.5,1.5
			c-0.3,0.3-0.8,0.5-1.6,0.5c-1.7,0-2.2-0.8-2.2-2.7c0-2,0.7-2.8,2.2-2.8c1.4,0,2.1,0.6,2.1,2.5v0.5H7.9z M8.8,50.3
			c0-0.6-0.1-0.8-0.5-0.8c-0.4,0-0.5,0.3-0.5,0.8v0.2h1V50.3z"/>
		<path class="st0" d="M13.1,52.2c0,0.2,0,0.4,0.1,0.5c0.1,0.1,0.2,0.2,0.4,0.2c0.3,0,0.5-0.2,0.5-0.4c0-0.9-2.5-0.4-2.5-2.4
			c0-0.9,0.7-1.6,2.1-1.6c1.3,0,2,0.6,2,1.6h-1.5c0-0.4-0.2-0.6-0.5-0.6c-0.3,0-0.4,0.2-0.4,0.4c0,0.9,2.5,0.3,2.5,2.3
			c0,1-0.8,1.7-2.1,1.7c-1.5,0-2-0.6-2-1.8H13.1z"/>
		<path class="st0" d="M16.6,48.5h0.6V47H19v1.5h0.7v1.2H19v2.5c0,0.3,0.1,0.4,0.4,0.4h0.3v1.2c-0.3,0-0.7,0.1-0.9,0.1
			c-1.1,0-1.5-0.2-1.5-1.3v-2.8h-0.6V48.5z"/>
		<path class="st0" d="M20.8,46.9h1.7v1.3h-1.7V46.9z M20.8,48.5h1.7v5.2h-1.7V48.5z"/>
		<path class="st0" d="M26.1,53.9c-2,0-2.2-1.2-2.2-2.8c0-1.4,0.3-2.7,2.2-2.7c2,0,2.2,1.2,2.2,2.8C28.3,52.5,28.1,53.9,26.1,53.9z
			 M25.8,46.7h1.6l-0.9,1.4h-1.1L25.8,46.7z M26.1,52.8c0.4,0,0.5-0.3,0.5-1.6c0-1.3-0.1-1.6-0.5-1.6c-0.4,0-0.5,0.3-0.5,1.6
			C25.6,52.5,25.7,52.8,26.1,52.8z"/>
		<path class="st0" d="M29.7,48.5h1.7v0.6h0c0.2-0.5,0.7-0.8,1.3-0.8c0.8,0,1.4,0.3,1.4,1.4v3.9h-1.7v-3.5c0-0.4-0.1-0.6-0.4-0.6
			c-0.3,0-0.4,0.2-0.4,0.6v3.5h-1.7V48.5z"/>
		<path class="st0" d="M38.7,46.9h1.8v6.9h-1.8V46.9z"/>
		<path class="st0" d="M42,48.5h1.7v0.6h0c0.2-0.5,0.7-0.8,1.3-0.8c0.8,0,1.4,0.3,1.4,1.4v3.9h-1.7v-3.5c0-0.4-0.1-0.6-0.4-0.6
			s-0.4,0.2-0.4,0.6v3.5H42V48.5z"/>
		<path class="st0" d="M49.2,52.2c0,0.2,0,0.4,0.1,0.5c0.1,0.1,0.2,0.2,0.4,0.2c0.3,0,0.5-0.2,0.5-0.4c0-0.9-2.5-0.4-2.5-2.4
			c0-0.9,0.7-1.6,2.1-1.6c1.3,0,2,0.6,2,1.6h-1.5c0-0.4-0.2-0.6-0.5-0.6c-0.3,0-0.4,0.2-0.4,0.4c0,0.9,2.5,0.3,2.5,2.3
			c0,1-0.8,1.7-2.1,1.7c-1.5,0-2-0.6-2-1.8H49.2z"/>
		<path class="st0" d="M52.7,48.5h0.6V47H55v1.5h0.7v1.2H55v2.5c0,0.3,0.1,0.4,0.4,0.4h0.3v1.2c-0.3,0-0.7,0.1-0.9,0.1
			c-1.1,0-1.5-0.2-1.5-1.3v-2.8h-0.6V48.5z"/>
		<path class="st0" d="M56.9,46.9h1.7v1.3h-1.7V46.9z M56.9,48.5h1.7v5.2h-1.7V48.5z"/>
		<path class="st0" d="M59.8,48.5h0.6V47h1.7v1.5h0.7v1.2h-0.7v2.5c0,0.3,0.1,0.4,0.4,0.4h0.3v1.2c-0.3,0-0.7,0.1-0.9,0.1
			c-1.1,0-1.5-0.2-1.5-1.3v-2.8h-0.6V48.5z"/>
		<path class="st0" d="M64,48.5h1.7V52c0,0.4,0.1,0.6,0.4,0.6s0.4-0.2,0.4-0.6v-3.5h1.7v5.2h-1.7v-0.6h0c-0.2,0.5-0.7,0.8-1.3,0.8
			c-0.8,0-1.4-0.3-1.4-1.4V48.5z"/>
		<path class="st0" d="M72.4,50.6c0-0.4,0-0.7-0.1-0.8c-0.1-0.2-0.2-0.2-0.4-0.2c-0.4,0-0.5,0.3-0.5,1.6s0.1,1.6,0.5,1.6
			c0.3,0,0.5-0.2,0.5-0.9v-0.3h1.6c0,0.8-0.1,1.4-0.5,1.8c-0.3,0.4-0.9,0.6-1.6,0.6c-1.3,0-2.3-0.4-2.3-2.7c0-2.5,1-2.8,2.3-2.8
			c1.5,0,2,0.9,2,2.2H72.4z"/>
		<path class="st0" d="M75.2,46.9H77v1.3h-1.7V46.9z M75.2,48.5H77v5.2h-1.7V48.5z"/>
		<path class="st0" d="M80.5,53.9c-2,0-2.2-1.2-2.2-2.8c0-1.4,0.3-2.7,2.2-2.7c2,0,2.2,1.2,2.2,2.8C82.7,52.5,82.5,53.9,80.5,53.9z
			 M80.5,52.8c0.4,0,0.5-0.3,0.5-1.6c0-1.3-0.1-1.6-0.5-1.6c-0.4,0-0.5,0.3-0.5,1.6C80,52.5,80.1,52.8,80.5,52.8z"/>
		<path class="st0" d="M84.1,48.5h1.7v0.6h0c0.2-0.5,0.7-0.8,1.3-0.8c0.8,0,1.4,0.3,1.4,1.4v3.9h-1.7v-3.5c0-0.4-0.1-0.6-0.4-0.6
			s-0.4,0.2-0.4,0.6v3.5h-1.7V48.5z"/>
		<path class="st0" d="M92.4,53.8c-0.1-0.2-0.1-0.4-0.1-0.6h0c-0.2,0.5-0.7,0.7-1.2,0.7c-1,0-1.4-0.6-1.4-1.5c0-1,0.3-1.4,1.4-1.7
			l0.7-0.2c0.4-0.1,0.5-0.3,0.5-0.6c0-0.3-0.1-0.5-0.4-0.5c-0.3,0-0.5,0.1-0.5,0.7h-1.5c0-1.5,1.2-1.8,2-1.8c1.2,0,2.1,0.3,2.1,1.7
			v2.6c0,0.5,0,0.9,0.2,1.1H92.4z M92.3,51.9v-0.6h0c-0.1,0.1-0.3,0.1-0.6,0.2c-0.3,0.1-0.4,0.3-0.4,0.7c0,0.3,0.2,0.6,0.4,0.6
			C92.1,52.7,92.3,52.5,92.3,51.9z"/>
		<path class="st0" d="M95.5,46.9h1.7v6.9h-1.7V46.9z"/>
	</g>
	<g>
		<path class="st0" d="M103.1,46.7h1.3l-2.2,7.2h-1.3L103.1,46.7z"/>
	</g>
	<g>
		<path class="st0" d="M107.3,46.9h2.6c2.1,0,2.2,1.6,2.2,3.5c0,1.8-0.1,3.5-2.2,3.5h-2.6V46.9z M109.1,52.5h0.4
			c0.7,0,0.8-0.3,0.8-2.2c0-1.9-0.1-2.2-0.8-2.2h-0.4V52.5z"/>
		<path class="st0" d="M115.6,53.9c-2,0-2.2-1.2-2.2-2.8c0-1.4,0.3-2.7,2.2-2.7c2,0,2.2,1.2,2.2,2.8
			C117.8,52.5,117.6,53.9,115.6,53.9z M115.6,52.8c0.4,0,0.5-0.3,0.5-1.6c0-1.3-0.1-1.6-0.5-1.6c-0.4,0-0.5,0.3-0.5,1.6
			C115.1,52.5,115.2,52.8,115.6,52.8z"/>
		<path class="st0" d="M121.7,50.6c0-0.4,0-0.7-0.1-0.8c-0.1-0.2-0.2-0.2-0.4-0.2c-0.4,0-0.5,0.3-0.5,1.6s0.1,1.6,0.5,1.6
			c0.3,0,0.5-0.2,0.5-0.9v-0.3h1.6c0,0.8-0.1,1.4-0.5,1.8c-0.3,0.4-0.9,0.6-1.6,0.6c-1.3,0-2.3-0.4-2.3-2.7c0-2.5,1-2.8,2.3-2.8
			c1.5,0,2,0.9,2,2.2H121.7z"/>
		<path class="st0" d="M126.1,51.5v0.7c0,0.6,0.2,0.7,0.5,0.7c0.3,0,0.5-0.2,0.5-0.9h1.6c0,0.6-0.2,1.1-0.5,1.5
			c-0.3,0.3-0.8,0.5-1.6,0.5c-1.7,0-2.2-0.8-2.2-2.7c0-2,0.7-2.8,2.2-2.8c1.4,0,2.1,0.6,2.1,2.5v0.5H126.1z M127.1,50.3
			c0-0.6-0.1-0.8-0.5-0.8c-0.4,0-0.5,0.3-0.5,0.8v0.2h1V50.3z"/>
		<path class="st0" d="M130,48.5h1.7v0.6h0c0.2-0.5,0.7-0.8,1.3-0.8c0.8,0,1.4,0.3,1.4,1.4v3.9h-1.7v-3.5c0-0.4-0.1-0.6-0.4-0.6
			s-0.4,0.2-0.4,0.6v3.5H130V48.5z"/>
		<path class="st0" d="M138.4,50.6c0-0.4,0-0.7-0.1-0.8c-0.1-0.2-0.2-0.2-0.4-0.2c-0.4,0-0.5,0.3-0.5,1.6s0.1,1.6,0.5,1.6
			c0.3,0,0.5-0.2,0.5-0.9v-0.3h1.6c0,0.8-0.1,1.4-0.5,1.8c-0.3,0.4-0.9,0.6-1.6,0.6c-1.3,0-2.3-0.4-2.3-2.7c0-2.5,1-2.8,2.3-2.8
			c1.5,0,2,0.9,2,2.2H138.4z"/>
		<path class="st0" d="M141.2,46.9h1.7v1.3h-1.7V46.9z M141.2,48.5h1.7v5.2h-1.7V48.5z"/>
		<path class="st0" d="M147,53.8c-0.1-0.2-0.1-0.4-0.1-0.6h0c-0.2,0.5-0.7,0.7-1.2,0.7c-1,0-1.4-0.6-1.4-1.5c0-1,0.3-1.4,1.4-1.7
			l0.7-0.2c0.4-0.1,0.5-0.3,0.5-0.6c0-0.3-0.1-0.5-0.4-0.5c-0.3,0-0.5,0.1-0.5,0.7h-1.5c0-1.5,1.2-1.8,2-1.8c1.2,0,2.1,0.3,2.1,1.7
			v2.6c0,0.5,0,0.9,0.2,1.1H147z M146.9,51.9v-0.6h0c-0.1,0.1-0.3,0.1-0.6,0.2c-0.3,0.1-0.4,0.3-0.4,0.7c0,0.3,0.2,0.6,0.4,0.6
			C146.7,52.7,146.9,52.5,146.9,51.9z"/>
		<path class="st0" d="M155.9,46.9h1.7v6.9H156v-0.7h0c-0.2,0.6-0.6,0.9-1.2,0.9c-1.2,0-1.6-0.9-1.6-2.9c0-2,0.6-2.6,1.6-2.6
			c0.5,0,0.9,0.2,1.1,0.7h0V46.9z M155.4,52.6c0.4,0,0.5-0.3,0.5-1.5c0-1.1-0.1-1.5-0.5-1.5c-0.4,0-0.5,0.3-0.5,1.5
			C154.9,52.3,155,52.6,155.4,52.6z"/>
		<path class="st0" d="M160.7,51.5v0.7c0,0.6,0.2,0.7,0.5,0.7c0.3,0,0.5-0.2,0.5-0.9h1.6c0,0.6-0.2,1.1-0.5,1.5
			c-0.3,0.3-0.8,0.5-1.6,0.5c-1.7,0-2.2-0.8-2.2-2.7c0-2,0.7-2.8,2.2-2.8c1.4,0,2.1,0.6,2.1,2.5v0.5H160.7z M161.7,50.3
			c0-0.6-0.1-0.8-0.5-0.8c-0.4,0-0.5,0.3-0.5,0.8v0.2h1V50.3z"/>
		<path class="st0" d="M167.9,46.9h2.7c1.4,0,2,0.9,2,2.1c0,1.4-0.8,2.1-2.3,2.1h-0.6v2.6h-1.8V46.9z M169.7,49.9h0.3
			c0.5,0,0.7-0.3,0.7-0.8c0-0.6-0.2-0.8-0.7-0.8h-0.3V49.9z"/>
		<path class="st0" d="M173.8,48.5h1.7v0.8h0c0.2-0.6,0.7-1,1.2-1h0.3V50c-0.2,0-0.3,0-0.4,0c-0.6,0-1,0.2-1,0.9v2.9h-1.7V48.5z"/>
		<path class="st0" d="M179.6,51.5v0.7c0,0.6,0.2,0.7,0.5,0.7c0.3,0,0.5-0.2,0.5-0.9h1.6c0,0.6-0.2,1.1-0.5,1.5
			c-0.3,0.3-0.8,0.5-1.6,0.5c-1.7,0-2.2-0.8-2.2-2.7c0-2,0.7-2.8,2.2-2.8c1.4,0,2.1,0.6,2.1,2.5v0.5H179.6z M180.5,50.3
			c0-0.6-0.1-0.8-0.5-0.8c-0.4,0-0.5,0.3-0.5,0.8v0.2h1V50.3z"/>
		<path class="st0" d="M186.1,48.5h1.6v5.1c0,1.4-1,1.9-2.2,1.9c-1.1,0-2-0.3-2-1.5h1.6c0,0.3,0.2,0.4,0.4,0.4
			c0.3,0,0.5-0.1,0.5-0.6v-1h0c-0.2,0.6-0.7,0.8-1.2,0.8c-0.7,0-1.5-0.4-1.5-2.6c0-2,0.6-2.6,1.6-2.6c0.5,0,1,0.2,1.1,0.9h0V48.5z
			 M185.6,52.3c0.3,0,0.5-0.2,0.5-1.3c0-1.1-0.2-1.3-0.5-1.3c-0.3,0-0.5,0.2-0.5,1.3C185,52.1,185.2,52.3,185.6,52.3z"/>
		<path class="st0" d="M189.2,48.5h1.7v0.8h0c0.2-0.6,0.7-1,1.2-1h0.3V50c-0.2,0-0.3,0-0.4,0c-0.6,0-1,0.2-1,0.9v2.9h-1.7V48.5z"/>
		<path class="st0" d="M195.9,53.8c-0.1-0.2-0.1-0.4-0.1-0.6h0c-0.2,0.5-0.7,0.7-1.2,0.7c-1,0-1.4-0.6-1.4-1.5c0-1,0.3-1.4,1.4-1.7
			l0.7-0.2c0.4-0.1,0.5-0.3,0.5-0.6c0-0.3-0.1-0.5-0.4-0.5c-0.3,0-0.5,0.1-0.5,0.7h-1.5c0-1.5,1.2-1.8,2-1.8c1.2,0,2.1,0.3,2.1,1.7
			v2.6c0,0.5,0,0.9,0.2,1.1H195.9z M195.8,51.9v-0.6h0c-0.1,0.1-0.3,0.1-0.6,0.2c-0.3,0.1-0.4,0.3-0.4,0.7c0,0.3,0.2,0.6,0.4,0.6
			C195.7,52.7,195.8,52.5,195.8,51.9z"/>
		<path class="st0" d="M201.6,46.9h1.7v6.9h-1.7v-0.7h0c-0.2,0.6-0.6,0.9-1.2,0.9c-1.2,0-1.6-0.9-1.6-2.9c0-2,0.6-2.6,1.6-2.6
			c0.5,0,0.9,0.2,1.1,0.7h0V46.9z M201.1,52.6c0.4,0,0.5-0.3,0.5-1.5c0-1.1-0.1-1.5-0.5-1.5c-0.4,0-0.5,0.3-0.5,1.5
			C200.6,52.3,200.7,52.6,201.1,52.6z"/>
		<path class="st0" d="M206.9,53.9c-2,0-2.2-1.2-2.2-2.8c0-1.4,0.3-2.7,2.2-2.7c2,0,2.2,1.2,2.2,2.8
			C209.1,52.5,208.8,53.9,206.9,53.9z M206.9,52.8c0.4,0,0.5-0.3,0.5-1.6c0-1.3-0.1-1.6-0.5-1.6c-0.4,0-0.5,0.3-0.5,1.6
			C206.4,52.5,206.5,52.8,206.9,52.8z"/>
	</g>
	<g>
		<path class="st0" d="M10.7,63.4c0,0.6,0.1,1.1,0.6,1.1c0.4,0,0.6-0.2,0.6-1c0-0.9-0.2-1.1-0.9-1.1h-0.4v-1h0.4
			c0.5,0,0.7-0.4,0.7-1c0-0.5-0.2-0.8-0.5-0.8c-0.4,0-0.6,0.2-0.6,1H9.2c0-0.7,0.2-1.2,0.5-1.5c0.4-0.3,0.9-0.5,1.7-0.5
			c1.3,0,2,0.6,2,1.9c0,0.7-0.3,1.2-1,1.4v0c0.8,0.2,1.1,0.7,1.1,1.6c0,1.5-1,2.1-2.2,2.1c-1.4,0-2.3-0.4-2.3-2.1H10.7z"/>
		<path class="st0" d="M18.2,58.5h2l1.7,6.9h-1.7L20,64.1h-1.7l-0.2,1.3h-1.7L18.2,58.5z M19.2,59.7L19.2,59.7l-0.6,3.1h1.2
			L19.2,59.7z"/>
		<path class="st0" d="M22.4,58.5h1.9l1.3,4.5h0v-4.5h1.5v6.9h-1.8l-1.4-4.8h0v4.8h-1.4V58.5z M26.4,56.7c0,0.6-0.3,1.3-1,1.3
			c-0.5,0-0.9-0.3-1.1-0.3c-0.2,0-0.3,0.2-0.3,0.3h-0.7c0-0.3,0.1-0.7,0.3-0.9c0.2-0.2,0.4-0.4,0.6-0.4c0.3,0,0.5,0.1,0.7,0.1
			c0.2,0.1,0.3,0.1,0.5,0.1c0.2,0,0.3-0.2,0.3-0.3H26.4z"/>
		<path class="st0" d="M30.4,65.5c-2.1,0-2.4-1.4-2.4-3.6c0-2.2,0.3-3.6,2.4-3.6c2.3,0,2.4,1.7,2.4,3.6
			C32.9,63.8,32.7,65.5,30.4,65.5z M30.4,64.4c0.7,0,0.8-0.6,0.8-2.5c0-1.9-0.1-2.5-0.8-2.5c-0.6,0-0.7,0.6-0.7,2.5
			C29.7,63.8,29.8,64.4,30.4,64.4z"/>
		<path class="st0" d="M35.1,63.3v0.2c0,0.5,0.1,0.9,0.7,0.9c0.6,0,0.7-0.4,0.7-0.8c0-1.5-3-0.7-3-3.2c0-1.1,0.6-2,2.3-2
			c1.6,0,2.2,0.8,2.2,1.9v0.2h-1.6c0-0.3,0-0.6-0.1-0.7c-0.1-0.2-0.3-0.2-0.5-0.2c-0.4,0-0.6,0.2-0.6,0.7c0,1.4,3,0.7,3,3.2
			c0,1.6-0.9,2.2-2.4,2.2c-1.2,0-2.3-0.4-2.3-1.8v-0.4H35.1z"/>
		<path class="st0" d="M43.1,58.3h1.3l-2.2,7.2h-1.3L43.1,58.3z"/>
		<path class="st0" d="M47.3,58.5h2.4c1.6,0,2.3,0.8,2.3,3.2c0,2.5-0.3,3.7-2.5,3.7h-2.2V58.5z M49,64.2h0.4c0.8,0,1-0.3,1-2.4
			c0-1.7-0.1-2.1-1-2.1H49V64.2z"/>
		<path class="st0" d="M54.2,63v0.3c0,0.8,0.1,1.2,0.6,1.2c0.4,0,0.5-0.3,0.6-1h1.5c0,1.3-0.7,1.9-2,1.9c-2,0-2.1-1.4-2.1-2.9
			c0-1.5,0.4-2.6,2.1-2.6c1.9,0,2.1,1.2,2.1,3H54.2z M55.3,62.1c0-0.7-0.1-1.1-0.5-1.1c-0.5,0-0.6,0.4-0.6,1.1H55.3z"/>
		<path class="st0" d="M58.7,63.7c0,0.2,0,0.4,0.1,0.6c0.1,0.1,0.2,0.2,0.5,0.2c0.4,0,0.6-0.2,0.6-0.5c0-0.2-0.1-0.5-0.6-0.6
			c-1.3-0.4-1.9-0.7-1.9-1.8c0-1,0.7-1.6,2-1.6c1.5,0,1.9,0.7,1.9,1.5v0.2h-1.4v-0.1c0-0.5-0.2-0.6-0.5-0.6c-0.4,0-0.5,0.2-0.5,0.5
			c0,0.9,2.5,0.3,2.5,2.3c0,1.1-0.7,1.7-2,1.7c-1.4,0-2-0.5-2-1.6v-0.2H58.7z"/>
		<path class="st0" d="M64.6,64.7L64.6,64.7c-0.1,0.4-0.5,0.8-1.2,0.8c-1.1,0-1.6-0.8-1.6-2.7c0-1.6,0.2-2.8,1.5-2.8
			c0.4,0,0.9,0.1,1.2,0.7h0v-2.2h1.6v6.9h-1.5V64.7z M64,61.2c-0.6,0-0.6,0.6-0.6,1.6c0,0.8,0,1.6,0.6,1.6c0.5,0,0.6-0.6,0.6-1.6
			C64.6,61.9,64.5,61.2,64,61.2z"/>
		<path class="st0" d="M68.4,63v0.3c0,0.8,0.1,1.2,0.6,1.2c0.4,0,0.5-0.3,0.6-1H71c0,1.3-0.7,1.9-2,1.9c-2,0-2.1-1.4-2.1-2.9
			c0-1.5,0.4-2.6,2.1-2.6c1.9,0,2.1,1.2,2.1,3H68.4z M69.5,62.1c0-0.7-0.1-1.1-0.5-1.1c-0.5,0-0.6,0.4-0.6,1.1H69.5z"/>
		<path class="st0" d="M74.2,58.5h2.4c1.6,0,2.3,0.8,2.3,3.2c0,2.5-0.3,3.7-2.5,3.7h-2.2V58.5z M75.8,64.2h0.4c0.8,0,1-0.3,1-2.4
			c0-1.7-0.1-2.1-1-2.1h-0.5V64.2z"/>
		<path class="st0" d="M79.7,58.4h1.6v1.2h-1.6V58.4z M79.7,60.1h1.6v5.2h-1.6V60.1z"/>
		<path class="st0" d="M84.8,62.1c0-0.8-0.2-1.1-0.6-1.1c-0.5,0-0.6,0.7-0.6,1.7c0,1.2,0.1,1.7,0.6,1.7c0.5,0,0.6-0.3,0.6-1.2h1.5
			c0,1.6-0.6,2.3-2.1,2.3c-2,0-2.1-1.4-2.1-2.9c0-1.5,0.4-2.6,2.1-2.6c1.6,0,2.1,0.9,2.1,2.1H84.8z"/>
		<path class="st0" d="M86.9,63.6h1.5v1.7h-1.5V63.6z"/>
		<path class="st0" d="M94.2,64.7L94.2,64.7c-0.1,0.4-0.5,0.8-1.2,0.8c-1.1,0-1.6-0.8-1.6-2.7c0-1.6,0.2-2.8,1.5-2.8
			c0.4,0,0.9,0.1,1.2,0.7h0v-2.2h1.6v6.9h-1.5V64.7z M93.6,61.2c-0.6,0-0.6,0.6-0.6,1.6c0,0.8,0,1.6,0.6,1.6c0.5,0,0.6-0.6,0.6-1.6
			C94.1,61.9,94.1,61.2,93.6,61.2z"/>
		<path class="st0" d="M97.9,63v0.3c0,0.8,0.1,1.2,0.6,1.2c0.4,0,0.5-0.3,0.6-1h1.5c0,1.3-0.7,1.9-2,1.9c-2,0-2.1-1.4-2.1-2.9
			c0-1.5,0.4-2.6,2.1-2.6c1.9,0,2.1,1.2,2.1,3H97.9z M99.1,62.1c0-0.7-0.1-1.1-0.5-1.1c-0.5,0-0.6,0.4-0.6,1.1H99.1z"/>
		<path class="st0" d="M103.6,60.8v-0.2c0-1.4,0.7-2.1,2.2-2.1c1.7,0,2.1,0.8,2.1,1.9c0,1-0.2,1.4-1.1,2.2c-0.7,0.6-1.2,1.1-1.3,1.5
			h2.4v1.3h-4.4c0-1.6,1-2.6,1.5-3.1c1.2-1,1.2-1.3,1.2-1.8c0-0.5-0.1-0.9-0.6-0.9c-0.6,0-0.6,0.7-0.6,1.3H103.6z"/>
		<path class="st0" d="M110.8,65.5c-2,0-2.3-1.3-2.3-3.5c0-2,0.2-3.5,2.3-3.5c2.1,0,2.3,1.3,2.3,3.5C113,64,112.8,65.5,110.8,65.5z
			 M110.8,64.5c0.6,0,0.6-0.5,0.6-2.5c0-2-0.1-2.5-0.6-2.5c-0.6,0-0.6,0.5-0.6,2.5C110.2,64,110.3,64.5,110.8,64.5z"/>
		<path class="st0" d="M115.2,60.6h-1.3v-1h0.2c1.2,0,1.5-0.6,1.6-1.1h1.1v6.8h-1.6V60.6z"/>
		<path class="st0" d="M118.6,62.8l2.2-4.1h1.7v4.1h0.6v1.3h-0.6v1.3H121v-1.3h-2.5V62.8z M121,60.5L121,60.5l-1.2,2.3h1.2V60.5z"/>
		<path class="st0" d="M126.3,58.5h1.6v2.2h0c0.3-0.5,0.7-0.7,1.2-0.7c0.9,0,1.4,0.4,1.4,1.5v3.9h-1.6v-3.6c0-0.4-0.2-0.6-0.5-0.6
			c-0.3,0-0.6,0.2-0.6,0.7v3.4h-1.6V58.5z"/>
		<path class="st0" d="M131.3,61.8c0-0.7,0.2-1.2,0.6-1.4c0.4-0.3,0.8-0.3,1.5-0.3c1.3,0,1.9,0.4,1.9,1.5v2.7c0,0.4,0,0.9,0.2,1.1
			h-1.5c-0.1-0.2-0.1-0.4-0.1-0.6h0c-0.2,0.5-0.7,0.7-1.2,0.7c-0.9,0-1.4-0.5-1.4-1.6c0-0.6,0.3-1.1,0.6-1.3c0.4-0.2,1-0.3,1.4-0.4
			c0.5-0.1,0.6-0.2,0.6-0.6c0-0.3-0.1-0.5-0.5-0.5c-0.4,0-0.6,0.3-0.6,0.7H131.3z M133.1,64.4c0.3,0,0.6-0.2,0.6-0.7
			c0-0.4,0-0.7,0-0.9c-0.5,0.3-0.7,0.3-0.9,0.4c-0.2,0.1-0.2,0.3-0.2,0.6C132.7,64.2,132.8,64.4,133.1,64.4z"/>
		<path class="st0" d="M137.4,63.7c0,0.2,0,0.4,0.1,0.6c0.1,0.1,0.2,0.2,0.5,0.2c0.4,0,0.6-0.2,0.6-0.5c0-0.2-0.1-0.5-0.6-0.6
			c-1.3-0.4-1.9-0.7-1.9-1.8c0-1,0.7-1.6,2-1.6c1.5,0,1.9,0.7,1.9,1.5v0.2h-1.4v-0.1c0-0.5-0.2-0.6-0.5-0.6c-0.4,0-0.5,0.2-0.5,0.5
			c0,0.9,2.5,0.3,2.5,2.3c0,1.1-0.7,1.7-2,1.7c-1.4,0-2-0.5-2-1.6v-0.2H137.4z"/>
		<path class="st0" d="M140.9,61.2h-0.6v-1.1h0.6v-1.5h1.6v1.5h0.7v1.1h-0.7v2.6c0,0.4,0.1,0.5,0.5,0.5c0.1,0,0.2,0,0.2,0v1
			c-0.3,0-0.6,0.1-0.9,0.1c-1.1,0-1.4-0.2-1.4-1.4V61.2z"/>
		<path class="st0" d="M143.7,61.8c0-0.7,0.2-1.2,0.6-1.4c0.4-0.3,0.8-0.3,1.5-0.3c1.3,0,1.9,0.4,1.9,1.5v2.7c0,0.4,0,0.9,0.2,1.1
			h-1.5c-0.1-0.2-0.1-0.4-0.1-0.6h0c-0.2,0.5-0.7,0.7-1.2,0.7c-0.9,0-1.4-0.5-1.4-1.6c0-0.6,0.3-1.1,0.6-1.3c0.4-0.2,1-0.3,1.4-0.4
			c0.5-0.1,0.6-0.2,0.6-0.6c0-0.3-0.1-0.5-0.5-0.5c-0.4,0-0.6,0.3-0.6,0.7H143.7z M145.5,64.4c0.3,0,0.6-0.2,0.6-0.7
			c0-0.4,0-0.7,0-0.9c-0.5,0.3-0.7,0.3-0.9,0.4c-0.2,0.1-0.2,0.3-0.2,0.6C145,64.2,145.2,64.4,145.5,64.4z"/>
		<path class="st0" d="M151.1,58.5h2.4c1.6,0,2.3,0.8,2.3,3.2c0,2.5-0.3,3.7-2.5,3.7h-2.2V58.5z M152.7,64.2h0.4c0.8,0,1-0.3,1-2.4
			c0-1.7-0.1-2.1-1-2.1h-0.5V64.2z"/>
		<path class="st0" d="M156.6,58.4h1.6v1.2h-1.6V58.4z M156.6,60.1h1.6v5.2h-1.6V60.1z"/>
		<path class="st0" d="M161.7,62.1c0-0.8-0.2-1.1-0.6-1.1c-0.5,0-0.6,0.7-0.6,1.7c0,1.2,0.1,1.7,0.6,1.7c0.5,0,0.6-0.3,0.6-1.2h1.5
			c0,1.6-0.6,2.3-2.1,2.3c-2,0-2.1-1.4-2.1-2.9c0-1.5,0.4-2.6,2.1-2.6c1.6,0,2.1,0.9,2.1,2.1H161.7z"/>
		<path class="st0" d="M163.8,63.6h1.5v1.7h-1.5V63.6z"/>
		<path class="st0" d="M171.1,64.7L171.1,64.7c-0.1,0.4-0.5,0.8-1.2,0.8c-1.1,0-1.6-0.8-1.6-2.7c0-1.6,0.2-2.8,1.5-2.8
			c0.4,0,0.9,0.1,1.2,0.7h0v-2.2h1.6v6.9h-1.5V64.7z M170.5,61.2c-0.6,0-0.6,0.6-0.6,1.6c0,0.8,0,1.6,0.6,1.6c0.5,0,0.6-0.6,0.6-1.6
			C171,61.9,171,61.2,170.5,61.2z"/>
		<path class="st0" d="M174.8,63v0.3c0,0.8,0.1,1.2,0.6,1.2c0.4,0,0.5-0.3,0.6-1h1.5c0,1.3-0.7,1.9-2,1.9c-2,0-2.1-1.4-2.1-2.9
			c0-1.5,0.4-2.6,2.1-2.6c1.9,0,2.1,1.2,2.1,3H174.8z M176,62.1c0-0.7-0.1-1.1-0.5-1.1c-0.5,0-0.6,0.4-0.6,1.1H176z"/>
		<path class="st0" d="M180.6,60.8v-0.2c0-1.4,0.7-2.1,2.2-2.1c1.7,0,2.1,0.8,2.1,1.9c0,1-0.2,1.4-1.1,2.2c-0.7,0.6-1.2,1.1-1.3,1.5
			h2.4v1.3h-4.4c0-1.6,1-2.6,1.5-3.1c1.2-1,1.2-1.3,1.2-1.8c0-0.5-0.1-0.9-0.6-0.9c-0.6,0-0.6,0.7-0.6,1.3H180.6z"/>
		<path class="st0" d="M187.7,65.5c-2,0-2.3-1.3-2.3-3.5c0-2,0.2-3.5,2.3-3.5c2.1,0,2.3,1.3,2.3,3.5C190,64,189.8,65.5,187.7,65.5z
			 M187.7,64.5c0.6,0,0.6-0.5,0.6-2.5c0-2-0.1-2.5-0.6-2.5c-0.6,0-0.6,0.5-0.6,2.5C187.1,64,187.2,64.5,187.7,64.5z"/>
		<path class="st0" d="M192.1,60.6h-1.3v-1h0.2c1.2,0,1.5-0.6,1.6-1.1h1.1v6.8h-1.6V60.6z"/>
		<path class="st0" d="M195.6,60v-1.4h4.4v1.2c-1.1,1.6-1.8,4-1.9,5.5h-1.7c0.1-1.6,1-4.1,2-5.3H195.6z"/>
	</g>
</g>
</svg>
