<?xml version="1.0" encoding="utf-8"?>
<!-- Generator: Adobe Illustrator 20.1.0, SVG Export Plug-In . SVG Version: 6.00 Build 0)  -->
<svg version="1.1" id="Capa_1" xmlns="http://www.w3.org/2000/svg" xmlns:xlink="http://www.w3.org/1999/xlink" x="0px" y="0px"
	 width="335.2px" height="80px" viewBox="0 0 335.2 80" style="enable-background:new 0 0 335.2 80;" xml:space="preserve">
<style type="text/css">
	.st0{fill:#003B30;}
	.st1{fill:#231F20;}
	.st2{fill:#00483A;}
</style>
<g>
	<path class="st0" d="M6.8,54.4c-0.2,0.1-0.4,0.2-0.6,0.2c-0.2,0.1-0.5,0.1-0.8,0.2C5.1,54.9,4.8,55,4.5,55c-0.7,0-1.3-0.1-1.8-0.3
		c-0.6-0.2-1-0.6-1.4-1s-0.7-1-0.9-1.6C0.1,51.3,0,50.6,0,49.8s0.1-1.6,0.3-2.2c0.2-0.6,0.6-1.2,1-1.6c0.4-0.5,0.9-0.8,1.5-1
		s1.2-0.3,1.9-0.3c0.5,0,1,0.1,1.5,0.2c0.4,0,0.8,0.1,1.2,0.3c-0.1,0.1-0.1,0.3-0.2,0.6c0,0.2-0.1,0.4-0.1,0.6H7
		c-0.1-0.1-0.2-0.3-0.3-0.4c-0.2-0.2-0.3-0.3-0.5-0.4c-0.2-0.1-0.4-0.3-0.7-0.3c-0.3-0.1-0.5-0.1-0.8-0.1c-0.5,0-0.9,0.1-1.4,0.3
		c-0.4,0.2-0.8,0.5-1.1,0.9s-0.6,0.9-0.7,1.5c-0.2,0.6-0.3,1.3-0.3,2.1s0.1,1.5,0.3,2.1s0.4,1.1,0.7,1.5s0.7,0.7,1.1,0.9
		s0.9,0.3,1.4,0.3c0.3,0,0.6,0,0.8-0.1C5.7,54.3,6,54.1,6.2,54s0.4-0.3,0.6-0.4c0.2-0.1,0.3-0.3,0.4-0.4l0.1,0.1l-0.1,0.9
		C7.1,54.3,6.9,54.3,6.8,54.4"/>
	<path class="st0" d="M8.5,49.6c0.2-0.5,0.4-0.8,0.7-1.1s0.6-0.5,1-0.6s0.7-0.2,1.1-0.2c0.4,0,0.7,0.1,1.1,0.2
		c0.3,0.1,0.7,0.3,1,0.6s0.5,0.7,0.7,1.1c0.2,0.5,0.3,1,0.3,1.7s-0.1,1.2-0.3,1.7s-0.4,0.8-0.7,1.1s-0.6,0.5-1,0.6s-0.7,0.2-1.1,0.2
		c-0.4,0-0.7-0.1-1.1-0.2c-0.4-0.1-0.7-0.3-1-0.6S8.7,53.4,8.5,53c-0.2-0.5-0.3-1-0.3-1.7C8.2,50.7,8.3,50.1,8.5,49.6 M9.4,52.5
		c0.1,0.4,0.2,0.7,0.3,1s0.3,0.5,0.6,0.7c0.2,0.2,0.6,0.3,0.9,0.3c0.4,0,0.7-0.1,0.9-0.3s0.4-0.4,0.6-0.7c0.1-0.3,0.3-0.6,0.3-1
		c0.1-0.4,0.1-0.8,0.1-1.2s0-0.8-0.1-1.2s-0.2-0.7-0.3-1c-0.2-0.3-0.3-0.5-0.6-0.7s-0.6-0.3-0.9-0.3c-0.4,0-0.7,0.1-0.9,0.3
		s-0.5,0.4-0.6,0.7c-0.2,0.3-0.3,0.6-0.3,1c-0.1,0.4-0.1,0.8-0.1,1.2C9.3,51.7,9.3,52.1,9.4,52.5"/>
	<path class="st0" d="M15.6,49.2c0-0.5,0-0.9-0.1-1.4c0.2,0,0.4,0.1,0.6,0.1c0.1,0,0.1,0,0.2,0s0.2,0,0.3-0.1c0,0.4,0,0.8,0,1.2l0,0
		c0.4-0.9,1.1-1.3,1.8-1.3c0.2,0,0.4,0,0.6,0.1s0.4,0.2,0.5,0.3c0.2,0.1,0.3,0.3,0.4,0.5s0.2,0.4,0.2,0.6l0,0
		c0.2-0.5,0.5-0.8,0.8-1.1c0.3-0.2,0.7-0.4,1.2-0.4c0.3,0,0.5,0,0.8,0.1c0.2,0.1,0.4,0.2,0.6,0.4s0.3,0.4,0.4,0.7S24,49.5,24,50
		c0,0.2,0,0.3,0,0.5s0,0.4,0,0.7s0,0.5,0,0.9c0,0.3,0,0.7,0,1.1c0,0.3,0,0.5,0,0.8c0,0.2,0,0.5,0,0.8c-0.1,0-0.2,0-0.3,0h-0.3h-0.3
		c-0.1,0-0.2,0-0.3,0c0-0.2,0.1-0.7,0.1-1.5c0-0.7,0-1.8,0-3.1c0-0.2,0-0.5-0.1-0.7c0-0.2-0.1-0.4-0.2-0.6c-0.1-0.2-0.2-0.3-0.4-0.4
		c-0.2-0.1-0.4-0.1-0.6-0.1c-0.3,0-0.5,0.1-0.8,0.2c-0.2,0.1-0.4,0.3-0.5,0.5c-0.1,0.1-0.1,0.2-0.2,0.3c0,0.1-0.1,0.3-0.1,0.5
		s0,0.5,0,0.9s0,0.9,0,1.6c0,0.4,0,0.8,0,1.1s0,0.7,0,1.1c-0.2,0-0.4,0-0.5,0c-0.2,0-0.3,0-0.5,0c0-0.5,0.1-1.1,0.1-1.6
		c0-0.6,0-1.1,0-1.6s0-0.8,0-1.1s0-0.5,0-0.6c0-0.2,0-0.3-0.1-0.4c0-0.1-0.1-0.2-0.1-0.3c-0.1-0.2-0.2-0.3-0.4-0.5
		c-0.2-0.1-0.4-0.2-0.6-0.2c-0.5,0-0.9,0.2-1.2,0.6c-0.3,0.4-0.4,1-0.4,1.8v1.2c0,0.4,0,0.9,0,1.4s0,0.9,0.1,1.3c-0.2,0-0.4,0-0.6,0
		c-0.2,0-0.4,0-0.6,0c0-0.4,0.1-0.8,0.1-1.3s0-0.9,0-1.4v-1.5C15.7,50.1,15.7,49.7,15.6,49.2"/>
	<path class="st0" d="M26.3,44.8c0.1-0.1,0.3-0.2,0.4-0.2c0.2,0,0.3,0.1,0.4,0.2c0.1,0.2,0.2,0.3,0.2,0.5s-0.1,0.4-0.2,0.5
		c0,0.2-0.1,0.2-0.3,0.2s-0.3-0.1-0.4-0.2c-0.1-0.2-0.2-0.3-0.2-0.5C26.1,45.1,26.2,44.9,26.3,44.8 M26.3,49.2c0-0.5,0-0.9-0.1-1.4
		c0.2,0,0.4,0.1,0.6,0.1c0.1,0,0.3,0,0.6-0.1c0,0.4-0.1,0.9-0.1,1.4s0,0.9,0,1.4v1.5c0,0.4,0,0.9,0,1.4s0,0.9,0.1,1.3
		c-0.2,0-0.4,0-0.6,0s-0.4,0-0.6,0c0-0.4,0.1-0.8,0.1-1.3s0-0.9,0-1.4v-1.5C26.3,50.1,26.3,49.7,26.3,49.2"/>
	<path class="st0" d="M29.6,53.7c0.1,0.1,0.2,0.2,0.3,0.3c0.1,0.1,0.3,0.2,0.4,0.3c0.2,0.1,0.3,0.1,0.5,0.1s0.3,0,0.5-0.1
		c0.1-0.1,0.3-0.1,0.4-0.2c0.1-0.1,0.2-0.2,0.3-0.4c0.1-0.2,0.1-0.4,0.1-0.6c0-0.3-0.1-0.5-0.2-0.7s-0.3-0.3-0.5-0.4
		c-0.2-0.1-0.5-0.2-0.7-0.3c-0.3-0.1-0.5-0.2-0.7-0.3s-0.4-0.3-0.5-0.6c-0.1-0.2-0.2-0.6-0.2-1c0-0.3,0-0.6,0.1-0.9
		c0.1-0.3,0.2-0.5,0.4-0.7c0.2-0.2,0.4-0.3,0.6-0.5c0.3-0.1,0.5-0.2,0.9-0.2c0.3,0,0.6,0,0.8,0.1c0.2,0.1,0.4,0.2,0.6,0.3
		c-0.1,0.2-0.1,0.3-0.2,0.5c-0.1,0.2-0.1,0.4-0.1,0.5h-0.2c-0.1-0.2-0.2-0.4-0.4-0.6c-0.2-0.2-0.4-0.3-0.7-0.3c-0.1,0-0.2,0-0.4,0.1
		c-0.1,0-0.2,0.1-0.3,0.2c-0.1,0.1-0.2,0.2-0.3,0.4C30,48.9,30,49,30,49.3s0.1,0.6,0.2,0.7c0.1,0.2,0.3,0.3,0.5,0.4
		c0.2,0.1,0.5,0.2,0.7,0.3c0.3,0.1,0.5,0.2,0.7,0.3s0.4,0.3,0.5,0.5s0.2,0.6,0.2,1c0,0.3-0.1,0.6-0.2,0.8c-0.1,0.3-0.3,0.5-0.5,0.7
		s-0.4,0.4-0.7,0.5c-0.3,0.1-0.6,0.2-0.9,0.2c-0.4,0-0.7,0-1-0.1s-0.5-0.2-0.6-0.3c0-0.1,0.1-0.3,0.2-0.5s0.1-0.4,0.1-0.5h0.2
		C29.4,53.5,29.5,53.6,29.6,53.7"/>
	<path class="st0" d="M34.6,44.8c0.1-0.1,0.3-0.2,0.5-0.2s0.3,0.1,0.4,0.2c0.1,0.2,0.2,0.3,0.2,0.5s-0.1,0.4-0.2,0.5
		C35.4,46,35.2,46,35.1,46c-0.2,0-0.3-0.1-0.5-0.2c-0.1-0.2-0.2-0.3-0.2-0.5C34.4,45.1,34.5,44.9,34.6,44.8 M34.6,49.2
		c0-0.5,0-0.9-0.1-1.4c0.2,0,0.4,0.1,0.6,0.1c0.1,0,0.3,0,0.6-0.1c0,0.4-0.1,0.9-0.1,1.4s0,0.9,0,1.4v1.5c0,0.4,0,0.9,0,1.4
		s0,0.9,0.1,1.3c-0.2,0-0.4,0-0.6,0c-0.2,0-0.4,0-0.6,0c0-0.4,0.1-0.8,0.1-1.3s0-0.9,0-1.4v-1.5C34.6,50.1,34.6,49.7,34.6,49.2"/>
	<path class="st0" d="M37.5,49.6c0.2-0.5,0.4-0.8,0.7-1.1s0.6-0.5,1-0.6s0.7-0.2,1.1-0.2c0.4,0,0.7,0.1,1.1,0.2
		c0.4,0.1,0.7,0.3,1,0.6s0.5,0.7,0.7,1.1c0.2,0.5,0.3,1,0.3,1.7s-0.1,1.2-0.3,1.7s-0.4,0.8-0.7,1.1s-0.6,0.5-1,0.6s-0.7,0.2-1.1,0.2
		c-0.4,0-0.7-0.1-1.1-0.2c-0.4-0.1-0.7-0.3-1-0.6s-0.5-0.7-0.7-1.1c-0.2-0.5-0.3-1-0.3-1.7C37.2,50.7,37.3,50.1,37.5,49.6
		 M38.4,52.5c0.1,0.4,0.2,0.7,0.3,1s0.4,0.5,0.6,0.7c0.2,0.2,0.6,0.3,0.9,0.3c0.4,0,0.7-0.1,0.9-0.3c0.3-0.2,0.4-0.4,0.6-0.7
		c0.1-0.3,0.3-0.6,0.3-1c0.1-0.4,0.1-0.8,0.1-1.2s0-0.8-0.1-1.2s-0.2-0.7-0.3-1s-0.3-0.5-0.6-0.7c-0.2-0.2-0.6-0.3-0.9-0.3
		c-0.4,0-0.7,0.1-0.9,0.3s-0.4,0.4-0.6,0.7c-0.2,0.3-0.3,0.6-0.3,1c-0.1,0.4-0.1,0.8-0.1,1.2C38.3,51.7,38.4,52.1,38.4,52.5
		 M41.8,44c0.1,0,0.2,0,0.3,0.1s0.1,0.2,0.1,0.3c0,0.2-0.1,0.3-0.2,0.4c-0.1,0.1-0.2,0.2-0.3,0.3l-1.8,1.4h-0.5l1.8-2.2
		C41.4,44.2,41.6,44,41.8,44"/>
	<path class="st0" d="M48.4,49c-0.2-0.4-0.6-0.6-1-0.6c-0.6,0-1,0.2-1.3,0.6c-0.3,0.4-0.4,1-0.4,1.8V52c0,0.4,0,0.9,0,1.4
		s0,0.9,0.1,1.3c-0.2,0-0.4,0-0.6,0c-0.2,0-0.4,0-0.6,0c0-0.4,0.1-0.8,0.1-1.3s0-0.9,0-1.4v-1.5c0-0.4,0-0.9,0-1.4s0-0.9-0.1-1.4
		c0.2,0,0.4,0.1,0.6,0.1c0.1,0,0.1,0,0.2,0c0.1,0,0.2,0,0.3-0.1c0,0.4,0,0.8,0,1.2l0,0c0.2-0.4,0.5-0.7,0.8-1
		c0.3-0.2,0.7-0.3,1.2-0.3c0.2,0,0.5,0,0.7,0.1s0.5,0.2,0.6,0.4c0.2,0.2,0.3,0.4,0.5,0.8c0.1,0.3,0.2,0.7,0.2,1.3c0,0.4,0,0.9,0,1.3
		c0,0.4,0,0.9,0,1.4v1c0,0.2,0,0.3,0,0.5s0,0.3,0,0.4c-0.2,0-0.3,0-0.5,0s-0.3,0-0.5,0c0-0.5,0-1,0.1-1.6c0-0.5,0-1.1,0-1.7v-0.9
		C48.7,49.9,48.6,49.4,48.4,49"/>
	<path class="st0" d="M59.3,51c-1.1-1.4-2.2-2.7-3.2-4.1c0,0.3,0,0.6,0,1.1s0,1.1,0,1.9c0,0.2,0,0.5,0,0.8s0,0.6,0,1
		c0,0.3,0,0.7,0,1s0,0.7,0,1s0,0.5,0,0.8c0,0.2,0,0.4,0,0.4c-0.1,0-0.3,0-0.4,0c-0.2,0-0.3,0-0.5,0c0-0.1,0-0.3,0.1-0.5
		c0-0.3,0-0.6,0.1-0.9c0-0.4,0-0.8,0.1-1.2c0-0.4,0-0.9,0.1-1.3c0-0.4,0-0.8,0-1.3c0-0.4,0-0.8,0-1.1c0-0.9,0-1.7,0-2.4s0-1.2,0-1.5
		h0.2c0.5,0.6,1,1.3,1.6,2.1c0.6,0.7,1.1,1.5,1.7,2.2c0.6,0.7,1.1,1.4,1.6,2s1,1.2,1.3,1.6v-2c0-1,0-2,0-3s0-1.9-0.1-2.7
		c0.2,0.1,0.3,0.1,0.4,0.1c0.1,0,0.2,0,0.4-0.1c0,0.2,0,0.5-0.1,1c0,0.4,0,0.9-0.1,1.4c0,0.5,0,1-0.1,1.4c0,0.5,0,0.8,0,1.1v0.9
		c0,0.3,0,0.7,0,1c0,0.4,0,0.7,0,1.1c0,0.4,0,0.7,0,1s0,0.6,0,0.8V55h-0.2C61.4,53.7,60.3,52.3,59.3,51"/>
	<path class="st0" d="M65.9,47.9c0.3-0.1,0.6-0.2,1-0.2c0.3,0,0.6,0.1,0.8,0.2c0.3,0.1,0.5,0.2,0.6,0.4c0.2,0.2,0.3,0.4,0.4,0.7
		s0.1,0.6,0.1,0.9c0,0.6,0,1.1,0,1.7c0,0.5,0,1.1,0,1.7c0,0.1,0,0.2,0,0.4c0,0.1,0,0.2,0.1,0.4c0,0.1,0.1,0.2,0.1,0.3
		c0.1,0.1,0.2,0.1,0.3,0.1h0.1c0,0,0.1,0,0.1-0.1v0.3c-0.1,0-0.2,0.1-0.3,0.1c-0.1,0-0.3,0-0.5,0c-0.3,0-0.5-0.1-0.6-0.2
		c-0.1-0.2-0.2-0.4-0.3-0.6c-0.3,0.4-0.6,0.6-0.9,0.8S66.3,55,65.8,55c-0.2,0-0.4,0-0.6-0.1s-0.4-0.2-0.5-0.3
		c-0.2-0.2-0.3-0.3-0.4-0.6c-0.1-0.2-0.1-0.5-0.1-0.7c0-0.6,0.2-1,0.5-1.4c0.3-0.3,0.7-0.5,1.3-0.6c0.4-0.1,0.8-0.2,1-0.2
		c0.2-0.1,0.4-0.1,0.6-0.2c0.1-0.1,0.2-0.2,0.2-0.2c0-0.1,0-0.2,0-0.4s0-0.5-0.1-0.7c0-0.2-0.1-0.4-0.2-0.6
		c-0.1-0.2-0.3-0.3-0.4-0.4c-0.2-0.1-0.4-0.2-0.6-0.2c-0.3,0-0.6,0.1-0.9,0.3s-0.5,0.4-0.6,0.7h-0.1v-0.8
		C65.2,48.2,65.5,48,65.9,47.9 M67.4,51.3c-0.2,0-0.4,0.1-0.6,0.1s-0.4,0.1-0.6,0.2c-0.2,0.1-0.4,0.2-0.5,0.3s-0.3,0.3-0.3,0.4
		c-0.1,0.2-0.1,0.4-0.1,0.7c0,0.5,0.1,0.8,0.3,1c0.2,0.2,0.5,0.3,0.7,0.3c0.3,0,0.6-0.1,0.9-0.3s0.5-0.4,0.6-0.7l0.1-2.2
		C67.8,51.2,67.6,51.2,67.4,51.3"/>
	<path class="st0" d="M70.8,49.7c0.2-0.5,0.4-0.8,0.7-1.1c0.3-0.3,0.6-0.5,1-0.7c0.4-0.1,0.8-0.2,1.2-0.2c0.5,0,0.9,0.1,1.2,0.2
		c0.4,0.1,0.6,0.3,0.8,0.4c-0.1,0.1-0.1,0.3-0.2,0.5c0,0.2-0.1,0.3-0.1,0.5h-0.1c-0.1-0.1-0.1-0.3-0.2-0.4c-0.1-0.1-0.2-0.3-0.4-0.4
		c-0.1-0.1-0.3-0.2-0.5-0.3s-0.3-0.1-0.5-0.1c-0.4,0-0.7,0.1-1,0.2c-0.3,0.2-0.5,0.4-0.7,0.7s-0.3,0.6-0.4,1s-0.1,0.8-0.1,1.3
		c0,1,0.2,1.8,0.5,2.3c0.4,0.5,0.9,0.8,1.6,0.8c0.2,0,0.3,0,0.5-0.1s0.3-0.1,0.5-0.2c0.2-0.1,0.3-0.2,0.5-0.3
		c0.1-0.1,0.3-0.3,0.4-0.4h0.1c0,0.2-0.1,0.5-0.1,0.7c-0.3,0.2-0.6,0.4-0.9,0.6c-0.4,0.2-0.8,0.2-1.1,0.2c-0.4,0-0.7-0.1-1.1-0.2
		c-0.4-0.1-0.7-0.3-1-0.6s-0.5-0.7-0.7-1.1c-0.2-0.5-0.3-1-0.3-1.7C70.5,50.7,70.6,50.1,70.8,49.7"/>
	<path class="st0" d="M77.5,44.8c0.1-0.1,0.3-0.2,0.4-0.2c0.2,0,0.3,0.1,0.4,0.2c0.1,0.2,0.2,0.3,0.2,0.5s-0.1,0.4-0.2,0.5
		c0,0.2-0.2,0.2-0.4,0.2s-0.3-0.1-0.4-0.2c-0.1-0.2-0.2-0.3-0.2-0.5S77.4,44.9,77.5,44.8 M77.5,49.2c0-0.5,0-0.9-0.1-1.4
		c0.2,0,0.4,0.1,0.6,0.1c0.1,0,0.3,0,0.6-0.1c0,0.4-0.1,0.9-0.1,1.4s0,0.9,0,1.4v1.5c0,0.4,0,0.9,0,1.4s0,0.9,0.1,1.3
		c-0.2,0-0.4,0-0.6,0s-0.4,0-0.6,0c0-0.4,0.1-0.8,0.1-1.3s0-0.9,0-1.4v-1.5C77.5,50.1,77.5,49.7,77.5,49.2"/>
	<path class="st0" d="M80.4,49.6c0.2-0.5,0.4-0.8,0.7-1.1c0.3-0.3,0.6-0.5,1-0.6s0.7-0.2,1.1-0.2s0.7,0.1,1.1,0.2
		c0.4,0.1,0.7,0.3,1,0.6s0.5,0.7,0.7,1.1c0.2,0.5,0.3,1,0.3,1.7S86.2,52.5,86,53s-0.4,0.8-0.7,1.1c-0.3,0.3-0.6,0.5-1,0.6
		s-0.7,0.2-1.1,0.2s-0.7-0.1-1.1-0.2c-0.4-0.1-0.7-0.3-1-0.6s-0.5-0.7-0.7-1.1c-0.2-0.5-0.3-1-0.3-1.7
		C80.1,50.7,80.2,50.1,80.4,49.6 M81.3,52.5c0.1,0.4,0.2,0.7,0.3,1c0.2,0.3,0.3,0.5,0.6,0.7c0.2,0.2,0.6,0.3,0.9,0.3
		c0.4,0,0.7-0.1,0.9-0.3c0.3-0.2,0.4-0.4,0.6-0.7c0.1-0.3,0.3-0.6,0.3-1c0.1-0.4,0.1-0.8,0.1-1.2s0-0.8-0.1-1.2s-0.2-0.7-0.3-1
		c-0.2-0.3-0.3-0.5-0.6-0.7c-0.2-0.2-0.5-0.3-0.9-0.3s-0.7,0.1-0.9,0.3c-0.2,0.2-0.4,0.4-0.6,0.7c-0.1,0.3-0.3,0.6-0.3,1
		c-0.1,0.4-0.1,0.8-0.1,1.2C81.2,51.7,81.2,52.1,81.3,52.5"/>
	<path class="st0" d="M91.2,49c-0.2-0.4-0.6-0.6-1-0.6c-0.6,0-1,0.2-1.3,0.6c-0.3,0.4-0.4,1-0.4,1.8V52c0,0.4,0,0.9,0,1.4
		s0,0.9,0.1,1.3c-0.2,0-0.4,0-0.6,0s-0.4,0-0.6,0c0-0.4,0.1-0.8,0.1-1.3s0-0.9,0-1.4v-1.5c0-0.4,0-0.9,0-1.4s0-0.9-0.1-1.4
		c0.2,0,0.4,0.1,0.6,0.1c0.1,0,0.1,0,0.2,0s0.2,0,0.3-0.1c0,0.4,0,0.8,0,1.2l0,0c0.2-0.4,0.5-0.7,0.8-1c0.3-0.2,0.7-0.3,1.2-0.3
		c0.2,0,0.5,0,0.7,0.1s0.5,0.2,0.6,0.4c0.2,0.2,0.3,0.4,0.5,0.8c0.1,0.3,0.2,0.7,0.2,1.3c0,0.4,0,0.9,0,1.3c0,0.4,0,0.9,0,1.4v1
		c0,0.2,0,0.3,0,0.5s0,0.3,0,0.4c-0.2,0-0.3,0-0.5,0s-0.3,0-0.5,0c0-0.5,0-1,0.1-1.6c0-0.5,0-1.1,0-1.7v-0.9
		C91.6,49.9,91.5,49.4,91.2,49"/>
	<path class="st0" d="M95.6,47.9c0.3-0.1,0.6-0.2,1-0.2c0.3,0,0.6,0.1,0.8,0.2c0.3,0.1,0.5,0.2,0.6,0.4c0.2,0.2,0.3,0.4,0.4,0.7
		s0.2,0.6,0.2,0.9c0,0.6,0,1.1,0,1.7c0,0.5,0,1.1,0,1.7c0,0.1,0,0.2,0,0.4c0,0.1,0,0.2,0.1,0.4c0,0.1,0.1,0.2,0.1,0.3
		c0.1,0.1,0.2,0.1,0.3,0.1h0.1c0,0,0.1,0,0.1-0.1v0.3c-0.1,0-0.2,0.1-0.3,0.1c-0.1,0-0.3,0-0.5,0c-0.3,0-0.5-0.1-0.6-0.2
		c-0.1-0.2-0.2-0.4-0.3-0.6c-0.3,0.4-0.6,0.6-0.9,0.8S96.1,55,95.6,55c-0.2,0-0.4,0-0.6-0.1s-0.4-0.2-0.5-0.3
		c-0.1-0.2-0.3-0.3-0.4-0.6C94,53.8,94,53.5,94,53.3c0-0.6,0.2-1,0.5-1.4c0.3-0.3,0.7-0.5,1.3-0.6c0.4-0.1,0.8-0.2,1-0.2
		c0.3-0.1,0.4-0.1,0.6-0.2c0.1-0.1,0.2-0.2,0.2-0.2c0-0.1,0-0.2,0-0.4s0-0.5-0.1-0.7s-0.1-0.4-0.2-0.6c-0.1-0.2-0.2-0.3-0.4-0.4
		c-0.2-0.1-0.4-0.2-0.6-0.2c-0.3,0-0.6,0.1-0.9,0.3s-0.5,0.4-0.6,0.7h-0.1v-0.8C94.9,48.2,95.3,48,95.6,47.9 M97.1,51.3
		c-0.2,0-0.4,0.1-0.6,0.1s-0.4,0.1-0.6,0.2c-0.2,0.1-0.3,0.2-0.5,0.3c-0.1,0.1-0.3,0.3-0.3,0.4c0,0.2-0.1,0.4-0.1,0.7
		c0,0.5,0.1,0.8,0.3,1c0.2,0.2,0.5,0.3,0.7,0.3c0.3,0,0.6-0.1,0.9-0.3s0.5-0.4,0.6-0.7v-2.2C97.5,51.2,97.3,51.2,97.1,51.3"/>
	<path class="st0" d="M101,46.9c0-0.4,0-0.8,0-1.2s0-0.7,0-1.1c0-0.3,0-0.6,0-0.9c0.2,0.1,0.4,0.1,0.6,0.1c0.1,0,0.3,0,0.6-0.1
		c0,0.2,0,0.5,0,0.9s0,0.7,0,1.1c0,0.4,0,0.8,0,1.2s0,0.8,0,1.1v2.6c0,0.3,0,0.7,0,1.1c0,0.4,0,0.8,0,1.2s0,0.7,0,1.1
		c0,0.3,0,0.6,0,0.8c-0.2,0-0.4,0-0.6,0s-0.4,0-0.6,0c0-0.2,0-0.5,0-0.8s0-0.7,0-1.1c0-0.4,0-0.8,0-1.2s0-0.8,0-1.1V48
		C101,47.6,101,47.3,101,46.9"/>
	<path class="st0" d="M14.2,66.1c-0.1,0.2-0.2,0.3-0.3,0.5s-0.3,0.3-0.4,0.5c-0.2,0.2-0.4,0.3-0.6,0.4c-0.2,0.1-0.5,0.1-0.8,0.1
		s-0.6-0.1-0.9-0.2c-0.3-0.1-0.6-0.3-0.8-0.6c-0.2-0.3-0.4-0.7-0.6-1.1c-0.1-0.5-0.2-1-0.2-1.6s0.1-1.2,0.2-1.6
		c0.2-0.5,0.4-0.8,0.6-1.1c0.3-0.3,0.5-0.5,0.9-0.7c0.3-0.1,0.6-0.2,1-0.2c0.9,0,1.6,0.5,1.9,1.5l0,0v-1.4c0-0.4,0-0.7,0-1.1
		c0-0.4,0-0.7,0-1.1c0-0.3,0-0.7,0-1s0-0.6,0-0.8c0.1,0,0.2,0,0.3,0.1c0.1,0,0.2,0,0.3,0s0.2,0,0.3,0s0.2,0,0.3-0.1
		c0,0.3,0,0.8-0.1,1.4c0,0.6,0,1.2,0,2c0,0.7,0,1.4,0,2.2s0,1.4,0,2.1s0,1.3,0,1.8s0,1.1,0,1.7c-0.2,0-0.3,0-0.5,0
		c-0.1,0-0.3,0-0.5,0L14.2,66.1L14.2,66.1z M10.8,65.6c0.1,0.4,0.2,0.7,0.4,0.9c0.2,0.2,0.3,0.4,0.6,0.5c0.2,0.1,0.4,0.1,0.6,0.1
		c0.3,0,0.6-0.1,0.8-0.3c0.2-0.2,0.4-0.4,0.6-0.7c0.2-0.3,0.3-0.7,0.3-1c0.1-0.4,0.1-0.8,0.1-1.2c0-0.9-0.2-1.7-0.5-2.1
		C13.5,61.2,13,61,12.4,61c-0.3,0-0.6,0.1-0.8,0.2c-0.2,0.2-0.4,0.4-0.5,0.7s-0.3,0.6-0.3,1c-0.1,0.4-0.1,0.8-0.1,1.2
		C10.7,64.7,10.7,65.2,10.8,65.6"/>
	<path class="st0" d="M17.1,61.4c0.5-0.7,1.2-1,2.1-1c0.4,0,0.8,0.1,1.1,0.2c0.3,0.2,0.6,0.4,0.8,0.6c0.2,0.3,0.4,0.6,0.5,0.9
		c0.1,0.4,0.2,0.8,0.2,1.2c0,0.1,0,0.2,0,0.3s0,0.2,0,0.3c-0.4,0-0.9,0-1.3,0s-0.9,0-1.3,0c-0.3,0-0.5,0-0.8,0s-0.5,0-0.8,0
		c0,0.1,0,0.1,0,0.2v0.2c0,0.4,0,0.7,0.1,1.1c0.1,0.3,0.2,0.6,0.4,0.8c0.2,0.2,0.4,0.4,0.7,0.6C19,67,19.3,67,19.6,67
		c0.2,0,0.3,0,0.5-0.1s0.3-0.1,0.5-0.2s0.3-0.2,0.5-0.3c0.1-0.1,0.3-0.3,0.4-0.4h0.1l-0.1,0.7c-0.2,0.2-0.6,0.4-0.9,0.6
		c-0.4,0.2-0.8,0.2-1.2,0.2c-0.4,0-0.9-0.1-1.2-0.2c-0.4-0.2-0.7-0.4-1-0.7c-0.3-0.3-0.5-0.7-0.6-1.1s-0.2-0.9-0.2-1.4
		C16.4,63,16.6,62.1,17.1,61.4 M18.5,61.1c-0.2,0.2-0.4,0.4-0.5,0.6c-0.1,0.2-0.2,0.5-0.3,0.8c-0.1,0.3-0.1,0.6-0.1,0.8
		c0.3,0,0.5,0,0.8,0s0.6,0,0.8,0c0.3,0,0.6,0,0.8,0c0.3,0,0.6,0,0.8,0c0-0.3,0-0.5-0.1-0.8c0-0.3-0.1-0.6-0.2-0.8
		c-0.1-0.3-0.3-0.5-0.5-0.6c-0.2-0.2-0.5-0.2-0.8-0.2C19,60.8,18.7,60.9,18.5,61.1"/>
	<path class="st0" d="M33.3,67.5c-0.1,0-0.2,0-0.3,0h-0.3h-0.3c-0.1,0-0.2,0-0.3,0C32,67.3,32,67,31.9,66.7s-0.2-0.6-0.3-1
		c-0.1-0.3-0.2-0.7-0.4-1.1c-0.1-0.4-0.2-0.7-0.3-1c-0.3,0-0.5,0-0.8,0s-0.5,0-0.8,0s-0.5,0-0.8,0c-0.2,0-0.5,0-0.8,0
		c-0.3,0.8-0.5,1.5-0.7,2.2s-0.4,1.3-0.5,1.7c-0.1,0-0.3,0-0.5,0s-0.3,0-0.5,0c0.7-1.7,1.3-3.4,2-5.1c0.6-1.7,1.3-3.4,1.9-5.2h0.2
		c0.2,0.6,0.4,1.2,0.7,1.8c0.2,0.7,0.5,1.3,0.7,2s0.5,1.3,0.7,2s0.5,1.3,0.7,1.9s0.4,1.1,0.6,1.5C33,66.9,33.2,67.2,33.3,67.5
		 M27.7,62.9c0.2,0,0.4,0,0.7,0c0.2,0,0.5,0,0.7,0s0.5,0,0.7,0s0.5,0,0.7,0l-1.4-3.7L27.7,62.9z"/>
	<path class="st0" d="M34.3,62.4c0.2-0.5,0.4-0.8,0.7-1.1s0.6-0.5,1-0.7c0.4-0.1,0.8-0.2,1.2-0.2c0.5,0,0.9,0.1,1.2,0.2
		c0.4,0.1,0.6,0.3,0.8,0.4c-0.1,0.1-0.1,0.3-0.2,0.5c0,0.2-0.1,0.3-0.1,0.5h-0.1c-0.1-0.1-0.1-0.3-0.2-0.4c-0.1-0.1-0.2-0.3-0.4-0.4
		c-0.1-0.1-0.3-0.2-0.5-0.3s-0.3-0.1-0.5-0.1c-0.4,0-0.7,0.1-1,0.2c-0.3,0.2-0.5,0.4-0.7,0.7s-0.3,0.6-0.4,1C35,63.1,35,63.5,35,64
		c0,1,0.2,1.8,0.5,2.3c0.4,0.5,0.9,0.8,1.6,0.8c0.2,0,0.3,0,0.5-0.1s0.3-0.1,0.5-0.2s0.3-0.2,0.5-0.3c0.1-0.1,0.3-0.3,0.4-0.4h0.1
		c0,0.2-0.1,0.5-0.1,0.7c-0.3,0.2-0.6,0.4-0.9,0.6c-0.4,0.2-0.8,0.2-1.1,0.2c-0.4,0-0.7-0.1-1.1-0.2c-0.4-0.1-0.7-0.3-1-0.6
		c-0.3-0.3-0.5-0.7-0.7-1.1c-0.2-0.5-0.3-1-0.3-1.7C34,63.4,34.1,62.8,34.3,62.4"/>
	<path class="st0" d="M43.2,61.6c-0.1-0.1-0.2-0.1-0.4-0.1s-0.4,0.1-0.5,0.2c-0.2,0.1-0.3,0.3-0.4,0.4c-0.1,0.2-0.2,0.4-0.3,0.6
		c-0.1,0.2-0.1,0.5-0.1,0.8v1.6c0,0.7,0,1.2,0,1.5s0,0.6,0,0.8c-0.2,0-0.3,0-0.5,0s-0.4,0-0.5,0c0-0.3,0-0.8,0-1.4s0-1.3,0-2.1v-0.5
		c0-0.4,0-0.8,0-1.3s0-1.1,0-1.7c0.1,0,0.2,0,0.3,0s0.2,0,0.3,0s0.2,0,0.2,0c0.1,0,0.2,0,0.3,0c0,0.3-0.1,0.6-0.1,0.8s0,0.4,0,0.6
		l0,0c0.5-1.1,1-1.6,1.6-1.6c0.1,0,0.1,0,0.2,0c0.1,0,0.1,0,0.2,0.1c0,0.1-0.1,0.3-0.1,0.5s0,0.5,0,0.6l-0.1,0.1
		C43.4,61.6,43.4,61.6,43.2,61.6"/>
	<path class="st0" d="M45,61.4c0.5-0.7,1.2-1,2.1-1c0.4,0,0.8,0.1,1.1,0.2c0.3,0.2,0.6,0.4,0.8,0.6c0.2,0.3,0.4,0.6,0.5,0.9
		c0.1,0.4,0.2,0.8,0.2,1.2c0,0.1,0,0.2,0,0.3s0,0.2,0,0.3c-0.4,0-0.9,0-1.3,0c-0.4,0-0.9,0-1.3,0c-0.3,0-0.5,0-0.8,0s-0.5,0-0.8,0
		c0,0.1,0,0.1,0,0.2v0.2c0,0.4,0,0.7,0.1,1.1c0.1,0.3,0.2,0.6,0.4,0.8c0.2,0.2,0.4,0.4,0.7,0.6c0.3,0.1,0.6,0.2,0.9,0.2
		c0.2,0,0.3,0,0.5-0.1s0.3-0.1,0.5-0.2s0.3-0.2,0.5-0.3c0.1-0.1,0.3-0.3,0.4-0.4h0.1l-0.1,0.7c-0.2,0.2-0.6,0.4-0.9,0.6
		c-0.4,0.2-0.8,0.2-1.2,0.2s-0.9-0.1-1.2-0.2c-0.4-0.2-0.7-0.4-1-0.7c-0.3-0.3-0.5-0.7-0.6-1.1s-0.2-0.9-0.2-1.4
		C44.3,63,44.5,62.1,45,61.4 M46.4,61.1c-0.2,0.2-0.4,0.4-0.5,0.6c-0.1,0.2-0.2,0.5-0.3,0.8s-0.1,0.6-0.1,0.8c0.3,0,0.5,0,0.8,0
		s0.5,0,0.8,0s0.5,0,0.8,0s0.6,0,0.8,0c0-0.3,0-0.5-0.1-0.8c0-0.3-0.1-0.6-0.2-0.8c-0.1-0.3-0.3-0.5-0.5-0.6
		c-0.2-0.2-0.5-0.2-0.8-0.2C46.8,60.8,46.6,60.9,46.4,61.1"/>
	<path class="st0" d="M55.2,66.1c-0.1,0.2-0.1,0.3-0.3,0.5c-0.1,0.2-0.3,0.3-0.4,0.5c-0.2,0.2-0.4,0.3-0.6,0.4
		c-0.2,0.1-0.5,0.1-0.8,0.1s-0.6-0.1-0.9-0.2c-0.3-0.1-0.6-0.3-0.8-0.6c-0.2-0.3-0.4-0.7-0.6-1.1c-0.1-0.5-0.2-1-0.2-1.6
		s0.1-1.2,0.2-1.6c0.1-0.5,0.4-0.8,0.6-1.1c0.2-0.3,0.5-0.5,0.9-0.7c0.3-0.1,0.6-0.2,1-0.2c0.9,0,1.6,0.5,1.9,1.5l0,0v-1.4
		c0-0.4,0-0.7,0-1.1c0-0.4,0-0.7,0-1.1c0-0.3,0-0.7,0-1s0-0.6,0-0.8c0.1,0,0.2,0,0.3,0.1c0.1,0,0.2,0,0.3,0s0.2,0,0.3,0
		s0.2,0,0.3-0.1c0,0.3,0,0.8-0.1,1.4c0,0.6,0,1.2,0,2c0,0.7,0,1.4,0,2.2s0,1.4,0,2.1s0,1.3,0,1.8s0,1.1,0,1.7c-0.2,0-0.3,0-0.5,0
		c-0.1,0-0.3,0-0.5,0L55.2,66.1L55.2,66.1z M51.8,65.6c0.1,0.4,0.2,0.7,0.4,0.9c0.2,0.2,0.3,0.4,0.6,0.5c0.2,0.1,0.4,0.1,0.6,0.1
		c0.3,0,0.6-0.1,0.8-0.3c0.2-0.2,0.4-0.4,0.6-0.7c0.2-0.3,0.3-0.7,0.3-1c0.1-0.4,0.1-0.8,0.1-1.2c0-0.9-0.2-1.7-0.5-2.1
		C54.5,61.2,54,61,53.4,61c-0.3,0-0.6,0.1-0.8,0.2c-0.2,0.2-0.4,0.4-0.5,0.7s-0.3,0.6-0.3,1c-0.1,0.4-0.1,0.8-0.1,1.2
		C51.7,64.7,51.7,65.2,51.8,65.6"/>
	<path class="st0" d="M58.2,57.4c0.1-0.1,0.3-0.2,0.4-0.2c0.2,0,0.3,0.1,0.4,0.2c0.1,0.1,0.2,0.3,0.2,0.5s-0.1,0.4-0.2,0.5
		c-0.1,0.2-0.3,0.2-0.4,0.2c-0.2,0-0.3-0.1-0.4-0.2c-0.1-0.1-0.2-0.3-0.2-0.5C58.1,57.8,58.1,57.6,58.2,57.4 M58.2,61.9
		c0-0.5,0-0.9-0.1-1.4c0.2,0,0.4,0.1,0.6,0.1c0.1,0,0.3,0,0.6-0.1c0,0.4-0.1,0.9-0.1,1.4s0,0.9,0,1.4v1.5c0,0.4,0,0.9,0,1.4
		s0,0.9,0.1,1.3c-0.2,0-0.4,0-0.6,0c-0.2,0-0.4,0-0.6,0c0-0.4,0.1-0.8,0.1-1.3s0-0.9,0-1.4v-1.5C58.2,62.8,58.2,62.3,58.2,61.9"/>
	<path class="st0" d="M62.5,58.6c0,0.4,0,0.7-0.1,1.1c0,0.4,0,0.7,0,1.1c0.1,0,0.3,0,0.5,0c0.3,0,0.5,0,0.8,0c0,0,0,0.1,0,0.2l0,0
		v0.2c0,0.1,0,0.1,0,0.1c-0.1,0-0.2,0-0.3,0s-0.2,0-0.4,0h-0.6c0,0,0,0.2,0,0.5s0,0.6,0,1s0,0.8,0,1.2c0,0.4,0,0.8,0,1.1
		s0,0.5,0,0.8s0,0.5,0.1,0.7s0.2,0.4,0.3,0.5s0.3,0.2,0.6,0.2c0.1,0,0.2,0,0.3,0s0.2,0,0.3-0.1v0.4c-0.1,0-0.3,0.1-0.5,0.1
		s-0.3,0.1-0.5,0.1c-0.5,0-0.9-0.1-1.2-0.5c-0.2-0.3-0.4-0.7-0.4-1.3c0-0.3,0-0.5,0-0.9c0-0.3,0-0.6,0-1s0-0.8,0-1.2s0-0.9,0-1.5H61
		c-0.1,0-0.1,0-0.2,0c-0.1,0-0.2,0-0.2,0c0-0.1,0-0.1,0-0.2c0-0.1,0-0.1,0-0.2v-0.1c0-0.1,0-0.1,0-0.1c0.4,0,0.6,0,0.8,0
		c0-0.2,0-0.4,0-0.7s0-0.6,0-0.9L62.5,58.6L62.5,58.6z"/>
	<path class="st0" d="M66,60.5c0.3-0.1,0.6-0.2,1-0.2c0.3,0,0.6,0.1,0.8,0.2c0.2,0.1,0.5,0.2,0.6,0.4c0.2,0.2,0.3,0.4,0.4,0.7
		s0.1,0.6,0.1,0.9c0,0.6,0,1.1,0,1.7c0,0.6,0,1.1,0,1.7c0,0.1,0,0.2,0,0.4c0,0.1,0,0.2,0.1,0.4c0,0.1,0.1,0.2,0.1,0.3
		c0.1,0.1,0.2,0.1,0.3,0.1h0.1h0.1v0.3c-0.1,0.1-0.2,0.1-0.3,0.1c-0.1,0-0.3,0-0.5,0c-0.3,0-0.5-0.1-0.6-0.2
		C68.1,67,68,66.8,68,66.6c-0.3,0.4-0.6,0.6-0.9,0.8c-0.3,0.2-0.6,0.3-1.1,0.3c-0.2,0-0.4,0-0.6-0.1s-0.4-0.2-0.5-0.3
		c-0.2-0.2-0.3-0.3-0.4-0.6c-0.1-0.2-0.1-0.5-0.1-0.8c0-0.6,0.2-1,0.5-1.4c0.3-0.3,0.7-0.5,1.3-0.6c0.4-0.1,0.8-0.2,1-0.2
		c0.3-0.1,0.4-0.1,0.6-0.2c0.1-0.1,0.2-0.1,0.2-0.2c0-0.1,0-0.2,0-0.4s0-0.5-0.1-0.7c0-0.2-0.1-0.4-0.2-0.6
		c-0.1-0.2-0.2-0.3-0.4-0.4C67.1,61,66.9,61,66.6,61s-0.6,0.1-0.9,0.3s-0.5,0.4-0.6,0.7H65v-0.8C65.3,60.9,65.7,60.7,66,60.5
		 M67.5,64c-0.2,0-0.4,0.1-0.6,0.1s-0.4,0.1-0.6,0.2s-0.3,0.2-0.5,0.3c-0.1,0.1-0.3,0.3-0.3,0.4c-0.1,0.2-0.1,0.4-0.1,0.7
		c0,0.5,0.1,0.8,0.3,1c0.2,0.2,0.5,0.4,0.7,0.4c0.3,0,0.6-0.1,0.9-0.3c0.3-0.2,0.5-0.4,0.6-0.7v-2.2C67.9,63.9,67.7,63.9,67.5,64"/>
	<path class="st0" d="M70.9,62.4c0.2-0.5,0.4-0.8,0.7-1.1c0.3-0.3,0.6-0.5,1-0.7c0.4-0.1,0.8-0.2,1.2-0.2c0.5,0,0.9,0.1,1.2,0.2
		c0.4,0.1,0.6,0.3,0.8,0.4c-0.1,0.1-0.1,0.3-0.2,0.5c0,0.2-0.1,0.3-0.1,0.5h-0.1c-0.1-0.1-0.1-0.3-0.2-0.4c-0.1-0.1-0.2-0.3-0.4-0.4
		c-0.1-0.1-0.3-0.2-0.5-0.3s-0.3-0.1-0.5-0.1c-0.4,0-0.7,0.1-1,0.2c-0.3,0.2-0.5,0.4-0.7,0.7s-0.3,0.6-0.4,1s-0.1,0.8-0.1,1.3
		c0,1,0.2,1.8,0.6,2.3s0.9,0.8,1.6,0.8c0.2,0,0.3,0,0.5-0.1s0.3-0.1,0.5-0.2s0.3-0.2,0.5-0.3c0.1-0.1,0.3-0.3,0.4-0.4h0.1
		c0,0.2-0.1,0.5-0.1,0.7c-0.2,0.2-0.6,0.4-0.9,0.6c-0.4,0.2-0.7,0.2-1.1,0.2s-0.7-0.1-1.1-0.2s-0.7-0.3-1-0.6
		c-0.3-0.3-0.5-0.7-0.7-1.1c-0.2-0.5-0.3-1-0.3-1.7C70.6,63.4,70.7,62.8,70.9,62.4"/>
	<path class="st0" d="M77.6,57.4c0.1-0.1,0.3-0.2,0.4-0.2c0.2,0,0.3,0.1,0.5,0.2c0.1,0.1,0.2,0.3,0.2,0.5s-0.1,0.4-0.2,0.5
		c-0.1,0.2-0.3,0.2-0.5,0.2s-0.3-0.1-0.4-0.2c-0.1-0.1-0.2-0.3-0.2-0.5C77.4,57.8,77.5,57.6,77.6,57.4 M77.6,61.9
		c0-0.5,0-0.9-0.1-1.4c0.2,0,0.4,0.1,0.6,0.1c0.1,0,0.3,0,0.6-0.1c0,0.4-0.1,0.9-0.1,1.4s0,0.9,0,1.4v1.5c0,0.4,0,0.9,0,1.4
		s0,0.9,0.1,1.3c-0.2,0-0.4,0-0.6,0s-0.4,0-0.6,0c0-0.4,0.1-0.8,0.1-1.3s0-0.9,0-1.4v-1.5C77.6,62.8,77.6,62.3,77.6,61.9"/>
	<path class="st0" d="M80.5,62.3c0.2-0.5,0.4-0.8,0.7-1.1c0.3-0.3,0.6-0.5,1-0.6s0.7-0.2,1.1-0.2s0.7,0.1,1.1,0.2
		c0.4,0.1,0.7,0.3,1,0.6s0.5,0.7,0.7,1.1c0.2,0.5,0.3,1,0.3,1.7c0,0.7-0.1,1.2-0.3,1.7c-0.2,0.5-0.4,0.8-0.7,1.1
		c-0.3,0.3-0.6,0.5-1,0.6s-0.7,0.2-1.1,0.2s-0.7-0.1-1.1-0.2s-0.7-0.3-1-0.6c-0.3-0.3-0.5-0.7-0.7-1.1c-0.2-0.5-0.3-1-0.3-1.7
		C80.2,63.3,80.3,62.8,80.5,62.3 M81.4,65.2c0.1,0.4,0.2,0.7,0.3,1c0.2,0.3,0.3,0.5,0.6,0.7c0.3,0.2,0.6,0.3,0.9,0.3
		c0.4,0,0.7-0.1,0.9-0.3c0.3-0.2,0.5-0.4,0.6-0.7c0.2-0.3,0.3-0.6,0.3-1c0.1-0.4,0.1-0.8,0.1-1.2c0-0.4,0-0.8-0.1-1.2
		s-0.2-0.7-0.3-1c-0.2-0.3-0.3-0.5-0.6-0.7c-0.2-0.2-0.6-0.3-0.9-0.3c-0.4,0-0.7,0.1-0.9,0.3c-0.2,0.2-0.4,0.4-0.6,0.7
		c-0.1,0.3-0.3,0.6-0.3,1c-0.1,0.4-0.1,0.8-0.1,1.2C81.3,64.4,81.3,64.8,81.4,65.2 M84.8,56.7c0.1,0,0.2,0,0.3,0.1
		c0.1,0.1,0.1,0.2,0.1,0.4s0,0.3-0.1,0.4c-0.1,0.1-0.2,0.2-0.3,0.3L83,59.3h-0.5l1.8-2.2C84.4,56.8,84.6,56.7,84.8,56.7"/>
	<path class="st0" d="M91.3,61.7c-0.2-0.4-0.6-0.6-1-0.6c-0.6,0-1,0.2-1.3,0.6c-0.3,0.4-0.4,1-0.4,1.8v1.2c0,0.4,0,0.9,0,1.4
		s0,0.9,0.1,1.3c-0.2,0-0.4,0-0.6,0s-0.4,0-0.6,0c0-0.4,0.1-0.8,0.1-1.3s0-0.9,0-1.4v-1.5c0-0.4,0-0.9,0-1.4s0-0.9-0.1-1.4
		c0.2,0,0.4,0.1,0.6,0.1c0.1,0,0.1,0,0.2,0s0.2,0,0.3,0c0,0.4,0,0.8,0,1.2l0,0c0.2-0.4,0.5-0.7,0.8-1c0.3-0.2,0.7-0.3,1.2-0.3
		c0.2,0,0.5,0,0.7,0.1s0.4,0.2,0.6,0.4s0.4,0.5,0.5,0.8s0.2,0.7,0.2,1.2c0,0.4,0,0.8,0,1.3c0,0.4,0,0.9,0,1.4v0.9c0,0.2,0,0.3,0,0.5
		s0,0.3,0,0.4c-0.2,0-0.3,0-0.5,0s-0.4,0-0.5,0c0-0.5,0-1,0.1-1.6c0-0.5,0-1.1,0-1.6v-0.9C91.7,62.6,91.6,62.1,91.3,61.7"/>
	<path class="st0" d="M31.7,78.6c-0.1,0.1-0.3,0.1-0.5,0.2s-0.4,0.1-0.7,0.2c-0.3,0-0.5,0-0.8,0c-0.6,0-1.1-0.1-1.6-0.3
		c-0.5-0.2-0.9-0.4-1.3-0.8s-0.6-0.8-0.8-1.3c-0.2-0.5-0.3-1.1-0.3-1.8c0-0.7,0.1-1.2,0.3-1.8c0.2-0.5,0.5-1,0.9-1.3
		c0.4-0.4,0.8-0.6,1.3-0.8c0.5-0.2,1.1-0.3,1.7-0.3c0.5,0,0.9,0.1,1.3,0.2s0.8,0.2,1.1,0.4c-0.1,0.1-0.1,0.3-0.1,0.4
		c0,0.2-0.1,0.3-0.1,0.5H32c-0.1-0.1-0.2-0.2-0.3-0.3c-0.1-0.1-0.3-0.2-0.5-0.3c-0.2-0.1-0.4-0.2-0.6-0.3c-0.2-0.1-0.5-0.1-0.7-0.1
		c-0.4,0-0.8,0.1-1.2,0.2c-0.4,0.1-0.7,0.4-1,0.7c-0.3,0.3-0.5,0.7-0.6,1.2c-0.2,0.5-0.2,1-0.2,1.7c0,0.6,0.1,1.2,0.2,1.7
		c0.2,0.5,0.4,0.9,0.6,1.2c0.3,0.3,0.6,0.5,1,0.7c0.4,0.1,0.8,0.2,1.2,0.2c0.3,0,0.5,0,0.7-0.1s0.4-0.2,0.6-0.3
		c0.2-0.1,0.4-0.2,0.5-0.3c0.1-0.1,0.3-0.2,0.4-0.3l0,0L32,78.4C31.9,78.5,31.8,78.6,31.7,78.6"/>
	<path class="st0" d="M37.2,75.9c-1-1.1-1.9-2.2-2.9-3.2c0,0.2,0,0.5,0,0.9s0,0.9,0,1.5c0,0.2,0,0.4,0,0.6s0,0.5,0,0.8s0,0.5,0,0.8
		s0,0.5,0,0.8c0,0.2,0,0.4,0,0.6s0,0.3,0,0.4c-0.1,0-0.2,0-0.4,0c-0.1,0-0.3,0-0.4,0c0-0.1,0-0.2,0-0.4c0-0.2,0-0.5,0-0.8
		s0-0.6,0.1-1c0-0.3,0-0.7,0-1s0-0.7,0-1s0-0.6,0-0.9c0-0.7,0-1.4,0-1.9s0-0.9,0-1.2H34c0.5,0.5,0.9,1.1,1.5,1.7
		c0.5,0.6,1,1.2,1.5,1.7c0.5,0.6,1,1.1,1.4,1.6c0.5,0.5,0.9,0.9,1.2,1.3v-1.6c0-0.8,0-1.6,0-2.4s0-1.5-0.1-2.2
		c0.1,0,0.3,0.1,0.4,0.1c0.1,0,0.2,0,0.4-0.1c0,0.2,0,0.4,0,0.8c0,0.3,0,0.7-0.1,1.1c0,0.4,0,0.8,0,1.1c0,0.4,0,0.7,0,0.9v0.7
		c0,0.3,0,0.5,0,0.8s0,0.6,0,0.9s0,0.6,0,0.8c0,0.3,0,0.5,0,0.7V79H40C39.1,78,38.2,77,37.2,75.9"/>
	<path class="st0" d="M48.3,78.9c-0.1,0-0.2,0-0.3,0h-0.3h-0.3c-0.1,0-0.2,0-0.3,0c0-0.2-0.1-0.4-0.2-0.6c-0.1-0.3-0.2-0.5-0.3-0.8
		s-0.2-0.6-0.3-0.8c-0.1-0.3-0.2-0.6-0.3-0.8c-0.2,0-0.5,0-0.7,0s-0.5,0-0.7,0s-0.5,0-0.7,0s-0.4,0-0.7,0c-0.2,0.6-0.4,1.2-0.6,1.7
		c-0.2,0.5-0.3,1-0.4,1.4c-0.1,0-0.3,0-0.4,0c-0.1,0-0.3,0-0.4,0c0.6-1.4,1.2-2.7,1.8-4.1c0.6-1.3,1.1-2.7,1.7-4.1h0.2
		c0.2,0.5,0.4,0.9,0.6,1.5c0.2,0.5,0.4,1.1,0.6,1.6c0.2,0.5,0.4,1.1,0.6,1.6c0.2,0.5,0.4,1,0.6,1.5c0.2,0.5,0.4,0.9,0.5,1.2
		C48,78.4,48.2,78.7,48.3,78.9 M43.3,75.3c0.2,0,0.4,0,0.6,0c0.2,0,0.4,0,0.6,0c0.2,0,0.4,0,0.6,0c0.2,0,0.4,0,0.6,0l-1.2-3
		L43.3,75.3z"/>
	<rect x="48.9" y="75.8" class="st0" width="2.8" height="0.7"/>
	<path class="st0" d="M58.7,78.6c-0.1,0.1-0.3,0.1-0.5,0.2s-0.4,0.1-0.7,0.2c-0.3,0-0.5,0.1-0.8,0.1c-0.6,0-1.1-0.1-1.6-0.3
		c-0.5-0.2-0.9-0.4-1.3-0.8c-0.4-0.4-0.6-0.8-0.8-1.3s-0.3-1.1-0.3-1.8c0-0.7,0.1-1.2,0.3-1.8c0.2-0.5,0.5-1,0.9-1.3
		c0.4-0.4,0.8-0.6,1.3-0.8c0.5-0.2,1.1-0.3,1.7-0.3c0.5,0,0.9,0.1,1.3,0.2c0.4,0.1,0.8,0.2,1.1,0.4c-0.1,0.1-0.1,0.3-0.1,0.4
		c0,0.2-0.1,0.3-0.1,0.5H59c-0.1-0.1-0.2-0.2-0.3-0.3c-0.1-0.1-0.3-0.2-0.5-0.3c-0.2-0.1-0.4-0.2-0.6-0.3c-0.2-0.1-0.5-0.1-0.7-0.1
		c-0.4,0-0.8,0.1-1.2,0.2s-0.7,0.4-1,0.7c-0.3,0.3-0.5,0.7-0.7,1.2s-0.2,1-0.2,1.7c0,0.6,0.1,1.2,0.2,1.7c0.2,0.5,0.4,0.9,0.7,1.2
		c0.3,0.3,0.6,0.5,1,0.7c0.4,0.1,0.8,0.2,1.2,0.2c0.3,0,0.5,0,0.7-0.1s0.4-0.2,0.6-0.3c0.2-0.1,0.4-0.2,0.5-0.3
		c0.1-0.1,0.3-0.2,0.4-0.3l0,0L59,78.4C58.9,78.5,58.8,78.6,58.7,78.6"/>
	<path class="st0" d="M60.5,72.6c0-0.3,0-0.6,0-0.9s0-0.6,0-0.9s0-0.5,0-0.7c0.2,0,0.4,0.1,0.5,0.1s0.3,0,0.5-0.1c0,0.2,0,0.4,0,0.7
		c0,0.3,0,0.6,0,0.9s0,0.6,0,0.9s0,0.6,0,0.8v0.9l0,0c0.2-0.3,0.5-0.6,0.8-0.8c0.3-0.2,0.6-0.3,1-0.3c0.2,0,0.4,0,0.6,0.1
		c0.2,0.1,0.4,0.2,0.6,0.3c0.2,0.2,0.3,0.4,0.4,0.6c0.1,0.3,0.2,0.6,0.2,1c0,0.3,0,0.7,0,1c0,0.4,0,0.7,0,1.1v0.8c0,0.1,0,0.2,0,0.4
		c0,0.1,0,0.2,0,0.3c-0.2,0-0.3,0-0.5,0s-0.3,0-0.5,0c0-0.4,0-0.8,0.1-1.3c0-0.4,0-0.9,0-1.3v-0.7c0-0.6-0.1-1-0.3-1.3
		s-0.5-0.4-0.9-0.4c-0.5,0-0.9,0.2-1.1,0.5c-0.2,0.3-0.4,0.8-0.4,1.4c0,0.2,0,0.5,0,0.8s0,0.6,0,0.9s0,0.6,0,0.9s0,0.5,0,0.7
		c-0.2,0-0.3,0-0.5,0s-0.3,0-0.5,0c0-0.2,0-0.4,0-0.7c0-0.3,0-0.6,0-0.9s0-0.6,0-0.9s0-0.6,0-0.9v-2.1
		C60.5,73.2,60.5,72.9,60.5,72.6"/>
	<path class="st0" d="M66.9,70.9c0.1-0.1,0.2-0.2,0.4-0.2c0.2,0,0.3,0.1,0.4,0.2s0.2,0.3,0.2,0.4c0,0.2-0.1,0.3-0.2,0.4
		s-0.2,0.2-0.4,0.2c-0.2,0-0.3-0.1-0.4-0.2s-0.2-0.3-0.2-0.4C66.7,71.1,66.8,71,66.9,70.9 M66.9,74.4c0-0.4,0-0.7-0.1-1.1
		c0.2,0,0.4,0.1,0.5,0.1s0.3,0,0.5-0.1c0,0.3-0.1,0.7-0.1,1.1s0,0.8,0,1.1v1.2c0,0.3,0,0.7,0,1.1s0,0.7,0.1,1c-0.2,0-0.3,0-0.5,0
		s-0.3,0-0.5,0c0-0.3,0.1-0.7,0.1-1c0-0.4,0-0.8,0-1.1v-1.2C66.9,75.2,66.9,74.8,66.9,74.4"/>
	<path class="st0" d="M70,72.6c0-0.3,0-0.6,0-0.9s0-0.6,0-0.9s0-0.5,0-0.7c0.2,0,0.4,0.1,0.5,0.1s0.3,0,0.5-0.1c0,0.2,0,0.4,0,0.7
		c0,0.3,0,0.6,0,0.9s0,0.6,0,0.9s0,0.6,0,0.9v2.1c0,0.3,0,0.6,0,0.9s0,0.6,0,0.9s0,0.6,0,0.9s0,0.5,0,0.7c-0.2,0-0.3,0-0.5,0
		s-0.3,0-0.5,0c0-0.2,0-0.4,0-0.7c0-0.3,0-0.6,0-0.9s0-0.6,0-0.9s0-0.6,0-0.9v-2.1C70,73.2,70,72.9,70,72.6"/>
	<path class="st0" d="M73,74c0.4-0.5,1.1-0.8,1.9-0.8c0.4,0,0.7,0.1,1,0.2s0.5,0.3,0.7,0.5s0.3,0.5,0.4,0.8s0.1,0.6,0.1,0.9
		c0,0.1,0,0.2,0,0.2c0,0.1,0,0.2,0,0.2c-0.4,0-0.8,0-1.2,0c-0.4,0-0.8,0-1.2,0c-0.2,0-0.5,0-0.7,0s-0.5,0-0.7,0c0,0,0,0.1,0,0.2v0.2
		c0,0.3,0,0.6,0.1,0.8c0.1,0.3,0.2,0.5,0.4,0.7c0.2,0.2,0.4,0.3,0.6,0.5c0.2,0.1,0.5,0.2,0.8,0.2c0.1,0,0.3,0,0.5-0.1
		c0.2,0,0.3-0.1,0.5-0.2c0.1-0.1,0.3-0.2,0.4-0.3c0.1-0.1,0.2-0.2,0.3-0.3H77l-0.1,0.6c-0.2,0.2-0.5,0.3-0.8,0.5
		c-0.3,0.1-0.7,0.2-1,0.2c-0.4,0-0.8-0.1-1.1-0.2c-0.3-0.1-0.6-0.3-0.9-0.6c-0.2-0.2-0.4-0.5-0.6-0.9c-0.1-0.3-0.2-0.7-0.2-1.1
		C72.3,75.3,72.5,74.6,73,74 M74.2,73.8c-0.2,0.1-0.3,0.3-0.5,0.5c-0.1,0.2-0.2,0.4-0.3,0.7c-0.1,0.2-0.1,0.5-0.1,0.7
		c0.2,0,0.5,0,0.7,0s0.5,0,0.7,0s0.5,0,0.7,0s0.5,0,0.7,0c0-0.2,0-0.4,0-0.7c0-0.2-0.1-0.5-0.2-0.7s-0.2-0.4-0.4-0.5
		c-0.2-0.1-0.4-0.2-0.7-0.2C74.6,73.6,74.4,73.7,74.2,73.8"/>
	<polygon class="st0" points="50.3,1.7 61.4,26.4 53.7,32.1 44.2,10.7 32,39 31.5,39.5 30.5,39.9 21.9,39.9 21.6,39.7 38.1,1.4 
		38.6,1 39.2,1 49.8,1 50,1.2 	"/>
	<polygon class="st0" points="50.3,1.7 61.4,26.4 53.7,32.1 44.2,10.7 32,39 31.5,39.5 30.5,39.9 21.9,39.9 21.6,39.7 38.1,1.4 
		38.6,1 39.2,1 49.8,1 50,1.2 	"/>
	<polygon class="st0" points="53.7,32.2 43.9,40.1 57,40.1 	"/>
	<polygon class="st0" points="53.7,32.2 43.9,40.1 57,40.1 	"/>
	<polygon class="st0" points="61.5,26.6 81,10.5 68.2,40 68,40 67.6,40 67.3,39.7 	"/>
	<polygon class="st0" points="61.5,26.6 81,10.5 68.2,40 68,40 67.6,40 67.3,39.7 	"/>
</g>
<g>
	<g>
		<path class="st1" d="M153,11.4c0-1-0.2-1.3-0.6-1.3c-0.7,0-0.8,0.6-0.8,2.9s0.1,2.9,0.8,2.9c0.6,0,0.7-0.5,0.7-2.1h2.2v0.6
			c0,2.4-1.4,3-2.8,3c-2.5,0-3.1-1.3-3.1-4.4c0-3.3,0.7-4.4,3.1-4.4c2,0,2.8,1.1,2.8,2.7v0.5H153V11.4z"/>
		<path class="st1" d="M156.1,8.8h5.1v1.8h-2.8v1.5h2.7v1.7h-2.7v1.7h2.9v1.8h-5.2V8.8z"/>
		<path class="st1" d="M162,8.8h2.5l1.4,5.3h0V8.8h2.1v8.6h-2.4l-1.5-5.3h0v5.3H162V8.8z"/>
		<path class="st1" d="M170.3,10.7h-1.7V8.8h5.6v1.9h-1.7v6.7h-2.2V10.7z"/>
		<path class="st1" d="M174.7,8.8h3.5c1.7,0,2.3,1,2.3,2.3c0,1.1-0.4,1.9-1.5,2v0c1.1,0.1,1.4,0.8,1.4,1.9v0.7c0,0.4,0,1,0.1,1.2
			c0.1,0.1,0.1,0.2,0.3,0.3v0.1h-2.4c-0.2-0.5-0.2-1.3-0.2-1.6v-0.6c0-1-0.2-1.2-0.7-1.2h-0.6v3.4h-2.2V8.8z M176.9,12.4h0.4
			c0.6,0,0.9-0.4,0.9-1c0-0.7-0.3-1-0.9-1h-0.4V12.4z"/>
		<path class="st1" d="M184.3,8.6c2.3,0,3.1,1.2,3.1,4.4c0,3.2-0.8,4.4-3.1,4.4s-3.1-1.2-3.1-4.4C181.3,9.9,182.1,8.6,184.3,8.6z
			 M184.3,16c0.7,0,0.8-0.6,0.8-2.9s-0.1-2.9-0.8-2.9s-0.8,0.6-0.8,2.9S183.7,16,184.3,16z"/>
		<path class="st1" d="M191.3,8.8h3.2c2.6,0,2.7,2,2.7,4.3s-0.1,4.3-2.7,4.3h-3.2V8.8z M193.5,15.7h0.4c0.9,0,1-0.4,1-2.7
			s-0.1-2.7-1-2.7h-0.4V15.7z"/>
		<path class="st1" d="M198.2,8.8h5.1v1.8h-2.8v1.5h2.7v1.7h-2.7v1.7h2.9v1.8h-5.2V8.8z"/>
		<path class="st1" d="M207.3,8.8h5.1v1.8h-2.8v1.5h2.7v1.7h-2.7v3.5h-2.2V8.8z"/>
		<path class="st1" d="M215.9,8.6c2.3,0,3.1,1.2,3.1,4.4c0,3.2-0.8,4.4-3.1,4.4c-2.3,0-3.1-1.2-3.1-4.4
			C212.8,9.9,213.6,8.6,215.9,8.6z M215.9,16c0.7,0,0.8-0.6,0.8-2.9s-0.1-2.9-0.8-2.9c-0.7,0-0.8,0.6-0.8,2.9S215.2,16,215.9,16z"/>
		<path class="st1" d="M219.7,8.8h3.5c1.7,0,2.3,1,2.3,2.3c0,1.1-0.4,1.9-1.5,2v0c1.1,0.1,1.4,0.8,1.4,1.9v0.7c0,0.4,0,1,0.1,1.2
			c0.1,0.1,0.1,0.2,0.3,0.3v0.1h-2.4c-0.2-0.5-0.2-1.3-0.2-1.6v-0.6c0-1-0.2-1.2-0.7-1.2h-0.6v3.4h-2.2V8.8z M221.9,12.4h0.4
			c0.6,0,0.9-0.4,0.9-1c0-0.7-0.3-1-0.9-1h-0.4V12.4z"/>
		<path class="st1" d="M226.5,8.8h3.2l0.9,5.1h0l0.9-5.1h3.2v8.6h-2.1V11h0l-1.2,6.4h-1.6l-1.2-6.4h0v6.4h-2.1V8.8z"/>
		<path class="st1" d="M237.1,8.8h2.8l2.1,8.6h-2.4l-0.2-1.5h-1.8l-0.2,1.5H235L237.1,8.8z M238.5,10.5L238.5,10.5l-0.6,3.6h1.2
			L238.5,10.5z"/>
		<path class="st1" d="M245.7,11.4c0-1-0.2-1.3-0.6-1.3c-0.7,0-0.8,0.6-0.8,2.9s0.1,2.9,0.8,2.9c0.6,0,0.7-0.5,0.7-2.1h2.2v0.6
			c0,2.4-1.4,3-2.8,3c-2.5,0-3.1-1.3-3.1-4.4c0-3.3,0.7-4.4,3.1-4.4c2,0,2.8,1.1,2.8,2.7v0.5h-2.2V11.4z"/>
		<path class="st1" d="M248.7,8.8h2.2v8.6h-2.2V8.8z"/>
		<path class="st1" d="M254.7,8.6c2.3,0,3.1,1.2,3.1,4.4c0,3.2-0.8,4.4-3.1,4.4s-3.1-1.2-3.1-4.4C251.6,9.9,252.4,8.6,254.7,8.6z
			 M254.3,6.5h2l-1.1,1.7h-1.4L254.3,6.5z M254.7,16c0.7,0,0.8-0.6,0.8-2.9s-0.1-2.9-0.8-2.9s-0.8,0.6-0.8,2.9S254,16,254.7,16z"/>
		<path class="st1" d="M258.5,8.8h2.5l1.4,5.3h0V8.8h2.1v8.6h-2.4l-1.5-5.3h0v5.3h-2.1V8.8z"/>
		<path class="st1" d="M272.5,10.7h-1.7V8.8h5.6v1.9h-1.7v6.7h-2.2V10.7z"/>
		<path class="st1" d="M276.9,8.8h5.1v1.8h-2.8v1.5h2.7v1.7h-2.7v1.7h2.9v1.8h-5.2V8.8z M279.1,6.5h2l-1.2,1.7h-1.4L279.1,6.5z"/>
		<path class="st1" d="M286.3,11.4c0-1-0.2-1.3-0.6-1.3c-0.7,0-0.8,0.6-0.8,2.9s0.1,2.9,0.8,2.9c0.6,0,0.7-0.5,0.7-2.1h2.2v0.6
			c0,2.4-1.4,3-2.8,3c-2.5,0-3.1-1.3-3.1-4.4c0-3.3,0.7-4.4,3.1-4.4c2,0,2.8,1.1,2.8,2.7v0.5h-2.2V11.4z"/>
		<path class="st1" d="M289.4,8.8h2.5l1.4,5.3h0V8.8h2.1v8.6H293l-1.5-5.3h0v5.3h-2.1V8.8z"/>
		<path class="st1" d="M296.4,8.8h2.2v8.6h-2.2V8.8z"/>
		<path class="st1" d="M303,11.4c0-1-0.2-1.3-0.6-1.3c-0.7,0-0.8,0.6-0.8,2.9s0.1,2.9,0.8,2.9c0.6,0,0.7-0.5,0.7-2.1h2.2v0.6
			c0,2.4-1.4,3-2.8,3c-2.5,0-3.1-1.3-3.1-4.4c0-3.3,0.7-4.4,3.1-4.4c2,0,2.8,1.1,2.8,2.7v0.5H303V11.4z"/>
		<path class="st1" d="M307.4,8.8h2.8l2.1,8.6h-2.4l-0.2-1.5h-1.8l-0.2,1.5h-2.4L307.4,8.8z M308.8,10.5L308.8,10.5l-0.6,3.6h1.2
			L308.8,10.5z"/>
	</g>
	<g>
		<path class="st2" d="M143,26.1h6.9l5.1,21.1h-5.8l-0.6-3.7h-4.4l-0.6,3.7h-5.8L143,26.1z M146.5,30.4L146.5,30.4l-1.6,8.9h3.1
			L146.5,30.4z"/>
		<path class="st2" d="M168.2,32.5c0-2.4-0.4-3.1-1.5-3.1c-1.7,0-1.9,1.5-1.9,7.2s0.2,7.2,1.9,7.2c1.4,0,1.7-1.2,1.7-5.2h5.3v1.6
			c0,5.9-3.4,7.3-7,7.3c-6.2,0-7.5-3.1-7.5-10.9c0-8,1.8-10.9,7.5-10.9c5,0,6.8,2.6,6.8,6.7v1.3h-5.3V32.5z"/>
		<path class="st2" d="M179.4,26.1h8.6c4.2,0,5.8,2.4,5.8,5.6c0,2.8-1.1,4.6-3.6,5v0.1c2.7,0.2,3.5,1.9,3.5,4.7v1.8
			c0,1.1,0,2.5,0.3,2.9c0.1,0.2,0.3,0.5,0.6,0.6v0.3h-5.8c-0.5-1.1-0.5-3.1-0.5-4v-1.4c0-2.4-0.5-3-1.8-3h-1.4v8.4h-5.5V26.1z
			 M184.9,35h1.1c1.6,0,2.3-1,2.3-2.5c0-1.7-0.7-2.4-2.3-2.4h-1.1V35z"/>
		<path class="st2" d="M200.2,26.1h12.5v4.5h-7v3.6h6.5v4.3h-6.5v4.2h7.3v4.5h-12.7V26.1z"/>
		<path class="st2" d="M218.7,26.1h8c6.3,0,6.7,5,6.7,10.5c0,5.5-0.3,10.5-6.7,10.5h-8V26.1z M224.2,43.2h1.1c2.1,0,2.4-0.9,2.4-6.6
			s-0.3-6.6-2.4-6.6h-1.1V43.2z"/>
		<path class="st2" d="M239.3,26.1h5.5v21.1h-5.5V26.1z"/>
		<path class="st2" d="M253.7,30.7h-4.1v-4.7h13.7v4.7h-4.1v16.4h-5.5V30.7z"/>
		<path class="st2" d="M270.2,26.1h6.9l5.1,21.1h-5.8l-0.6-3.7h-4.4l-0.6,3.7h-5.8L270.2,26.1z M273.7,30.4L273.7,30.4l-1.6,8.9h3.1
			L273.7,30.4z"/>
		<path class="st2" d="M287,26.1h8c6.3,0,6.7,5,6.7,10.5c0,5.5-0.3,10.5-6.7,10.5h-8V26.1z M292.5,43.2h1.1c2.1,0,2.4-0.9,2.4-6.6
			s-0.3-6.6-2.4-6.6h-1.1V43.2z"/>
		<path class="st2" d="M314.6,25.6c5.6,0,7.5,3.1,7.5,10.9s-1.9,10.9-7.5,10.9s-7.5-3.1-7.5-10.9S309,25.6,314.6,25.6z M314.6,43.8
			c1.7,0,1.9-1.5,1.9-7.2s-0.2-7.2-1.9-7.2s-1.9,1.5-1.9,7.2S313,43.8,314.6,43.8z"/>
	</g>
	<g>
		<path class="st1" d="M128.5,58h2.3v3.8h-1.2l0-0.6h0c-0.2,0.6-0.9,0.7-1.5,0.7c-1.8,0-2-1.3-2-3.6c0-2.3,0.4-3.6,2.6-3.6
			c1.3,0,2.2,0.6,2.2,2.3h-1.7c0-0.3,0-0.6-0.1-0.8c-0.1-0.2-0.2-0.3-0.4-0.3c-0.6,0-0.6,0.5-0.6,2.4s0.1,2.4,0.6,2.4
			c0.4,0,0.6-0.2,0.6-1.5h-0.6V58z"/>
		<path class="st1" d="M133.9,59.5v0.7c0,0.6,0.2,0.7,0.5,0.7c0.3,0,0.5-0.2,0.5-0.9h1.6c0,0.6-0.2,1.1-0.5,1.5
			c-0.3,0.3-0.8,0.5-1.6,0.5c-1.7,0-2.2-0.8-2.2-2.7c0-2,0.7-2.8,2.2-2.8c1.4,0,2.1,0.6,2.1,2.5v0.5H133.9z M134.8,58.3
			c0-0.6-0.1-0.8-0.5-0.8c-0.4,0-0.5,0.3-0.5,0.8v0.2h1V58.3z"/>
		<path class="st1" d="M139.1,60.2c0,0.2,0,0.4,0.1,0.5c0.1,0.1,0.2,0.2,0.4,0.2c0.3,0,0.5-0.2,0.5-0.4c0-0.9-2.5-0.4-2.5-2.4
			c0-0.9,0.7-1.6,2.1-1.6c1.3,0,2,0.6,2,1.6h-1.5c0-0.4-0.2-0.6-0.5-0.6c-0.3,0-0.4,0.2-0.4,0.4c0,0.9,2.5,0.3,2.5,2.3
			c0,1-0.8,1.8-2.1,1.8c-1.5,0-2.1-0.6-2.1-1.8H139.1z"/>
		<path class="st1" d="M142.6,56.6h0.6V55h1.7v1.5h0.7v1.2H145v2.5c0,0.3,0.1,0.4,0.4,0.4h0.3v1.2c-0.3,0-0.7,0.1-0.9,0.1
			c-1.1,0-1.5-0.2-1.5-1.3v-2.8h-0.6V56.6z"/>
		<path class="st1" d="M146.8,54.9h1.7v1.3h-1.7V54.9z M146.8,56.6h1.7v5.2h-1.7V56.6z"/>
		<path class="st1" d="M152.1,61.9c-2,0-2.2-1.2-2.2-2.8c0-1.4,0.3-2.7,2.2-2.7c2,0,2.2,1.2,2.2,2.8
			C154.3,60.6,154.1,61.9,152.1,61.9z M151.8,54.7h1.6l-0.9,1.4h-1.1L151.8,54.7z M152.1,60.8c0.4,0,0.5-0.3,0.5-1.6
			c0-1.3-0.1-1.6-0.5-1.6c-0.4,0-0.5,0.3-0.5,1.6C151.6,60.5,151.7,60.8,152.1,60.8z"/>
		<path class="st1" d="M155.7,56.6h1.7v0.6h0c0.2-0.5,0.7-0.8,1.3-0.8c0.8,0,1.4,0.3,1.4,1.4v3.9h-1.7v-3.5c0-0.4-0.1-0.6-0.4-0.6
			s-0.4,0.2-0.4,0.6v3.5h-1.7V56.6z"/>
		<path class="st1" d="M164.7,54.9h1.8v6.9h-1.8V54.9z"/>
		<path class="st1" d="M168,56.6h1.7v0.6h0c0.2-0.5,0.7-0.8,1.3-0.8c0.8,0,1.4,0.3,1.4,1.4v3.9h-1.7v-3.5c0-0.4-0.1-0.6-0.4-0.6
			c-0.3,0-0.4,0.2-0.4,0.6v3.5H168V56.6z"/>
		<path class="st1" d="M175.2,60.2c0,0.2,0,0.4,0.1,0.5c0.1,0.1,0.2,0.2,0.4,0.2c0.3,0,0.5-0.2,0.5-0.4c0-0.9-2.5-0.4-2.5-2.4
			c0-0.9,0.7-1.6,2.1-1.6c1.3,0,2,0.6,2,1.6h-1.5c0-0.4-0.2-0.6-0.5-0.6c-0.3,0-0.4,0.2-0.4,0.4c0,0.9,2.5,0.3,2.5,2.3
			c0,1-0.8,1.8-2.1,1.8c-1.5,0-2.1-0.6-2.1-1.8H175.2z"/>
		<path class="st1" d="M178.7,56.6h0.6V55h1.7v1.5h0.7v1.2h-0.7v2.5c0,0.3,0.1,0.4,0.4,0.4h0.3v1.2c-0.3,0-0.7,0.1-0.9,0.1
			c-1.1,0-1.5-0.2-1.5-1.3v-2.8h-0.6V56.6z"/>
		<path class="st1" d="M182.9,54.9h1.7v1.3h-1.7V54.9z M182.9,56.6h1.7v5.2h-1.7V56.6z"/>
		<path class="st1" d="M185.8,56.6h0.6V55h1.7v1.5h0.7v1.2h-0.7v2.5c0,0.3,0.1,0.4,0.4,0.4h0.3v1.2c-0.3,0-0.7,0.1-0.9,0.1
			c-1.1,0-1.5-0.2-1.5-1.3v-2.8h-0.6V56.6z"/>
		<path class="st1" d="M190,56.6h1.7V60c0,0.4,0.1,0.6,0.4,0.6s0.4-0.2,0.4-0.6v-3.5h1.7v5.2h-1.7v-0.6h0c-0.2,0.5-0.7,0.8-1.3,0.8
			c-0.8,0-1.4-0.3-1.4-1.4V56.6z"/>
		<path class="st1" d="M198.4,58.6c0-0.4,0-0.7-0.1-0.8c-0.1-0.2-0.2-0.2-0.4-0.2c-0.4,0-0.5,0.3-0.5,1.6s0.1,1.6,0.5,1.6
			c0.3,0,0.5-0.2,0.5-0.9v-0.3h1.6c0,0.8-0.1,1.4-0.5,1.8c-0.3,0.4-0.9,0.6-1.6,0.6c-1.3,0-2.3-0.4-2.3-2.7c0-2.5,1-2.8,2.3-2.8
			c1.5,0,2,0.9,2,2.2H198.4z"/>
		<path class="st1" d="M201.2,54.9h1.7v1.3h-1.7V54.9z M201.2,56.6h1.7v5.2h-1.7V56.6z"/>
		<path class="st1" d="M206.6,61.9c-2,0-2.2-1.2-2.2-2.8c0-1.4,0.3-2.7,2.2-2.7c2,0,2.2,1.2,2.2,2.8
			C208.8,60.6,208.5,61.9,206.6,61.9z M206.6,60.8c0.4,0,0.5-0.3,0.5-1.6c0-1.3-0.1-1.6-0.5-1.6c-0.4,0-0.5,0.3-0.5,1.6
			C206.1,60.5,206.2,60.8,206.6,60.8z"/>
		<path class="st1" d="M210.1,56.6h1.7v0.6h0c0.2-0.5,0.7-0.8,1.3-0.8c0.8,0,1.4,0.3,1.4,1.4v3.9h-1.7v-3.5c0-0.4-0.1-0.6-0.4-0.6
			s-0.4,0.2-0.4,0.6v3.5h-1.7V56.6z"/>
		<path class="st1" d="M218.4,61.8c-0.1-0.2-0.1-0.4-0.1-0.6h0c-0.2,0.5-0.7,0.7-1.2,0.7c-1,0-1.5-0.6-1.5-1.5c0-1,0.3-1.4,1.5-1.7
			l0.7-0.2c0.4-0.1,0.5-0.3,0.5-0.6c0-0.3-0.1-0.5-0.4-0.5c-0.3,0-0.5,0.1-0.5,0.7h-1.5c0-1.5,1.2-1.8,2-1.8c1.2,0,2.1,0.3,2.1,1.7
			v2.6c0,0.5,0,0.9,0.2,1.1H218.4z M218.3,59.9v-0.6h0c-0.1,0.1-0.3,0.1-0.6,0.2c-0.3,0.1-0.4,0.3-0.4,0.7c0,0.3,0.2,0.6,0.4,0.6
			C218.2,60.8,218.3,60.5,218.3,59.9z"/>
		<path class="st1" d="M221.5,54.9h1.7v6.9h-1.7V54.9z"/>
	</g>
	<g>
		<path class="st1" d="M229.1,54.8h1.3l-2.2,7.2h-1.3L229.1,54.8z"/>
	</g>
	<g>
		<path class="st1" d="M233.3,54.9h2.6c2.1,0,2.2,1.6,2.2,3.5c0,1.8-0.1,3.5-2.2,3.5h-2.6V54.9z M235.1,60.5h0.4
			c0.7,0,0.8-0.3,0.8-2.2s-0.1-2.2-0.8-2.2h-0.4V60.5z"/>
		<path class="st1" d="M241.7,61.9c-2,0-2.2-1.2-2.2-2.8c0-1.4,0.3-2.7,2.2-2.7c2,0,2.2,1.2,2.2,2.8
			C243.9,60.6,243.6,61.9,241.7,61.9z M241.7,60.8c0.4,0,0.5-0.3,0.5-1.6c0-1.3-0.1-1.6-0.5-1.6c-0.4,0-0.5,0.3-0.5,1.6
			C241.2,60.5,241.3,60.8,241.7,60.8z"/>
		<path class="st1" d="M247.8,58.6c0-0.4,0-0.7-0.1-0.8c-0.1-0.2-0.2-0.2-0.4-0.2c-0.4,0-0.5,0.3-0.5,1.6s0.1,1.6,0.5,1.6
			c0.3,0,0.5-0.2,0.5-0.9v-0.3h1.6c0,0.8-0.1,1.4-0.5,1.8c-0.3,0.4-0.9,0.6-1.6,0.6c-1.3,0-2.3-0.4-2.3-2.7c0-2.5,1-2.8,2.3-2.8
			c1.5,0,2,0.9,2,2.2H247.8z"/>
		<path class="st1" d="M252.2,59.5v0.7c0,0.6,0.2,0.7,0.5,0.7c0.3,0,0.5-0.2,0.5-0.9h1.6c0,0.6-0.2,1.1-0.5,1.5
			c-0.3,0.3-0.8,0.5-1.6,0.5c-1.7,0-2.2-0.8-2.2-2.7c0-2,0.7-2.8,2.2-2.8c1.4,0,2.1,0.6,2.1,2.5v0.5H252.2z M253.2,58.3
			c0-0.6-0.1-0.8-0.5-0.8c-0.4,0-0.5,0.3-0.5,0.8v0.2h1V58.3z"/>
		<path class="st1" d="M256,56.6h1.7v0.6h0c0.2-0.5,0.7-0.8,1.3-0.8c0.8,0,1.4,0.3,1.4,1.4v3.9h-1.7v-3.5c0-0.4-0.1-0.6-0.4-0.6
			c-0.3,0-0.4,0.2-0.4,0.6v3.5H256V56.6z"/>
		<path class="st1" d="M264.5,58.6c0-0.4,0-0.7-0.1-0.8c-0.1-0.2-0.2-0.2-0.4-0.2c-0.4,0-0.5,0.3-0.5,1.6s0.1,1.6,0.5,1.6
			c0.3,0,0.5-0.2,0.5-0.9v-0.3h1.6c0,0.8-0.1,1.4-0.5,1.8c-0.3,0.4-0.9,0.6-1.6,0.6c-1.3,0-2.3-0.4-2.3-2.7c0-2.5,1-2.8,2.3-2.8
			c1.5,0,2,0.9,2,2.2H264.5z"/>
		<path class="st1" d="M267.3,54.9h1.7v1.3h-1.7V54.9z M267.3,56.6h1.7v5.2h-1.7V56.6z"/>
		<path class="st1" d="M273.1,61.8c-0.1-0.2-0.1-0.4-0.1-0.6h0c-0.2,0.5-0.7,0.7-1.2,0.7c-1,0-1.5-0.6-1.5-1.5c0-1,0.3-1.4,1.5-1.7
			l0.7-0.2c0.4-0.1,0.5-0.3,0.5-0.6c0-0.3-0.1-0.5-0.4-0.5c-0.3,0-0.5,0.1-0.5,0.7h-1.5c0-1.5,1.2-1.8,2-1.8c1.2,0,2.1,0.3,2.1,1.7
			v2.6c0,0.5,0,0.9,0.2,1.1H273.1z M273,59.9v-0.6h0c-0.1,0.1-0.3,0.1-0.6,0.2c-0.3,0.1-0.4,0.3-0.4,0.7c0,0.3,0.2,0.6,0.4,0.6
			C272.8,60.8,273,60.5,273,59.9z"/>
		<path class="st1" d="M282,54.9h1.7v6.9H282v-0.7h0c-0.2,0.6-0.6,0.9-1.2,0.9c-1.2,0-1.6-0.9-1.6-2.9c0-2,0.6-2.6,1.6-2.6
			c0.5,0,0.9,0.2,1.1,0.7h0V54.9z M281.5,60.6c0.4,0,0.5-0.3,0.5-1.5c0-1.1-0.1-1.5-0.5-1.5c-0.4,0-0.5,0.3-0.5,1.5
			C281,60.3,281.1,60.6,281.5,60.6z"/>
		<path class="st1" d="M286.8,59.5v0.7c0,0.6,0.2,0.7,0.5,0.7c0.3,0,0.5-0.2,0.5-0.9h1.6c0,0.6-0.2,1.1-0.5,1.5
			c-0.3,0.3-0.8,0.5-1.6,0.5c-1.7,0-2.2-0.8-2.2-2.7c0-2,0.7-2.8,2.2-2.8c1.4,0,2.1,0.6,2.1,2.5v0.5H286.8z M287.8,58.3
			c0-0.6-0.1-0.8-0.5-0.8c-0.4,0-0.5,0.3-0.5,0.8v0.2h1V58.3z"/>
		<path class="st1" d="M293.9,54.9h2.7c1.4,0,2,0.9,2,2.1c0,1.4-0.8,2.1-2.3,2.1h-0.6v2.6h-1.8V54.9z M295.7,57.9h0.3
			c0.5,0,0.7-0.3,0.7-0.8c0-0.6-0.2-0.8-0.7-0.8h-0.3V57.9z"/>
		<path class="st1" d="M299.9,56.6h1.7v0.8h0c0.2-0.6,0.7-1,1.2-1h0.3v1.6c-0.2,0-0.3,0-0.4,0c-0.6,0-1,0.2-1,0.9v2.9h-1.7V56.6z"/>
		<path class="st1" d="M305.7,59.5v0.7c0,0.6,0.2,0.7,0.5,0.7c0.3,0,0.5-0.2,0.5-0.9h1.6c0,0.6-0.2,1.1-0.5,1.5
			c-0.3,0.3-0.8,0.5-1.6,0.5c-1.7,0-2.2-0.8-2.2-2.7c0-2,0.7-2.8,2.2-2.8c1.4,0,2.1,0.6,2.1,2.5v0.5H305.7z M306.6,58.3
			c0-0.6-0.1-0.8-0.5-0.8c-0.4,0-0.5,0.3-0.5,0.8v0.2h1V58.3z"/>
		<path class="st1" d="M312.2,56.6h1.6v5.1c0,1.4-1,1.9-2.2,1.9c-1.1,0-2-0.3-2-1.5h1.6c0,0.3,0.2,0.4,0.4,0.4
			c0.3,0,0.5-0.1,0.5-0.6v-1h0c-0.2,0.6-0.7,0.8-1.2,0.8c-0.7,0-1.5-0.4-1.5-2.6c0-2,0.6-2.6,1.6-2.6c0.5,0,1,0.2,1.2,0.9h0V56.6z
			 M311.7,60.4c0.3,0,0.5-0.2,0.5-1.3c0-1.1-0.2-1.3-0.5-1.3c-0.3,0-0.5,0.2-0.5,1.3C311.1,60.1,311.3,60.4,311.7,60.4z"/>
		<path class="st1" d="M315.3,56.6h1.7v0.8h0c0.2-0.6,0.7-1,1.2-1h0.3v1.6c-0.2,0-0.3,0-0.4,0c-0.6,0-1,0.2-1,0.9v2.9h-1.7V56.6z"/>
		<path class="st1" d="M322,61.8c-0.1-0.2-0.1-0.4-0.1-0.6h0c-0.2,0.5-0.7,0.7-1.2,0.7c-1,0-1.5-0.6-1.5-1.5c0-1,0.3-1.4,1.5-1.7
			l0.7-0.2c0.4-0.1,0.5-0.3,0.5-0.6c0-0.3-0.1-0.5-0.4-0.5c-0.3,0-0.5,0.1-0.5,0.7h-1.5c0-1.5,1.2-1.8,2-1.8c1.2,0,2.1,0.3,2.1,1.7
			v2.6c0,0.5,0,0.9,0.2,1.1H322z M321.9,59.9v-0.6h0c-0.1,0.1-0.3,0.1-0.6,0.2c-0.3,0.1-0.4,0.3-0.4,0.7c0,0.3,0.2,0.6,0.4,0.6
			C321.8,60.8,321.9,60.5,321.9,59.9z"/>
		<path class="st1" d="M327.7,54.9h1.7v6.9h-1.7v-0.7h0c-0.2,0.6-0.6,0.9-1.2,0.9c-1.2,0-1.6-0.9-1.6-2.9c0-2,0.6-2.6,1.6-2.6
			c0.5,0,0.9,0.2,1.1,0.7h0V54.9z M327.2,60.6c0.4,0,0.5-0.3,0.5-1.5c0-1.1-0.1-1.5-0.5-1.5c-0.4,0-0.5,0.3-0.5,1.5
			C326.7,60.3,326.8,60.6,327.2,60.6z"/>
		<path class="st1" d="M333,61.9c-2,0-2.2-1.2-2.2-2.8c0-1.4,0.3-2.7,2.2-2.7c2,0,2.2,1.2,2.2,2.8C335.2,60.6,334.9,61.9,333,61.9z
			 M333,60.8c0.4,0,0.5-0.3,0.5-1.6c0-1.3-0.1-1.6-0.5-1.6c-0.4,0-0.5,0.3-0.5,1.6C332.5,60.5,332.6,60.8,333,60.8z"/>
	</g>
	<g>
		<path class="st1" d="M136.7,71.4c0,0.6,0.1,1.1,0.6,1.1c0.4,0,0.6-0.2,0.6-1c0-0.9-0.2-1.1-0.9-1.1h-0.4v-1h0.4
			c0.5,0,0.7-0.4,0.7-1c0-0.5-0.2-0.8-0.5-0.8c-0.4,0-0.6,0.2-0.6,1h-1.5c0-0.7,0.2-1.2,0.5-1.5c0.4-0.3,0.9-0.5,1.7-0.5
			c1.3,0,2,0.6,2,1.9c0,0.7-0.3,1.2-1,1.4v0c0.8,0.2,1.1,0.7,1.1,1.6c0,1.5-1,2.1-2.2,2.1c-1.4,0-2.3-0.4-2.3-2.1H136.7z"/>
		<path class="st1" d="M144.2,66.5h2l1.7,6.9h-1.7l-0.3-1.3h-1.7l-0.2,1.3h-1.7L144.2,66.5z M145.1,67.8L145.1,67.8l-0.6,3.1h1.2
			L145.1,67.8z"/>
		<path class="st1" d="M148.4,66.5h1.9l1.3,4.5h0v-4.5h1.5v6.9h-1.8l-1.4-4.8h0v4.8h-1.5V66.5z M152.4,64.7c0,0.6-0.3,1.3-1,1.3
			c-0.5,0-0.9-0.3-1.1-0.3c-0.2,0-0.3,0.2-0.3,0.3h-0.7c0-0.3,0.1-0.7,0.3-0.9c0.2-0.2,0.4-0.4,0.6-0.4c0.3,0,0.5,0.1,0.7,0.1
			c0.2,0.1,0.3,0.1,0.5,0.1c0.2,0,0.3-0.2,0.3-0.3H152.4z"/>
		<path class="st1" d="M156.4,73.5c-2.1,0-2.4-1.4-2.4-3.6c0-2.2,0.3-3.6,2.4-3.6c2.3,0,2.4,1.7,2.4,3.6
			C158.9,71.9,158.7,73.5,156.4,73.5z M156.4,72.5c0.7,0,0.8-0.6,0.8-2.5c0-1.9-0.1-2.5-0.8-2.5c-0.6,0-0.7,0.6-0.7,2.5
			C155.7,71.9,155.8,72.5,156.4,72.5z"/>
		<path class="st1" d="M161.1,71.3v0.2c0,0.5,0.1,0.9,0.7,0.9c0.6,0,0.7-0.4,0.7-0.8c0-1.5-3-0.7-3-3.2c0-1.1,0.6-2,2.3-2
			c1.6,0,2.2,0.8,2.2,1.9v0.2h-1.6c0-0.3,0-0.6-0.1-0.7c-0.1-0.2-0.3-0.2-0.5-0.2c-0.4,0-0.6,0.2-0.6,0.7c0,1.4,3,0.7,3,3.2
			c0,1.6-0.9,2.2-2.4,2.2c-1.2,0-2.3-0.4-2.3-1.8v-0.4H161.1z"/>
		<path class="st1" d="M169.1,66.4h1.3l-2.2,7.2h-1.3L169.1,66.4z"/>
		<path class="st1" d="M173.4,66.5h2.4c1.6,0,2.3,0.8,2.3,3.2c0,2.5-0.3,3.7-2.5,3.7h-2.2V66.5z M175,72.2h0.4c0.8,0,1-0.3,1-2.4
			c0-1.7-0.1-2.1-1-2.1H175V72.2z"/>
		<path class="st1" d="M180.2,71.1v0.3c0,0.8,0.1,1.2,0.6,1.2c0.4,0,0.5-0.3,0.6-1h1.5c0,1.3-0.7,1.9-2,1.9c-2,0-2.1-1.4-2.1-2.9
			c0-1.5,0.4-2.6,2.1-2.6c1.9,0,2.1,1.2,2.1,3H180.2z M181.4,70.1c0-0.7-0.1-1.1-0.5-1.1c-0.5,0-0.6,0.4-0.6,1.1H181.4z"/>
		<path class="st1" d="M184.7,71.7c0,0.2,0,0.4,0.1,0.6c0.1,0.1,0.2,0.2,0.5,0.2c0.4,0,0.6-0.2,0.6-0.5c0-0.2-0.1-0.5-0.6-0.6
			c-1.3-0.4-1.9-0.7-1.9-1.8c0-1,0.7-1.6,2-1.6c1.5,0,1.9,0.7,1.9,1.5v0.2h-1.4v-0.1c0-0.5-0.2-0.6-0.5-0.6c-0.4,0-0.5,0.2-0.5,0.5
			c0,0.9,2.5,0.3,2.5,2.3c0,1.1-0.7,1.7-2,1.7c-1.4,0-2-0.5-2-1.6v-0.2H184.7z"/>
		<path class="st1" d="M190.6,72.8L190.6,72.8c-0.1,0.4-0.5,0.8-1.2,0.8c-1.1,0-1.6-0.8-1.6-2.7c0-1.6,0.2-2.8,1.5-2.8
			c0.4,0,0.9,0.1,1.2,0.7h0v-2.2h1.6v6.9h-1.5V72.8z M190,69.2c-0.6,0-0.6,0.6-0.6,1.6c0,0.8,0,1.6,0.6,1.6c0.5,0,0.6-0.6,0.6-1.6
			C190.6,69.9,190.5,69.2,190,69.2z"/>
		<path class="st1" d="M194.4,71.1v0.3c0,0.8,0.1,1.2,0.6,1.2c0.4,0,0.5-0.3,0.6-1h1.5c0,1.3-0.7,1.9-2,1.9c-2,0-2.1-1.4-2.1-2.9
			c0-1.5,0.4-2.6,2.1-2.6c1.9,0,2.1,1.2,2.1,3H194.4z M195.5,70.1c0-0.7-0.1-1.1-0.5-1.1c-0.5,0-0.6,0.4-0.6,1.1H195.5z"/>
		<path class="st1" d="M200.2,66.5h2.4c1.6,0,2.3,0.8,2.3,3.2c0,2.5-0.3,3.7-2.5,3.7h-2.2V66.5z M201.9,72.2h0.4c0.8,0,1-0.3,1-2.4
			c0-1.7-0.1-2.1-1-2.1h-0.5V72.2z"/>
		<path class="st1" d="M205.8,66.4h1.6v1.2h-1.6V66.4z M205.8,68.2h1.6v5.2h-1.6V68.2z"/>
		<path class="st1" d="M210.8,70.2c0-0.8-0.2-1.1-0.6-1.1c-0.5,0-0.6,0.7-0.6,1.7c0,1.2,0.1,1.7,0.6,1.7c0.5,0,0.6-0.3,0.6-1.2h1.5
			c0,1.6-0.6,2.3-2.1,2.3c-2,0-2.1-1.4-2.1-2.9c0-1.5,0.4-2.6,2.1-2.6c1.6,0,2.1,0.9,2.1,2.1H210.8z"/>
		<path class="st1" d="M213,71.7h1.5v1.7H213V71.7z"/>
		<path class="st1" d="M220.2,72.8L220.2,72.8c-0.1,0.4-0.5,0.8-1.2,0.8c-1.1,0-1.6-0.8-1.6-2.7c0-1.6,0.2-2.8,1.5-2.8
			c0.4,0,0.9,0.1,1.2,0.7h0v-2.2h1.6v6.9h-1.5V72.8z M219.6,69.2c-0.6,0-0.6,0.6-0.6,1.6c0,0.8,0,1.6,0.6,1.6c0.5,0,0.6-0.6,0.6-1.6
			C220.2,69.9,220.1,69.2,219.6,69.2z"/>
		<path class="st1" d="M224,71.1v0.3c0,0.8,0.1,1.2,0.6,1.2c0.4,0,0.5-0.3,0.6-1h1.5c0,1.3-0.7,1.9-2,1.9c-2,0-2.1-1.4-2.1-2.9
			c0-1.5,0.4-2.6,2.1-2.6c1.9,0,2.1,1.2,2.1,3H224z M225.1,70.1c0-0.7-0.1-1.1-0.5-1.1c-0.5,0-0.6,0.4-0.6,1.1H225.1z"/>
		<path class="st1" d="M229.7,68.8v-0.2c0-1.4,0.7-2.1,2.2-2.1c1.7,0,2.1,0.8,2.1,1.9c0,1-0.2,1.4-1.1,2.2c-0.7,0.6-1.2,1.1-1.3,1.5
			h2.4v1.3h-4.4c0-1.6,1-2.6,1.5-3.1c1.2-1,1.2-1.3,1.2-1.8c0-0.5-0.1-0.9-0.6-0.9c-0.6,0-0.6,0.7-0.6,1.3H229.7z"/>
		<path class="st1" d="M236.9,73.5c-2.1,0-2.3-1.3-2.3-3.5c0-2,0.2-3.5,2.3-3.5c2.1,0,2.3,1.3,2.3,3.5
			C239.1,72,238.9,73.5,236.9,73.5z M236.9,72.5c0.6,0,0.6-0.5,0.6-2.5c0-2-0.1-2.5-0.6-2.5c-0.6,0-0.6,0.5-0.6,2.5
			C236.2,72,236.3,72.5,236.9,72.5z"/>
		<path class="st1" d="M241.3,68.7H240v-1h0.2c1.2,0,1.5-0.6,1.6-1.1h1.1v6.8h-1.6V68.7z"/>
		<path class="st1" d="M247.5,68.3c0-0.2,0-0.4-0.1-0.5c-0.1-0.1-0.2-0.2-0.4-0.2c-0.5,0-0.7,0.4-0.7,1.9h0c0.2-0.4,0.6-0.6,1.2-0.6
			c1,0,1.6,0.6,1.6,2.1c0,1.4-0.4,2.5-2.2,2.5c-2,0-2.3-1.3-2.3-3.3c0-2.3,0.2-3.6,2.4-3.6c1.2,0,2,0.5,2,1.8H247.5z M247.5,71.3
			c0-0.8-0.1-1.2-0.6-1.2c-0.5,0-0.6,0.5-0.6,1.1c0,0.8,0.1,1.3,0.6,1.3C247.4,72.5,247.5,72.1,247.5,71.3z"/>
		<path class="st1" d="M252.4,66.5h1.6v2.2h0c0.3-0.5,0.7-0.7,1.2-0.7c0.9,0,1.4,0.4,1.4,1.5v3.9H255v-3.6c0-0.4-0.2-0.6-0.5-0.6
			c-0.3,0-0.6,0.2-0.6,0.7v3.4h-1.6V66.5z"/>
		<path class="st1" d="M257.4,69.8c0-0.7,0.2-1.2,0.6-1.4c0.4-0.3,0.8-0.3,1.5-0.3c1.3,0,1.9,0.4,1.9,1.5v2.7c0,0.4,0,0.9,0.2,1.1
			H260c-0.1-0.2-0.1-0.4-0.1-0.6h0c-0.2,0.5-0.7,0.7-1.2,0.7c-0.9,0-1.4-0.5-1.4-1.6c0-0.6,0.3-1.1,0.6-1.3c0.4-0.2,1-0.3,1.4-0.4
			c0.5-0.1,0.6-0.2,0.6-0.6c0-0.3-0.1-0.5-0.5-0.5c-0.4,0-0.6,0.3-0.6,0.7H257.4z M259.2,72.5c0.3,0,0.6-0.2,0.6-0.7
			c0-0.4,0-0.7,0-0.9c-0.5,0.3-0.7,0.3-0.9,0.4c-0.2,0.1-0.2,0.3-0.2,0.6C258.7,72.2,258.9,72.5,259.2,72.5z"/>
		<path class="st1" d="M263.4,71.7c0,0.2,0,0.4,0.1,0.6c0.1,0.1,0.2,0.2,0.5,0.2c0.4,0,0.6-0.2,0.6-0.5c0-0.2-0.1-0.5-0.6-0.6
			c-1.3-0.4-1.9-0.7-1.9-1.8c0-1,0.7-1.6,2-1.6c1.5,0,1.9,0.7,1.9,1.5v0.2h-1.4v-0.1c0-0.5-0.2-0.6-0.5-0.6c-0.4,0-0.5,0.2-0.5,0.5
			c0,0.9,2.5,0.3,2.5,2.3c0,1.1-0.7,1.7-2,1.7c-1.4,0-2-0.5-2-1.6v-0.2H263.4z"/>
		<path class="st1" d="M266.9,69.3h-0.6v-1.1h0.6v-1.5h1.6v1.5h0.7v1.1h-0.7v2.6c0,0.4,0.1,0.5,0.5,0.5c0.1,0,0.2,0,0.2,0v1
			c-0.3,0-0.6,0.1-0.9,0.1c-1.1,0-1.4-0.2-1.4-1.4V69.3z"/>
		<path class="st1" d="M269.7,69.8c0-0.7,0.2-1.2,0.6-1.4c0.4-0.3,0.8-0.3,1.5-0.3c1.3,0,1.9,0.4,1.9,1.5v2.7c0,0.4,0,0.9,0.2,1.1
			h-1.5c-0.1-0.2-0.1-0.4-0.1-0.6h0c-0.2,0.5-0.7,0.7-1.2,0.7c-0.9,0-1.4-0.5-1.4-1.6c0-0.6,0.3-1.1,0.6-1.3c0.4-0.2,1-0.3,1.4-0.4
			c0.5-0.1,0.6-0.2,0.6-0.6c0-0.3-0.1-0.5-0.5-0.5c-0.4,0-0.6,0.3-0.6,0.7H269.7z M271.6,72.5c0.3,0,0.6-0.2,0.6-0.7
			c0-0.4,0-0.7,0-0.9c-0.5,0.3-0.7,0.3-0.9,0.4c-0.2,0.1-0.2,0.3-0.2,0.6C271.1,72.2,271.3,72.5,271.6,72.5z"/>
		<path class="st1" d="M277.2,66.5h2.4c1.6,0,2.3,0.8,2.3,3.2c0,2.5-0.3,3.7-2.5,3.7h-2.2V66.5z M278.8,72.2h0.4c0.8,0,1-0.3,1-2.4
			c0-1.7-0.1-2.1-1-2.1h-0.5V72.2z"/>
		<path class="st1" d="M282.7,66.4h1.6v1.2h-1.6V66.4z M282.7,68.2h1.6v5.2h-1.6V68.2z"/>
		<path class="st1" d="M287.8,70.2c0-0.8-0.2-1.1-0.6-1.1c-0.5,0-0.6,0.7-0.6,1.7c0,1.2,0.1,1.7,0.6,1.7c0.5,0,0.6-0.3,0.6-1.2h1.5
			c0,1.6-0.6,2.3-2.1,2.3c-2,0-2.1-1.4-2.1-2.9c0-1.5,0.4-2.6,2.1-2.6c1.6,0,2.1,0.9,2.1,2.1H287.8z"/>
		<path class="st1" d="M289.9,71.7h1.5v1.7h-1.5V71.7z"/>
		<path class="st1" d="M297.2,72.8L297.2,72.8c-0.1,0.4-0.5,0.8-1.2,0.8c-1.1,0-1.6-0.8-1.6-2.7c0-1.6,0.2-2.8,1.5-2.8
			c0.4,0,0.9,0.1,1.2,0.7h0v-2.2h1.6v6.9h-1.5V72.8z M296.6,69.2c-0.6,0-0.6,0.6-0.6,1.6c0,0.8,0,1.6,0.6,1.6c0.5,0,0.6-0.6,0.6-1.6
			C297.1,69.9,297.1,69.2,296.6,69.2z"/>
		<path class="st1" d="M300.9,71.1v0.3c0,0.8,0.1,1.2,0.6,1.2c0.4,0,0.5-0.3,0.6-1h1.5c0,1.3-0.7,1.9-2,1.9c-2,0-2.1-1.4-2.1-2.9
			c0-1.5,0.4-2.6,2.1-2.6c1.9,0,2.1,1.2,2.1,3H300.9z M302.1,70.1c0-0.7-0.1-1.1-0.5-1.1c-0.5,0-0.6,0.4-0.6,1.1H302.1z"/>
		<path class="st1" d="M306.6,68.8v-0.2c0-1.4,0.7-2.1,2.2-2.1c1.7,0,2.1,0.8,2.1,1.9c0,1-0.2,1.4-1.1,2.2c-0.7,0.6-1.2,1.1-1.3,1.5
			h2.4v1.3h-4.4c0-1.6,1-2.6,1.5-3.1c1.2-1,1.2-1.3,1.2-1.8c0-0.5-0.1-0.9-0.6-0.9c-0.6,0-0.6,0.7-0.6,1.3H306.6z"/>
		<path class="st1" d="M313.8,73.5c-2.1,0-2.3-1.3-2.3-3.5c0-2,0.2-3.5,2.3-3.5c2.1,0,2.3,1.3,2.3,3.5
			C316.1,72,315.9,73.5,313.8,73.5z M313.8,72.5c0.6,0,0.6-0.5,0.6-2.5c0-2-0.1-2.5-0.6-2.5c-0.6,0-0.6,0.5-0.6,2.5
			C313.2,72,313.3,72.5,313.8,72.5z"/>
		<path class="st1" d="M318.2,68.7h-1.3v-1h0.2c1.2,0,1.5-0.6,1.6-1.1h1.1v6.8h-1.6V68.7z"/>
		<path class="st1" d="M323.3,71.8c0,0.2,0,0.4,0.1,0.5c0.1,0.1,0.2,0.2,0.4,0.2c0.5,0,0.7-0.4,0.7-1.9h0c-0.2,0.4-0.6,0.6-1.2,0.6
			c-1,0-1.6-0.6-1.6-2.1c0-1.4,0.4-2.5,2.2-2.5c2,0,2.3,1.3,2.3,3.3c0,2.3-0.2,3.6-2.4,3.6c-1.2,0-2-0.5-2-1.7H323.3z M324.5,68.9
			c0-0.8-0.1-1.3-0.6-1.3c-0.5,0-0.6,0.4-0.6,1.2c0,0.8,0.1,1.2,0.6,1.2C324.4,70,324.5,69.5,324.5,68.9z"/>
	</g>
</g>
</svg>
