<?xml version="1.0" encoding="utf-8"?>
<!-- Generator: Adobe Illustrator 20.1.0, SVG Export Plug-In . SVG Version: 6.00 Build 0)  -->
<svg version="1.1" id="Capa_1" xmlns="http://www.w3.org/2000/svg" xmlns:xlink="http://www.w3.org/1999/xlink" x="0px" y="0px"
	 width="333.8px" height="80px" viewBox="0 0 333.8 80" style="enable-background:new 0 0 333.8 80;" xml:space="preserve">
<style type="text/css">
	.st0{fill:#003B30;}
	.st1{fill:#231F20;}
	.st2{fill:#00483A;}
</style>
<g>
	<path class="st0" d="M6.8,54.4c-0.2,0.1-0.4,0.2-0.6,0.2c-0.2,0.1-0.5,0.1-0.8,0.2C5.1,54.9,4.8,55,4.5,55c-0.7,0-1.3-0.1-1.8-0.3
		c-0.6-0.2-1-0.6-1.4-1s-0.7-1-0.9-1.6C0.1,51.3,0,50.6,0,49.8s0.1-1.6,0.3-2.2c0.2-0.6,0.6-1.2,1-1.6c0.4-0.5,0.9-0.8,1.5-1
		s1.2-0.3,1.9-0.3c0.5,0,1,0.1,1.5,0.2c0.4,0,0.8,0.1,1.2,0.3c-0.1,0.1-0.1,0.3-0.2,0.6c0,0.2-0.1,0.4-0.1,0.6H7
		c-0.1-0.1-0.2-0.3-0.3-0.4c-0.2-0.2-0.3-0.3-0.5-0.4c-0.2-0.1-0.4-0.3-0.7-0.3c-0.3-0.1-0.5-0.1-0.8-0.1c-0.5,0-0.9,0.1-1.4,0.3
		c-0.4,0.2-0.8,0.5-1.1,0.9s-0.6,0.9-0.7,1.5c-0.2,0.6-0.3,1.3-0.3,2.1s0.1,1.5,0.3,2.1s0.4,1.1,0.7,1.5s0.7,0.7,1.1,0.9
		s0.9,0.3,1.4,0.3c0.3,0,0.6,0,0.8-0.1C5.7,54.3,6,54.1,6.2,54s0.4-0.3,0.6-0.4c0.2-0.1,0.3-0.3,0.4-0.4l0.1,0.1l-0.1,0.9
		C7.1,54.3,6.9,54.3,6.8,54.4"/>
	<path class="st0" d="M8.5,49.6c0.2-0.5,0.4-0.8,0.7-1.1s0.6-0.5,1-0.6s0.7-0.2,1.1-0.2c0.4,0,0.7,0.1,1.1,0.2
		c0.3,0.1,0.7,0.3,1,0.6s0.5,0.7,0.7,1.1c0.2,0.5,0.3,1,0.3,1.7s-0.1,1.2-0.3,1.7s-0.4,0.8-0.7,1.1s-0.6,0.5-1,0.6s-0.7,0.2-1.1,0.2
		c-0.4,0-0.7-0.1-1.1-0.2c-0.4-0.1-0.7-0.3-1-0.6S8.7,53.4,8.5,53c-0.2-0.5-0.3-1-0.3-1.7C8.2,50.7,8.3,50.1,8.5,49.6 M9.4,52.5
		c0.1,0.4,0.2,0.7,0.3,1s0.3,0.5,0.6,0.7c0.2,0.2,0.6,0.3,0.9,0.3c0.4,0,0.7-0.1,0.9-0.3s0.4-0.4,0.6-0.7c0.1-0.3,0.3-0.6,0.3-1
		c0.1-0.4,0.1-0.8,0.1-1.2s0-0.8-0.1-1.2s-0.2-0.7-0.3-1c-0.2-0.3-0.3-0.5-0.6-0.7s-0.6-0.3-0.9-0.3c-0.4,0-0.7,0.1-0.9,0.3
		s-0.5,0.4-0.6,0.7c-0.2,0.3-0.3,0.6-0.3,1c-0.1,0.4-0.1,0.8-0.1,1.2C9.3,51.7,9.3,52.1,9.4,52.5"/>
	<path class="st0" d="M15.6,49.2c0-0.5,0-0.9-0.1-1.4c0.2,0,0.4,0.1,0.6,0.1c0.1,0,0.1,0,0.2,0s0.2,0,0.3-0.1c0,0.4,0,0.8,0,1.2l0,0
		c0.4-0.9,1.1-1.3,1.8-1.3c0.2,0,0.4,0,0.6,0.1s0.4,0.2,0.5,0.3c0.2,0.1,0.3,0.3,0.4,0.5s0.2,0.4,0.2,0.6l0,0
		c0.2-0.5,0.5-0.8,0.8-1.1c0.3-0.2,0.7-0.4,1.2-0.4c0.3,0,0.5,0,0.8,0.1c0.2,0.1,0.4,0.2,0.6,0.4s0.3,0.4,0.4,0.7S24,49.5,24,50
		c0,0.2,0,0.3,0,0.5s0,0.4,0,0.7s0,0.5,0,0.9c0,0.3,0,0.7,0,1.1c0,0.3,0,0.5,0,0.8c0,0.2,0,0.5,0,0.8c-0.1,0-0.2,0-0.3,0h-0.3h-0.3
		c-0.1,0-0.2,0-0.3,0c0-0.2,0.1-0.7,0.1-1.5c0-0.7,0-1.8,0-3.1c0-0.2,0-0.5-0.1-0.7c0-0.2-0.1-0.4-0.2-0.6c-0.1-0.2-0.2-0.3-0.4-0.4
		c-0.2-0.1-0.4-0.1-0.6-0.1c-0.3,0-0.5,0.1-0.8,0.2c-0.2,0.1-0.4,0.3-0.5,0.5c-0.1,0.1-0.1,0.2-0.2,0.3c0,0.1-0.1,0.3-0.1,0.5
		s0,0.5,0,0.9s0,0.9,0,1.6c0,0.4,0,0.8,0,1.1s0,0.7,0,1.1c-0.2,0-0.4,0-0.5,0c-0.2,0-0.3,0-0.5,0c0-0.5,0.1-1.1,0.1-1.6
		c0-0.6,0-1.1,0-1.6s0-0.8,0-1.1s0-0.5,0-0.6c0-0.2,0-0.3-0.1-0.4c0-0.1-0.1-0.2-0.1-0.3c-0.1-0.2-0.2-0.3-0.4-0.5
		c-0.2-0.1-0.4-0.2-0.6-0.2c-0.5,0-0.9,0.2-1.2,0.6c-0.3,0.4-0.4,1-0.4,1.8v1.2c0,0.4,0,0.9,0,1.4s0,0.9,0.1,1.3c-0.2,0-0.4,0-0.6,0
		c-0.2,0-0.4,0-0.6,0c0-0.4,0.1-0.8,0.1-1.3s0-0.9,0-1.4v-1.5C15.7,50.1,15.7,49.7,15.6,49.2"/>
	<path class="st0" d="M26.3,44.8c0.1-0.1,0.3-0.2,0.4-0.2c0.2,0,0.3,0.1,0.4,0.2c0.1,0.2,0.2,0.3,0.2,0.5s-0.1,0.4-0.2,0.5
		c0,0.2-0.1,0.2-0.3,0.2s-0.3-0.1-0.4-0.2c-0.1-0.2-0.2-0.3-0.2-0.5C26.1,45.1,26.2,44.9,26.3,44.8 M26.3,49.2c0-0.5,0-0.9-0.1-1.4
		c0.2,0,0.4,0.1,0.6,0.1c0.1,0,0.3,0,0.6-0.1c0,0.4-0.1,0.9-0.1,1.4s0,0.9,0,1.4v1.5c0,0.4,0,0.9,0,1.4s0,0.9,0.1,1.3
		c-0.2,0-0.4,0-0.6,0s-0.4,0-0.6,0c0-0.4,0.1-0.8,0.1-1.3s0-0.9,0-1.4v-1.5C26.3,50.1,26.3,49.7,26.3,49.2"/>
	<path class="st0" d="M29.6,53.7c0.1,0.1,0.2,0.2,0.3,0.3c0.1,0.1,0.3,0.2,0.4,0.3c0.2,0.1,0.3,0.1,0.5,0.1s0.3,0,0.5-0.1
		c0.1-0.1,0.3-0.1,0.4-0.2c0.1-0.1,0.2-0.2,0.3-0.4c0.1-0.2,0.1-0.4,0.1-0.6c0-0.3-0.1-0.5-0.2-0.7s-0.3-0.3-0.5-0.4
		c-0.2-0.1-0.5-0.2-0.7-0.3c-0.3-0.1-0.5-0.2-0.7-0.3s-0.4-0.3-0.5-0.6c-0.1-0.2-0.2-0.6-0.2-1c0-0.3,0-0.6,0.1-0.9
		c0.1-0.3,0.2-0.5,0.4-0.7c0.2-0.2,0.4-0.3,0.6-0.5c0.3-0.1,0.5-0.2,0.9-0.2c0.3,0,0.6,0,0.8,0.1c0.2,0.1,0.4,0.2,0.6,0.3
		c-0.1,0.2-0.1,0.3-0.2,0.5c-0.1,0.2-0.1,0.4-0.1,0.5h-0.2c-0.1-0.2-0.2-0.4-0.4-0.6c-0.2-0.2-0.4-0.3-0.7-0.3c-0.1,0-0.2,0-0.4,0.1
		c-0.1,0-0.2,0.1-0.3,0.2c-0.1,0.1-0.2,0.2-0.3,0.4C30,48.9,30,49,30,49.3s0.1,0.6,0.2,0.7c0.1,0.2,0.3,0.3,0.5,0.4
		c0.2,0.1,0.5,0.2,0.7,0.3c0.3,0.1,0.5,0.2,0.7,0.3c0.2,0.1,0.4,0.3,0.5,0.5s0.2,0.6,0.2,1c0,0.3-0.1,0.6-0.2,0.8
		c-0.1,0.3-0.3,0.5-0.5,0.7s-0.4,0.4-0.7,0.5c-0.3,0.1-0.6,0.2-0.9,0.2c-0.4,0-0.7,0-1-0.1s-0.5-0.2-0.6-0.3c0-0.1,0.1-0.3,0.2-0.5
		s0.1-0.4,0.1-0.5h0.2C29.4,53.5,29.5,53.6,29.6,53.7"/>
	<path class="st0" d="M34.6,44.8c0.1-0.1,0.3-0.2,0.5-0.2s0.3,0.1,0.4,0.2c0.1,0.2,0.2,0.3,0.2,0.5s-0.1,0.4-0.2,0.5
		C35.4,46,35.2,46,35.1,46c-0.2,0-0.3-0.1-0.5-0.2c-0.1-0.2-0.2-0.3-0.2-0.5C34.4,45.1,34.5,44.9,34.6,44.8 M34.6,49.2
		c0-0.5,0-0.9-0.1-1.4c0.2,0,0.4,0.1,0.6,0.1c0.1,0,0.3,0,0.6-0.1c0,0.4-0.1,0.9-0.1,1.4s0,0.9,0,1.4v1.5c0,0.4,0,0.9,0,1.4
		s0,0.9,0.1,1.3c-0.2,0-0.4,0-0.6,0c-0.2,0-0.4,0-0.6,0c0-0.4,0.1-0.8,0.1-1.3s0-0.9,0-1.4v-1.5C34.6,50.1,34.6,49.7,34.6,49.2"/>
	<path class="st0" d="M37.5,49.6c0.2-0.5,0.4-0.8,0.7-1.1s0.6-0.5,1-0.6s0.7-0.2,1.1-0.2c0.4,0,0.7,0.1,1.1,0.2
		c0.4,0.1,0.7,0.3,1,0.6s0.5,0.7,0.7,1.1c0.2,0.5,0.3,1,0.3,1.7s-0.1,1.2-0.3,1.7s-0.4,0.8-0.7,1.1s-0.6,0.5-1,0.6s-0.7,0.2-1.1,0.2
		c-0.4,0-0.7-0.1-1.1-0.2c-0.4-0.1-0.7-0.3-1-0.6s-0.5-0.7-0.7-1.1c-0.2-0.5-0.3-1-0.3-1.7C37.2,50.7,37.3,50.1,37.5,49.6
		 M38.4,52.5c0.1,0.4,0.2,0.7,0.3,1s0.4,0.5,0.6,0.7c0.2,0.2,0.6,0.3,0.9,0.3c0.4,0,0.7-0.1,0.9-0.3c0.3-0.2,0.4-0.4,0.6-0.7
		c0.1-0.3,0.3-0.6,0.3-1c0.1-0.4,0.1-0.8,0.1-1.2s0-0.8-0.1-1.2s-0.2-0.7-0.3-1s-0.3-0.5-0.6-0.7c-0.2-0.2-0.6-0.3-0.9-0.3
		c-0.4,0-0.7,0.1-0.9,0.3s-0.4,0.4-0.6,0.7c-0.2,0.3-0.3,0.6-0.3,1c-0.1,0.4-0.1,0.8-0.1,1.2C38.3,51.7,38.4,52.1,38.4,52.5
		 M41.8,44c0.1,0,0.2,0,0.3,0.1s0.1,0.2,0.1,0.3c0,0.2-0.1,0.3-0.2,0.4c-0.1,0.1-0.2,0.2-0.3,0.3l-1.8,1.4h-0.5l1.8-2.2
		C41.4,44.2,41.6,44,41.8,44"/>
	<path class="st0" d="M48.4,49c-0.2-0.4-0.6-0.6-1-0.6c-0.6,0-1,0.2-1.3,0.6c-0.3,0.4-0.4,1-0.4,1.8V52c0,0.4,0,0.9,0,1.4
		s0,0.9,0.1,1.3c-0.2,0-0.4,0-0.6,0c-0.2,0-0.4,0-0.6,0c0-0.4,0.1-0.8,0.1-1.3s0-0.9,0-1.4v-1.5c0-0.4,0-0.9,0-1.4s0-0.9-0.1-1.4
		c0.2,0,0.4,0.1,0.6,0.1c0.1,0,0.1,0,0.2,0c0.1,0,0.2,0,0.3-0.1c0,0.4,0,0.8,0,1.2l0,0c0.2-0.4,0.5-0.7,0.8-1
		c0.3-0.2,0.7-0.3,1.2-0.3c0.2,0,0.5,0,0.7,0.1s0.5,0.2,0.6,0.4c0.2,0.2,0.3,0.4,0.5,0.8c0.1,0.3,0.2,0.7,0.2,1.3c0,0.4,0,0.9,0,1.3
		c0,0.4,0,0.9,0,1.4v1c0,0.2,0,0.3,0,0.5s0,0.3,0,0.4c-0.2,0-0.3,0-0.5,0s-0.3,0-0.5,0c0-0.5,0-1,0.1-1.6c0-0.5,0-1.1,0-1.7v-0.9
		C48.7,49.9,48.6,49.4,48.4,49"/>
	<path class="st0" d="M59.3,51c-1.1-1.4-2.2-2.7-3.2-4.1c0,0.3,0,0.6,0,1.1s0,1.1,0,1.9c0,0.2,0,0.5,0,0.8s0,0.6,0,1
		c0,0.3,0,0.7,0,1s0,0.7,0,1s0,0.5,0,0.8c0,0.2,0,0.4,0,0.4c-0.1,0-0.3,0-0.4,0c-0.2,0-0.3,0-0.5,0c0-0.1,0-0.3,0.1-0.5
		c0-0.3,0-0.6,0.1-0.9c0-0.4,0-0.8,0.1-1.2c0-0.4,0-0.9,0.1-1.3c0-0.4,0-0.8,0-1.3c0-0.4,0-0.8,0-1.1c0-0.9,0-1.7,0-2.4s0-1.2,0-1.5
		h0.2c0.5,0.6,1,1.3,1.6,2.1c0.6,0.7,1.1,1.5,1.7,2.2c0.6,0.7,1.1,1.4,1.6,2s1,1.2,1.3,1.6v-2c0-1,0-2,0-3s0-1.9-0.1-2.7
		c0.2,0.1,0.3,0.1,0.4,0.1c0.1,0,0.2,0,0.4-0.1c0,0.2,0,0.5-0.1,1c0,0.4,0,0.9-0.1,1.4c0,0.5,0,1-0.1,1.4c0,0.5,0,0.8,0,1.1v0.9
		c0,0.3,0,0.7,0,1c0,0.4,0,0.7,0,1.1c0,0.4,0,0.7,0,1s0,0.6,0,0.8V55h-0.2C61.4,53.7,60.3,52.3,59.3,51"/>
	<path class="st0" d="M65.9,47.9c0.3-0.1,0.6-0.2,1-0.2c0.3,0,0.6,0.1,0.8,0.2c0.3,0.1,0.5,0.2,0.6,0.4c0.2,0.2,0.3,0.4,0.4,0.7
		s0.1,0.6,0.1,0.9c0,0.6,0,1.1,0,1.7c0,0.5,0,1.1,0,1.7c0,0.1,0,0.2,0,0.4c0,0.1,0,0.2,0.1,0.4c0,0.1,0.1,0.2,0.1,0.3
		c0.1,0.1,0.2,0.1,0.3,0.1h0.1c0,0,0.1,0,0.1-0.1v0.3c-0.1,0-0.2,0.1-0.3,0.1c-0.1,0-0.3,0-0.5,0c-0.3,0-0.5-0.1-0.6-0.2
		c-0.1-0.2-0.2-0.4-0.3-0.6c-0.3,0.4-0.6,0.6-0.9,0.8S66.3,55,65.8,55c-0.2,0-0.4,0-0.6-0.1s-0.4-0.2-0.5-0.3
		c-0.2-0.2-0.3-0.3-0.4-0.6c-0.1-0.2-0.1-0.5-0.1-0.7c0-0.6,0.2-1,0.5-1.4c0.3-0.3,0.7-0.5,1.3-0.6c0.4-0.1,0.8-0.2,1-0.2
		c0.2-0.1,0.4-0.1,0.6-0.2c0.1-0.1,0.2-0.2,0.2-0.2c0-0.1,0-0.2,0-0.4s0-0.5-0.1-0.7c0-0.2-0.1-0.4-0.2-0.6
		c-0.1-0.2-0.3-0.3-0.4-0.4c-0.2-0.1-0.4-0.2-0.6-0.2c-0.3,0-0.6,0.1-0.9,0.3s-0.5,0.4-0.6,0.7h-0.1v-0.8
		C65.2,48.2,65.5,48,65.9,47.9 M67.4,51.3c-0.2,0-0.4,0.1-0.6,0.1s-0.4,0.1-0.6,0.2c-0.2,0.1-0.4,0.2-0.5,0.3s-0.3,0.3-0.3,0.4
		c-0.1,0.2-0.1,0.4-0.1,0.7c0,0.5,0.1,0.8,0.3,1c0.2,0.2,0.5,0.3,0.7,0.3c0.3,0,0.6-0.1,0.9-0.3s0.5-0.4,0.6-0.7l0.1-2.2
		C67.8,51.2,67.6,51.2,67.4,51.3"/>
	<path class="st0" d="M70.8,49.7c0.2-0.5,0.4-0.8,0.7-1.1c0.3-0.3,0.6-0.5,1-0.7c0.4-0.1,0.8-0.2,1.2-0.2c0.5,0,0.9,0.1,1.2,0.2
		c0.4,0.1,0.6,0.3,0.8,0.4c-0.1,0.1-0.1,0.3-0.2,0.5c0,0.2-0.1,0.3-0.1,0.5h-0.1c-0.1-0.1-0.1-0.3-0.2-0.4c-0.1-0.1-0.2-0.3-0.4-0.4
		c-0.1-0.1-0.3-0.2-0.5-0.3s-0.3-0.1-0.5-0.1c-0.4,0-0.7,0.1-1,0.2c-0.3,0.2-0.5,0.4-0.7,0.7s-0.3,0.6-0.4,1s-0.1,0.8-0.1,1.3
		c0,1,0.2,1.8,0.5,2.3c0.4,0.5,0.9,0.8,1.6,0.8c0.2,0,0.3,0,0.5-0.1s0.3-0.1,0.5-0.2c0.2-0.1,0.3-0.2,0.5-0.3
		c0.1-0.1,0.3-0.3,0.4-0.4h0.1c0,0.2-0.1,0.5-0.1,0.7c-0.3,0.2-0.6,0.4-0.9,0.6c-0.4,0.2-0.8,0.2-1.1,0.2c-0.4,0-0.7-0.1-1.1-0.2
		c-0.4-0.1-0.7-0.3-1-0.6s-0.5-0.7-0.7-1.1c-0.2-0.5-0.3-1-0.3-1.7C70.5,50.7,70.6,50.1,70.8,49.7"/>
	<path class="st0" d="M77.5,44.8c0.1-0.1,0.3-0.2,0.4-0.2c0.2,0,0.3,0.1,0.4,0.2c0.1,0.2,0.2,0.3,0.2,0.5s-0.1,0.4-0.2,0.5
		c0,0.2-0.2,0.2-0.4,0.2s-0.3-0.1-0.4-0.2c-0.1-0.2-0.2-0.3-0.2-0.5S77.4,44.9,77.5,44.8 M77.5,49.2c0-0.5,0-0.9-0.1-1.4
		c0.2,0,0.4,0.1,0.6,0.1c0.1,0,0.3,0,0.6-0.1c0,0.4-0.1,0.9-0.1,1.4s0,0.9,0,1.4v1.5c0,0.4,0,0.9,0,1.4s0,0.9,0.1,1.3
		c-0.2,0-0.4,0-0.6,0s-0.4,0-0.6,0c0-0.4,0.1-0.8,0.1-1.3s0-0.9,0-1.4v-1.5C77.5,50.1,77.5,49.7,77.5,49.2"/>
	<path class="st0" d="M80.4,49.6c0.2-0.5,0.4-0.8,0.7-1.1c0.3-0.3,0.6-0.5,1-0.6s0.7-0.2,1.1-0.2s0.7,0.1,1.1,0.2
		c0.4,0.1,0.7,0.3,1,0.6s0.5,0.7,0.7,1.1c0.2,0.5,0.3,1,0.3,1.7S86.2,52.5,86,53c-0.2,0.5-0.4,0.8-0.7,1.1c-0.3,0.3-0.6,0.5-1,0.6
		s-0.7,0.2-1.1,0.2s-0.7-0.1-1.1-0.2c-0.4-0.1-0.7-0.3-1-0.6s-0.5-0.7-0.7-1.1c-0.2-0.5-0.3-1-0.3-1.7
		C80.1,50.7,80.2,50.1,80.4,49.6 M81.3,52.5c0.1,0.4,0.2,0.7,0.3,1c0.2,0.3,0.3,0.5,0.6,0.7c0.2,0.2,0.6,0.3,0.9,0.3
		c0.4,0,0.7-0.1,0.9-0.3c0.3-0.2,0.4-0.4,0.6-0.7c0.1-0.3,0.3-0.6,0.3-1c0.1-0.4,0.1-0.8,0.1-1.2s0-0.8-0.1-1.2s-0.2-0.7-0.3-1
		c-0.2-0.3-0.3-0.5-0.6-0.7c-0.2-0.2-0.5-0.3-0.9-0.3s-0.7,0.1-0.9,0.3c-0.2,0.2-0.4,0.4-0.6,0.7c-0.1,0.3-0.3,0.6-0.3,1
		c-0.1,0.4-0.1,0.8-0.1,1.2C81.2,51.7,81.2,52.1,81.3,52.5"/>
	<path class="st0" d="M91.2,49c-0.2-0.4-0.6-0.6-1-0.6c-0.6,0-1,0.2-1.3,0.6c-0.3,0.4-0.4,1-0.4,1.8V52c0,0.4,0,0.9,0,1.4
		s0,0.9,0.1,1.3c-0.2,0-0.4,0-0.6,0s-0.4,0-0.6,0c0-0.4,0.1-0.8,0.1-1.3s0-0.9,0-1.4v-1.5c0-0.4,0-0.9,0-1.4s0-0.9-0.1-1.4
		c0.2,0,0.4,0.1,0.6,0.1c0.1,0,0.1,0,0.2,0s0.2,0,0.3-0.1c0,0.4,0,0.8,0,1.2l0,0c0.2-0.4,0.5-0.7,0.8-1c0.3-0.2,0.7-0.3,1.2-0.3
		c0.2,0,0.5,0,0.7,0.1s0.5,0.2,0.6,0.4c0.2,0.2,0.3,0.4,0.5,0.8c0.1,0.3,0.2,0.7,0.2,1.3c0,0.4,0,0.9,0,1.3c0,0.4,0,0.9,0,1.4v1
		c0,0.2,0,0.3,0,0.5s0,0.3,0,0.4c-0.2,0-0.3,0-0.5,0s-0.3,0-0.5,0c0-0.5,0-1,0.1-1.6c0-0.5,0-1.1,0-1.7v-0.9
		C91.6,49.9,91.5,49.4,91.2,49"/>
	<path class="st0" d="M95.6,47.9c0.3-0.1,0.6-0.2,1-0.2c0.3,0,0.6,0.1,0.8,0.2c0.3,0.1,0.5,0.2,0.6,0.4c0.2,0.2,0.3,0.4,0.4,0.7
		s0.2,0.6,0.2,0.9c0,0.6,0,1.1,0,1.7c0,0.5,0,1.1,0,1.7c0,0.1,0,0.2,0,0.4c0,0.1,0,0.2,0.1,0.4c0,0.1,0.1,0.2,0.1,0.3
		c0.1,0.1,0.2,0.1,0.3,0.1h0.1c0,0,0.1,0,0.1-0.1v0.3c-0.1,0-0.2,0.1-0.3,0.1c-0.1,0-0.3,0-0.5,0c-0.3,0-0.5-0.1-0.6-0.2
		c-0.1-0.2-0.2-0.4-0.3-0.6c-0.3,0.4-0.6,0.6-0.9,0.8S96.1,55,95.6,55c-0.2,0-0.4,0-0.6-0.1s-0.4-0.2-0.5-0.3
		c-0.1-0.2-0.3-0.3-0.4-0.6C94,53.8,94,53.5,94,53.3c0-0.6,0.2-1,0.5-1.4c0.3-0.3,0.7-0.5,1.3-0.6c0.4-0.1,0.8-0.2,1-0.2
		c0.3-0.1,0.4-0.1,0.6-0.2c0.1-0.1,0.2-0.2,0.2-0.2c0-0.1,0-0.2,0-0.4s0-0.5-0.1-0.7s-0.1-0.4-0.2-0.6c-0.1-0.2-0.2-0.3-0.4-0.4
		c-0.2-0.1-0.4-0.2-0.6-0.2c-0.3,0-0.6,0.1-0.9,0.3s-0.5,0.4-0.6,0.7h-0.1v-0.8C94.9,48.2,95.3,48,95.6,47.9 M97.1,51.3
		c-0.2,0-0.4,0.1-0.6,0.1s-0.4,0.1-0.6,0.2c-0.2,0.1-0.3,0.2-0.5,0.3c-0.1,0.1-0.3,0.3-0.3,0.4c0,0.2-0.1,0.4-0.1,0.7
		c0,0.5,0.1,0.8,0.3,1c0.2,0.2,0.5,0.3,0.7,0.3c0.3,0,0.6-0.1,0.9-0.3s0.5-0.4,0.6-0.7v-2.2C97.5,51.2,97.3,51.2,97.1,51.3"/>
	<path class="st0" d="M101,46.9c0-0.4,0-0.8,0-1.2s0-0.7,0-1.1c0-0.3,0-0.6,0-0.9c0.2,0.1,0.4,0.1,0.6,0.1c0.1,0,0.3,0,0.6-0.1
		c0,0.2,0,0.5,0,0.9s0,0.7,0,1.1c0,0.4,0,0.8,0,1.2s0,0.8,0,1.1v2.6c0,0.3,0,0.7,0,1.1c0,0.4,0,0.8,0,1.2s0,0.7,0,1.1
		c0,0.3,0,0.6,0,0.8c-0.2,0-0.4,0-0.6,0s-0.4,0-0.6,0c0-0.2,0-0.5,0-0.8s0-0.7,0-1.1c0-0.4,0-0.8,0-1.2s0-0.8,0-1.1V48
		C101,47.6,101,47.3,101,46.9"/>
	<path class="st0" d="M14.2,66.1c-0.1,0.2-0.2,0.3-0.3,0.5s-0.3,0.3-0.4,0.5c-0.2,0.2-0.4,0.3-0.6,0.4c-0.2,0.1-0.5,0.1-0.8,0.1
		s-0.6-0.1-0.9-0.2c-0.3-0.1-0.6-0.3-0.8-0.6c-0.2-0.3-0.4-0.7-0.6-1.1c-0.1-0.5-0.2-1-0.2-1.6s0.1-1.2,0.2-1.6
		c0.2-0.5,0.4-0.8,0.6-1.1c0.3-0.3,0.5-0.5,0.9-0.7c0.3-0.1,0.6-0.2,1-0.2c0.9,0,1.6,0.5,1.9,1.5l0,0v-1.4c0-0.4,0-0.7,0-1.1
		c0-0.4,0-0.7,0-1.1c0-0.3,0-0.7,0-1s0-0.6,0-0.8c0.1,0,0.2,0,0.3,0.1c0.1,0,0.2,0,0.3,0s0.2,0,0.3,0s0.2,0,0.3-0.1
		c0,0.3,0,0.8-0.1,1.4c0,0.6,0,1.2,0,2c0,0.7,0,1.4,0,2.2s0,1.4,0,2.1s0,1.3,0,1.8s0,1.1,0,1.7c-0.2,0-0.3,0-0.5,0
		c-0.1,0-0.3,0-0.5,0L14.2,66.1L14.2,66.1z M10.8,65.6c0.1,0.4,0.2,0.7,0.4,0.9c0.2,0.2,0.3,0.4,0.6,0.5c0.2,0.1,0.4,0.1,0.6,0.1
		c0.3,0,0.6-0.1,0.8-0.3c0.2-0.2,0.4-0.4,0.6-0.7c0.2-0.3,0.3-0.7,0.3-1c0.1-0.4,0.1-0.8,0.1-1.2c0-0.9-0.2-1.7-0.5-2.1
		C13.5,61.2,13,61,12.4,61c-0.3,0-0.6,0.1-0.8,0.2c-0.2,0.2-0.4,0.4-0.5,0.7s-0.3,0.6-0.3,1c-0.1,0.4-0.1,0.8-0.1,1.2
		C10.7,64.7,10.7,65.2,10.8,65.6"/>
	<path class="st0" d="M17.1,61.4c0.5-0.7,1.2-1,2.1-1c0.4,0,0.8,0.1,1.1,0.2c0.3,0.2,0.6,0.4,0.8,0.6c0.2,0.3,0.4,0.6,0.5,0.9
		c0.1,0.4,0.2,0.8,0.2,1.2c0,0.1,0,0.2,0,0.3s0,0.2,0,0.3c-0.4,0-0.9,0-1.3,0s-0.9,0-1.3,0c-0.3,0-0.5,0-0.8,0s-0.5,0-0.8,0
		c0,0.1,0,0.1,0,0.2v0.2c0,0.4,0,0.7,0.1,1.1c0.1,0.3,0.2,0.6,0.4,0.8c0.2,0.2,0.4,0.4,0.7,0.6C19,67,19.3,67,19.6,67
		c0.2,0,0.3,0,0.5-0.1s0.3-0.1,0.5-0.2s0.3-0.2,0.5-0.3c0.1-0.1,0.3-0.3,0.4-0.4h0.1l-0.1,0.7c-0.2,0.2-0.6,0.4-0.9,0.6
		c-0.4,0.2-0.8,0.2-1.2,0.2c-0.4,0-0.9-0.1-1.2-0.2c-0.4-0.2-0.7-0.4-1-0.7c-0.3-0.3-0.5-0.7-0.6-1.1s-0.2-0.9-0.2-1.4
		C16.4,63,16.6,62.1,17.1,61.4 M18.5,61.1c-0.2,0.2-0.4,0.4-0.5,0.6c-0.1,0.2-0.2,0.5-0.3,0.8c-0.1,0.3-0.1,0.6-0.1,0.8
		c0.3,0,0.5,0,0.8,0s0.6,0,0.8,0c0.3,0,0.6,0,0.8,0c0.3,0,0.6,0,0.8,0c0-0.3,0-0.5-0.1-0.8c0-0.3-0.1-0.6-0.2-0.8
		c-0.1-0.3-0.3-0.5-0.5-0.6c-0.2-0.2-0.5-0.2-0.8-0.2C19,60.8,18.7,60.9,18.5,61.1"/>
	<path class="st0" d="M33.3,67.5c-0.1,0-0.2,0-0.3,0h-0.3h-0.3c-0.1,0-0.2,0-0.3,0C32,67.3,32,67,31.9,66.7c-0.1-0.3-0.2-0.6-0.3-1
		c-0.1-0.3-0.2-0.7-0.4-1.1c-0.1-0.4-0.2-0.7-0.3-1c-0.3,0-0.5,0-0.8,0s-0.5,0-0.8,0s-0.5,0-0.8,0c-0.2,0-0.5,0-0.8,0
		c-0.3,0.8-0.5,1.5-0.7,2.2s-0.4,1.3-0.5,1.7c-0.1,0-0.3,0-0.5,0s-0.3,0-0.5,0c0.7-1.7,1.3-3.4,2-5.1c0.6-1.7,1.3-3.4,1.9-5.2h0.2
		c0.2,0.6,0.4,1.2,0.7,1.8c0.2,0.7,0.5,1.3,0.7,2s0.5,1.3,0.7,2s0.5,1.3,0.7,1.9s0.4,1.1,0.6,1.5C33,66.9,33.2,67.2,33.3,67.5
		 M27.7,62.9c0.2,0,0.4,0,0.7,0c0.2,0,0.5,0,0.7,0s0.5,0,0.7,0s0.5,0,0.7,0l-1.4-3.7L27.7,62.9z"/>
	<path class="st0" d="M34.3,62.4c0.2-0.5,0.4-0.8,0.7-1.1s0.6-0.5,1-0.7c0.4-0.1,0.8-0.2,1.2-0.2c0.5,0,0.9,0.1,1.2,0.2
		c0.4,0.1,0.6,0.3,0.8,0.4c-0.1,0.1-0.1,0.3-0.2,0.5c0,0.2-0.1,0.3-0.1,0.5h-0.1c-0.1-0.1-0.1-0.3-0.2-0.4c-0.1-0.1-0.2-0.3-0.4-0.4
		c-0.1-0.1-0.3-0.2-0.5-0.3s-0.3-0.1-0.5-0.1c-0.4,0-0.7,0.1-1,0.2c-0.3,0.2-0.5,0.4-0.7,0.7s-0.3,0.6-0.4,1C35,63.1,35,63.5,35,64
		c0,1,0.2,1.8,0.5,2.3c0.4,0.5,0.9,0.8,1.6,0.8c0.2,0,0.3,0,0.5-0.1s0.3-0.1,0.5-0.2s0.3-0.2,0.5-0.3c0.1-0.1,0.3-0.3,0.4-0.4h0.1
		c0,0.2-0.1,0.5-0.1,0.7c-0.3,0.2-0.6,0.4-0.9,0.6c-0.4,0.2-0.8,0.2-1.1,0.2c-0.4,0-0.7-0.1-1.1-0.2c-0.4-0.1-0.7-0.3-1-0.6
		c-0.3-0.3-0.5-0.7-0.7-1.1c-0.2-0.5-0.3-1-0.3-1.7C34,63.4,34.1,62.8,34.3,62.4"/>
	<path class="st0" d="M43.2,61.6c-0.1-0.1-0.2-0.1-0.4-0.1s-0.4,0.1-0.5,0.2c-0.2,0.1-0.3,0.3-0.4,0.4c-0.1,0.2-0.2,0.4-0.3,0.6
		c-0.1,0.2-0.1,0.5-0.1,0.8v1.6c0,0.7,0,1.2,0,1.5s0,0.6,0,0.8c-0.2,0-0.3,0-0.5,0s-0.4,0-0.5,0c0-0.3,0-0.8,0-1.4s0-1.3,0-2.1v-0.5
		c0-0.4,0-0.8,0-1.3s0-1.1,0-1.7c0.1,0,0.2,0,0.3,0s0.2,0,0.3,0s0.2,0,0.2,0c0.1,0,0.2,0,0.3,0c0,0.3-0.1,0.6-0.1,0.8s0,0.4,0,0.6
		l0,0c0.5-1.1,1-1.6,1.6-1.6c0.1,0,0.1,0,0.2,0c0.1,0,0.1,0,0.2,0.1c0,0.1-0.1,0.3-0.1,0.5s0,0.5,0,0.6l-0.1,0.1
		C43.4,61.6,43.4,61.6,43.2,61.6"/>
	<path class="st0" d="M45,61.4c0.5-0.7,1.2-1,2.1-1c0.4,0,0.8,0.1,1.1,0.2c0.3,0.2,0.6,0.4,0.8,0.6c0.2,0.3,0.4,0.6,0.5,0.9
		c0.1,0.4,0.2,0.8,0.2,1.2c0,0.1,0,0.2,0,0.3s0,0.2,0,0.3c-0.4,0-0.9,0-1.3,0c-0.4,0-0.9,0-1.3,0c-0.3,0-0.5,0-0.8,0s-0.5,0-0.8,0
		c0,0.1,0,0.1,0,0.2v0.2c0,0.4,0,0.7,0.1,1.1c0.1,0.3,0.2,0.6,0.4,0.8c0.2,0.2,0.4,0.4,0.7,0.6c0.3,0.1,0.6,0.2,0.9,0.2
		c0.2,0,0.3,0,0.5-0.1s0.3-0.1,0.5-0.2s0.3-0.2,0.5-0.3c0.1-0.1,0.3-0.3,0.4-0.4h0.1l-0.1,0.7c-0.2,0.2-0.6,0.4-0.9,0.6
		c-0.4,0.2-0.8,0.2-1.2,0.2s-0.9-0.1-1.2-0.2c-0.4-0.2-0.7-0.4-1-0.7c-0.3-0.3-0.5-0.7-0.6-1.1s-0.2-0.9-0.2-1.4
		C44.3,63,44.5,62.1,45,61.4 M46.4,61.1c-0.2,0.2-0.4,0.4-0.5,0.6c-0.1,0.2-0.2,0.5-0.3,0.8s-0.1,0.6-0.1,0.8c0.3,0,0.5,0,0.8,0
		s0.5,0,0.8,0s0.5,0,0.8,0s0.6,0,0.8,0c0-0.3,0-0.5-0.1-0.8c0-0.3-0.1-0.6-0.2-0.8c-0.1-0.3-0.3-0.5-0.5-0.6
		c-0.2-0.2-0.5-0.2-0.8-0.2C46.8,60.8,46.6,60.9,46.4,61.1"/>
	<path class="st0" d="M55.2,66.1c-0.1,0.2-0.1,0.3-0.3,0.5c-0.1,0.2-0.3,0.3-0.4,0.5c-0.2,0.2-0.4,0.3-0.6,0.4
		c-0.2,0.1-0.5,0.1-0.8,0.1s-0.6-0.1-0.9-0.2c-0.3-0.1-0.6-0.3-0.8-0.6c-0.2-0.3-0.4-0.7-0.6-1.1c-0.1-0.5-0.2-1-0.2-1.6
		s0.1-1.2,0.2-1.6c0.1-0.5,0.4-0.8,0.6-1.1c0.2-0.3,0.5-0.5,0.9-0.7c0.3-0.1,0.6-0.2,1-0.2c0.9,0,1.6,0.5,1.9,1.5l0,0v-1.4
		c0-0.4,0-0.7,0-1.1c0-0.4,0-0.7,0-1.1c0-0.3,0-0.7,0-1s0-0.6,0-0.8c0.1,0,0.2,0,0.3,0.1c0.1,0,0.2,0,0.3,0s0.2,0,0.3,0
		s0.2,0,0.3-0.1c0,0.3,0,0.8-0.1,1.4c0,0.6,0,1.2,0,2c0,0.7,0,1.4,0,2.2s0,1.4,0,2.1s0,1.3,0,1.8s0,1.1,0,1.7c-0.2,0-0.3,0-0.5,0
		c-0.1,0-0.3,0-0.5,0L55.2,66.1L55.2,66.1z M51.8,65.6c0.1,0.4,0.2,0.7,0.4,0.9c0.2,0.2,0.3,0.4,0.6,0.5c0.2,0.1,0.4,0.1,0.6,0.1
		c0.3,0,0.6-0.1,0.8-0.3c0.2-0.2,0.4-0.4,0.6-0.7c0.2-0.3,0.3-0.7,0.3-1c0.1-0.4,0.1-0.8,0.1-1.2c0-0.9-0.2-1.7-0.5-2.1
		C54.5,61.2,54,61,53.4,61c-0.3,0-0.6,0.1-0.8,0.2c-0.2,0.2-0.4,0.4-0.5,0.7s-0.3,0.6-0.3,1c-0.1,0.4-0.1,0.8-0.1,1.2
		C51.7,64.7,51.7,65.2,51.8,65.6"/>
	<path class="st0" d="M58.2,57.4c0.1-0.1,0.3-0.2,0.4-0.2c0.2,0,0.3,0.1,0.4,0.2c0.1,0.1,0.2,0.3,0.2,0.5s-0.1,0.4-0.2,0.5
		c-0.1,0.2-0.3,0.2-0.4,0.2c-0.2,0-0.3-0.1-0.4-0.2c-0.1-0.1-0.2-0.3-0.2-0.5C58.1,57.8,58.1,57.6,58.2,57.4 M58.2,61.9
		c0-0.5,0-0.9-0.1-1.4c0.2,0,0.4,0.1,0.6,0.1c0.1,0,0.3,0,0.6-0.1c0,0.4-0.1,0.9-0.1,1.4s0,0.9,0,1.4v1.5c0,0.4,0,0.9,0,1.4
		s0,0.9,0.1,1.3c-0.2,0-0.4,0-0.6,0c-0.2,0-0.4,0-0.6,0c0-0.4,0.1-0.8,0.1-1.3s0-0.9,0-1.4v-1.5C58.2,62.8,58.2,62.3,58.2,61.9"/>
	<path class="st0" d="M62.5,58.6c0,0.4,0,0.7-0.1,1.1c0,0.4,0,0.7,0,1.1c0.1,0,0.3,0,0.5,0c0.3,0,0.5,0,0.8,0c0,0,0,0.1,0,0.2v0v0.2
		c0,0.1,0,0.1,0,0.1c-0.1,0-0.2,0-0.3,0s-0.2,0-0.4,0h-0.6c0,0,0,0.2,0,0.5s0,0.6,0,1s0,0.8,0,1.2s0,0.8,0,1.1c0,0.3,0,0.5,0,0.8
		s0,0.5,0.1,0.7s0.2,0.4,0.3,0.5s0.3,0.2,0.6,0.2c0.1,0,0.2,0,0.3,0s0.2,0,0.3-0.1v0.4c-0.1,0-0.3,0.1-0.5,0.1s-0.3,0.1-0.5,0.1
		c-0.5,0-0.9-0.1-1.2-0.5c-0.2-0.3-0.4-0.7-0.4-1.3c0-0.3,0-0.5,0-0.9c0-0.3,0-0.6,0-1s0-0.8,0-1.2s0-0.9,0-1.5H61
		c-0.1,0-0.1,0-0.2,0c-0.1,0-0.2,0-0.2,0c0-0.1,0-0.1,0-0.2c0-0.1,0-0.1,0-0.2v-0.1c0-0.1,0-0.1,0-0.1c0.4,0,0.6,0,0.8,0
		c0-0.2,0-0.4,0-0.7s0-0.6,0-0.9L62.5,58.6L62.5,58.6z"/>
	<path class="st0" d="M66,60.5c0.3-0.1,0.6-0.2,1-0.2c0.3,0,0.6,0.1,0.8,0.2c0.2,0.1,0.5,0.2,0.6,0.4c0.2,0.2,0.3,0.4,0.4,0.7
		s0.1,0.6,0.1,0.9c0,0.6,0,1.1,0,1.7c0,0.6,0,1.1,0,1.7c0,0.1,0,0.2,0,0.4c0,0.1,0,0.2,0.1,0.4c0,0.1,0.1,0.2,0.1,0.3
		c0.1,0.1,0.2,0.1,0.3,0.1h0.1h0.1v0.3c-0.1,0.1-0.2,0.1-0.3,0.1c-0.1,0-0.3,0-0.5,0c-0.3,0-0.5-0.1-0.6-0.2
		C68.1,67,68,66.8,68,66.6c-0.3,0.4-0.6,0.6-0.9,0.8c-0.3,0.2-0.6,0.3-1.1,0.3c-0.2,0-0.4,0-0.6-0.1s-0.4-0.2-0.5-0.3
		c-0.2-0.2-0.3-0.3-0.4-0.6c-0.1-0.2-0.1-0.5-0.1-0.8c0-0.6,0.2-1,0.5-1.4c0.3-0.3,0.7-0.5,1.3-0.6c0.4-0.1,0.8-0.2,1-0.2
		c0.3-0.1,0.4-0.1,0.6-0.2c0.1-0.1,0.2-0.1,0.2-0.2c0-0.1,0-0.2,0-0.4s0-0.5-0.1-0.7c0-0.2-0.1-0.4-0.2-0.6
		c-0.1-0.2-0.2-0.3-0.4-0.4C67.1,61,66.9,61,66.6,61s-0.6,0.1-0.9,0.3s-0.5,0.4-0.6,0.7H65v-0.8C65.3,60.9,65.7,60.7,66,60.5
		 M67.5,64c-0.2,0-0.4,0.1-0.6,0.1s-0.4,0.1-0.6,0.2s-0.3,0.2-0.5,0.3c-0.1,0.1-0.3,0.3-0.3,0.4c-0.1,0.2-0.1,0.4-0.1,0.7
		c0,0.5,0.1,0.8,0.3,1c0.2,0.2,0.5,0.4,0.7,0.4c0.3,0,0.6-0.1,0.9-0.3c0.3-0.2,0.5-0.4,0.6-0.7v-2.2C67.9,63.9,67.7,63.9,67.5,64"/>
	<path class="st0" d="M70.9,62.4c0.2-0.5,0.4-0.8,0.7-1.1c0.3-0.3,0.6-0.5,1-0.7c0.4-0.1,0.8-0.2,1.2-0.2c0.5,0,0.9,0.1,1.2,0.2
		c0.4,0.1,0.6,0.3,0.8,0.4c-0.1,0.1-0.1,0.3-0.2,0.5c0,0.2-0.1,0.3-0.1,0.5h-0.1c-0.1-0.1-0.1-0.3-0.2-0.4c-0.1-0.1-0.2-0.3-0.4-0.4
		c-0.1-0.1-0.3-0.2-0.5-0.3s-0.3-0.1-0.5-0.1c-0.4,0-0.7,0.1-1,0.2c-0.3,0.2-0.5,0.4-0.7,0.7s-0.3,0.6-0.4,1s-0.1,0.8-0.1,1.3
		c0,1,0.2,1.8,0.6,2.3s0.9,0.8,1.6,0.8c0.2,0,0.3,0,0.5-0.1s0.3-0.1,0.5-0.2s0.3-0.2,0.5-0.3c0.1-0.1,0.3-0.3,0.4-0.4h0.1
		c0,0.2-0.1,0.5-0.1,0.7c-0.2,0.2-0.6,0.4-0.9,0.6c-0.4,0.2-0.7,0.2-1.1,0.2s-0.7-0.1-1.1-0.2s-0.7-0.3-1-0.6
		c-0.3-0.3-0.5-0.7-0.7-1.1c-0.2-0.5-0.3-1-0.3-1.7C70.6,63.4,70.7,62.8,70.9,62.4"/>
	<path class="st0" d="M77.6,57.4c0.1-0.1,0.3-0.2,0.4-0.2c0.2,0,0.3,0.1,0.5,0.2c0.1,0.1,0.2,0.3,0.2,0.5s-0.1,0.4-0.2,0.5
		c-0.1,0.2-0.3,0.2-0.5,0.2s-0.3-0.1-0.4-0.2c-0.1-0.1-0.2-0.3-0.2-0.5C77.4,57.8,77.5,57.6,77.6,57.4 M77.6,61.9
		c0-0.5,0-0.9-0.1-1.4c0.2,0,0.4,0.1,0.6,0.1c0.1,0,0.3,0,0.6-0.1c0,0.4-0.1,0.9-0.1,1.4s0,0.9,0,1.4v1.5c0,0.4,0,0.9,0,1.4
		s0,0.9,0.1,1.3c-0.2,0-0.4,0-0.6,0s-0.4,0-0.6,0c0-0.4,0.1-0.8,0.1-1.3s0-0.9,0-1.4v-1.5C77.6,62.8,77.6,62.3,77.6,61.9"/>
	<path class="st0" d="M80.5,62.3c0.2-0.5,0.4-0.8,0.7-1.1c0.3-0.3,0.6-0.5,1-0.6s0.7-0.2,1.1-0.2s0.7,0.1,1.1,0.2
		c0.4,0.1,0.7,0.3,1,0.6s0.5,0.7,0.7,1.1c0.2,0.5,0.3,1,0.3,1.7c0,0.7-0.1,1.2-0.3,1.7c-0.2,0.5-0.4,0.8-0.7,1.1
		c-0.3,0.3-0.6,0.5-1,0.6s-0.7,0.2-1.1,0.2s-0.7-0.1-1.1-0.2s-0.7-0.3-1-0.6c-0.3-0.3-0.5-0.7-0.7-1.1c-0.2-0.5-0.3-1-0.3-1.7
		C80.2,63.3,80.3,62.8,80.5,62.3 M81.4,65.2c0.1,0.4,0.2,0.7,0.3,1c0.2,0.3,0.3,0.5,0.6,0.7c0.3,0.2,0.6,0.3,0.9,0.3
		c0.4,0,0.7-0.1,0.9-0.3c0.3-0.2,0.5-0.4,0.6-0.7c0.2-0.3,0.3-0.6,0.3-1c0.1-0.4,0.1-0.8,0.1-1.2c0-0.4,0-0.8-0.1-1.2
		s-0.2-0.7-0.3-1c-0.2-0.3-0.3-0.5-0.6-0.7c-0.2-0.2-0.6-0.3-0.9-0.3c-0.4,0-0.7,0.1-0.9,0.3c-0.2,0.2-0.4,0.4-0.6,0.7
		c-0.1,0.3-0.3,0.6-0.3,1c-0.1,0.4-0.1,0.8-0.1,1.2C81.3,64.4,81.3,64.8,81.4,65.2 M84.8,56.7c0.1,0,0.2,0,0.3,0.1
		c0.1,0.1,0.1,0.2,0.1,0.4s0,0.3-0.1,0.4c-0.1,0.1-0.2,0.2-0.3,0.3L83,59.3h-0.5l1.8-2.2C84.4,56.8,84.6,56.7,84.8,56.7"/>
	<path class="st0" d="M91.3,61.7c-0.2-0.4-0.6-0.6-1-0.6c-0.6,0-1,0.2-1.3,0.6c-0.3,0.4-0.4,1-0.4,1.8v1.2c0,0.4,0,0.9,0,1.4
		s0,0.9,0.1,1.3c-0.2,0-0.4,0-0.6,0s-0.4,0-0.6,0c0-0.4,0.1-0.8,0.1-1.3s0-0.9,0-1.4v-1.5c0-0.4,0-0.9,0-1.4s0-0.9-0.1-1.4
		c0.2,0,0.4,0.1,0.6,0.1c0.1,0,0.1,0,0.2,0s0.2,0,0.3,0c0,0.4,0,0.8,0,1.2l0,0c0.2-0.4,0.5-0.7,0.8-1c0.3-0.2,0.7-0.3,1.2-0.3
		c0.2,0,0.5,0,0.7,0.1s0.4,0.2,0.6,0.4s0.4,0.5,0.5,0.8s0.2,0.7,0.2,1.2c0,0.4,0,0.8,0,1.3c0,0.4,0,0.9,0,1.4v0.9c0,0.2,0,0.3,0,0.5
		s0,0.3,0,0.4c-0.2,0-0.3,0-0.5,0s-0.4,0-0.5,0c0-0.5,0-1,0.1-1.6c0-0.5,0-1.1,0-1.6v-0.9C91.7,62.6,91.6,62.1,91.3,61.7"/>
	<path class="st0" d="M31.7,78.6c-0.1,0.1-0.3,0.1-0.5,0.2s-0.4,0.1-0.7,0.2c-0.3,0-0.5,0-0.8,0c-0.6,0-1.1-0.1-1.6-0.3
		c-0.5-0.2-0.9-0.4-1.3-0.8s-0.6-0.8-0.8-1.3c-0.2-0.5-0.3-1.1-0.3-1.8c0-0.7,0.1-1.2,0.3-1.8c0.2-0.5,0.5-1,0.9-1.3
		c0.4-0.4,0.8-0.6,1.3-0.8c0.5-0.2,1.1-0.3,1.7-0.3c0.5,0,0.9,0.1,1.3,0.2s0.8,0.2,1.1,0.4c-0.1,0.1-0.1,0.3-0.1,0.4
		c0,0.2-0.1,0.3-0.1,0.5H32c-0.1-0.1-0.2-0.2-0.3-0.3c-0.1-0.1-0.3-0.2-0.5-0.3c-0.2-0.1-0.4-0.2-0.6-0.3c-0.2-0.1-0.5-0.1-0.7-0.1
		c-0.4,0-0.8,0.1-1.2,0.2c-0.4,0.1-0.7,0.4-1,0.7c-0.3,0.3-0.5,0.7-0.6,1.2c-0.2,0.5-0.2,1-0.2,1.7c0,0.6,0.1,1.2,0.2,1.7
		c0.2,0.5,0.4,0.9,0.6,1.2c0.3,0.3,0.6,0.5,1,0.7c0.4,0.1,0.8,0.2,1.2,0.2c0.3,0,0.5,0,0.7-0.1s0.4-0.2,0.6-0.3
		c0.2-0.1,0.4-0.2,0.5-0.3c0.1-0.1,0.3-0.2,0.4-0.3l0,0L32,78.4C31.9,78.5,31.8,78.6,31.7,78.6"/>
	<path class="st0" d="M37.2,75.9c-1-1.1-1.9-2.2-2.9-3.2c0,0.2,0,0.5,0,0.9s0,0.9,0,1.5c0,0.2,0,0.4,0,0.6s0,0.5,0,0.8s0,0.5,0,0.8
		s0,0.5,0,0.8c0,0.2,0,0.4,0,0.6s0,0.3,0,0.4c-0.1,0-0.2,0-0.4,0c-0.1,0-0.3,0-0.4,0c0-0.1,0-0.2,0-0.4c0-0.2,0-0.5,0-0.8
		s0-0.6,0.1-1c0-0.3,0-0.7,0-1s0-0.7,0-1s0-0.6,0-0.9c0-0.7,0-1.4,0-1.9s0-0.9,0-1.2H34c0.5,0.5,0.9,1.1,1.5,1.7
		c0.5,0.6,1,1.2,1.5,1.7c0.5,0.6,1,1.1,1.4,1.6c0.5,0.5,0.9,0.9,1.2,1.3v-1.6c0-0.8,0-1.6,0-2.4s0-1.5-0.1-2.2
		c0.1,0,0.3,0.1,0.4,0.1c0.1,0,0.2,0,0.4-0.1c0,0.2,0,0.4,0,0.8c0,0.3,0,0.7-0.1,1.1c0,0.4,0,0.8,0,1.1c0,0.4,0,0.7,0,0.9v0.7
		c0,0.3,0,0.5,0,0.8s0,0.6,0,0.9s0,0.6,0,0.8c0,0.3,0,0.5,0,0.7V79H40C39.1,78,38.2,77,37.2,75.9"/>
	<path class="st0" d="M48.3,78.9c-0.1,0-0.2,0-0.3,0h-0.3h-0.3c-0.1,0-0.2,0-0.3,0c0-0.2-0.1-0.4-0.2-0.6c-0.1-0.3-0.2-0.5-0.3-0.8
		s-0.2-0.6-0.3-0.8c-0.1-0.3-0.2-0.6-0.3-0.8c-0.2,0-0.5,0-0.7,0s-0.5,0-0.7,0s-0.5,0-0.7,0s-0.4,0-0.7,0c-0.2,0.6-0.4,1.2-0.6,1.7
		c-0.2,0.5-0.3,1-0.4,1.4c-0.1,0-0.3,0-0.4,0c-0.1,0-0.3,0-0.4,0c0.6-1.4,1.2-2.7,1.8-4.1c0.6-1.3,1.1-2.7,1.7-4.1h0.2
		c0.2,0.5,0.4,0.9,0.6,1.5c0.2,0.5,0.4,1.1,0.6,1.6c0.2,0.5,0.4,1.1,0.6,1.6c0.2,0.5,0.4,1,0.6,1.5c0.2,0.5,0.4,0.9,0.5,1.2
		C48,78.4,48.2,78.7,48.3,78.9 M43.3,75.3c0.2,0,0.4,0,0.6,0c0.2,0,0.4,0,0.6,0c0.2,0,0.4,0,0.6,0c0.2,0,0.4,0,0.6,0l-1.2-3
		L43.3,75.3z"/>
	<rect x="48.9" y="75.8" class="st0" width="2.8" height="0.7"/>
	<path class="st0" d="M58.7,78.6c-0.1,0.1-0.3,0.1-0.5,0.2s-0.4,0.1-0.7,0.2c-0.3,0-0.5,0.1-0.8,0.1c-0.6,0-1.1-0.1-1.6-0.3
		c-0.5-0.2-0.9-0.4-1.3-0.8c-0.4-0.4-0.6-0.8-0.8-1.3s-0.3-1.1-0.3-1.8c0-0.7,0.1-1.2,0.3-1.8c0.2-0.5,0.5-1,0.9-1.3
		c0.4-0.4,0.8-0.6,1.3-0.8c0.5-0.2,1.1-0.3,1.7-0.3c0.5,0,0.9,0.1,1.3,0.2c0.4,0.1,0.8,0.2,1.1,0.4c-0.1,0.1-0.1,0.3-0.1,0.4
		c0,0.2-0.1,0.3-0.1,0.5H59c-0.1-0.1-0.2-0.2-0.3-0.3c-0.1-0.1-0.3-0.2-0.5-0.3c-0.2-0.1-0.4-0.2-0.6-0.3c-0.2-0.1-0.5-0.1-0.7-0.1
		c-0.4,0-0.8,0.1-1.2,0.2s-0.7,0.4-1,0.7c-0.3,0.3-0.5,0.7-0.7,1.2s-0.2,1-0.2,1.7c0,0.6,0.1,1.2,0.2,1.7c0.2,0.5,0.4,0.9,0.7,1.2
		c0.3,0.3,0.6,0.5,1,0.7c0.4,0.1,0.8,0.2,1.2,0.2c0.3,0,0.5,0,0.7-0.1s0.4-0.2,0.6-0.3c0.2-0.1,0.4-0.2,0.5-0.3
		c0.1-0.1,0.3-0.2,0.4-0.3l0,0L59,78.4C58.9,78.5,58.8,78.6,58.7,78.6"/>
	<path class="st0" d="M60.5,72.6c0-0.3,0-0.6,0-0.9s0-0.6,0-0.9s0-0.5,0-0.7c0.2,0,0.4,0.1,0.5,0.1s0.3,0,0.5-0.1c0,0.2,0,0.4,0,0.7
		c0,0.3,0,0.6,0,0.9s0,0.6,0,0.9s0,0.6,0,0.8v0.9l0,0c0.2-0.3,0.5-0.6,0.8-0.8c0.3-0.2,0.6-0.3,1-0.3c0.2,0,0.4,0,0.6,0.1
		c0.2,0.1,0.4,0.2,0.6,0.3c0.2,0.2,0.3,0.4,0.4,0.6c0.1,0.3,0.2,0.6,0.2,1c0,0.3,0,0.7,0,1c0,0.4,0,0.7,0,1.1v0.8c0,0.1,0,0.2,0,0.4
		c0,0.1,0,0.2,0,0.3c-0.2,0-0.3,0-0.5,0s-0.3,0-0.5,0c0-0.4,0-0.8,0.1-1.3c0-0.4,0-0.9,0-1.3v-0.7c0-0.6-0.1-1-0.3-1.3
		s-0.5-0.4-0.9-0.4c-0.5,0-0.9,0.2-1.1,0.5c-0.2,0.3-0.4,0.8-0.4,1.4c0,0.2,0,0.5,0,0.8s0,0.6,0,0.9s0,0.6,0,0.9s0,0.5,0,0.7
		c-0.2,0-0.3,0-0.5,0s-0.3,0-0.5,0c0-0.2,0-0.4,0-0.7c0-0.3,0-0.6,0-0.9s0-0.6,0-0.9s0-0.6,0-0.9v-2.1
		C60.5,73.2,60.5,72.9,60.5,72.6"/>
	<path class="st0" d="M66.9,70.9c0.1-0.1,0.2-0.2,0.4-0.2c0.2,0,0.3,0.1,0.4,0.2s0.2,0.3,0.2,0.4c0,0.2-0.1,0.3-0.2,0.4
		s-0.2,0.2-0.4,0.2c-0.2,0-0.3-0.1-0.4-0.2s-0.2-0.3-0.2-0.4C66.7,71.1,66.8,71,66.9,70.9 M66.9,74.4c0-0.4,0-0.7-0.1-1.1
		c0.2,0,0.4,0.1,0.5,0.1s0.3,0,0.5-0.1c0,0.3-0.1,0.7-0.1,1.1s0,0.8,0,1.1v1.2c0,0.3,0,0.7,0,1.1s0,0.7,0.1,1c-0.2,0-0.3,0-0.5,0
		s-0.3,0-0.5,0c0-0.3,0.1-0.7,0.1-1c0-0.4,0-0.8,0-1.1v-1.2C66.9,75.2,66.9,74.8,66.9,74.4"/>
	<path class="st0" d="M70,72.6c0-0.3,0-0.6,0-0.9s0-0.6,0-0.9s0-0.5,0-0.7c0.2,0,0.4,0.1,0.5,0.1s0.3,0,0.5-0.1c0,0.2,0,0.4,0,0.7
		c0,0.3,0,0.6,0,0.9s0,0.6,0,0.9s0,0.6,0,0.9v2.1c0,0.3,0,0.6,0,0.9s0,0.6,0,0.9s0,0.6,0,0.9s0,0.5,0,0.7c-0.2,0-0.3,0-0.5,0
		s-0.3,0-0.5,0c0-0.2,0-0.4,0-0.7c0-0.3,0-0.6,0-0.9s0-0.6,0-0.9s0-0.6,0-0.9v-2.1C70,73.2,70,72.9,70,72.6"/>
	<path class="st0" d="M73,74c0.4-0.5,1.1-0.8,1.9-0.8c0.4,0,0.7,0.1,1,0.2s0.5,0.3,0.7,0.5s0.3,0.5,0.4,0.8s0.1,0.6,0.1,0.9
		c0,0.1,0,0.2,0,0.2c0,0.1,0,0.2,0,0.2c-0.4,0-0.8,0-1.2,0c-0.4,0-0.8,0-1.2,0c-0.2,0-0.5,0-0.7,0s-0.5,0-0.7,0c0,0,0,0.1,0,0.2v0.2
		c0,0.3,0,0.6,0.1,0.8c0.1,0.3,0.2,0.5,0.4,0.7c0.2,0.2,0.4,0.3,0.6,0.5c0.2,0.1,0.5,0.2,0.8,0.2c0.1,0,0.3,0,0.5-0.1
		c0.2,0,0.3-0.1,0.5-0.2c0.1-0.1,0.3-0.2,0.4-0.3c0.1-0.1,0.2-0.2,0.3-0.3H77l-0.1,0.6c-0.2,0.2-0.5,0.3-0.8,0.5
		c-0.3,0.1-0.7,0.2-1,0.2c-0.4,0-0.8-0.1-1.1-0.2c-0.3-0.1-0.6-0.3-0.9-0.6c-0.2-0.2-0.4-0.5-0.6-0.9c-0.1-0.3-0.2-0.7-0.2-1.1
		C72.3,75.3,72.5,74.6,73,74 M74.2,73.8c-0.2,0.1-0.3,0.3-0.5,0.5c-0.1,0.2-0.2,0.4-0.3,0.7c-0.1,0.2-0.1,0.5-0.1,0.7
		c0.2,0,0.5,0,0.7,0s0.5,0,0.7,0s0.5,0,0.7,0s0.5,0,0.7,0c0-0.2,0-0.4,0-0.7c0-0.2-0.1-0.5-0.2-0.7s-0.2-0.4-0.4-0.5
		c-0.2-0.1-0.4-0.2-0.7-0.2C74.6,73.6,74.4,73.7,74.2,73.8"/>
	<polygon class="st0" points="50.3,1.7 61.4,26.4 53.7,32.1 44.2,10.7 32,39 31.5,39.5 30.5,39.9 21.9,39.9 21.6,39.7 38.1,1.4 
		38.6,1 39.2,1 49.8,1 50,1.2 	"/>
	<polygon class="st0" points="50.3,1.7 61.4,26.4 53.7,32.1 44.2,10.7 32,39 31.5,39.5 30.5,39.9 21.9,39.9 21.6,39.7 38.1,1.4 
		38.6,1 39.2,1 49.8,1 50,1.2 	"/>
	<polygon class="st0" points="53.7,32.2 43.9,40.1 57,40.1 	"/>
	<polygon class="st0" points="53.7,32.2 43.9,40.1 57,40.1 	"/>
	<polygon class="st0" points="61.5,26.6 81,10.5 68.2,40 68,40 67.6,40 67.3,39.7 	"/>
	<polygon class="st0" points="61.5,26.6 81,10.5 68.2,40 68,40 67.6,40 67.3,39.7 	"/>
</g>
<g>
	<g>
		<path class="st1" d="M167.1,7.7h2.3v8.7h-2.3V7.7z"/>
		<path class="st1" d="M170.4,7.7h2.5l1.5,5.4h0V7.7h2.1v8.7H174l-1.5-5.4h0v5.4h-2.1V7.7z"/>
		<path class="st1" d="M181,10.3V10c0-0.5-0.2-0.9-0.6-0.9c-0.5,0-0.7,0.4-0.7,0.8c0,1.7,3.7,0.9,3.7,4c0,1.8-1.1,2.7-3.1,2.7
			c-1.9,0-2.9-0.6-2.9-2.4v-0.3h2.2v0.2c0,0.7,0.3,1,0.7,1c0.5,0,0.7-0.4,0.7-0.8c0-1.7-3.6-0.9-3.6-3.9c0-1.8,0.9-2.7,2.8-2.7
			c2,0,2.8,0.8,2.8,2.7H181z"/>
		<path class="st1" d="M185.3,9.7h-1.7V7.7h5.7v1.9h-1.7v6.8h-2.3V9.7z"/>
		<path class="st1" d="M189.7,7.7h2.3v8.7h-2.3V7.7z"/>
		<path class="st1" d="M194,9.7h-1.7V7.7h5.7v1.9h-1.7v6.8H194V9.7z"/>
		<path class="st1" d="M200.7,7.7V14c0,0.8,0.3,1.1,0.7,1.1c0.4,0,0.7-0.2,0.7-1.1V7.7h2.3v5.7c0,2.4-1,3.2-2.9,3.2
			c-1.9,0-2.9-0.7-2.9-3.2V7.7H200.7z"/>
		<path class="st1" d="M206.4,9.7h-1.7V7.7h5.7v1.9h-1.7v6.8h-2.3V9.7z"/>
		<path class="st1" d="M213.7,7.6c2.3,0,3.1,1.3,3.1,4.5s-0.8,4.5-3.1,4.5c-2.3,0-3.1-1.3-3.1-4.5S211.4,7.6,213.7,7.6z M213.7,15.1
			c0.7,0,0.8-0.6,0.8-3s-0.1-3-0.8-3c-0.7,0-0.8,0.6-0.8,3S213.1,15.1,213.7,15.1z"/>
		<path class="st1" d="M220.7,7.7h3.4c1.7,0,2.5,1.2,2.5,2.7c0,1.8-1,2.7-2.8,2.7H223v3.3h-2.3V7.7z M223,11.5h0.4
			c0.6,0,0.9-0.3,0.9-1.1c0-0.7-0.3-1.1-0.9-1.1H223V11.5z"/>
		<path class="st1" d="M227.4,7.7h3.5c1.7,0,2.4,1,2.4,2.3c0,1.2-0.5,1.9-1.5,2.1v0c1.1,0.1,1.4,0.8,1.4,1.9v0.7c0,0.5,0,1,0.1,1.2
			c0.1,0.1,0.1,0.2,0.3,0.3v0.1h-2.4c-0.2-0.5-0.2-1.3-0.2-1.7v-0.6c0-1-0.2-1.2-0.7-1.2h-0.6v3.5h-2.3V7.7z M229.6,11.4h0.5
			c0.6,0,0.9-0.4,0.9-1c0-0.7-0.3-1-1-1h-0.4V11.4z"/>
		<path class="st1" d="M237.2,7.6c2.3,0,3.1,1.3,3.1,4.5s-0.8,4.5-3.1,4.5c-2.3,0-3.1-1.3-3.1-4.5S234.9,7.6,237.2,7.6z M237.2,15.1
			c0.7,0,0.8-0.6,0.8-3s-0.1-3-0.8-3c-0.7,0-0.8,0.6-0.8,3S236.5,15.1,237.2,15.1z"/>
		<path class="st1" d="M241.1,7.7h5.1v1.8h-2.9v1.5h2.7v1.8h-2.7v3.6h-2.3V7.7z"/>
		<path class="st1" d="M246.9,7.7h5.1v1.8h-2.9v1.5h2.7v1.8h-2.7v1.7h3v1.8h-5.3V7.7z"/>
		<path class="st1" d="M256.4,10.3V10c0-0.5-0.2-0.9-0.6-0.9c-0.5,0-0.7,0.4-0.7,0.8c0,1.7,3.7,0.9,3.7,4c0,1.8-1.1,2.7-3.1,2.7
			c-1.9,0-2.9-0.6-2.9-2.4v-0.3h2.2v0.2c0,0.7,0.3,1,0.7,1c0.5,0,0.7-0.4,0.7-0.8c0-1.7-3.6-0.9-3.6-3.9c0-1.8,0.9-2.7,2.8-2.7
			c2,0,2.8,0.8,2.8,2.7H256.4z"/>
		<path class="st1" d="M259.5,7.7h2.3v8.7h-2.3V7.7z"/>
		<path class="st1" d="M265.6,7.6c2.3,0,3.1,1.3,3.1,4.5s-0.8,4.5-3.1,4.5c-2.3,0-3.1-1.3-3.1-4.5S263.3,7.6,265.6,7.6z M265.6,15.1
			c0.7,0,0.8-0.6,0.8-3s-0.1-3-0.8-3c-0.7,0-0.8,0.6-0.8,3S264.9,15.1,265.6,15.1z"/>
		<path class="st1" d="M269.5,7.7h2.5l1.5,5.4h0V7.7h2.1v8.7h-2.5l-1.5-5.4h0v5.4h-2.1V7.7z"/>
		<path class="st1" d="M278.1,7.7h2.8l2.1,8.7h-2.4l-0.2-1.5h-1.8l-0.2,1.5H276L278.1,7.7z M279.5,9.5L279.5,9.5l-0.6,3.7h1.3
			L279.5,9.5z"/>
		<path class="st1" d="M283.4,7.7h2.3v6.8h2.8v1.8h-5V7.7z"/>
	</g>
	<g>
		<path class="st2" d="M138.7,24.2h7l5.2,21.4H145l-0.6-3.7H140l-0.6,3.7h-5.9L138.7,24.2z M142.2,28.6L142.2,28.6l-1.6,9.1h3.1
			L142.2,28.6z"/>
		<path class="st2" d="M164.2,30.7c0-2.4-0.4-3.1-1.5-3.1c-1.7,0-1.9,1.6-1.9,7.3c0,5.8,0.2,7.3,1.9,7.3c1.4,0,1.7-1.2,1.7-5.2h5.4
			v1.6c0,6-3.5,7.4-7.1,7.4c-6.3,0-7.6-3.1-7.6-11.1c0-8.2,1.9-11.1,7.6-11.1c5,0,6.9,2.6,6.9,6.8v1.3h-5.4V30.7z"/>
		<path class="st2" d="M175.6,24.2h8.7c4.3,0,5.9,2.4,5.9,5.7c0,2.8-1.1,4.7-3.7,5.1V35c2.7,0.2,3.5,1.9,3.5,4.8v1.8
			c0,1.1,0,2.5,0.3,3c0.1,0.2,0.3,0.5,0.6,0.7v0.3H185c-0.5-1.1-0.5-3.2-0.5-4.1v-1.4c0-2.4-0.5-3.1-1.8-3.1h-1.5v8.6h-5.6V24.2z
			 M181.2,33.2h1.1c1.6,0,2.3-1,2.3-2.5c0-1.7-0.7-2.5-2.4-2.5h-1.1V33.2z"/>
		<path class="st2" d="M196.7,24.2h12.7v4.6h-7.1v3.7h6.6v4.4h-6.6V41h7.4v4.6h-12.9V24.2z"/>
		<path class="st2" d="M215.6,24.2h8.1c6.4,0,6.8,5.1,6.8,10.7c0,5.6-0.3,10.7-6.8,10.7h-8.1V24.2z M221.1,41.6h1.1
			c2.2,0,2.4-0.9,2.4-6.7c0-5.8-0.3-6.7-2.4-6.7h-1.1V41.6z"/>
		<path class="st2" d="M236.4,24.2h5.6v21.4h-5.6V24.2z"/>
		<path class="st2" d="M251.1,28.9h-4.2v-4.7h14v4.7h-4.2v16.6h-5.6V28.9z"/>
		<path class="st2" d="M267.8,24.2h7l5.2,21.4h-5.9l-0.6-3.7h-4.4l-0.6,3.7h-5.9L267.8,24.2z M271.4,28.6L271.4,28.6l-1.6,9.1h3.1
			L271.4,28.6z"/>
		<path class="st2" d="M284.8,24.2h8.1c6.4,0,6.8,5.1,6.8,10.7c0,5.6-0.3,10.7-6.8,10.7h-8.1V24.2z M290.4,41.6h1.1
			c2.2,0,2.4-0.9,2.4-6.7c0-5.8-0.3-6.7-2.4-6.7h-1.1V41.6z"/>
		<path class="st2" d="M312.9,23.8c5.7,0,7.6,3.1,7.6,11.1c0,8-1.9,11.1-7.6,11.1c-5.7,0-7.6-3.1-7.6-11.1
			C305.3,26.9,307.2,23.8,312.9,23.8z M312.9,42.2c1.7,0,1.9-1.6,1.9-7.3c0-5.8-0.2-7.3-1.9-7.3c-1.7,0-1.9,1.6-1.9,7.3
			C311,40.7,311.2,42.2,312.9,42.2z"/>
	</g>
	<g>
		<path class="st1" d="M124,56.7h2.4v3.8h-1.2l0-0.6h0c-0.2,0.6-0.9,0.8-1.5,0.8c-1.9,0-2-1.3-2-3.6c0-2.3,0.5-3.6,2.6-3.6
			c1.3,0,2.2,0.7,2.2,2.4h-1.8c0-0.4,0-0.6-0.1-0.8c-0.1-0.2-0.2-0.3-0.4-0.3c-0.6,0-0.7,0.5-0.7,2.4s0.1,2.4,0.6,2.4
			c0.4,0,0.6-0.2,0.6-1.5H124V56.7z"/>
		<path class="st1" d="M129.4,58.1v0.7c0,0.6,0.2,0.7,0.5,0.7c0.3,0,0.5-0.2,0.5-0.9h1.6c0,0.6-0.2,1.1-0.5,1.5
			c-0.3,0.3-0.8,0.5-1.6,0.5c-1.7,0-2.3-0.8-2.3-2.8c0-2,0.7-2.8,2.3-2.8c1.4,0,2.1,0.6,2.1,2.6v0.5H129.4z M130.4,56.9
			c0-0.6-0.1-0.8-0.5-0.8c-0.4,0-0.5,0.3-0.5,0.8v0.2h1V56.9z"/>
		<path class="st1" d="M134.7,58.8c0,0.2,0,0.4,0.1,0.5c0.1,0.1,0.2,0.2,0.4,0.2c0.3,0,0.5-0.2,0.5-0.5c0-0.9-2.6-0.4-2.6-2.4
			c0-0.9,0.7-1.7,2.1-1.7c1.3,0,2,0.6,2,1.7h-1.5c0-0.5-0.2-0.6-0.5-0.6c-0.3,0-0.5,0.2-0.5,0.4c0,0.9,2.6,0.3,2.6,2.3
			c0,1-0.8,1.8-2.1,1.8c-1.5,0-2.1-0.6-2.1-1.8H134.7z"/>
		<path class="st1" d="M138.3,55.2h0.6v-1.6h1.8v1.6h0.7v1.2h-0.7v2.5c0,0.3,0.1,0.4,0.4,0.4h0.3v1.2c-0.3,0-0.7,0.1-1,0.1
			c-1.1,0-1.5-0.2-1.5-1.4v-2.8h-0.6V55.2z"/>
		<path class="st1" d="M142.5,53.5h1.8v1.3h-1.8V53.5z M142.5,55.2h1.8v5.3h-1.8V55.2z"/>
		<path class="st1" d="M147.9,60.6c-2.1,0-2.3-1.3-2.3-2.8c0-1.4,0.3-2.8,2.3-2.8c2.1,0,2.3,1.3,2.3,2.8
			C150.2,59.2,149.9,60.6,147.9,60.6z M147.6,53.3h1.6l-0.9,1.4h-1.1L147.6,53.3z M147.9,59.5c0.4,0,0.5-0.3,0.5-1.7
			c0-1.3-0.1-1.7-0.5-1.7c-0.4,0-0.5,0.3-0.5,1.7C147.4,59.2,147.5,59.5,147.9,59.5z"/>
		<path class="st1" d="M151.5,55.2h1.7v0.6h0c0.2-0.5,0.7-0.8,1.3-0.8c0.8,0,1.4,0.3,1.4,1.4v4h-1.8V57c0-0.4-0.1-0.6-0.4-0.6
			c-0.3,0-0.4,0.2-0.4,0.6v3.5h-1.8V55.2z"/>
		<path class="st1" d="M160.7,53.5h1.8v7h-1.8V53.5z"/>
		<path class="st1" d="M164.1,55.2h1.7v0.6h0c0.2-0.5,0.7-0.8,1.3-0.8c0.8,0,1.4,0.3,1.4,1.4v4h-1.8V57c0-0.4-0.1-0.6-0.4-0.6
			c-0.3,0-0.4,0.2-0.4,0.6v3.5h-1.8V55.2z"/>
		<path class="st1" d="M171.3,58.8c0,0.2,0,0.4,0.1,0.5c0.1,0.1,0.2,0.2,0.4,0.2c0.3,0,0.5-0.2,0.5-0.5c0-0.9-2.6-0.4-2.6-2.4
			c0-0.9,0.7-1.7,2.1-1.7c1.3,0,2,0.6,2,1.7h-1.5c0-0.5-0.2-0.6-0.5-0.6c-0.3,0-0.5,0.2-0.5,0.4c0,0.9,2.6,0.3,2.6,2.3
			c0,1-0.8,1.8-2.1,1.8c-1.5,0-2.1-0.6-2.1-1.8H171.3z"/>
		<path class="st1" d="M175,55.2h0.6v-1.6h1.8v1.6h0.7v1.2h-0.7v2.5c0,0.3,0.1,0.4,0.4,0.4h0.3v1.2c-0.3,0-0.7,0.1-1,0.1
			c-1.1,0-1.5-0.2-1.5-1.4v-2.8H175V55.2z"/>
		<path class="st1" d="M179.2,53.5h1.8v1.3h-1.8V53.5z M179.2,55.2h1.8v5.3h-1.8V55.2z"/>
		<path class="st1" d="M182.2,55.2h0.6v-1.6h1.8v1.6h0.7v1.2h-0.7v2.5c0,0.3,0.1,0.4,0.4,0.4h0.3v1.2c-0.3,0-0.7,0.1-1,0.1
			c-1.1,0-1.5-0.2-1.5-1.4v-2.8h-0.6V55.2z"/>
		<path class="st1" d="M186.4,55.2h1.8v3.5c0,0.4,0.1,0.6,0.4,0.6s0.4-0.2,0.4-0.6v-3.5h1.8v5.3h-1.7v-0.6h0
			c-0.2,0.5-0.7,0.8-1.3,0.8c-0.8,0-1.4-0.3-1.4-1.4V55.2z"/>
		<path class="st1" d="M194.9,57.3c0-0.4,0-0.7-0.1-0.9c-0.1-0.2-0.2-0.2-0.4-0.2c-0.4,0-0.5,0.4-0.5,1.7c0,1.3,0.1,1.7,0.5,1.7
			c0.3,0,0.5-0.2,0.5-0.9v-0.3h1.6c0,0.8-0.1,1.4-0.5,1.8c-0.3,0.4-0.9,0.6-1.6,0.6c-1.4,0-2.3-0.4-2.3-2.7c0-2.5,1.1-2.9,2.4-2.9
			c1.6,0,2,0.9,2,2.2H194.9z"/>
		<path class="st1" d="M197.8,53.5h1.8v1.3h-1.8V53.5z M197.8,55.2h1.8v5.3h-1.8V55.2z"/>
		<path class="st1" d="M203.2,60.6c-2.1,0-2.3-1.3-2.3-2.8c0-1.4,0.3-2.8,2.3-2.8c2.1,0,2.3,1.3,2.3,2.8
			C205.5,59.2,205.2,60.6,203.2,60.6z M203.2,59.5c0.4,0,0.5-0.3,0.5-1.7c0-1.3-0.1-1.7-0.5-1.7c-0.4,0-0.5,0.3-0.5,1.7
			C202.7,59.2,202.8,59.5,203.2,59.5z"/>
		<path class="st1" d="M206.8,55.2h1.7v0.6h0c0.2-0.5,0.7-0.8,1.3-0.8c0.8,0,1.4,0.3,1.4,1.4v4h-1.8V57c0-0.4-0.1-0.6-0.4-0.6
			c-0.3,0-0.4,0.2-0.4,0.6v3.5h-1.8V55.2z"/>
		<path class="st1" d="M215.3,60.5c-0.1-0.2-0.1-0.4-0.1-0.6h0c-0.2,0.5-0.7,0.7-1.2,0.7c-1.1,0-1.5-0.6-1.5-1.6
			c0-1,0.3-1.4,1.5-1.7l0.7-0.2c0.4-0.1,0.5-0.3,0.5-0.6c0-0.3-0.1-0.5-0.5-0.5c-0.3,0-0.5,0.1-0.5,0.7h-1.5c0-1.5,1.2-1.8,2-1.8
			c1.2,0,2.1,0.3,2.1,1.7v2.6c0,0.5,0,0.9,0.2,1.1H215.3z M215.1,58.6v-0.6h0c-0.1,0.1-0.3,0.1-0.6,0.2c-0.3,0.1-0.4,0.3-0.4,0.7
			c0,0.4,0.2,0.6,0.4,0.6C215,59.4,215.1,59.2,215.1,58.6z"/>
		<path class="st1" d="M218.4,53.5h1.8v7h-1.8V53.5z"/>
	</g>
	<g>
		<path class="st1" d="M226.1,53.3h1.3l-2.2,7.3h-1.3L226.1,53.3z"/>
	</g>
	<g>
		<path class="st1" d="M230.4,53.5h2.7c2.1,0,2.2,1.7,2.2,3.5c0,1.8-0.1,3.5-2.2,3.5h-2.7V53.5z M232.2,59.2h0.4
			c0.7,0,0.8-0.3,0.8-2.2s-0.1-2.2-0.8-2.2h-0.4V59.2z"/>
		<path class="st1" d="M238.8,60.6c-2.1,0-2.3-1.3-2.3-2.8c0-1.4,0.3-2.8,2.3-2.8c2.1,0,2.3,1.3,2.3,2.8
			C241.1,59.2,240.8,60.6,238.8,60.6z M238.8,59.5c0.4,0,0.5-0.3,0.5-1.7c0-1.3-0.1-1.7-0.5-1.7c-0.4,0-0.5,0.3-0.5,1.7
			C238.3,59.2,238.4,59.5,238.8,59.5z"/>
		<path class="st1" d="M245.1,57.3c0-0.4,0-0.7-0.1-0.9c-0.1-0.2-0.2-0.2-0.4-0.2c-0.4,0-0.5,0.4-0.5,1.7c0,1.3,0.1,1.7,0.5,1.7
			c0.3,0,0.5-0.2,0.5-0.9v-0.3h1.6c0,0.8-0.1,1.4-0.5,1.8c-0.3,0.4-0.9,0.6-1.6,0.6c-1.4,0-2.3-0.4-2.3-2.7c0-2.5,1.1-2.9,2.4-2.9
			c1.6,0,2,0.9,2,2.2H245.1z"/>
		<path class="st1" d="M249.5,58.1v0.7c0,0.6,0.2,0.7,0.5,0.7c0.3,0,0.5-0.2,0.5-0.9h1.6c0,0.6-0.2,1.1-0.5,1.5
			c-0.3,0.3-0.8,0.5-1.6,0.5c-1.7,0-2.3-0.8-2.3-2.8c0-2,0.7-2.8,2.3-2.8c1.4,0,2.1,0.6,2.1,2.6v0.5H249.5z M250.5,56.9
			c0-0.6-0.1-0.8-0.5-0.8c-0.4,0-0.5,0.3-0.5,0.8v0.2h1V56.9z"/>
		<path class="st1" d="M253.4,55.2h1.7v0.6h0c0.2-0.5,0.7-0.8,1.3-0.8c0.8,0,1.4,0.3,1.4,1.4v4h-1.8V57c0-0.4-0.1-0.6-0.4-0.6
			c-0.3,0-0.4,0.2-0.4,0.6v3.5h-1.8V55.2z"/>
		<path class="st1" d="M262,57.3c0-0.4,0-0.7-0.1-0.9c-0.1-0.2-0.2-0.2-0.4-0.2c-0.4,0-0.5,0.4-0.5,1.7c0,1.3,0.1,1.7,0.5,1.7
			c0.3,0,0.5-0.2,0.5-0.9v-0.3h1.6c0,0.8-0.1,1.4-0.5,1.8c-0.3,0.4-0.9,0.6-1.6,0.6c-1.4,0-2.3-0.4-2.3-2.7c0-2.5,1.1-2.9,2.4-2.9
			c1.6,0,2,0.9,2,2.2H262z"/>
		<path class="st1" d="M264.9,53.5h1.8v1.3h-1.8V53.5z M264.9,55.2h1.8v5.3h-1.8V55.2z"/>
		<path class="st1" d="M270.7,60.5c-0.1-0.2-0.1-0.4-0.1-0.6h0c-0.2,0.5-0.7,0.7-1.2,0.7c-1.1,0-1.5-0.6-1.5-1.6
			c0-1,0.3-1.4,1.5-1.7l0.7-0.2c0.4-0.1,0.5-0.3,0.5-0.6c0-0.3-0.1-0.5-0.5-0.5c-0.3,0-0.5,0.1-0.5,0.7h-1.5c0-1.5,1.2-1.8,2-1.8
			c1.2,0,2.1,0.3,2.1,1.7v2.6c0,0.5,0,0.9,0.2,1.1H270.7z M270.6,58.6v-0.6h0c-0.1,0.1-0.3,0.1-0.6,0.2c-0.3,0.1-0.4,0.3-0.4,0.7
			c0,0.4,0.2,0.6,0.4,0.6C270.5,59.4,270.6,59.2,270.6,58.6z"/>
		<path class="st1" d="M279.8,53.5h1.8v7h-1.7v-0.7h0c-0.2,0.6-0.6,0.9-1.2,0.9c-1.2,0-1.6-0.9-1.6-2.9c0-2,0.6-2.7,1.6-2.7
			c0.5,0,0.9,0.2,1.1,0.7h0V53.5z M279.3,59.3c0.4,0,0.5-0.3,0.5-1.5c0-1.1-0.1-1.5-0.5-1.5c-0.4,0-0.5,0.3-0.5,1.5
			C278.8,59,278.9,59.3,279.3,59.3z"/>
		<path class="st1" d="M284.7,58.1v0.7c0,0.6,0.2,0.7,0.5,0.7c0.3,0,0.5-0.2,0.5-0.9h1.6c0,0.6-0.2,1.1-0.5,1.5
			c-0.3,0.3-0.8,0.5-1.6,0.5c-1.7,0-2.3-0.8-2.3-2.8c0-2,0.7-2.8,2.3-2.8c1.4,0,2.1,0.6,2.1,2.6v0.5H284.7z M285.7,56.9
			c0-0.6-0.1-0.8-0.5-0.8c-0.4,0-0.5,0.3-0.5,0.8v0.2h1V56.9z"/>
		<path class="st1" d="M291.9,53.5h2.7c1.4,0,2,0.9,2,2.2c0,1.4-0.8,2.2-2.3,2.2h-0.6v2.7h-1.8V53.5z M293.7,56.5h0.3
			c0.5,0,0.7-0.3,0.7-0.9c0-0.6-0.2-0.9-0.7-0.9h-0.3V56.5z"/>
		<path class="st1" d="M297.9,55.2h1.7V56h0c0.2-0.6,0.7-1,1.2-1h0.3v1.7c-0.2,0-0.3,0-0.4,0c-0.6,0-1,0.2-1,0.9v2.9h-1.8V55.2z"/>
		<path class="st1" d="M303.8,58.1v0.7c0,0.6,0.2,0.7,0.5,0.7c0.3,0,0.5-0.2,0.5-0.9h1.6c0,0.6-0.2,1.1-0.5,1.5
			c-0.3,0.3-0.8,0.5-1.6,0.5c-1.7,0-2.3-0.8-2.3-2.8c0-2,0.7-2.8,2.3-2.8c1.4,0,2.1,0.6,2.1,2.6v0.5H303.8z M304.8,56.9
			c0-0.6-0.1-0.8-0.5-0.8c-0.4,0-0.5,0.3-0.5,0.8v0.2h1V56.9z"/>
		<path class="st1" d="M310.4,55.2h1.6v5.2c0,1.5-1,1.9-2.2,1.9c-1.1,0-2-0.3-2.1-1.5h1.6c0,0.3,0.2,0.4,0.4,0.4
			c0.3,0,0.5-0.1,0.5-0.7v-1h0c-0.2,0.6-0.7,0.8-1.2,0.8c-0.7,0-1.6-0.4-1.6-2.6c0-2.1,0.6-2.7,1.6-2.7c0.5,0,1,0.2,1.2,0.9h0V55.2z
			 M309.9,59c0.3,0,0.5-0.2,0.5-1.3c0-1.1-0.2-1.3-0.5-1.3c-0.3,0-0.5,0.2-0.5,1.3C309.4,58.8,309.6,59,309.9,59z"/>
		<path class="st1" d="M313.6,55.2h1.7V56h0c0.2-0.6,0.7-1,1.2-1h0.3v1.7c-0.2,0-0.3,0-0.4,0c-0.6,0-1,0.2-1,0.9v2.9h-1.8V55.2z"/>
		<path class="st1" d="M320.4,60.5c-0.1-0.2-0.1-0.4-0.1-0.6h0c-0.2,0.5-0.7,0.7-1.2,0.7c-1.1,0-1.5-0.6-1.5-1.6
			c0-1,0.3-1.4,1.5-1.7l0.7-0.2c0.4-0.1,0.5-0.3,0.5-0.6c0-0.3-0.1-0.5-0.5-0.5c-0.3,0-0.5,0.1-0.5,0.7h-1.5c0-1.5,1.2-1.8,2-1.8
			c1.2,0,2.1,0.3,2.1,1.7v2.6c0,0.5,0,0.9,0.2,1.1H320.4z M320.3,58.6v-0.6h0c-0.1,0.1-0.3,0.1-0.6,0.2c-0.3,0.1-0.4,0.3-0.4,0.7
			c0,0.4,0.2,0.6,0.4,0.6C320.2,59.4,320.3,59.2,320.3,58.6z"/>
		<path class="st1" d="M326.1,53.5h1.8v7h-1.7v-0.7h0c-0.2,0.6-0.6,0.9-1.2,0.9c-1.2,0-1.6-0.9-1.6-2.9c0-2,0.6-2.7,1.6-2.7
			c0.5,0,0.9,0.2,1.1,0.7h0V53.5z M325.7,59.3c0.4,0,0.5-0.3,0.5-1.5c0-1.1-0.1-1.5-0.5-1.5c-0.4,0-0.5,0.3-0.5,1.5
			C325.2,59,325.2,59.3,325.7,59.3z"/>
		<path class="st1" d="M331.5,60.6c-2.1,0-2.3-1.3-2.3-2.8c0-1.4,0.3-2.8,2.3-2.8c2.1,0,2.3,1.3,2.3,2.8
			C333.8,59.2,333.5,60.6,331.5,60.6z M331.5,59.5c0.4,0,0.5-0.3,0.5-1.7c0-1.3-0.1-1.7-0.5-1.7c-0.4,0-0.5,0.3-0.5,1.7
			C331.1,59.2,331.1,59.5,331.5,59.5z"/>
	</g>
	<g>
		<path class="st1" d="M130.3,70.2c0,0.6,0.1,1.1,0.6,1.1c0.4,0,0.6-0.2,0.6-1c0-0.9-0.2-1.1-0.9-1.1h-0.4v-1h0.5
			c0.5,0,0.7-0.4,0.7-1c0-0.5-0.2-0.8-0.5-0.8c-0.4,0-0.6,0.2-0.6,1h-1.5c0-0.7,0.2-1.2,0.5-1.5c0.4-0.3,0.9-0.5,1.7-0.5
			c1.4,0,2,0.6,2,1.9c0,0.7-0.4,1.2-1,1.4v0c0.8,0.2,1.1,0.7,1.1,1.7c0,1.5-1,2.1-2.2,2.1c-1.4,0-2.3-0.4-2.3-2.2H130.3z"/>
		<path class="st1" d="M137.9,65.3h2.1l1.7,7H140l-0.3-1.3h-1.7l-0.2,1.3h-1.7L137.9,65.3z M138.9,66.6L138.9,66.6l-0.6,3.1h1.2
			L138.9,66.6z"/>
		<path class="st1" d="M142.2,65.3h1.9l1.4,4.6h0v-4.6h1.5v7h-1.9l-1.4-4.8h0v4.8h-1.5V65.3z M146.2,63.5c0,0.6-0.3,1.3-1,1.3
			c-0.5,0-0.9-0.3-1.2-0.3c-0.2,0-0.3,0.2-0.3,0.3H143c0-0.3,0.1-0.7,0.3-0.9c0.2-0.2,0.4-0.4,0.7-0.4c0.3,0,0.5,0.1,0.7,0.1
			c0.2,0.1,0.4,0.1,0.5,0.1c0.2,0,0.3-0.2,0.3-0.3H146.2z"/>
		<path class="st1" d="M150.4,72.4c-2.2,0-2.5-1.4-2.5-3.6s0.3-3.6,2.5-3.6c2.3,0,2.5,1.7,2.5,3.6C152.8,70.7,152.7,72.4,150.4,72.4
			z M150.4,71.3c0.7,0,0.8-0.6,0.8-2.5c0-1.9-0.1-2.5-0.8-2.5c-0.6,0-0.7,0.6-0.7,2.5C149.6,70.7,149.7,71.3,150.4,71.3z"/>
		<path class="st1" d="M155.1,70.1v0.2c0,0.5,0.1,0.9,0.7,0.9c0.6,0,0.7-0.4,0.7-0.8c0-1.5-3-0.7-3-3.3c0-1.1,0.6-2.1,2.3-2.1
			c1.6,0,2.2,0.8,2.2,1.9v0.2h-1.6c0-0.3,0-0.6-0.1-0.7c-0.1-0.2-0.3-0.2-0.5-0.2c-0.4,0-0.7,0.2-0.7,0.8c0,1.5,3,0.7,3,3.2
			c0,1.6-0.9,2.2-2.4,2.2c-1.2,0-2.3-0.4-2.3-1.8v-0.5H155.1z"/>
		<path class="st1" d="M163.2,65.1h1.3l-2.2,7.3H161L163.2,65.1z"/>
		<path class="st1" d="M167.5,65.3h2.4c1.6,0,2.3,0.8,2.3,3.3c0,2.5-0.3,3.7-2.5,3.7h-2.3V65.3z M169.2,71.1h0.4c0.8,0,1-0.3,1-2.4
			c0-1.7-0.1-2.2-1-2.2h-0.5V71.1z"/>
		<path class="st1" d="M174.5,69.9v0.3c0,0.8,0.1,1.2,0.6,1.2c0.4,0,0.5-0.3,0.6-1h1.5c0,1.3-0.7,2-2.1,2c-2,0-2.2-1.4-2.2-3
			c0-1.5,0.4-2.6,2.2-2.6c2,0,2.1,1.2,2.1,3.1H174.5z M175.7,69c0-0.7-0.1-1.1-0.5-1.1c-0.5,0-0.6,0.4-0.6,1.1H175.7z"/>
		<path class="st1" d="M179,70.6c0,0.2,0,0.4,0.1,0.6c0.1,0.1,0.2,0.2,0.5,0.2c0.4,0,0.6-0.2,0.6-0.5c0-0.2-0.1-0.5-0.6-0.6
			c-1.3-0.4-1.9-0.7-1.9-1.8c0-1.1,0.7-1.6,2-1.6c1.5,0,1.9,0.7,1.9,1.5v0.2h-1.4v-0.1c0-0.5-0.2-0.6-0.5-0.6
			c-0.4,0-0.5,0.2-0.5,0.5c0,0.9,2.5,0.3,2.5,2.4c0,1.1-0.7,1.7-2,1.7c-1.4,0-2-0.5-2-1.6v-0.2H179z"/>
		<path class="st1" d="M185.1,71.6L185.1,71.6c-0.1,0.4-0.5,0.8-1.2,0.8c-1.1,0-1.6-0.8-1.6-2.8c0-1.6,0.2-2.8,1.5-2.8
			c0.4,0,0.9,0.1,1.2,0.7h0v-2.3h1.6v7h-1.5V71.6z M184.4,68c-0.6,0-0.6,0.6-0.6,1.6c0,0.9,0,1.7,0.6,1.7c0.5,0,0.6-0.6,0.6-1.6
			C185,68.7,185,68,184.4,68z"/>
		<path class="st1" d="M188.9,69.9v0.3c0,0.8,0.1,1.2,0.6,1.2c0.4,0,0.5-0.3,0.6-1h1.5c0,1.3-0.7,2-2.1,2c-2,0-2.2-1.4-2.2-3
			c0-1.5,0.4-2.6,2.2-2.6c2,0,2.1,1.2,2.1,3.1H188.9z M190,69c0-0.7-0.1-1.1-0.5-1.1c-0.5,0-0.6,0.4-0.6,1.1H190z"/>
		<path class="st1" d="M194.8,65.3h1.9l1.4,4.6h0v-4.6h1.5v7h-1.9l-1.4-4.8h0v4.8h-1.5V65.3z"/>
		<path class="st1" d="M200.4,69.6c0-1.6,0.4-2.8,2.2-2.8c1.9,0,2.2,1.2,2.2,2.8s-0.4,2.8-2.2,2.8C200.6,72.4,200.4,71.2,200.4,69.6
			z M202.6,67.9c-0.5,0-0.6,0.5-0.6,1.7c0,1.3,0.1,1.8,0.6,1.8c0.5,0,0.6-0.4,0.6-1.7C203.2,68.3,203.1,67.9,202.6,67.9z"/>
		<path class="st1" d="M205.1,67h1.6l0.6,3.9h0L208,67h1.6l-1.3,5.3h-1.9L205.1,67z"/>
		<path class="st1" d="M209.7,70.5h1.5v1.8h-1.5V70.5z"/>
		<path class="st1" d="M217.1,71.6L217.1,71.6c-0.1,0.4-0.5,0.8-1.2,0.8c-1.1,0-1.6-0.8-1.6-2.8c0-1.6,0.2-2.8,1.5-2.8
			c0.4,0,0.9,0.1,1.2,0.7h0v-2.3h1.6v7h-1.5V71.6z M216.4,68c-0.6,0-0.6,0.6-0.6,1.6c0,0.9,0,1.7,0.6,1.7c0.5,0,0.6-0.6,0.6-1.6
			C217,68.7,217,68,216.4,68z"/>
		<path class="st1" d="M220.9,69.9v0.3c0,0.8,0.1,1.2,0.6,1.2c0.4,0,0.5-0.3,0.6-1h1.5c0,1.3-0.7,2-2.1,2c-2,0-2.2-1.4-2.2-3
			c0-1.5,0.4-2.6,2.2-2.6c2,0,2.1,1.2,2.1,3.1H220.9z M222,69c0-0.7-0.1-1.1-0.5-1.1c-0.5,0-0.6,0.4-0.6,1.1H222z"/>
		<path class="st1" d="M226.7,67.6v-0.2c0-1.4,0.7-2.1,2.2-2.1c1.7,0,2.1,0.9,2.1,1.9c0,1-0.2,1.4-1.1,2.3c-0.7,0.6-1.2,1.1-1.4,1.5
			h2.5v1.3h-4.4c0-1.6,1-2.6,1.6-3.1c1.2-1.1,1.2-1.3,1.2-1.9c0-0.5-0.1-0.9-0.6-0.9c-0.6,0-0.6,0.7-0.6,1.3H226.7z"/>
		<path class="st1" d="M234,72.4c-2.1,0-2.3-1.3-2.3-3.5c0-2,0.2-3.5,2.3-3.5c2.1,0,2.3,1.3,2.3,3.5C236.2,70.9,236,72.4,234,72.4z
			 M234,71.4c0.6,0,0.6-0.5,0.6-2.5c0-2-0.1-2.5-0.6-2.5c-0.6,0-0.6,0.5-0.6,2.5C233.3,70.9,233.4,71.4,234,71.4z"/>
		<path class="st1" d="M238.5,67.5h-1.3v-1h0.2c1.2,0,1.5-0.6,1.6-1.1h1.2v7h-1.7V67.5z"/>
		<path class="st1" d="M241.8,69.7l2.3-4.2h1.8v4.2h0.6v1.3h-0.6v1.3h-1.5v-1.3h-2.5V69.7z M244.3,67.3L244.3,67.3l-1.2,2.3h1.2
			V67.3z"/>
		<path class="st1" d="M249.7,65.3h1.6v2.3h0c0.3-0.5,0.7-0.7,1.2-0.7c0.9,0,1.4,0.5,1.4,1.5v4h-1.6v-3.6c0-0.4-0.2-0.6-0.5-0.6
			c-0.3,0-0.6,0.2-0.6,0.8v3.5h-1.6V65.3z"/>
		<path class="st1" d="M254.8,68.6c0-0.7,0.2-1.2,0.6-1.4c0.4-0.3,0.8-0.3,1.5-0.3c1.3,0,1.9,0.5,1.9,1.6v2.7c0,0.4,0,0.9,0.2,1.1
			h-1.5c-0.1-0.2-0.1-0.4-0.1-0.6h0c-0.2,0.5-0.7,0.7-1.2,0.7c-0.9,0-1.4-0.5-1.4-1.6c0-0.6,0.3-1.1,0.6-1.4c0.4-0.2,1-0.3,1.4-0.4
			c0.5-0.1,0.6-0.2,0.6-0.6c0-0.3-0.1-0.5-0.5-0.5c-0.4,0-0.6,0.3-0.6,0.7H254.8z M256.6,71.3c0.3,0,0.6-0.2,0.6-0.7
			c0-0.4,0-0.7,0-0.9c-0.5,0.3-0.7,0.3-0.9,0.4c-0.2,0.1-0.2,0.3-0.2,0.6C256.2,71.1,256.3,71.3,256.6,71.3z"/>
		<path class="st1" d="M261,70.6c0,0.2,0,0.4,0.1,0.6c0.1,0.1,0.2,0.2,0.5,0.2c0.4,0,0.6-0.2,0.6-0.5c0-0.2-0.1-0.5-0.6-0.6
			c-1.3-0.4-1.9-0.7-1.9-1.8c0-1.1,0.7-1.6,2-1.6c1.5,0,1.9,0.7,1.9,1.5v0.2h-1.4v-0.1c0-0.5-0.2-0.6-0.5-0.6
			c-0.4,0-0.5,0.2-0.5,0.5c0,0.9,2.5,0.3,2.5,2.4c0,1.1-0.7,1.7-2,1.7c-1.4,0-2-0.5-2-1.6v-0.2H261z"/>
		<path class="st1" d="M264.5,68.1h-0.7V67h0.7v-1.6h1.6V67h0.7v1.1h-0.7v2.7c0,0.4,0.1,0.5,0.5,0.5c0.1,0,0.2,0,0.2,0v1.1
			c-0.3,0-0.6,0.1-0.9,0.1c-1.1,0-1.4-0.2-1.4-1.4V68.1z"/>
		<path class="st1" d="M267.4,68.6c0-0.7,0.2-1.2,0.6-1.4c0.4-0.3,0.8-0.3,1.5-0.3c1.3,0,1.9,0.5,1.9,1.6v2.7c0,0.4,0,0.9,0.2,1.1
			H270c-0.1-0.2-0.1-0.4-0.1-0.6h0c-0.2,0.5-0.7,0.7-1.2,0.7c-0.9,0-1.4-0.5-1.4-1.6c0-0.6,0.3-1.1,0.6-1.4c0.4-0.2,1-0.3,1.4-0.4
			c0.5-0.1,0.6-0.2,0.6-0.6c0-0.3-0.1-0.5-0.5-0.5c-0.4,0-0.6,0.3-0.6,0.7H267.4z M269.2,71.3c0.3,0,0.6-0.2,0.6-0.7
			c0-0.4,0-0.7,0-0.9c-0.5,0.3-0.7,0.3-0.9,0.4c-0.2,0.1-0.2,0.3-0.2,0.6C268.7,71.1,268.9,71.3,269.2,71.3z"/>
		<path class="st1" d="M274.9,65.3h1.9l1.4,4.6h0v-4.6h1.5v7h-1.9l-1.4-4.8h0v4.8h-1.5V65.3z"/>
		<path class="st1" d="M280.5,69.6c0-1.6,0.4-2.8,2.2-2.8c1.9,0,2.2,1.2,2.2,2.8s-0.4,2.8-2.2,2.8C280.7,72.4,280.5,71.2,280.5,69.6
			z M282.7,67.9c-0.5,0-0.6,0.5-0.6,1.7c0,1.3,0.1,1.8,0.6,1.8c0.5,0,0.6-0.4,0.6-1.7C283.3,68.3,283.2,67.9,282.7,67.9z"/>
		<path class="st1" d="M285.2,67h1.6l0.6,3.9h0l0.6-3.9h1.6l-1.3,5.3h-1.9L285.2,67z"/>
		<path class="st1" d="M289.8,70.5h1.5v1.8h-1.5V70.5z"/>
		<path class="st1" d="M297.1,71.6L297.1,71.6c-0.1,0.4-0.5,0.8-1.2,0.8c-1.1,0-1.6-0.8-1.6-2.8c0-1.6,0.2-2.8,1.5-2.8
			c0.4,0,0.9,0.1,1.2,0.7h0v-2.3h1.6v7h-1.5V71.6z M296.5,68c-0.6,0-0.6,0.6-0.6,1.6c0,0.9,0,1.7,0.6,1.7c0.5,0,0.6-0.6,0.6-1.6
			C297.1,68.7,297.1,68,296.5,68z"/>
		<path class="st1" d="M301,69.9v0.3c0,0.8,0.1,1.2,0.6,1.2c0.4,0,0.5-0.3,0.6-1h1.5c0,1.3-0.7,2-2.1,2c-2,0-2.2-1.4-2.2-3
			c0-1.5,0.4-2.6,2.2-2.6c2,0,2.1,1.2,2.1,3.1H301z M302.1,69c0-0.7-0.1-1.1-0.5-1.1c-0.5,0-0.6,0.4-0.6,1.1H302.1z"/>
		<path class="st1" d="M306.8,67.6v-0.2c0-1.4,0.7-2.1,2.2-2.1c1.7,0,2.1,0.9,2.1,1.9c0,1-0.2,1.4-1.1,2.3c-0.7,0.6-1.2,1.1-1.4,1.5
			h2.5v1.3h-4.4c0-1.6,1-2.6,1.6-3.1c1.2-1.1,1.2-1.3,1.2-1.9c0-0.5-0.1-0.9-0.6-0.9c-0.6,0-0.6,0.7-0.6,1.3H306.8z"/>
		<path class="st1" d="M314.1,72.4c-2.1,0-2.3-1.3-2.3-3.5c0-2,0.2-3.5,2.3-3.5c2.1,0,2.3,1.3,2.3,3.5
			C316.3,70.9,316.1,72.4,314.1,72.4z M314.1,71.4c0.6,0,0.6-0.5,0.6-2.5c0-2-0.1-2.5-0.6-2.5c-0.6,0-0.6,0.5-0.6,2.5
			C313.4,70.9,313.5,71.4,314.1,71.4z"/>
		<path class="st1" d="M318.5,67.5h-1.3v-1h0.2c1.2,0,1.5-0.6,1.6-1.1h1.2v7h-1.7V67.5z"/>
		<path class="st1" d="M322,66.9v-1.4h4.4v1.2c-1.1,1.6-1.8,4-1.9,5.6h-1.7c0.1-1.6,1-4.1,2-5.4H322z"/>
	</g>
</g>
</svg>
