<?xml version="1.0" encoding="utf-8"?>
<!-- Generator: Adobe Illustrator 19.2.0, SVG Export Plug-In . SVG Version: 6.00 Build 0)  -->
<svg version="1.1" id="Capa_1" xmlns="http://www.w3.org/2000/svg" xmlns:xlink="http://www.w3.org/1999/xlink" x="0px" y="0px"
	 width="104.4px" height="80px" viewBox="0 0 104.4 80" style="enable-background:new 0 0 104.4 80;" xml:space="preserve">
<style type="text/css">
	.st0{fill:#003B30;}
	.st1{fill-rule:evenodd;clip-rule:evenodd;fill:#003B30;}
</style>
<g>
	<path class="st0" d="M8,54.4c-0.2,0.1-0.4,0.2-0.6,0.2c-0.2,0.1-0.5,0.1-0.8,0.2C6.3,54.9,6,55,5.7,55c-0.7,0-1.3-0.1-1.8-0.3
		c-0.6-0.2-1-0.6-1.4-1c-0.4-0.4-0.7-1-0.9-1.6c-0.2-0.7-0.3-1.4-0.3-2.2c0-0.8,0.1-1.6,0.3-2.2c0.2-0.6,0.6-1.2,1-1.6
		c0.4-0.5,0.9-0.8,1.5-1c0.6-0.2,1.2-0.3,1.9-0.3c0.5,0,1,0.1,1.5,0.2c0.5,0.1,0.9,0.3,1.2,0.5c-0.1,0.1-0.1,0.3-0.2,0.6
		c0,0.2-0.1,0.4-0.1,0.6l-0.1,0C8.1,46.3,8,46.1,7.9,46c-0.2-0.2-0.3-0.3-0.5-0.4c-0.2-0.1-0.4-0.3-0.7-0.3
		c-0.3-0.1-0.5-0.1-0.8-0.1c-0.5,0-0.9,0.1-1.4,0.3c-0.4,0.2-0.8,0.5-1.1,0.9c-0.3,0.4-0.6,0.9-0.7,1.5c-0.2,0.6-0.3,1.3-0.3,2.1
		c0,0.8,0.1,1.5,0.3,2.1c0.2,0.6,0.4,1.1,0.7,1.5c0.3,0.4,0.7,0.7,1.1,0.9c0.4,0.2,0.9,0.3,1.4,0.3c0.3,0,0.6,0,0.8-0.1
		c0.3-0.1,0.5-0.2,0.7-0.3c0.2-0.1,0.4-0.3,0.6-0.4c0.2-0.1,0.3-0.3,0.4-0.4l0.1,0.1l-0.1,0.9C8.2,54.3,8.1,54.3,8,54.4"/>
	<path class="st0" d="M9.7,49.6c0.2-0.5,0.4-0.8,0.7-1.1c0.3-0.3,0.6-0.5,1-0.6c0.4-0.1,0.7-0.2,1.1-0.2c0.4,0,0.7,0.1,1.1,0.2
		c0.3,0.1,0.7,0.3,1,0.6c0.3,0.3,0.5,0.7,0.7,1.1c0.2,0.5,0.3,1,0.3,1.7c0,0.7-0.1,1.2-0.3,1.7c-0.2,0.5-0.4,0.8-0.7,1.1
		c-0.3,0.3-0.6,0.5-1,0.6c-0.4,0.1-0.7,0.2-1.1,0.2c-0.4,0-0.7-0.1-1.1-0.2c-0.4-0.1-0.7-0.3-1-0.6c-0.3-0.3-0.5-0.7-0.7-1.1
		c-0.2-0.5-0.3-1-0.3-1.7C9.4,50.7,9.5,50.1,9.7,49.6 M10.6,52.5c0.1,0.4,0.2,0.7,0.3,1c0.1,0.3,0.3,0.5,0.6,0.7
		c0.2,0.2,0.6,0.3,0.9,0.3c0.4,0,0.7-0.1,0.9-0.3c0.2-0.2,0.4-0.4,0.6-0.7c0.1-0.3,0.3-0.6,0.3-1c0.1-0.4,0.1-0.8,0.1-1.2
		c0-0.4,0-0.8-0.1-1.2c-0.1-0.4-0.2-0.7-0.3-1c-0.2-0.3-0.3-0.5-0.6-0.7c-0.3-0.2-0.6-0.3-0.9-0.3c-0.4,0-0.7,0.1-0.9,0.3
		c-0.2,0.2-0.5,0.4-0.6,0.7c-0.2,0.3-0.3,0.6-0.3,1c-0.1,0.4-0.1,0.8-0.1,1.2C10.5,51.7,10.5,52.1,10.6,52.5"/>
	<path class="st0" d="M16.8,49.2c0-0.5,0-0.9-0.1-1.4c0.2,0,0.4,0.1,0.6,0.1c0.1,0,0.1,0,0.2,0c0.1,0,0.2,0,0.3-0.1
		c0,0.4,0,0.8,0,1.2h0c0.4-0.9,1.1-1.3,1.8-1.3c0.2,0,0.4,0,0.6,0.1c0.2,0.1,0.4,0.2,0.5,0.3c0.2,0.1,0.3,0.3,0.4,0.5
		c0.1,0.2,0.2,0.4,0.2,0.6h0c0.2-0.5,0.5-0.8,0.8-1.1c0.3-0.2,0.7-0.4,1.2-0.4c0.3,0,0.5,0,0.8,0.1c0.2,0.1,0.4,0.2,0.6,0.4
		c0.2,0.2,0.3,0.4,0.4,0.7c0.1,0.3,0.1,0.6,0.1,1.1c0,0.2,0,0.3,0,0.5c0,0.2,0,0.4,0,0.7c0,0.3,0,0.5,0,0.9c0,0.3,0,0.7,0,1.1
		c0,0.3,0,0.5,0,0.8c0,0.2,0,0.5,0,0.8c-0.1,0-0.2,0-0.3,0h-0.3h-0.3c-0.1,0-0.2,0-0.3,0c0-0.2,0.1-0.7,0.1-1.5c0-0.7,0-1.8,0-3.1
		c0-0.2,0-0.5-0.1-0.7c0-0.2-0.1-0.4-0.2-0.6c-0.1-0.2-0.2-0.3-0.4-0.4c-0.2-0.1-0.4-0.1-0.6-0.1c-0.3,0-0.5,0.1-0.8,0.2
		c-0.2,0.1-0.4,0.3-0.5,0.5c-0.1,0.1-0.1,0.2-0.2,0.3c0,0.1-0.1,0.3-0.1,0.5c0,0.2,0,0.5,0,0.9c0,0.4,0,0.9,0,1.6c0,0.4,0,0.8,0,1.1
		c0,0.3,0,0.7,0,1.1c-0.2,0-0.4,0-0.5,0c-0.2,0-0.3,0-0.5,0c0-0.5,0.1-1.1,0.1-1.6c0-0.6,0-1.1,0-1.6c0-0.5,0-0.8,0-1.1
		c0-0.3,0-0.5,0-0.6c0-0.2,0-0.3-0.1-0.4c0-0.1-0.1-0.2-0.1-0.3c-0.1-0.2-0.2-0.3-0.4-0.5c-0.2-0.1-0.4-0.2-0.6-0.2
		c-0.5,0-0.9,0.2-1.2,0.6c-0.3,0.4-0.4,1-0.4,1.8v1.2c0,0.4,0,0.9,0,1.4c0,0.5,0,0.9,0.1,1.3c-0.2,0-0.4,0-0.6,0c-0.2,0-0.4,0-0.6,0
		c0-0.4,0.1-0.8,0.1-1.3c0-0.5,0-0.9,0-1.4v-1.5C16.9,50.1,16.8,49.7,16.8,49.2"/>
	<path class="st0" d="M27.5,44.8c0.1-0.1,0.3-0.2,0.4-0.2c0.2,0,0.3,0.1,0.4,0.2c0.1,0.2,0.2,0.3,0.2,0.5c0,0.2-0.1,0.4-0.2,0.5
		C28.3,46,28.1,46,28,46c-0.2,0-0.3-0.1-0.4-0.2c-0.1-0.2-0.2-0.3-0.2-0.5C27.3,45.1,27.4,44.9,27.5,44.8 M27.5,49.2
		c0-0.5,0-0.9-0.1-1.4c0.2,0,0.4,0.1,0.6,0.1c0.1,0,0.3,0,0.6-0.1c0,0.4-0.1,0.9-0.1,1.4c0,0.5,0,0.9,0,1.4v1.5c0,0.4,0,0.9,0,1.4
		c0,0.5,0,0.9,0.1,1.3c-0.2,0-0.4,0-0.6,0c-0.2,0-0.4,0-0.6,0c0-0.4,0.1-0.8,0.1-1.3c0-0.5,0-0.9,0-1.4v-1.5
		C27.5,50.1,27.5,49.7,27.5,49.2"/>
	<path class="st0" d="M30.8,53.7c0.1,0.1,0.2,0.2,0.3,0.3c0.1,0.1,0.3,0.2,0.4,0.3c0.2,0.1,0.3,0.1,0.5,0.1c0.2,0,0.3,0,0.5-0.1
		c0.1-0.1,0.3-0.1,0.4-0.2c0.1-0.1,0.2-0.2,0.3-0.4c0.1-0.2,0.1-0.4,0.1-0.6c0-0.3-0.1-0.5-0.2-0.7c-0.1-0.2-0.3-0.3-0.5-0.4
		c-0.2-0.1-0.5-0.2-0.7-0.3c-0.3-0.1-0.5-0.2-0.7-0.3c-0.2-0.1-0.4-0.3-0.5-0.6c-0.1-0.2-0.2-0.6-0.2-1c0-0.3,0-0.6,0.1-0.9
		c0.1-0.3,0.2-0.5,0.4-0.7c0.2-0.2,0.4-0.3,0.6-0.5c0.3-0.1,0.5-0.2,0.9-0.2c0.3,0,0.6,0,0.8,0.1c0.2,0.1,0.4,0.2,0.6,0.3
		c-0.1,0.2-0.1,0.3-0.2,0.5c-0.1,0.2-0.1,0.4-0.1,0.5h-0.2c-0.1-0.2-0.2-0.4-0.4-0.6c-0.2-0.2-0.4-0.3-0.7-0.3c-0.1,0-0.2,0-0.4,0.1
		c-0.1,0-0.2,0.1-0.3,0.2c-0.1,0.1-0.2,0.2-0.3,0.4c-0.1,0.2-0.1,0.3-0.1,0.6c0,0.3,0.1,0.6,0.2,0.7c0.1,0.2,0.3,0.3,0.5,0.4
		c0.2,0.1,0.5,0.2,0.7,0.3c0.3,0.1,0.5,0.2,0.7,0.3c0.2,0.1,0.4,0.3,0.5,0.5c0.1,0.2,0.2,0.6,0.2,1c0,0.3-0.1,0.6-0.2,0.8
		c-0.1,0.3-0.3,0.5-0.5,0.7c-0.2,0.2-0.4,0.4-0.7,0.5c-0.3,0.1-0.6,0.2-0.9,0.2c-0.4,0-0.7,0-1-0.1c-0.3-0.1-0.5-0.2-0.6-0.3
		c0-0.1,0.1-0.3,0.2-0.5c0.1-0.2,0.1-0.4,0.1-0.5h0.2C30.6,53.5,30.7,53.6,30.8,53.7"/>
	<path class="st0" d="M35.8,44.8c0.1-0.1,0.3-0.2,0.5-0.2c0.2,0,0.3,0.1,0.4,0.2c0.1,0.2,0.2,0.3,0.2,0.5c0,0.2-0.1,0.4-0.2,0.5
		C36.6,46,36.4,46,36.3,46c-0.2,0-0.3-0.1-0.5-0.2c-0.1-0.2-0.2-0.3-0.2-0.5C35.6,45.1,35.7,44.9,35.8,44.8 M35.8,49.2
		c0-0.5,0-0.9-0.1-1.4c0.2,0,0.4,0.1,0.6,0.1c0.1,0,0.3,0,0.6-0.1c0,0.4-0.1,0.9-0.1,1.4c0,0.5,0,0.9,0,1.4v1.5c0,0.4,0,0.9,0,1.4
		c0,0.5,0,0.9,0.1,1.3c-0.2,0-0.4,0-0.6,0c-0.2,0-0.4,0-0.6,0c0-0.4,0.1-0.8,0.1-1.3c0-0.5,0-0.9,0-1.4v-1.5
		C35.8,50.1,35.8,49.7,35.8,49.2"/>
	<path class="st0" d="M38.7,49.6c0.2-0.5,0.4-0.8,0.7-1.1c0.3-0.3,0.6-0.5,1-0.6c0.4-0.1,0.7-0.2,1.1-0.2c0.4,0,0.7,0.1,1.1,0.2
		c0.4,0.1,0.7,0.3,1,0.6c0.3,0.3,0.5,0.7,0.7,1.1c0.2,0.5,0.3,1,0.3,1.7c0,0.7-0.1,1.2-0.3,1.7c-0.2,0.5-0.4,0.8-0.7,1.1
		c-0.3,0.3-0.6,0.5-1,0.6c-0.4,0.1-0.7,0.2-1.1,0.2c-0.4,0-0.7-0.1-1.1-0.2c-0.4-0.1-0.7-0.3-1-0.6c-0.3-0.3-0.5-0.7-0.7-1.1
		c-0.2-0.5-0.3-1-0.3-1.7C38.4,50.7,38.5,50.1,38.7,49.6 M39.6,52.5c0.1,0.4,0.2,0.7,0.3,1c0.1,0.3,0.4,0.5,0.6,0.7
		c0.2,0.2,0.6,0.3,0.9,0.3c0.4,0,0.7-0.1,0.9-0.3c0.3-0.2,0.4-0.4,0.6-0.7c0.1-0.3,0.3-0.6,0.3-1c0.1-0.4,0.1-0.8,0.1-1.2
		c0-0.4,0-0.8-0.1-1.2c-0.1-0.4-0.2-0.7-0.3-1c-0.1-0.3-0.3-0.5-0.6-0.7c-0.2-0.2-0.6-0.3-0.9-0.3c-0.4,0-0.7,0.1-0.9,0.3
		c-0.2,0.2-0.4,0.4-0.6,0.7c-0.2,0.3-0.3,0.6-0.3,1c-0.1,0.4-0.1,0.8-0.1,1.2C39.5,51.7,39.6,52.1,39.6,52.5 M43,44
		c0.1,0,0.2,0,0.3,0.1c0.1,0.1,0.1,0.2,0.1,0.3c0,0.2-0.1,0.3-0.2,0.4c-0.1,0.1-0.2,0.2-0.3,0.3l-1.8,1.4h-0.5l1.8-2.2
		C42.6,44.2,42.8,44,43,44"/>
	<path class="st0" d="M49.6,49c-0.2-0.4-0.6-0.6-1-0.6c-0.6,0-1,0.2-1.3,0.6c-0.3,0.4-0.4,1-0.4,1.8v1.2c0,0.4,0,0.9,0,1.4
		c0,0.5,0,0.9,0.1,1.3c-0.2,0-0.4,0-0.6,0c-0.2,0-0.4,0-0.6,0c0-0.4,0.1-0.8,0.1-1.3c0-0.5,0-0.9,0-1.4v-1.5c0-0.4,0-0.9,0-1.4
		c0-0.5,0-0.9-0.1-1.4c0.2,0,0.4,0.1,0.6,0.1c0.1,0,0.1,0,0.2,0c0.1,0,0.2,0,0.3-0.1c0,0.4,0,0.8,0,1.2h0c0.2-0.4,0.5-0.7,0.8-1
		c0.3-0.2,0.7-0.3,1.2-0.3c0.2,0,0.5,0,0.7,0.1c0.2,0.1,0.5,0.2,0.6,0.4c0.2,0.2,0.3,0.4,0.5,0.8c0.1,0.3,0.2,0.7,0.2,1.3
		c0,0.4,0,0.9,0,1.3c0,0.4,0,0.9,0,1.4v1c0,0.2,0,0.3,0,0.5c0,0.2,0,0.3,0,0.4c-0.2,0-0.3,0-0.5,0c-0.2,0-0.3,0-0.5,0
		c0-0.5,0-1,0.1-1.6c0-0.5,0-1.1,0-1.7v-0.9C49.9,49.9,49.8,49.4,49.6,49"/>
	<path class="st0" d="M60.5,51c-1.1-1.4-2.2-2.7-3.2-4.1c0,0.3,0,0.6,0,1.1c0,0.5,0,1.1,0,1.9c0,0.2,0,0.5,0,0.8c0,0.3,0,0.6,0,1
		c0,0.3,0,0.7,0,1c0,0.3,0,0.7,0,1c0,0.3,0,0.5,0,0.8c0,0.2,0,0.4,0,0.4c-0.1,0-0.3,0-0.4,0c-0.2,0-0.3,0-0.5,0c0-0.1,0-0.3,0.1-0.5
		c0-0.3,0-0.6,0.1-0.9c0-0.4,0-0.8,0.1-1.2c0-0.4,0-0.9,0.1-1.3c0-0.4,0-0.8,0-1.3c0-0.4,0-0.8,0-1.1c0-0.9,0-1.7,0-2.4
		c0-0.7,0-1.2,0-1.5h0.2c0.5,0.6,1,1.3,1.6,2.1c0.6,0.7,1.1,1.5,1.7,2.2c0.6,0.7,1.1,1.4,1.6,2c0.5,0.6,1,1.2,1.3,1.6v-2
		c0-1,0-2,0-3c0-1,0-1.9-0.1-2.7c0.2,0.1,0.3,0.1,0.4,0.1c0.1,0,0.2,0,0.4-0.1c0,0.2,0,0.5-0.1,1c0,0.4,0,0.9-0.1,1.4
		c0,0.5,0,1-0.1,1.4c0,0.5,0,0.8,0,1.1v0.9c0,0.3,0,0.7,0,1c0,0.4,0,0.7,0,1.1c0,0.4,0,0.7,0,1c0,0.3,0,0.6,0,0.8V55h-0.2
		C62.6,53.7,61.5,52.3,60.5,51"/>
	<path class="st0" d="M67.1,47.9c0.3-0.1,0.6-0.2,1-0.2c0.3,0,0.6,0.1,0.8,0.2c0.3,0.1,0.5,0.2,0.6,0.4c0.2,0.2,0.3,0.4,0.4,0.7
		c0.1,0.3,0.1,0.6,0.1,0.9c0,0.6,0,1.1,0,1.7c0,0.5,0,1.1,0,1.7c0,0.1,0,0.2,0,0.4c0,0.1,0,0.2,0.1,0.4c0,0.1,0.1,0.2,0.1,0.3
		c0.1,0.1,0.2,0.1,0.3,0.1c0,0,0.1,0,0.1,0c0,0,0.1,0,0.1-0.1v0.3c-0.1,0-0.2,0.1-0.3,0.1c-0.1,0-0.3,0-0.5,0
		c-0.3,0-0.5-0.1-0.6-0.2c-0.1-0.2-0.2-0.4-0.3-0.6c-0.3,0.4-0.6,0.6-0.9,0.8c-0.3,0.2-0.6,0.2-1.1,0.2c-0.2,0-0.4,0-0.6-0.1
		c-0.2-0.1-0.4-0.2-0.5-0.3c-0.2-0.2-0.3-0.3-0.4-0.6c-0.1-0.2-0.1-0.5-0.1-0.7c0-0.6,0.2-1,0.5-1.4c0.3-0.3,0.7-0.5,1.3-0.6
		c0.4-0.1,0.8-0.2,1-0.2c0.2-0.1,0.4-0.1,0.6-0.2c0.1-0.1,0.2-0.2,0.2-0.2c0-0.1,0-0.2,0-0.4c0-0.2,0-0.5-0.1-0.7
		c0-0.2-0.1-0.4-0.2-0.6c-0.1-0.2-0.3-0.3-0.4-0.4c-0.2-0.1-0.4-0.2-0.6-0.2c-0.3,0-0.6,0.1-0.9,0.3c-0.3,0.2-0.5,0.4-0.6,0.7H66
		v-0.8C66.4,48.2,66.7,48,67.1,47.9 M68.6,51.3c-0.2,0-0.4,0.1-0.6,0.1c-0.2,0-0.4,0.1-0.6,0.2c-0.2,0.1-0.4,0.2-0.5,0.3
		c-0.1,0.1-0.3,0.3-0.3,0.4c-0.1,0.2-0.1,0.4-0.1,0.7c0,0.5,0.1,0.8,0.3,1c0.2,0.2,0.5,0.3,0.7,0.3c0.3,0,0.6-0.1,0.9-0.3
		c0.3-0.2,0.5-0.4,0.6-0.7l0.1-2.2C69,51.2,68.8,51.2,68.6,51.3"/>
	<path class="st0" d="M72,49.7c0.2-0.5,0.4-0.8,0.7-1.1c0.3-0.3,0.6-0.5,1-0.7c0.4-0.1,0.8-0.2,1.2-0.2c0.5,0,0.9,0.1,1.2,0.2
		c0.4,0.1,0.6,0.3,0.8,0.4c-0.1,0.1-0.1,0.3-0.2,0.5c0,0.2-0.1,0.3-0.1,0.5h-0.1c-0.1-0.1-0.1-0.3-0.2-0.4c-0.1-0.1-0.2-0.3-0.4-0.4
		c-0.1-0.1-0.3-0.2-0.5-0.3c-0.2-0.1-0.3-0.1-0.5-0.1c-0.4,0-0.7,0.1-1,0.2c-0.3,0.2-0.5,0.4-0.7,0.7c-0.2,0.3-0.3,0.6-0.4,1
		c-0.1,0.4-0.1,0.8-0.1,1.3c0,1,0.2,1.8,0.5,2.3c0.4,0.5,0.9,0.8,1.6,0.8c0.2,0,0.3,0,0.5-0.1c0.2-0.1,0.3-0.1,0.5-0.2
		c0.2-0.1,0.3-0.2,0.5-0.3c0.1-0.1,0.3-0.3,0.4-0.4l0.1,0c0,0.2-0.1,0.5-0.1,0.7c-0.3,0.2-0.6,0.4-0.9,0.6c-0.4,0.2-0.8,0.2-1.1,0.2
		c-0.4,0-0.7-0.1-1.1-0.2c-0.4-0.1-0.7-0.3-1-0.6c-0.3-0.3-0.5-0.7-0.7-1.1c-0.2-0.5-0.3-1-0.3-1.7C71.7,50.7,71.8,50.1,72,49.7"/>
	<path class="st0" d="M78.7,44.8c0.1-0.1,0.3-0.2,0.4-0.2c0.2,0,0.3,0.1,0.4,0.2c0.1,0.2,0.2,0.3,0.2,0.5c0,0.2-0.1,0.4-0.2,0.5
		C79.5,46,79.3,46,79.1,46c-0.2,0-0.3-0.1-0.4-0.2c-0.1-0.2-0.2-0.3-0.2-0.5C78.5,45.1,78.6,44.9,78.7,44.8 M78.7,49.2
		c0-0.5,0-0.9-0.1-1.4c0.2,0,0.4,0.1,0.6,0.1c0.1,0,0.3,0,0.6-0.1c0,0.4-0.1,0.9-0.1,1.4c0,0.5,0,0.9,0,1.4v1.5c0,0.4,0,0.9,0,1.4
		c0,0.5,0,0.9,0.1,1.3c-0.2,0-0.4,0-0.6,0c-0.2,0-0.4,0-0.6,0c0-0.4,0.1-0.8,0.1-1.3c0-0.5,0-0.9,0-1.4v-1.5
		C78.7,50.1,78.7,49.7,78.7,49.2"/>
	<path class="st0" d="M81.6,49.6c0.2-0.5,0.4-0.8,0.7-1.1c0.3-0.3,0.6-0.5,1-0.6c0.4-0.1,0.7-0.2,1.1-0.2c0.4,0,0.7,0.1,1.1,0.2
		c0.4,0.1,0.7,0.3,1,0.6c0.3,0.3,0.5,0.7,0.7,1.1c0.2,0.5,0.3,1,0.3,1.7c0,0.7-0.1,1.2-0.3,1.7c-0.2,0.5-0.4,0.8-0.7,1.1
		c-0.3,0.3-0.6,0.5-1,0.6c-0.4,0.1-0.7,0.2-1.1,0.2c-0.4,0-0.7-0.1-1.1-0.2c-0.4-0.1-0.7-0.3-1-0.6c-0.3-0.3-0.5-0.7-0.7-1.1
		c-0.2-0.5-0.3-1-0.3-1.7C81.3,50.7,81.4,50.1,81.6,49.6 M82.5,52.5c0.1,0.4,0.2,0.7,0.3,1c0.2,0.3,0.3,0.5,0.6,0.7
		c0.2,0.2,0.6,0.3,0.9,0.3c0.4,0,0.7-0.1,0.9-0.3c0.3-0.2,0.4-0.4,0.6-0.7c0.1-0.3,0.3-0.6,0.3-1c0.1-0.4,0.1-0.8,0.1-1.2
		c0-0.4,0-0.8-0.1-1.2c-0.1-0.4-0.2-0.7-0.3-1c-0.2-0.3-0.3-0.5-0.6-0.7c-0.2-0.2-0.5-0.3-0.9-0.3c-0.4,0-0.7,0.1-0.9,0.3
		c-0.2,0.2-0.4,0.4-0.6,0.7c-0.1,0.3-0.3,0.6-0.3,1c-0.1,0.4-0.1,0.8-0.1,1.2C82.4,51.7,82.4,52.1,82.5,52.5"/>
	<path class="st0" d="M92.4,49c-0.2-0.4-0.6-0.6-1-0.6c-0.6,0-1,0.2-1.3,0.6c-0.3,0.4-0.4,1-0.4,1.8v1.2c0,0.4,0,0.9,0,1.4
		c0,0.5,0,0.9,0.1,1.3c-0.2,0-0.4,0-0.6,0c-0.2,0-0.4,0-0.6,0c0-0.4,0.1-0.8,0.1-1.3c0-0.5,0-0.9,0-1.4v-1.5c0-0.4,0-0.9,0-1.4
		c0-0.5,0-0.9-0.1-1.4c0.2,0,0.4,0.1,0.6,0.1c0.1,0,0.1,0,0.2,0c0.1,0,0.2,0,0.3-0.1c0,0.4,0,0.8,0,1.2h0c0.2-0.4,0.5-0.7,0.8-1
		c0.3-0.2,0.7-0.3,1.2-0.3c0.2,0,0.5,0,0.7,0.1c0.2,0.1,0.5,0.2,0.6,0.4c0.2,0.2,0.3,0.4,0.5,0.8c0.1,0.3,0.2,0.7,0.2,1.3
		c0,0.4,0,0.9,0,1.3c0,0.4,0,0.9,0,1.4v1c0,0.2,0,0.3,0,0.5c0,0.2,0,0.3,0,0.4c-0.2,0-0.3,0-0.5,0c-0.2,0-0.3,0-0.5,0
		c0-0.5,0-1,0.1-1.6c0-0.5,0-1.1,0-1.7v-0.9C92.8,49.9,92.7,49.4,92.4,49"/>
	<path class="st0" d="M96.8,47.9c0.3-0.1,0.6-0.2,1-0.2c0.3,0,0.6,0.1,0.8,0.2c0.3,0.1,0.5,0.2,0.6,0.4c0.2,0.2,0.3,0.4,0.4,0.7
		c0.1,0.3,0.2,0.6,0.2,0.9c0,0.6,0,1.1,0,1.7c0,0.5,0,1.1,0,1.7c0,0.1,0,0.2,0,0.4c0,0.1,0,0.2,0.1,0.4c0,0.1,0.1,0.2,0.1,0.3
		c0.1,0.1,0.2,0.1,0.3,0.1c0,0,0.1,0,0.1,0c0,0,0.1,0,0.1-0.1v0.3c-0.1,0-0.2,0.1-0.3,0.1c-0.1,0-0.3,0-0.5,0
		c-0.3,0-0.5-0.1-0.6-0.2c-0.1-0.2-0.2-0.4-0.3-0.6c-0.3,0.4-0.6,0.6-0.9,0.8c-0.3,0.2-0.6,0.2-1.1,0.2c-0.2,0-0.4,0-0.6-0.1
		c-0.2-0.1-0.4-0.2-0.5-0.3c-0.1-0.2-0.3-0.3-0.4-0.6c-0.1-0.2-0.1-0.5-0.1-0.7c0-0.6,0.2-1,0.5-1.4c0.3-0.3,0.7-0.5,1.3-0.6
		c0.4-0.1,0.8-0.2,1-0.2c0.3-0.1,0.4-0.1,0.6-0.2c0.1-0.1,0.2-0.2,0.2-0.2c0-0.1,0-0.2,0-0.4c0-0.2,0-0.5-0.1-0.7
		c-0.1-0.2-0.1-0.4-0.2-0.6c-0.1-0.2-0.2-0.3-0.4-0.4c-0.2-0.1-0.4-0.2-0.6-0.2c-0.3,0-0.6,0.1-0.9,0.3c-0.3,0.2-0.5,0.4-0.6,0.7
		h-0.1v-0.8C96.1,48.2,96.5,48,96.8,47.9 M98.3,51.3c-0.2,0-0.4,0.1-0.6,0.1c-0.2,0-0.4,0.1-0.6,0.2c-0.2,0.1-0.3,0.2-0.5,0.3
		c-0.1,0.1-0.3,0.3-0.3,0.4c-0.1,0.2-0.1,0.4-0.1,0.7c0,0.5,0.1,0.8,0.3,1c0.2,0.2,0.5,0.3,0.7,0.3c0.3,0,0.6-0.1,0.9-0.3
		c0.3-0.2,0.5-0.4,0.6-0.7l0-2.2C98.7,51.2,98.5,51.2,98.3,51.3"/>
	<path class="st0" d="M102.2,46.9c0-0.4,0-0.8,0-1.2c0-0.4,0-0.7,0-1.1c0-0.3,0-0.6,0-0.9c0.2,0.1,0.4,0.1,0.6,0.1
		c0.1,0,0.3,0,0.6-0.1c0,0.2,0,0.5,0,0.9c0,0.4,0,0.7,0,1.1c0,0.4,0,0.8,0,1.2c0,0.4,0,0.8,0,1.1v2.6c0,0.3,0,0.7,0,1.1
		c0,0.4,0,0.8,0,1.2c0,0.4,0,0.7,0,1.1c0,0.3,0,0.6,0,0.8c-0.2,0-0.4,0-0.6,0c-0.2,0-0.4,0-0.6,0c0-0.2,0-0.5,0-0.8
		c0-0.3,0-0.7,0-1.1c0-0.4,0-0.8,0-1.2c0-0.4,0-0.8,0-1.1V48C102.2,47.6,102.2,47.3,102.2,46.9"/>
	<path class="st0" d="M15.4,66.1c-0.1,0.2-0.2,0.3-0.3,0.5c-0.1,0.2-0.3,0.3-0.4,0.5c-0.2,0.2-0.4,0.3-0.6,0.4
		c-0.2,0.1-0.5,0.1-0.8,0.1c-0.3,0-0.6-0.1-0.9-0.2c-0.3-0.1-0.6-0.3-0.8-0.6c-0.2-0.3-0.4-0.7-0.6-1.1c-0.1-0.5-0.2-1-0.2-1.6
		c0-0.6,0.1-1.2,0.2-1.6c0.2-0.5,0.4-0.8,0.6-1.1c0.3-0.3,0.5-0.5,0.9-0.7c0.3-0.1,0.6-0.2,1-0.2c0.9,0,1.6,0.5,1.9,1.5h0v-1.4
		c0-0.4,0-0.7,0-1.1c0-0.4,0-0.7,0-1.1c0-0.3,0-0.7,0-1c0-0.3,0-0.6,0-0.8c0.1,0,0.2,0,0.3,0.1c0.1,0,0.2,0,0.3,0c0.1,0,0.2,0,0.3,0
		c0.1,0,0.2,0,0.3-0.1c0,0.3,0,0.8-0.1,1.4c0,0.6,0,1.2,0,2c0,0.7,0,1.4,0,2.2c0,0.8,0,1.4,0,2.1c0,0.7,0,1.3,0,1.8
		c0,0.5,0,1.1,0,1.7c-0.2,0-0.3,0-0.5,0c-0.1,0-0.3,0-0.5,0L15.4,66.1L15.4,66.1z M12,65.6c0.1,0.4,0.2,0.7,0.4,0.9
		c0.2,0.2,0.3,0.4,0.6,0.5c0.2,0.1,0.4,0.1,0.6,0.1c0.3,0,0.6-0.1,0.8-0.3c0.2-0.2,0.4-0.4,0.6-0.7c0.2-0.3,0.3-0.7,0.3-1
		c0.1-0.4,0.1-0.8,0.1-1.2c0-0.9-0.2-1.7-0.5-2.1c-0.3-0.5-0.8-0.7-1.4-0.7c-0.3,0-0.6,0.1-0.8,0.2c-0.2,0.2-0.4,0.4-0.5,0.7
		c-0.1,0.3-0.3,0.6-0.3,1c-0.1,0.4-0.1,0.8-0.1,1.2C11.9,64.7,11.9,65.2,12,65.6"/>
	<path class="st0" d="M18.3,61.4c0.5-0.7,1.2-1,2.1-1c0.4,0,0.8,0.1,1.1,0.2c0.3,0.2,0.6,0.4,0.8,0.6c0.2,0.3,0.4,0.6,0.5,0.9
		c0.1,0.4,0.2,0.8,0.2,1.2c0,0.1,0,0.2,0,0.3c0,0.1,0,0.2,0,0.3c-0.4,0-0.9,0-1.3,0c-0.4,0-0.9,0-1.3,0c-0.3,0-0.5,0-0.8,0
		c-0.3,0-0.5,0-0.8,0c0,0.1,0,0.1,0,0.2v0.2c0,0.4,0,0.7,0.1,1.1c0.1,0.3,0.2,0.6,0.4,0.8c0.2,0.2,0.4,0.4,0.7,0.6
		c0.3,0.1,0.6,0.2,0.9,0.2c0.2,0,0.3,0,0.5-0.1c0.2-0.1,0.3-0.1,0.5-0.2c0.2-0.1,0.3-0.2,0.5-0.3c0.1-0.1,0.3-0.3,0.4-0.4l0.1,0
		l-0.1,0.7c-0.2,0.2-0.6,0.4-0.9,0.6c-0.4,0.2-0.8,0.2-1.2,0.2c-0.4,0-0.9-0.1-1.2-0.2c-0.4-0.2-0.7-0.4-1-0.7
		c-0.3-0.3-0.5-0.7-0.6-1.1c-0.1-0.4-0.2-0.9-0.2-1.4C17.6,63,17.8,62.1,18.3,61.4 M19.7,61.1c-0.2,0.2-0.4,0.4-0.5,0.6
		c-0.1,0.2-0.2,0.5-0.3,0.8c-0.1,0.3-0.1,0.6-0.1,0.8c0.3,0,0.5,0,0.8,0c0.3,0,0.6,0,0.8,0c0.3,0,0.6,0,0.8,0c0.3,0,0.6,0,0.8,0
		c0-0.3,0-0.5-0.1-0.8c0-0.3-0.1-0.6-0.2-0.8c-0.1-0.3-0.3-0.5-0.5-0.6c-0.2-0.2-0.5-0.2-0.8-0.2C20.2,60.8,19.9,60.9,19.7,61.1"/>
	<path class="st0" d="M34.5,67.5c-0.1,0-0.2,0-0.3,0h-0.3h-0.3c-0.1,0-0.2,0-0.3,0c-0.1-0.2-0.1-0.5-0.2-0.8c-0.1-0.3-0.2-0.6-0.3-1
		c-0.1-0.3-0.2-0.7-0.4-1.1c-0.1-0.4-0.2-0.7-0.3-1c-0.3,0-0.5,0-0.8,0c-0.3,0-0.5,0-0.8,0c-0.3,0-0.5,0-0.8,0c-0.2,0-0.5,0-0.8,0
		c-0.3,0.8-0.5,1.5-0.7,2.2c-0.2,0.7-0.4,1.3-0.5,1.7c-0.1,0-0.3,0-0.5,0c-0.2,0-0.3,0-0.5,0c0.7-1.7,1.3-3.4,2-5.1
		c0.6-1.7,1.3-3.4,1.9-5.2h0.2c0.2,0.6,0.4,1.2,0.7,1.8c0.2,0.7,0.5,1.3,0.7,2c0.2,0.7,0.5,1.3,0.7,2c0.2,0.7,0.5,1.3,0.7,1.9
		c0.2,0.6,0.4,1.1,0.6,1.5C34.2,66.9,34.3,67.2,34.5,67.5 M28.9,62.9c0.2,0,0.4,0,0.7,0c0.2,0,0.5,0,0.7,0c0.2,0,0.5,0,0.7,0
		c0.2,0,0.5,0,0.7,0l-1.4-3.7L28.9,62.9z"/>
	<path class="st0" d="M35.5,62.4c0.2-0.5,0.4-0.8,0.7-1.1c0.3-0.3,0.6-0.5,1-0.7c0.4-0.1,0.8-0.2,1.2-0.2c0.5,0,0.9,0.1,1.2,0.2
		c0.4,0.1,0.6,0.3,0.8,0.4c-0.1,0.1-0.1,0.3-0.2,0.5c0,0.2-0.1,0.3-0.1,0.5H40c-0.1-0.1-0.1-0.3-0.2-0.4c-0.1-0.1-0.2-0.3-0.4-0.4
		c-0.1-0.1-0.3-0.2-0.5-0.3c-0.2-0.1-0.3-0.1-0.5-0.1c-0.4,0-0.7,0.1-1,0.2c-0.3,0.2-0.5,0.4-0.7,0.7c-0.2,0.3-0.3,0.6-0.4,1
		c-0.1,0.4-0.1,0.8-0.1,1.3c0,1,0.2,1.8,0.5,2.3c0.4,0.5,0.9,0.8,1.6,0.8c0.2,0,0.3,0,0.5-0.1c0.2-0.1,0.3-0.1,0.5-0.2
		c0.2-0.1,0.3-0.2,0.5-0.3c0.1-0.1,0.3-0.3,0.4-0.4l0.1,0c0,0.2-0.1,0.5-0.1,0.7c-0.3,0.2-0.6,0.4-0.9,0.6c-0.4,0.2-0.8,0.2-1.1,0.2
		c-0.4,0-0.7-0.1-1.1-0.2c-0.4-0.1-0.7-0.3-1-0.6c-0.3-0.3-0.5-0.7-0.7-1.1c-0.2-0.5-0.3-1-0.3-1.7C35.2,63.4,35.3,62.8,35.5,62.4"
		/>
	<path class="st0" d="M44.4,61.6c-0.1-0.1-0.2-0.1-0.4-0.1c-0.2,0-0.4,0.1-0.5,0.2c-0.2,0.1-0.3,0.3-0.4,0.4
		c-0.1,0.2-0.2,0.4-0.3,0.6c-0.1,0.2-0.1,0.5-0.1,0.8v1.6c0,0.7,0,1.2,0,1.5c0,0.3,0,0.6,0,0.8c-0.2,0-0.3,0-0.5,0
		c-0.2,0-0.4,0-0.5,0c0-0.3,0-0.8,0-1.4c0-0.6,0-1.3,0-2.1v-0.5c0-0.4,0-0.8,0-1.3c0-0.5,0-1.1,0-1.7c0.1,0,0.2,0,0.3,0
		c0.1,0,0.2,0,0.3,0c0.1,0,0.2,0,0.2,0c0.1,0,0.2,0,0.3,0c0,0.3-0.1,0.6-0.1,0.8c0,0.2,0,0.4,0,0.6l0,0c0.5-1.1,1-1.6,1.6-1.6
		c0.1,0,0.1,0,0.2,0c0.1,0,0.1,0,0.2,0.1c0,0.1-0.1,0.3-0.1,0.5c0,0.2,0,0.5,0,0.6l-0.1,0.1C44.6,61.6,44.6,61.6,44.4,61.6"/>
	<path class="st0" d="M46.2,61.4c0.5-0.7,1.2-1,2.1-1c0.4,0,0.8,0.1,1.1,0.2c0.3,0.2,0.6,0.4,0.8,0.6c0.2,0.3,0.4,0.6,0.5,0.9
		c0.1,0.4,0.2,0.8,0.2,1.2c0,0.1,0,0.2,0,0.3c0,0.1,0,0.2,0,0.3c-0.4,0-0.9,0-1.3,0c-0.4,0-0.9,0-1.3,0c-0.3,0-0.5,0-0.8,0
		c-0.3,0-0.5,0-0.8,0c0,0.1,0,0.1,0,0.2v0.2c0,0.4,0,0.7,0.1,1.1c0.1,0.3,0.2,0.6,0.4,0.8c0.2,0.2,0.4,0.4,0.7,0.6
		c0.3,0.1,0.6,0.2,0.9,0.2c0.2,0,0.3,0,0.5-0.1c0.2-0.1,0.3-0.1,0.5-0.2c0.2-0.1,0.3-0.2,0.5-0.3c0.1-0.1,0.3-0.3,0.4-0.4l0.1,0
		l-0.1,0.7c-0.2,0.2-0.6,0.4-0.9,0.6c-0.4,0.2-0.8,0.2-1.2,0.2c-0.4,0-0.9-0.1-1.2-0.2c-0.4-0.2-0.7-0.4-1-0.7
		c-0.3-0.3-0.5-0.7-0.6-1.1c-0.1-0.4-0.2-0.9-0.2-1.4C45.5,63,45.7,62.1,46.2,61.4 M47.6,61.1c-0.2,0.2-0.4,0.4-0.5,0.6
		c-0.1,0.2-0.2,0.5-0.3,0.8c-0.1,0.3-0.1,0.6-0.1,0.8c0.3,0,0.5,0,0.8,0c0.3,0,0.5,0,0.8,0c0.3,0,0.5,0,0.8,0c0.3,0,0.6,0,0.8,0
		c0-0.3,0-0.5-0.1-0.8c0-0.3-0.1-0.6-0.2-0.8c-0.1-0.3-0.3-0.5-0.5-0.6c-0.2-0.2-0.5-0.2-0.8-0.2C48,60.8,47.8,60.9,47.6,61.1"/>
	<path class="st0" d="M56.4,66.1c-0.1,0.2-0.1,0.3-0.3,0.5c-0.1,0.2-0.3,0.3-0.4,0.5c-0.2,0.2-0.4,0.3-0.6,0.4
		c-0.2,0.1-0.5,0.1-0.8,0.1c-0.3,0-0.6-0.1-0.9-0.2c-0.3-0.1-0.6-0.3-0.8-0.6c-0.2-0.3-0.4-0.7-0.6-1.1c-0.1-0.5-0.2-1-0.2-1.6
		c0-0.6,0.1-1.2,0.2-1.6c0.1-0.5,0.4-0.8,0.6-1.1c0.2-0.3,0.5-0.5,0.9-0.7c0.3-0.1,0.6-0.2,1-0.2c0.9,0,1.6,0.5,1.9,1.5h0v-1.4
		c0-0.4,0-0.7,0-1.1c0-0.4,0-0.7,0-1.1c0-0.3,0-0.7,0-1c0-0.3,0-0.6,0-0.8c0.1,0,0.2,0,0.3,0.1c0.1,0,0.2,0,0.3,0c0.1,0,0.2,0,0.3,0
		c0.1,0,0.2,0,0.3-0.1c0,0.3,0,0.8-0.1,1.4c0,0.6,0,1.2,0,2c0,0.7,0,1.4,0,2.2c0,0.8,0,1.4,0,2.1c0,0.7,0,1.3,0,1.8
		c0,0.5,0,1.1,0,1.7c-0.2,0-0.3,0-0.5,0c-0.1,0-0.3,0-0.5,0L56.4,66.1L56.4,66.1z M53,65.6c0.1,0.4,0.2,0.7,0.4,0.9
		c0.2,0.2,0.3,0.4,0.6,0.5c0.2,0.1,0.4,0.1,0.6,0.1c0.3,0,0.6-0.1,0.8-0.3c0.2-0.2,0.4-0.4,0.6-0.7c0.2-0.3,0.3-0.7,0.3-1
		c0.1-0.4,0.1-0.8,0.1-1.2c0-0.9-0.2-1.7-0.5-2.1c-0.3-0.5-0.8-0.7-1.4-0.7c-0.3,0-0.6,0.1-0.8,0.2c-0.2,0.2-0.4,0.4-0.5,0.7
		c-0.1,0.3-0.3,0.6-0.3,1c-0.1,0.4-0.1,0.8-0.1,1.2C52.9,64.7,52.9,65.2,53,65.6"/>
	<path class="st0" d="M59.4,57.4c0.1-0.1,0.3-0.2,0.4-0.2c0.2,0,0.3,0.1,0.4,0.2c0.1,0.1,0.2,0.3,0.2,0.5c0,0.2-0.1,0.4-0.2,0.5
		c-0.1,0.2-0.3,0.2-0.4,0.2c-0.2,0-0.3-0.1-0.4-0.2c-0.1-0.1-0.2-0.3-0.2-0.5C59.3,57.8,59.3,57.6,59.4,57.4 M59.4,61.9
		c0-0.5,0-0.9-0.1-1.4c0.2,0,0.4,0.1,0.6,0.1c0.1,0,0.3,0,0.6-0.1c0,0.4-0.1,0.9-0.1,1.4c0,0.5,0,0.9,0,1.4v1.5c0,0.4,0,0.9,0,1.4
		c0,0.5,0,0.9,0.1,1.3c-0.2,0-0.4,0-0.6,0c-0.2,0-0.4,0-0.6,0c0-0.4,0.1-0.8,0.1-1.3c0-0.5,0-0.9,0-1.4v-1.5
		C59.4,62.8,59.4,62.3,59.4,61.9"/>
	<path class="st0" d="M63.7,58.6c0,0.4,0,0.7-0.1,1.1c0,0.4,0,0.7,0,1.1c0.1,0,0.3,0,0.5,0c0.3,0,0.5,0,0.8,0c0,0,0,0.1,0,0.2V61
		v0.2c0,0.1,0,0.1,0,0.1c-0.1,0-0.2,0-0.3,0c-0.1,0-0.2,0-0.4,0h-0.6c0,0,0,0.2,0,0.5c0,0.3,0,0.6,0,1c0,0.4,0,0.8,0,1.2
		c0,0.4,0,0.8,0,1.1c0,0.3,0,0.5,0,0.8c0,0.3,0,0.5,0.1,0.7c0.1,0.2,0.2,0.4,0.3,0.5c0.1,0.1,0.3,0.2,0.6,0.2c0.1,0,0.2,0,0.3,0
		c0.1,0,0.2,0,0.3-0.1v0.4c-0.1,0-0.3,0.1-0.5,0.1c-0.2,0-0.3,0.1-0.5,0.1c-0.5,0-0.9-0.1-1.2-0.5c-0.2-0.3-0.4-0.7-0.4-1.3
		c0-0.3,0-0.5,0-0.9c0-0.3,0-0.6,0-1c0-0.4,0-0.8,0-1.2c0-0.4,0-0.9,0-1.5h-0.4c-0.1,0-0.1,0-0.2,0c-0.1,0-0.2,0-0.2,0
		c0-0.1,0-0.1,0-0.2c0-0.1,0-0.1,0-0.2c0,0,0-0.1,0-0.1c0-0.1,0-0.1,0-0.1c0.4,0,0.6,0,0.8,0c0-0.2,0-0.4,0-0.7c0-0.3,0-0.6,0-0.9
		L63.7,58.6L63.7,58.6z"/>
	<path class="st0" d="M67.2,60.5c0.3-0.1,0.6-0.2,1-0.2c0.3,0,0.6,0.1,0.8,0.2c0.2,0.1,0.5,0.2,0.6,0.4c0.2,0.2,0.3,0.4,0.4,0.7
		c0.1,0.3,0.1,0.6,0.1,0.9c0,0.6,0,1.1,0,1.7c0,0.6,0,1.1,0,1.7c0,0.1,0,0.2,0,0.4c0,0.1,0,0.2,0.1,0.4c0,0.1,0.1,0.2,0.1,0.3
		c0.1,0.1,0.2,0.1,0.3,0.1c0,0,0.1,0,0.1,0c0,0,0.1,0,0.1,0v0.3c-0.1,0.1-0.2,0.1-0.3,0.1c-0.1,0-0.3,0-0.5,0
		c-0.3,0-0.5-0.1-0.6-0.2c-0.1-0.2-0.2-0.4-0.3-0.6c-0.3,0.4-0.6,0.6-0.9,0.8c-0.3,0.2-0.6,0.3-1.1,0.3c-0.2,0-0.4,0-0.6-0.1
		c-0.2-0.1-0.4-0.2-0.5-0.3c-0.2-0.2-0.3-0.3-0.4-0.6c-0.1-0.2-0.1-0.5-0.1-0.8c0-0.6,0.2-1,0.5-1.4c0.3-0.3,0.7-0.5,1.3-0.6
		c0.4-0.1,0.8-0.2,1-0.2c0.3-0.1,0.4-0.1,0.6-0.2c0.1-0.1,0.2-0.1,0.2-0.2c0-0.1,0-0.2,0-0.4c0-0.2,0-0.5-0.1-0.7
		c0-0.2-0.1-0.4-0.2-0.6c-0.1-0.2-0.2-0.3-0.4-0.4C68.3,61,68.1,61,67.8,61c-0.3,0-0.6,0.1-0.9,0.3c-0.3,0.2-0.5,0.4-0.6,0.7h-0.1
		v-0.8C66.5,60.9,66.9,60.7,67.2,60.5 M68.7,64c-0.2,0-0.4,0.1-0.6,0.1c-0.2,0-0.4,0.1-0.6,0.2c-0.2,0.1-0.3,0.2-0.5,0.3
		c-0.1,0.1-0.3,0.3-0.3,0.4c-0.1,0.2-0.1,0.4-0.1,0.7c0,0.5,0.1,0.8,0.3,1c0.2,0.2,0.5,0.4,0.7,0.4c0.3,0,0.6-0.1,0.9-0.3
		c0.3-0.2,0.5-0.4,0.6-0.7l0-2.2C69.1,63.9,68.9,63.9,68.7,64"/>
	<path class="st0" d="M72.1,62.4c0.2-0.5,0.4-0.8,0.7-1.1c0.3-0.3,0.6-0.5,1-0.7c0.4-0.1,0.8-0.2,1.2-0.2c0.5,0,0.9,0.1,1.2,0.2
		c0.4,0.1,0.6,0.3,0.8,0.4c-0.1,0.1-0.1,0.3-0.2,0.5c0,0.2-0.1,0.3-0.1,0.5h-0.1c-0.1-0.1-0.1-0.3-0.2-0.4c-0.1-0.1-0.2-0.3-0.4-0.4
		c-0.1-0.1-0.3-0.2-0.5-0.3c-0.2-0.1-0.3-0.1-0.5-0.1c-0.4,0-0.7,0.1-1,0.2c-0.3,0.2-0.5,0.4-0.7,0.7c-0.2,0.3-0.3,0.6-0.4,1
		c-0.1,0.4-0.1,0.8-0.1,1.3c0,1,0.2,1.8,0.6,2.3c0.4,0.5,0.9,0.8,1.6,0.8c0.2,0,0.3,0,0.5-0.1c0.2-0.1,0.3-0.1,0.5-0.2
		c0.2-0.1,0.3-0.2,0.5-0.3c0.1-0.1,0.3-0.3,0.4-0.4l0.1,0c0,0.2-0.1,0.5-0.1,0.7c-0.2,0.2-0.6,0.4-0.9,0.6c-0.4,0.2-0.7,0.2-1.1,0.2
		c-0.4,0-0.7-0.1-1.1-0.2c-0.4-0.1-0.7-0.3-1-0.6c-0.3-0.3-0.5-0.7-0.7-1.1c-0.2-0.5-0.3-1-0.3-1.7C71.8,63.4,71.9,62.8,72.1,62.4"
		/>
	<path class="st0" d="M78.8,57.4c0.1-0.1,0.3-0.2,0.4-0.2c0.2,0,0.3,0.1,0.5,0.2c0.1,0.1,0.2,0.3,0.2,0.5c0,0.2-0.1,0.4-0.2,0.5
		c-0.1,0.2-0.3,0.2-0.5,0.2c-0.2,0-0.3-0.1-0.4-0.2c-0.1-0.1-0.2-0.3-0.2-0.5C78.6,57.8,78.7,57.6,78.8,57.4 M78.8,61.9
		c0-0.5,0-0.9-0.1-1.4c0.2,0,0.4,0.1,0.6,0.1c0.1,0,0.3,0,0.6-0.1c0,0.4-0.1,0.9-0.1,1.4c0,0.5,0,0.9,0,1.4v1.5c0,0.4,0,0.9,0,1.4
		c0,0.5,0,0.9,0.1,1.3c-0.2,0-0.4,0-0.6,0c-0.2,0-0.4,0-0.6,0c0-0.4,0.1-0.8,0.1-1.3c0-0.5,0-0.9,0-1.4v-1.5
		C78.8,62.8,78.8,62.3,78.8,61.9"/>
	<path class="st0" d="M81.7,62.3c0.2-0.5,0.4-0.8,0.7-1.1c0.3-0.3,0.6-0.5,1-0.6c0.4-0.1,0.7-0.2,1.1-0.2c0.4,0,0.7,0.1,1.1,0.2
		c0.4,0.1,0.7,0.3,1,0.6c0.3,0.3,0.5,0.7,0.7,1.1c0.2,0.5,0.3,1,0.3,1.7c0,0.7-0.1,1.2-0.3,1.7c-0.2,0.5-0.4,0.8-0.7,1.1
		c-0.3,0.3-0.6,0.5-1,0.6c-0.4,0.1-0.7,0.2-1.1,0.2c-0.4,0-0.7-0.1-1.1-0.2c-0.4-0.1-0.7-0.3-1-0.6c-0.3-0.3-0.5-0.7-0.7-1.1
		c-0.2-0.5-0.3-1-0.3-1.7C81.4,63.3,81.5,62.8,81.7,62.3 M82.6,65.2c0.1,0.4,0.2,0.7,0.3,1c0.2,0.3,0.3,0.5,0.6,0.7
		c0.3,0.2,0.6,0.3,0.9,0.3c0.4,0,0.7-0.1,0.9-0.3c0.3-0.2,0.5-0.4,0.6-0.7c0.2-0.3,0.3-0.6,0.3-1c0.1-0.4,0.1-0.8,0.1-1.2
		c0-0.4,0-0.8-0.1-1.2c-0.1-0.4-0.2-0.7-0.3-1c-0.2-0.3-0.3-0.5-0.6-0.7c-0.2-0.2-0.6-0.3-0.9-0.3c-0.4,0-0.7,0.1-0.9,0.3
		c-0.2,0.2-0.4,0.4-0.6,0.7c-0.1,0.3-0.3,0.6-0.3,1c-0.1,0.4-0.1,0.8-0.1,1.2C82.5,64.4,82.5,64.8,82.6,65.2 M86,56.7
		c0.1,0,0.2,0,0.3,0.1c0.1,0.1,0.1,0.2,0.1,0.4c0,0.2,0,0.3-0.1,0.4c-0.1,0.1-0.2,0.2-0.3,0.3l-1.8,1.4h-0.5l1.8-2.2
		C85.6,56.8,85.8,56.7,86,56.7"/>
	<path class="st0" d="M92.5,61.7c-0.2-0.4-0.6-0.6-1-0.6c-0.6,0-1,0.2-1.3,0.6c-0.3,0.4-0.4,1-0.4,1.8v1.2c0,0.4,0,0.9,0,1.4
		c0,0.5,0,0.9,0.1,1.3c-0.2,0-0.4,0-0.6,0c-0.2,0-0.4,0-0.6,0c0-0.4,0.1-0.8,0.1-1.3c0-0.5,0-0.9,0-1.4v-1.5c0-0.4,0-0.9,0-1.4
		c0-0.5,0-0.9-0.1-1.4c0.2,0,0.4,0.1,0.6,0.1c0.1,0,0.1,0,0.2,0c0.1,0,0.2,0,0.3,0c0,0.4,0,0.8,0,1.2h0c0.2-0.4,0.5-0.7,0.8-1
		c0.3-0.2,0.7-0.3,1.2-0.3c0.2,0,0.5,0,0.7,0.1c0.2,0.1,0.4,0.2,0.6,0.4c0.2,0.2,0.4,0.5,0.5,0.8c0.1,0.3,0.2,0.7,0.2,1.2
		c0,0.4,0,0.8,0,1.3c0,0.4,0,0.9,0,1.4v0.9c0,0.2,0,0.3,0,0.5c0,0.2,0,0.3,0,0.4c-0.2,0-0.3,0-0.5,0c-0.2,0-0.4,0-0.5,0
		c0-0.5,0-1,0.1-1.6c0-0.5,0-1.1,0-1.6v-0.9C92.9,62.6,92.8,62.1,92.5,61.7"/>
	<path class="st0" d="M32.9,78.6c-0.1,0.1-0.3,0.1-0.5,0.2c-0.2,0.1-0.4,0.1-0.7,0.2c-0.3,0-0.5,0.1-0.8,0.1c-0.6,0-1.1-0.1-1.6-0.3
		c-0.5-0.2-0.9-0.4-1.3-0.8c-0.4-0.4-0.6-0.8-0.8-1.3c-0.2-0.5-0.3-1.1-0.3-1.8c0-0.7,0.1-1.2,0.3-1.8c0.2-0.5,0.5-1,0.9-1.3
		c0.4-0.4,0.8-0.6,1.3-0.8c0.5-0.2,1.1-0.3,1.7-0.3c0.5,0,0.9,0.1,1.3,0.2c0.4,0.1,0.8,0.2,1.1,0.4c-0.1,0.1-0.1,0.3-0.1,0.4
		c0,0.2-0.1,0.3-0.1,0.5l-0.1,0c-0.1-0.1-0.2-0.2-0.3-0.3c-0.1-0.1-0.3-0.2-0.5-0.3c-0.2-0.1-0.4-0.2-0.6-0.3
		c-0.2-0.1-0.5-0.1-0.7-0.1c-0.4,0-0.8,0.1-1.2,0.2c-0.4,0.1-0.7,0.4-1,0.7c-0.3,0.3-0.5,0.7-0.6,1.2c-0.2,0.5-0.2,1-0.2,1.7
		c0,0.6,0.1,1.2,0.2,1.7c0.2,0.5,0.4,0.9,0.6,1.2c0.3,0.3,0.6,0.5,1,0.7c0.4,0.1,0.8,0.2,1.2,0.2c0.3,0,0.5,0,0.7-0.1
		c0.2-0.1,0.4-0.2,0.6-0.3c0.2-0.1,0.4-0.2,0.5-0.3c0.1-0.1,0.3-0.2,0.4-0.3l0,0l-0.1,0.7C33.1,78.5,33,78.6,32.9,78.6"/>
	<path class="st0" d="M38.4,75.9c-1-1.1-1.9-2.2-2.9-3.2c0,0.2,0,0.5,0,0.9c0,0.4,0,0.9,0,1.5c0,0.2,0,0.4,0,0.6c0,0.2,0,0.5,0,0.8
		c0,0.3,0,0.5,0,0.8c0,0.3,0,0.5,0,0.8c0,0.2,0,0.4,0,0.6c0,0.2,0,0.3,0,0.4c-0.1,0-0.2,0-0.4,0c-0.1,0-0.3,0-0.4,0
		c0-0.1,0-0.2,0-0.4c0-0.2,0-0.5,0-0.8c0-0.3,0-0.6,0.1-1c0-0.3,0-0.7,0-1c0-0.3,0-0.7,0-1c0-0.3,0-0.6,0-0.9c0-0.7,0-1.4,0-1.9
		c0-0.5,0-0.9,0-1.2h0.2c0.5,0.5,0.9,1.1,1.5,1.7c0.5,0.6,1,1.2,1.5,1.7c0.5,0.6,1,1.1,1.4,1.6c0.5,0.5,0.9,0.9,1.2,1.3v-1.6
		c0-0.8,0-1.6,0-2.4c0-0.8,0-1.5-0.1-2.2c0.1,0,0.3,0.1,0.4,0.1c0.1,0,0.2,0,0.4-0.1c0,0.2,0,0.4,0,0.8c0,0.3,0,0.7-0.1,1.1
		c0,0.4,0,0.8,0,1.1c0,0.4,0,0.7,0,0.9v0.7c0,0.3,0,0.5,0,0.8c0,0.3,0,0.6,0,0.9c0,0.3,0,0.6,0,0.8c0,0.3,0,0.5,0,0.7V79h-0.2
		C40.3,78,39.4,77,38.4,75.9"/>
	<path class="st0" d="M49.5,78.9c-0.1,0-0.2,0-0.3,0h-0.3h-0.3c-0.1,0-0.2,0-0.3,0c0-0.2-0.1-0.4-0.2-0.6c-0.1-0.3-0.2-0.5-0.3-0.8
		c-0.1-0.3-0.2-0.6-0.3-0.8c-0.1-0.3-0.2-0.6-0.3-0.8c-0.2,0-0.5,0-0.7,0c-0.2,0-0.5,0-0.7,0c-0.2,0-0.5,0-0.7,0c-0.2,0-0.4,0-0.7,0
		c-0.2,0.6-0.4,1.2-0.6,1.7c-0.2,0.5-0.3,1-0.4,1.4c-0.1,0-0.3,0-0.4,0c-0.1,0-0.3,0-0.4,0c0.6-1.4,1.2-2.7,1.8-4.1
		c0.6-1.3,1.1-2.7,1.7-4.1h0.2c0.2,0.5,0.4,0.9,0.6,1.5c0.2,0.5,0.4,1.1,0.6,1.6c0.2,0.5,0.4,1.1,0.6,1.6c0.2,0.5,0.4,1,0.6,1.5
		c0.2,0.5,0.4,0.9,0.5,1.2C49.2,78.4,49.4,78.7,49.5,78.9 M44.5,75.3c0.2,0,0.4,0,0.6,0c0.2,0,0.4,0,0.6,0c0.2,0,0.4,0,0.6,0
		c0.2,0,0.4,0,0.6,0l-1.2-3L44.5,75.3z"/>
	<rect x="50.1" y="75.8" class="st0" width="2.8" height="0.7"/>
	<path class="st0" d="M59.9,78.6c-0.1,0.1-0.3,0.1-0.5,0.2c-0.2,0.1-0.4,0.1-0.7,0.2c-0.3,0-0.5,0.1-0.8,0.1c-0.6,0-1.1-0.1-1.6-0.3
		c-0.5-0.2-0.9-0.4-1.3-0.8c-0.4-0.4-0.6-0.8-0.8-1.3c-0.2-0.5-0.3-1.1-0.3-1.8c0-0.7,0.1-1.2,0.3-1.8c0.2-0.5,0.5-1,0.9-1.3
		c0.4-0.4,0.8-0.6,1.3-0.8c0.5-0.2,1.1-0.3,1.7-0.3c0.5,0,0.9,0.1,1.3,0.2c0.4,0.1,0.8,0.2,1.1,0.4c-0.1,0.1-0.1,0.3-0.1,0.4
		c0,0.2-0.1,0.3-0.1,0.5l-0.1,0c-0.1-0.1-0.2-0.2-0.3-0.3c-0.1-0.1-0.3-0.2-0.5-0.3c-0.2-0.1-0.4-0.2-0.6-0.3
		c-0.2-0.1-0.5-0.1-0.7-0.1c-0.4,0-0.8,0.1-1.2,0.2c-0.4,0.1-0.7,0.4-1,0.7c-0.3,0.3-0.5,0.7-0.7,1.2c-0.2,0.5-0.2,1-0.2,1.7
		c0,0.6,0.1,1.2,0.2,1.7c0.2,0.5,0.4,0.9,0.7,1.2c0.3,0.3,0.6,0.5,1,0.7c0.4,0.1,0.8,0.2,1.2,0.2c0.3,0,0.5,0,0.7-0.1
		c0.2-0.1,0.4-0.2,0.6-0.3c0.2-0.1,0.4-0.2,0.5-0.3c0.1-0.1,0.3-0.2,0.4-0.3l0,0l-0.1,0.7C60.1,78.5,60,78.6,59.9,78.6"/>
	<path class="st0" d="M61.7,72.6c0-0.3,0-0.6,0-0.9c0-0.3,0-0.6,0-0.9c0-0.3,0-0.5,0-0.7c0.2,0,0.4,0.1,0.5,0.1c0.1,0,0.3,0,0.5-0.1
		c0,0.2,0,0.4,0,0.7c0,0.3,0,0.6,0,0.9c0,0.3,0,0.6,0,0.9c0,0.3,0,0.6,0,0.8v0.9h0c0.2-0.3,0.5-0.6,0.8-0.8c0.3-0.2,0.6-0.3,1-0.3
		c0.2,0,0.4,0,0.6,0.1c0.2,0.1,0.4,0.2,0.6,0.3c0.2,0.2,0.3,0.4,0.4,0.6c0.1,0.3,0.2,0.6,0.2,1c0,0.3,0,0.7,0,1c0,0.4,0,0.7,0,1.1
		v0.8c0,0.1,0,0.2,0,0.4c0,0.1,0,0.2,0,0.3c-0.2,0-0.3,0-0.5,0c-0.2,0-0.3,0-0.5,0c0-0.4,0-0.8,0.1-1.3c0-0.4,0-0.9,0-1.3v-0.7
		c0-0.6-0.1-1-0.3-1.3c-0.2-0.3-0.5-0.4-0.9-0.4c-0.5,0-0.9,0.2-1.1,0.5c-0.2,0.3-0.4,0.8-0.4,1.4c0,0.2,0,0.5,0,0.8
		c0,0.3,0,0.6,0,0.9c0,0.3,0,0.6,0,0.9c0,0.3,0,0.5,0,0.7c-0.2,0-0.3,0-0.5,0c-0.2,0-0.3,0-0.5,0c0-0.2,0-0.4,0-0.7
		c0-0.3,0-0.6,0-0.9c0-0.3,0-0.6,0-0.9c0-0.3,0-0.6,0-0.9v-2.1C61.7,73.2,61.7,72.9,61.7,72.6"/>
	<path class="st0" d="M68.1,70.9c0.1-0.1,0.2-0.2,0.4-0.2c0.2,0,0.3,0.1,0.4,0.2c0.1,0.1,0.2,0.3,0.2,0.4c0,0.2-0.1,0.3-0.2,0.4
		c-0.1,0.1-0.2,0.2-0.4,0.2c-0.2,0-0.3-0.1-0.4-0.2c-0.1-0.1-0.2-0.3-0.2-0.4C67.9,71.1,68,71,68.1,70.9 M68.1,74.4
		c0-0.4,0-0.7-0.1-1.1c0.2,0,0.4,0.1,0.5,0.1s0.3,0,0.5-0.1c0,0.3-0.1,0.7-0.1,1.1c0,0.4,0,0.8,0,1.1v1.2c0,0.3,0,0.7,0,1.1
		c0,0.4,0,0.7,0.1,1c-0.2,0-0.3,0-0.5,0c-0.2,0-0.3,0-0.5,0c0-0.3,0.1-0.7,0.1-1c0-0.4,0-0.8,0-1.1v-1.2
		C68.1,75.2,68.1,74.8,68.1,74.4"/>
	<path class="st0" d="M71.2,72.6c0-0.3,0-0.6,0-0.9c0-0.3,0-0.6,0-0.9c0-0.3,0-0.5,0-0.7c0.2,0,0.4,0.1,0.5,0.1c0.1,0,0.3,0,0.5-0.1
		c0,0.2,0,0.4,0,0.7c0,0.3,0,0.6,0,0.9c0,0.3,0,0.6,0,0.9c0,0.3,0,0.6,0,0.9v2.1c0,0.3,0,0.6,0,0.9c0,0.3,0,0.6,0,0.9
		c0,0.3,0,0.6,0,0.9c0,0.3,0,0.5,0,0.7c-0.2,0-0.3,0-0.5,0c-0.2,0-0.3,0-0.5,0c0-0.2,0-0.4,0-0.7c0-0.3,0-0.6,0-0.9
		c0-0.3,0-0.6,0-0.9c0-0.3,0-0.6,0-0.9v-2.1C71.2,73.2,71.2,72.9,71.2,72.6"/>
	<path class="st0" d="M74.2,74c0.4-0.5,1.1-0.8,1.9-0.8c0.4,0,0.7,0.1,1,0.2c0.3,0.1,0.5,0.3,0.7,0.5c0.2,0.2,0.3,0.5,0.4,0.8
		c0.1,0.3,0.1,0.6,0.1,0.9c0,0.1,0,0.2,0,0.2c0,0.1,0,0.2,0,0.2c-0.4,0-0.8,0-1.2,0c-0.4,0-0.8,0-1.2,0c-0.2,0-0.5,0-0.7,0
		c-0.2,0-0.5,0-0.7,0c0,0,0,0.1,0,0.2v0.2c0,0.3,0,0.6,0.1,0.8c0.1,0.3,0.2,0.5,0.4,0.7c0.2,0.2,0.4,0.3,0.6,0.5
		c0.2,0.1,0.5,0.2,0.8,0.2c0.1,0,0.3,0,0.5-0.1c0.2,0,0.3-0.1,0.5-0.2c0.1-0.1,0.3-0.2,0.4-0.3c0.1-0.1,0.2-0.2,0.3-0.3l0.1,0
		l-0.1,0.6c-0.2,0.2-0.5,0.3-0.8,0.5c-0.3,0.1-0.7,0.2-1,0.2c-0.4,0-0.8-0.1-1.1-0.2c-0.3-0.1-0.6-0.3-0.9-0.6
		c-0.2-0.2-0.4-0.5-0.6-0.9c-0.1-0.3-0.2-0.7-0.2-1.1C73.5,75.3,73.7,74.6,74.2,74 M75.4,73.8c-0.2,0.1-0.3,0.3-0.5,0.5
		c-0.1,0.2-0.2,0.4-0.3,0.7c-0.1,0.2-0.1,0.5-0.1,0.7c0.2,0,0.5,0,0.7,0c0.2,0,0.5,0,0.7,0c0.2,0,0.5,0,0.7,0c0.2,0,0.5,0,0.7,0
		c0-0.2,0-0.4,0-0.7c0-0.2-0.1-0.5-0.2-0.7c-0.1-0.2-0.2-0.4-0.4-0.5c-0.2-0.1-0.4-0.2-0.7-0.2C75.8,73.6,75.6,73.7,75.4,73.8"/>
	<polygon class="st1" points="51.5,1.7 62.6,26.4 54.9,32.1 45.4,10.7 33.2,39 32.7,39.5 31.7,39.9 23.1,39.9 22.8,39.7 39.3,1.4 
		39.8,1 40.4,1 51,1 51.2,1.2 	"/>
	<polygon class="st0" points="51.5,1.7 62.6,26.4 54.9,32.1 45.4,10.7 33.2,39 32.7,39.5 31.7,39.9 23.1,39.9 22.8,39.7 39.3,1.4 
		39.8,1 40.4,1 51,1 51.2,1.2 	"/>
	<polygon class="st1" points="54.9,32.2 45.1,40.1 58.1,40.1 	"/>
	<polygon class="st0" points="54.9,32.2 45.1,40.1 58.1,40.1 	"/>
	<polygon class="st1" points="62.7,26.6 82.2,10.5 69.4,40 69.2,40 68.8,40 68.5,39.7 	"/>
	<polygon class="st0" points="62.7,26.6 82.2,10.5 69.4,40 69.2,40 68.8,40 68.5,39.7 	"/>
</g>
</svg>
