<?xml version="1.0" encoding="utf-8"?>
<!-- Generator: Adobe Illustrator 20.0.0, SVG Export Plug-In . SVG Version: 6.00 Build 0)  -->
<svg version="1.1" id="Capa_1" xmlns="http://www.w3.org/2000/svg" xmlns:xlink="http://www.w3.org/1999/xlink" x="0px" y="0px"
	 width="95px" height="155px" viewBox="0 0 95 155" style="enable-background:new 0 0 95 155;" xml:space="preserve">
<style type="text/css">
	.st0{fill:#004136;}
	.st1{clip-path:url(#SVGID_2_);fill:#1D1D1B;}
	.st2{clip-path:url(#SVGID_2_);fill:#00ABA8;}
</style>
<g>
	<path class="st0" d="M1.8,85.7c-0.3-0.2-0.4-0.3-0.4-0.9c0-1.2,0.1-2.2,0.1-2.6c0-0.3,0.1-0.4,0.2-0.4s0.2,0.1,0.2,0.3
		c0,0.2,0,0.5,0.1,0.9c0.4,1.8,2.3,2.4,4,2.4c2.5,0,3.8-1.4,3.8-3.2c0-1.7-0.9-2.6-3.2-4.2l-1.1-1c-2.7-2-3.6-3.5-3.6-5.2
		c0-2.9,2.3-4.6,5.6-4.6c1,0,2,0.1,2.6,0.3c0.5,0.1,0.7,0.1,0.9,0.1s0.3,0,0.3,0.2c0,0.1-0.1,0.9-0.1,2.6c0,0.4,0,0.5-0.2,0.5
		s-0.2-0.1-0.2-0.3c0-0.3-0.2-0.9-0.4-1.2c-0.2-0.3-1-1.2-3.3-1.2c-1.8,0-3.4,0.9-3.4,2.6c0,1.5,0.8,2.4,3.3,4.1l0.7,0.5
		c3.1,2.1,4.1,3.8,4.1,5.9c0,1.4-0.5,3-2.3,4.2c-1.1,0.7-2.6,0.9-4,0.9C4.3,86.3,2.8,86.2,1.8,85.7"/>
	<path class="st0" d="M21.9,68.1c0.3-0.8,0.4-0.9,0.6-0.9c0.3,0,0.3,0.3,0.6,0.9c0.5,1,4.5,11.1,6,14.8c0.9,2.2,1.6,2.5,2.1,2.7
		c0.4,0.1,0.7,0.1,1,0.1c0.1,0,0.3,0.1,0.3,0.2S32.3,86,32,86c-0.4,0-2.2,0-4-0.1c-0.5,0-0.9,0-0.9-0.2c0-0.1,0.1-0.1,0.2-0.2
		s0.4-0.3,0.2-0.7l-2.3-5.6c-0.1-0.1-0.1-0.1-0.2-0.1h-5.8c-0.1,0-0.2,0.1-0.3,0.2l-1.4,3.9c-0.2,0.6-0.4,1.2-0.4,1.6
		c0,0.5,0.4,0.7,0.9,0.7h0.2c0.2,0,0.3,0.1,0.3,0.2s-0.1,0.2-0.4,0.2c-0.6,0-2-0.1-2.3-0.1s-1.5,0.1-2.5,0.1c-0.3,0-0.5-0.1-0.5-0.2
		s0.1-0.2,0.2-0.2c0.2,0,0.5,0,0.7-0.1c1.1-0.1,1.6-1,2.1-2.2L21.9,68.1z M24.7,78.2c0.1,0,0.1-0.1,0.1-0.2l-2.5-6.7
		c-0.1-0.4-0.3-0.4-0.4,0L19.6,78c0,0.1,0,0.2,0.1,0.2H24.7z"/>
	<path class="st0" d="M36.1,82.7c0.1,2,0.3,2.6,1,2.8c0.5,0.1,1,0.1,1.3,0.1c0.1,0,0.2,0.1,0.2,0.2S38.4,86,38.1,86
		c-1.4,0-2.4-0.1-2.7-0.1c-0.2,0-1.3,0.1-2.4,0.1c-0.3,0-0.4,0-0.4-0.2c0-0.1,0.1-0.2,0.2-0.2c0.2,0,0.7,0,1-0.1
		c0.6-0.2,0.7-0.8,0.7-3v-14c0-1,0.1-1.2,0.3-1.2c0.3,0,0.7,0.5,1,0.7c0.4,0.4,4.1,4.3,8,8.3c2.5,2.6,5.2,5.5,6,6.3l-0.3-12.2
		c0-1.6-0.2-2.1-0.9-2.3c-0.5-0.1-1-0.1-1.2-0.1s-0.2-0.1-0.2-0.2s0.2-0.2,0.5-0.2c1.1,0,2.3,0.1,2.6,0.1s1.1-0.1,2.2-0.1
		c0.3,0,0.5,0,0.5,0.2c0,0.1-0.1,0.2-0.3,0.2c-0.1,0-0.3,0-0.6,0.1c-0.8,0.2-0.9,0.7-0.9,2.1L51,84.4c0,1.6,0,1.7-0.2,1.7
		c-0.3,0-0.5-0.2-1.9-1.5c-0.3-0.2-3.9-3.8-6.6-6.6c-2.9-3.1-5.8-6-6.5-6.9L36.1,82.7z"/>
	<path class="st0" d="M63.5,78.9c0,2.4,0,4.3,0.1,5.3c0.1,0.7,0.2,1.2,1,1.3c0.3,0.1,0.9,0.1,1.1,0.1s0.2,0.1,0.2,0.2
		S65.8,86,65.5,86c-1.4,0-3-0.1-3.1-0.1S60.5,86,59.8,86c-0.3,0-0.4-0.1-0.4-0.2s0.1-0.2,0.2-0.2c0.2,0,0.5-0.1,0.7-0.1
		c0.5-0.1,0.7-0.6,0.7-1.3c0.1-1,0.1-2.9,0.1-5.3V68.7l-3.6,0.1c-1.6,0-2.2,0.2-2.5,0.8c-0.3,0.4-0.3,0.6-0.4,0.8
		c-0.1,0.2-0.1,0.2-0.3,0.2c-0.1,0-0.2-0.1-0.2-0.2c0-0.3,0.5-2.4,0.5-2.6c0.1-0.1,0.2-0.5,0.3-0.5c0.2,0,0.4,0.2,1.1,0.3
		c0.7,0.1,1.7,0.1,2,0.1h9.5c0.8,0,1.4-0.1,1.8-0.1c0.4-0.1,0.6-0.1,0.7-0.1s0.1,0.1,0.1,0.3c0,0.7-0.1,2.5-0.1,2.8
		c0,0.2-0.1,0.3-0.2,0.3s-0.2-0.1-0.2-0.4v-0.3c-0.1-0.7-0.6-1.3-3-1.3l-3.2-0.1v10.1H63.5z"/>
	<path class="st0" d="M81,67.3c5.7,0,10,3.5,10,9.1c0,5.4-4,9.9-10.1,9.9c-6.9,0-9.9-5.2-9.9-9.6C71,72.8,74.1,67.3,81,67.3
		 M81.6,85.3c2.3,0,6.8-1.2,6.8-8.3c0-5.8-3.6-8.9-7.5-8.9c-4.2,0-7.3,2.6-7.3,7.9C73.7,81.8,77.1,85.3,81.6,85.3"/>
	<path class="st0" d="M9.2,103.6c0,2.3,0,4.2,0.1,5.2c0.1,0.7,0.2,1.2,1,1.3c0.3,0.1,0.9,0.1,1.1,0.1c0.2,0,0.2,0.1,0.2,0.2
		s-0.1,0.2-0.4,0.2c-1.4,0-2.9-0.1-3.1-0.1c-0.1,0-1.8,0.1-2.6,0.1c-0.3,0-0.4-0.1-0.4-0.2s0.1-0.2,0.2-0.2c0.2,0,0.5-0.1,0.7-0.1
		c0.5-0.1,0.7-0.6,0.7-1.3c0.1-1,0.1-2.9,0.1-5.2V93.5l-3.6,0.1c-1.6,0-2.2,0.2-2.5,0.8c-0.3,0.4-0.3,0.6-0.4,0.8
		c-0.1,0.2-0.1,0.2-0.3,0.2c-0.1,0-0.2-0.1-0.2-0.2c0-0.3,0.5-2.4,0.5-2.6C0.6,92.3,0.7,92,0.8,92c0.2,0,0.4,0.2,1.1,0.3
		c0.7,0.1,1.7,0.1,2,0.1h9.4c0.8,0,1.4-0.1,1.8-0.1c0.4-0.1,0.6-0.1,0.7-0.1c0.1,0,0.1,0.1,0.1,0.3c0,0.7-0.1,2.5-0.1,2.7
		s-0.1,0.3-0.2,0.3c-0.1,0-0.2-0.1-0.2-0.4v-0.3c-0.1-0.7-0.6-1.3-3-1.3l-3.1-0.1L9.2,103.6L9.2,103.6z"/>
	<path class="st0" d="M26.6,92c5.6,0,9.9,3.4,9.9,9c0,5.4-4,9.8-10,9.8c-6.8,0-9.7-5.1-9.7-9.5C16.7,97.6,19.7,92,26.6,92
		 M27.1,109.9c2.2,0,6.7-1.2,6.7-8.2c0-5.8-3.5-8.8-7.5-8.8c-4.2,0-7.2,2.6-7.2,7.8C19.3,106.4,22.6,109.9,27.1,109.9"/>
	<path class="st0" d="M57.9,107.5c0.1,0.9,0.3,2.2,1.3,2.5c0.7,0.2,1.4,0.2,1.6,0.2c0.1,0,0.2,0.1,0.2,0.2s-0.2,0.2-0.5,0.2
		c-0.6,0-3.3-0.1-4.3-0.1c-0.6-0.1-0.7-0.1-0.7-0.3c0-0.1,0.1-0.2,0.2-0.2c0.1,0,0.2-0.4,0.1-0.9L54.6,97h-0.1l-6,12.3
		c-0.5,1-0.7,1.3-0.9,1.3s-0.4-0.2-0.9-1.1c-0.7-1.2-2.3-4.3-2.9-5.6c-0.7-1.5-2.7-5.6-3.2-6.6h-0.1l-1,10.9c0,0.4,0,0.8,0,1.2
		c0,0.4,0.2,0.6,0.6,0.7c0.4,0.1,0.8,0.1,1,0.1c0.1,0,0.2,0.1,0.2,0.2c0,0.2-0.2,0.2-0.5,0.2c-0.9,0-2.1-0.1-2.3-0.1
		s-1.4,0.1-2.1,0.1c-0.3,0-0.4-0.1-0.4-0.2s0.1-0.2,0.3-0.2s0.4,0,0.7-0.1c0.8-0.1,0.8-1,1-1.9l1.8-15.7c0-0.3,0.1-0.4,0.3-0.4
		s0.4,0.1,0.5,0.4l7.5,15l7.3-14.9c0.1-0.2,0.2-0.4,0.4-0.4s0.3,0.2,0.4,0.7L57.9,107.5z"/>
	<path class="st0" d="M69.5,92.9c0.3-0.8,0.4-0.9,0.6-0.9c0.3,0,0.3,0.3,0.6,0.9c0.5,1,4.4,11,6,14.6c0.9,2.2,1.6,2.5,2.1,2.6
		c0.4,0.1,0.7,0.1,1,0.1c0.1,0,0.3,0.1,0.3,0.2s-0.3,0.2-0.6,0.2c-0.4,0-2.2,0-3.9-0.1c-0.5,0-0.9,0-0.9-0.2c0-0.1,0.1-0.1,0.2-0.2
		s0.4-0.3,0.2-0.7l-2.2-5.5c-0.1-0.1-0.1-0.1-0.2-0.1h-5.8c-0.1,0-0.2,0.1-0.3,0.2l-1.4,3.9c-0.2,0.6-0.4,1.2-0.4,1.6
		c0,0.5,0.4,0.7,0.8,0.7H66c0.2,0,0.3,0.1,0.3,0.2s-0.1,0.2-0.4,0.2c-0.6,0-2-0.1-2.2-0.1c-0.3,0-1.5,0.1-2.5,0.1
		c-0.3,0-0.5-0.1-0.5-0.2s0.1-0.2,0.2-0.2c0.2,0,0.5,0,0.7-0.1c1.1-0.1,1.6-1,2.1-2.2L69.5,92.9z M72.3,102.9c0.1,0,0.1-0.1,0.1-0.2
		l-2.5-6.6c-0.1-0.4-0.3-0.4-0.4,0l-2.3,6.6c0,0.1,0,0.2,0.1,0.2H72.3z M74.5,88.6c0.1,0.3,0,0.3-0.1,0.3s-0.4-0.1-0.8,0
		c-1.4,0.1-3.4,0.8-4.3,1.2c-0.2,0.1-0.4,0.1-0.4,0.1c-0.1,0-0.1-0.1-0.1-0.2s0.1-0.1,0.2-0.2c1-0.7,3.7-2.3,3.9-2.4
		c0.5-0.3,0.7-0.4,0.8-0.4c0.1,0,0.1,0.1,0.3,0.3C74,87.6,74.2,88,74.5,88.6"/>
	<path class="st0" d="M80.7,110.3c-0.3-0.2-0.4-0.3-0.4-0.9c0-1.2,0.1-2.2,0.1-2.6c0-0.3,0.1-0.4,0.2-0.4s0.2,0.1,0.2,0.3
		c0,0.2,0,0.5,0.1,0.9c0.4,1.8,2.3,2.4,3.9,2.4c2.5,0,3.7-1.4,3.7-3.2c0-1.7-0.9-2.5-3.1-4.2l-1.1-0.8c-2.7-2-3.6-3.5-3.6-5.2
		c0-2.8,2.2-4.5,5.5-4.5c1,0,2,0.1,2.6,0.3c0.5,0.1,0.7,0.1,0.9,0.1c0.2,0,0.3,0,0.3,0.2c0,0.1-0.1,0.9-0.1,2.6c0,0.4,0,0.5-0.2,0.5
		s-0.2-0.1-0.2-0.3c0-0.3-0.2-0.9-0.4-1.2c-0.2-0.3-1-1.2-3.2-1.2c-1.8,0-3.3,0.9-3.3,2.6c0,1.5,0.8,2.4,3.2,4.1l0.7,0.5
		c3,2.1,4.1,3.7,4.1,5.8c0,1.4-0.5,2.9-2.3,4.1c-1,0.7-2.6,0.8-4,0.8C83.2,110.9,81.7,110.7,80.7,110.3"/>
	<path class="st0" d="M92.1,67.5c-0.3,0.2-0.6,0.4-0.7,0.7c-0.2,0.3-0.3,0.6-0.3,1c0,0.3,0.1,0.7,0.3,1c0.2,0.3,0.4,0.6,0.7,0.7
		c0.3,0.2,0.6,0.3,1,0.3c0.3,0,0.7-0.1,1-0.3c0.3-0.2,0.6-0.4,0.7-0.7c0.2-0.3,0.3-0.6,0.3-1c0-0.3-0.1-0.7-0.3-1
		c-0.2-0.3-0.4-0.6-0.7-0.7c-0.3-0.2-0.6-0.3-1-0.3S92.4,67.3,92.1,67.5 M93.8,67.7c0.3,0.1,0.5,0.3,0.6,0.6
		c0.1,0.3,0.2,0.5,0.2,0.8s-0.1,0.6-0.2,0.8c-0.1,0.3-0.3,0.5-0.6,0.6c-0.3,0.1-1,0.2-0.8,0.2c0.3,0-0.6-0.1-0.8-0.2
		c-0.3-0.1-0.5-0.3-0.6-0.6c-0.1-0.3-0.2-0.5-0.2-0.8s0.1-0.6,0.2-0.8c0.1-0.3,0.4-0.5,0.6-0.6c0.3-0.1,0.5-0.2,0.8-0.2
		S93.6,67.6,93.8,67.7 M92.5,70.3v-0.9h0.2c0.1,0,0.2,0,0.3,0.1c0.1,0.1,0.2,0.2,0.4,0.5l0.2,0.3H94l-0.3-0.4
		c-0.1-0.2-0.2-0.3-0.3-0.4c0,0-0.1-0.1-0.2-0.1c0.2,0,0.3-0.1,0.4-0.2s0.2-0.2,0.2-0.4c0-0.1,0-0.2-0.1-0.3
		c-0.1-0.1-0.2-0.2-0.3-0.2c-0.1,0-0.3-0.1-0.5-0.1h-0.7v2.1H92.5z M92.5,68.4h0.4c0.2,0,0.3,0,0.3,0c0.1,0,0.1,0.1,0.1,0.1
		s0.1,0.1,0.1,0.2s0,0.2-0.1,0.2C93.2,69,93.1,69,92.9,69h-0.4V68.4z"/>
	<path class="st0" d="M41.2,36.3L41.2,36.3v0.3l1,0.7v-0.1l0.1,0.1c0,0,0-0.2,0-0.3c0,0-0.3-0.3-0.3-0.4
		C42.1,36.5,41.2,36.3,41.2,36.3"/>
	<path class="st0" d="M22.1,24c0-13.2,10.7-24,24-24s24,10.7,24,24c0,13.2-10.7,24-24,24S22.1,37.2,22.1,24 M23.5,24
		c0,12.5,10.1,22.6,22.6,22.6S68.7,36.5,68.7,24S58.6,1.4,46.1,1.4C33.6,1.4,23.5,11.5,23.5,24"/>
	<path class="st0" d="M24.5,24c0-11.9,9.7-21.6,21.6-21.6C58,2.3,67.7,12,67.7,24c0,11.9-9.7,21.6-21.6,21.6S24.5,35.9,24.5,24
		 M25.1,24c0,11.6,9.4,21,21,21s21-9.4,21-21s-9.4-21-21-21S25.1,12.4,25.1,24"/>
	<path class="st0" d="M47.1,21.1c0.2-0.2,0.4-0.4,0.6-0.6c0.1-0.1,0.2-0.3,0.3-0.4c0-0.1,0.1-0.2,0.3-0.2c0,0.3-0.2,0.6-0.4,0.8
		C47.7,20.8,47.3,21,47.1,21.1 M52.4,24.1c0-0.1,0.1-0.2,0.2-0.3c0-0.2-0.4,0-0.3-0.4c0.1,0,0.1,0,0.3,0c0.1,0,0.2,0,0.3,0.1v0.2
		c0,0.1,0.3,0,0.3,0.2c-0.1,0.2-0.3,0.2-0.5,0.2C52.5,24.1,52.4,24.1,52.4,24.1 M50.2,26.1v-0.2c-0.1-0.1-0.2-0.1-0.3-0.1
		c-0.2,0-0.4,0.1-0.7,0.1c0.4-0.5,1.1-0.4,1.6-0.7c0-0.1,0-0.2,0.1-0.3l2.1-0.5c-0.1,0.2-0.2,0.3-0.4,0.5c-0.1-0.1-0.3-0.1-0.4-0.1
		L50.2,26.1z M47.7,24.2c-0.1,0-0.2,0-0.3,0s-0.2,0-0.2-0.1l3.5-1.4c0-0.1-0.1-0.1-0.1-0.2l0.2-0.1c0.4,0,0.6,0.2,1,0.3l0.1,0.2
		L50,23.4C49.2,23.6,48.8,23.9,47.7,24.2 M49.9,24.8v-0.1c0.4-0.3,1-0.5,1.5-0.5l0.1-0.2c0.1,0,0.2,0,0.3,0s0.3,0.1,0.3,0.2
		s-0.1,0.1-0.3,0.1c-0.4,0.5-1,0.4-1.6,0.5C50.2,24.7,50,24.8,49.9,24.8 M47.5,16.3c-0.2-0.1-0.3,0-0.5-0.1c0,0,0-0.1,0-0.2
		c0-0.2,0.1-0.3,0.2-0.4h0.2l0.4,0.6L47.5,16.3z M39.1,30.2L39.1,30.2c-0.3,0-0.4,0.3-0.6,0.4c0-0.1,0-0.1,0-0.3c0,0,0-0.1,0.1-0.2
		c0.1,0,0.5-0.4,0.5-0.4c0.1,0,0.3,0.1,0.3,0.2C39.3,30.1,39.1,30.2,39.1,30.2 M37,31.6c0.1-0.1,0.2-0.4,0.3-0.4
		c0,0,0.4-0.5,0.5-0.5c0,0,0.1,0,0.2,0c0,0,0.1,0,0,0.2c-0.1,0.1-0.2,0.3-0.3,0.4c0,0-0.5,0.4-0.8,0.5C37,31.8,36.9,31.8,37,31.6
		 M36.1,30.4v-0.1c0-0.2,0.2-0.3,0.5-0.5l0.4-0.2c0-0.1,0.1-0.3,0.2-0.3c0.1,0,0.2,0.1,0.2,0.2s-0.5,0.8-0.7,0.8
		C36.6,30.1,36.2,30.4,36.1,30.4 M38.5,28.5L38.5,28.5c-0.1,0.2-0.1,0.3-0.2,0.4c-0.1,0.1-0.5,0.3-0.6,0.2c0,0,0-0.1,0-0.2v-0.2
		c0.2-0.1,0.4-0.1,0.6-0.3C38.3,28.4,38.4,28.5,38.5,28.5 M36.9,27.8c0-0.1-0.1-0.1,0-0.4c0.1,0,0.1-0.1,0.2-0.2
		c0-0.1,0.3-0.3,0.4-0.3c0.1,0,0.1,0.1,0.2,0.2c0,0,0,0.1-0.2,0.2c-0.1,0.1-0.2,0.2-0.3,0.2C37.1,27.6,37.1,27.7,36.9,27.8
		 M35.2,28.9l0.1-0.1c0.1-0.1,0.3-0.1,0.4-0.2l0.2-0.4c0.1-0.1,0.2-0.2,0.3-0.2s0.2,0,0.2,0.1c0,0,0.1,0.1,0,0.2s-0.2,0.2-0.3,0.2
		c-0.1,0.1-0.3,0.2-0.4,0.4c-0.1,0.1-0.2,0.2-0.4,0.3C35.3,29.1,35.4,29.1,35.2,28.9 M36.9,25.8L36.9,25.8c0,0.1-0.2,0.3-0.3,0.3
		c0,0-0.1,0.1-0.2,0.2c-0.1,0-0.2,0.2-0.2,0.2L36,26.2V26c0-0.2,0.4-0.1,0.5-0.3c0-0.2,0.1-0.1,0.3-0.1L36.9,25.8z M34.5,27.8
		c-0.1,0-0.1-0.1-0.1-0.3l0.1-0.2c0-0.2,0.4-0.2,0.5-0.3c0,0,0.2-0.4,0.4-0.5c0.1,0,0.2,0.1,0.3,0.3l-0.2,0.1c0,0-0.1,0.2-0.3,0.3
		c-0.1,0-0.4,0.2-0.5,0.4C34.6,27.7,34.6,27.7,34.5,27.8 M35.9,24.1c0,0,0.1,0.1,0.2,0.2c-0.1,0.2-0.2,0.2-0.4,0.3
		c0,0-0.2,0.2-0.3,0.2c-0.1,0.1-0.3,0.3-0.4,0.4c-0.1,0-0.1,0-0.2-0.1c0-0.1,0-0.1,0-0.2v-0.2c0.1-0.1,0.3-0.2,0.4-0.2l0.2-0.2
		C35.4,24.5,35.8,24.2,35.9,24.1 M33.5,26.5c-0.1,0-0.1-0.2-0.2-0.2c0-0.1,0.1-0.1,0.2-0.3l0.1-0.2c0.1-0.1,0.2,0,0.3-0.1
		c0,0,0-0.1,0-0.2c0-0.2,0.4-0.2,0.6-0.1v0.2c0,0.1-0.2,0.1-0.2,0.2s-0.3,0.3-0.5,0.4C33.8,26.3,33.7,26.3,33.5,26.5 M38.4,22.5v0.3
		c-0.1,0-0.2,0.2-0.3,0.2c0,0-0.2,0.1-0.2,0.2c-0.1,0.1-0.3,0.4-0.4,0.3l-0.2,0.1c-0.1,0-0.3,0.1-0.3,0.2c-0.2-0.1-0.2-0.2-0.1-0.4
		c0.1-0.1,0.3-0.3,0.5-0.4c0.1,0,0.1-0.1,0.2-0.1c0.1-0.1,0.2-0.4,0.3-0.4l0.3-0.2C38.3,22.5,38.4,22.5,38.4,22.5 M37.3,24.6
		c0,0-0.1-0.2,0-0.3c0,0,0.1-0.1,0.2-0.2c0,0,0.2,0.2,0.1,0.4C37.6,24.5,37.5,24.6,37.3,24.6 M34.8,26.5L34.8,26.5
		c0,0.1-0.2,0.3-0.2,0.3c-0.1,0.1-0.1,0.1-0.2,0.2c-0.1,0.1-0.2,0.1-0.2,0.1s-0.1,0-0.2,0.1L33.9,27c0.1-0.1,0.2-0.1,0.2-0.2
		c0.1-0.3,0.3-0.2,0.5-0.4C34.5,26.3,34.7,26.3,34.8,26.5 M35.1,26.4L35,26.2c-0.1,0-0.1-0.1,0-0.2l0.3-0.2c0.1,0,0.2-0.2,0.3-0.2
		c0,0,0.2-0.1,0.2-0.2s0.2-0.3,0.2-0.3c0.1-0.1,0.2-0.2,0.2-0.2c0.1,0,0.1,0,0.2,0c0,0,0,0.1,0.1,0.2c-0.1,0.1-0.1,0.1-0.2,0.2
		l-0.6,0.6c0,0.1-0.2,0.1-0.3,0.2c0,0-0.1,0.1-0.2,0.1C35.2,26.2,35.2,26.4,35.1,26.4 M35.6,27.6L35.6,27.6c0,0.2-0.1,0.2-0.1,0.3
		c-0.2,0.2-0.6,0.5-0.8,0.5v-0.2c0.1-0.1,0.4-0.5,0.7-0.6C35.4,27.6,35.5,27.6,35.6,27.6 M35.9,27.6L35.9,27.6
		c-0.1,0-0.2-0.2-0.2-0.2s0,0,0.1-0.2L36,27c0.1,0,0.1,0,0.3-0.2c0.1,0,0.1-0.1,0.2-0.1c0-0.1,0.3-0.4,0.3-0.4
		c0.1-0.1,0.2-0.1,0.2-0.2c0,0,0.1,0,0.2,0l0.1,0.2c-0.1,0-0.1,0.3-0.3,0.3c0,0-0.3,0.1-0.3,0.2c-0.4,0.1-0.3,0.6-0.6,0.6
		C36.1,27.5,35.9,27.5,35.9,27.6 M37.2,28.1L37.2,28.1c0.2-0.2,0.3-0.2,0.3-0.3c0.1-0.1,0.3-0.2,0.3-0.3c0.1,0,0.2,0,0.2,0.2
		c0,0.1-0.2,0.3-0.4,0.4s-0.2,0.3-0.3,0.3C37.3,28.4,37.3,28.2,37.2,28.1 M37.1,28.5c0.1,0.1,0.1,0.1,0,0.3
		c-0.1,0.1-0.5,0.3-0.5,0.4c-0.3,0-0.4,0.4-0.5,0.5l-0.2,0.1c-0.1,0-0.1-0.1-0.2,0c-0.1,0-0.1-0.1,0-0.2c0-0.2,0.3-0.3,0.4-0.3
		c0.1,0,0.2-0.1,0.3-0.3C36.5,28.7,36.8,28.5,37.1,28.5 M37.4,30.3c0-0.1-0.1-0.1-0.1-0.2s0.2-0.4,0.2-0.4c0.2-0.1,0.3-0.2,0.5-0.3
		l0.3-0.3c0-0.1,0.3-0.1,0.4-0.1c0.1,0,0.2,0,0.2,0.1s-0.1,0.2-0.2,0.3l-0.6,0.5C38,30,38,30.1,37.8,30.2L37.4,30.3z M37.3,30.4
		c0.1,0.1,0.1,0.1,0.1,0.2s-0.3,0.2-0.3,0.2c-0.1,0.1-0.4,0.4-0.5,0.4h-0.2c0-0.1-0.1-0.1-0.1-0.2s0.1-0.3,0.2-0.3l0.3-0.1
		c0-0.1,0.3-0.2,0.3-0.2H37.3z M32.7,22.9C33.3,16,39,10.6,46,10.6c7.4,0,13.4,6,13.4,13.4c0,2.3-0.2,3.9-1.2,5.7
		c-0.1,0.4-0.1,1.5-0.1,2c0,0,0,0.8-0.6,2.2c-0.2,0.5-0.5,0.9-0.9,1.3c-0.8,0.8-1.5,1.1-2.7,1.6c-0.1,0-0.7,0.2-0.7,0.1
		c-0.1,0-0.3,0-0.3,0c-0.4,0.1-0.5,0.3-1,0.4c-0.5,0.1-1,0-1.5,0.2c-1,0.3-1.5,0.4-2.3,0.8c-0.4,0.1-0.9,0.4-1.3,0.6
		c-0.5,0.2-0.8,0.3-1.1,0.6c-0.2,0.1-0.8,0.4-1.2,0.4s-0.7-0.8-0.9-0.9c-0.9-0.5-1.7-2.2-1.8-2.5c-2.1-0.6-2.4-1.3-4.2-2.4
		c0,0-0.1,0.1-0.2,0.2c-0.2,0.1-0.7,0.4-0.7,0.4l-3-3.9L31.8,28l-1.7-3l1.3-1C31.8,23.6,32.4,23.2,32.7,22.9 M32.7,27.6l0.1-0.2
		c-0.3-0.3-0.8-0.7-1.2-1C32,26.8,32.4,27.2,32.7,27.6 M31.6,25.6c0,0,0.5,0.4,1.2,1c0.3,0.2,0.7,0.8,0.9,1.1
		c1.3,2.1,2.2,3.9,3.7,5.8h0.2c0.7-0.4,1-1.2,1.8-1.7c-0.1-0.3-0.1-0.5-0.1-0.8c0-0.8,0.4-1.3,1.1-1.6c-0.1-0.1-0.3-0.1-0.3-0.2
		c-0.1-0.2,0-0.5-0.3-0.5c-0.1-0.1-0.1-0.2-0.1-0.3c0-0.3,0.5-0.7,0.5-1.1c0-0.1-0.1-0.4-0.2-0.4c-0.7,0-1-1.6-1-2.1
		c0-0.2,0-0.3,0.1-0.5c-0.1,0-0.1-0.5-0.2-0.5c-0.2,0-0.2,0.2-0.3,0.2c-0.3,0.1-0.6,0.1-0.9,0.3c0.1-0.2,1-0.9,1.2-1L38.8,22
		c-0.5-0.5-0.7-1.5-1.4-1.7c-0.1,1.5-0.4,1.7-1.9,2.2c0.9,1.3,1.6,2.7,2.5,4c0.6,1,1.3,1.8,1.7,2.8l-0.5-0.2c-0.6-1.7-2.8-5-4-6.5
		C35.3,24,31.6,25.6,31.6,25.6 M33.2,27.9l0.1,0.3c0.1,0.1,0.2,0.3,0.3,0.4c1.1,1.6,2,3.3,3.2,4.8C35.5,31.4,34.3,29,33.2,27.9
		 M31.1,26.3c0.9,1.5,4.4,6.5,5.6,7.8H37c-0.5-0.3-0.8-0.7-1.2-1.2c-0.9-1.2-1.5-2.2-1.6-2.5C34,30.1,31.3,26.5,31.1,26.3
		 M37.3,34.4c1.3,1.2,3.3,2.3,5.1,2.8c-0.1-0.1-0.1-0.2-0.2-0.3c-0.1,0-0.8-0.2-0.9-0.3c0,0-0.3-0.6-0.5-1c-1-0.5-2-1.1-2.8-1.8
		l-0.5,0.6C37.4,34.2,37.4,34.3,37.3,34.4L37.3,34.4 M44.2,37.9c0.2,0.9,0.8,1.7,1,0.1c0.1-0.3,0.2-0.6,0.4-0.9
		c-0.1-0.2-0.4-0.1-0.5-0.2c0.2-0.4-0.1-0.7,0-1.2c0.2,0,0.8,1.1,0.8,1.3s0,0.3-0.1,0.5c0.3,0.2-0.1,0.3-0.1,0.5
		c0.3,0,0.5-0.8,0.8-1c0.5-0.4,1.5-0.3,2.1-0.6c-0.1-0.1,0-0.1,0-0.2l-0.3,0.1c0,0.2-0.1,0.3-0.4,0.3c-0.2,0-0.2-0.1-0.4-0.1
		c-0.1,0-0.4,0.2-0.7,0c0-0.1,0.1-0.1,0.3-0.2c-0.2,0-0.5,0.1-0.7,0.1s-0.1-0.3-0.4-0.3c-0.6,0-0.5-0.4-1-0.5l0-0.4
		c0-0.1,0.2-0.1,0.1-0.2c-0.1,0-0.2,0.1-0.2,0.1c-0.2,0-0.2-0.3-0.2-0.4c0-0.7-0.1-1.3-0.1-2c0.1,0,0.1,0,0.1,0c0.6,0-0.1,1.5,0.8,2
		c0,0.5,0.7,0.8,1.1,1.2c0.4,0,0.6-0.2,0.8-0.4c0.4-0.1,1-0.2,1.4-0.2c0.2,0,0.4,0,0.6,0c-0.4,0.4-1.1,0.1-1.7,0.5
		c0.8-0.2,1.9-0.4,2.8-0.4c0.6,0,1.2,0,1.9-0.2c-0.3-0.3-1.2-0.6-1.7-0.7c0.1,0,0.2,0,0.3,0c1.1,0,2.3,0.3,3.4,0.3l0.3-0.2
		c0-0.6,0.9-1.5,1.5-2.1l0.2,0.1c0.2-0.1,0.6-0.4,0.6-0.6c0-0.1-0.3,0-0.4-0.1c0-0.1,0-0.2,0-0.3c0-0.7,0.7-1.2,0.7-1.9
		c0-0.1,0-0.2-0.1-0.3c-0.7-0.3-0.5-1.2-1-1.6H56c-0.1,0.3-0.2,0.6-0.2,0.9c0,0.9,0.3,2.1-0.9,2.8c-0.8,0.4-0.7,0.4-1.6,0.4
		c-1.3,0-2.7-0.4-3.9-0.8l0.1-0.2c0.1,0,0.2,0,0.3,0s0.1,0.1,0.3,0.1c0.1,0,0.2,0,0.3,0c0.2,0.1,1.3,0.5,1.4,0.4
		c0.1,0,0.3,0.2,0.4,0.2c0.3,0,0.9-0.1,1.2-0.1l0.3,0.2c1.3,0,0.8-2.1,1.5-2.1c0.1,0,0.2,0.1,0.3,0c-0.1-0.2-0.1-0.3-0.1-0.5
		c0-0.3,0.1-0.7,0.1-1c0-0.2,0-0.3-0.1-0.5c-0.3-0.1-0.6-0.3-1-0.3c-0.1,0-0.2,0-0.3,0c-1.1,0.8-1.9,1.9-3.5,2.2
		c0.1,0.1,2.1,0.2,2.4,0.2c0,0.2,0.3,0.2,0.5,0.2c0.3,0,0.7,0.5,0.7,0.7c0,0.1-0.1,0.2-0.3,0.2c-0.7,0-0.2-0.6-1.6-0.6
		c-0.4,0-0.9,0-1.3,0.1c0,0.1-0.2,0.1-0.2,0.1c-0.4-0.1-0.8-0.3-1.2-0.3c-0.1,0-0.3,0-0.4,0.1c0,0.1,0.1,0.2,0.1,0.4
		c-0.8-0.2-1.5-0.6-2.4-0.6l-0.2,0.1c0,0.2,0.9,0.5,1.1,0.6v0.2c-0.1,0-0.2,0.1-0.4,0.1c-0.2-0.1-2-0.8-2.1-0.8s-0.2,0-0.4,0.2
		c0.1,0.1,0.2,0,0.3,0.1c0.8,0.2,0.9,0.7,1.4,1.1c0.3,0.3,0.8,0.6,1.3,0.8c0.3,0.9,1.4,1.3,2.3,1.9c-0.1,0.2,0.1,0.4-0.3,0.4
		c-0.4-0.1-1.9-0.6-1.9-1c0-0.1,0.1-0.1,0.2-0.2c-0.1,0-0.6-0.6-0.6-0.7c0-0.1-0.1-0.1-0.2-0.2c0.1,0.3-0.1,0.4-0.1,0.6
		c0,0.1,0,0.1,0,0.3c-0.7,0.1-0.4-0.4-0.6-0.6c-0.5-0.4-1.5-2.2-2.1-2.2c0,0,0.2,0.1,0.2,0.2c0.2,0.2,0.6,0.5,0.6,0.8
		c0,0.1,0,0.1,0,0.2c0.1,0.2,0.3,0.4,0.6,0.5l-0.1,0.2c-1.1,0-0.7-1.4-1.9-1.7c0.2,1.1-0.2,2.3-0.2,3.4
		C43.5,35.6,43.8,36.7,44.2,37.9 M46.3,38.1c0.2,0,0.4,0,0.5,0c0.2-0.2,0.4-0.4,0.7-0.7h-0.3C47,37.6,46.6,37.8,46.3,38.1
		 M57.9,28.9c0.7-1.6,1.2-3.2,1.2-5c0-7.2-5.9-12.9-13-12.9c-6.6,0-12,5-12.8,11.3c0.3-0.3,0.6-0.5,0.8-0.8c1-5.7,6-9.9,12-9.9
		c6.7,0,12.2,5.4,12.2,12.1c0,0.8-0.1,1.6-0.2,2.3l0.6,1.1C58.7,28.5,58.3,29,57.9,28.9 M30.7,25.6h0.2c0.2-0.2,2.4-1.7,2.5-1.8
		c0.2-0.1,0.5-0.3,0.5-0.5L30.7,25.6z M58.3,27.2L58.3,27.2c-0.2-0.9-1.1-1.5-1.3-2.4c-0.4-0.1-0.8-0.5-0.8-0.9c0-0.1,0-0.2,0.1-0.2
		c0.6,0,1.6,1.9,1.7,2c0-0.6-0.3-1.1-0.3-1.6c0-0.3,0.2-0.6,0.4-0.8c-0.3-0.6-0.3-0.1-0.3-1.2c-0.6-0.7-0.6-1.3-1.6-1.8
		c-0.1-0.1-0.1-0.3-0.1-0.3l-1.7-0.3c0.1-0.3,1.5-0.3,1.6-0.4l-0.6-0.6c-0.3,0.3-0.5,0.7-1,0.8c0,0.1-0.1,0.2-0.1,0.3
		c-0.8,0.1-1.6,0.3-2.4,0.6c-1.5,0.6-3.2,2.1-4.9,2.1c-0.1,0-0.3,0-0.2-0.3c2.3-0.2,7-3.4,7.5-3.4c0.2,0,0.3,0.2,0.6,0.3l-0.2-0.2
		c-0.1-0.6,0.7-0.5,0.7-1l-0.9-0.7l-0.3-0.9c-0.1,0-0.2-0.1-0.3-0.1s-0.3,0-0.5,0.2c0,0.1,0.3,0.2,0.3,0.3c0,0.7-0.9,2.6-1.6,3
		l-2,1.1c-0.7,0.4-2.5,1.2-3.2,1.2c-0.1,0-0.3,0-0.3-0.1s0.1-0.1,0.1-0.2c1.7-0.3,3.1-1.1,4.5-2c0-0.3-0.3-0.9-0.6-0.9
		c-0.4,0-0.6,0-0.6-0.4c0-0.1,0-0.2,0.2-0.2c0.1,0,0.5,0.2,0.5-0.2c0-0.3,0.2-0.4,0.1-0.6h-0.2c-0.2,0-0.4-0.1-0.6,0v0.3
		c0,0.2-0.2,0.2-0.2,0.4c0,0.2,0.1,0.3,0.1,0.6l-0.3,0.1c-0.2,0.4-0.2,0.9-0.7,1l-0.1-0.2c0-0.2,0.3-0.2,0.3-0.5
		c-0.1,0-0.4,0.1-0.5,0c-0.2-0.2-0.1-0.9-0.3-1c-0.7,0-0.4-0.4-0.8-0.3c-0.2,0-0.1-0.5-0.5-0.5c-0.9,0-0.9-0.6-1.7-0.6
		c-0.2,0-0.4,0-0.6,0.1c0,0.1,0,0.2,0,0.3c0,0.3,0.2,0.7,0.2,0.9c0,0.1-0.1,0.2,0.1,0.2c0.3,0,1.1-0.1,1.1,0.4
		c0,0.2-0.3,0.3-0.3,0.4c-0.1,0.1,0,0.4-0.2,0.4s-0.3-0.5-0.6-0.7v1.4c0.2,0,0.2-0.3,0.6-0.3v-0.3c0,0,0.3,0.5,0.2,0.7
		c-0.2,0-0.4-0.2-0.4,0.1c0,0.1,0.1,0.2,0.2,0.2c0.1,0,0.6-0.1,0.6,0c0,0.3-0.4,0.1-0.4,0.3c0,0.3,0.3,0.1,0.3,0.4s-0.1,0.6,0.5,0.6
		c0,0.3-0.3,0.3-0.5,0.4v0.2h0.2c-0.1,0.2,0,0.4,0.2,0.4c2.3,0,4.7-0.9,6.6-2.2c0.3,0.1,0.6-0.1,0.9-0.1c0.2,0,0.4,0,0.5,0.2
		l0.1,0.2L54,21c0.2,0.1,0.4,0.2,0.6,0.2c0.6,0,1.1-0.4,1.6-0.4c0.9,0,1.1,1.4,1.2,2c0.1,0.2,0.4,0.5,0.4,0.5c0,0.1-0.4,0.2-0.4,0.2
		c-0.5,0-0.5-1-0.6-1h-0.3c-0.3-0.2-1.1-0.3-1.1-0.7c-0.8-0.3-1.7-0.4-2.6-0.4c-2.2,0-2.1,1.1-2.9,1.1c-0.1,0-0.6-0.1-0.7,0.1
		c-0.1,0.1,0,0.3-0.1,0.4c-0.4-0.1-0.9-0.1-1.2,0.2h-1.8c0.1,0.9,0.5,0.6,1,1c-0.1,0.1-0.5,0.4-0.7,0.4c-0.7,0-0.6-1.4-1.4-1.4
		l0.8,1.8h-0.2c-0.2,0-0.6-0.6-0.8-0.8h-0.2l0.5,1.3l1.3,0.8c0,0.5,0.9,0.4,1.3,0.4c1.1,0,2.1-0.5,3.2-0.5c0.3,0,0.6,0.1,0.8,0.1
		c0.7,0,1.4-0.5,2.1-0.5c0.3,0,0.4-0.1,0.7-0.1c0.7,0,1.3,0.7,2,0.7c0.1,0,0.2,0,0.2,0c0.2,0.1,0.2,0.5,0.4,0.5
		C57.7,27,57.6,26.7,58.3,27.2 M47.9,17.1L47.9,17.1c0.1-0.2,0.2-0.2,0.2-0.4c0-0.1-0.1-0.3,0.1-0.5c0.3,0.3,0.1,0.3,0.3,0.6
		l0.2-0.1c-0.1,0,0-0.3,0-0.3c0.3,0.1,0.6,0.5,0.9,0.5c0.4,0,0.5-0.1,0.8,0.1c0-0.1,0-0.2,0-0.3c0-0.3-0.1-0.7-0.2-1
		c-0.1-0.3-0.1-0.6-0.3-0.9c-0.4-0.8-1.6-1.2-2.5-1.2c-1.1,0-2.4,0.5-3,1.5c0.3,0,0.9-0.2,1.4-0.2c0.2,0.1,0.3,0.4,0.6,0.4l0.1-0.2
		h0.2c0,0.5,0,1.1-0.1,1.6c0.1,0,0.2-0.1,0.3-0.1c0.2,0,0.2,0.3,0.3,0.4s0.2,0,0.3,0C47.7,17,47.7,17.1,47.9,17.1 M42.6,30.5
		l0.2-0.1c-0.1-0.2-0.5-0.5-0.5-0.7c0-0.6,0-1.3-0.1-1.9c0-0.1,0.2-0.2,0.2-0.2s0.1-0.8,0.1-0.9c0-0.4,0-0.7-0.4-1.1
		c-0.1,0.2,0,0.8-0.3,0.8c-0.1,0-0.6-0.5-0.6-0.5c0-0.8,0.3-1.6,0.3-2.3c0-0.3-0.4-0.5-0.6-0.6c-0.1,0.1-0.1,0.3-0.1,0.3
		c0,0.5,0.3,0.3,0.3,0.5c0,0.1-0.2,0.1-0.3,0.1s-0.1,0.2-0.2,0.2c0,0-0.2-0.1-0.2,0s0.1,0.2,0.1,0.4c-0.2,0-0.8-0.7-1-0.8L39,23.6
		c-0.1,0-0.2,0.1-0.1,0.3c0.4,0.3,0.6,0.5,0.8,0.9c0.1,0.1,0.1,0.7,0.2,1c0.3,0.6,0.4,0.4,0.7,0.7c0.2,0.2,0.1,0.5,0.2,0.8l0.5,0.4
		l0.4-0.9h0.2l0.1,0.3c-0.3,0.6-0.6,1.3-0.6,2C41.5,30,41.9,30.2,42.6,30.5 M57.7,30.6c0.1-0.2,0.2-0.4,0.2-0.4c0-0.1,0-0.3,0-0.4
		v-0.4c0-0.3-0.1-0.5-0.2-0.8V30.6z M45.3,29.8l0.3-1.5l-0.2,0.1L45,29.7C45,29.8,45.2,29.8,45.3,29.8 M49.3,29.3
		c0.3-0.1,0.5-0.1,0.8-0.3c0.4-0.2,0.7-1.2,1.1-1.2l0.2,0.1l-0.2,0.6c0.7-0.1,1.2-1.1,1.6-1.6c-0.3,0-0.7,0-0.9,0
		c-0.2,0.1-0.4,0.2-0.6,0.5c-0.4,0.3-0.9,0.6-1.1,1C49.8,28.7,49.3,28.9,49.3,29.3 M44.5,29.2L44.5,29.2l0.3-0.8l-0.2-0.2
		c-0.1,0.1-0.2,0.3-0.2,0.5v0.2C44.4,29,44.4,29.1,44.5,29.2 M43.7,28.6c0.2,0,0.2-0.3,0.2-0.4c-0.1-0.1-0.2-0.3-0.2-0.4
		c0-0.3,0.2-0.6,0.2-0.9c0-0.1,0-0.3-0.2-0.3V28.6z M46.9,28.5L46.9,28.5c0.2-0.2,0.3-0.3,0.3-0.6c0-0.1,0-0.2,0-0.3
		c-0.1,0.1-0.1,0.1-0.2,0.2C47,28,46.9,28.3,46.9,28.5 M46.1,28.5L46.1,28.5l0.6-1.3l-0.6,0.6c0,0.1-0.1,0.2-0.1,0.3v0.2
		C46,28.3,46.1,28.5,46.1,28.5 M40.1,28.4c0.1-0.1,0.2-0.1,0.2-0.3l-0.2,0.1V28.4z M48,28.1c0,0,0.1-0.1,0.3-0.2c0-0.1,0-0.2,0-0.2
		c0-0.1,0-0.2,0-0.3L48,28.1z M44.8,28c0.2-0.2,0.3-0.2,0.4-0.6c0,0-0.1-0.1-0.2-0.1l0.4-1.1l-0.2,0.1L44.8,28z M57.8,28
		c0.1-0.2-0.2-0.5-0.3-0.6c0,0,0,0.1,0,0.2c0,0,0,0.1,0.1,0.3C57.7,27.9,57.7,28,57.8,28 M50.6,27.5c0.2-0.2,0.7-0.4,0.5-0.7
		c0,0-0.1,0.1-0.2,0.1c-0.1,0.1-0.1,0.2-0.2,0.2C50.7,27.2,50.6,27.3,50.6,27.5 M43,27.2L43,27.2c0.1-0.1,0.2-0.2,0.2-0.2
		c0-0.2,0-0.5,0.1-0.7c-0.2-0.2-0.2-0.1-0.2-0.2c0,0.1-0.1,0.2-0.1,0.3c0,0.1,0,0.3,0,0.4V27C43,27,43,27.1,43,27.2 M44.2,25.8
		l0.2-0.2c0,0,0-0.1-0.1-0.2c-0.1,0-0.1,0-0.2,0c0,0-0.1,0-0.1,0.2L44.2,25.8z M35.6,22.1c0.3,0,1.3-0.6,1.5-1.1
		C36.6,21.4,36.1,21.7,35.6,22.1 M40,22.5c-0.1,0-0.2,0-0.4,0.2c-0.2,0.1-0.3,0.2-0.4,0.4c0,0-0.1,0.1,0,0.2c0.1,0,0.1-0.1,0.3-0.3
		c0.2,0,0.3-0.2,0.4-0.3c0.1-0.1,0.2,0,0.3-0.1h0.3C40.3,22.5,40,22.5,40,22.5 M40.7,22.4c0.4-0.1,0.6-0.2,1-0.2
		c0.2,0,0.5,0.1,0.7,0c0.6-0.2,1.5-0.6,2.8-0.7c-0.1-0.1-1.1-0.2-1.3-0.2C42.7,21.4,41.7,21.7,40.7,22.4 M36.1,21.2l0.9-0.6
		c0.1,0,0.1,0,0.1-0.2c0,0-0.1,0-0.2,0.1L36.1,21.2z M51.1,19l0.1-0.1c0-0.1-0.1-0.1-0.1-0.3c0,0-0.1,0.1-0.2,0.2
		C51,18.8,51.1,18.9,51.1,19 M48.4,17.1l-0.1,0.2c0,0.1,0.2,0.1,0.2,0.4s-0.1,0.5-0.1,0.8c0.2,0,0.3-0.6,0.3-0.7v-0.2
		C48.7,17.5,48.6,17.2,48.4,17.1 M51.6,18.5l0.8-0.4h-0.2C51.9,18.2,51.8,18.3,51.6,18.5 M51.2,18.1l0.8-0.7c-0.3,0-0.4,0.1-0.6,0.3
		c-0.1,0.1-0.2,0.1-0.2,0.2V18.1z M52.4,17.7h0.2l0.1-0.2l-0.1-0.2h-0.3c0,0,0.1,0,0.3,0.2c0,0.1-0.1,0.1-0.1,0.2
		C52.5,17.5,52.4,17.6,52.4,17.7 M46,16.7L46,16.7c0.2-0.2,0.2-0.5,0.2-0.7L46,16.1c-0.1,0.1-0.1,0.2-0.1,0.2
		C45.9,16.4,46,16.7,46,16.7 M45.3,15.8L45.3,15.8c0.1-0.1,0.2-0.1,0.2-0.2v-0.2l-0.2,0.1V15.8z M43.7,30.6h0.2
		c-0.1-0.3-0.2-0.6-0.3-0.8c-0.1-0.1-0.2-0.2-0.3-0.3c-0.1,0.2,0.1,0.4-0.1,0.7L43.7,30.6z M41.3,35.9l-0.1-1.8
		c-0.1,0-0.2-0.1-0.2-0.3c0.1-0.1,0.2-0.2,0.3-0.2c0.2,0,0.5,0.1,0.8,0.1v-0.2c-0.3,0-0.5,0-0.8,0h-0.2c-0.2,0-0.4,0-0.4,0.2
		C40.7,34.6,41,35.1,41.3,35.9 M56.3,34.6c0.6-0.5,1.1-0.8,1.3-1.5l-1.2,1.2C56.4,34.3,56.4,34.4,56.3,34.6 M42.5,33.7L42.5,33.7
		h0.3c0,0,0.1,0,0-0.2h-0.2h-0.2v0.2H42.5z M40.5,32.6c0,0.2,1.2,0.5,1.5,0.5s0.6-0.1,0.9-0.1c0.1,0,0.1,0,0.2,0
		c0.1-0.1,0.2-0.5,0.2-0.6v-0.3c0-0.4-0.3-0.7-0.5-1l-0.3-0.2c-0.4,0-0.7,0.1-1.1,0.1c-0.6,0-1.1-0.3-1.6-0.3c0,0-0.1,0-0.2,0.1
		c0,0.4,1.6,0.7,1.6,0.8c0,0.1-0.2,0.2-0.2,0.2c-0.2,0-0.8-0.2-1-0.2c0,0.1,0.1,0.2,0.2,0.2c0.3,0.2,0.6,0.3,0.9,0.4
		c0.1,0,0.4,0.3,0.2,0.4C41.1,32.7,40.8,32.6,40.5,32.6 M41,30.5l0.1,0.1l0.4,0.1c0,0,0.1-0.1,0.1-0.2l-0.3-0.2h-0.2
		C41,30.3,41,30.3,41,30.5 M55.2,30.4c0.2-0.1,0.3-0.2,0.3-0.4c0-0.1,0-0.1,0-0.2L55.2,30.4z M43.1,37.2c0.1-0.1,0.1-0.2,0.1-0.2
		c0-0.1,0-0.1,0-0.2c-0.1,0-0.1-0.1-0.2,0C43,36.9,43,37.1,43.1,37.2"/>
	<path class="st0" d="M31.1,35.4L31.1,35.4l-0.8,0.3l-1.2-2h0.1l0.1,0.1c0.1,0.1,0.2,0.2,0.3,0.2c0.1,0,0.2,0,0.3-0.1l1.7-1
		c0.2-0.1,0.3-0.2,0.3-0.2c0-0.1,0-0.2,0-0.3l-0.1-0.1h0.1l0.7,1.2h-0.1c-0.1-0.1-0.2-0.2-0.2-0.3c-0.1,0-0.1-0.1-0.2-0.1
		c-0.1,0-0.2,0.1-0.3,0.1l-1.7,1c-0.1,0.1-0.2,0.1-0.2,0.2v0.1c0,0,0.1,0.1,0.2,0.3l0.1,0.2c0.1,0.2,0.2,0.3,0.3,0.4
		c0.1,0.1,0.2,0.1,0.3,0.1C30.7,35.4,30.9,35.4,31.1,35.4"/>
	<path class="st0" d="M34.3,35.8L34.3,35.8l0.8,0.8H35l-0.1-0.1c-0.1-0.1-0.2-0.1-0.3-0.1s-0.1,0.1-0.3,0.2l-0.9,0.8
		c-0.2,0.2-0.4,0.3-0.6,0.4c-0.2,0.1-0.4,0.1-0.6,0c-0.2-0.1-0.4-0.2-0.6-0.4c-0.2-0.3-0.4-0.5-0.4-0.7s0-0.4,0.1-0.6
		c0.1-0.1,0.2-0.3,0.5-0.6l0.9-0.8c0.1-0.1,0.2-0.2,0.2-0.3s0-0.2-0.1-0.2l-0.1-0.1l0.1-0.1l0.9,1l-0.1,0.1L33.5,35c0,0-0.1,0-0.2,0
		c-0.1,0-0.2,0.1-0.3,0.2l-1,0.9c-0.1,0.1-0.2,0.2-0.3,0.3c-0.1,0.1-0.2,0.2-0.2,0.3s0,0.2,0,0.3s0.1,0.2,0.2,0.4
		c0.1,0.1,0.3,0.3,0.5,0.3c0.2,0.1,0.3,0.1,0.5,0c0.1,0,0.3-0.2,0.6-0.4l0.9-0.8c0.1-0.1,0.2-0.2,0.2-0.3
		C34.4,36.1,34.4,36,34.3,35.8L34.3,35.8z"/>
	<path class="st0" d="M35.5,38.7l-0.1,1.2c0,0.3,0,0.5,0,0.7c0,0.1,0.1,0.2,0.2,0.3V41l-1.1-0.8v-0.1c0.1,0.1,0.1,0.1,0.2,0.1h0.1
		c0,0,0.1,0,0.1-0.1V40c0,0,0-0.1,0-0.2l0.1-0.9l-1,0.3c-0.1,0-0.2,0.1-0.2,0.1s-0.1,0-0.1,0.1v0.1c0,0,0.1,0.1,0.2,0.2l-0.1,0.1
		L33,38.9v-0.1c0.1,0,0.1,0.1,0.2,0.1c0.1,0,0.2,0,0.3,0s0.2,0,0.4-0.1l1.1-0.3v-1.1c0-0.3,0-0.5-0.1-0.6c0-0.1-0.1-0.2-0.2-0.3
		l0.1-0.1l1.1,0.9l0.1,0.1c-0.1-0.1-0.2-0.1-0.2-0.1c-0.1,0-0.1,0-0.1,0.1c0,0-0.1,0.1-0.1,0.3v0.8l0.9-0.2c0.1,0,0.2,0,0.2-0.1
		c0,0,0.1,0,0.1-0.1V38v-0.1c0,0-0.1-0.1-0.2-0.1l0.1-0.1l0.9,0.7l-0.1,0.1c-0.1,0-0.1-0.1-0.2-0.1c-0.1,0-0.2,0-0.3,0
		s-0.2,0-0.4,0.1L35.5,38.7z"/>
	<path class="st0" d="M39.8,39.8l-0.4,1.1l0.6,0.2c0.2,0.1,0.3,0.1,0.4,0.1c0.1,0,0.2-0.1,0.3-0.3h0.1l-0.4,1h-0.1
		c0-0.1,0-0.2,0-0.3s0-0.1-0.1-0.2c0-0.1-0.1-0.1-0.2-0.1l-0.6-0.2L38.9,42c0,0.1-0.1,0.2-0.1,0.2v0.1c0,0,0.1,0.1,0.2,0.1l0.5,0.2
		c0.2,0.1,0.3,0.1,0.4,0.1c0.1,0,0.2,0,0.3-0.1s0.3-0.2,0.4-0.3h0.1L40.1,43l-2.2-0.9V42H38c0.1,0,0.1,0,0.2,0c0.1,0,0.1,0,0.1-0.1
		c0,0,0.1-0.1,0.1-0.3l0.7-1.9c0.1-0.2,0.1-0.3,0.1-0.4c0-0.1-0.1-0.1-0.2-0.2h-0.1V39l2.2,0.9L41,40.8h-0.1c0-0.2,0-0.3,0-0.3
		c0-0.1,0-0.1-0.1-0.2c0,0-0.1-0.1-0.3-0.1L39.8,39.8z"/>
	<path class="st0" d="M44,40.8l-0.1,0.7h-0.1c0-0.1,0-0.2,0-0.3S43.7,41,43.7,41c-0.1-0.1-0.2-0.1-0.3-0.1L43,40.8l-0.4,2.3
		c0,0.2,0,0.3,0,0.4c0,0.1,0.1,0.1,0.2,0.1h0.1v0.1l-1.3-0.2v-0.1h0.1c0.1,0,0.2,0,0.3-0.1c0,0,0.1-0.1,0.1-0.3l0.4-2.3l-0.4-0.1
		c-0.1,0-0.2,0-0.3,0s-0.2,0.1-0.2,0.1c-0.1,0.1-0.1,0.2-0.2,0.3h-0.1l0.2-0.7L44,40.8z"/>
	<path class="st0" d="M48.8,40.7L48.8,40.7c-0.1,0.1-0.2,0.2-0.2,0.2c-0.1,0.1-0.1,0.2-0.2,0.4L47.6,44h-0.1l-1.4-2.5
		C46,41.4,46,41.3,46,41.3l-0.1-0.1c-0.1,0-0.1,0-0.2,0v-0.1L47,41v0.1c-0.1,0-0.2,0.1-0.3,0.1l-0.1,0.1c0,0.1,0.1,0.2,0.1,0.3
		l0.9,1.7l0.6-1.8c0.1-0.2,0.1-0.3,0.1-0.4c0,0,0-0.1-0.1-0.1c0,0-0.1-0.1-0.2-0.1l0,0v-0.1L48.8,40.7z"/>
	<path class="st0" d="M49.7,40.6l0.3,1.2l0.7-0.2c0.2,0,0.3-0.1,0.3-0.2c0.1-0.1,0.1-0.2,0-0.4h0.1l0.3,1h-0.1
		c-0.1-0.1-0.1-0.2-0.1-0.3c0,0-0.1-0.1-0.2-0.1c-0.1,0-0.2,0-0.3,0L50,41.9l0.3,1c0,0.1,0.1,0.2,0.1,0.2s0,0,0.1,0.1
		c0,0,0.1,0,0.2,0l0.5-0.1c0.2,0,0.3-0.1,0.4-0.1c0.1,0,0.1-0.1,0.2-0.2c0.1-0.1,0.1-0.3,0.2-0.5h0.1L51.9,43l-2.3,0.6v-0.1h0.1
		c0.1,0,0.1-0.1,0.2-0.1l0.1-0.1c0-0.1,0-0.1-0.1-0.3l-0.5-1.9c-0.1-0.2-0.1-0.3-0.1-0.3c-0.1,0-0.2,0-0.3,0h-0.1v-0.1l2.3-0.6
		l0.2,0.6h-0.1c-0.1-0.1-0.1-0.2-0.2-0.3c-0.1,0-0.1-0.1-0.2-0.1c-0.1,0-0.2,0-0.3,0.1L49.7,40.6z"/>
	<path class="st0" d="M52.8,41L52.8,41C52.9,41,52.9,41,52.8,41c0.4-0.2,0.5-0.4,0.6-0.6s0.1-0.4,0-0.5c-0.1-0.2-0.2-0.3-0.4-0.3
		c-0.2-0.1-0.3,0-0.5,0c-0.1,0-0.2,0.1-0.3,0.2L52.8,41z M55.4,41.5l-0.7,0.3L53.1,41c0,0-0.1,0-0.1,0.1c0,0,0,0-0.1,0
		c0,0,0,0-0.1,0l0.4,0.8c0.1,0.2,0.2,0.3,0.2,0.3c0.1,0,0.2,0,0.3,0l0.1-0.1v0.1l-1.2,0.6v-0.1h0.1c0.1-0.1,0.2-0.1,0.2-0.2
		c0-0.1,0-0.2-0.1-0.3L52,40.3c-0.1-0.2-0.2-0.3-0.2-0.3c-0.1,0-0.2,0-0.3,0h-0.1v-0.1l1-0.5c0.3-0.1,0.5-0.2,0.7-0.2s0.3,0,0.5,0.1
		s0.3,0.2,0.3,0.3c0.1,0.2,0.1,0.3,0,0.5s-0.2,0.3-0.4,0.5l1,0.5c0.2,0.1,0.4,0.2,0.5,0.2C55.1,41.5,55.2,41.5,55.4,41.5L55.4,41.5z
		"/>
	<path class="st0" d="M56.8,40.5L56.8,40.5l-1.1,0.8v-0.1l0.1-0.1c0.1-0.1,0.2-0.2,0.2-0.2c0-0.1,0-0.2-0.1-0.3l-1.1-1.7
		c-0.1-0.1-0.1-0.2-0.2-0.2h-0.1c-0.1,0-0.1,0-0.2,0.1l-0.1,0.1v-0.1l1.1-0.7v0.1l-0.1,0.1c-0.1,0.1-0.2,0.1-0.2,0.2
		c0,0.1,0,0.2,0.1,0.3l1.1,1.7c0.1,0.1,0.1,0.2,0.2,0.2h0.1C56.6,40.6,56.6,40.6,56.8,40.5L56.8,40.5z"/>
	<path class="st0" d="M57.3,36.1l0.5,0.5l-0.1,0.1c-0.1-0.1-0.2-0.1-0.2-0.2c-0.1,0-0.2,0-0.3,0s-0.2,0.1-0.3,0.1L56.7,37l1.5,1.8
		c0.1,0.1,0.2,0.2,0.3,0.2s0.2,0,0.3-0.1l0.1-0.1l0.1,0.1l-1,0.8l-0.1-0.1l0.1-0.1c0.1-0.1,0.1-0.2,0.1-0.3S58,39,57.9,38.9
		l-1.5-1.8l-0.3,0.2c-0.1,0.1-0.2,0.2-0.2,0.2c0,0.1-0.1,0.2,0,0.3c0,0.1,0.1,0.2,0.1,0.3l-0.1,0.1l-0.4-0.6L57.3,36.1z"/>
	<path class="st0" d="M59.7,36.2l-1.3-0.4L59,37L59.7,36.2z M59.9,36.2l-0.8,0.9l0.2,0.5c0.1,0.1,0.1,0.2,0.2,0.2h0.1
		c0.1,0,0.1-0.1,0.2-0.2l0.1,0.1l-0.6,0.7l-0.1-0.1c0.1-0.1,0.1-0.2,0.1-0.2c0-0.1-0.1-0.3-0.2-0.5L58,35.3l0.1-0.1l2.7,0.8
		c0.2,0.1,0.4,0.1,0.5,0.1s0.2-0.1,0.3-0.2l0.1,0.1l-0.8,0.9l-0.1-0.1c0.1-0.1,0.1-0.2,0.1-0.2c0-0.1,0-0.1-0.1-0.1
		c0,0-0.2-0.1-0.3-0.1L59.9,36.2z"/>
	<path class="st0" d="M59.9,32.5l0.9,0.6v0.1c-0.2-0.1-0.4-0.1-0.5-0.1s-0.3,0-0.4,0.1c-0.1,0.1-0.2,0.2-0.3,0.3s-0.1,0.3-0.1,0.4
		c0,0.1,0.1,0.2,0.2,0.3c0.1,0,0.2,0.1,0.3,0.1s0.4-0.1,0.7-0.3s0.5-0.3,0.6-0.3s0.3-0.1,0.4-0.1c0.1,0,0.2,0,0.3,0.1
		c0.2,0.1,0.3,0.3,0.4,0.6c0,0.2,0,0.5-0.2,0.7c0,0.1-0.1,0.1-0.2,0.2c0,0-0.1,0.1-0.2,0.2c-0.1,0.1-0.2,0.2-0.2,0.2v0.1
		c0,0,0,0.1,0.1,0.1v0.1l-0.9-0.6v-0.1c0.2,0.1,0.4,0.1,0.5,0.1s0.3,0,0.4-0.1c0.1-0.1,0.2-0.2,0.3-0.3c0.1-0.2,0.1-0.3,0.1-0.5
		c0-0.1-0.1-0.3-0.2-0.3c-0.1,0-0.1-0.1-0.2-0.1c-0.1,0-0.2,0-0.3,0s-0.2,0.1-0.5,0.3c-0.3,0.1-0.5,0.2-0.6,0.3
		c-0.1,0-0.3,0.1-0.4,0.1c-0.1,0-0.2,0-0.3-0.1c-0.2-0.1-0.3-0.3-0.3-0.5s0-0.5,0.1-0.7c0.1-0.1,0.2-0.3,0.4-0.4
		c0.1-0.1,0.1-0.1,0.1-0.1v-0.1C60,32.7,59.9,32.6,59.9,32.5L59.9,32.5z"/>
	<path class="st0" d="M26.8,21.2l1.6,0.1v0.1c-0.3,0-0.6,0.1-0.8,0.2c-0.2,0.1-0.4,0.2-0.5,0.4c-0.1,0.2-0.2,0.4-0.2,0.6
		s0,0.4,0.2,0.6c0.1,0.2,0.3,0.3,0.5,0.3c0.1,0,0.3,0,0.4-0.1c0.2-0.1,0.5-0.5,0.8-1c0.3-0.4,0.5-0.7,0.6-0.9
		c0.1-0.2,0.3-0.3,0.5-0.3c0.2-0.1,0.4-0.1,0.6-0.1c0.4,0,0.7,0.2,0.9,0.5c0.2,0.3,0.3,0.7,0.3,1.1c0,0.1,0,0.3-0.1,0.4
		c0,0.1-0.1,0.2-0.2,0.4c-0.1,0.2-0.1,0.4-0.1,0.4c0,0.1,0,0.1,0,0.1s0.1,0.1,0.2,0.1v0.1l-1.6-0.1V24c0.3,0,0.6-0.1,0.8-0.2
		c0.2-0.1,0.3-0.2,0.5-0.4c0.1-0.2,0.2-0.4,0.2-0.7c0-0.3,0-0.5-0.2-0.7c-0.1-0.2-0.3-0.3-0.5-0.3c-0.1,0-0.2,0-0.4,0.1
		c-0.1,0.1-0.2,0.1-0.4,0.3c-0.1,0.1-0.2,0.3-0.5,0.7c-0.3,0.4-0.5,0.7-0.6,0.8c-0.2,0.2-0.3,0.3-0.5,0.3C28.1,24,27.9,24,27.7,24
		c-0.3,0-0.6-0.2-0.8-0.5c-0.2-0.3-0.3-0.6-0.3-1c0-0.3,0.1-0.5,0.3-0.8c0.1-0.1,0.1-0.2,0.1-0.3c0-0.1,0-0.1,0-0.2
		c0,0-0.1-0.1-0.2-0.1L26.8,21.2z"/>
	<path class="st0" d="M31,17.5h-2.1l1.5,1.5L31,17.5z M31.3,17.5l-0.7,1.7l0.6,0.6c0.1,0.1,0.3,0.2,0.3,0.3c0.1,0,0.1,0,0.2,0
		s0.2-0.2,0.3-0.4h0.1l-0.6,1.4h-0.1c0-0.2,0-0.3,0-0.4c-0.1-0.2-0.2-0.4-0.5-0.6l-3-3V17l4.3-0.1c0.3,0,0.6,0,0.7-0.1
		c0.1-0.1,0.2-0.2,0.3-0.4h0.1l-0.7,1.7h-0.1c0.1-0.2,0.1-0.3,0.1-0.4s-0.1-0.1-0.1-0.2c-0.1,0-0.3-0.1-0.5-0.1L31.3,17.5z"/>
	<path class="st0" d="M29.7,13.4l0.9-1l4.6,0.2l-2-1.8c-0.2-0.2-0.4-0.3-0.5-0.3s-0.3,0.1-0.4,0.2l-0.1,0.1l-0.1-0.1l1.1-1.2
		l0.1,0.1l-0.1,0.1C33.1,9.9,33,10,33,10.2c0,0.1,0.1,0.2,0.3,0.4l3,2.7l-0.1,0.1l-4.9-0.2l2.2,2c0.2,0.2,0.4,0.3,0.5,0.3
		s0.3-0.1,0.4-0.2l0.1-0.1l0.1,0.1l-1.1,1.2l-0.1-0.1l0.1-0.1c0.1-0.2,0.2-0.3,0.2-0.4c0-0.1-0.1-0.2-0.3-0.4l-2.5-2.2
		c-0.2,0-0.4,0-0.4,0c-0.1,0-0.2,0.1-0.3,0.1C30,13.3,29.9,13.4,29.7,13.4L29.7,13.4z"/>
	<path class="st0" d="M37.7,6.6l0.6,0.9l-0.1,0.1c-0.1-0.2-0.2-0.3-0.3-0.3c-0.1-0.1-0.3-0.1-0.4-0.1c-0.1,0-0.3,0.1-0.5,0.2
		l-0.6,0.3l1.9,3.1c0.2,0.3,0.3,0.4,0.4,0.4c0.1,0,0.3,0,0.4-0.1l0.1-0.1l0.1,0.1l-1.7,1L37.5,12l0.1-0.1c0.2-0.1,0.3-0.2,0.3-0.4
		c0-0.1-0.1-0.3-0.2-0.5l-1.8-3l-0.5,0.3c-0.2,0.1-0.3,0.2-0.4,0.3c0,0.1-0.1,0.2-0.1,0.4s0,0.3,0.1,0.5l-0.1,0.1l-0.5-1L37.7,6.6z"
		/>
	<path class="st0" d="M41.5,5.5c-0.4,0.1-0.7,0.3-0.9,0.7c-0.2,0.5-0.2,1.1,0,1.8c0.2,0.8,0.5,1.3,0.9,1.6c0.3,0.2,0.7,0.3,1.1,0.2
		C43,9.7,43.3,9.4,43.5,9c0.2-0.4,0.2-1,0-1.7C43.3,6.5,43,6,42.6,5.6C42.3,5.5,41.9,5.4,41.5,5.5 M41.5,5.2
		c0.6-0.1,1.2-0.1,1.7,0.3c0.6,0.3,0.9,0.9,1.1,1.5c0.2,0.7,0.1,1.3-0.2,1.9c-0.3,0.6-0.8,0.9-1.4,1.1c-0.6,0.2-1.2,0.1-1.8-0.3
		c-0.5-0.3-0.9-0.9-1.1-1.6c-0.2-0.7-0.1-1.4,0.3-2C40.4,5.7,40.9,5.4,41.5,5.2"/>
	<path class="st0" d="M51,5.4l-0.1,1.1h-0.1c0-0.2,0-0.3,0-0.4s-0.1-0.3-0.2-0.3c-0.1-0.1-0.3-0.1-0.5-0.2l-0.7-0.1L48.8,9
		c0,0.3,0,0.5,0,0.6c0.1,0.1,0.2,0.2,0.4,0.2h0.2v0.1l-2-0.3V9.5h0.2c0.2,0,0.3,0,0.5-0.1c0.1-0.1,0.1-0.2,0.2-0.5l0.6-3.6l-0.6-0.1
		c-0.2,0-0.4,0-0.5,0s-0.2,0.1-0.3,0.2s-0.2,0.3-0.2,0.5h-0.1l0.2-1.1L51,5.4z"/>
	<path class="st0" d="M54.8,7.1C54.4,6.9,54,6.9,53.7,7c-0.5,0.2-0.9,0.6-1.2,1.3C52.1,9,51.9,9.6,52,10.2c0.1,0.4,0.3,0.7,0.7,0.9
		s0.8,0.2,1.2,0.1c0.4-0.2,0.8-0.6,1.2-1.3s0.5-1.3,0.4-1.8C55.4,7.6,55.2,7.3,54.8,7.1 M55,6.9c0.5,0.3,0.9,0.7,1.1,1.4
		c0.2,0.6,0.1,1.2-0.2,1.9c-0.3,0.6-0.8,1.1-1.4,1.3c-0.6,0.2-1.2,0.2-1.8-0.1s-1-0.8-1.1-1.4c-0.2-0.6-0.1-1.3,0.3-1.9
		c0.4-0.7,0.9-1.1,1.6-1.3C53.8,6.6,54.4,6.6,55,6.9"/>
	<path class="st0" d="M56.9,14.5l1.9-4l-2.4,2C56.1,12.7,56,12.9,56,13s0,0.3,0.2,0.4l0.1,0.1l-0.1,0.1l-1.1-1.3l0.1-0.1l0.1,0.1
		c0.1,0.2,0.3,0.2,0.4,0.2c0.1,0,0.2-0.1,0.4-0.3l2.4-2c0.2-0.1,0.3-0.3,0.3-0.3c0-0.1,0-0.2,0-0.2c0-0.1-0.1-0.2-0.2-0.4l0.1-0.1
		l0.9,1L57.8,14l3.9-1.1l0.9,1L62.5,14l-0.1-0.1c-0.1-0.2-0.3-0.2-0.4-0.2c-0.1,0-0.2,0.1-0.4,0.3l-2.4,2c-0.2,0.2-0.3,0.3-0.4,0.4
		c0,0.1,0,0.3,0.1,0.4l0.1,0.1l0,0.1l-1.3-1.5l0.1-0.1l0.1,0.1c0.1,0.2,0.3,0.2,0.4,0.2c0.1,0,0.2-0.1,0.4-0.3l2.4-2L56.9,14.5
		L56.9,14.5z"/>
	<path class="st0" d="M66,19.2l-1.5-0.6v-0.1h1.3L66,19.2z M61.7,19.5l1.6-1.4L61.2,18L61.7,19.5z M61.5,19.7L60.9,18l-0.8-0.1
		c-0.2,0-0.3,0-0.4,0c-0.1,0-0.1,0.1-0.2,0.2c0,0.1,0,0.2,0,0.5h-0.1L59,17.1h0.1c0.1,0.2,0.2,0.3,0.3,0.3c0.1,0.1,0.4,0.1,0.8,0.2
		l4.2,0.4v0.1l-3.3,2.8c-0.3,0.2-0.4,0.4-0.5,0.5s-0.1,0.3,0,0.5h-0.1L60,20.2h0.1c0.1,0.2,0.1,0.3,0.2,0.3c0.1,0,0.1,0.1,0.2,0
		c0.1,0,0.2-0.1,0.4-0.3L61.5,19.7z"/>
	<path class="st0" d="M65.4,25h-1.6v-0.1c0.3,0,0.6-0.1,0.8-0.2c0.2-0.1,0.3-0.3,0.4-0.5s0.2-0.4,0.2-0.6S65.1,23.2,65,23
		s-0.3-0.2-0.5-0.2c-0.1,0-0.3,0.1-0.4,0.2c-0.2,0.1-0.4,0.5-0.7,1c-0.2,0.4-0.4,0.8-0.5,0.9c-0.1,0.2-0.3,0.3-0.4,0.4
		c-0.2,0.1-0.4,0.1-0.5,0.1c-0.4,0-0.7-0.1-0.9-0.4c-0.3-0.3-0.4-0.6-0.4-1.1c0-0.1,0-0.3,0-0.4s0.1-0.2,0.1-0.5
		c0.1-0.2,0.1-0.4,0.1-0.4c0-0.1,0-0.1-0.1-0.1c0,0-0.1-0.1-0.2-0.1v-0.1h1.6v0.1c-0.3,0.1-0.6,0.2-0.8,0.3
		c-0.2,0.1-0.3,0.3-0.4,0.5c-0.1,0.2-0.2,0.4-0.2,0.7c0,0.3,0.1,0.5,0.2,0.7c0.2,0.2,0.3,0.3,0.6,0.2c0.1,0,0.2,0,0.4-0.1
		c0.1-0.1,0.2-0.2,0.3-0.3c0.1-0.1,0.2-0.3,0.4-0.8c0.2-0.4,0.4-0.7,0.5-0.9c0.1-0.2,0.3-0.3,0.4-0.4c0.2-0.1,0.3-0.1,0.5-0.1
		c0.3,0,0.6,0.1,0.9,0.4s0.4,0.6,0.4,1c0,0.3-0.1,0.5-0.2,0.8c-0.1,0.1-0.1,0.2-0.1,0.3c0,0.1,0,0.1,0.1,0.1c0,0,0.1,0.1,0.2,0.1V25
		z"/>
</g>
<g>
	<defs>
		<rect id="SVGID_1_" y="126.6" width="95" height="28.4"/>
	</defs>
	<clipPath id="SVGID_2_">
		<use xlink:href="#SVGID_1_"  style="overflow:visible;"/>
	</clipPath>
	<path class="st1" d="M35.1,140.6l-1.8,6.1h-0.1l-3.9-13.1c-0.1-0.2-0.2-0.3-0.4-0.3h-2c-0.2,0-0.3,0.1-0.3,0.3v20.9
		c0,0.2,0.1,0.3,0.3,0.3h1.7c0.2,0,0.3-0.1,0.3-0.3v-14.9h0.2l3.3,11.1c0.1,0.2,0.2,0.3,0.4,0.3h1c0.2,0,0.3-0.1,0.4-0.3l3-10
		 M16.1,152.2v-16.4c0-0.1,0.1-0.2,0.2-0.2h1.8c1.5,0,2.3,0.6,2.7,1.8c0.3,0.9,0.4,2.1,0.4,6.5c0,4.5-0.1,5.7-0.4,6.5
		c-0.4,1.3-1.3,1.8-2.7,1.8h-1.8C16.2,152.3,16.1,152.3,16.1,152.2 M13.5,154.4c0,0.2,0.1,0.3,0.3,0.3h4.5c2.7,0,4.3-1.1,5-3.4
		c0.4-1.2,0.5-2.6,0.5-7.4c0-4.8-0.1-6.2-0.5-7.4c-0.7-2.2-2.2-3.4-5-3.4h-4.5c-0.2,0-0.3,0.1-0.3,0.3V154.4z M3.9,147.5l2-9.4h0.1
		l1.8,9.4H3.9z M0,154.4c0,0.2,0.1,0.3,0.3,0.3h1.9c0.2,0,0.3-0.1,0.3-0.3l0.9-4.7h4.8l0.9,4.7c0,0.2,0.1,0.3,0.3,0.3h1.9
		c0.2,0,0.3-0.1,0.3-0.3l-4.5-20.9c0-0.2-0.2-0.3-0.3-0.3H4.9c-0.2,0-0.3,0.1-0.3,0.3L0,154.4z"/>
	<path class="st2" d="M38.6,154.4c0,0.2,0.1,0.3,0.3,0.3h1.8c0.2,0,0.3-0.1,0.3-0.3v-20.9c0-0.2-0.1-0.3-0.3-0.3h-3
		c-0.2,0-0.3,0.1-0.5,0.2l-1.7,5.3c-0.1,0.2,0,0.3,0.2,0.3h1.4c0.2,0,0.2,0,0.3-0.1l1.2-3.3l0,0.4V154.4"/>
	<path class="st2" d="M45.5,135.5h4.2v0.1l-5.6,18.8c-0.1,0.3,0,0.4,0.2,0.4h1.9c0.3,0,0.3-0.1,0.4-0.3l5.5-18.8
		c0-0.1,0.1-0.3,0.1-0.4v-1.7c0-0.2-0.1-0.3-0.3-0.3h-8.5c-0.2,0-0.3,0.1-0.3,0.3v1.7c0,0.2,0.1,0.3,0.3,0.3H45"/>
	<path class="st1" d="M84.6,154.4c0,0.2,0.1,0.3,0.3,0.3h1.7c0.2,0,0.3-0.1,0.3-0.3v-16.1h0.2l4.9,16.1c0.1,0.2,0.2,0.3,0.5,0.3h2.2
		c0.2,0,0.3-0.1,0.3-0.3v-20.9c0-0.2-0.1-0.3-0.3-0.3H93c-0.2,0-0.3,0.1-0.3,0.3v16.1h-0.1l-4.8-16.1c-0.1-0.2-0.2-0.3-0.5-0.3h-2.4
		c-0.2,0-0.3,0.1-0.3,0.3V154.4z M76.5,152.6c-1.1,0-1.9-0.5-2.2-1.5C74,150.4,74,150,74,144c0-6,0.1-6.5,0.3-7.1
		c0.3-1,1.1-1.5,2.2-1.5c1.1,0,2,0.5,2.3,1.5C79,137.5,79,138,79,144c0,6-0.1,6.5-0.3,7.1C78.5,152.1,77.6,152.6,76.5,152.6
		 M76.5,155c2.4,0,4.1-1.1,4.7-3.2c0.3-0.9,0.4-1.7,0.4-7.8c0-6.1-0.1-6.9-0.4-7.8c-0.6-2.1-2.3-3.2-4.7-3.2c-2.4,0-4,1.1-4.7,3.2
		c-0.3,0.9-0.4,1.7-0.4,7.8c0,6.1,0.1,6.9,0.4,7.8C72.5,153.9,74.1,155,76.5,155 M76.9,130.6c0.3,0,0.4-0.1,0.6-0.3l2.9-3.3
		c0.1-0.2,0-0.3-0.2-0.3h-1.8c-0.3,0-0.3,0.1-0.5,0.3l-2.4,3.3c-0.1,0.2,0,0.3,0.2,0.3H76.9z M66,154.4c0,0.2,0.1,0.3,0.3,0.3h1.9
		c0.2,0,0.3-0.1,0.3-0.3v-20.9c0-0.2-0.1-0.3-0.3-0.3h-1.9c-0.2,0-0.3,0.1-0.3,0.3V154.4z M63.6,148.6c0-3.6-1-5-3.7-6.1l-1.3-0.5
		c-1.7-0.7-2.2-1.4-2.2-3.6c0-2.2,0.8-3.1,2.3-3.1c1.6,0,2.3,1,2.4,3.2c0,0.2,0.2,0.3,0.3,0.3l1.8-0.3c0.2,0,0.3-0.2,0.3-0.3
		c-0.2-3.4-1.6-5.1-4.9-5.1c-3.2,0-4.8,1.9-4.8,5.6c0,3.3,0.8,4.8,3.8,5.9l1.3,0.5c1.7,0.7,2.2,1.6,2.2,4c0,2.9-0.8,3.7-2.4,3.7
		c-1.6,0-2.5-0.9-2.6-3.6c0-0.2-0.1-0.3-0.3-0.3l-1.9,0.3c-0.2,0-0.3,0.2-0.3,0.3c0.2,3.7,1.8,5.5,5.1,5.5
		C62.2,155,63.6,153,63.6,148.6"/>
</g>
</svg>
