<?xml version="1.0" encoding="utf-8"?>
<!-- Generator: Adobe Illustrator 18.1.1, SVG Export Plug-In . SVG Version: 6.00 Build 0)  -->
<!DOCTYPE svg PUBLIC "-//W3C//DTD SVG 1.1//EN" "http://www.w3.org/Graphics/SVG/1.1/DTD/svg11.dtd">
<svg version="1.1" id="Capa_1" xmlns="http://www.w3.org/2000/svg" xmlns:xlink="http://www.w3.org/1999/xlink" x="0px" y="0px"
	 width="195px" height="38.1px" viewBox="0 0 195 38.1" enable-background="new 0 0 195 38.1" xml:space="preserve">
<g>
	<path fill="#004237" d="M15.2,28.8L15.2,28.8c-0.1,0.1,0,0.2,0,0.2c0,0,0.8,0.5,0.8,0.5l0-0.1l0.1,0.1c0,0,0-0.2,0-0.2
		c0,0-0.2-0.2-0.3-0.3C15.9,29,15.2,28.8,15.2,28.8"/>
	<path fill="#004237" d="M0,19.1C0,8.5,8.5,0,19.1,0c10.5,0,19.1,8.5,19.1,19.1c0,10.5-8.5,19.1-19.1,19.1C8.5,38.1,0,29.6,0,19.1
		 M1.1,19.1C1.1,29,9.2,37,19.1,37C29,37,37,29,37,19.1c0-9.9-8-17.9-17.9-17.9C9.2,1.1,1.1,9.2,1.1,19.1"/>
	<path fill="#004237" d="M1.9,19.1c0-9.5,7.7-17.2,17.2-17.2c9.5,0,17.2,7.7,17.2,17.2s-7.7,17.2-17.2,17.2
		C9.6,36.3,1.9,28.6,1.9,19.1 M2.4,19.1c0,9.2,7.5,16.7,16.7,16.7c9.2,0,16.7-7.5,16.7-16.7c0-9.2-7.5-16.7-16.7-16.7
		C9.8,2.4,2.4,9.8,2.4,19.1"/>
	<path fill="#004237" d="M19.8,16.8c0.2-0.2,0.3-0.3,0.5-0.5c0.1-0.1,0.2-0.2,0.3-0.4c0-0.1,0.1-0.1,0.2-0.2c0,0.2-0.2,0.5-0.3,0.6
		C20.4,16.5,20,16.7,19.8,16.8 M24,19.2c0-0.1,0.1-0.2,0.1-0.2c0-0.2-0.3,0-0.3-0.3c0,0,0.1,0,0.2,0c0.1,0,0.1,0,0.2,0.1l0,0.2
		c0,0.1,0.2,0,0.2,0.2c-0.1,0.2-0.2,0.1-0.4,0.1C24.2,19.1,24.1,19.2,24,19.2 M22.3,20.8v-0.2c-0.1-0.1-0.1-0.1-0.2-0.1
		c-0.2,0-0.4,0.1-0.5,0.1c0.3-0.4,0.9-0.3,1.3-0.5c0-0.1,0-0.2,0.1-0.2l1.7-0.4c-0.1,0.2-0.2,0.3-0.3,0.4c-0.1,0-0.2-0.1-0.3-0.1
		L22.3,20.8z M20.4,19.2c-0.1,0-0.2,0-0.3,0c-0.1,0-0.1,0-0.1-0.1l2.8-1.2c0-0.1-0.1-0.1-0.1-0.2l0.2,0c0.3,0,0.5,0.1,0.8,0.2l0,0.2
		l-1.5,0.5C21.5,18.8,21.2,19,20.4,19.2 M22.1,19.7v-0.1c0.3-0.2,0.8-0.4,1.2-0.4l0.1-0.1c0.1,0,0.2,0,0.2,0c0.1,0,0.2,0,0.3,0.1
		c0,0.1-0.1,0.1-0.2,0.1c-0.3,0.4-0.8,0.3-1.3,0.4C22.3,19.7,22.2,19.7,22.1,19.7 M20.2,12.9c-0.2-0.1-0.3,0-0.4-0.1
		c0,0,0-0.1,0-0.2c0-0.1,0.1-0.2,0.2-0.3l0.2,0l0.3,0.5L20.2,12.9z M13.5,24L13.5,24c-0.2,0-0.3,0.3-0.5,0.3c0-0.1,0-0.1,0-0.2
		c0,0,0-0.1,0.1-0.2c0.1,0,0.4-0.3,0.4-0.3c0.1,0,0.2,0.1,0.3,0.2C13.7,23.9,13.5,24,13.5,24 M11.8,25.1c0-0.1,0.2-0.3,0.3-0.3
		c0,0,0.3-0.4,0.4-0.4c0,0,0,0,0.2,0c0,0,0.1,0,0,0.2c0,0.1-0.2,0.3-0.3,0.3c0,0-0.4,0.3-0.6,0.4C11.8,25.3,11.8,25.3,11.8,25.1
		 M11.1,24.2l0-0.1c0-0.2,0.2-0.2,0.4-0.4c0,0,0.3-0.2,0.3-0.2c0,0,0.1-0.3,0.2-0.3c0.1,0,0.1,0.1,0.2,0.2c0,0.1-0.4,0.6-0.6,0.6
		C11.5,24,11.2,24.2,11.1,24.2 M13,22.7L13,22.7c-0.1,0.2-0.1,0.2-0.2,0.3c-0.1,0.1-0.4,0.2-0.5,0.2c0,0,0-0.1,0-0.2l0-0.2
		c0.1-0.1,0.3-0.1,0.5-0.2C12.9,22.5,12.9,22.7,13,22.7 M11.7,22.1c0-0.1-0.1-0.1,0-0.3c0,0,0.1-0.1,0.2-0.1c0-0.1,0.2-0.2,0.3-0.2
		c0.1,0,0.1,0.1,0.2,0.2c0,0,0,0.1-0.1,0.2c-0.1,0.1-0.2,0.1-0.3,0.2C11.9,22,11.9,22,11.7,22.1 M10.4,23L10.4,23
		c0.2-0.2,0.3-0.2,0.4-0.2l0.2-0.3c0-0.1,0.1-0.2,0.2-0.2c0.1,0,0.1,0,0.2,0.1c0,0,0,0,0,0.2c0,0.1-0.1,0.1-0.2,0.2
		c-0.1,0.1-0.2,0.2-0.4,0.3c-0.1,0.1-0.2,0.2-0.3,0.3C10.5,23.2,10.5,23.1,10.4,23 M11.7,20.5L11.7,20.5c0,0.1-0.1,0.2-0.3,0.2
		c0,0-0.1,0.1-0.2,0.2c0,0-0.2,0.1-0.2,0.1L11,20.9l0-0.2c0-0.1,0.3-0.1,0.4-0.2c0-0.1,0.1-0.1,0.2-0.1L11.7,20.5z M9.8,22.1
		c-0.1,0-0.1-0.1-0.1-0.3l0.1-0.1c0-0.2,0.3-0.1,0.4-0.2c0,0,0.2-0.3,0.3-0.4c0.1,0,0.1,0.1,0.2,0.2l-0.1,0.1c0,0-0.1,0.2-0.2,0.3
		c-0.1,0-0.3,0.2-0.4,0.3C9.9,22,9.9,22.1,9.8,22.1 M11,19.2c0,0,0.1,0.1,0.1,0.2c-0.1,0.2-0.2,0.2-0.3,0.3c0,0-0.2,0.2-0.3,0.2
		c-0.1,0.1-0.2,0.2-0.3,0.3c-0.1,0-0.1,0-0.1,0c0,0,0-0.1,0-0.2l0-0.1c0-0.1,0.2-0.1,0.3-0.1l0.2-0.1C10.6,19.5,10.9,19.2,11,19.2
		 M9.1,21C9,21,9,20.9,9,20.9c0-0.1,0.1-0.1,0.1-0.2c0,0,0.1-0.1,0.1-0.1c0.1,0,0.2,0,0.3-0.1c0,0,0-0.1,0-0.1
		c0-0.1,0.3-0.1,0.5-0.1l0,0.1c0,0.1-0.1,0.1-0.2,0.2c0,0.1-0.3,0.2-0.4,0.3C9.3,20.9,9.2,20.9,9.1,21 M13,17.9c0,0,0,0.2,0,0.2
		c0,0-0.1,0.1-0.2,0.2c0,0-0.2,0.1-0.2,0.1c0,0.1-0.2,0.3-0.3,0.3l-0.2,0.1c-0.1,0-0.2,0.1-0.3,0.2c-0.1,0-0.1-0.1-0.1-0.3
		c0.1-0.1,0.2-0.3,0.4-0.3c0,0,0.1-0.1,0.1-0.1c0.1-0.1,0.1-0.3,0.2-0.3c0,0,0.2-0.1,0.3-0.1C12.8,17.9,13,17.9,13,17.9 M12.1,19.5
		c0,0-0.1-0.1,0-0.2c0,0,0.1-0.1,0.2-0.2c0,0,0.2,0.1,0.1,0.3C12.3,19.5,12.2,19.6,12.1,19.5 M10.1,21L10.1,21
		c0,0.1-0.2,0.2-0.2,0.2c-0.1,0-0.1,0.1-0.1,0.2c-0.1,0-0.1,0.1-0.1,0.1c0,0-0.1,0-0.2,0.1l-0.1-0.2c0.1-0.1,0.1-0.1,0.1-0.1
		C9.6,21,9.7,21.1,9.9,21C9.9,20.9,10,20.9,10.1,21 M10.3,21c0,0-0.1-0.1-0.1-0.2c0,0-0.1,0,0-0.2c0,0,0.2-0.1,0.2-0.1
		c0.1,0,0.2-0.1,0.2-0.2c0,0,0.2,0,0.2-0.1c0,0,0.2-0.2,0.2-0.2c0.1-0.1,0.1-0.1,0.2-0.2c0.1,0,0.1,0,0.2,0c0,0,0,0.1,0.1,0.2
		c-0.1,0.1-0.1,0.1-0.1,0.2c0,0-0.5,0.5-0.5,0.5c0,0.1-0.2,0.1-0.2,0.1c0,0-0.1,0.1-0.1,0.1C10.4,20.8,10.4,21,10.3,21 M10.7,22
		L10.7,22c0,0.1-0.1,0.2-0.1,0.2c-0.1,0.2-0.5,0.4-0.6,0.4c0,0,0-0.1,0-0.1c0.1-0.1,0.3-0.4,0.5-0.5C10.6,22,10.6,21.9,10.7,22
		 M11,21.9L11,21.9c-0.1,0-0.2-0.1-0.2-0.1c0,0,0,0,0-0.1c0,0,0.2-0.2,0.2-0.2c0,0,0.1,0,0.2-0.1c0.1,0,0.1-0.1,0.2-0.1
		c0,0,0.2-0.3,0.2-0.3c0.1-0.1,0.1-0.1,0.2-0.2c0,0,0.1,0,0.2,0L12,21c-0.1,0-0.1,0.2-0.2,0.2c0,0-0.2,0.1-0.2,0.1
		c-0.3,0.1-0.2,0.5-0.4,0.5C11.1,21.8,11,21.9,11,21.9 M12,22.3L12,22.3c0.1-0.1,0.2-0.2,0.2-0.2c0.1-0.1,0.2-0.2,0.2-0.2
		c0.1,0,0.2,0,0.2,0.1c0,0.1-0.2,0.2-0.3,0.3c-0.2,0.1-0.2,0.2-0.2,0.3C12.1,22.6,12,22.5,12,22.3 M11.9,22.7c0,0.1,0.1,0.1,0,0.2
		c-0.1,0.1-0.4,0.3-0.4,0.3c-0.2,0-0.3,0.4-0.4,0.4l-0.2,0.1c-0.1,0-0.1,0-0.1,0c-0.1,0-0.1-0.1,0-0.2c0-0.1,0.2-0.2,0.3-0.3
		c0.1,0,0.2-0.1,0.2-0.3C11.4,22.8,11.7,22.7,11.9,22.7 M12.2,24.1c0,0,0-0.1-0.1-0.1c0-0.1,0.2-0.3,0.2-0.3c0.1,0,0.2-0.2,0.4-0.2
		c0,0,0.2-0.3,0.3-0.3c0-0.1,0.2-0.1,0.3-0.1c0.1,0,0.1,0,0.1,0.1c0,0.1-0.1,0.2-0.2,0.2c0,0-0.4,0.4-0.5,0.4
		c-0.1,0.1-0.1,0.2-0.2,0.2L12.2,24.1z M12,24.2c0.1,0.1,0.1,0.1,0.1,0.1c0,0.1-0.3,0.2-0.3,0.2c0,0-0.4,0.3-0.4,0.3l-0.2,0
		c0,0-0.1-0.1-0.1-0.2c0-0.1,0.1-0.2,0.2-0.3l0.2-0.1c0-0.1,0.2-0.1,0.3-0.1L12,24.2z M8.4,18.2c0.5-5.5,5-9.7,10.6-9.7
		c5.9,0,10.6,4.8,10.6,10.6c0,1.8-0.2,3.1-1,4.6c0,0.3-0.1,1.2-0.1,1.6c0,0,0,0.6-0.5,1.8c-0.2,0.4-0.4,0.7-0.7,1.1
		c-0.6,0.7-1.2,0.9-2.1,1.2c-0.1,0-0.6,0.1-0.6,0.1c0,0-0.3,0-0.3,0c-0.4,0.1-0.4,0.2-0.8,0.3c-0.4,0.1-0.8,0-1.2,0.1
		c-0.8,0.2-1.2,0.4-1.8,0.6c-0.3,0.1-0.7,0.3-1,0.5c-0.4,0.2-0.6,0.3-0.9,0.5c-0.2,0.1-0.6,0.3-1,0.3c-0.3,0-0.6-0.6-0.7-0.7
		c-0.7-0.4-1.4-1.8-1.4-2c-1.6-0.5-1.9-1-3.3-1.9c0,0-0.1,0.1-0.2,0.2c-0.2,0.1-0.5,0.3-0.5,0.3l-2.4-3.1l-1.5-2.2l-1.4-2.3l1-0.8
		C7.7,18.8,8.1,18.5,8.4,18.2 M8.4,21.9l0.1-0.1c-0.3-0.3-0.7-0.6-1-0.8C7.8,21.3,8.1,21.6,8.4,21.9 M7.5,20.4c0,0,0.4,0.3,1,0.8
		c0.2,0.2,0.6,0.6,0.7,0.9c1,1.6,1.8,3.1,2.9,4.6h0.1c0.6-0.3,0.8-1,1.4-1.3c-0.1-0.2-0.1-0.4-0.1-0.6c0-0.7,0.3-1,0.9-1.3
		c-0.1-0.1-0.2-0.1-0.3-0.2c-0.1-0.1,0-0.4-0.2-0.4c0-0.1-0.1-0.2-0.1-0.2c0-0.3,0.4-0.6,0.4-0.8c0-0.1,0-0.3-0.1-0.3
		c-0.5,0-0.8-1.3-0.8-1.7c0-0.1,0-0.3,0.1-0.4c-0.1,0-0.1-0.4-0.2-0.4c-0.1,0-0.2,0.1-0.3,0.2c-0.2,0.1-0.5,0.1-0.7,0.2
		c0.1-0.2,0.8-0.7,1-0.8l-0.1-1c-0.4-0.4-0.5-1.2-1.1-1.4c0,1.2-0.3,1.3-1.5,1.8c0.7,1,1.3,2.1,2,3.2c0.5,0.8,1,1.4,1.4,2.3
		l-0.4-0.2c-0.5-1.3-2.2-4-3.1-5.1C10.5,19.1,7.5,20.4,7.5,20.4 M8.8,22.2l0.1,0.2C9,22.5,9,22.6,9.1,22.7c0.8,1.3,1.6,2.7,2.6,3.8
		C10.6,25,9.7,23,8.8,22.2 M7.2,20.9c0.7,1.2,3.5,5.2,4.4,6.2l0.2,0c-0.4-0.3-0.6-0.6-0.9-0.9c-0.7-0.9-1.2-1.8-1.3-2
		C9.5,23.9,7.3,21.1,7.2,20.9 M12.1,27.3c1.1,1,2.6,1.8,4,2.2c-0.1-0.1-0.1-0.2-0.1-0.3c-0.1,0-0.6-0.2-0.7-0.2c0,0-0.3-0.5-0.4-0.8
		c-0.8-0.4-1.6-0.9-2.2-1.5l-0.4,0.5C12.2,27.2,12.1,27.3,12.1,27.3C12.1,27.3,12.1,27.3,12.1,27.3 M17.6,30.2
		c0.2,0.7,0.7,1.3,0.8,0.1c0.1-0.2,0.2-0.5,0.4-0.7c-0.1-0.1-0.3-0.1-0.4-0.2c0.1-0.3-0.1-0.6,0-1c0.2,0,0.6,0.9,0.6,1
		c0,0.1,0,0.3-0.1,0.4c0.2,0.1-0.1,0.2-0.1,0.4c0.3,0,0.4-0.7,0.6-0.8c0.4-0.3,1.2-0.2,1.7-0.5c-0.1,0,0-0.1,0-0.2l-0.3,0
		c0,0.1-0.1,0.2-0.4,0.2c-0.1,0-0.2-0.1-0.3-0.1c-0.1,0-0.3,0.1-0.6,0c0-0.1,0.1-0.1,0.2-0.2c-0.2,0-0.4,0.1-0.5,0.1
		c-0.2,0-0.1-0.3-0.3-0.3c-0.5,0-0.4-0.3-0.8-0.4L18.2,28c0,0,0.1-0.1,0.1-0.2c0,0-0.1,0.1-0.2,0.1c-0.2,0-0.1-0.2-0.1-0.3
		c0-0.5-0.1-1-0.1-1.6c0,0,0.1,0,0.1,0c0.5,0-0.1,1.2,0.7,1.6c0,0.4,0.6,0.6,0.9,0.9c0.3,0,0.4-0.2,0.6-0.3c0.3-0.1,0.8-0.2,1.1-0.2
		c0.2,0,0.3,0,0.5,0c-0.3,0.3-0.9,0.1-1.3,0.4c0.7-0.1,1.5-0.3,2.2-0.3c0.5,0,1,0,1.5-0.2c-0.2-0.3-1-0.5-1.4-0.6c0.1,0,0.1,0,0.2,0
		c0.9,0,1.8,0.2,2.7,0.3c0,0,0.3-0.1,0.3-0.2c0-0.5,0.7-1.2,1.2-1.7l0.1,0.1c0.1-0.1,0.5-0.3,0.5-0.4c0-0.1-0.3,0-0.3-0.1
		c0-0.1,0-0.1,0-0.2c0-0.6,0.5-1,0.5-1.5c0-0.1,0-0.2-0.1-0.2c-0.6-0.3-0.4-0.9-0.8-1.3l-0.2,0c-0.1,0.2-0.1,0.5-0.1,0.7
		c0,0.7,0.3,1.7-0.7,2.2c-0.6,0.3-0.6,0.4-1.3,0.4c-1.1,0-2.2-0.3-3.1-0.7l0-0.1c0.1,0,0.2,0,0.2,0c0.1,0,0.1,0.1,0.3,0.1
		c0.1,0,0.1,0,0.2,0c0.1,0,1,0.4,1.1,0.3c0,0,0.2,0.2,0.3,0.2c0.2,0,0.7-0.1,0.9-0.1l0.2,0.1c1,0,0.7-1.7,1.2-1.7
		c0.1,0,0.2,0.1,0.2,0c-0.1-0.1-0.1-0.3-0.1-0.4c0-0.3,0.1-0.5,0.1-0.8c0-0.1,0-0.2-0.1-0.4c-0.2-0.1-0.5-0.2-0.8-0.2
		c-0.1,0-0.2,0-0.3,0c-0.9,0.7-1.5,1.5-2.8,1.8c0.1,0.1,1.7,0.2,1.9,0.2c0,0.1,0.2,0.2,0.4,0.2c0.3,0,0.5,0.4,0.5,0.6
		c0,0.1-0.1,0.1-0.2,0.1c-0.5,0-0.1-0.5-1.3-0.5c-0.3,0-0.7,0-1,0.1c0,0.1-0.1,0-0.1,0.1c-0.3-0.1-0.7-0.3-1-0.3c-0.1,0-0.2,0-0.3,0
		c0,0.1,0.1,0.2,0.1,0.4c-0.6-0.1-1.2-0.5-1.9-0.5l-0.2,0c0,0.2,0.7,0.4,0.9,0.5v0.1c-0.1,0-0.1,0.1-0.3,0.1
		c-0.2-0.1-1.6-0.6-1.7-0.6c-0.1,0-0.2,0-0.3,0.1c0,0.1,0.1,0,0.2,0c0.6,0.1,0.7,0.5,1.1,0.9c0.3,0.3,0.7,0.4,1,0.6
		c0.3,0.7,1.2,1,1.8,1.5c-0.1,0.1,0,0.3-0.2,0.3c-0.3-0.1-1.5-0.5-1.5-0.8c0-0.1,0.1-0.1,0.2-0.1c0,0-0.5-0.5-0.5-0.5
		c0-0.1,0-0.1-0.2-0.2c0.1,0.2-0.1,0.3-0.1,0.5c0,0.1,0,0.1,0,0.2c-0.6,0.1-0.3-0.3-0.5-0.4c-0.4-0.3-1.2-1.8-1.7-1.8
		c0,0,0.1,0.1,0.2,0.1c0.2,0.2,0.4,0.4,0.4,0.6c0,0,0,0.1,0,0.1c0.1,0.2,0.2,0.3,0.5,0.4l-0.1,0.1c-0.9,0-0.5-1.1-1.5-1.4
		c0.2,0.9-0.2,1.8-0.2,2.7C17,28.3,17.2,29.2,17.6,30.2 M19.2,30.3c0.1,0,0.3,0,0.4,0c0.2-0.2,0.3-0.3,0.5-0.5l-0.2,0
		C19.8,29.9,19.4,30.1,19.2,30.3 M28.5,23c0.5-1.2,0.9-2.6,0.9-4c0-5.7-4.7-10.2-10.3-10.2c-5.2,0-9.6,3.9-10.1,9
		c0.2-0.2,0.4-0.4,0.7-0.6c0.8-4.5,4.8-7.9,9.6-7.9c5.4,0,9.7,4.3,9.7,9.6c0,0.6-0.1,1.3-0.2,1.9l0.5,0.9
		C29.1,22.7,28.8,23.1,28.5,23 M6.8,20.4l0.2,0c0.2-0.1,1.9-1.4,2-1.4c0.1-0.1,0.4-0.2,0.4-0.4L6.8,20.4z M28.8,21.6L28.8,21.6
		c-0.2-0.7-0.9-1.2-1-1.9c-0.3-0.1-0.7-0.4-0.7-0.7c0-0.1,0-0.2,0.1-0.2c0.5,0,1.3,1.5,1.3,1.6c0-0.4-0.2-0.9-0.2-1.3
		c0-0.2,0.1-0.5,0.3-0.6c-0.2-0.5-0.2-0.1-0.2-1c-0.5-0.6-0.5-1-1.3-1.4c-0.1,0,0-0.2-0.1-0.3l-1.3-0.2c0.1-0.3,1.2-0.3,1.2-0.3
		l-0.5-0.5c-0.3,0.3-0.4,0.5-0.8,0.7c0,0.1-0.1,0.2-0.1,0.2c-0.6,0.1-1.3,0.2-1.9,0.5c-1.2,0.5-2.5,1.6-3.9,1.6
		c-0.1,0-0.3,0-0.2-0.2c1.9-0.1,5.6-2.7,5.9-2.7c0.2,0,0.3,0.1,0.5,0.2L25.7,15c-0.1-0.5,0.6-0.4,0.6-0.8l-0.7-0.6l-0.3-0.7
		c-0.1,0-0.2-0.1-0.3-0.1c-0.1,0-0.2,0-0.4,0.1c0,0.1,0.2,0.1,0.2,0.3c0,0.6-0.7,2.1-1.3,2.4L22,16.5c-0.5,0.3-2,0.9-2.5,0.9
		c0,0-0.3,0-0.3-0.1c0-0.1,0.1-0.1,0.1-0.1c1.3-0.2,2.5-0.9,3.6-1.6c0-0.3-0.2-0.7-0.5-0.7c-0.3,0-0.5,0-0.5-0.4
		c0-0.1,0-0.2,0.1-0.2c0.1,0,0.4,0.2,0.4-0.2c0-0.2,0.1-0.4,0.1-0.5l-0.2,0c-0.2,0-0.3-0.1-0.5,0l0,0.2c0,0.2-0.2,0.1-0.2,0.3
		c0,0.1,0.1,0.3,0.1,0.5l-0.2,0.1c-0.1,0.3-0.2,0.7-0.6,0.8l-0.1-0.1c0-0.1,0.3-0.2,0.2-0.4c-0.1,0-0.3,0.1-0.4,0
		c-0.2-0.1-0.1-0.8-0.3-0.8c-0.5,0-0.3-0.3-0.7-0.2c-0.2,0-0.1-0.4-0.4-0.4c-0.7,0-0.7-0.5-1.4-0.5c-0.2,0-0.3,0-0.5,0.1
		c0,0.1,0,0.1,0,0.2c0,0.3,0.1,0.5,0.1,0.7c0,0.1-0.1,0.2,0.1,0.2c0.2,0,0.9-0.1,0.9,0.3c0,0.1-0.2,0.2-0.3,0.3c0,0.1,0,0.3-0.1,0.3
		c-0.1,0-0.2-0.4-0.5-0.6l0,1.1c0.1,0,0.2-0.2,0.5-0.3c0,0,0-0.2,0-0.2c0,0,0.2,0.4,0.2,0.6c-0.1,0-0.3-0.2-0.3,0.1
		c0,0.1,0.1,0.1,0.2,0.1c0.1,0,0.5-0.1,0.5,0c0,0.3-0.3,0.1-0.3,0.2c0,0.3,0.2,0.1,0.2,0.3c0,0.2-0.1,0.5,0.4,0.5
		c0,0.2-0.2,0.2-0.4,0.3v0.1l0.2,0c-0.1,0.1,0,0.3,0.2,0.3c1.8,0,3.7-0.7,5.3-1.7c0.2,0.1,0.5-0.1,0.7-0.1c0.2,0,0.3,0,0.4,0.2
		l0.1,0.2l-0.1,0.1c0.1,0.1,0.3,0.2,0.5,0.2c0.4,0,0.9-0.3,1.3-0.3c0.7,0,0.8,1.1,1,1.6c0,0.1,0.3,0.4,0.3,0.4
		c0,0.1-0.3,0.2-0.3,0.2c-0.4,0-0.4-0.8-0.5-0.8h-0.2c-0.2-0.2-0.9-0.2-0.9-0.6c-0.7-0.2-1.3-0.3-2-0.3c-1.7,0-1.7,0.8-2.3,0.8
		c-0.1,0-0.5,0-0.6,0c-0.1,0.1,0,0.2-0.1,0.3c-0.3-0.1-0.7-0.1-1,0.1H19c0.1,0.7,0.4,0.4,0.8,0.8c-0.1,0.1-0.4,0.3-0.5,0.3
		c-0.6,0-0.4-1.1-1.1-1.1l0.6,1.4l-0.1,0c-0.2,0-0.5-0.5-0.6-0.6h-0.1l0.4,1l1,0.7c0,0.4,0.7,0.4,1,0.4c0.9,0,1.7-0.4,2.6-0.4
		c0.2,0,0.4,0.1,0.7,0.1c0.6,0,1.1-0.4,1.6-0.4c0.2,0,0.4-0.1,0.6-0.1c0.6,0,1,0.6,1.6,0.6c0.1,0,0.1,0,0.2,0
		c0.2,0.1,0.2,0.4,0.3,0.4C28.3,21.4,28.2,21.2,28.8,21.6 M20.5,13.6h0.1c0-0.2,0.1-0.2,0.1-0.3c0-0.1-0.1-0.2,0.1-0.4
		c0.3,0.2,0.1,0.2,0.2,0.5l0.1-0.1c-0.1,0,0-0.2,0-0.2c0.3,0,0.5,0.4,0.7,0.4c0.3,0,0.4-0.1,0.7,0.1c0-0.1,0-0.2,0-0.2
		c0-0.3-0.1-0.5-0.2-0.8c-0.1-0.2-0.1-0.5-0.2-0.7c-0.3-0.6-1.3-0.9-2-0.9c-0.9,0-1.9,0.4-2.4,1.2c0.3,0,0.7-0.1,1.1-0.2
		c0.2,0.1,0.2,0.3,0.5,0.3c0,0,0.1-0.2,0.1-0.2l0.2,0c0,0.4,0,0.8-0.1,1.3c0.1,0,0.2-0.1,0.3-0.1c0.2,0,0.2,0.2,0.3,0.3
		c0.1,0,0.1,0,0.2,0C20.3,13.5,20.3,13.6,20.5,13.6 M16.3,24.3l0.1-0.1c-0.1-0.1-0.4-0.4-0.4-0.6c0-0.5,0-1-0.1-1.5
		c0-0.1,0.1-0.1,0.2-0.2c0,0,0.1-0.6,0.1-0.7c0-0.4,0-0.6-0.3-0.8c0,0.1,0,0.6-0.2,0.6c-0.1,0-0.5-0.4-0.5-0.4
		c0-0.6,0.2-1.2,0.2-1.9c0-0.2-0.3-0.4-0.5-0.5c0,0-0.1,0.2-0.1,0.3c0,0.4,0.3,0.2,0.3,0.4c0,0.1-0.2,0.1-0.2,0.1
		c-0.1,0-0.1,0.2-0.2,0.2c0,0-0.1-0.1-0.1,0c0,0.1,0.1,0.1,0.1,0.3c-0.2,0-0.6-0.6-0.8-0.6l-0.4-0.1c-0.1,0-0.1,0.1-0.1,0.2
		c0.3,0.2,0.5,0.4,0.6,0.7c0,0.1,0.1,0.6,0.2,0.8c0.2,0.5,0.3,0.3,0.5,0.5c0.1,0.2,0.1,0.4,0.2,0.6l0.4,0.3l0.3-0.7l0.2,0l0,0.2
		c-0.2,0.5-0.5,1-0.5,1.6C15.4,23.8,15.7,24,16.3,24.3 M28.3,24.4c0.1-0.1,0.2-0.4,0.2-0.4c0-0.1,0-0.2,0-0.3v-0.3
		c0-0.2-0.1-0.4-0.1-0.6L28.3,24.4z M18.4,23.7l0.2-1.2l-0.1,0.1l-0.3,1C18.2,23.7,18.4,23.7,18.4,23.7 M21.6,23.3
		c0.2,0,0.4-0.1,0.6-0.2c0.3-0.2,0.5-0.9,0.9-0.9l0.1,0.1l-0.2,0.5c0.5-0.1,0.9-0.9,1.3-1.3c-0.2,0-0.5,0-0.8,0
		c-0.1,0.1-0.3,0.2-0.5,0.4c-0.3,0.3-0.7,0.4-0.9,0.8C22,22.8,21.6,23,21.6,23.3 M17.8,23.2L17.8,23.2l0.2-0.6l-0.1-0.1
		c-0.1,0.1-0.1,0.3-0.1,0.4V23C17.7,23.1,17.8,23.2,17.8,23.2 M17.2,22.8c0.1,0,0.1-0.2,0.2-0.3c-0.1-0.1-0.1-0.2-0.1-0.3
		c0-0.3,0.2-0.5,0.2-0.7c0-0.1,0-0.2-0.2-0.2V22.8z M19.7,22.7L19.7,22.7c0.2-0.1,0.2-0.3,0.2-0.4c0-0.1,0-0.2,0-0.2
		c0,0-0.1,0.1-0.1,0.1C19.8,22.3,19.7,22.5,19.7,22.7 M19.1,22.7L19.1,22.7l0.5-1l-0.4,0.4c0,0-0.1,0.2-0.1,0.2v0.2
		C19,22.5,19,22.6,19.1,22.7 M14.3,22.6c0.1-0.1,0.1-0.1,0.1-0.2l-0.1,0.1V22.6z M20.6,22.3c0,0,0.1-0.1,0.2-0.2c0,0,0-0.1,0-0.2
		c0-0.1,0-0.2,0-0.2L20.6,22.3z M18,22.2c0.2-0.2,0.3-0.2,0.3-0.4c0,0-0.1-0.1-0.2-0.1l0.3-0.8L18.3,21L18,22.2z M28.4,22.3
		c0.1-0.2-0.1-0.4-0.2-0.4c0,0,0,0.1,0,0.2c0,0,0,0.1,0.1,0.2C28.3,22.2,28.3,22.2,28.4,22.3 M22.6,21.8c0.2-0.1,0.5-0.3,0.4-0.6
		c0,0-0.1,0.1-0.1,0.1c0,0.1-0.1,0.1-0.1,0.2C22.7,21.6,22.7,21.7,22.6,21.8 M16.6,21.6L16.6,21.6c0.1-0.1,0.1-0.2,0.1-0.2
		c0-0.2,0-0.4,0.1-0.6c-0.1-0.2-0.1-0.1-0.2-0.1c0,0.1-0.1,0.2-0.1,0.2c0,0.1,0,0.2,0,0.3v0.2C16.6,21.5,16.6,21.5,16.6,21.6
		 M17.5,20.5l0.2-0.1c0,0,0-0.1-0.1-0.1c0,0-0.1,0-0.1,0c0,0-0.1,0-0.1,0.1L17.5,20.5z M10.7,17.6c0.3,0,1-0.5,1.2-0.8
		C11.5,17,11.1,17.3,10.7,17.6 M14.2,17.9c-0.1,0-0.2,0-0.3,0.1c-0.2,0.1-0.2,0.1-0.3,0.3c0,0,0,0.1,0,0.2c0.1,0,0.1-0.1,0.2-0.2
		c0.2,0,0.2-0.2,0.3-0.2C14.2,18,14.2,18,14.2,17.9c0.1,0.1,0.3,0.1,0.3,0C14.5,17.9,14.2,17.9,14.2,17.9 M14.8,17.8
		c0.3-0.1,0.5-0.2,0.8-0.2c0.2,0,0.4,0.1,0.5,0c0.5-0.2,1.2-0.5,2.2-0.5c-0.1-0.1-0.9-0.1-1-0.1C16.4,17,15.5,17.3,14.8,17.8
		 M11.1,16.9l0.7-0.5c0.1,0,0.1,0,0.1-0.2c0,0-0.1,0-0.1,0.1L11.1,16.9z M23.1,15.1l0.1-0.1c0-0.1,0-0.1-0.1-0.3
		c0,0-0.1,0.1-0.1,0.2C23,14.9,23,15,23.1,15.1 M20.9,13.6c0,0-0.1,0.1-0.1,0.2c0,0,0.2,0.1,0.2,0.3c0,0.2-0.1,0.4-0.1,0.7
		c0.1,0,0.2-0.5,0.2-0.6v-0.1C21.1,14,21,13.7,20.9,13.6 M23.4,14.7l0.6-0.3l-0.1,0C23.7,14.4,23.6,14.5,23.4,14.7 M23.1,14.4
		l0.7-0.6c-0.2,0-0.3,0.1-0.5,0.2c-0.1,0.1-0.1,0.1-0.2,0.2V14.4z M24.1,14l0.2,0l0.1-0.2c0,0-0.1-0.2-0.1-0.2l-0.2,0
		c0,0,0.1,0,0.2,0.1c0,0-0.1,0.1-0.1,0.1C24.1,13.9,24.1,14,24.1,14 M19,13.3L19,13.3c0.2-0.2,0.2-0.4,0.2-0.5l-0.2,0
		c0,0.1-0.1,0.1-0.1,0.2C18.9,13.1,19,13.3,19,13.3 M18.4,12.6L18.4,12.6c0.1-0.1,0.2-0.1,0.2-0.1l0-0.1l-0.1,0.1L18.4,12.6z
		 M17.2,24.3l0.1,0c0-0.2-0.1-0.5-0.3-0.7c-0.1-0.1-0.1-0.2-0.2-0.2c0,0.2,0,0.3-0.1,0.5L17.2,24.3z M15.2,28.5l-0.1-1.4
		c-0.1,0-0.1-0.1-0.1-0.2c0.1-0.1,0.2-0.1,0.3-0.1c0.2,0,0.4,0.1,0.6,0.1l0-0.2c-0.2,0-0.4,0-0.6,0h-0.2c-0.1,0-0.3,0-0.3,0.2
		C14.8,27.5,15,27.9,15.2,28.5 M27.2,27.5c0.4-0.4,0.9-0.6,1-1.2l-0.9,1C27.2,27.3,27.3,27.4,27.2,27.5 M16.2,26.8L16.2,26.8l0.3,0
		c0,0,0.1,0,0-0.1l-0.1,0l-0.1,0V26.8z M14.6,25.9c0,0.2,1,0.4,1.2,0.4c0.2,0,0.5-0.1,0.7-0.1c0,0,0.1,0,0.1,0
		c0.1-0.1,0.2-0.4,0.2-0.5v-0.2c0-0.3-0.3-0.6-0.4-0.8l-0.3-0.1c-0.3,0-0.6,0.1-0.9,0.1c-0.4,0-0.9-0.2-1.3-0.2c0,0-0.1,0-0.1,0.1
		c0,0.3,1.3,0.5,1.3,0.7c0,0.1-0.1,0.2-0.2,0.2c-0.2,0-0.6-0.2-0.8-0.2c0,0.1,0.1,0.2,0.2,0.2c0.3,0.2,0.4,0.2,0.7,0.3
		c0.1,0,0.3,0.2,0.2,0.3C15.1,26,14.9,25.9,14.6,25.9 M15,24.3l0.1,0.1l0.3,0.1c0,0,0.1-0.1,0-0.2l-0.2-0.1l-0.2,0
		C15,24.1,15,24.1,15,24.3 M26.3,24.2c0.2,0,0.2-0.2,0.2-0.3c0-0.1,0-0.1,0-0.2L26.3,24.2z M16.7,29.6c0.1-0.1,0.1-0.1,0.1-0.2
		c0,0,0-0.1,0-0.1c0,0-0.1-0.1-0.2,0C16.6,29.4,16.6,29.5,16.7,29.6"/>
	<path fill="#004237" d="M7.1,28.1L7.1,28.1l-0.7,0.2l-1-1.6l0.1,0l0,0.1c0.1,0.1,0.1,0.1,0.2,0.1c0,0,0.1,0,0.2-0.1L7.4,26
		c0.1-0.1,0.2-0.1,0.2-0.2c0-0.1,0-0.1,0-0.2l0-0.1l0.1,0l0.6,1l-0.1,0c-0.1-0.1-0.1-0.2-0.2-0.2c0,0-0.1,0-0.1,0c0,0-0.1,0-0.3,0.1
		l-1.3,0.8C6.1,27.2,6,27.2,6,27.2c0,0,0,0.1,0,0.1c0,0,0,0.1,0.1,0.3l0.1,0.2c0.1,0.2,0.2,0.3,0.2,0.3c0.1,0.1,0.1,0.1,0.2,0.1
		C6.8,28.2,6.9,28.2,7.1,28.1"/>
	<path fill="#004237" d="M9.6,28.5L9.6,28.5l0.6,0.6l0,0l-0.1-0.1C10.1,29,10,29,9.9,29c0,0-0.1,0.1-0.2,0.1l-0.7,0.7
		c-0.2,0.2-0.3,0.3-0.5,0.3c-0.1,0.1-0.3,0.1-0.5,0c-0.2,0-0.3-0.2-0.5-0.3c-0.2-0.2-0.3-0.4-0.3-0.5c0-0.2,0-0.3,0.1-0.5
		c0.1-0.1,0.2-0.2,0.4-0.4l0.7-0.6c0.1-0.1,0.2-0.2,0.2-0.2c0-0.1,0-0.1-0.1-0.2l-0.1-0.1l0,0L9.2,28l-0.1,0l-0.1-0.1
		C9,27.9,9,27.8,8.9,27.8c-0.1,0-0.1,0.1-0.2,0.1l-0.8,0.7c-0.1,0.1-0.1,0.1-0.2,0.2c-0.1,0.1-0.1,0.2-0.1,0.3c0,0.1,0,0.2,0,0.3
		c0,0.1,0.1,0.2,0.2,0.3C7.8,29.9,7.9,29.9,8,30c0.1,0,0.3,0.1,0.4,0c0.1,0,0.3-0.1,0.5-0.3L9.6,29c0.1-0.1,0.2-0.2,0.2-0.2
		C9.8,28.7,9.7,28.7,9.6,28.5L9.6,28.5z"/>
	<path fill="#004237" d="M10.6,30.8l-0.1,0.9c0,0.3,0,0.4,0,0.5c0,0.1,0.1,0.2,0.2,0.2l0,0.1l-0.8-0.6l0-0.1c0.1,0,0.1,0.1,0.1,0.1
		c0,0,0.1,0,0.1,0c0,0,0,0,0.1,0c0,0,0,0,0-0.1c0,0,0-0.1,0-0.2l0-0.8l-0.8,0.2c-0.1,0-0.1,0-0.2,0.1c0,0,0,0-0.1,0c0,0,0,0.1,0,0.1
		c0,0,0.1,0.1,0.1,0.1l0,0.1L8.6,31l0-0.1C8.7,31,8.8,31,8.8,31c0.1,0,0.2,0,0.2,0c0.1,0,0.2,0,0.3-0.1l0.9-0.2l0-0.9
		c0-0.2,0-0.4,0-0.5c0-0.1-0.1-0.2-0.2-0.3l0-0.1l0.9,0.7l0,0.1c-0.1-0.1-0.1-0.1-0.2-0.1c0,0-0.1,0-0.1,0c0,0,0,0.1,0,0.2l0,0.7
		l0.7-0.2c0.1,0,0.1,0,0.2-0.1c0,0,0,0,0.1,0c0,0,0,0,0-0.1c0,0,0-0.1,0-0.1c0,0-0.1-0.1-0.1-0.1l0-0.1l0.7,0.5l0,0.1
		c-0.1,0-0.1-0.1-0.2-0.1c-0.1,0-0.1,0-0.2,0c-0.1,0-0.2,0-0.3,0.1L10.6,30.8z"/>
	<path fill="#004237" d="M14,31.7l-0.3,0.9l0.5,0.2c0.1,0,0.2,0.1,0.3,0c0.1,0,0.1-0.1,0.2-0.2l0.1,0l-0.3,0.8l-0.1,0
		c0-0.1,0-0.2,0-0.2c0,0,0-0.1-0.1-0.1c0,0-0.1-0.1-0.2-0.1l-0.5-0.2l-0.3,0.8c0,0.1-0.1,0.2-0.1,0.2c0,0,0,0,0,0.1
		c0,0,0.1,0,0.1,0.1l0.4,0.1c0.1,0,0.2,0.1,0.3,0.1c0.1,0,0.1,0,0.2,0c0.1,0,0.2-0.1,0.3-0.2l0.1,0l-0.4,0.5l-1.8-0.7l0-0.1l0.1,0
		c0.1,0,0.1,0,0.2,0c0,0,0.1,0,0.1-0.1c0,0,0.1-0.1,0.1-0.2l0.6-1.5c0.1-0.1,0.1-0.2,0.1-0.3c0-0.1-0.1-0.1-0.2-0.1l-0.1,0l0-0.1
		l1.8,0.7L15,32.5l-0.1,0c0-0.1,0-0.2,0-0.3c0-0.1,0-0.1-0.1-0.2c0,0-0.1-0.1-0.2-0.1L14,31.7z"/>
	<path fill="#004237" d="M17.3,32.5L17.3,33l-0.1,0c0-0.1,0-0.2,0-0.2c0-0.1-0.1-0.1-0.1-0.2c-0.1,0-0.1-0.1-0.2-0.1l-0.3-0.1
		l-0.4,1.8c0,0.1,0,0.2,0,0.3c0,0.1,0.1,0.1,0.2,0.1l0.1,0l0,0.1l-1-0.2l0-0.1l0.1,0c0.1,0,0.2,0,0.2-0.1c0,0,0.1-0.1,0.1-0.2
		l0.4-1.8l-0.3-0.1c-0.1,0-0.2,0-0.2,0c-0.1,0-0.1,0-0.2,0.1c-0.1,0.1-0.1,0.1-0.1,0.2l-0.1,0l0.1-0.6L17.3,32.5z"/>
	<path fill="#004237" d="M21.2,32.4L21.2,32.4c-0.1,0.1-0.1,0.1-0.2,0.2c-0.1,0.1-0.1,0.2-0.1,0.3L20.2,35l-0.1,0L19,33
		c-0.1-0.1-0.1-0.2-0.1-0.2c0,0-0.1-0.1-0.1-0.1c0,0-0.1,0-0.2,0l0-0.1l1-0.1l0,0.1c-0.1,0-0.2,0-0.2,0.1c0,0,0,0.1,0,0.1
		c0,0.1,0,0.2,0.1,0.3l0.7,1.4l0.5-1.5c0-0.1,0.1-0.2,0.1-0.3c0,0,0-0.1-0.1-0.1c0,0-0.1,0-0.2-0.1c0,0,0,0,0,0l0-0.1L21.2,32.4z"/>
	<path fill="#004237" d="M21.9,32.3l0.2,0.9l0.5-0.1c0.1,0,0.2-0.1,0.3-0.1c0-0.1,0.1-0.2,0-0.3l0.1,0l0.2,0.8l-0.1,0
		c0-0.1-0.1-0.2-0.1-0.2c0,0-0.1-0.1-0.1-0.1c-0.1,0-0.1,0-0.2,0l-0.5,0.1l0.2,0.8c0,0.1,0,0.2,0.1,0.2c0,0,0,0,0.1,0
		c0,0,0.1,0,0.1,0l0.4-0.1c0.1,0,0.2-0.1,0.3-0.1c0.1,0,0.1-0.1,0.1-0.2c0.1-0.1,0.1-0.2,0.1-0.4l0.1,0l0,0.6l-1.8,0.5l0-0.1l0.1,0
		c0.1,0,0.1,0,0.1-0.1c0,0,0-0.1,0.1-0.1c0,0,0-0.1,0-0.2l-0.4-1.5c0-0.1-0.1-0.2-0.1-0.3c-0.1,0-0.1,0-0.2,0l-0.1,0l0-0.1l1.8-0.5
		l0.2,0.5l-0.1,0C23,32.3,23,32.2,23,32.2c0,0-0.1-0.1-0.2-0.1c-0.1,0-0.1,0-0.3,0L21.9,32.3z"/>
	<path fill="#004237" d="M24.3,32.6C24.4,32.6,24.4,32.6,24.3,32.6C24.4,32.6,24.4,32.6,24.3,32.6c0.3-0.1,0.4-0.3,0.5-0.4
		c0.1-0.1,0.1-0.3,0-0.4c-0.1-0.1-0.2-0.2-0.3-0.3c-0.1,0-0.3,0-0.4,0c-0.1,0-0.1,0.1-0.2,0.1L24.3,32.6z M26.4,33l-0.6,0.3
		l-1.2-0.7c-0.1,0-0.1,0.1-0.1,0.1c0,0,0,0,0,0c0,0,0,0-0.1,0l0.3,0.6c0.1,0.1,0.1,0.2,0.2,0.2c0.1,0,0.1,0,0.2,0l0.1,0l0,0.1
		l-1,0.4l0-0.1l0.1,0c0.1,0,0.1-0.1,0.2-0.2c0,0,0-0.1-0.1-0.3l-0.7-1.4c-0.1-0.1-0.1-0.2-0.2-0.2c-0.1,0-0.1,0-0.2,0l-0.1,0l0-0.1
		l0.8-0.4c0.2-0.1,0.4-0.2,0.5-0.2c0.1,0,0.3,0,0.4,0.1c0.1,0.1,0.2,0.1,0.3,0.3c0.1,0.1,0.1,0.3,0,0.4c0,0.1-0.1,0.3-0.3,0.4
		l0.8,0.4c0.2,0.1,0.3,0.2,0.4,0.2C26.2,33,26.3,33,26.4,33L26.4,33z"/>
	<path fill="#004237" d="M27.5,32.2L27.5,32.2l-0.8,0.6l0-0.1l0.1,0c0.1-0.1,0.1-0.1,0.1-0.2c0,0,0-0.1-0.1-0.3L25.9,31
		c-0.1-0.1-0.1-0.2-0.2-0.2c0,0-0.1,0-0.1,0c-0.1,0-0.1,0-0.2,0.1l-0.1,0l0-0.1l0.9-0.6l0,0.1l-0.1,0c-0.1,0.1-0.1,0.1-0.1,0.2
		c0,0,0,0.1,0.1,0.3l0.9,1.3c0.1,0.1,0.1,0.2,0.2,0.2c0,0,0.1,0,0.1,0C27.4,32.3,27.4,32.3,27.5,32.2L27.5,32.2z"/>
	<path fill="#004237" d="M28,28.8l0.4,0.4l-0.1,0c-0.1-0.1-0.1-0.1-0.2-0.1c-0.1,0-0.1,0-0.2,0c-0.1,0-0.1,0.1-0.2,0.1l-0.3,0.2
		l1.2,1.4c0.1,0.1,0.2,0.2,0.2,0.2c0.1,0,0.1,0,0.2-0.1l0.1-0.1l0,0l-0.8,0.7l0-0.1l0.1-0.1c0.1-0.1,0.1-0.1,0.1-0.2
		c0,0-0.1-0.1-0.1-0.2l-1.2-1.4L27,29.8c-0.1,0.1-0.1,0.1-0.2,0.2c0,0.1,0,0.1,0,0.2c0,0.1,0,0.2,0.1,0.3l-0.1,0L26.5,30L28,28.8z"
		/>
	<path fill="#004237" d="M29.9,28.8l-1-0.3l0.5,1L29.9,28.8z M30,28.8l-0.6,0.7l0.2,0.4c0,0.1,0.1,0.2,0.1,0.2c0,0,0.1,0,0.1,0
		c0,0,0.1-0.1,0.2-0.1l0.1,0l-0.5,0.6l-0.1,0c0.1-0.1,0.1-0.2,0.1-0.2c0-0.1-0.1-0.2-0.1-0.4l-1-2l0,0l2.1,0.7
		c0.2,0.1,0.3,0.1,0.4,0.1c0.1,0,0.1-0.1,0.2-0.1l0.1,0l-0.6,0.7l-0.1,0c0.1-0.1,0.1-0.1,0.1-0.2c0,0,0-0.1,0-0.1
		c0,0-0.1-0.1-0.2-0.1L30,28.8z"/>
	<path fill="#004237" d="M30,25.9l0.7,0.4l0,0.1c-0.2-0.1-0.3-0.1-0.4-0.1c-0.1,0-0.2,0-0.3,0.1c-0.1,0.1-0.2,0.1-0.2,0.2
		c-0.1,0.1-0.1,0.2-0.1,0.3c0,0.1,0.1,0.2,0.2,0.2c0.1,0,0.1,0.1,0.2,0c0.1,0,0.3-0.1,0.6-0.3c0.2-0.1,0.4-0.2,0.5-0.2
		c0.1,0,0.2-0.1,0.3,0c0.1,0,0.2,0,0.3,0.1c0.2,0.1,0.3,0.2,0.3,0.4c0,0.2,0,0.4-0.1,0.6c0,0.1-0.1,0.1-0.1,0.2c0,0-0.1,0.1-0.2,0.2
		c-0.1,0.1-0.1,0.1-0.2,0.2c0,0,0,0,0,0.1c0,0,0,0.1,0.1,0.1l0,0.1L30.7,28l0-0.1c0.2,0.1,0.3,0.1,0.4,0.1c0.1,0,0.2,0,0.3-0.1
		c0.1-0.1,0.2-0.1,0.3-0.3c0.1-0.1,0.1-0.2,0.1-0.4c0-0.1-0.1-0.2-0.2-0.3c-0.1,0-0.1,0-0.2-0.1c-0.1,0-0.1,0-0.2,0
		c-0.1,0-0.2,0.1-0.4,0.2c-0.2,0.1-0.4,0.2-0.5,0.2c-0.1,0-0.2,0.1-0.3,0c-0.1,0-0.2,0-0.3-0.1c-0.1-0.1-0.2-0.2-0.3-0.4
		c0-0.2,0-0.4,0.1-0.5c0.1-0.1,0.2-0.2,0.3-0.3c0.1,0,0.1-0.1,0.1-0.1c0,0,0-0.1,0-0.1C30.1,26,30,26,30,25.9L30,25.9z"/>
	<path fill="#004237" d="M3.7,16.9L5,17l0,0.1c-0.3,0-0.5,0.1-0.6,0.1c-0.2,0.1-0.3,0.2-0.4,0.3c-0.1,0.2-0.2,0.3-0.2,0.5
		c0,0.2,0,0.4,0.1,0.5c0.1,0.1,0.2,0.2,0.4,0.2c0.1,0,0.2,0,0.3-0.1c0.1-0.1,0.4-0.4,0.6-0.8c0.2-0.3,0.4-0.6,0.5-0.7
		C5.9,17.1,6,17,6.2,17c0.1-0.1,0.3-0.1,0.4-0.1c0.3,0,0.5,0.2,0.7,0.4c0.2,0.2,0.3,0.5,0.2,0.9c0,0.1,0,0.2-0.1,0.3
		c0,0.1-0.1,0.2-0.1,0.4c-0.1,0.2-0.1,0.3-0.1,0.3c0,0,0,0.1,0,0.1c0,0,0.1,0.1,0.2,0.1l0,0.1l-1.3-0.1l0-0.1c0.3,0,0.5-0.1,0.6-0.1
		c0.1-0.1,0.3-0.2,0.4-0.3c0.1-0.2,0.2-0.3,0.2-0.5c0-0.2,0-0.4-0.1-0.6c-0.1-0.1-0.2-0.2-0.4-0.2c-0.1,0-0.2,0-0.3,0.1
		c-0.1,0-0.2,0.1-0.3,0.2c-0.1,0.1-0.2,0.3-0.4,0.6c-0.2,0.3-0.4,0.5-0.5,0.7c-0.1,0.1-0.2,0.2-0.4,0.3c-0.1,0.1-0.3,0.1-0.4,0.1
		c-0.3,0-0.5-0.1-0.7-0.4c-0.2-0.2-0.3-0.5-0.2-0.8c0-0.2,0.1-0.4,0.2-0.6c0.1-0.1,0.1-0.2,0.1-0.2c0,0,0-0.1,0-0.1
		c0,0-0.1-0.1-0.2-0.1L3.7,16.9z"/>
	<path fill="#004237" d="M7,13.9l-1.7,0l1.2,1.2L7,13.9z M7.3,13.9l-0.5,1.4l0.5,0.5C7.3,15.9,7.4,16,7.4,16c0.1,0,0.1,0,0.2,0
		c0.1,0,0.1-0.1,0.2-0.3l0.1,0l-0.4,1.1l-0.1,0c0-0.2,0-0.3,0-0.3c0-0.1-0.2-0.3-0.4-0.5l-2.4-2.4l0-0.1l3.4,0c0.3,0,0.5,0,0.6-0.1
		c0.1-0.1,0.2-0.1,0.3-0.3l0.1,0l-0.6,1.4l-0.1,0c0.1-0.1,0.1-0.2,0-0.3C8.3,14,8.3,14,8.3,14c-0.1,0-0.2,0-0.4,0L7.3,13.9z"/>
	<path fill="#004237" d="M6.1,10.6l0.7-0.8l3.7,0.2L8.8,8.6C8.6,8.5,8.5,8.4,8.4,8.4c-0.1,0-0.2,0.1-0.3,0.2L8,8.6L7.9,8.6l0.9-1
		l0.1,0.1L8.8,7.8C8.7,7.9,8.7,8,8.7,8.1c0,0.1,0.1,0.2,0.3,0.3l2.4,2.1l-0.1,0.1l-3.9-0.2L9,12c0.2,0.2,0.3,0.2,0.4,0.2
		c0.1,0,0.2-0.1,0.3-0.2L9.8,12L9.9,12L9,13L8.9,13L9,12.9c0.1-0.1,0.1-0.2,0.1-0.4c0-0.1-0.1-0.2-0.3-0.3l-2-1.8
		c-0.2,0-0.3,0-0.4,0c-0.1,0-0.2,0-0.3,0.1C6.3,10.6,6.2,10.6,6.1,10.6L6.1,10.6z"/>
	<path fill="#004237" d="M12.4,5.2L12.9,6L12.8,6c-0.1-0.1-0.2-0.2-0.2-0.2c-0.1-0.1-0.2-0.1-0.3-0.1c-0.1,0-0.2,0-0.4,0.1l-0.5,0.3
		l1.5,2.5c0.1,0.2,0.2,0.3,0.3,0.3c0.1,0,0.2,0,0.3-0.1l0.1-0.1l0.1,0.1l-1.4,0.8l-0.1-0.1l0.1-0.1c0.1-0.1,0.2-0.2,0.2-0.3
		c0-0.1,0-0.2-0.2-0.4L11,6.4l-0.4,0.2c-0.2,0.1-0.3,0.2-0.3,0.2c-0.1,0.1-0.1,0.2-0.1,0.3c0,0.1,0,0.3,0.1,0.4l-0.1,0.1L9.8,6.8
		L12.4,5.2z"/>
	<path fill="#004237" d="M15.4,4.4c-0.3,0.1-0.6,0.3-0.7,0.6c-0.2,0.4-0.2,0.8,0,1.4c0.1,0.6,0.4,1,0.7,1.3c0.3,0.2,0.5,0.3,0.9,0.2
		c0.3-0.1,0.6-0.3,0.8-0.6c0.2-0.3,0.2-0.8,0-1.4c-0.2-0.6-0.4-1.1-0.7-1.3C16.1,4.3,15.8,4.3,15.4,4.4 M15.4,4.2
		c0.5-0.1,0.9,0,1.4,0.2c0.4,0.3,0.7,0.7,0.9,1.2c0.1,0.6,0.1,1.1-0.2,1.5c-0.3,0.5-0.6,0.7-1.1,0.9c-0.5,0.1-1,0.1-1.4-0.2
		c-0.4-0.3-0.7-0.7-0.9-1.3C13.9,6,14,5.4,14.3,5C14.6,4.6,14.9,4.3,15.4,4.2"/>
	<path fill="#004237" d="M23,4.3l-0.1,0.9l-0.1,0c0-0.2,0-0.3,0-0.3c0-0.1-0.1-0.2-0.2-0.3c-0.1-0.1-0.2-0.1-0.4-0.1l-0.5-0.1
		l-0.5,2.9c0,0.2,0,0.4,0,0.4c0.1,0.1,0.2,0.1,0.3,0.2l0.1,0l0,0.1l-1.6-0.3l0-0.1l0.1,0c0.2,0,0.3,0,0.4-0.1c0-0.1,0.1-0.2,0.1-0.4
		l0.5-2.9l-0.4-0.1c-0.2,0-0.3,0-0.4,0c-0.1,0-0.2,0.1-0.3,0.2c-0.1,0.1-0.1,0.2-0.2,0.4l-0.1,0l0.2-0.9L23,4.3z"/>
	<path fill="#004237" d="M26,5.7c-0.3-0.2-0.6-0.2-0.9,0c-0.4,0.2-0.7,0.5-1,1c-0.3,0.5-0.4,1-0.3,1.4c0.1,0.3,0.2,0.6,0.5,0.7
		c0.3,0.2,0.6,0.2,1,0c0.3-0.1,0.6-0.5,0.9-1c0.3-0.6,0.4-1.1,0.3-1.5C26.5,6.1,26.3,5.8,26,5.7 M26.1,5.5c0.4,0.2,0.7,0.6,0.9,1.1
		c0.1,0.5,0.1,1-0.2,1.5c-0.3,0.5-0.7,0.8-1.2,1c-0.5,0.2-1,0.1-1.4-0.1c-0.5-0.2-0.8-0.6-0.9-1.1c-0.1-0.5-0.1-1,0.2-1.5
		c0.3-0.5,0.7-0.9,1.2-1C25.2,5.2,25.7,5.3,26.1,5.5"/>
	<path fill="#004237" d="M27.6,11.5l1.5-3.2L27.2,10c-0.2,0.2-0.3,0.3-0.3,0.3c0,0.1,0,0.2,0.1,0.3l0.1,0.1L27,10.8l-0.8-1l0.1-0.1
		l0.1,0.1c0.1,0.1,0.2,0.2,0.3,0.2c0.1,0,0.2-0.1,0.4-0.2l1.9-1.6C29,8.1,29.1,8,29.2,7.9c0-0.1,0-0.1,0-0.2c0-0.1-0.1-0.2-0.2-0.3
		l0.1-0.1l0.7,0.8l-1.4,3l3.1-0.9l0.7,0.8l-0.1,0.1L32,11.1c-0.1-0.1-0.2-0.2-0.3-0.2c-0.1,0-0.2,0.1-0.4,0.2l-1.9,1.6
		c-0.2,0.1-0.3,0.3-0.3,0.3c0,0.1,0,0.2,0.1,0.3l0.1,0.1l-0.1,0.1l-1-1.2l0.1-0.1l0.1,0.1c0.1,0.1,0.2,0.2,0.3,0.2
		c0.1,0,0.2-0.1,0.4-0.2l1.9-1.6L27.6,11.5L27.6,11.5z"/>
	<path fill="#004237" d="M34.9,15.3l-1.2-0.5l0-0.1l1,0L34.9,15.3z M31.5,15.5l1.3-1.1l-1.7-0.2L31.5,15.5z M31.3,15.7l-0.5-1.4
		l-0.6-0.1c-0.2,0-0.3,0-0.3,0c-0.1,0-0.1,0.1-0.1,0.1c0,0.1,0,0.2,0,0.4l-0.1,0l-0.4-1.1l0.1,0c0.1,0.1,0.1,0.2,0.2,0.3
		c0.1,0.1,0.3,0.1,0.6,0.1l3.4,0.3l0,0.1L31,16.6c-0.2,0.2-0.3,0.3-0.4,0.4c0,0.1,0,0.2,0,0.4l-0.1,0L30.1,16l0.1,0
		c0.1,0.1,0.1,0.2,0.2,0.3c0.1,0,0.1,0,0.2,0c0.1,0,0.2-0.1,0.3-0.2L31.3,15.7z"/>
	<path fill="#004237" d="M34.4,19.9l-1.3,0l0-0.1c0.3,0,0.5-0.1,0.6-0.2c0.1-0.1,0.3-0.2,0.3-0.4c0.1-0.2,0.1-0.3,0.1-0.5
		c0-0.2-0.1-0.4-0.2-0.5c-0.1-0.1-0.3-0.2-0.4-0.2c-0.1,0-0.2,0-0.3,0.1c-0.1,0.1-0.3,0.4-0.5,0.8c-0.2,0.4-0.3,0.6-0.4,0.7
		c-0.1,0.1-0.2,0.2-0.4,0.3c-0.1,0.1-0.3,0.1-0.4,0.1c-0.3,0-0.5-0.1-0.7-0.3c-0.2-0.2-0.3-0.5-0.3-0.9c0-0.1,0-0.2,0-0.3
		c0-0.1,0-0.2,0.1-0.4c0.1-0.2,0.1-0.3,0.1-0.3c0,0,0-0.1,0-0.1c0,0-0.1,0-0.2-0.1l0-0.1l1.3,0l0,0.1c-0.3,0.1-0.5,0.1-0.6,0.2
		c-0.1,0.1-0.2,0.2-0.3,0.4c-0.1,0.2-0.1,0.4-0.1,0.6c0,0.2,0.1,0.4,0.2,0.5c0.1,0.1,0.3,0.2,0.4,0.2c0.1,0,0.2,0,0.3-0.1
		c0.1-0.1,0.2-0.1,0.3-0.2c0.1-0.1,0.2-0.3,0.3-0.6c0.2-0.3,0.3-0.6,0.4-0.7c0.1-0.1,0.2-0.2,0.4-0.3c0.1-0.1,0.3-0.1,0.4-0.1
		c0.3,0,0.5,0.1,0.7,0.3c0.2,0.2,0.3,0.5,0.3,0.8c0,0.2,0,0.4-0.1,0.6c0,0.1-0.1,0.2-0.1,0.2c0,0,0,0.1,0,0.1c0,0,0.1,0.1,0.2,0.1
		L34.4,19.9z"/>
	<path fill="#004237" d="M46.7,26c-0.3-0.1-0.3-0.2-0.3-0.7c0-0.9,0.1-1.7,0.1-2c0-0.2,0-0.3,0.2-0.3c0.1,0,0.2,0.1,0.2,0.2
		c0,0.2,0,0.4,0.1,0.7c0.3,1.4,1.8,1.9,3.1,1.9c1.9,0,2.9-1.1,2.9-2.5c0-1.3-0.7-2-2.4-3.3l-0.9-0.7c-2.1-1.6-2.8-2.7-2.8-4
		c0-2.2,1.7-3.5,4.3-3.5c0.8,0,1.5,0.1,2,0.2c0.4,0.1,0.5,0.1,0.7,0.1c0.2,0,0.2,0,0.2,0.1c0,0.1-0.1,0.7-0.1,2c0,0.3,0,0.4-0.2,0.4
		c-0.1,0-0.2-0.1-0.2-0.2c0-0.2-0.2-0.7-0.3-0.9c-0.1-0.2-0.8-0.9-2.5-0.9c-1.4,0-2.6,0.7-2.6,2c0,1.2,0.6,1.9,2.5,3.2l0.6,0.4
		c2.4,1.6,3.2,2.9,3.2,4.5c0,1.1-0.4,2.3-1.8,3.2c-0.8,0.5-2,0.7-3.1,0.7C48.6,26.5,47.5,26.4,46.7,26"/>
	<path fill="#004237" d="M64.3,20.3c0.1,0,0.1,0,0.1-0.1L62.4,15c-0.1-0.3-0.2-0.3-0.3,0l-1.8,5.1c0,0.1,0,0.1,0.1,0.1H64.3z
		 M62.1,12.5c0.2-0.6,0.3-0.7,0.5-0.7c0.2,0,0.3,0.3,0.5,0.7c0.4,0.8,3.5,8.5,4.7,11.4c0.7,1.7,1.2,1.9,1.7,2
		c0.3,0.1,0.6,0.1,0.8,0.1c0.1,0,0.2,0,0.2,0.2c0,0.1-0.2,0.2-0.4,0.2c-0.3,0-1.7,0-3.1,0c-0.4,0-0.7,0-0.7-0.1c0-0.1,0-0.1,0.1-0.1
		c0.1,0,0.3-0.2,0.2-0.5l-1.7-4.3c0-0.1-0.1-0.1-0.2-0.1h-4.5c-0.1,0-0.2,0-0.2,0.2l-1.1,3c-0.2,0.5-0.3,0.9-0.3,1.3
		c0,0.4,0.3,0.5,0.7,0.5h0.2c0.2,0,0.2,0.1,0.2,0.2c0,0.1-0.1,0.2-0.3,0.2c-0.5,0-1.5-0.1-1.7-0.1c-0.2,0-1.2,0.1-2,0.1
		c-0.2,0-0.4,0-0.4-0.2c0-0.1,0.1-0.2,0.2-0.2c0.1,0,0.4,0,0.6,0c0.9-0.1,1.3-0.8,1.6-1.7L62.1,12.5z"/>
	<path fill="#004237" d="M73.1,23.7c0,1.5,0.2,2,0.8,2.1c0.4,0.1,0.8,0.1,1,0.1c0.1,0,0.2,0.1,0.2,0.2c0,0.1-0.1,0.2-0.4,0.2
		c-1.1,0-1.9-0.1-2.1-0.1c-0.2,0-1,0.1-1.9,0.1c-0.2,0-0.3,0-0.3-0.2c0-0.1,0.1-0.2,0.2-0.2c0.2,0,0.5,0,0.8-0.1
		c0.5-0.1,0.6-0.6,0.6-2.3V12.8c0-0.7,0.1-0.9,0.3-0.9c0.2,0,0.6,0.4,0.8,0.6c0.3,0.3,3.1,3.3,6.1,6.4c1.9,2,4,4.2,4.6,4.8l-0.2-9.4
		c0-1.2-0.1-1.6-0.7-1.7c-0.4-0.1-0.8-0.1-0.9-0.1c-0.1,0-0.2-0.1-0.2-0.2c0-0.1,0.2-0.1,0.4-0.1c0.9,0,1.8,0,2,0c0.2,0,0.9,0,1.7,0
		c0.2,0,0.4,0,0.4,0.1c0,0.1-0.1,0.2-0.2,0.2c-0.1,0-0.2,0-0.5,0c-0.6,0.1-0.7,0.5-0.7,1.6l0,11c0,1.2,0,1.3-0.2,1.3
		c-0.2,0-0.4-0.2-1.5-1.1c-0.2-0.2-3-2.9-5-5.1c-2.2-2.4-4.4-4.7-5-5.3L73.1,23.7z"/>
	<path fill="#004237" d="M94.1,20.9c0,1.8,0,3.3,0.1,4.1c0.1,0.6,0.2,0.9,0.8,1c0.3,0,0.7,0.1,0.9,0.1c0.1,0,0.2,0.1,0.2,0.2
		c0,0.1-0.1,0.2-0.3,0.2c-1.1,0-2.3-0.1-2.4-0.1c-0.1,0-1.4,0.1-2,0.1c-0.2,0-0.3,0-0.3-0.2c0-0.1,0-0.1,0.2-0.1
		c0.2,0,0.4,0,0.6-0.1c0.4-0.1,0.5-0.5,0.6-1c0.1-0.8,0.1-2.2,0.1-4.1V13l-2.8,0c-1.2,0-1.7,0.2-2,0.6c-0.2,0.3-0.2,0.5-0.3,0.6
		c0,0.2-0.1,0.2-0.2,0.2c0,0-0.1,0-0.1-0.2c0-0.2,0.4-1.9,0.4-2c0-0.1,0.1-0.4,0.2-0.4c0.1,0,0.3,0.2,0.9,0.2
		c0.6,0.1,1.3,0.1,1.5,0.1h7.3c0.6,0,1.1,0,1.4-0.1c0.3,0,0.5-0.1,0.6-0.1c0.1,0,0.1,0.1,0.1,0.2c0,0.6-0.1,1.9-0.1,2.1
		c0,0.2-0.1,0.2-0.2,0.2c-0.1,0-0.1-0.1-0.2-0.3l0-0.2c-0.1-0.6-0.5-1-2.3-1l-2.4,0V20.9z"/>
	<path fill="#004237" d="M108.1,25.8c1.7,0,5.2-0.9,5.2-6.3c0-4.5-2.7-6.9-5.8-6.9c-3.2,0-5.6,2-5.6,6.1
		C102,23,104.6,25.8,108.1,25.8 M107.7,11.9c4.4,0,7.7,2.7,7.7,7c0,4.2-3.1,7.6-7.8,7.6c-5.3,0-7.6-4-7.6-7.4
		C100,16.2,102.3,11.9,107.7,11.9"/>
	<path fill="#004237" d="M128.8,21c0,1.8,0,3.2,0.1,4c0.1,0.5,0.2,0.9,0.7,1c0.3,0,0.7,0.1,0.9,0.1c0.1,0,0.2,0.1,0.2,0.2
		c0,0.1-0.1,0.2-0.3,0.2c-1,0-2.3-0.1-2.4-0.1c-0.1,0-1.4,0.1-2,0.1c-0.2,0-0.3,0-0.3-0.2c0-0.1,0-0.1,0.2-0.1c0.2,0,0.4,0,0.6-0.1
		c0.4-0.1,0.5-0.5,0.6-1c0.1-0.8,0.1-2.2,0.1-4v-7.8l-2.8,0c-1.2,0-1.7,0.2-1.9,0.6c-0.2,0.3-0.2,0.5-0.3,0.6c0,0.2-0.1,0.2-0.2,0.2
		c0,0-0.1,0-0.1-0.2c0-0.2,0.4-1.9,0.4-2c0-0.1,0.1-0.3,0.2-0.3c0.1,0,0.3,0.2,0.9,0.2c0.5,0.1,1.3,0.1,1.5,0.1h7.2
		c0.6,0,1.1,0,1.4-0.1c0.3,0,0.5-0.1,0.5-0.1c0.1,0,0.1,0.1,0.1,0.2c0,0.6-0.1,1.9-0.1,2.1c0,0.2-0.1,0.2-0.2,0.2
		c-0.1,0-0.1-0.1-0.2-0.3l0-0.2c-0.1-0.6-0.5-1-2.3-1l-2.4,0V21z"/>
	<path fill="#004237" d="M142.6,25.9c1.7,0,5.2-0.9,5.2-6.3c0-4.4-2.7-6.8-5.7-6.8c-3.2,0-5.5,2-5.5,6
		C136.5,23.2,139.1,25.9,142.6,25.9 M142.1,12.1c4.3,0,7.6,2.6,7.6,7c0,4.1-3.1,7.6-7.7,7.6c-5.3,0-7.5-3.9-7.5-7.3
		C134.5,16.4,136.8,12.1,142.1,12.1"/>
	<path fill="#004237" d="M166.2,24c0.1,0.7,0.2,1.7,1,1.9c0.5,0.2,1,0.2,1.2,0.2c0.1,0,0.2,0,0.2,0.1c0,0.1-0.2,0.2-0.4,0.2
		c-0.4,0-2.6,0-3.3-0.1c-0.5,0-0.5-0.1-0.5-0.2c0-0.1,0-0.1,0.1-0.2c0.1,0,0.1-0.3,0.1-0.7l-0.9-9.4h0l-4.6,9.5
		c-0.4,0.8-0.5,1-0.7,1c-0.2,0-0.3-0.2-0.7-0.9c-0.5-0.9-1.8-3.3-2.2-4.3c-0.6-1.2-2.1-4.3-2.4-5.1h-0.1l-0.7,8.4c0,0.3,0,0.6,0,0.9
		c0,0.3,0.2,0.5,0.5,0.5c0.3,0.1,0.6,0.1,0.7,0.1c0.1,0,0.2,0.1,0.2,0.1c0,0.1-0.1,0.2-0.3,0.2c-0.7,0-1.6-0.1-1.8-0.1
		c-0.2,0-1.1,0.1-1.6,0.1c-0.2,0-0.3,0-0.3-0.2c0-0.1,0.1-0.1,0.2-0.1c0.2,0,0.3,0,0.6-0.1c0.6-0.1,0.7-0.8,0.7-1.5l1.4-12.1
		c0-0.2,0.1-0.3,0.2-0.3c0.1,0,0.3,0.1,0.4,0.3l5.8,11.5l5.6-11.5c0.1-0.2,0.2-0.3,0.3-0.3c0.1,0,0.2,0.2,0.3,0.5L166.2,24z"/>
	<path fill="#004237" d="M179,9.5c0.1,0.2,0,0.3-0.1,0.3c-0.1,0-0.3,0-0.7,0c-1.1,0.1-2.6,0.6-3.3,0.9c-0.2,0.1-0.3,0.1-0.3,0.1
		c0,0-0.1,0-0.1-0.1c0-0.1,0-0.1,0.2-0.2c0.8-0.5,2.8-1.8,3-1.9c0.4-0.2,0.5-0.3,0.6-0.3c0.1,0,0.1,0,0.2,0.2
		C178.6,8.7,178.8,9,179,9.5 M177.3,20.5c0.1,0,0.1,0,0.1-0.1l-1.9-5.1c-0.1-0.3-0.2-0.3-0.3,0l-1.8,5.1c0,0.1,0,0.1,0.1,0.1H177.3z
		 M175.2,12.7c0.2-0.6,0.3-0.7,0.5-0.7c0.2,0,0.3,0.3,0.5,0.7c0.3,0.8,3.4,8.4,4.6,11.2c0.7,1.7,1.2,1.9,1.6,2
		c0.3,0.1,0.6,0.1,0.8,0.1c0.1,0,0.2,0,0.2,0.2c0,0.1-0.2,0.2-0.4,0.2c-0.3,0-1.7,0-3,0c-0.4,0-0.7,0-0.7-0.1c0-0.1,0-0.1,0.1-0.1
		c0.1,0,0.3-0.2,0.2-0.5l-1.7-4.3c0-0.1-0.1-0.1-0.2-0.1h-4.4c-0.1,0-0.2,0-0.2,0.2l-1.1,3c-0.2,0.5-0.3,0.9-0.3,1.2
		c0,0.4,0.3,0.5,0.7,0.5h0.2c0.2,0,0.2,0.1,0.2,0.2c0,0.1-0.1,0.2-0.3,0.2c-0.5,0-1.5-0.1-1.7-0.1c-0.2,0-1.2,0.1-1.9,0.1
		c-0.2,0-0.4,0-0.4-0.2c0-0.1,0.1-0.2,0.2-0.2c0.1,0,0.4,0,0.6,0c0.9-0.1,1.2-0.8,1.6-1.7L175.2,12.7z"/>
	<path fill="#004237" d="M183.8,26.1c-0.3-0.1-0.3-0.2-0.3-0.7c0-0.9,0.1-1.7,0.1-2c0-0.2,0-0.3,0.2-0.3c0.1,0,0.2,0.1,0.2,0.2
		c0,0.2,0,0.4,0.1,0.7c0.3,1.4,1.7,1.8,3,1.8c1.9,0,2.9-1.1,2.9-2.5c0-1.3-0.7-2-2.4-3.2l-0.9-0.7c-2.1-1.5-2.7-2.7-2.7-4
		c0-2.2,1.7-3.5,4.3-3.5c0.8,0,1.5,0.1,2,0.2c0.4,0.1,0.5,0.1,0.7,0.1c0.2,0,0.2,0,0.2,0.1c0,0.1-0.1,0.7-0.1,2c0,0.3,0,0.4-0.2,0.4
		c-0.1,0-0.2-0.1-0.2-0.2c0-0.2-0.2-0.7-0.3-0.9c-0.1-0.2-0.8-0.9-2.5-0.9c-1.4,0-2.5,0.7-2.5,2c0,1.2,0.6,1.9,2.5,3.1l0.5,0.4
		c2.3,1.6,3.1,2.9,3.1,4.5c0,1.1-0.4,2.3-1.8,3.2c-0.8,0.5-2,0.7-3.1,0.7C185.7,26.6,184.5,26.5,183.8,26.1"/>
	<path fill="#004237" d="M193.1,13h0.3c0.1,0,0.2,0,0.3,0c0,0,0.1,0,0.1,0.1c0,0,0,0.1,0,0.1c0,0.1,0,0.1-0.1,0.2
		c-0.1,0-0.2,0.1-0.3,0.1h-0.3V13z M193.1,14.4v-0.7h0.2c0.1,0,0.2,0,0.2,0.1c0.1,0.1,0.2,0.2,0.3,0.4l0.1,0.3h0.3l-0.2-0.3
		c-0.1-0.2-0.2-0.3-0.2-0.3c0,0-0.1-0.1-0.1-0.1c0.1,0,0.3-0.1,0.3-0.1c0.1-0.1,0.1-0.2,0.1-0.3c0-0.1,0-0.2-0.1-0.2
		c-0.1-0.1-0.1-0.1-0.2-0.2c-0.1,0-0.2,0-0.4,0h-0.6v1.6H193.1z M194.1,12.5c0.2,0.1,0.4,0.3,0.5,0.5c0.1,0.2,0.2,0.4,0.2,0.6
		c0,0.2-0.1,0.4-0.2,0.6c-0.1,0.2-0.3,0.4-0.5,0.5s-0.8,0.2-0.6,0.2c0.2,0-0.4-0.1-0.6-0.2c-0.2-0.1-0.4-0.3-0.5-0.5
		c-0.1-0.2-0.2-0.4-0.2-0.6c0-0.2,0.1-0.4,0.2-0.6c0.1-0.2,0.3-0.4,0.5-0.5c0.2-0.1,0.4-0.2,0.6-0.2
		C193.7,12.3,193.9,12.4,194.1,12.5 M192.7,12.3c-0.2,0.1-0.4,0.3-0.6,0.6c-0.1,0.2-0.2,0.5-0.2,0.8c0,0.3,0.1,0.5,0.2,0.8
		c0.1,0.2,0.3,0.4,0.6,0.6c0.2,0.1,0.5,0.2,0.8,0.2c0.3,0,0.5-0.1,0.8-0.2c0.2-0.1,0.4-0.3,0.6-0.6c0.1-0.2,0.2-0.5,0.2-0.8
		c0-0.3-0.1-0.5-0.2-0.8c-0.1-0.2-0.3-0.4-0.6-0.6c-0.2-0.1-0.5-0.2-0.7-0.2C193.2,12.1,193,12.1,192.7,12.3"/>
</g>
</svg>
