<?xml version="1.0" encoding="utf-8"?>
<!-- Generator: Adobe Illustrator 18.1.1, SVG Export Plug-In . SVG Version: 6.00 Build 0)  -->
<!DOCTYPE svg PUBLIC "-//W3C//DTD SVG 1.1//EN" "http://www.w3.org/Graphics/SVG/1.1/DTD/svg11.dtd">
<svg version="1.1" id="Capa_1" xmlns="http://www.w3.org/2000/svg" xmlns:xlink="http://www.w3.org/1999/xlink" x="0px" y="0px"
	 width="277.3px" height="100px" viewBox="217.7 -187.2 277.3 100" enable-background="new 217.7 -187.2 277.3 100"
	 xml:space="preserve">
<metadata><?xpacket begin="﻿" id="W5M0MpCehiHzreSzNTczkc9d"?>
<x:xmpmeta xmlns:x="adobe:ns:meta/" x:xmptk="Adobe XMP Core 5.6-c014 79.156821, 2014/08/29-03:07:50        ">
   <rdf:RDF xmlns:rdf="http://www.w3.org/1999/02/22-rdf-syntax-ns#">
      <rdf:Description rdf:about=""
            xmlns:dc="http://purl.org/dc/elements/1.1/"
            xmlns:xmp="http://ns.adobe.com/xap/1.0/"
            xmlns:xmpGImg="http://ns.adobe.com/xap/1.0/g/img/"
            xmlns:xmpMM="http://ns.adobe.com/xap/1.0/mm/"
            xmlns:stRef="http://ns.adobe.com/xap/1.0/sType/ResourceRef#"
            xmlns:stEvt="http://ns.adobe.com/xap/1.0/sType/ResourceEvent#"
            xmlns:illustrator="http://ns.adobe.com/illustrator/1.0/"
            xmlns:xmpTPg="http://ns.adobe.com/xap/1.0/t/pg/"
            xmlns:stDim="http://ns.adobe.com/xap/1.0/sType/Dimensions#"
            xmlns:xmpG="http://ns.adobe.com/xap/1.0/g/"
            xmlns:pdf="http://ns.adobe.com/pdf/1.3/">
         <dc:format>image/svg+xml</dc:format>
         <dc:title>
            <rdf:Alt>
               <rdf:li xml:lang="x-default">Web</rdf:li>
            </rdf:Alt>
         </dc:title>
         <xmp:CreatorTool>Adobe Illustrator CC 2014 (Macintosh)</xmp:CreatorTool>
         <xmp:CreateDate>2015-10-05T11:35:46-03:00</xmp:CreateDate>
         <xmp:ModifyDate>2015-10-05T11:35:46-03:00</xmp:ModifyDate>
         <xmp:MetadataDate>2015-10-05T11:35:46-03:00</xmp:MetadataDate>
         <xmp:Thumbnails>
            <rdf:Alt>
               <rdf:li rdf:parseType="Resource">
                  <xmpGImg:width>256</xmpGImg:width>
                  <xmpGImg:height>92</xmpGImg:height>
                  <xmpGImg:format>JPEG</xmpGImg:format>
                  <xmpGImg:image>/9j/4AAQSkZJRgABAgEASABIAAD/7QAsUGhvdG9zaG9wIDMuMAA4QklNA+0AAAAAABAASAAAAAEA&#xA;AQBIAAAAAQAB/+4ADkFkb2JlAGTAAAAAAf/bAIQABgQEBAUEBgUFBgkGBQYJCwgGBggLDAoKCwoK&#xA;DBAMDAwMDAwQDA4PEA8ODBMTFBQTExwbGxscHx8fHx8fHx8fHwEHBwcNDA0YEBAYGhURFRofHx8f&#xA;Hx8fHx8fHx8fHx8fHx8fHx8fHx8fHx8fHx8fHx8fHx8fHx8fHx8fHx8fHx8f/8AAEQgAXAEAAwER&#xA;AAIRAQMRAf/EAaIAAAAHAQEBAQEAAAAAAAAAAAQFAwIGAQAHCAkKCwEAAgIDAQEBAQEAAAAAAAAA&#xA;AQACAwQFBgcICQoLEAACAQMDAgQCBgcDBAIGAnMBAgMRBAAFIRIxQVEGE2EicYEUMpGhBxWxQiPB&#xA;UtHhMxZi8CRygvElQzRTkqKyY3PCNUQnk6OzNhdUZHTD0uIIJoMJChgZhJRFRqS0VtNVKBry4/PE&#xA;1OT0ZXWFlaW1xdXl9WZ2hpamtsbW5vY3R1dnd4eXp7fH1+f3OEhYaHiImKi4yNjo+Ck5SVlpeYmZ&#xA;qbnJ2en5KjpKWmp6ipqqusra6voRAAICAQIDBQUEBQYECAMDbQEAAhEDBCESMUEFURNhIgZxgZEy&#xA;obHwFMHR4SNCFVJicvEzJDRDghaSUyWiY7LCB3PSNeJEgxdUkwgJChgZJjZFGidkdFU38qOzwygp&#xA;0+PzhJSktMTU5PRldYWVpbXF1eX1RlZmdoaWprbG1ub2R1dnd4eXp7fH1+f3OEhYaHiImKi4yNjo&#xA;+DlJWWl5iZmpucnZ6fkqOkpaanqKmqq6ytrq+v/aAAwDAQACEQMRAD8A9U4q7FXYq7FXYq7FXYq7&#xA;FXYq7FXYq7FXYq7FXYq7FXYq7FXYq7FXYq7FXYq7FXYq7FXYq7FXYq7FXYq7FXYq7FXYq7FXYq7F&#xA;XYq7FXYq7FXYq7FXYq7FXYq7FXYq7FXYq7FXYq7FXYq7FXYq7FXYq7FXYq7FXYq7FXYq7FXYq7FX&#xA;Yq7FXYq7FXYq7FXYq7FXYq7FXYq7FXYq7FXYq7FXYq7FXYq7FXYq7FXYq7FXYq7FXYq7FXYq7FXY&#xA;q7FXYq7FXYq7FXYq7FXYq7FXYq7FXYq7FXYq7FXYq7FXYq7FXYq7FXYq7FXYq7FXYq7FXYq7FXYq&#xA;7FXYq7FXYq7FXYq7FXYq7FXYq7FXYq7FXYq7FXYq7FXYq7FXYq7FXYq7FXYq7FXYq7FXYq7FXYq7&#xA;FXYq7FXYq7FXYq7FXYq7FXYq7FXYq7FXYq7FXYq7FXYq7FXYq7FXYq7FXYq7FXYq7FXYq7FXYq7F&#xA;XYq7FXYq7FXYq7FXYq7FXYq7FXYq7FXYq7FXYq7FXYq7FXYq7FXYq7FXYq7FXYq7FXYq7FXYq7FX&#xA;Yq7FXYq7FXYq7FXYq7FXYq7FXYq7FXYq7FXYq7FXYq7FXYq7FXYq7FXYq7FXYq7FXYq7FXYq7FXY&#xA;q7FXYq7FXYq7FXYq7FXYq7FXYq7FXYq7FXYq7FXYq7FXYq7FXYq7FXYq7FXYq7FXYq7FXYq7FXYq&#xA;7FXYq7FXYq7FXYq7FXYq7FXYq7FXYq7FXYq7FXYq7FXYq7FXYq7FXYq7FXYq7FXYq7FXYq7FXYq7&#xA;FXYq7FXYq7FXYq7FXYq7FXYq7FXYq7FXYq7FXYq7FXYq7FXYq7FXYq7FXYq7FXYq7FXYq7FXYq7F&#xA;XYq7FXYq7FXYq7FXYq7FXYq7FXYq7FXYq7FXYq7FXYq7FXYq7FXYq7FXYq7FXYq7FXYq7FXYq7FX&#xA;Yq7FXYq7FXYq7FXYq7FXYq7FXYq7FX//2Q==</xmpGImg:image>
               </rdf:li>
            </rdf:Alt>
         </xmp:Thumbnails>
         <xmpMM:RenditionClass>proof:pdf</xmpMM:RenditionClass>
         <xmpMM:OriginalDocumentID>uuid:65E6390686CF11DBA6E2D887CEACB407</xmpMM:OriginalDocumentID>
         <xmpMM:DocumentID>xmp.did:f8148c11-926d-438f-956b-5080d042e6d9</xmpMM:DocumentID>
         <xmpMM:InstanceID>xmp.iid:f8148c11-926d-438f-956b-5080d042e6d9</xmpMM:InstanceID>
         <xmpMM:DerivedFrom rdf:parseType="Resource">
            <stRef:instanceID>xmp.iid:8e460941-ab58-4903-9754-693805be54d3</stRef:instanceID>
            <stRef:documentID>xmp.did:8e460941-ab58-4903-9754-693805be54d3</stRef:documentID>
            <stRef:originalDocumentID>uuid:65E6390686CF11DBA6E2D887CEACB407</stRef:originalDocumentID>
            <stRef:renditionClass>proof:pdf</stRef:renditionClass>
         </xmpMM:DerivedFrom>
         <xmpMM:History>
            <rdf:Seq>
               <rdf:li rdf:parseType="Resource">
                  <stEvt:action>saved</stEvt:action>
                  <stEvt:instanceID>xmp.iid:8e460941-ab58-4903-9754-693805be54d3</stEvt:instanceID>
                  <stEvt:when>2015-10-05T11:34:37-03:00</stEvt:when>
                  <stEvt:softwareAgent>Adobe Illustrator CC 2014 (Macintosh)</stEvt:softwareAgent>
                  <stEvt:changed>/</stEvt:changed>
               </rdf:li>
               <rdf:li rdf:parseType="Resource">
                  <stEvt:action>saved</stEvt:action>
                  <stEvt:instanceID>xmp.iid:f8148c11-926d-438f-956b-5080d042e6d9</stEvt:instanceID>
                  <stEvt:when>2015-10-05T11:35:46-03:00</stEvt:when>
                  <stEvt:softwareAgent>Adobe Illustrator CC 2014 (Macintosh)</stEvt:softwareAgent>
                  <stEvt:changed>/</stEvt:changed>
               </rdf:li>
            </rdf:Seq>
         </xmpMM:History>
         <illustrator:StartupProfile>Web</illustrator:StartupProfile>
         <xmpTPg:NPages>1</xmpTPg:NPages>
         <xmpTPg:HasVisibleTransparency>False</xmpTPg:HasVisibleTransparency>
         <xmpTPg:HasVisibleOverprint>False</xmpTPg:HasVisibleOverprint>
         <xmpTPg:MaxPageSize rdf:parseType="Resource">
            <stDim:w>277.325145</stDim:w>
            <stDim:h>100.000000</stDim:h>
            <stDim:unit>Pixels</stDim:unit>
         </xmpTPg:MaxPageSize>
         <xmpTPg:SwatchGroups>
            <rdf:Seq>
               <rdf:li rdf:parseType="Resource">
                  <xmpG:groupName>Grupo de muestras por defecto</xmpG:groupName>
                  <xmpG:groupType>0</xmpG:groupType>
               </rdf:li>
            </rdf:Seq>
         </xmpTPg:SwatchGroups>
         <pdf:Producer>Adobe PDF library 10.01</pdf:Producer>
      </rdf:Description>
   </rdf:RDF>
</x:xmpmeta>
                                                                                                    
                                                                                                    
                                                                                                    
                                                                                                    
                                                                                                    
                                                                                                    
                                                                                                    
                                                                                                    
                                                                                                    
                                                                                                    
                                                                                                    
                                                                                                    
                                                                                                    
                                                                                                    
                                                                                                    
                                                                                                    
                                                                                                    
                                                                                                    
                                                                                                    
                                                                                                    
                           
<?xpacket end="w"?>
	</metadata>
<g>
	<g>
		<g>
			<path fill="#FFFFFF" d="M220.5-91.2L220.5-91.2l1.3-0.1v0.1h-0.2c-0.2,0-0.2,0.1-0.3,0.2c0,0.1-0.1,0.2-0.1,0.4v1.5
				c0,0.4,0,0.6-0.1,0.8s-0.2,0.4-0.5,0.5s-0.5,0.2-0.8,0.2c-0.4,0-0.7-0.1-0.9-0.2s-0.4-0.3-0.5-0.5c-0.1-0.2-0.1-0.5-0.1-0.9v-1.5
				c0-0.2,0-0.4-0.1-0.5c-0.1-0.1-0.2-0.1-0.3-0.1h-0.2v-0.1h1.6v0.1h-0.2c-0.2,0-0.2,0.1-0.3,0.2c-0.1,0.1-0.1,0.2-0.1,0.4v1.6
				c0,0.2,0,0.3,0,0.5c0,0.2,0.1,0.3,0.2,0.5c0.1,0.1,0.2,0.2,0.3,0.2s0.3,0.1,0.5,0.1c0.2,0,0.5-0.1,0.6-0.2
				c0.2-0.1,0.3-0.2,0.4-0.4c0.1-0.2,0.1-0.5,0.1-0.8v-1.5c0-0.2,0-0.4-0.1-0.5c-0.1-0.1-0.2-0.2-0.3-0.2h-0.1V-91.2z"/>
			<path fill="#FFFFFF" d="M221.8-91.4h1l2.2,2.8v-2.1c0-0.2,0-0.4-0.1-0.4c-0.1-0.1-0.2-0.1-0.3-0.1h-0.2v-0.1h1.3v0.1h-0.2
				c-0.2,0-0.2,0.1-0.3,0.2c-0.1,0.1-0.1,0.2-0.1,0.4v3.1h-0.2l-2.4-2.9v2.2c0,0.2,0,0.4,0.1,0.4c0.1,0.1,0.2,0.1,0.3,0.1h0.2v0.1
				H222v-0.1h0.2c0.2,0,0.2-0.1,0.3-0.2c0.1-0.1,0.1-0.2,0.1-0.4v-2.5c-0.1-0.2-0.2-0.2-0.2-0.2c-0.1-0.1-0.2-0.1-0.2-0.1
				s-0.2,0-0.2,0C221.8-91.2,221.8-91.4,221.8-91.4z"/>
			<path fill="#FFFFFF" d="M227.5-87.8L227.5-87.8l-1.5,0.1v-0.1h0.2c0.2,0,0.2-0.1,0.3-0.2c0.1-0.1,0.1-0.2,0.1-0.4v-2.4
				c0-0.2,0-0.3,0-0.4c0-0.1-0.1-0.1-0.1-0.2c-0.1-0.1-0.2-0.1-0.2-0.1H226v-0.1h1.5v0.1h-0.2c-0.2,0-0.2,0.1-0.3,0.2
				c-0.1,0.1-0.1,0.2-0.1,0.4v2.4c0,0.2,0,0.3,0,0.4s0.1,0.1,0.1,0.1c0.1,0.1,0.2,0.1,0.2,0.1L227.5-87.8L227.5-87.8z"/>
			<path fill="#FFFFFF" d="M231.6-91.4L231.6-91.4c-0.2,0.1-0.2,0.2-0.3,0.2c-0.1,0.1-0.2,0.2-0.2,0.4l-1.3,3.1h-0.1l-1.4-3.2
				c-0.1-0.2-0.2-0.2-0.2-0.3c-0.1-0.1-0.1-0.1-0.2-0.2c-0.1,0-0.2-0.1-0.2-0.1v-0.1h1.5v0.1c-0.2,0-0.3,0.1-0.3,0.1
				c-0.1,0.1-0.1,0.1-0.1,0.2c0,0.1,0.1,0.2,0.2,0.4l0.9,2.2l0.8-2.1c0.1-0.2,0.2-0.4,0.2-0.5c0-0.1,0-0.1-0.1-0.2
				c-0.1-0.1-0.2-0.1-0.2-0.1c0,0,0,0-0.1,0v-0.1L231.6-91.4L231.6-91.4z"/>
			<path fill="#FFFFFF" d="M232.8-91.2v1.5h0.8c0.2,0,0.4,0,0.4-0.1c0.1-0.1,0.2-0.2,0.2-0.5h0.1v1.3h-0.1c0-0.2-0.1-0.3-0.1-0.3
				c0-0.1-0.1-0.1-0.2-0.2c-0.1,0-0.2-0.1-0.3-0.1h-0.8v1.2c0,0.2,0,0.2,0,0.3l0.1,0.1c0,0,0.1,0,0.2,0h0.6c0.2,0,0.4,0,0.5-0.1
				c0.1,0,0.2-0.1,0.2-0.2c0.1-0.1,0.2-0.3,0.3-0.5h0.1l-0.3,0.9h-2.8v-0.1h0.2c0.1,0,0.2,0,0.2-0.1c0.1,0,0.1-0.1,0.2-0.2
				c0-0.1,0-0.2,0-0.4v-2.4c0-0.2,0-0.4-0.1-0.5c-0.1-0.1-0.2-0.1-0.3-0.1h-0.2v-0.1h2.8l0.1,0.8h-0.1c0-0.2-0.1-0.3-0.2-0.4
				c-0.1-0.1-0.1-0.2-0.2-0.2c-0.1,0-0.2-0.1-0.4-0.1L232.8-91.2L232.8-91.2z"/>
			<path fill="#FFFFFF" d="M236-89.6L236-89.6h0.2c0.4,0,0.6-0.1,0.8-0.2c0.2-0.2,0.2-0.3,0.2-0.5s-0.1-0.4-0.2-0.5
				c-0.2-0.2-0.3-0.2-0.5-0.2c-0.1,0-0.2,0-0.5,0.1L236-89.6L236-89.6z M238.6-87.7h-1l-1.2-1.7c-0.1,0-0.2,0-0.2,0H236H236v1.1
				c0,0.2,0,0.4,0.1,0.5c0.1,0.1,0.2,0.2,0.3,0.2h0.2v0.1H235v-0.1h0.2c0.2,0,0.2-0.1,0.3-0.2c0-0.1,0.1-0.2,0.1-0.4v-2.4
				c0-0.2,0-0.4-0.1-0.5s-0.2-0.2-0.3-0.2H235v-0.1h1.3c0.4,0,0.7,0,0.8,0.1c0.2,0.1,0.3,0.2,0.5,0.3c0.2,0.2,0.2,0.3,0.2,0.5
				s-0.1,0.4-0.2,0.6c-0.2,0.2-0.4,0.3-0.7,0.4l0.8,1.1c0.2,0.2,0.3,0.4,0.5,0.5C238.3-87.8,238.4-87.7,238.6-87.7
				C238.6-87.7,238.6-87.7,238.6-87.7z"/>
			<path fill="#FFFFFF" d="M242.7-87.8L242.7-87.8l-1.5,0.1v-0.1h0.2c0.2,0,0.2-0.1,0.3-0.2c0.1-0.1,0.1-0.2,0.1-0.4v-2.4
				c0-0.2,0-0.3,0-0.4c0-0.1-0.1-0.1-0.1-0.2c-0.1-0.1-0.2-0.1-0.2-0.1h-0.2v-0.1h1.5v0.1h-0.2c-0.2,0-0.2,0.1-0.3,0.2
				c-0.1,0.1-0.1,0.2-0.1,0.4v2.4c0,0.2,0,0.3,0,0.4s0.1,0.1,0.1,0.1c0.1,0.1,0.2,0.1,0.2,0.1L242.7-87.8L242.7-87.8z"/>
			<path fill="#FFFFFF" d="M244-87.9c0.2,0.1,0.4,0.1,0.5,0.1c0.4,0,0.8-0.2,1-0.5c0.3-0.3,0.4-0.7,0.4-1.2c0-0.5-0.2-0.9-0.4-1.2
				c-0.3-0.3-0.6-0.5-1.1-0.5c-0.2,0-0.3,0-0.5,0.1L244-87.9L244-87.9z M243-87.7L243-87.7L243-87.7c0.2-0.1,0.3-0.2,0.4-0.2
				c0.1-0.1,0.1-0.2,0.1-0.4v-2.4c0-0.2,0-0.4-0.1-0.5c-0.1-0.1-0.2-0.2-0.3-0.2h-0.2v-0.1h1.5c0.5,0,0.9,0.1,1.2,0.2
				c0.3,0.2,0.5,0.3,0.7,0.6c0.2,0.3,0.2,0.6,0.2,1c0,0.5-0.2,0.9-0.5,1.3c-0.4,0.4-0.8,0.5-1.6,0.5L243-87.7L243-87.7z"/>
			<path fill="#FFFFFF" d="M248.8-89.2l-0.6-1.5l-0.6,1.5H248.8z M248.9-88.9h-1.4l-0.2,0.5c-0.1,0.2-0.1,0.2-0.1,0.3
				c0,0.1,0,0.1,0.1,0.2c0.1,0.1,0.2,0.1,0.3,0.1v0.1h-1.2v-0.1c0.2,0,0.2-0.1,0.3-0.1c0.1-0.1,0.2-0.2,0.3-0.5l1.3-3h0.1l1.3,3.1
				c0.1,0.2,0.2,0.4,0.3,0.5s0.2,0.1,0.4,0.2v0.1h-1.5v-0.1c0.2,0,0.2,0,0.3-0.1c0.1-0.1,0.1-0.1,0.1-0.2c0-0.1,0-0.2-0.1-0.4
				L248.9-88.9z"/>
			<path fill="#FFFFFF" d="M251.3-87.9c0.2,0.1,0.4,0.1,0.5,0.1c0.4,0,0.8-0.2,1-0.5c0.3-0.3,0.4-0.7,0.4-1.2c0-0.5-0.2-0.9-0.4-1.2
				c-0.3-0.3-0.6-0.5-1.1-0.5c-0.2,0-0.4,0-0.5,0.1L251.3-87.9L251.3-87.9z M250.3-87.7L250.3-87.7l0.2-0.1c0.2,0,0.2-0.1,0.3-0.2
				c0.1-0.1,0.1-0.2,0.1-0.4v-2.4c0-0.2,0-0.4-0.1-0.5c-0.1-0.1-0.2-0.2-0.3-0.2h-0.2v-0.1h1.5c0.5,0,0.9,0.1,1.2,0.2
				c0.3,0.2,0.5,0.3,0.7,0.6c0.2,0.3,0.2,0.6,0.2,1c0,0.5-0.2,0.9-0.5,1.3c-0.4,0.4-0.8,0.5-1.6,0.5L250.3-87.7L250.3-87.7z"/>
			<path fill="#FFFFFF" d="M240.7-91.5l0.2,1.2h-0.2c0-0.1-0.1-0.3-0.2-0.5c-0.1-0.2-0.2-0.2-0.4-0.4c-0.2-0.1-0.3-0.2-0.5-0.2
				s-0.4,0.1-0.5,0.2c-0.1,0.1-0.1,0.2-0.1,0.3c0,0.1,0,0.2,0.2,0.4s0.3,0.3,0.8,0.5c0.2,0.2,0.5,0.3,0.6,0.5
				c0.1,0.1,0.2,0.2,0.2,0.3c0.1,0.2,0.1,0.3,0.1,0.5c0,0.2-0.1,0.5-0.3,0.7c-0.2,0.2-0.6,0.3-0.8,0.3c-0.1,0-0.2,0-0.3,0
				c-0.2,0-0.2,0-0.3-0.1c-0.2-0.1-0.2-0.1-0.2-0.1c-0.1,0-0.1,0-0.1,0.1c0,0,0,0.1-0.1,0.2h-0.2l-0.2-1.2h0.2
				c0.1,0.2,0.2,0.5,0.3,0.5c0.1,0.2,0.2,0.2,0.4,0.3c0.2,0.1,0.2,0.2,0.5,0.2c0.2,0,0.3,0,0.5-0.2c0.1-0.1,0.2-0.2,0.2-0.5
				c0-0.1,0-0.2-0.1-0.3c-0.1-0.1-0.1-0.2-0.2-0.2c-0.1-0.1-0.2-0.2-0.5-0.4c-0.5-0.3-0.6-0.4-0.8-0.5c-0.2-0.2-0.2-0.2-0.2-0.2
				c0-0.1-0.1-0.2-0.1-0.4c0-0.2,0.1-0.5,0.2-0.7c0.2-0.2,0.5-0.3,0.8-0.3c0.2,0,0.4,0.1,0.6,0.2c0.1,0,0.1,0,0.2,0s0.1,0,0.2-0.1
				C240.6-91.5,240.6-91.5,240.7-91.5L240.7-91.5L240.7-91.5z"/>
			<path fill="#FFFFFF" d="M261.1-89.2l-0.6-1.5l-0.6,1.5H261.1z M261.2-88.9h-1.4l-0.2,0.5c-0.1,0.2-0.1,0.2-0.1,0.3
				c0,0.1,0,0.1,0.1,0.2c0.1,0.1,0.2,0.1,0.3,0.1v0.1h-1.2v-0.1c0.2,0,0.2-0.1,0.3-0.1c0.1-0.1,0.2-0.2,0.3-0.5l1.3-3h0.1l1.3,3.1
				c0.1,0.2,0.2,0.4,0.3,0.5c0.1,0.1,0.2,0.1,0.4,0.2v0.1h-1.5v-0.1c0.2,0,0.2,0,0.3-0.1c0.1-0.1,0.1-0.1,0.1-0.2
				c0-0.1,0-0.2-0.1-0.4L261.2-88.9z"/>
			<path fill="#FFFFFF" d="M262.3-91.4h1l2.2,2.8v-2.1c0-0.2,0-0.4-0.1-0.4c-0.1-0.1-0.2-0.1-0.3-0.1H265v-0.1h1.3v0.1h-0.2
				c-0.2,0-0.2,0.1-0.3,0.2c-0.1,0.1-0.1,0.2-0.1,0.4v3.1h-0.1l-2.4-2.9v2.2c0,0.2,0,0.4,0.1,0.4c0.1,0.1,0.2,0.1,0.3,0.1h0.2v0.1
				h-1.3v-0.1h0.2c0.2,0,0.2-0.1,0.3-0.2c0.1-0.1,0.1-0.2,0.1-0.4v-2.5c-0.1-0.2-0.2-0.2-0.2-0.2c-0.1-0.1-0.2-0.1-0.2-0.1
				s-0.2,0-0.2,0L262.3-91.4L262.3-91.4z"/>
			<path fill="#FFFFFF" d="M269.6-91.4l0.1,0.8h-0.1c0-0.2-0.1-0.2-0.1-0.3c-0.1-0.1-0.2-0.2-0.2-0.2c-0.1-0.1-0.2-0.1-0.4-0.1h-0.5
				v2.8c0,0.2,0,0.4,0.1,0.4c0.1,0.1,0.2,0.1,0.3,0.1h0.2v0.1h-1.5v-0.1h0.2c0.2,0,0.2-0.1,0.3-0.2c0.1-0.1,0.1-0.2,0.1-0.4v-2.8
				h-0.5c-0.2,0-0.3,0-0.4,0c-0.1,0-0.2,0.1-0.2,0.2c-0.1,0.1-0.1,0.2-0.2,0.4h-0.1l0.1-0.8L269.6-91.4L269.6-91.4z"/>
			<path fill="#FFFFFF" d="M271.6-91.2c-0.3,0-0.6,0.2-0.8,0.4c-0.2,0.3-0.4,0.8-0.4,1.3c0,0.6,0.2,1.1,0.4,1.4
				c0.2,0.2,0.5,0.4,0.8,0.4c0.3,0,0.6-0.2,0.8-0.4c0.2-0.2,0.3-0.7,0.3-1.2c0-0.6-0.2-1.1-0.4-1.4
				C272.2-91.1,271.9-91.2,271.6-91.2 M271.7-91.5c0.5,0,0.9,0.2,1.2,0.5c0.4,0.4,0.5,0.8,0.5,1.4s-0.2,1-0.5,1.4
				c-0.4,0.4-0.8,0.5-1.3,0.5c-0.5,0-0.9-0.2-1.3-0.5c-0.3-0.4-0.5-0.8-0.5-1.4c0-0.6,0.2-1.1,0.6-1.4
				C270.8-91.3,271.2-91.5,271.7-91.5"/>
			<path fill="#FFFFFF" d="M258.2-91.5l0.2,1.2h-0.2c0-0.1-0.1-0.3-0.2-0.5s-0.2-0.2-0.4-0.4c-0.2-0.1-0.3-0.2-0.5-0.2
				c-0.2,0-0.4,0.1-0.5,0.2c-0.1,0.1-0.1,0.2-0.1,0.3c0,0.1,0,0.2,0.2,0.4c0.2,0.2,0.3,0.3,0.8,0.5c0.2,0.2,0.5,0.3,0.6,0.5
				c0.1,0.1,0.2,0.2,0.2,0.3c0.1,0.2,0.1,0.3,0.1,0.5c0,0.2-0.1,0.5-0.3,0.7c-0.2,0.2-0.6,0.3-0.8,0.3c-0.1,0-0.2,0-0.3,0
				c-0.2,0-0.2,0-0.3-0.1c-0.2-0.1-0.2-0.1-0.2-0.1c-0.1,0-0.1,0-0.1,0.1c0,0,0,0.1-0.1,0.2h-0.2l-0.2-1.2h0.2
				c0.1,0.2,0.2,0.5,0.3,0.5c0.1,0.2,0.2,0.2,0.4,0.3c0.2,0.1,0.2,0.2,0.5,0.2c0.2,0,0.3,0,0.5-0.2c0.1-0.1,0.2-0.2,0.2-0.5
				c0-0.1,0-0.2-0.1-0.3c-0.1-0.1-0.1-0.2-0.2-0.2c-0.1-0.1-0.2-0.2-0.5-0.4c-0.5-0.3-0.6-0.4-0.8-0.5c-0.2-0.2-0.2-0.2-0.2-0.2
				s-0.1-0.2-0.1-0.4c0-0.2,0.1-0.5,0.2-0.7c0.2-0.2,0.5-0.3,0.8-0.3c0.2,0,0.4,0.1,0.6,0.2c0.1,0,0.1,0,0.2,0s0.1,0,0.2-0.1
				c0.1-0.1,0.1-0.1,0.1-0.2L258.2-91.5L258.2-91.5z"/>
			<path fill="#FFFFFF" d="M278.2-91.4l0.1,0.8h-0.1c0-0.2-0.1-0.2-0.1-0.3c-0.1-0.1-0.2-0.2-0.2-0.2c-0.1-0.1-0.2-0.1-0.4-0.1h-0.5
				v2.8c0,0.2,0,0.4,0.1,0.4c0.1,0.1,0.2,0.1,0.3,0.1h0.2v0.1h-1.5v-0.1h0.2c0.2,0,0.2-0.1,0.3-0.2c0.1-0.1,0.1-0.2,0.1-0.4v-2.8
				H276c-0.2,0-0.3,0-0.4,0c-0.1,0-0.2,0.1-0.2,0.2c-0.1,0.1-0.1,0.2-0.2,0.4h-0.1l0.1-0.8L278.2-91.4L278.2-91.4z"/>
			<path fill="#FFFFFF" d="M280.2-91.2c-0.3,0-0.6,0.2-0.8,0.4c-0.2,0.3-0.4,0.8-0.4,1.3c0,0.6,0.2,1.1,0.4,1.4
				c0.2,0.2,0.5,0.4,0.8,0.4c0.3,0,0.6-0.2,0.8-0.4c0.2-0.2,0.3-0.7,0.3-1.2c0-0.6-0.2-1.1-0.4-1.4
				C280.8-91.1,280.5-91.2,280.2-91.2 M280.2-91.5c0.5,0,0.8,0.2,1.2,0.5c0.4,0.4,0.5,0.8,0.5,1.4s-0.2,1-0.5,1.4
				c-0.4,0.4-0.8,0.5-1.3,0.5c-0.5,0-0.9-0.2-1.2-0.5c-0.3-0.4-0.5-0.8-0.5-1.4c0-0.6,0.2-1.1,0.6-1.4
				C279.4-91.3,279.8-91.5,280.2-91.5"/>
			<path fill="#FFFFFF" d="M284.3-87.7l-1.4-3.1v2.5c0,0.2,0,0.4,0.1,0.4c0.1,0.1,0.2,0.1,0.3,0.1h0.2v0.1h-1.3v-0.1h0.2
				c0.2,0,0.2-0.1,0.3-0.2c0.1-0.1,0.1-0.2,0.1-0.4v-2.4c0-0.2,0-0.3-0.1-0.4c0-0.1-0.1-0.1-0.2-0.2c-0.1,0-0.2-0.1-0.3-0.1v-0.1h1
				l1.3,2.8l1.3-2.8h1v0.1h-0.2c-0.2,0-0.2,0.1-0.3,0.2c-0.1,0.1-0.1,0.2-0.1,0.4v2.4c0,0.2,0,0.4,0.1,0.4c0.1,0.1,0.2,0.1,0.3,0.1
				h0.2v0.1h-1.5V-88h0.2c0.2,0,0.2-0.1,0.3-0.2c0.1-0.1,0.1-0.2,0.1-0.4V-91l-1.4,3.1h-0.1V-87.7z"/>
			<path fill="#FFFFFF" d="M289.2-89.2l-0.6-1.5l-0.6,1.5H289.2z M289.3-88.9h-1.4l-0.2,0.5c-0.1,0.2-0.1,0.2-0.1,0.3
				c0,0.1,0,0.1,0.1,0.2c0.1,0.1,0.2,0.1,0.3,0.1v0.1h-1.2v-0.1c0.2,0,0.2-0.1,0.3-0.1c0.1-0.1,0.2-0.2,0.3-0.5l1.3-3h0.1l1.3,3.1
				c0.1,0.2,0.2,0.4,0.3,0.5c0.1,0.1,0.2,0.1,0.4,0.2v0.1h-1.5v-0.1c0.2,0,0.2,0,0.3-0.1c0.1-0.1,0.1-0.1,0.1-0.2
				c0-0.1,0-0.2-0.1-0.4L289.3-88.9z"/>
			<path fill="#FFFFFF" d="M293.2-91.5l0.2,1.2h-0.2c0-0.1-0.1-0.3-0.2-0.5c-0.1-0.2-0.2-0.2-0.4-0.4c-0.2-0.1-0.3-0.2-0.5-0.2
				s-0.4,0.1-0.5,0.2c-0.1,0.1-0.1,0.2-0.1,0.3c0,0.1,0,0.2,0.2,0.4c0.2,0.2,0.3,0.3,0.8,0.5c0.2,0.2,0.5,0.3,0.6,0.5
				c0.1,0.1,0.2,0.2,0.2,0.3c0.1,0.2,0.1,0.3,0.1,0.5c0,0.2-0.1,0.5-0.3,0.7c-0.2,0.2-0.6,0.3-0.8,0.3c-0.1,0-0.2,0-0.3,0
				c-0.2,0-0.2,0-0.3-0.1c-0.2-0.1-0.2-0.1-0.2-0.1c-0.1,0-0.1,0-0.1,0.1c0,0,0,0.1-0.1,0.2h-0.2l-0.2-1.2h0.2
				c0.1,0.2,0.2,0.5,0.3,0.5c0.1,0.2,0.2,0.2,0.4,0.3c0.2,0.1,0.2,0.2,0.5,0.2c0.2,0,0.3,0,0.5-0.2c0.1-0.1,0.2-0.2,0.2-0.5
				c0-0.1,0-0.2-0.1-0.3c-0.1-0.1-0.1-0.2-0.2-0.2c-0.1-0.1-0.2-0.2-0.5-0.4c-0.5-0.3-0.6-0.4-0.8-0.5c-0.1-0.2-0.2-0.2-0.2-0.2
				s-0.1-0.2-0.1-0.4c0-0.2,0.1-0.5,0.2-0.7c0.2-0.2,0.5-0.3,0.8-0.3c0.2,0,0.4,0.1,0.6,0.2c0.1,0,0.1,0,0.2,0c0.1,0,0.1,0,0.2-0.1
				C293.2-91.4,293.2-91.4,293.2-91.5L293.2-91.5L293.2-91.5z"/>
		</g>
		<rect x="217.9" y="-95" fill="#FFFFFF" width="75.6" height="0.6"/>
		<g>
			<path fill="#FFFFFF" d="M238.5-127v-0.8h10.3v0.8h-1.1c-1.2,0-2,0.5-2.6,1.5c-0.3,0.5-0.5,1.5-0.5,3.1v11.8
				c0,2.9-0.3,5.2-0.8,6.8c-0.5,1.6-1.7,3-3.4,4.2s-4,1.7-6.9,1.7c-3.2,0-5.6-0.5-7.2-1.7c-1.6-1.1-2.8-2.6-3.5-4.5
				c-0.5-1.3-0.7-3.7-0.7-7.1v-11.4c0-1.8-0.2-3-0.8-3.5c-0.5-0.5-1.3-0.8-2.4-0.8h-1.2v-0.8h12.6v0.8h-1.2c-1.2,0-2.1,0.4-2.6,1.2
				c-0.4,0.5-0.5,1.6-0.5,3.2v12.7c0,1.2,0.1,2.5,0.3,3.9c0.2,1.5,0.6,2.6,1.2,3.4c0.5,0.8,1.3,1.5,2.3,2c1,0.5,2.3,0.8,3.8,0.8
				c1.9,0,3.6-0.4,5.1-1.2c1.5-0.8,2.5-1.9,3.1-3.2c0.5-1.3,0.8-3.5,0.8-6.6v-11.8c0-1.8-0.2-2.9-0.6-3.4c-0.5-0.6-1.4-0.9-2.5-0.9
				L238.5-127L238.5-127z"/>
			<path fill="#FFFFFF" d="M265.8-128.1l1,9.4h-1.1c-0.2-0.7-0.7-2.5-1.5-3.7c-0.6-1.1-1.6-2.1-2.9-2.8c-1.2-0.7-2.5-1.1-3.9-1.1
				c-1.4,0-2.7,0.6-3.6,1.7c-0.7,0.8-0.8,1.8-0.8,2.3c0,0.9,0.2,1.8,0.9,2.8c1.1,1.2,2.5,2.2,5.9,4.2c1.6,1,3.8,2.3,5.1,3.6
				c0.7,0.7,1.2,1.1,1.8,2.2c0.6,1,0.9,2.3,0.8,3.5c0,2-0.5,3.7-2.2,5.4c-2,2.1-4.8,2.7-6.7,2.7c-0.9,0-1.6-0.1-2.5-0.2
				c-1.2-0.2-1.2-0.2-2.6-0.8c-1.2-0.5-1.8-0.6-2.1-0.6c-0.3,0-0.8,0.2-0.9,0.5c-0.1,0.2-0.2,0.4-0.4,1h-1l-1.3-9.3h1
				c0.6,1.9,1.5,3.4,2.4,4.5c0.8,1,1.6,1.8,2.8,2.3c1.1,0.5,2,0.9,3.8,0.9c1.1,0,2.5-0.2,3.9-1.5c0.4-0.4,1.3-1.5,1.3-3.5
				c0-0.7-0.2-1.7-0.6-2.5c-0.4-0.8-0.6-0.9-1.1-1.4c-0.8-0.6-1.6-1.3-3.9-2.8c-3.5-2.2-4.8-2.8-6.4-4.4c-0.9-0.9-1-1.2-1.5-2
				c-0.2-0.5-0.7-1.6-0.6-2.9c0-1.8,0.5-3.5,2-5.2c1.6-1.8,3.7-2.5,6.1-2.5c1.6,0,3.2,0.5,5,1.2c0.7,0.2,0.8,0.2,1.2,0.2
				c0.4,0,0.7-0.1,0.9-0.3c0.3-0.4,0.4-0.7,0.5-1.2h0.9V-128.1z"/>
			<path fill="#FFFFFF" d="M293.3-127.8l0.3,6.8h-0.8c-0.2-1.2-0.4-2.1-0.6-2.6c-0.5-0.8-1.1-1.5-1.8-1.8c-0.8-0.4-1.7-0.6-2.9-0.6
				h-4.1v22.3c0,1.8,0.2,2.9,0.6,3.4c0.5,0.6,1.4,0.9,2.5,0.9h1v0.8h-12.5v-0.8h1.1c1.2,0,2.1-0.4,2.6-1.2c0.3-0.5,0.5-1.5,0.5-3.2
				V-126h-3.5c-1.4,0-2.3,0.1-2.9,0.3c-0.8,0.3-1.4,0.8-1.9,1.5c-0.5,0.8-0.8,1.8-0.9,3.2h-0.8l0.3-6.8L293.3-127.8L293.3-127.8z"/>
		</g>
		<polygon fill="#FFFFFF" points="290.2,-92.2 289.4,-91.4 289.3,-91.4 289.6,-92.2 		"/>
		<g>
			<path fill="#FFFFFF" d="M291.7-100.7c0.2,0,0.4,0,0.5,0.1c0.2,0.1,0.2,0.2,0.2,0.4s-0.1,0.2-0.2,0.3c-0.1,0-0.2,0.1-0.2,0.1
				c0.2,0,0.2,0.1,0.3,0.2c0.1,0.1,0.1,0.2,0.1,0.2v0.2c0,0,0,0.1,0,0.2c0,0.1,0,0.1,0,0.1l0,0h-0.3l0,0l0,0v-0.1v-0.2
				c0-0.2-0.1-0.3-0.2-0.4c-0.1,0-0.2-0.1-0.3-0.1h-0.2v0.6h-0.3v-1.6L291.7-100.7L291.7-100.7z M292-100.5
				c-0.1-0.1-0.2-0.1-0.4-0.1h-0.2v0.6h0.2c0.2,0,0.2,0,0.3,0c0.1-0.1,0.2-0.2,0.2-0.2C292.1-100.3,292.1-100.4,292-100.5
				 M292.8-98.9c-0.3,0.3-0.6,0.5-1.1,0.5s-0.8-0.2-1.1-0.5c-0.3-0.3-0.5-0.6-0.5-1.1c0-0.4,0.2-0.8,0.5-1.1
				c0.3-0.3,0.6-0.5,1.1-0.5c0.4,0,0.8,0.2,1.1,0.5c0.3,0.3,0.5,0.6,0.5,1.1C293.2-99.5,293.1-99.1,292.8-98.9 M290.8-100.8
				c-0.2,0.2-0.4,0.5-0.4,0.9c0,0.4,0.2,0.7,0.4,0.9s0.5,0.4,0.9,0.4s0.7-0.2,0.9-0.4c0.2-0.2,0.4-0.5,0.4-0.9
				c0-0.4-0.2-0.7-0.4-0.9s-0.5-0.4-0.9-0.4S291.1-101.1,290.8-100.8"/>
		</g>
	</g>
	<g>
		<g>
			<rect x="309.7" y="-127.7" fill="#FFFFFF" width="0.5" height="40.1"/>
		</g>
		<g>
			<path fill="#FFFFFF" d="M326.1-121.7c0-3.3,0-3.9-0.1-4.5c-0.1-0.7-0.2-1.1-0.9-1.2c-0.2-0.1-0.5-0.1-0.7-0.1
				c-0.1,0-0.2-0.1-0.2-0.2c0-0.2,0.1-0.2,0.3-0.2c0.9,0,2.3,0.1,2.4,0.1c0.2,0,1.6-0.1,2.8-0.1c2.1,0,5.9-0.2,8.5,2.4
				c1.1,1.1,2.1,2.8,2.1,5.4c0,2.7-1.1,4.7-2.3,5.9c-0.9,0.9-2.8,2.5-6.4,2.5c-0.9,0-2-0.1-2.9-0.2c-0.9-0.1-1.6-0.2-1.8-0.2
				c-0.1,0-0.4,0-0.8,0c-0.4,0-0.9,0.1-1.2,0.1c-0.2,0-0.3-0.1-0.3-0.2s0.1-0.2,0.2-0.2c0.2,0,0.5-0.1,0.6-0.1
				c0.4-0.1,0.5-0.5,0.6-1.2c0.1-0.9,0.1-2.5,0.1-4.6L326.1-121.7L326.1-121.7z M327.9-119.4c0,2.2,0,4.2,0.1,4.6
				c0,0.5,0.1,1.4,0.2,1.6c0.3,0.4,1.1,0.8,3.6,0.8c2,0,3.8-0.7,5-2c1.1-1.1,1.7-3.1,1.7-5.1c0-2.7-1.2-4.4-2-5.3
				c-2-2.1-4.4-2.4-6.9-2.4c-0.4,0-1.2,0.1-1.4,0.2c-0.2,0.1-0.2,0.2-0.2,0.4c0,0.7,0,2.8,0,4.5L327.9-119.4L327.9-119.4z"/>
			<path fill="#FFFFFF" d="M346-117.9c0,2,0,3.7,0.1,4.6c0.1,0.6,0.2,1.1,0.8,1.2c0.3,0.1,0.8,0.1,0.9,0.1s0.2,0.1,0.2,0.2
				c0,0.1-0.1,0.2-0.3,0.2c-1.2,0-2.5-0.1-2.6-0.1c-0.1,0-1.5,0.1-2.1,0.1c-0.2,0-0.3-0.1-0.3-0.2c0-0.1,0.1-0.2,0.2-0.2
				c0.2,0,0.5-0.1,0.6-0.1c0.4-0.1,0.5-0.5,0.6-1.2c0.1-0.9,0.1-2.5,0.1-4.6v-3.7c0-3.3,0-3.9-0.1-4.5c-0.1-0.7-0.2-1.1-0.7-1.2
				c-0.2-0.1-0.5-0.1-0.7-0.1c-0.1,0-0.2-0.1-0.2-0.2c0-0.2,0.1-0.2,0.3-0.2c0.7,0,2,0.1,2.2,0.1c0.1,0,1.5-0.1,2.1-0.1
				c0.2,0,0.3,0.1,0.3,0.2c0,0.1-0.1,0.2-0.2,0.2c-0.2,0-0.3,0-0.5,0.1c-0.5,0.1-0.8,0.5-0.8,1.2c-0.1,0.7-0.1,1.2-0.1,4.5v3.6H346z
				"/>
			<path fill="#FFFFFF" d="M352.5-121.7c0-3.3,0-3.9-0.1-4.5c-0.1-0.7-0.2-1.1-0.9-1.2c-0.2-0.1-0.5-0.1-0.7-0.1
				c-0.1,0-0.2-0.1-0.2-0.2c0-0.2,0.1-0.2,0.3-0.2c0.9,0,2.3,0.1,2.4,0.1c0.2,0,1.8-0.1,2.5-0.1c1.3,0,2.8,0.2,3.8,0.9
				c0.5,0.4,1.5,1.4,1.5,2.8c0,1.5-0.7,3.2-2.5,4.8c1.8,2.2,3.2,4.1,4.4,5.4c1.2,1.2,2.1,1.5,2.6,1.5c0.4,0.1,0.7,0.1,0.8,0.1
				c0.1,0,0.2,0.1,0.2,0.2c0,0.2-0.2,0.2-0.5,0.2h-1.5c-1.2,0-1.7-0.1-2.2-0.4c-0.9-0.5-1.6-1.5-2.8-3.1c-0.9-1.2-1.8-2.6-2.3-3.2
				c-0.1-0.1-0.2-0.2-0.3-0.2l-2.6-0.1c-0.1,0-0.2,0.1-0.2,0.2v0.5c0,2,0,3.7,0.1,4.6c0.1,0.6,0.2,1.1,0.8,1.2
				c0.3,0.1,0.8,0.1,0.9,0.1s0.2,0.1,0.2,0.2c0,0.1-0.1,0.2-0.3,0.2c-1.2,0-2.5-0.1-2.6-0.1c0,0-1.4,0.1-2,0.1
				c-0.2,0-0.3-0.1-0.3-0.2c0-0.1,0.1-0.2,0.2-0.2c0.2,0,0.5-0.1,0.6-0.1c0.4-0.1,0.5-0.5,0.6-1.2c0.1-0.9,0.1-2.5,0.1-4.6v-3.6
				H352.5z M354.2-119.8c0,0.1,0.1,0.2,0.2,0.2c0.3,0.2,1.3,0.3,2.2,0.3c0.5,0,1.1-0.1,1.6-0.4c0.8-0.5,1.3-1.6,1.3-3.2
				c0-2.6-1.4-4.2-3.7-4.2c-0.6,0-1.2,0.1-1.4,0.2c-0.1,0.1-0.2,0.2-0.2,0.2L354.2-119.8L354.2-119.8z"/>
			<path fill="#FFFFFF" d="M367.3-121.7c0-3.3,0-3.9-0.1-4.5c-0.1-0.7-0.2-1.1-0.9-1.2c-0.2-0.1-0.5-0.1-0.7-0.1
				c-0.1,0-0.2-0.1-0.2-0.2c0-0.2,0.1-0.2,0.3-0.2c0.5,0,1.1,0,1.5,0l0.8,0.1c0.2,0,4.4,0,4.8,0c0.4,0,0.8-0.1,0.9-0.1
				c0.1,0,0.2-0.1,0.3-0.1c0.1,0,0.1,0.1,0.1,0.2c0,0.2-0.1,0.4-0.2,1c0,0.2-0.1,1.2-0.1,1.4c0,0.1-0.1,0.2-0.2,0.2
				c-0.2,0-0.2-0.1-0.2-0.3c0-0.2,0-0.5-0.2-0.8c-0.2-0.3-0.4-0.6-1.5-0.7c-0.4-0.1-2.7-0.1-2.9-0.1c-0.1,0-0.2,0.1-0.2,0.2v5.8
				c0,0.2,0,0.2,0.2,0.2c0.3,0,2.8,0,3.4-0.1c0.5-0.1,0.8-0.1,1-0.3c0.2-0.2,0.2-0.3,0.3-0.3c0.1,0,0.1,0.1,0.1,0.2
				c0,0.2-0.1,0.5-0.2,1.2c-0.1,0.5-0.1,1.3-0.1,1.5s0,0.4-0.2,0.4c-0.1,0-0.2-0.1-0.2-0.2c0-0.2,0-0.4-0.1-0.7s-0.3-0.7-1.1-0.8
				c-0.5-0.1-2.7-0.1-3-0.1c-0.1,0-0.2,0.1-0.2,0.2v1.8c0,0.7,0,3.2,0,3.6c0.1,1.5,0.4,1.8,2.5,1.8c0.5,0,1.5,0,2-0.2
				c0.5-0.2,0.8-0.7,0.9-1.5c0.1-0.2,0.1-0.3,0.2-0.3c0.2,0,0.2,0.2,0.2,0.3c0,0.2-0.2,1.6-0.3,2.1c-0.2,0.5-0.3,0.5-1.2,0.5
				c-1.6,0-2.8-0.1-3.5-0.1c-0.8-0.1-1.3-0.1-1.6-0.1c-0.1,0-0.4,0-0.8,0s-0.9,0.1-1.2,0.1c-0.2,0-0.3-0.1-0.3-0.2
				c0-0.1,0.1-0.2,0.2-0.2c0.2,0,0.5-0.1,0.6-0.1c0.5-0.1,0.5-0.5,0.6-1.2c0.1-0.9,0.1-2.5,0.1-4.6V-121.7z"/>
			<path fill="#FFFFFF" d="M379.3-113.8c-2.1-1.8-2.5-4.2-2.5-6.2c0-1.4,0.5-3.9,2.4-5.8c1.2-1.2,3.2-2.2,6.5-2.2
				c0.8,0,2,0.1,3.1,0.2c0.8,0.2,1.5,0.3,2.2,0.3c0.2,0,0.3,0.1,0.3,0.2c0,0.2-0.1,0.4-0.1,1.2c-0.1,0.7-0.1,1.8-0.1,2.2
				s-0.1,0.5-0.2,0.5c-0.2,0-0.2-0.2-0.2-0.5c0-0.8-0.3-1.7-0.9-2.2c-0.8-0.6-2.4-1.2-4.2-1.2c-2.8,0-4.2,0.8-4.8,1.5
				c-1.5,1.5-1.9,3.4-1.9,5.5c0,4,3.1,7.8,7.6,7.8c1.6,0,2.8-0.2,3.7-1.1c0.5-0.5,0.7-1.4,0.8-1.8c0.1-0.2,0.1-0.3,0.2-0.3
				c0.1,0,0.2,0.2,0.2,0.3c0,0.2-0.2,2-0.5,2.7c-0.2,0.4-0.2,0.5-0.5,0.6c-0.8,0.3-2.5,0.5-3.8,0.5
				C383.1-111.5,381-112.3,379.3-113.8z"/>
			<path fill="#FFFFFF" d="M395.1-113.8c-2.1-1.8-2.5-4.2-2.5-6.2c0-1.4,0.5-3.9,2.4-5.8c1.2-1.2,3.2-2.2,6.5-2.2
				c0.8,0,2,0.1,3.1,0.2c0.8,0.2,1.5,0.3,2.2,0.3c0.2,0,0.3,0.1,0.3,0.2c0,0.2-0.1,0.4-0.1,1.2c-0.1,0.7-0.1,1.8-0.1,2.2
				s-0.1,0.5-0.2,0.5c-0.2,0-0.2-0.2-0.2-0.5c0-0.8-0.3-1.7-0.9-2.2c-0.8-0.6-2.4-1.2-4.2-1.2c-2.8,0-4.2,0.8-4.8,1.5
				c-1.5,1.5-1.9,3.4-1.9,5.5c0,4,3.1,7.8,7.6,7.8c1.6,0,2.8-0.2,3.7-1.1c0.5-0.5,0.7-1.4,0.8-1.8c0.1-0.2,0.1-0.3,0.2-0.3
				c0.1,0,0.2,0.2,0.2,0.3c0,0.2-0.2,2-0.5,2.7c-0.2,0.4-0.2,0.5-0.5,0.6c-0.8,0.3-2.5,0.5-3.8,0.5
				C398.8-111.5,396.8-112.3,395.1-113.8z"/>
			<path fill="#FFFFFF" d="M412.6-117.9c0,2,0,3.7,0.1,4.6c0.1,0.6,0.2,1.1,0.8,1.2c0.3,0.1,0.8,0.1,0.9,0.1c0.2,0,0.2,0.1,0.2,0.2
				c0,0.1-0.1,0.2-0.3,0.2c-1.2,0-2.5-0.1-2.6-0.1c-0.1,0-1.5,0.1-2.1,0.1c-0.2,0-0.3-0.1-0.3-0.2c0-0.1,0.1-0.2,0.2-0.2
				c0.2,0,0.5-0.1,0.6-0.1c0.5-0.1,0.5-0.5,0.6-1.2c0.1-0.9,0.1-2.5,0.1-4.6v-3.7c0-3.3,0-3.9-0.1-4.5c-0.1-0.7-0.2-1.1-0.7-1.2
				c-0.2-0.1-0.5-0.1-0.7-0.1c-0.1,0-0.2-0.1-0.2-0.2c0-0.2,0.1-0.2,0.3-0.2c0.7,0,2,0.1,2.2,0.1c0.1,0,1.5-0.1,2.1-0.1
				c0.2,0,0.3,0.1,0.3,0.2c0,0.1-0.1,0.2-0.2,0.2c-0.2,0-0.3,0-0.5,0.1c-0.5,0.1-0.8,0.5-0.8,1.2c-0.1,0.7-0.1,1.2-0.1,4.5v3.6
				H412.6z"/>
			<path fill="#FFFFFF" d="M424.5-128.1c4.8,0,8.3,3,8.3,7.9c0,4.8-3.3,8.6-8.5,8.6c-5.8,0-8.2-4.5-8.2-8.3
				C416.2-123.2,418.7-128.1,424.5-128.1z M425-112.3c1.9,0,5.8-1.1,5.8-7.2c0-5.1-3.1-7.8-6.4-7.8c-3.5,0-6.1,2.3-6.1,6.9
				C418.2-115.5,421.1-112.3,425-112.3z M427.7-130.7c0.1,0.2,0,0.2-0.1,0.2s-0.3-0.1-0.6,0c-1,0.1-2.5,0.6-3.2,0.9
				c-0.2,0.1-0.3,0.1-0.3,0.1c-0.1,0-0.1-0.1-0.1-0.2s0.1-0.1,0.2-0.2c0.8-0.5,2.7-1.7,2.8-1.8c0.4-0.2,0.5-0.3,0.6-0.3
				c0.1,0,0.1,0.1,0.2,0.2C427.3-131.4,427.4-131.1,427.7-130.7z"/>
			<path fill="#FFFFFF" d="M436.8-114.7c0.1,1.8,0.2,2.3,0.8,2.5c0.4,0.1,0.8,0.2,1.1,0.2c0.1,0,0.2,0.1,0.2,0.2
				c0,0.2-0.2,0.2-0.4,0.2c-1.2,0-2.1-0.1-2.2-0.1s-1.1,0.1-2,0.1c-0.2,0-0.3,0-0.3-0.2c0-0.1,0.1-0.2,0.2-0.2c0.2,0,0.5,0,0.8-0.2
				c0.5-0.2,0.6-0.8,0.6-2.7V-127c0-0.8,0.1-1.1,0.2-1.1c0.2,0,0.5,0.5,0.8,0.7c0.3,0.4,3.5,3.8,6.7,7.2c2.1,2.2,4.4,4.8,5.1,5.5
				l-0.2-10.8c0-1.4-0.2-1.8-0.8-2c-0.4-0.1-0.8-0.1-1-0.1s-0.2-0.1-0.2-0.2c0-0.2,0.2-0.2,0.5-0.2c0.9,0,2,0.1,2.2,0.1
				c0.2,0,0.9-0.1,1.8-0.1c0.2,0,0.4,0,0.4,0.2c0,0.1-0.1,0.2-0.2,0.2c-0.1,0-0.2,0-0.5,0.1c-0.7,0.2-0.8,0.6-0.8,1.8l-0.1,12.4
				c0,1.4-0.1,1.5-0.2,1.5c-0.2,0-0.5-0.2-1.5-1.4c-0.2-0.2-3.3-3.3-5.5-5.7c-2.5-2.6-4.8-5.3-5.5-6.1L436.8-114.7z"/>
			<path fill="#FFFFFF" d="M326.1-97.4c0-3.3,0-3.9-0.1-4.5c-0.1-0.7-0.2-1.1-0.9-1.2c-0.2-0.1-0.5-0.1-0.7-0.1
				c-0.1,0-0.2-0.1-0.2-0.2c0-0.2,0.1-0.2,0.3-0.2c0.9,0,2.3,0.1,2.4,0.1c0.2,0,1.6-0.1,2.8-0.1c2.1,0,5.9-0.2,8.5,2.4
				c1.1,1.1,2.1,2.8,2.1,5.4c0,2.7-1.1,4.7-2.3,5.9c-0.9,0.9-2.8,2.5-6.4,2.5c-0.9,0-2-0.1-2.9-0.2c-0.9-0.1-1.6-0.2-1.8-0.2
				c-0.1,0-0.4,0-0.8,0c-0.4,0-0.9,0.1-1.2,0.1c-0.2,0-0.3-0.1-0.3-0.2c0-0.1,0.1-0.2,0.2-0.2c0.2,0,0.5-0.1,0.6-0.1
				c0.4-0.1,0.5-0.5,0.6-1.2c0.1-0.9,0.1-2.5,0.1-4.6L326.1-97.4L326.1-97.4z M327.9-95.1c0,2.2,0,4.2,0.1,4.6
				c0,0.5,0.1,1.4,0.2,1.6c0.3,0.4,1.1,0.8,3.6,0.8c2,0,3.8-0.7,5-2c1.1-1.1,1.7-3.1,1.7-5.1c0-2.7-1.2-4.4-2-5.3
				c-2-2.1-4.4-2.4-6.9-2.4c-0.4,0-1.2,0.1-1.4,0.2c-0.2,0.1-0.2,0.2-0.2,0.4c0,0.7,0,2.8,0,4.5L327.9-95.1L327.9-95.1z"/>
			<path fill="#FFFFFF" d="M344.3-97.4c0-3.3,0-3.9-0.1-4.5c-0.1-0.7-0.2-1.1-0.9-1.2c-0.2-0.1-0.5-0.1-0.7-0.1
				c-0.1,0-0.2-0.1-0.2-0.2c0-0.2,0.1-0.2,0.3-0.2c0.5,0,1.1,0,1.5,0l0.8,0.1c0.2,0,4.4,0,4.8,0c0.4,0,0.8-0.1,0.9-0.1
				c0.1,0,0.2-0.1,0.3-0.1c0.1,0,0.1,0.1,0.1,0.2c0,0.2-0.1,0.4-0.2,1c0,0.2-0.1,1.2-0.1,1.4c0,0.1-0.1,0.2-0.2,0.2
				c-0.2,0-0.2-0.1-0.2-0.3c0-0.2,0-0.5-0.2-0.8c-0.2-0.3-0.4-0.6-1.5-0.7c-0.4-0.1-2.7-0.1-2.9-0.1c-0.1,0-0.2,0.1-0.2,0.2v5.8
				c0,0.2,0,0.2,0.2,0.2c0.3,0,2.8,0,3.4-0.1c0.5-0.1,0.8-0.1,1-0.3c0.2-0.2,0.2-0.3,0.3-0.3c0.1,0,0.1,0.1,0.1,0.2
				c0,0.2-0.1,0.5-0.2,1.2c-0.1,0.4-0.1,1.2-0.1,1.4c0,0.2,0,0.4-0.2,0.4c-0.1,0-0.2-0.1-0.2-0.2c0-0.2,0-0.4-0.1-0.7
				s-0.3-0.7-1.1-0.8c-0.5-0.1-2.7-0.1-3-0.1c-0.1,0-0.2,0.1-0.2,0.2v1.8c0,0.7,0,3.2,0,3.6c0.1,1.5,0.4,1.8,2.5,1.8
				c0.5,0,1.5,0,2-0.2c0.5-0.2,0.8-0.7,0.9-1.5c0.1-0.2,0.1-0.3,0.2-0.3c0.2,0,0.2,0.2,0.2,0.3c0,0.2-0.2,1.6-0.3,2.1
				c-0.2,0.5-0.3,0.5-1.2,0.5c-1.6,0-2.8-0.1-3.5-0.1c-0.8-0.1-1.3-0.1-1.6-0.1c-0.1,0-0.4,0-0.8,0c-0.4,0-0.9,0.1-1.2,0.1
				c-0.2,0-0.3-0.1-0.3-0.2c0-0.1,0.1-0.2,0.2-0.2c0.2,0,0.5-0.1,0.6-0.1c0.4-0.1,0.5-0.5,0.6-1.2c0.1-0.9,0.1-2.5,0.1-4.6
				L344.3-97.4L344.3-97.4z"/>
			<path fill="#FFFFFF" d="M361.9-97.4c0-3.3,0-3.9-0.1-4.5c-0.1-0.7-0.2-1.1-0.9-1.2c-0.2-0.1-0.5-0.1-0.7-0.1
				c-0.1,0-0.2-0.1-0.2-0.2c0-0.2,0.1-0.2,0.3-0.2c0.9,0,2.2,0.1,2.4,0.1c0.5,0,1.7-0.1,2.7-0.1c2.6,0,3.6,0.9,3.9,1.2
				c0.5,0.5,1.1,1.4,1.1,2.5c0,3-2.2,5-5.2,5c-0.1,0-0.3,0-0.5,0c-0.1,0-0.2-0.1-0.2-0.2c0-0.2,0.2-0.2,0.5-0.2
				c2.1,0,3.7-1.5,3.7-3.5c0-0.7-0.1-2.1-1.2-3.2c-1.2-1.2-2.4-1.1-2.9-1.1c-0.4,0-0.7,0.1-0.9,0.2c-0.2,0.1-0.2,0.2-0.2,0.4v8.7
				c0,2,0,3.7,0.1,4.6c0.1,0.6,0.2,1.1,0.8,1.2c0.3,0.1,0.8,0.1,0.9,0.1s0.2,0.1,0.2,0.2c0,0.1-0.1,0.2-0.3,0.2
				c-1.2,0-2.5-0.1-2.6-0.1c-0.1,0-1.4,0.1-2,0.1c-0.2,0-0.3-0.1-0.3-0.2c0-0.1,0.1-0.2,0.2-0.2c0.2,0,0.5-0.1,0.6-0.1
				c0.5-0.1,0.5-0.5,0.6-1.2c0.1-0.9,0.1-2.5,0.1-4.6L361.9-97.4L361.9-97.4z"/>
			<path fill="#FFFFFF" d="M380.3-103.8c4.8,0,8.3,3,8.3,7.9c0,4.8-3.3,8.6-8.5,8.6c-5.8,0-8.2-4.5-8.2-8.3
				C371.9-98.9,374.5-103.8,380.3-103.8z M380.7-88c1.9,0,5.8-1.1,5.8-7.2c0-5.1-3.1-7.8-6.4-7.8c-3.5,0-6.1,2.3-6.1,6.9
				C374-91.2,376.9-88,380.7-88z"/>
			<path fill="#FFFFFF" d="M391.3-87.8c-0.3-0.2-0.3-0.2-0.3-0.8c0-1.1,0.1-1.9,0.1-2.2c0-0.2,0.1-0.3,0.2-0.3
				c0.2,0,0.2,0.1,0.2,0.2c0,0.2,0,0.5,0.1,0.8c0.3,1.5,1.7,2.2,3.2,2.2c2,0,3-1.5,3-2.8c0-1.5-0.6-2.3-2.5-3.8l-0.9-0.8
				c-2.2-1.8-2.8-3.2-2.8-4.6c0-2.2,1.7-3.8,4.4-3.8c0.8,0,1.5,0.1,2,0.2c0.4,0.1,0.5,0.1,0.8,0.1c0.2,0,0.2,0.1,0.2,0.2
				c0,0.1-0.1,0.8-0.1,2.2c0,0.3-0.1,0.5-0.2,0.5c-0.2,0-0.2-0.1-0.2-0.3c0-0.2-0.2-0.8-0.3-1.1c-0.2-0.2-0.7-1.2-2.6-1.2
				c-1.5,0-2.6,0.9-2.6,2.5c0,1.2,0.5,2,2.6,3.5l0.6,0.5c2.5,2,3.1,3.3,3.1,5c0,0.8-0.3,2.5-1.8,3.5c-0.9,0.6-2.1,0.9-3.2,0.9
				C393.1-87.2,392.1-87.4,391.3-87.8z"/>
			<path fill="#FFFFFF" d="M408.1-93.6c0,2,0,3.7,0.1,4.6c0.1,0.6,0.2,1.1,0.8,1.2c0.3,0.1,0.8,0.1,0.9,0.1s0.2,0.1,0.2,0.2
				c0,0.1-0.1,0.2-0.3,0.2c-1.2,0-2.5-0.1-2.6-0.1c-0.1,0-1.5,0.1-2.1,0.1c-0.2,0-0.3-0.1-0.3-0.2c0-0.1,0.1-0.2,0.2-0.2
				c0.2,0,0.5-0.1,0.6-0.1c0.4-0.1,0.5-0.5,0.6-1.2c0.1-0.9,0.1-2.5,0.1-4.6v-9l-3.2,0.1c-1.3,0-1.8,0.2-2.2,0.7
				c-0.2,0.4-0.3,0.5-0.4,0.7c-0.1,0.2-0.2,0.2-0.2,0.2s-0.1-0.1-0.1-0.2c0-0.2,0.4-2,0.5-2.2c0.1-0.2,0.2-0.4,0.2-0.4
				c0.2,0,0.4,0.2,0.9,0.2c0.6,0.1,1.4,0.1,1.7,0.1h7.9c0.7,0,1.2-0.1,1.5-0.1c0.3-0.1,0.5-0.1,0.6-0.1s0.1,0.2,0.1,0.2
				c0,0.6-0.1,2.1-0.1,2.3c0,0.2-0.1,0.3-0.2,0.3c-0.1,0-0.2-0.1-0.2-0.4v-0.2c-0.1-0.6-0.5-1.2-2.6-1.2l-2.7-0.1v8.9H408.1z"/>
			<path fill="#FFFFFF" d="M426.7-92.9c0-1.7-0.1-1.9-0.9-2.2c-0.2-0.1-0.5-0.1-0.7-0.1c-0.1,0-0.2-0.1-0.2-0.2
				c0-0.2,0.1-0.2,0.3-0.2c0.9,0,2.3,0.1,2.4,0.1c0.1,0,1.5-0.1,2.1-0.1c0.2,0,0.3,0.1,0.3,0.2c0,0.1-0.1,0.2-0.2,0.2
				c-0.2,0-0.3,0-0.5,0.1c-0.5,0.1-0.8,0.5-0.8,1.2c-0.1,0.7-0.1,1.3-0.1,2.2v2.4c0,0.9,0,1-0.3,1.2c-1.4,0.7-3.2,0.9-4.5,0.9
				c-1.6,0-4.6-0.2-6.9-2.2c-1.3-1.2-2.5-3.4-2.5-6c0-3.4,1.6-5.8,3.5-6.9c1.9-1.2,4-1.3,5.6-1.3c1.3,0,2.8,0.3,3.2,0.4
				c0.5,0.1,1.2,0.2,1.7,0.2c0.2,0,0.2,0.1,0.2,0.2c0,0.3-0.2,0.9-0.2,3c0,0.3-0.1,0.5-0.2,0.5s-0.2-0.2-0.2-0.3
				c0-0.3-0.2-0.9-0.5-1.4c-0.5-0.8-2.2-1.7-5-1.7c-1.3,0-2.9,0.2-4.5,1.4c-1.2,1-2.1,2.9-2.1,5.4c0,3,1.5,5.1,2.2,5.8
				c1.7,1.6,3.6,2.2,5.5,2.2c0.8,0,1.8-0.2,2.4-0.5c0.3-0.2,0.4-0.4,0.4-0.8v-3.8H426.7z"/>
			<path fill="#FFFFFF" d="M433.8-97.4c0-3.3,0-3.9-0.1-4.5c-0.1-0.7-0.2-1.1-0.9-1.2c-0.2-0.1-0.5-0.1-0.7-0.1
				c-0.1,0-0.2-0.1-0.2-0.2c0-0.2,0.1-0.2,0.3-0.2c0.9,0,2.3,0.1,2.4,0.1c0.2,0,1.8-0.1,2.5-0.1c1.3,0,2.8,0.2,3.8,0.9
				c0.5,0.4,1.5,1.4,1.5,2.8c0,1.5-0.7,3.2-2.5,4.8c1.8,2.2,3.2,4.1,4.4,5.4c1.2,1.2,2.1,1.5,2.6,1.5c0.4,0.1,0.7,0.1,0.8,0.1
				c0.1,0,0.2,0.1,0.2,0.2c0,0.2-0.2,0.2-0.5,0.2h-1.5c-1.2,0-1.7-0.1-2.2-0.4c-0.9-0.5-1.6-1.5-2.8-3.1c-0.9-1.2-1.8-2.6-2.3-3.2
				c-0.1-0.1-0.2-0.2-0.3-0.2l-2.6-0.1c-0.1,0-0.2,0.1-0.2,0.2v0.5c0,2,0,3.7,0.1,4.6c0.1,0.6,0.2,1.1,0.8,1.2
				c0.3,0.1,0.8,0.1,0.9,0.1c0.2,0,0.2,0.1,0.2,0.2c0,0.1-0.1,0.2-0.3,0.2c-1.2,0-2.5-0.1-2.6-0.1c0,0-1.4,0.1-2,0.1
				c-0.2,0-0.3-0.1-0.3-0.2c0-0.1,0.1-0.2,0.2-0.2c0.2,0,0.5-0.1,0.6-0.1c0.5-0.1,0.5-0.5,0.6-1.2c0.1-0.9,0.1-2.5,0.1-4.6v-3.6
				H433.8z M435.5-95.5c0,0.1,0.1,0.2,0.2,0.2c0.3,0.2,1.3,0.3,2.2,0.3c0.5,0,1.1-0.1,1.6-0.4c0.8-0.5,1.3-1.6,1.3-3.2
				c0-2.6-1.4-4.2-3.7-4.2c-0.6,0-1.2,0.1-1.4,0.2c-0.1,0.1-0.2,0.2-0.2,0.2L435.5-95.5L435.5-95.5z"/>
			<path fill="#FFFFFF" d="M451.8-103c0.2-0.7,0.3-0.8,0.5-0.8s0.2,0.1,0.5,0.8c0.3,0.8,3.6,9.5,4.9,12.8c0.8,1.8,1.4,2.2,1.8,2.3
				c0.3,0.1,0.6,0.2,0.8,0.2c0.2,0,0.2,0,0.2,0.2s-0.2,0.2-0.5,0.2c-0.3,0-1.8,0-3.3-0.1c-0.4,0-0.6,0-0.6-0.2
				c0-0.1,0.1-0.2,0.2-0.2c0.2-0.1,0.2-0.2,0.2-0.5l-2-5.2c-0.1-0.1-0.1-0.2-0.2-0.2h-4.5c-0.1,0-0.2,0.1-0.2,0.2l-1.2,3.8
				c-0.2,0.5-0.3,1-0.3,1.4c0,0.5,0.5,0.6,0.8,0.6h0.2c0.2,0,0.2,0.1,0.2,0.2c0,0.2-0.2,0.2-0.3,0.2c-0.5,0-1.4-0.1-1.6-0.1
				s-1.4,0.1-2.4,0.1c-0.3,0-0.4-0.1-0.4-0.2c0-0.1,0.1-0.2,0.2-0.2c0.2,0,0.5,0,0.6-0.1c1-0.2,1.4-0.9,1.8-2L451.8-103z M454-94.5
				c0.1,0,0.1-0.1,0.1-0.2l-2-5.7c-0.1-0.3-0.2-0.3-0.3,0l-1.8,5.7c-0.1,0.1,0,0.2,0.1,0.2H454z"/>
			<path fill="#FFFFFF" d="M462.5-97.4c0-3.3,0-3.9-0.1-4.5c-0.1-0.7-0.2-1.1-0.9-1.2c-0.2-0.1-0.5-0.1-0.7-0.1
				c-0.1,0-0.2-0.1-0.2-0.2c0-0.2,0.1-0.2,0.3-0.2c0.9,0,2.3,0.1,2.4,0.1c0.2,0,1.6-0.1,2.8-0.1c2.1,0,5.9-0.2,8.5,2.4
				c1.1,1.1,2.1,2.8,2.1,5.4c0,2.7-1.1,4.7-2.3,5.9c-0.9,0.9-2.8,2.5-6.4,2.5c-0.9,0-2-0.1-2.9-0.2c-0.9-0.1-1.6-0.2-1.8-0.2
				c-0.1,0-0.4,0-0.8,0c-0.5,0-0.9,0.1-1.2,0.1c-0.2,0-0.3-0.1-0.3-0.2c0-0.1,0.1-0.2,0.2-0.2c0.2,0,0.5-0.1,0.6-0.1
				c0.5-0.1,0.5-0.5,0.6-1.2c0.1-0.9,0.1-2.5,0.1-4.6L462.5-97.4L462.5-97.4z M464.3-95.1c0,2.2,0,4.2,0.1,4.6
				c0,0.5,0.1,1.4,0.2,1.6c0.3,0.4,1.1,0.8,3.6,0.8c2,0,3.8-0.7,5-2c1.1-1.1,1.7-3.1,1.7-5.1c0-2.7-1.2-4.4-2-5.3
				c-2-2.1-4.4-2.4-6.9-2.4c-0.4,0-1.2,0.1-1.4,0.2c-0.2,0.1-0.2,0.2-0.2,0.4c0,0.7,0,2.8,0,4.5L464.3-95.1L464.3-95.1z"/>
			<path fill="#FFFFFF" d="M486.8-103.8c4.8,0,8.3,3,8.3,7.9c0,4.8-3.3,8.6-8.5,8.6c-5.8,0-8.2-4.5-8.2-8.3
				C478.5-98.9,480.9-103.8,486.8-103.8z M487.2-88c1.9,0,5.8-1.1,5.8-7.2c0-5.1-3.1-7.8-6.4-7.8c-3.5,0-6.1,2.3-6.1,6.9
				C480.5-91.2,483.4-88,487.2-88z"/>
		</g>
	</g>
	<g>
		<g>
			<g>
				<path fill="#FFFFFF" d="M255.7-143c-12.2,0-22.1-9.9-22.1-22.1c-0.1-12.2,9.8-22.1,22.1-22.1c12.1,0,22.1,9.9,22.1,22.1
					C277.8-152.9,267.9-143,255.7-143z M255.7-186.3c-11.7,0-21.2,9.5-21.2,21.2c0,11.7,9.5,21.2,21.2,21.2
					c11.7,0.1,21.2-9.5,21.2-21.2C276.9-176.8,267.4-186.3,255.7-186.3z"/>
			</g>
			<g>
				<path fill="#FFFFFF" d="M267-162.6l-0.6-0.2c0.2-0.8,0.2-1.5,0.2-2.3c0-6.1-4.9-11-11-11c-5.4,0-10,3.8-10.8,9.2l-0.6-0.1
					c0.9-5.6,5.8-9.8,11.5-9.8c6.5,0,11.7,5.2,11.7,11.7C267.3-164.3,267.2-163.4,267-162.6z"/>
			</g>
			<g>
				<path fill="#FFFFFF" d="M250.6-154.7c-0.1,0-0.1,0-0.2,0c-0.9-0.5-1.8-1.1-2.5-1.7c-0.2-0.2-0.2-0.3,0-0.5
					c0.2-0.2,0.3-0.2,0.5,0c0.7,0.6,1.5,1.2,2.4,1.6c0.2,0.1,0.2,0.3,0.2,0.5C250.8-154.7,250.7-154.7,250.6-154.7z"/>
			</g>
			<path fill="#FFFFFF" d="M253.8-151.1c-0.5-1.5-0.8-2.7-0.8-4.3c0-1,0.4-2.1,0.2-3.1c1.2,0.3,0.8,1.5,1.8,1.5
				c-0.2-0.2-0.4-0.4-0.5-0.6c0-0.4-0.3-0.7-0.5-0.9l-0.2-0.2c0.6,0,1.4,1.7,1.9,2c0.2,0.2-0.1,0.5,0.5,0.5c0-0.2,0-0.2,0-0.2
				c0-0.2,0.2-0.3,0.1-0.5c0.2,0.1,0.2,0.1,0.2,0.2c0,0.1,0.5,0.6,0.5,0.6c-0.1,0-0.2,0.1-0.2,0.2c0,0.4,1.3,0.8,1.7,0.9
				c0.3,0,0.2-0.2,0.3-0.4c-0.8-0.5-1.8-0.9-2.1-1.7c-0.4-0.2-0.8-0.5-1.2-0.8c-0.4-0.4-0.5-0.8-1.2-1c-0.1,0-0.2,0-0.2-0.1
				c0.1-0.2,0.2-0.2,0.3-0.2s1.7,0.6,1.9,0.7c0.2,0,0.2,0,0.3-0.1c-0.2-0.2-1-0.5-1-0.7l0.2-0.1c0.8,0,1.5,0.5,2.2,0.5
				c0-0.2-0.1-0.3-0.2-0.4c0.2-0.1,0.2-0.1,0.4-0.1c0.4,0,0.8,0.2,1.2,0.3c0.5-0.2,0.9-0.2,1.3-0.2c1.3,0,0.8,0.5,1.5,0.5
				c0.2,0,0.2-0.1,0.2-0.2c0-0.2-0.3-0.6-0.6-0.6c-0.2,0-0.4-0.1-0.5-0.2c-0.2,0-2.1-0.2-2.2-0.2c1.5-0.3,2.2-1.3,3.2-2
				c0.1,0,0.2,0,0.3,0c0.3,0,0.6,0.2,0.9,0.3c0.1,0.2,0.1,0.3,0.1,0.4c0,0.3-0.1,0.6-0.1,0.9c0,0.2,0,0.3,0.1,0.5
				c-0.1,0.1-0.2,0-0.2,0c-0.6,0-0.2,1.9-1.4,1.9l-0.2-0.2c-0.3,0-0.8,0.1-1.1,0.1c-0.1,0-0.3-0.2-0.3-0.2c-0.2,0.1-1.1-0.3-1.3-0.4
				c-0.1,0-0.2,0-0.2,0c-0.2,0-0.2-0.1-0.3-0.1c-0.1,0-0.2,0-0.3,0c1,0.6,2.2,0.9,3.5,0.9c0.8,0,0.8-0.1,1.5-0.4
				c1.1-0.5,0.8-1.7,0.8-2.5c0-0.2,0.1-0.5,0.2-0.8h0.2c0.5,0.4,0.3,1.2,0.9,1.5c0,0.1,0.1,0.2,0.1,0.3c0,0.5-0.6,1.1-0.6,1.7
				c0,0.1,0,0.2,0.1,0.2c0,0,0.3,0,0.3,0.1c0,0.2-0.4,0.5-0.5,0.5l-0.3-0.1c-0.4,0.5-1.2,1.4-1.2,1.9c0,0-0.2,0.2-0.3,0.2
				c-1,0-2.1-0.3-3.1-0.3c-0.1,0-0.2,0-0.2,0c0.5,0.1,1.3,0.3,1.5,0.6c-0.6,0.2-1.2,0.2-1.7,0.2c-0.8,0-1.8,0.2-2.5,0.3
				c0.5-0.3,1.2-0.1,1.5-0.5c-0.2,0-0.4-0.1-0.5-0.1c-0.4,0-0.9,0.1-1.3,0.2c-0.2,0.2-0.4,0.4-0.7,0.4c-0.4-0.3-1-0.6-1-1.1
				c-0.8-0.5-0.2-1.8-0.8-1.8c-0.1,0.7,0,1.2,0,1.8c0,0.1,0,0.3,0.2,0.3c0.1,0,0.2-0.1,0.2-0.1c0,0.1-0.2,0.2-0.2,0.2l0.1,0.2
				c0.5,0.2,0.3,0.5,0.9,0.5c0.3,0,0.2,0.3,0.4,0.3c0.2,0,0.4-0.1,0.6-0.1c-0.2,0.2-0.2,0.2-0.2,0.2c0.3,0.1,0.5,0,0.6,0
				c0.2,0,0.2,0.1,0.3,0.1c0.3,0,0.4-0.2,0.4-0.3l0.3-0.1c0,0.1-0.1,0.2,0,0.2c-0.5,0.2-1.5,0.2-1.9,0.5c-0.2,0.2-0.4,0.9-0.7,0.9
				c0-0.2,0.3-0.2,0.1-0.4c0.1-0.2,0.2-0.3,0.2-0.5c0-0.2-0.5-1.2-0.7-1.2c-0.1,0.5,0.2,0.8,0,1.1c0,0.2,0.3,0,0.4,0.2
				c-0.3,0.3-0.3,0.7-0.5,1c0,0-0.1,0.8,0,0.8C254.3-150.9,253.9-150.8,253.8-151.1 M259.7-158.4v-0.3l1,0.5c0.2,0,0.2,0,0.5,0.1
				c0,0.1,0.2,0.1,0.2,0.2c0,0.1-0.2,0.1-0.2,0.1C260.9-158,259.9-158.3,259.7-158.4 M262.9-156l0.2-0.2C263-156,263-156,262.9-156
				L262.9-156z M261.8-155.1c-0.2,0-0.5-0.1-0.5-0.2c-0.8,0-1.6,0-2.3-0.3c0.6-0.1,1.2-0.2,1.7-0.2c0.5,0,0.8,0.1,1.3,0.2
				c0.1,0.1,0,0.2,0.1,0.3c0,0,0.2,0,0.2,0C262.2-155.1,261.9-155.1,261.8-155.1 M252.6-152.7c-0.1-0.1-0.1-0.2-0.1-0.3
				c0.2-0.1,0.2,0,0.2,0C252.6-152.8,252.6-152.7,252.6-152.7L252.6-152.7z M255.2-151.7c0.1-0.4,0.7-0.5,1-0.8h0.2
				c-0.4,0.3-0.5,0.7-1,0.8C255.5-151.7,255.3-151.7,255.2-151.7 M263.4-158.9l0.2-0.6c0,0.1,0,0.2,0,0.2
				C263.6-159,263.6-158.9,263.4-158.9 M250.6-158.8c0.1-0.2,0.1-0.2,0.1-0.2h0.2l0.2,0.2c0.1,0.2,0,0.2-0.1,0.2l-0.4-0.1
				L250.6-158.8z M250.2-156.9c0.3,0.1,0.5,0.1,0.8,0.1c0.1-0.2-0.2-0.3-0.2-0.4c-0.3-0.1-0.5-0.2-0.8-0.3c-0.1,0-0.2-0.2-0.2-0.2
				c0.2,0,0.7,0.2,0.9,0.2c0.1,0,0.2-0.1,0.2-0.2c0-0.2-1.5-0.4-1.5-0.8c0.6-0.1,1.1,0.2,1.6,0.2c0.3,0,0.6-0.2,1-0.2l0.3,0.2
				c0.2,0.3,0.5,0.6,0.5,0.9v0.2c0,0.2-0.1,0.5-0.2,0.5c-0.4,0-0.7,0.1-0.9,0.1C251.3-156.4,250.2-156.7,250.2-156.9 M247-155.5
				h-0.4c-0.1-0.1-0.5-0.2-0.5-0.4c-1.4-2.3-3-4.4-4.4-6.6c0.9,1.2,1.9,2.3,2.8,3.5c0.5,0.8,0.8,1.7,1.5,2.5
				C246.2-156.1,246.6-155.8,247-155.5 M252-155.8l0.2-0.2h0.2l-0.2,0.2H252z M250.9-153.9c-0.2-0.7-0.5-1.2-0.5-1.9
				c0-0.2,0.2-0.2,0.4-0.2h0.2c0.2,0,0.5,0.1,0.7,0.1v0.2c-0.3,0-0.5-0.1-0.7-0.1c-0.1,0-0.2,0.1-0.3,0.2c0,0.2,0.1,0.2,0.2,0.2
				L250.9-153.9z M253-158.7l-0.5-0.5c0.2-0.2,0.1-0.4,0.1-0.6c0.1,0.1,0.2,0.2,0.2,0.3c0.2,0.2,0.2,0.5,0.3,0.8H253z M254.5-172.2
				l0.1-0.2h0.2C254.6-172.3,254.6-172.3,254.5-172.2L254.5-172.2z M256.5-171.8c-0.2-0.1-0.3,0-0.5-0.1v-0.2c0-0.2,0.1-0.2,0.2-0.3
				h0.2l0.4,0.5H256.5z M255.1-171.3c-0.1,0-0.1-0.2-0.1-0.3c0-0.1,0-0.2,0.1-0.2l0.2-0.1C255.3-171.8,255.3-171.6,255.1-171.3
				L255.1-171.3z M256.8-171c-0.2,0.1-0.2-0.1-0.3-0.1c-0.1,0-0.2,0-0.2,0c-0.1-0.1-0.1-0.3-0.3-0.3c-0.1,0-0.2,0.2-0.3,0.2
				c0.1-0.5,0.1-1,0.1-1.5h-0.2c0,0.1-0.1,0.2-0.1,0.2c-0.3,0-0.4-0.3-0.5-0.4c-0.4,0-0.9,0.2-1.2,0.2c0.5-0.8,1.7-1.4,2.7-1.4
				c0.8,0,1.8,0.3,2.2,1.1c0.2,0.2,0.2,0.5,0.2,0.8c0.1,0.3,0.2,0.6,0.2,0.9c0,0.1,0,0.2,0,0.3c-0.3-0.2-0.5-0.1-0.8-0.1
				s-0.5-0.4-0.8-0.5c0,0-0.2,0.2-0.1,0.2c-0.3-0.2-0.1-0.2-0.4-0.5c-0.2,0.2-0.1,0.3-0.1,0.5s-0.2,0.2-0.2,0.4l0,0V-171z
				 M260.9-170.5c0.2-0.2,0.2-0.2,0.2-0.3c-0.2-0.2-0.2-0.2-0.2-0.2h0.2l0.1,0.2l-0.1,0.2L260.9-170.5z M259.8-170.1v-0.2
				c0.1-0.1,0.2-0.2,0.2-0.2c0.2-0.2,0.3-0.2,0.5-0.3L259.8-170.1z M260.2-169.8c0.2-0.2,0.3-0.3,0.5-0.4l0.2,0.1L260.2-169.8z
				 M257.2-171c0.2,0.1,0.2,0.4,0.2,0.5c0,0.2-0.1,0.8-0.2,0.8c0-0.3,0.1-0.5,0.1-0.8s-0.2-0.3-0.2-0.4
				C257.2-170.9,257.2-171,257.2-171 M259.7-169.3c-0.1-0.1-0.1-0.2-0.1-0.2c0.1-0.1,0.2-0.2,0.2-0.2c0,0.2,0.1,0.2,0.1,0.3
				L259.7-169.3z M256.1-167.3c0.2-0.2,0.4-0.3,0.5-0.5c0.1-0.2,0.2-0.2,0.3-0.4c0-0.1,0.1-0.2,0.1-0.2c0.1,0.2-0.1,0.6-0.2,0.7
				C256.7-167.6,256.2-167.4,256.1-167.3 M246.7-167.6l0.2-0.3h0.2c-0.2,0.2-0.2,0.2-0.2,0.2L246.7-167.6z M250.3-166.2
				c0.8-0.6,1.8-1,2.8-1c0.2,0,1.1,0.1,1.2,0.2c-1.2,0.1-1.9,0.4-2.5,0.6c-0.2,0.1-0.4,0-0.6,0C250.9-166.4,250.7-166.3,250.3-166.2
				 M249.7-166.1c0.1,0,0.3,0,0.4,0.1c0,0.1-0.2,0.1-0.2,0.1c-0.1,0-0.2,0-0.2,0.1s-0.2,0.3-0.4,0.3c-0.2,0.2-0.2,0.2-0.3,0.2
				c-0.1-0.1,0-0.2,0-0.2c0.1-0.2,0.2-0.2,0.4-0.3C249.5-166.1,249.6-166.1,249.7-166.1 M245.7-166.4c0.4-0.4,0.9-0.6,1.3-1
				C246.9-167.2,246-166.5,245.7-166.4 M242.5-164.2l1.7-1.2c0,0.2-0.3,0.3-0.5,0.5C243.6-164.7,242.6-164.1,242.5-164.2 M241.6-163
				v-0.2l0.2-0.2c0.1-0.1,0.7-0.4,0.8-0.4C242.3-163.7,241.7-163.2,241.6-163 M253.5-163l-0.2-0.2c0.2-0.1,0.2-0.1,0.2-0.1
				c0.1,0.2,0.1,0.2,0.1,0.3H253.5z M266.2-161.8c-0.6-0.5-0.5-0.2-1.1-0.2c-0.2,0-0.2-0.4-0.4-0.5c-0.1,0-0.2,0.1-0.2,0.1
				c-0.7,0-1.2-0.6-1.8-0.6c-0.2,0-0.4,0.1-0.6,0.1c-0.6,0-1.2,0.5-1.8,0.5c-0.2,0-0.5-0.2-0.8-0.2c-1,0-1.9,0.5-2.9,0.5
				c-0.4,0-1.2,0.1-1.2-0.4l-1.2-0.8l-0.4-1.2c0.3,0.2,0.6,0.7,0.8,0.7l-0.5-1.6c0.8,0,0.6,1.2,1.3,1.2c0.2,0,0.5-0.2,0.6-0.4
				c-0.5-0.4-0.8-0.2-0.9-0.9h1.6c0.3-0.3,0.8-0.2,1.1-0.2c0.1-0.1,0-0.2,0.1-0.4c0.1-0.1,0.5-0.1,0.6-0.1c0.8,0,0.7-1,2.6-1
				c0.8,0,1.5,0.1,2.3,0.3c0,0.4,0.8,0.5,1,0.6h0.2c0.2,0.1,0.2,0.9,0.5,0.9c0.1,0,0.4-0.2,0.4-0.2c0-0.1-0.3-0.3-0.4-0.5
				c-0.2-0.5-0.3-1.8-1.2-1.8c-0.5,0-1,0.4-1.5,0.4c-0.2,0-0.4-0.1-0.5-0.2l0.1-0.3c-0.2-0.2-0.3-0.2-0.5-0.2
				c-0.2,0-0.5,0.2-0.8,0.1c-1.8,1.2-3.8,2-6,2c-0.2,0-0.3-0.2-0.2-0.4l-0.2-0.1c0.2-0.2,0.5-0.2,0.5-0.5c-0.5,0-0.5-0.3-0.5-0.5
				c0-0.3-0.3-0.1-0.3-0.4c0-0.2,0.4,0,0.4-0.2c0-0.2-0.5,0-0.5,0s-0.2,0-0.2-0.2c0-0.3,0.2-0.1,0.3-0.1c0.1-0.2-0.2-0.6-0.2-0.6
				c-0.1,0,0,0.2,0,0.3c-0.4,0.1-0.4,0.3-0.5,0.3l-0.1-1.3c0.2,0.2,0.4,0.6,0.5,0.6c0.1,0,0.1-0.3,0.2-0.4c0.1-0.1,0.3-0.2,0.3-0.3
				c0-0.5-0.7-0.4-1-0.4c-0.2,0-0.1-0.1-0.1-0.2c0-0.2-0.2-0.5-0.2-0.8c0-0.1,0-0.2,0-0.2c0.2-0.1,0.4-0.1,0.5-0.1
				c0.8,0,0.8,0.6,1.5,0.6c0.3,0,0.2,0.4,0.5,0.5c0.4-0.1,0.2,0.3,0.8,0.2c0.2,0.1,0.1,0.8,0.3,0.9c0.1,0.1,0.3-0.1,0.5-0.1
				c0.1,0.2-0.2,0.2-0.2,0.4c0.5,0.1,0.6-0.4,0.8-0.8l0.2-0.1c0-0.2-0.1-0.4-0.1-0.5c0-0.2,0.2-0.2,0.2-0.4v-0.3
				c0.2-0.1,0.4,0,0.5,0h0.2c0.1,0.2-0.1,0.3-0.1,0.6c0,0.4-0.3,0.2-0.5,0.2c-0.2,0-0.2,0.1-0.2,0.2c0,0.5,0.2,0.4,0.5,0.4
				s0.5,0.5,0.5,0.8c-0.8,0.8-2.2,1.5-3.7,1.8c-0.1,0.3,0.2,0.3,0.2,0.3c0.7,0,2.2-0.8,2.8-1.1l1.8-1c0.6-0.4,1.5-2.1,1.5-2.8
				c0-0.2-0.2-0.2-0.2-0.3c0.2-0.1,0.3-0.2,0.5-0.2c0.1,0,0.2,0,0.3,0.1l0.3,0.8l0.8,0.6c0,0.5-0.8,0.4-0.6,0.9
				c-0.2,0.1-0.3-0.1-0.5-0.1c-0.4,0-4.6,2.9-6.8,3.1c-0.1,0.2,0.1,0.3,0.2,0.3c1.6,0,3.1-1.3,4.5-1.9c0.7-0.3,1.5-0.4,2.2-0.5
				c0-0.1,0.1-0.2,0.1-0.3c0.5-0.2,0.6-0.5,0.9-0.8l0.6,0.6c-0.1,0-1.3,0-1.4,0.3l1.5,0.2c0.1,0.1,0.1,0.2,0.2,0.3
				c0.8,0.5,0.8,1,1.5,1.7c0,1.1,0.1,0.6,0.3,1.2c-0.2,0.2-0.3,0.5-0.3,0.7c0,0.5,0.2,1,0.2,1.5c-0.1-0.1-1-1.8-1.5-1.8
				c-0.2,0-0.2,0.1-0.2,0.2c0,0.4,0.4,0.8,0.8,0.8c0.2,0.8,1,1.3,1.2,2.2H266.2z M258.9-162.7l1.8-1.2c0.1,0.1,0.2,0.1,0.3,0.1
				c0.2-0.2,0.3-0.2,0.4-0.5l-1.9,0.5c-0.1,0.1,0,0.2-0.1,0.3c-0.5,0.2-1.1,0.2-1.5,0.5c0.2,0.1,0.5,0,0.6,0c0.1,0,0.2,0.1,0.2,0.1
				v0.2H258.9z M260.9-164.6c0.1,0,0.2,0,0.2,0c0.2,0,0.4,0,0.5-0.2c0-0.2-0.2-0.1-0.3-0.2v-0.2c-0.1,0-0.2-0.1-0.2-0.1
				c-0.2,0-0.2,0-0.3,0c0,0.3,0.3,0.2,0.3,0.3L260.9-164.6z M258.6-164c0.1,0,0.2-0.1,0.4-0.1c0.5-0.1,1.2,0.1,1.5-0.5
				c0.2-0.1,0.2,0,0.2-0.2c-0.1-0.2-0.2-0.2-0.3-0.2c-0.1,0-0.2,0-0.2,0c-0.6,0.2-1.1,0.4-1.5,0.6V-164z M256.7-164.6
				c0.9-0.2,1.3-0.5,2-0.8l1.8-0.5l-0.1-0.2c-0.3-0.1-0.5-0.2-0.8-0.2h-0.2c0,0.2,0.1,0.2,0.1,0.2l-3.2,1.3
				C256.5-164.6,256.6-164.6,256.7-164.6 M252.4-161.8c0-0.1,0.1-0.2,0.1-0.2v-0.2c0-0.2,0-0.2,0-0.4c0-0.1,0-0.2,0.1-0.2
				c0.1,0.1,0.1-0.1,0.2,0.2c-0.2,0.2-0.1,0.5-0.2,0.6c0,0.1-0.1,0.2-0.1,0.2H252.4z M259.2-161.6c0.1-0.2,0.2-0.2,0.2-0.3
				c0.1-0.1,0.1-0.2,0.2-0.2c0.2-0.1,0.2-0.1,0.2-0.1C259.9-162,259.5-161.7,259.2-161.6L259.2-161.6z M265.8-161.1
				c-0.1,0-0.1-0.1-0.2-0.1l-0.1-0.2v-0.2C265.6-161.5,265.9-161.3,265.8-161.1L265.8-161.1z M254-161.1l0.3-1.5l0.2-0.1l-0.3,1
				c0.1,0,0.2,0.1,0.2,0.1C254.3-161.3,254.2-161.3,254-161.1 M256.9-161l0.2-0.6c0,0.1,0,0.2,0,0.3c0,0.1,0,0.2,0,0.2
				C257-161.1,257-161,256.9-161 M249.9-160.7c0-0.2,0.1-0.2,0.1-0.2C249.9-160.8,249.9-160.8,249.9-160.7L249.9-160.7z
				 M255.2-160.6c0-0.1-0.1-0.2-0.1-0.2v-0.2c0-0.1,0.1-0.2,0.1-0.2l0.5-0.5L255.2-160.6L255.2-160.6z M255.9-160.6
				c0-0.2,0.1-0.5,0.2-0.6C256.2-160.9,256.2-160.7,255.9-160.6L255.9-160.6z M253-160.5v-1.8c0.2,0.1,0.2,0.2,0.2,0.3
				c0,0.2-0.2,0.5-0.2,0.8c0,0.2,0.1,0.3,0.2,0.4C253.2-160.7,253.2-160.5,253-160.5L253-160.5z M253.7-160c0-0.1-0.1-0.2-0.1-0.3
				c0-0.3,0.1-0.5,0.2-0.6L253.7-160L253.7-160z M258.1-159.9c0-0.4,0.5-0.6,0.7-0.7c0.2-0.5,0.6-0.6,1-0.9c0.2-0.2,0.4-0.4,0.5-0.5
				c0.2,0,0.6,0,0.8,0c-0.4,0.5-0.8,1.3-1.5,1.5l0.2-0.5c-0.6-0.1-0.8,0.8-1.2,1C258.6-160,258.3-159.9,258.1-159.9L258.1-159.9z
				 M242.2-162.6c2.2,2.1,3.1,4.1,4.7,6.4c-1.2-1.3-1.9-2.9-2.9-4.4C243.4-161.3,242.7-161.9,242.2-162.6L242.2-162.6z M254.5-159.4
				l-0.2-0.1l0.3-1.2L254.5-159.4z M266-159.2l-0.1-1.2c0.1,0.2,0.2,0.5,0.2,0.7v0.3C266.2-159.3,266.1-159.3,266-159.2L266-159.2z
				 M252.1-158.8c-0.7-0.3-1-0.5-1-1.4c0-0.6,0.3-1.3,0.5-1.8l-0.1-0.2h-0.2l-0.4,0.8l-0.5-0.4c-0.1-0.2,0-0.5-0.2-0.8
				c-0.2-0.3-0.4-0.1-0.6-0.6c-0.2-0.3-0.2-0.8-0.2-0.9c-0.2-0.4-0.4-0.5-0.7-0.8c0-0.2,0-0.3,0.2-0.2l0.4,0.1
				c0.2,0.1,0.7,0.7,0.9,0.7c0-0.2-0.1-0.2-0.1-0.3c0.3,0,0.3-0.2,0.4-0.2c0.1,0,0.3,0,0.3-0.1c0-0.2-0.3,0.1-0.3-0.5
				c0-0.1,0-0.2,0.1-0.3c0.2,0.2,0.5,0.3,0.5,0.6c0,0.7-0.2,1.5-0.2,2.2c0,0,0.5,0.5,0.5,0.5c0.2,0,0.2-0.5,0.2-0.8
				c0.3,0.3,0.3,0.5,0.3,1c0,0.1-0.1,0.8-0.1,0.8c0,0.1-0.2,0.2-0.2,0.2c0.1,0.6,0.1,1.2,0.1,1.8c0,0.2,0.3,0.5,0.4,0.6L252.1-158.8
				z M247.6-164.4c0.2-0.2,0.5-0.2,0.8-0.2c0.1,0,0.2-0.2,0.3-0.2c0.1,0,0.2,0.5,0.2,0.5c-0.1,0.2-0.1,0.3-0.1,0.5
				c0,0.5,0.3,1.9,0.9,1.9c0.2,0,0.2,0.3,0.2,0.4c0,0.3-0.5,0.7-0.5,1c0,0.1,0,0.2,0.1,0.3c0.2,0,0.2,0.3,0.2,0.5
				c0.1,0.1,0.2,0.1,0.3,0.2c-0.7,0.3-1,0.7-1,1.5c0,0.2,0.1,0.5,0.2,0.8c-0.6,0.4-0.9,1.2-1.6,1.5c-1.5-1.8-2.3-3.8-3.5-5.8
				c-0.4-0.6-1.1-0.9-1.3-1.5c0.7-1.2,2.8-0.8,2.8-2.5c1,1.3,3,4.4,3.5,5.9l0.5,0.2c-0.4-0.9-1.1-1.8-1.5-2.6
				c-0.8-1.2-1.4-2.5-2.2-3.7c1.3-0.5,1.6-0.6,1.7-2c0.6,0.2,0.8,1.2,1.2,1.5l0.1,1.2C248.6-165.2,247.8-164.6,247.6-164.4
				 M247.3-164.2c0.1,0,0.2-0.1,0.3-0.1c0.1-0.2-0.1-0.3-0.1-0.3c-0.1,0.1-0.2,0.2-0.2,0.2L247.3-164.2z M248.3-166l-0.2-0.1
				c0,0-0.3,0.2-0.3,0.2c-0.1,0-0.2,0.3-0.2,0.4c-0.2,0.2-0.2,0.2-0.2,0.2c-0.2-0.1-0.4,0.2-0.5,0.2c-0.1,0.2-0.1,0.3,0.1,0.4
				c0.1-0.1,0.2-0.2,0.3-0.2l0.2-0.2c0.1,0,0.3-0.2,0.3-0.3s0.2-0.2,0.2-0.2c0.1,0,0.2-0.2,0.2-0.2C248.3-165.8,248.3-166,248.3-166
				 M248.9-159c0.1,0,0.2-0.2,0.2-0.2c0-0.2-0.2-0.2-0.2-0.2c-0.1,0-0.4,0.4-0.5,0.4c-0.1,0.1-0.1,0.2-0.1,0.2c0,0.2,0,0.2,0,0.2
				C248.6-158.7,248.6-159,248.9-159L248.9-159z M246.9-157.7c-0.1,0.2,0,0.2,0,0.2c0.3-0.1,0.7-0.5,0.7-0.5
				c0.1-0.1,0.2-0.2,0.3-0.4c0-0.2,0-0.2,0-0.2h-0.2c-0.2,0-0.5,0.5-0.5,0.5C247.2-158.1,247-157.9,246.9-157.7 M247.3-158.9h-0.2
				c-0.1,0-0.2,0.1-0.3,0.2h-0.2c-0.1,0.1-0.2,0.2-0.2,0.3l0.1,0.2c0.2,0,0.5-0.3,0.5-0.4C247-158.6,247.3-158.7,247.3-158.9
				L247.3-158.9z M247.4-159l0.4-0.2c0.1-0.1,0.2-0.2,0.2-0.2l0.5-0.5c0.1,0,0.2-0.2,0.2-0.2c-0.2-0.1-0.5,0-0.5,0s-0.2,0.3-0.3,0.3
				c-0.2,0.1-0.2,0.2-0.5,0.2c0,0-0.2,0.2-0.2,0.3L247.4-159z M246.2-158.9c0.2,0.1,0.5-0.2,0.5-0.2c0.2,0,0.7-0.6,0.6-0.7
				c-0.1-0.1-0.1-0.2-0.2-0.2c-0.1,0-0.2,0.2-0.2,0.3l-0.3,0.2C246.3-159.3,246.2-159.2,246.2-158.9L246.2-158.9z M247-160.6
				c-0.2,0-0.5,0.2-0.6,0.3s-0.2,0.2-0.2,0.3c-0.2,0.1-0.4,0.2-0.5,0.2c-0.1,0.1-0.1,0.2,0,0.2l0.4-0.1c0.2,0,0.2-0.4,0.5-0.5
				c0-0.1,0.3-0.3,0.5-0.4C247.1-160.5,247.1-160.5,247-160.6L247-160.6z M248.3-160.6c-0.2-0.2-0.2-0.1-0.2-0.1
				c-0.2,0.1-0.3,0.2-0.5,0.2c0,0.2,0,0.2,0,0.2c-0.1,0.1-0.1,0.2,0,0.2c0.2,0,0.5-0.2,0.6-0.2c0.1-0.1,0.2-0.2,0.2-0.2L248.3-160.6
				z M245.4-160.3c0.1,0.2,0.1,0.2,0.2,0.2c0.2-0.2,0.2-0.2,0.4-0.3c0.2-0.1,0.2-0.2,0.4-0.3c0.1-0.1,0.2-0.2,0.2-0.2
				c0-0.2,0-0.2,0-0.2c-0.1-0.1-0.1-0.1-0.2-0.1c-0.2,0-0.2,0.1-0.3,0.2l-0.2,0.4C245.7-160.3,245.6-160.3,245.4-160.3L245.4-160.3z
				 M247.2-161c0.1,0.2,0.1,0.3,0.2,0.3s0.1-0.2,0.2-0.3c0.2-0.2,0.4-0.3,0.4-0.4c0-0.2-0.2-0.2-0.2-0.2c-0.1,0.1-0.2,0.2-0.3,0.2
				c-0.1,0.1-0.2,0.1-0.2,0.2L247.2-161z M246.9-161.3c0.2-0.1,0.2-0.2,0.3-0.2c0.1-0.1,0.2-0.2,0.3-0.2c0.1-0.1,0.2-0.2,0.2-0.2
				c-0.1-0.1-0.1-0.2-0.2-0.2c-0.1,0-0.4,0.2-0.4,0.3c-0.1,0.1-0.2,0.2-0.2,0.2C246.8-161.4,246.9-161.3,246.9-161.3 M245.8-161.4
				c-0.2-0.1-0.2,0-0.2,0c-0.2,0.2-0.5,0.5-0.5,0.5c-0.1,0.1-0.1,0.2,0,0.2c0.2,0.1,0.5-0.2,0.7-0.5
				C245.8-161.3,245.8-161.3,245.8-161.4L245.8-161.4z M246-161.5c0-0.1,0.2-0.1,0.2-0.1c0.3,0,0.2-0.5,0.5-0.5
				c0.1-0.1,0.2-0.2,0.2-0.2c0.2,0,0.2-0.2,0.3-0.2l-0.1-0.2c-0.2-0.1-0.2,0-0.2,0l-0.2,0.1c0,0-0.2,0.2-0.2,0.3
				c-0.1,0.1-0.2,0.2-0.2,0.2c-0.2,0.1-0.2,0.2-0.2,0.2l-0.2,0.2C245.8-161.6,245.9-161.4,246-161.5L246-161.5z M245-162.5
				c-0.1-0.2-0.2-0.1-0.2-0.1c-0.2,0.2-0.3,0-0.5,0.3c-0.2,0.2-0.2,0.3-0.2,0.3c0.2,0.1,0.2,0,0.2,0c0.2-0.2,0.2-0.2,0.3-0.3
				C244.8-162.3,244.9-162.4,245-162.5L245-162.5z M246.9-163.1c-0.1-0.2-0.1-0.2-0.2-0.2c-0.1,0-0.2,0-0.2,0.1
				c-0.1,0.2-0.4,0.2-0.4,0.3l-0.1,0.2l0.1,0.2c0.1,0,0.2-0.1,0.2-0.2c0.2-0.1,0.2-0.2,0.2-0.2c0.2,0,0.2-0.2,0.2-0.2H246.9z
				 M244.7-161.2c0.2-0.2,0.2-0.2,0.2-0.3c0.1-0.1,0.4-0.2,0.4-0.2c0.2-0.1,0.2-0.3,0.2-0.3c0.1-0.2,0-0.3-0.1-0.3
				c-0.2,0.1-0.3,0.4-0.3,0.4c-0.1,0.2-0.4,0.1-0.5,0.3s-0.2,0.2-0.2,0.3C244.6-161.3,244.6-161.2,244.7-161.2 M245.3-162.6
				c0.1,0,0.1-0.2,0.2-0.2c0.2-0.2,0.4-0.2,0.4-0.3l0.5-0.5l0.2-0.2l-0.2-0.2c-0.2,0.1-0.2,0.2-0.2,0.2c-0.1,0-0.2,0.2-0.2,0.3
				c-0.2,0.2-0.4,0.4-0.5,0.4c0,0-0.2,0.2-0.3,0.2c-0.1,0.2,0,0.2,0,0.2C245.2-162.7,245.2-162.6,245.3-162.6 M246-164.6
				c-0.1,0.1-0.5,0.4-0.5,0.4l-0.2,0.2c-0.1,0-0.3,0-0.4,0.2c0,0.2,0,0.2,0,0.2l0.1,0.2c0.2-0.2,0.4-0.3,0.5-0.3
				c0.2-0.1,0.3-0.3,0.3-0.3c0.1-0.1,0.2-0.1,0.3-0.3C246.1-164.5,246-164.6,246-164.6L246-164.6z M243.9-162.5l0.3-0.2
				c0.1-0.1,0.5-0.3,0.5-0.4c0.1-0.2,0.2-0.1,0.2-0.2l-0.1-0.2c-0.1,0-0.5,0-0.5,0.2c-0.2,0.2-0.2,0.2-0.3,0.3l-0.2,0.2
				C243.7-162.6,243.8-162.5,243.9-162.5"/>
			<path fill="#FFFFFF" d="M241.5-154.3L241.5-154.3l-0.8,0.2l-1.2-1.9l0.1-0.1l0.1,0.1c0.1,0.1,0.2,0.2,0.2,0.2s0.2-0.1,0.3-0.2
				l1.6-0.9c0.2-0.1,0.2-0.2,0.2-0.2c0-0.1,0-0.2-0.1-0.2l-0.1-0.1l0.1-0.1l0.7,1.1l-0.1,0.1c-0.1-0.2-0.2-0.2-0.2-0.2
				c-0.1,0-0.1-0.1-0.2-0.1c-0.1,0-0.2,0.1-0.3,0.2l-1.5,0.9c-0.1,0.1-0.2,0.1-0.2,0.2v0.1c0,0,0.1,0.2,0.2,0.3l0.1,0.2
				c0.1,0.2,0.2,0.3,0.3,0.4s0.2,0.1,0.3,0.2C241.2-154.3,241.3-154.3,241.5-154.3"/>
			<path fill="#FFFFFF" d="M244.6-153.8L244.6-153.8l0.8,0.7l-0.1,0.1l-0.1-0.1c-0.1-0.1-0.2-0.2-0.3-0.1c-0.1,0-0.2,0.1-0.2,0.2
				l-0.8,0.8c-0.2,0.2-0.4,0.3-0.5,0.4c-0.2,0.1-0.3,0.1-0.5,0s-0.4-0.2-0.6-0.4s-0.3-0.5-0.4-0.6c0-0.2,0-0.4,0.1-0.5
				c0.1-0.2,0.2-0.3,0.5-0.5l0.8-0.8c0.2-0.2,0.2-0.2,0.2-0.3c0-0.1,0-0.2-0.1-0.2l-0.1-0.1l0.1-0.1l0.8,0.9l-0.1,0.1l-0.1-0.1
				c-0.1-0.1-0.2-0.2-0.2-0.1c-0.1,0-0.2,0.1-0.3,0.2l-0.9,0.8c-0.1,0.1-0.2,0.2-0.2,0.3c-0.1,0.1-0.2,0.2-0.2,0.3
				c0,0.1,0,0.2,0,0.3c0,0.1,0.1,0.2,0.2,0.3c0.2,0.2,0.2,0.2,0.5,0.3c0.2,0.1,0.3,0.1,0.5,0s0.3-0.2,0.5-0.4l0.8-0.8
				c0.2-0.2,0.2-0.2,0.2-0.3s0-0.2-0.1-0.2L244.6-153.8z"/>
			<path fill="#FFFFFF" d="M245.6-151.1l-0.1,1.1c0,0.3,0,0.5,0,0.6c0,0.1,0.1,0.2,0.2,0.3l-0.1,0.1l-1-0.8l0.1-0.1
				c0.1,0.1,0.2,0.1,0.2,0.1h0.1c0,0,0.1,0,0.1-0.1c0,0,0-0.1,0.1-0.1c0,0,0-0.1,0-0.2l0.1-0.8l-0.9,0.2c-0.1,0-0.2,0.1-0.2,0.1
				s-0.1,0-0.1,0.1c0,0,0,0.1,0,0.2c0,0.1,0.1,0.1,0.2,0.2l-0.1,0.1l-0.8-0.6l0.1-0.1c0.1,0,0.2,0.1,0.2,0.1c0.1,0,0.2,0,0.3,0
				c0.1,0,0.2,0,0.4-0.1l1.1-0.3l0.1-1c0-0.3,0-0.5-0.1-0.6c-0.1-0.2-0.2-0.2-0.2-0.3l0.1-0.1l1.1,0.8l-0.1,0.1
				c-0.1-0.1-0.2-0.1-0.2-0.1c-0.1,0-0.1,0-0.1,0.1c0,0.1-0.1,0.2-0.1,0.2l-0.1,0.8l0.8-0.2c0.1,0,0.2-0.1,0.2-0.1s0.1,0,0.1-0.1
				v-0.1v-0.1c0,0-0.1-0.1-0.2-0.2l0.1-0.1l0.8,0.6l-0.1,0.1c-0.1-0.1-0.2-0.1-0.2-0.1c-0.1,0-0.2,0-0.2,0c-0.1,0-0.2,0-0.4,0.1
				L245.6-151.1z"/>
			<path fill="#FFFFFF" d="M249.6-150.1l-0.4,1.1l0.6,0.2c0.2,0.1,0.2,0.1,0.3,0.1c0.1,0,0.2-0.2,0.2-0.3h0.1l-0.4,0.9H250
				c0-0.2,0.1-0.2,0.1-0.3c0-0.1,0-0.1-0.1-0.2c-0.1-0.1-0.2-0.1-0.2-0.2l-0.6-0.2l-0.3,0.8c-0.1,0.2-0.1,0.2-0.1,0.2v0.1
				c0,0,0.1,0.1,0.2,0.1l0.5,0.2c0.2,0.1,0.2,0.1,0.3,0.1c0.1,0,0.2,0,0.2-0.1c0.1-0.1,0.2-0.2,0.4-0.3h0.1l-0.5,0.6l-2.1-0.8v-0.1
				h0.1c0.1,0,0.2,0,0.2,0s0.1,0,0.2-0.1c0,0,0.1-0.2,0.2-0.2l0.7-1.8c0.1-0.2,0.1-0.3,0.1-0.3c0-0.1-0.1-0.2-0.2-0.2h-0.1v-0.1
				l2.1,0.8l-0.2,0.8h-0.1c0-0.2,0-0.2,0-0.3c0-0.1-0.1-0.2-0.1-0.2c-0.1-0.1-0.2-0.1-0.2-0.2L249.6-150.1z"/>
			<path fill="#FFFFFF" d="M253.6-149.2l-0.1,0.7h-0.1c0-0.2,0-0.2,0-0.2c0-0.1-0.1-0.2-0.2-0.2c-0.1-0.1-0.2-0.1-0.3-0.1l-0.4-0.1
				l-0.4,2.2c0,0.2,0,0.3,0,0.3c0.1,0.1,0.2,0.1,0.2,0.2h0.1v0.1l-1.2-0.2v-0.1h0.1c0.2,0,0.2,0,0.3-0.1c0,0,0.1-0.2,0.1-0.3
				l0.4-2.2l-0.3-0.1c-0.2,0-0.2,0-0.3,0c-0.1,0-0.2,0.1-0.2,0.1c-0.1,0.1-0.2,0.2-0.2,0.3H251l0.2-0.7L253.6-149.2z"/>
			<path fill="#FFFFFF" d="M258-149.4L258-149.4c-0.1,0.1-0.2,0.2-0.2,0.2c-0.1,0.1-0.2,0.2-0.2,0.3l-0.8,2.5h-0.1l-1.3-2.4
				c0-0.1-0.1-0.2-0.1-0.2c-0.1-0.1-0.1-0.1-0.2-0.1s-0.2,0-0.2,0v-0.1l1.2-0.1v0.1c-0.2,0-0.2,0.1-0.2,0.1s-0.1,0.1-0.1,0.2
				s0.1,0.2,0.2,0.3l0.8,1.6l0.5-1.7c0.1-0.2,0.1-0.3,0.1-0.4c0-0.1,0-0.1-0.1-0.1s-0.2-0.1-0.2-0.1l0,0v-0.1L258-149.4z"/>
			<path fill="#FFFFFF" d="M258.9-149.4l0.3,1.1l0.6-0.2c0.2-0.1,0.2-0.1,0.3-0.2c0.1-0.1,0.1-0.2,0-0.4h0.1l0.2,1h-0.1
				c-0.1-0.2-0.1-0.2-0.2-0.2c0-0.1-0.1-0.1-0.2-0.1s-0.2,0-0.2,0l-0.5,0.2l0.2,0.9c0,0.2,0.1,0.2,0.1,0.2l0.1,0.1c0,0,0.1,0,0.2,0
				l0.5-0.2c0.2-0.1,0.2-0.1,0.3-0.2c0.1-0.1,0.2-0.1,0.2-0.2c0.1-0.1,0.1-0.2,0.2-0.5h0.1l-0.1,0.8l-2.2,0.5v-0.1h0.1
				c0.1,0,0.2-0.1,0.2-0.1s0.1-0.1,0.1-0.2c0-0.1,0-0.2-0.1-0.3l-0.5-1.8c-0.1-0.2-0.1-0.3-0.2-0.3c-0.1-0.1-0.2-0.1-0.2,0H258v-0.1
				l2.2-0.5l0.2,0.6h-0.1c-0.1-0.2-0.2-0.2-0.2-0.3c-0.1-0.1-0.1-0.1-0.2-0.1s-0.2,0-0.3,0.1L258.9-149.4z"/>
			<path fill="#FFFFFF" d="M264.2-148.6l-0.7,0.3l-1.5-0.8c-0.1,0-0.2,0.1-0.2,0.1s0,0-0.1,0h-0.1l0.4,0.8c0.1,0.2,0.2,0.2,0.2,0.3
				c0.1,0,0.2,0,0.2,0l0.1-0.1v0.1l-1.2,0.5v-0.1l0.1-0.1c0.1-0.1,0.2-0.2,0.2-0.2c0-0.1,0-0.2-0.1-0.3l-0.8-1.7
				c-0.1-0.2-0.2-0.2-0.2-0.3c-0.1,0-0.2,0-0.2,0l-0.1,0.1v-0.1l0.9-0.5c0.3-0.2,0.5-0.2,0.6-0.2s0.3,0,0.5,0.1
				c0.2,0.1,0.2,0.2,0.3,0.3c0.1,0.2,0.1,0.3,0,0.5c-0.1,0.2-0.2,0.3-0.4,0.5l0.9,0.5c0.2,0.1,0.4,0.2,0.5,0.2
				C263.9-148.6,264.1-148.6,264.2-148.6L264.2-148.6z M261.8-149C261.8-149,261.9-149,261.8-149C261.9-149,261.9-149.1,261.8-149
				c0.3-0.2,0.5-0.3,0.5-0.5c0.1-0.2,0.1-0.3,0-0.5c-0.1-0.2-0.2-0.3-0.3-0.3c-0.2-0.1-0.3-0.1-0.5,0c-0.1,0-0.2,0.1-0.3,0.2
				L261.8-149z"/>
			<path fill="#FFFFFF" d="M265.5-149.5L265.5-149.5l-1,0.8l-0.1-0.1l0.1-0.1c0.1-0.1,0.2-0.2,0.2-0.2c0-0.1-0.1-0.2-0.2-0.3l-1-1.5
				c-0.1-0.2-0.2-0.2-0.2-0.2s-0.1,0-0.2,0c-0.1,0-0.2,0-0.2,0.1l-0.1,0.1l-0.1-0.1l1-0.7l0.1,0.1l-0.1,0.1
				c-0.1,0.1-0.2,0.2-0.2,0.2c0,0.1,0.1,0.2,0.2,0.3l1,1.5c0.1,0.2,0.2,0.2,0.2,0.2s0.1,0,0.2,0c0.1,0,0.2,0,0.2-0.1L265.5-149.5z"
				/>
			<path fill="#FFFFFF" d="M266-153.5l0.5,0.5l-0.1,0.1c-0.1-0.1-0.2-0.2-0.2-0.2c-0.1,0-0.2-0.1-0.2,0c-0.1,0-0.2,0.1-0.2,0.2
				l-0.3,0.2l1.4,1.7c0.1,0.2,0.2,0.2,0.2,0.2c0.1,0,0.2,0,0.2-0.1l0.1-0.1l0.1,0.1l-0.9,0.8l-0.1-0.2l0.1-0.1
				c0.1-0.1,0.2-0.2,0.2-0.2s-0.1-0.2-0.2-0.2l-1.4-1.7l-0.2,0.2c-0.1,0.1-0.2,0.2-0.2,0.2c-0.1,0.1-0.1,0.2-0.1,0.2
				s0.1,0.2,0.2,0.3h-0.1l-0.4-0.5L266-153.5z"/>
			<path fill="#FFFFFF" d="M268.5-153.4l-0.8,0.8l0.2,0.5c0.1,0.1,0.1,0.2,0.2,0.2c0,0,0.1,0,0.2,0c0.1,0,0.2-0.1,0.2-0.2l0.1,0.1
				l-0.6,0.7l-0.1-0.1c0.1-0.1,0.1-0.2,0.1-0.2s-0.1-0.2-0.2-0.5l-1.2-2.3l0.1-0.1l2.5,0.8c0.2,0.1,0.3,0.1,0.5,0.1
				c0.1,0,0.2-0.1,0.2-0.2l0.1,0.1l-0.7,0.8l-0.1-0.1c0.1-0.1,0.1-0.2,0.1-0.2s0-0.1-0.1-0.2c-0.1-0.1-0.2-0.1-0.3-0.2L268.5-153.4z
				 M268.2-153.5l-1.2-0.4l0.5,1.2L268.2-153.5z"/>
			<path fill="#FFFFFF" d="M268.5-157l0.8,0.5l-0.1,0.1c-0.2-0.1-0.3-0.2-0.5-0.2c-0.2,0-0.2,0-0.4,0.1c-0.2,0.1-0.2,0.2-0.3,0.2
				c-0.1,0.2-0.1,0.2-0.1,0.4c0,0.2,0.1,0.2,0.2,0.3c0.1,0.1,0.2,0.1,0.2,0.1c0.2,0,0.4-0.2,0.7-0.3c0.2-0.2,0.5-0.2,0.5-0.3
				c0.2-0.1,0.2-0.1,0.4-0.1s0.2,0.1,0.3,0.1c0.2,0.1,0.3,0.3,0.3,0.5c0.1,0.2,0,0.5-0.2,0.7c-0.1,0.1-0.1,0.2-0.2,0.2
				c0,0-0.1,0.1-0.2,0.2c-0.1,0.1-0.2,0.2-0.2,0.2v0.1c0,0,0,0.1,0.1,0.1l-0.1,0.1l-0.6-0.3l0.1-0.1c0.2,0.1,0.4,0.2,0.5,0.2
				c0.2,0,0.2,0,0.4-0.1c0.2-0.1,0.2-0.2,0.3-0.3c0.1-0.2,0.2-0.3,0.1-0.5c0-0.2-0.1-0.2-0.2-0.3c-0.1,0-0.2-0.1-0.2-0.1
				c-0.1,0-0.2,0-0.2,0.1c-0.1,0-0.2,0.1-0.5,0.2s-0.5,0.2-0.5,0.3c-0.2,0.1-0.2,0.1-0.4,0.1c-0.1,0-0.2-0.1-0.3-0.1
				c-0.2-0.1-0.3-0.3-0.3-0.5c-0.1-0.2,0-0.5,0.2-0.6c0.1-0.2,0.2-0.2,0.4-0.4c0.1-0.1,0.2-0.1,0.2-0.1v-0.1
				C268.5-156.8,268.5-156.8,268.5-157L268.5-157z"/>
			<path fill="#FFFFFF" d="M236-165.1c0,10.9,8.8,19.8,19.8,19.8c10.9,0,19.8-8.8,19.8-19.8c0-10.9-8.8-19.8-19.8-19.8
				C244.8-184.9,236-176,236-165.1 M235.6-165.1c0-11.1,9-20.1,20.1-20.1c11.1,0,20.1,9,20.1,20.1c0,11.1-9,20.2-20.1,20.2
				C244.6-144.9,235.6-154,235.6-165.1"/>
			<path fill="#FFFFFF" d="M237.5-167.4l1.5,0.2v0.2c-0.3,0-0.5,0.1-0.7,0.2c-0.2,0.1-0.3,0.2-0.5,0.4c-0.2,0.2-0.2,0.4-0.2,0.5
				c0,0.2,0,0.4,0.2,0.6c0.2,0.2,0.3,0.2,0.5,0.2s0.2,0,0.4-0.1c0.2-0.2,0.4-0.4,0.8-0.9c0.2-0.4,0.5-0.7,0.6-0.8
				c0.2-0.2,0.3-0.2,0.5-0.3c0.2-0.1,0.3-0.1,0.5-0.1c0.3,0,0.6,0.2,0.8,0.5c0.2,0.3,0.3,0.6,0.3,1c0,0.2,0,0.2-0.1,0.4
				c0,0.1-0.1,0.2-0.2,0.4c-0.1,0.2-0.2,0.3-0.2,0.4c0,0.1,0,0.1,0.1,0.2c0,0,0.1,0.1,0.2,0.1v0.2l-1.5-0.2v-0.2
				c0.3,0,0.5-0.1,0.8-0.2c0.2-0.1,0.3-0.2,0.5-0.4c0.2-0.2,0.2-0.4,0.2-0.6c0-0.3,0-0.5-0.2-0.7c-0.2-0.2-0.3-0.2-0.5-0.3
				c-0.1,0-0.2,0-0.3,0.1c-0.1,0.1-0.2,0.2-0.3,0.2c-0.1,0.1-0.2,0.3-0.5,0.7c-0.2,0.4-0.5,0.6-0.6,0.8s-0.3,0.2-0.5,0.3
				c-0.2,0.1-0.3,0.1-0.5,0.1c-0.3,0-0.6-0.2-0.8-0.5c-0.2-0.2-0.3-0.6-0.2-0.9c0-0.2,0.1-0.5,0.2-0.8c0.1-0.2,0.1-0.2,0.1-0.2
				c0-0.1,0-0.1,0-0.2c0-0.1-0.1-0.1-0.2-0.1L237.5-167.4z"/>
			<path fill="#FFFFFF" d="M241.7-170.9l-0.6,1.6l0.5,0.5c0.2,0.2,0.2,0.2,0.3,0.2c0.1,0,0.2,0,0.2,0c0.1-0.1,0.2-0.2,0.2-0.4
				l0.1,0.1l-0.5,1.3l-0.1-0.1c0.1-0.2,0.1-0.3,0-0.4c-0.1-0.2-0.2-0.3-0.5-0.6l-2.8-2.8l0.1-0.1l4-0.1c0.3,0,0.5,0,0.7-0.1
				c0.2-0.1,0.2-0.2,0.3-0.3l0.1,0.1l-0.7,1.6l-0.1-0.1c0.1-0.2,0.1-0.3,0.1-0.4c0-0.1-0.1-0.2-0.2-0.2c-0.1,0-0.2-0.1-0.5-0.1
				L241.7-170.9z M241.4-170.9h-1.9l1.4,1.4L241.4-170.9z"/>
			<path fill="#FFFFFF" d="M240.3-174.8l0.8-0.9l4.3,0.2l-1.8-1.7c-0.2-0.2-0.4-0.3-0.5-0.3c-0.2,0-0.2,0.1-0.4,0.2l-0.1,0.1
				l-0.1,0.1l1-1.2l0.1,0.1l-0.1,0.2c-0.2,0.2-0.2,0.3-0.2,0.4s0.2,0.2,0.3,0.4l2.8,2.5l-0.1,0.1l-4.6-0.2l2,1.8
				c0.2,0.2,0.4,0.3,0.5,0.3c0.2,0,0.2-0.1,0.4-0.2l0.1-0.2l0.1,0.1l-1,1.2l-0.1-0.1l0.1-0.1c0.2-0.2,0.2-0.3,0.2-0.4
				c0-0.1-0.2-0.2-0.3-0.4l-2.3-2.1c-0.2,0-0.3,0-0.4,0s-0.2,0.1-0.3,0.2c-0.1,0-0.2,0.1-0.2,0.2L240.3-174.8z"/>
			<path fill="#FFFFFF" d="M247.7-181.1l0.6,0.8l-0.1,0.1c-0.2-0.2-0.2-0.2-0.3-0.3c-0.2-0.1-0.2-0.1-0.4-0.1s-0.2,0.1-0.5,0.2
				l-0.5,0.3l1.8,2.9c0.2,0.2,0.2,0.4,0.3,0.4c0.2,0,0.2,0,0.4-0.1l0.2-0.1l0.1,0.1l-1.6,1l-0.1-0.1l0.2-0.1
				c0.2-0.1,0.2-0.2,0.2-0.4c0-0.1-0.1-0.2-0.2-0.5l-1.8-2.9l-0.5,0.3c-0.2,0.1-0.3,0.2-0.4,0.2c-0.1,0.1-0.2,0.2-0.2,0.4
				c0,0.2,0,0.3,0.2,0.5l-0.1,0.1l-0.5-0.9L247.7-181.1z"/>
			<path fill="#FFFFFF" d="M251.3-182.3c0.5-0.2,1.1-0.1,1.6,0.3c0.5,0.3,0.8,0.8,1,1.5s0.1,1.2-0.2,1.8c-0.3,0.5-0.8,0.8-1.3,1
				c-0.6,0.2-1.2,0.1-1.7-0.2c-0.5-0.3-0.8-0.8-1-1.5c-0.2-0.7-0.1-1.3,0.3-1.8C250.3-181.9,250.6-182.2,251.3-182.3 M251.3-182.1
				c-0.4,0.1-0.7,0.3-0.8,0.7c-0.2,0.5-0.2,1-0.1,1.7s0.5,1.2,0.8,1.5c0.3,0.2,0.6,0.3,1,0.2c0.4-0.1,0.7-0.3,0.8-0.7
				c0.2-0.4,0.2-0.9,0-1.6c-0.2-0.8-0.5-1.2-0.8-1.5C252-182.2,251.6-182.2,251.3-182.1"/>
			<path fill="#FFFFFF" d="M260.1-182.2l-0.1,1.1h-0.2c0-0.2,0-0.3,0-0.4c-0.1-0.2-0.2-0.2-0.2-0.3c-0.1-0.1-0.2-0.2-0.4-0.2
				l-0.6-0.1l-0.5,3.4c-0.1,0.3-0.1,0.5,0,0.5s0.2,0.2,0.4,0.2h0.2v0.2l-1.8-0.3v-0.2h0.2c0.2,0,0.3,0,0.4-0.1
				c0.1-0.1,0.1-0.2,0.2-0.5l0.5-3.4l-0.5-0.1c-0.2,0-0.4-0.1-0.5,0c-0.2,0-0.2,0.1-0.3,0.2c-0.1,0.1-0.2,0.2-0.2,0.5h-0.2l0.2-1
				L260.1-182.2z"/>
			<path fill="#FFFFFF" d="M263.8-180.8c0.5,0.3,0.8,0.7,1,1.3s0.1,1.2-0.2,1.8s-0.8,1-1.4,1.2c-0.5,0.2-1.1,0.2-1.6-0.2
				c-0.5-0.3-0.9-0.7-1.1-1.3s-0.1-1.2,0.2-1.8c0.3-0.6,0.8-1,1.5-1.2C262.7-181.1,263.2-181,263.8-180.8 M263.6-180.6
				c-0.4-0.2-0.7-0.2-1.1-0.1c-0.5,0.2-0.8,0.6-1.2,1.2s-0.5,1.2-0.4,1.7c0.1,0.4,0.3,0.6,0.6,0.8c0.4,0.2,0.8,0.2,1.2,0.1
				c0.4-0.2,0.8-0.5,1.1-1.2c0.4-0.7,0.5-1.2,0.4-1.7C264.2-180.1,264-180.4,263.6-180.6"/>
			<path fill="#FFFFFF" d="M265.5-173.7l1.8-3.7l-2.3,1.9c-0.2,0.2-0.3,0.3-0.3,0.4c0,0.2,0,0.2,0.2,0.4l0.1,0.2l-0.1,0.1l-1-1.2
				l0.1-0.1l0.1,0.2c0.2,0.2,0.2,0.2,0.4,0.2c0.1,0,0.2-0.1,0.4-0.2l2.2-1.8c0.2-0.2,0.2-0.2,0.3-0.3c0-0.1,0-0.2,0-0.2
				c0-0.1-0.1-0.2-0.2-0.3l0.1-0.1l0.8,1l-1.6,3.5l3.7-1l0.8,1l-0.1,0.1l-0.1-0.2c-0.2-0.2-0.2-0.2-0.4-0.2c-0.1,0-0.2,0.1-0.4,0.2
				l-2.3,1.7c-0.2,0.2-0.3,0.3-0.3,0.4c0,0.2,0,0.2,0.2,0.4l0.1,0.2l-0.1,0.1l-1.2-1.5l0.1-0.1l0.1,0.2c0.2,0.2,0.2,0.2,0.4,0.2
				c0.1,0,0.2-0.1,0.4-0.2l2.3-1.9l-3.9,1.1L265.5-173.7z"/>
			<path fill="#FFFFFF" d="M269.9-168.9l-0.5-1.6l-0.8-0.1c-0.2,0-0.3,0-0.4,0s-0.1,0.1-0.2,0.2c0,0.1,0,0.2,0,0.5h-0.1l-0.5-1.3
				h0.1c0.1,0.2,0.2,0.2,0.2,0.3c0.2,0.1,0.4,0.2,0.7,0.2l3.9,0.4v0.1l-3,2.6c-0.2,0.2-0.4,0.4-0.5,0.5c-0.1,0.2-0.1,0.3,0,0.5h-0.2
				l-0.3-1.6h0.2c0.1,0.2,0.2,0.3,0.2,0.3c0.1,0.1,0.2,0.1,0.2,0c0.1,0,0.2-0.2,0.4-0.2L269.9-168.9z M270.1-169l1.5-1.2l-1.9-0.2
				L270.1-169z M274.1-169.3l-1.4-0.5v-0.1h1.2L274.1-169.3z"/>
			<path fill="#FFFFFF" d="M273.5-164H272v-0.2c0.3-0.1,0.5-0.2,0.7-0.2c0.2-0.1,0.3-0.2,0.4-0.5c0.1-0.2,0.2-0.4,0.2-0.6
				s-0.1-0.4-0.2-0.5c-0.2-0.2-0.3-0.2-0.5-0.2c-0.2,0-0.2,0.1-0.4,0.2c-0.2,0.2-0.4,0.5-0.6,1c-0.2,0.4-0.4,0.7-0.5,0.8
				c-0.1,0.2-0.2,0.3-0.4,0.4c-0.2,0.1-0.3,0.2-0.5,0.2c-0.3,0-0.6-0.2-0.8-0.4s-0.4-0.6-0.4-1c0-0.2,0-0.2,0-0.4
				c0-0.1,0.1-0.2,0.1-0.5c0.1-0.2,0.1-0.4,0.1-0.4c0-0.1,0-0.1-0.1-0.2c0,0-0.1-0.1-0.2-0.1v-0.2h1.5v0.2c-0.3,0.1-0.5,0.2-0.7,0.2
				c-0.2,0.1-0.3,0.2-0.4,0.5c-0.1,0.2-0.2,0.4-0.2,0.6c0,0.3,0.1,0.5,0.2,0.6s0.3,0.2,0.5,0.2c0.1,0,0.2,0,0.3-0.1
				c0.1-0.1,0.2-0.2,0.3-0.3c0.1-0.1,0.2-0.3,0.4-0.7c0.2-0.4,0.4-0.7,0.5-0.8c0.2-0.2,0.2-0.3,0.4-0.4c0.2-0.1,0.3-0.2,0.5-0.2
				c0.3,0,0.6,0.1,0.8,0.4c0.2,0.2,0.4,0.5,0.4,0.9c0,0.2-0.1,0.5-0.2,0.8c-0.1,0.2-0.1,0.2-0.1,0.2c0,0.1,0,0.1,0.1,0.2
				c0,0,0.1,0.1,0.2,0.1V-164z"/>
		</g>
	</g>
</g>
</svg>
