<?xml version="1.0" encoding="utf-8"?>
<!-- Generator: Adobe Illustrator 18.1.1, SVG Export Plug-In . SVG Version: 6.00 Build 0)  -->
<!DOCTYPE svg PUBLIC "-//W3C//DTD SVG 1.1//EN" "http://www.w3.org/Graphics/SVG/1.1/DTD/svg11.dtd">
<svg version="1.1" id="Capa_1" xmlns="http://www.w3.org/2000/svg" xmlns:xlink="http://www.w3.org/1999/xlink" x="0px" y="0px"
	 width="114px" height="63.4px" viewBox="0 0 114 63.4" enable-background="new 0 0 114 63.4" xml:space="preserve">
<g>
	<g>
		<path d="M0,8.2h5.4l4.3,16.5L13.9,9h4.4l4.2,15.7l4.2-16.5h5.4l-7,23.7h-4.9l-4.3-16l-4.2,16H7L0,8.2z"/>
		<path d="M34.7,21.9c0.3,3.8,3.6,5.9,6.9,5.9c2.8,0,4.6-1.3,5.7-3.2h5.8c-1.1,2.6-2.8,4.6-4.8,5.9c-2,1.4-4.3,2.1-6.8,2.1
			c-7.3,0-12.5-5.9-12.5-12.5c0-6.7,5.3-12.6,12.4-12.6c3.5,0,6.6,1.3,8.8,3.6c2.9,3,4,6.7,3.5,10.8L34.7,21.9L34.7,21.9z
			 M48.2,17.6c-0.2-2.2-2.6-5.4-6.7-5.3c-4.2,0-6.5,3-6.7,5.3H48.2z"/>
		<path d="M53,0h5.6v8.3v2.8c2.3-2.9,5.7-3.7,7.9-3.7c5.6,0,11.8,4.1,11.8,12.5c0,8-5.6,12.7-12.1,12.7c-3.7,0-6.6-1.8-7.8-4.1v3.4
			H53L53,0L53,0z M72.7,20c0-3.9-3-7.2-7.1-7.2c-4.4,0-7.2,3.4-7.2,7.3c0,4,2.8,7.3,7,7.3C70.1,27.4,72.7,23.7,72.7,20L72.7,20z"/>
	</g>
	<g>
		<g>
			<path fill="#FFA817" d="M7,31.4h5.3v3.4c1.7-2.4,4.4-4.2,8.4-4.2c8.3,0,11.8,7,11.8,12.8c0,6.7-4.8,12.4-11.7,12.4
				c-4.6,0-7.1-2.4-8.1-3.9v3.1v8.3H7L7,31.4L7,31.4z M26.8,43.3c0-3.4-2.5-7.3-7.2-7.3c-2.1,0-3.8,0.8-5.1,2.2
				c-1.3,1.3-2,3.1-2,5.2c0,2,0.8,3.8,2.1,5.1s3.1,2.1,5.1,2.1C23.9,50.6,26.8,47.2,26.8,43.3L26.8,43.3z"/>
			<path fill="#FFA817" d="M56.8,55.1h-5.6v-3.4c-1.5,2.8-4.7,4.1-8,4.1c-7.6,0-12-5.9-12-12.6c0-7.5,5.4-12.5,12-12.5
				c4.3,0,6.9,2.3,8,4.2v-3.4h5.6V55.1z M36.8,43.4c0,2.9,2.1,7.2,7.2,7.2c3.1,0,5.2-1.6,6.3-3.8c0.6-1,0.8-2.2,0.9-3.3
				c0-1.1-0.2-2.3-0.6-3.3c-1-2.2-3.2-4.2-6.6-4.2C39.4,36,36.8,39.7,36.8,43.4L36.8,43.4L36.8,43.4z"/>
			<path fill="#FFA817" d="M63.7,54.2l-8.9-22.8h6l5.8,15.7l5.7-15.7h6L65.8,63.4h-6L63.7,54.2z"/>
		</g>
	</g>
	<g>
		<path fill="#FF0005" d="M96.6,16.5c-0.3-0.3-0.7-0.3-1,0L81.1,31.1c-0.3,0.3-0.5,0.5-0.5,0.5c0,0,0,0.3,0,0.7V49
			c0,0.4,0.3,0.7,0.7,0.7h16.8c0.4,0,0.9-0.2,1.2-0.5l14.6-14.6c0.3-0.3,0.3-0.7,0-1L96.6,16.5z"/>
	</g>
	<g>
		<path fill="#FFFFFF" d="M82.9,32.9h1.4v1.3c0.6-0.9,1.6-1.6,2.9-1.6c2.6,0,3.9,2.2,3.9,4.1c0,2.2-1.6,4-3.9,4
			c-1.6,0-2.5-0.9-2.9-1.5v1.3v2.8h-1.5V32.9z M89.6,36.7c0-1.3-0.9-2.7-2.7-2.7c-0.8,0-1.4,0.3-1.9,0.8c-0.5,0.5-0.7,1.2-0.7,1.9
			c0,0.8,0.3,1.4,0.8,1.9c0.5,0.5,1.2,0.8,1.9,0.8C88.5,39.4,89.6,38.2,89.6,36.7L89.6,36.7z"/>
		<path fill="#FFFFFF" d="M91.6,30.1H93v10.4h-1.5V30.1z"/>
		<path fill="#FFFFFF" d="M100.9,40.5h-1.4v-1.2c-0.4,0.8-1.2,1.4-2.6,1.4c-2.5,0-3.1-1.8-3.1-3.4v-4.5h1.5V37c0,1.4,0.5,2.4,2,2.4
			c1.4,0,2.1-0.9,2.1-2.2v-4.3h1.5L100.9,40.5L100.9,40.5z"/>
		<path fill="#FFFFFF" d="M105.2,34.9c0-0.6-0.4-1-1.1-1c-0.7,0-1.1,0.5-1.1,1c0,0.6,0.6,0.9,1.4,1.1c1.2,0.3,2.4,0.7,2.5,2.3
			c0,1.5-1.2,2.5-2.7,2.5c-1.2,0-2.7-0.7-2.8-2.4h1.4c0.1,0.9,0.8,1.2,1.4,1.2c0.7,0,1.3-0.5,1.3-1.1c0-0.8-0.6-1-2-1.5
			c-1.1-0.3-1.9-0.8-1.9-2c0-1.4,1.2-2.3,2.6-2.3c1.1,0,2.4,0.5,2.5,2.2L105.2,34.9L105.2,34.9z"/>
	</g>
</g>
</svg>
