<?xml version="1.0" encoding="utf-8"?>
<!-- Generator: Adobe Illustrator 18.1.1, SVG Export Plug-In . SVG Version: 6.00 Build 0)  -->
<!DOCTYPE svg PUBLIC "-//W3C//DTD SVG 1.1//EN" "http://www.w3.org/Graphics/SVG/1.1/DTD/svg11.dtd">
<svg version="1.1" id="Capa_1" xmlns="http://www.w3.org/2000/svg" xmlns:xlink="http://www.w3.org/1999/xlink" x="0px" y="0px"
	 width="284px" height="122.1px" viewBox="0 0 284 122.1" enable-background="new 0 0 284 122.1" xml:space="preserve">
<g>
	<g>
		<g>
			<rect x="112.5" y="73.4" fill="#FFFFFF" width="0.6" height="48.7"/>
		</g>
		<path fill="#FFFFFF" d="M232.5,114.9c0-3.4,2-5.2,4.6-5.2c2.5,0,4.8,2,4.8,5.8c0,4.6-2.9,5.4-4.3,5.4
			C234.6,120.9,232.5,118.6,232.5,114.9 M231,115.3c0,2.8,1.8,6.2,6.1,6.2c3.8,0,6.3-2.9,6.3-6.4c0-3.7-2.6-5.9-6.2-5.9
			C232.8,109.2,231,112.8,231,115.3 M220.5,113.7c0-1.2,0-2.8,0-3.3c0-0.2,0-0.3,0.2-0.3c0.1-0.1,0.7-0.1,1-0.1
			c1.9,0,3.7,0.2,5.1,1.8c0.6,0.7,1.5,2,1.5,4c0,1.4-0.4,2.9-1.3,3.7c-0.9,0.9-2.3,1.5-3.7,1.5c-1.9,0-2.5-0.3-2.7-0.6
			c-0.1-0.2-0.2-0.8-0.2-1.2c0-0.3,0-1.7,0-3.4V113.7z M219.2,116.7c0,1.5,0,2.7-0.1,3.4c-0.1,0.5-0.1,0.8-0.5,0.9
			c-0.1,0-0.3,0.1-0.5,0.1c-0.1,0-0.1,0-0.1,0.1c0,0.1,0.1,0.1,0.3,0.1c0.2,0,0.6,0,0.9,0c0.3,0,0.6,0,0.6,0c0.1,0,0.6,0,1.3,0.1
			c0.7,0,1.5,0.1,2.2,0.1c2.7,0,4.1-1.1,4.8-1.8c0.9-0.9,1.7-2.4,1.7-4.4c0-1.9-0.7-3.2-1.5-4c-1.9-1.9-4.7-1.8-6.3-1.8
			c-0.9,0-1.9,0-2.1,0c-0.1,0-1.1,0-1.8,0c-0.2,0-0.3,0-0.3,0.1c0,0.1,0.1,0.1,0.1,0.1c0.1,0,0.4,0,0.5,0c0.5,0.1,0.6,0.4,0.7,0.9
			c0,0.5,0,0.9,0,3.4V116.7z M209.9,116.1c0,0-0.1,0,0-0.1l1.4-4.2c0.1-0.2,0.2-0.2,0.2,0l1.5,4.2c0,0.1,0,0.1-0.1,0.1H209.9z
			 M207.7,119.6c-0.3,0.8-0.6,1.4-1.3,1.5c-0.1,0-0.3,0-0.5,0c-0.1,0-0.1,0-0.1,0.1c0,0.1,0.1,0.1,0.3,0.1c0.7,0,1.6,0,1.8,0
			c0.2,0,0.8,0,1.2,0c0.1,0,0.2,0,0.2-0.1c0-0.1,0-0.1-0.2-0.1H209c-0.3,0-0.6-0.1-0.6-0.5c0-0.3,0.1-0.7,0.2-1.1l0.9-2.8
			c0-0.1,0.1-0.1,0.2-0.1h3.4c0.1,0,0.1,0,0.1,0.1l1.5,3.9c0.1,0.3,0,0.4-0.1,0.4c-0.1,0-0.1,0-0.1,0.1c0,0.1,0.2,0.1,0.5,0.1
			c1.1,0,2.2,0,2.5,0c0.2,0,0.3,0,0.3-0.1c0-0.1-0.1-0.1-0.2-0.1c-0.2,0-0.4,0-0.6-0.1c-0.3-0.1-0.8-0.3-1.3-1.7
			c-1-2.4-3.4-8.9-3.7-9.5c-0.2-0.5-0.3-0.6-0.3-0.6c-0.1,0-0.2,0.1-0.3,0.6L207.7,119.6z M199.1,110.2c0-0.1,0-0.2,0.1-0.2
			c0.2,0,0.6-0.1,1.1-0.1c1.7,0,2.7,1.2,2.7,3.1c0,1.2-0.4,2-1,2.4c-0.4,0.3-0.8,0.3-1.2,0.3c-0.7,0-1.4-0.1-1.6-0.3
			c-0.1,0-0.1-0.1-0.1-0.2V110.2z M197.8,116.7c0,1.5,0,2.7-0.1,3.4c-0.1,0.5-0.1,0.8-0.5,0.9c-0.1,0-0.3,0.1-0.5,0.1
			c-0.1,0-0.1,0-0.1,0.1c0,0.1,0.1,0.1,0.3,0.1c0.5,0,1.5,0,1.5,0c0.1,0,1.1,0,1.9,0c0.2,0,0.3,0,0.3-0.1c0,0,0-0.1-0.1-0.1
			c-0.1,0-0.5,0-0.7-0.1c-0.5-0.1-0.6-0.4-0.6-0.9c-0.1-0.7-0.1-1.9-0.1-3.4v-0.4c0-0.1,0-0.1,0.1-0.1l1.9,0c0.1,0,0.1,0,0.2,0.1
			c0.3,0.4,1.1,1.5,1.7,2.3c0.9,1.2,1.4,1.9,2.1,2.3c0.4,0.2,0.8,0.3,1.7,0.3h1.1c0.3,0,0.4,0,0.4-0.1c0,0-0.1-0.1-0.1-0.1
			c-0.1,0-0.3,0-0.6,0c-0.4-0.1-1.1-0.2-1.9-1.1c-0.9-1-2-2.4-3.3-4c1.4-1.3,1.9-2.5,1.9-3.6c0-1.1-0.7-1.8-1.1-2.1
			c-0.8-0.6-1.9-0.7-2.9-0.7c-0.5,0-1.7,0-1.9,0c-0.1,0-1.1,0-1.8,0c-0.2,0-0.3,0-0.3,0.1c0,0.1,0.1,0.1,0.1,0.1c0.1,0,0.4,0,0.5,0
			c0.5,0.1,0.6,0.4,0.7,0.9c0,0.5,0,0.9,0,3.4V116.7z M192.6,120c0,0.3-0.1,0.4-0.3,0.5c-0.4,0.2-1.2,0.3-1.8,0.3
			c-1.4,0-2.9-0.5-4.1-1.7c-0.5-0.5-1.7-2.1-1.7-4.3c0-1.8,0.6-3.3,1.6-4c1.2-0.9,2.4-1,3.4-1c2,0,3.3,0.7,3.7,1.3
			c0.2,0.4,0.3,0.8,0.3,1c0,0.1,0,0.2,0.1,0.2c0.1,0,0.1-0.1,0.1-0.3c0-1.6,0.1-2,0.1-2.2c0-0.1,0-0.1-0.2-0.1
			c-0.4,0-0.9-0.1-1.3-0.2c-0.3-0.1-1.4-0.3-2.4-0.3c-1.2,0-2.8,0.1-4.2,1c-1.4,0.9-2.6,2.7-2.6,5.2c0,2,0.9,3.6,1.9,4.5
			c1.7,1.5,4,1.7,5.2,1.7c0.9,0,2.3-0.2,3.3-0.7c0.2-0.1,0.2-0.1,0.2-0.8v-1.8c0-0.7,0-1.1,0-1.6c0-0.5,0.2-0.8,0.6-0.9
			c0.2,0,0.3,0,0.4,0c0.1,0,0.1,0,0.1-0.1c0-0.1-0.1-0.1-0.3-0.1c-0.5,0-1.5,0-1.5,0c-0.1,0-1.1,0-1.8,0c-0.2,0-0.3,0-0.3,0.1
			c0,0.1,0.1,0.1,0.1,0.1c0.1,0,0.4,0,0.5,0c0.6,0.2,0.7,0.3,0.7,1.6V120z M178.8,110.1l2,0c1.5,0,1.9,0.4,1.9,0.9l0,0.2
			c0,0.2,0,0.3,0.1,0.3c0.1,0,0.1-0.1,0.1-0.2c0-0.2,0-1.3,0-1.7c0-0.1,0-0.2-0.1-0.2c-0.1,0-0.2,0-0.4,0.1c-0.3,0-0.6,0.1-1.1,0.1
			h-5.9c-0.2,0-0.8,0-1.2-0.1c-0.4,0-0.6-0.2-0.7-0.2c-0.1,0-0.1,0.2-0.2,0.3c0,0.1-0.3,1.5-0.3,1.6c0,0.1,0,0.1,0.1,0.1
			c0.1,0,0.1,0,0.2-0.2c0-0.1,0.1-0.2,0.3-0.5c0.3-0.4,0.6-0.5,1.6-0.5l2.3,0v6.6c0,1.5,0,2.7-0.1,3.4c-0.1,0.5-0.1,0.8-0.5,0.9
			c-0.1,0-0.3,0.1-0.5,0.1c-0.1,0-0.1,0-0.1,0.1c0,0.1,0.1,0.1,0.3,0.1c0.5,0,1.5,0,1.5,0c0.1,0,1.1,0,1.9,0c0.2,0,0.3,0,0.3-0.1
			c0,0,0-0.1-0.1-0.1c-0.1,0-0.5,0-0.7-0.1c-0.5-0.1-0.6-0.4-0.6-0.9c-0.1-0.7-0.1-1.9-0.1-3.4V110.1z M168.4,121.5
			c0.8,0,1.7-0.2,2.4-0.7c1.1-0.8,1.3-2,1.3-2.6c0-1.3-0.4-2.2-2.3-3.7l-0.4-0.3c-1.5-1.2-1.9-1.7-1.9-2.6c0-1.1,0.8-1.8,1.9-1.8
			c1.4,0,1.9,0.7,2,0.8c0.1,0.2,0.2,0.6,0.2,0.8c0,0.1,0,0.2,0.1,0.2c0.1,0,0.1-0.1,0.1-0.4c0-1.1,0.1-1.6,0.1-1.7
			c0-0.1,0-0.1-0.2-0.1c-0.1,0-0.3,0-0.5-0.1c-0.4-0.1-0.8-0.2-1.5-0.2c-2,0-3.2,1.1-3.2,2.8c0,1.1,0.4,2,2,3.4l0.7,0.6
			c1.3,1.1,1.8,1.7,1.8,2.8c0,1-0.7,2.1-2.2,2.1c-1.1,0-2.1-0.4-2.3-1.6c0-0.2,0-0.4,0-0.6c0-0.1,0-0.2-0.1-0.2
			c-0.1,0-0.1,0.1-0.1,0.3c0,0.3-0.1,0.9-0.1,1.7c0,0.4,0,0.5,0.2,0.6C166.9,121.4,167.6,121.5,168.4,121.5 M153.4,114.9
			c0-3.4,2-5.2,4.6-5.2c2.5,0,4.8,2,4.8,5.8c0,4.6-2.9,5.4-4.3,5.4C155.6,120.9,153.4,118.6,153.4,114.9 M151.9,115.3
			c0,2.8,1.8,6.2,6.1,6.2c3.8,0,6.3-2.9,6.3-6.4c0-3.7-2.6-5.9-6.2-5.9C153.8,109.2,151.9,112.8,151.9,115.3 M144.4,116.7
			c0,1.5,0,2.7-0.1,3.4c-0.1,0.5-0.1,0.8-0.5,0.9c-0.1,0-0.3,0.1-0.5,0.1c-0.1,0-0.1,0-0.1,0.1c0,0.1,0.1,0.1,0.3,0.1
			c0.5,0,1.5,0,1.5,0c0.1,0,1.1,0,1.9,0c0.2,0,0.3,0,0.3-0.1c0,0,0-0.1-0.1-0.1c-0.1,0-0.5,0-0.7-0.1c-0.5-0.1-0.6-0.4-0.6-0.9
			c-0.1-0.7-0.1-1.9-0.1-3.4v-6.4c0-0.2,0-0.3,0.1-0.3c0.1-0.1,0.4-0.1,0.7-0.1c0.4,0,1.3-0.1,2.1,0.8c0.8,0.8,0.9,1.9,0.9,2.4
			c0,1.4-1.2,2.6-2.7,2.6c-0.3,0-0.4,0-0.4,0.1c0,0.1,0.1,0.1,0.2,0.1c0.1,0,0.3,0,0.3,0c2.2,0,3.9-1.5,3.9-3.7
			c0-0.8-0.4-1.5-0.8-1.9c-0.3-0.2-1-0.9-2.9-0.9c-0.7,0-1.6,0-2,0c-0.1,0-1.1,0-1.8,0c-0.2,0-0.3,0-0.3,0.1c0,0.1,0.1,0.1,0.1,0.1
			c0.1,0,0.4,0,0.5,0c0.5,0.1,0.6,0.4,0.7,0.9c0,0.5,0,0.9,0,3.4V116.7z M132.4,118.6c0,0.3,0,0.9,0,1.6c0,0.5-0.2,0.8-0.5,0.9
			c-0.1,0-0.3,0.1-0.5,0.1c-0.1,0-0.1,0-0.1,0.1c0,0.1,0.1,0.1,0.3,0.1c0.5,0,1.5,0,1.5,0c0.1,0,1.1,0,1.9,0c0.2,0,0.3,0,0.3-0.1
			c0,0,0-0.1-0.1-0.1c-0.1,0-0.5,0-0.7-0.1c-0.5-0.1-0.6-0.4-0.6-0.9c0-0.7,0-1.3,0-1.6v-1.3c0-0.5,0-1,0.2-1.6c0.3-0.7,2.5-4.4,3-5
			c0.3-0.4,0.5-0.6,0.8-0.8c0.3-0.2,0.5-0.2,0.7-0.2c0.1,0,0.2,0,0.2-0.1c0-0.1-0.1-0.1-0.2-0.1c-0.3,0-1.4,0-1.5,0
			c-0.1,0-0.6,0-1,0c-0.2,0-0.3,0-0.3,0.1c0,0.1,0.1,0.1,0.2,0.2c0.2,0,0.3,0.2,0.3,0.4c0,0.2-0.1,0.5-0.3,0.8
			c-0.3,0.5-2.3,4-2.6,4.6c-0.3-0.5-2.6-4.5-2.9-5c-0.1-0.2-0.2-0.4-0.2-0.6c0-0.1,0.1-0.2,0.2-0.3c0.1-0.1,0.2-0.1,0.2-0.1
			c0-0.1,0-0.1-0.2-0.1c-0.6,0-1.2,0-1.3,0c-0.1,0-1.3,0-1.6,0c-0.1,0-0.2,0-0.2,0.1c0,0.1,0.1,0.1,0.2,0.1c0.1,0,0.4,0.1,0.7,0.3
			c0.3,0.2,0.7,0.6,1.1,1.2c0.5,0.8,2.7,4.3,2.8,4.5c0.2,0.5,0.4,0.8,0.4,1.6V118.6z"/>
		<path fill="#FFFFFF" d="M248.4,93.6c0.5,0.6,2.3,2.5,4.1,4.5c1.7,1.8,3.9,4.1,4.1,4.3c0.8,0.8,1,1,1.1,1c0.1,0,0.1-0.1,0.1-1.1
			l0-9.2c0-0.9,0.1-1.3,0.6-1.4c0.2,0,0.3,0,0.4,0c0.1,0,0.2,0,0.2-0.1c0-0.1-0.1-0.1-0.3-0.1c-0.6,0-1.2,0-1.3,0
			c-0.2,0-0.9,0-1.6,0c-0.2,0-0.3,0-0.3,0.1c0,0.1,0,0.1,0.1,0.1c0.1,0,0.5,0,0.8,0.1c0.5,0.1,0.6,0.5,0.6,1.5l0.2,8
			c-0.5-0.5-2.2-2.4-3.8-4.1c-2.4-2.6-4.8-5.1-5-5.4c-0.2-0.2-0.4-0.5-0.5-0.5c-0.1,0-0.2,0.2-0.2,0.8l0,9c0,1.4-0.1,1.9-0.5,2
			c-0.2,0.1-0.5,0.1-0.6,0.1c-0.1,0-0.1,0-0.1,0.1c0,0.1,0.1,0.1,0.3,0.1c0.7,0,1.4,0,1.5,0c0.1,0,0.8,0,1.7,0c0.2,0,0.3,0,0.3-0.1
			c0-0.1,0-0.1-0.1-0.1c-0.1,0-0.5,0-0.8-0.1c-0.4-0.1-0.6-0.5-0.6-1.8L248.4,93.6z M241.4,88.6c-0.1-0.1-0.1-0.1-0.2-0.1
			c-0.1,0-0.2,0-0.4,0.2c-0.1,0.1-1.6,0.9-2.1,1.3c-0.1,0-0.1,0.1-0.1,0.1c0,0.1,0,0.1,0.1,0.1c0,0,0.1,0,0.2-0.1
			c0.5-0.2,1.6-0.6,2.4-0.7c0.3,0,0.4,0,0.5,0c0.1,0,0.1,0,0.1-0.2C241.7,88.9,241.5,88.7,241.4,88.6 M234.8,96.9
			c0-3.4,2-5.2,4.6-5.2c2.5,0,4.8,2,4.8,5.8c0,4.6-2.9,5.4-4.3,5.4C237,102.9,234.8,100.5,234.8,96.9 M233.3,97.3
			c0,2.8,1.8,6.2,6.1,6.2c3.8,0,6.3-2.9,6.3-6.4c0-3.7-2.6-5.9-6.2-5.9C235.1,91.2,233.3,94.8,233.3,97.3 M230.6,95.9
			c0-2.4,0-2.9,0-3.4c0-0.5,0.2-0.8,0.6-0.9c0.2,0,0.3,0,0.4,0c0.1,0,0.1,0,0.1-0.1c0-0.1-0.1-0.1-0.3-0.1c-0.5,0-1.5,0-1.5,0
			c-0.1,0-1.1,0-1.6,0c-0.2,0-0.3,0-0.3,0.1c0,0.1,0.1,0.1,0.1,0.1c0.1,0,0.3,0,0.5,0.1c0.3,0.1,0.5,0.3,0.5,0.9c0,0.5,0,0.9,0,3.4
			v2.8c0,1.5,0,2.7-0.1,3.4c-0.1,0.5-0.1,0.8-0.5,0.9c-0.1,0-0.3,0.1-0.5,0.1c-0.1,0-0.1,0-0.1,0.1c0,0.1,0.1,0.1,0.3,0.1
			c0.5,0,1.5,0,1.5,0c0.1,0,1.1,0,1.9,0c0.2,0,0.3,0,0.3-0.1c0,0,0-0.1-0.1-0.1c-0.1,0-0.5,0-0.7-0.1c-0.5-0.1-0.6-0.4-0.6-0.9
			c-0.1-0.7-0.1-1.9-0.1-3.4V95.9z M222.8,103.5c1,0,2.2-0.1,2.8-0.4c0.3-0.1,0.3-0.2,0.4-0.5c0.2-0.5,0.3-1.9,0.3-2
			c0-0.1,0-0.2-0.1-0.2c-0.1,0-0.1,0.1-0.2,0.2c0,0.3-0.3,1-0.6,1.3c-0.6,0.6-1.6,0.8-2.7,0.8c-3.4,0-5.7-2.7-5.7-5.7
			c0-1.6,0.3-3,1.4-4.1c0.5-0.5,1.5-1.1,3.6-1.1c1.4,0,2.6,0.4,3.1,0.9c0.4,0.3,0.7,1,0.7,1.6c0,0.2,0,0.3,0.1,0.3
			c0.1,0,0.1-0.1,0.1-0.3c0-0.2,0-1.1,0-1.6c0-0.6,0.1-0.8,0.1-0.9c0-0.1,0-0.2-0.2-0.2c-0.5,0-1-0.1-1.6-0.2
			c-0.8-0.1-1.6-0.2-2.3-0.2c-2.4,0-3.8,0.7-4.8,1.7c-1.4,1.4-1.8,3.2-1.8,4.3c0,1.5,0.4,3.3,1.9,4.6
			C218.8,102.9,220.4,103.5,222.8,103.5 M208.2,98.1c0,0-0.1,0,0-0.1l1.4-4.2c0.1-0.2,0.2-0.2,0.2,0l1.5,4.2c0,0.1,0,0.1-0.1,0.1
			H208.2z M206,101.5c-0.3,0.8-0.6,1.4-1.3,1.5c-0.1,0-0.3,0-0.5,0c-0.1,0-0.1,0-0.1,0.1c0,0.1,0.1,0.1,0.3,0.1c0.7,0,1.6,0,1.8,0
			c0.2,0,0.8,0,1.2,0c0.1,0,0.2,0,0.2-0.1c0-0.1,0-0.1-0.2-0.1h-0.2c-0.3,0-0.6-0.1-0.6-0.5c0-0.3,0.1-0.7,0.2-1.1l0.9-2.8
			c0-0.1,0.1-0.1,0.2-0.1h3.4c0.1,0,0.1,0,0.1,0.1l1.5,3.9c0.1,0.3,0,0.4-0.1,0.4c-0.1,0-0.1,0-0.1,0.1c0,0.1,0.2,0.1,0.5,0.1
			c1.1,0,2.2,0,2.5,0c0.2,0,0.3,0,0.3-0.1c0-0.1-0.1-0.1-0.2-0.1c-0.2,0-0.4,0-0.6-0.1c-0.3-0.1-0.8-0.3-1.3-1.7
			c-1-2.4-3.4-8.9-3.7-9.5c-0.2-0.5-0.3-0.6-0.3-0.6c-0.1,0-0.2,0.1-0.3,0.6L206,101.5z M202,101.9c0,0.3-0.1,0.4-0.3,0.5
			c-0.4,0.2-1.2,0.3-1.8,0.3c-1.4,0-2.9-0.5-4.1-1.7c-0.5-0.5-1.7-2.1-1.7-4.3c0-1.8,0.6-3.3,1.6-4c1.2-0.9,2.4-1,3.4-1
			c2,0,3.3,0.7,3.7,1.3c0.2,0.4,0.3,0.8,0.3,1c0,0.1,0,0.2,0.1,0.2c0.1,0,0.1-0.1,0.1-0.3c0-1.6,0.1-2,0.1-2.2c0-0.1,0-0.1-0.2-0.1
			c-0.4,0-0.9-0.1-1.3-0.2c-0.3-0.1-1.4-0.3-2.4-0.3c-1.2,0-2.8,0.1-4.2,1c-1.4,0.9-2.6,2.7-2.6,5.2c0,2,0.9,3.6,1.9,4.5
			c1.7,1.5,4,1.7,5.2,1.7c0.9,0,2.3-0.2,3.3-0.7c0.2-0.1,0.2-0.1,0.2-0.8v-1.8c0-0.7,0-1.1,0-1.6c0-0.5,0.2-0.8,0.6-0.9
			c0.2,0,0.3,0,0.4,0c0.1,0,0.1,0,0.1-0.1c0-0.1-0.1-0.1-0.3-0.1c-0.5,0-1.5,0-1.5,0s-1.1,0-1.8,0c-0.2,0-0.3,0-0.3,0.1
			c0,0.1,0.1,0.1,0.1,0.1c0.1,0,0.4,0,0.5,0c0.6,0.2,0.7,0.3,0.7,1.6V101.9z M190,95.9c0-2.4,0-2.9,0-3.4c0-0.5,0.2-0.8,0.6-0.9
			c0.2,0,0.3,0,0.4,0c0.1,0,0.1,0,0.1-0.1c0-0.1-0.1-0.1-0.3-0.1c-0.5,0-1.5,0-1.5,0c-0.1,0-1.1,0-1.6,0c-0.2,0-0.3,0-0.3,0.1
			c0,0.1,0.1,0.1,0.1,0.1c0.1,0,0.3,0,0.5,0.1c0.3,0.1,0.5,0.3,0.5,0.9c0,0.5,0,0.9,0,3.4v2.8c0,1.5,0,2.7-0.1,3.4
			c-0.1,0.5-0.1,0.8-0.5,0.9c-0.1,0-0.3,0.1-0.5,0.1c-0.1,0-0.1,0-0.1,0.1c0,0.1,0.1,0.1,0.3,0.1c0.5,0,1.5,0,1.5,0
			c0.1,0,1.1,0,1.9,0c0.2,0,0.3,0,0.3-0.1c0,0,0-0.1-0.1-0.1c-0.1,0-0.5,0-0.7-0.1c-0.5-0.1-0.6-0.4-0.6-0.9
			c-0.1-0.7-0.1-1.9-0.1-3.4V95.9z M182,92.1l2,0c1.5,0,1.9,0.4,1.9,0.9l0,0.2c0,0.2,0,0.3,0.1,0.3c0.1,0,0.1-0.1,0.1-0.2
			c0-0.2,0-1.3,0-1.7c0-0.1,0-0.2-0.1-0.2c-0.1,0-0.2,0-0.4,0.1c-0.3,0-0.6,0.1-1.1,0.1h-5.9c-0.2,0-0.8,0-1.2-0.1
			c-0.4,0-0.6-0.2-0.7-0.2c-0.1,0-0.1,0.2-0.2,0.3c0,0.1-0.3,1.5-0.3,1.6c0,0.1,0,0.1,0.1,0.1c0.1,0,0.1,0,0.2-0.2
			c0-0.1,0.1-0.2,0.3-0.5c0.3-0.4,0.6-0.5,1.6-0.5l2.3,0v6.6c0,1.5,0,2.7-0.1,3.4c-0.1,0.5-0.1,0.8-0.5,0.9c-0.1,0-0.3,0.1-0.5,0.1
			c-0.1,0-0.1,0-0.1,0.1c0,0.1,0.1,0.1,0.3,0.1c0.5,0,1.5,0,1.5,0c0.1,0,1.1,0,1.9,0c0.2,0,0.3,0,0.3-0.1c0,0,0-0.1-0.1-0.1
			c-0.1,0-0.5,0-0.7-0.1c-0.5-0.1-0.6-0.4-0.6-0.9c-0.1-0.7-0.1-1.9-0.1-3.4V92.1z M171.6,103.5c0.8,0,1.7-0.2,2.4-0.7
			c1.1-0.8,1.3-2,1.3-2.6c0-1.3-0.4-2.2-2.3-3.7l-0.4-0.3c-1.5-1.2-1.9-1.7-1.9-2.6c0-1.1,0.8-1.8,1.9-1.8c1.4,0,1.9,0.7,2,0.8
			c0.1,0.2,0.2,0.6,0.2,0.8c0,0.1,0,0.2,0.1,0.2c0.1,0,0.1-0.1,0.1-0.4c0-1.1,0.1-1.6,0.1-1.7c0-0.1,0-0.1-0.2-0.1
			c-0.1,0-0.3,0-0.5-0.1c-0.4-0.1-0.8-0.2-1.5-0.2c-2,0-3.2,1.1-3.2,2.8c0,1.1,0.4,2,2,3.4l0.7,0.6c1.3,1.1,1.8,1.7,1.8,2.8
			c0,1-0.7,2.1-2.2,2.1c-1.1,0-2.1-0.4-2.3-1.6c0-0.2,0-0.4,0-0.6c0-0.1,0-0.2-0.1-0.2c-0.1,0-0.1,0.1-0.1,0.3
			c0,0.3-0.1,0.9-0.1,1.7c0,0.4,0,0.5,0.2,0.6C170.1,103.4,170.8,103.5,171.6,103.5 M161.7,98.7c0,1.5,0,2.7-0.1,3.4
			c-0.1,0.5-0.1,0.8-0.5,0.9c-0.1,0-0.3,0.1-0.5,0.1c-0.1,0-0.1,0-0.1,0.1c0,0.1,0.1,0.1,0.3,0.1c0.2,0,0.6,0,0.9,0
			c0.3,0,0.6,0,0.6,0c0.2,0,0.6,0,1.2,0c0.6,0,1.5,0,2.6,0c0.6,0,0.7,0,0.8-0.4c0.1-0.3,0.2-1.4,0.2-1.5c0-0.1,0-0.2-0.1-0.2
			c-0.1,0-0.1,0.1-0.1,0.2c-0.1,0.6-0.3,1-0.7,1.1c-0.4,0.2-1.1,0.2-1.5,0.2c-1.5,0-1.8-0.2-1.8-1.3c0-0.3,0-2.1,0-2.7v-1.4
			c0-0.1,0-0.1,0.1-0.1c0.3,0,1.8,0,2.2,0.1c0.6,0.1,0.8,0.3,0.8,0.5c0.1,0.2,0.1,0.4,0.1,0.5c0,0.1,0,0.1,0.1,0.1
			c0.1,0,0.1-0.2,0.1-0.3c0-0.1,0-0.7,0.1-1c0-0.5,0.1-0.8,0.1-0.9c0-0.1,0-0.1-0.1-0.1c-0.1,0-0.1,0.1-0.2,0.2
			c-0.1,0.2-0.4,0.2-0.7,0.2c-0.4,0-2.3,0-2.5,0c-0.1,0-0.1,0-0.1-0.2v-4.3c0-0.1,0-0.2,0.1-0.2c0.2,0,1.9,0,2.1,0
			c0.8,0.1,1,0.3,1.1,0.5c0.1,0.2,0.1,0.5,0.1,0.6c0,0.1,0,0.2,0.1,0.2c0.1,0,0.1-0.1,0.1-0.2c0-0.2,0.1-0.9,0.1-1
			c0-0.4,0.1-0.6,0.1-0.7c0-0.1,0-0.1-0.1-0.1c-0.1,0-0.1,0.1-0.2,0.1c-0.1,0-0.4,0.1-0.7,0.1c-0.4,0-3.5,0-3.6,0l-0.6,0
			c-0.3,0-0.8,0-1.1,0c-0.2,0-0.3,0-0.3,0.1c0,0.1,0.1,0.1,0.1,0.1c0.1,0,0.4,0,0.5,0c0.5,0.1,0.6,0.4,0.7,0.9c0,0.5,0,0.9,0,3.4
			V98.7z M151.2,93.3c-0.2-0.6-0.4-1.1-0.4-1.3c0-0.1,0-0.2,0.2-0.3c0.1-0.1,0.4-0.1,0.6-0.1c0.1,0,0.2,0,0.2-0.1
			c0-0.1-0.1-0.1-0.4-0.1c-0.6,0-1.3,0-1.5,0c-0.2,0-1.1,0-1.8,0c-0.3,0-0.4,0-0.4,0.1c0,0.1,0,0.1,0.1,0.1c0.1,0,0.4,0,0.6,0.1
			c0.5,0.2,0.8,0.3,1.1,1.2l3.8,9.6c0.3,0.8,0.4,1,0.6,1c0.2,0,0.2-0.3,0.7-1.2c0.4-0.8,1.1-2.5,2-4.8c0.8-1.9,1.6-3.8,1.8-4.3
			c0.4-1.1,0.7-1.3,0.9-1.5c0.3-0.2,0.6-0.2,0.8-0.2c0.1,0,0.2,0,0.2-0.1c0-0.1-0.1-0.1-0.3-0.1c-0.5,0-1.1,0-1.2,0
			c-0.2,0-0.9,0-1.5,0c-0.3,0-0.3,0-0.3,0.1c0,0.1,0.1,0.1,0.2,0.1c0.2,0,0.4,0,0.6,0.1c0.2,0.1,0.2,0.2,0.2,0.4
			c0,0.1-0.1,0.4-0.1,0.6c-0.3,1.1-2.4,6.6-3.4,8.7L151.2,93.3z M137,93.6c0.5,0.6,2.3,2.5,4.1,4.5c1.7,1.8,3.9,4.1,4.1,4.3
			c0.8,0.8,1,1,1.1,1c0.1,0,0.1-0.1,0.1-1.1l0-9.2c0-0.9,0.1-1.3,0.6-1.4c0.2,0,0.3,0,0.4,0c0.1,0,0.2,0,0.2-0.1
			c0-0.1-0.1-0.1-0.3-0.1c-0.6,0-1.2,0-1.3,0c-0.2,0-0.9,0-1.6,0c-0.2,0-0.3,0-0.3,0.1c0,0.1,0,0.1,0.1,0.1c0.1,0,0.5,0,0.8,0.1
			c0.5,0.1,0.6,0.5,0.6,1.5l0.2,8c-0.5-0.5-2.2-2.4-3.8-4.1c-2.4-2.6-4.8-5.1-5-5.4c-0.2-0.2-0.4-0.5-0.5-0.5
			c-0.1,0-0.2,0.2-0.2,0.8l0,9c0,1.4-0.1,1.9-0.5,2c-0.2,0.1-0.5,0.1-0.6,0.1c-0.1,0-0.1,0-0.1,0.1c0,0.1,0.1,0.1,0.3,0.1
			c0.7,0,1.4,0,1.5,0s0.8,0,1.7,0c0.2,0,0.3,0,0.3-0.1c0-0.1,0-0.1-0.1-0.1c-0.1,0-0.5,0-0.8-0.1c-0.4-0.1-0.6-0.5-0.6-1.8L137,93.6
			z M132,95.9c0-2.4,0-2.9,0-3.4c0-0.5,0.2-0.8,0.6-0.9c0.2,0,0.3,0,0.4,0c0.1,0,0.1,0,0.1-0.1c0-0.1-0.1-0.1-0.3-0.1
			c-0.5,0-1.5,0-1.5,0c-0.1,0-1.1,0-1.6,0c-0.2,0-0.3,0-0.3,0.1c0,0.1,0.1,0.1,0.1,0.1c0.1,0,0.3,0,0.5,0.1c0.3,0.1,0.5,0.3,0.5,0.9
			c0,0.5,0,0.9,0,3.4v2.8c0,1.5,0,2.7-0.1,3.4c-0.1,0.5-0.1,0.8-0.5,0.9c-0.1,0-0.3,0.1-0.5,0.1c-0.1,0-0.1,0-0.1,0.1
			c0,0.1,0.1,0.1,0.3,0.1c0.5,0,1.5,0,1.5,0c0.1,0,1.1,0,1.9,0c0.2,0,0.3,0,0.3-0.1c0,0,0-0.1-0.1-0.1c-0.1,0-0.5,0-0.7-0.1
			c-0.5-0.1-0.6-0.4-0.6-0.9c-0.1-0.7-0.1-1.9-0.1-3.4V95.9z"/>
		<path fill="#FFFFFF" d="M278.4,80.7c0,1.5,0,2.7-0.1,3.4c-0.1,0.5-0.1,0.8-0.5,0.9c-0.1,0-0.3,0.1-0.5,0.1c-0.1,0-0.1,0-0.1,0.1
			c0,0.1,0.1,0.1,0.3,0.1c0.2,0,0.6,0,0.9,0c0.3,0,0.6,0,0.6,0c0.2,0,0.6,0,1.2,0c0.6,0,1.5,0,2.7,0c0.6,0,0.7,0,0.8-0.4
			c0.1-0.3,0.2-1.4,0.2-1.5c0-0.1,0-0.2-0.1-0.2c-0.1,0-0.1,0.1-0.1,0.2c-0.1,0.6-0.3,1-0.7,1.1c-0.4,0.2-1.1,0.2-1.5,0.2
			c-1.5,0-1.8-0.2-1.8-1.3c0-0.3,0-2.1,0-2.7v-1.4c0-0.1,0-0.1,0.1-0.1c0.3,0,1.8,0,2.2,0.1c0.6,0.1,0.8,0.3,0.8,0.5
			c0.1,0.2,0.1,0.4,0.1,0.5c0,0.1,0,0.1,0.1,0.1c0.1,0,0.1-0.2,0.1-0.3c0-0.1,0-0.7,0.1-1c0-0.5,0.1-0.8,0.1-0.9
			c0-0.1,0-0.1-0.1-0.1c-0.1,0-0.1,0.1-0.2,0.2c-0.1,0.2-0.4,0.2-0.7,0.2c-0.4,0-2.3,0-2.5,0c-0.1,0-0.1,0-0.1-0.2v-4.3
			c0-0.1,0-0.2,0.1-0.2c0.2,0,1.9,0,2.2,0c0.8,0.1,1,0.3,1.1,0.5c0.1,0.2,0.1,0.5,0.1,0.6c0,0.1,0,0.2,0.1,0.2
			c0.1,0,0.1-0.1,0.1-0.2c0-0.2,0.1-0.9,0.1-1c0-0.4,0.1-0.6,0.1-0.7c0-0.1,0-0.1-0.1-0.1c-0.1,0-0.1,0.1-0.2,0.1
			c-0.1,0-0.4,0.1-0.7,0.1c-0.4,0-3.5,0-3.6,0l-0.6,0c-0.3,0-0.8,0-1.1,0c-0.2,0-0.3,0-0.3,0.1c0,0.1,0.1,0.1,0.1,0.1
			c0.1,0,0.4,0,0.5,0c0.5,0.1,0.6,0.4,0.7,0.9c0,0.5,0,0.9,0,3.4V80.7z M266.3,77.7c0-1.2,0-2.8,0-3.3c0-0.2,0-0.3,0.2-0.3
			c0.1-0.1,0.7-0.1,1-0.1c1.9,0,3.7,0.2,5.1,1.8c0.6,0.7,1.5,2,1.5,4c0,1.4-0.4,2.9-1.3,3.7c-0.9,0.9-2.3,1.5-3.7,1.5
			c-1.9,0-2.5-0.3-2.7-0.6c-0.1-0.2-0.2-0.8-0.2-1.2c0-0.3,0-1.7,0-3.4V77.7z M265,80.7c0,1.5,0,2.7-0.1,3.4
			c-0.1,0.5-0.1,0.8-0.5,0.9c-0.1,0-0.3,0.1-0.5,0.1c-0.1,0-0.1,0-0.1,0.1c0,0.1,0.1,0.1,0.3,0.1c0.2,0,0.6,0,0.9,0
			c0.3,0,0.6,0,0.6,0c0.1,0,0.6,0,1.3,0.1c0.7,0,1.5,0.1,2.2,0.1c2.7,0,4.1-1.1,4.8-1.8c0.9-0.9,1.7-2.4,1.7-4.4
			c0-1.9-0.7-3.2-1.5-4c-1.9-1.9-4.7-1.8-6.3-1.8c-0.9,0-1.9,0-2.1,0c-0.1,0-1.1,0-1.8,0c-0.2,0-0.3,0-0.3,0.1
			c0,0.1,0.1,0.1,0.1,0.1c0.1,0,0.4,0,0.5,0c0.5,0.1,0.6,0.4,0.7,0.9c0,0.5,0,0.9,0,3.4V80.7z M251.4,80c0,0-0.1,0,0-0.1l1.4-4.2
			c0.1-0.2,0.2-0.2,0.2,0l1.5,4.2c0,0.1,0,0.1-0.1,0.1H251.4z M249.2,83.5c-0.3,0.8-0.6,1.4-1.3,1.5c-0.1,0-0.3,0-0.5,0
			c-0.1,0-0.1,0-0.1,0.1c0,0.1,0.1,0.1,0.3,0.1c0.7,0,1.6,0,1.8,0c0.2,0,0.8,0,1.2,0c0.1,0,0.2,0,0.2-0.1c0-0.1,0-0.1-0.2-0.1h-0.2
			c-0.3,0-0.6-0.1-0.6-0.5c0-0.3,0.1-0.7,0.2-1.1l0.9-2.8c0-0.1,0.1-0.1,0.2-0.1h3.4c0.1,0,0.1,0,0.1,0.1l1.5,3.9
			c0.1,0.3,0,0.4-0.1,0.4c-0.1,0-0.1,0-0.1,0.1c0,0.1,0.2,0.1,0.5,0.1c1.1,0,2.2,0,2.5,0c0.2,0,0.3,0,0.3-0.1c0-0.1-0.1-0.1-0.2-0.1
			c-0.2,0-0.4,0-0.6-0.1c-0.3-0.1-0.8-0.3-1.3-1.7c-1-2.4-3.4-8.9-3.7-9.5c-0.2-0.5-0.3-0.6-0.3-0.6c-0.1,0-0.2,0.1-0.3,0.6
			L249.2,83.5z M247,70.5c-0.1-0.1-0.1-0.1-0.2-0.1c-0.1,0-0.2,0-0.4,0.2c-0.1,0.1-1.6,0.9-2.1,1.3c-0.1,0-0.1,0.1-0.1,0.1
			c0,0.1,0,0.1,0.1,0.1c0,0,0.1,0,0.2-0.1c0.5-0.2,1.6-0.6,2.4-0.7c0.3,0,0.4,0,0.5,0c0.1,0,0.1,0,0.1-0.2
			C247.2,70.9,247.1,70.7,247,70.5 M245.7,77.9c0-2.4,0-2.9,0-3.4c0-0.5,0.2-0.8,0.6-0.9c0.2,0,0.3,0,0.4,0c0.1,0,0.1,0,0.1-0.1
			c0-0.1-0.1-0.1-0.3-0.1c-0.5,0-1.5,0-1.5,0c-0.1,0-1.1,0-1.6,0c-0.2,0-0.3,0-0.3,0.1c0,0.1,0.1,0.1,0.1,0.1c0.1,0,0.3,0,0.5,0.1
			c0.3,0.1,0.5,0.3,0.5,0.9c0,0.5,0,0.9,0,3.4v2.8c0,1.5,0,2.7-0.1,3.4c-0.1,0.5-0.1,0.8-0.5,0.9c-0.1,0-0.3,0.1-0.5,0.1
			c-0.1,0-0.1,0-0.1,0.1c0,0.1,0.1,0.1,0.3,0.1c0.5,0,1.5,0,1.5,0c0.1,0,1.1,0,1.9,0c0.2,0,0.3,0,0.3-0.1c0,0,0-0.1-0.1-0.1
			c-0.1,0-0.5,0-0.7-0.1c-0.5-0.1-0.6-0.4-0.6-0.9c-0.1-0.7-0.1-1.9-0.1-3.4V77.9z M234.6,74.1c0-0.1,0-0.2,0.1-0.2
			c0.2,0,0.6-0.1,1.1-0.1c1.7,0,2.7,1.2,2.7,3.1c0,1.2-0.4,2-1,2.4c-0.4,0.3-0.8,0.3-1.2,0.3c-0.7,0-1.4-0.1-1.6-0.3
			c-0.1,0-0.1-0.1-0.1-0.2V74.1z M233.3,80.7c0,1.5,0,2.7-0.1,3.4c-0.1,0.5-0.1,0.8-0.5,0.9c-0.1,0-0.3,0.1-0.5,0.1
			c-0.1,0-0.1,0-0.1,0.1c0,0.1,0.1,0.1,0.3,0.1c0.5,0,1.5,0,1.5,0c0.1,0,1.1,0,1.9,0c0.2,0,0.3,0,0.3-0.1c0,0,0-0.1-0.1-0.1
			c-0.1,0-0.5,0-0.7-0.1c-0.5-0.1-0.6-0.4-0.6-0.9c-0.1-0.7-0.1-1.9-0.1-3.4v-0.4c0-0.1,0-0.1,0.1-0.1l1.9,0c0.1,0,0.1,0,0.2,0.1
			c0.3,0.4,1.1,1.5,1.7,2.3c0.9,1.2,1.4,1.9,2.1,2.3c0.4,0.2,0.8,0.3,1.7,0.3h1.1c0.3,0,0.4,0,0.4-0.1c0,0-0.1-0.1-0.1-0.1
			c-0.1,0-0.3,0-0.6,0c-0.4-0.1-1.1-0.2-1.9-1.1c-0.9-1-2-2.4-3.3-4c1.4-1.3,1.9-2.5,1.9-3.6c0-1.1-0.7-1.9-1.1-2.1
			c-0.8-0.6-1.9-0.7-2.9-0.7c-0.5,0-1.7,0-1.9,0c-0.1,0-1.1,0-1.8,0c-0.2,0-0.3,0-0.3,0.1c0,0.1,0.1,0.1,0.1,0.1c0.1,0,0.4,0,0.5,0
			c0.5,0.1,0.6,0.4,0.7,0.9c0,0.5,0,0.9,0,3.4V80.7z M219.9,78.8c0-3.4,2-5.2,4.6-5.2c2.5,0,4.8,2,4.8,5.8c0,4.6-2.9,5.4-4.3,5.4
			C222.1,84.8,219.9,82.5,219.9,78.8 M218.4,79.3c0,2.8,1.8,6.2,6.1,6.2c3.8,0,6.3-2.9,6.3-6.4c0-3.7-2.6-5.9-6.2-5.9
			C220.3,73.1,218.4,76.7,218.4,79.3 M214,74l2,0c1.5,0,1.9,0.4,1.9,0.9l0,0.2c0,0.2,0,0.3,0.1,0.3c0.1,0,0.1-0.1,0.1-0.2
			c0-0.2,0-1.3,0-1.7c0-0.1,0-0.2-0.1-0.2c-0.1,0-0.2,0-0.4,0.1c-0.3,0-0.6,0.1-1.1,0.1h-5.9c-0.2,0-0.8,0-1.2-0.1
			c-0.4,0-0.6-0.2-0.7-0.2c-0.1,0-0.1,0.2-0.2,0.3c0,0.1-0.3,1.5-0.3,1.6c0,0.1,0,0.1,0.1,0.1c0.1,0,0.1,0,0.2-0.2
			c0-0.1,0.1-0.2,0.3-0.5c0.3-0.4,0.6-0.5,1.6-0.5l2.3,0v6.6c0,1.5,0,2.7-0.1,3.4c-0.1,0.5-0.1,0.8-0.5,0.9c-0.1,0-0.3,0.1-0.5,0.1
			c-0.1,0-0.1,0-0.1,0.1c0,0.1,0.1,0.1,0.3,0.1c0.5,0,1.5,0,1.5,0c0.1,0,1.1,0,1.9,0c0.2,0,0.3,0,0.3-0.1c0,0,0-0.1-0.1-0.1
			c-0.1,0-0.5,0-0.7-0.1c-0.5-0.1-0.6-0.4-0.6-0.9c-0.1-0.7-0.1-1.9-0.1-3.4V74z M204.2,85.4c1,0,2.2-0.1,2.8-0.4
			c0.3-0.1,0.3-0.2,0.4-0.5c0.2-0.5,0.3-1.9,0.3-2c0-0.1,0-0.2-0.1-0.2c-0.1,0-0.1,0.1-0.2,0.2c0,0.3-0.3,1-0.6,1.3
			c-0.6,0.6-1.6,0.8-2.7,0.8c-3.4,0-5.7-2.7-5.7-5.7c0-1.6,0.3-3,1.4-4.1c0.5-0.5,1.5-1.1,3.6-1.1c1.4,0,2.6,0.4,3.1,0.9
			c0.4,0.3,0.7,1,0.7,1.6c0,0.2,0,0.3,0.1,0.3c0.1,0,0.1-0.1,0.1-0.3c0-0.2,0-1.1,0-1.6c0-0.6,0.1-0.8,0.1-0.9c0-0.1,0-0.2-0.2-0.2
			c-0.5,0-1-0.1-1.6-0.2c-0.8-0.1-1.6-0.2-2.3-0.2c-2.4,0-3.8,0.7-4.8,1.7c-1.4,1.4-1.8,3.2-1.8,4.3c0,1.5,0.4,3.3,1.9,4.6
			C200.2,84.9,201.8,85.4,204.2,85.4 M190.1,80.7c0,1.5,0,2.7-0.1,3.4c-0.1,0.5-0.1,0.8-0.5,0.9c-0.1,0-0.3,0.1-0.5,0.1
			c-0.1,0-0.1,0-0.1,0.1c0,0.1,0.1,0.1,0.3,0.1c0.2,0,0.6,0,0.9,0c0.3,0,0.6,0,0.6,0c0.2,0,0.6,0,1.2,0c0.6,0,1.5,0,2.7,0
			c0.6,0,0.7,0,0.8-0.4c0.1-0.3,0.2-1.4,0.2-1.5c0-0.1,0-0.2-0.1-0.2c-0.1,0-0.1,0.1-0.1,0.2c-0.1,0.6-0.3,1-0.7,1.1
			c-0.4,0.2-1.1,0.2-1.5,0.2c-1.5,0-1.8-0.2-1.8-1.3c0-0.3,0-2.1,0-2.7v-1.4c0-0.1,0-0.1,0.1-0.1c0.3,0,1.8,0,2.2,0.1
			c0.6,0.1,0.8,0.3,0.8,0.5c0.1,0.2,0.1,0.4,0.1,0.5c0,0.1,0,0.1,0.1,0.1c0.1,0,0.1-0.2,0.1-0.3c0-0.1,0-0.7,0.1-1
			c0-0.5,0.1-0.8,0.1-0.9c0-0.1,0-0.1-0.1-0.1c-0.1,0-0.1,0.1-0.2,0.2c-0.1,0.2-0.4,0.2-0.7,0.2c-0.4,0-2.3,0-2.5,0
			c-0.1,0-0.1,0-0.1-0.2v-4.3c0-0.1,0-0.2,0.1-0.2c0.2,0,1.9,0,2.1,0c0.8,0.1,1,0.3,1.1,0.5c0.1,0.2,0.1,0.5,0.1,0.6
			c0,0.1,0,0.2,0.1,0.2c0.1,0,0.1-0.1,0.1-0.2c0-0.2,0.1-0.9,0.1-1c0-0.4,0.1-0.6,0.1-0.7c0-0.1,0-0.1-0.1-0.1
			c-0.1,0-0.1,0.1-0.2,0.1c-0.1,0-0.4,0.1-0.7,0.1c-0.4,0-3.5,0-3.6,0l-0.6,0c-0.3,0-0.8,0-1.1,0c-0.2,0-0.3,0-0.3,0.1
			c0,0.1,0.1,0.1,0.1,0.1c0.1,0,0.4,0,0.5,0c0.5,0.1,0.6,0.4,0.7,0.9c0,0.5,0,0.9,0,3.4V80.7z M180.3,74.1c0-0.1,0-0.2,0.1-0.2
			c0.2,0,0.6-0.1,1.1-0.1c1.7,0,2.7,1.2,2.7,3.1c0,1.2-0.4,2-1,2.4c-0.4,0.3-0.8,0.3-1.2,0.3c-0.7,0-1.4-0.1-1.6-0.3
			c-0.1,0-0.1-0.1-0.1-0.2V74.1z M179,80.7c0,1.5,0,2.7-0.1,3.4c-0.1,0.5-0.1,0.8-0.5,0.9c-0.1,0-0.3,0.1-0.5,0.1
			c-0.1,0-0.1,0-0.1,0.1c0,0.1,0.1,0.1,0.3,0.1c0.5,0,1.5,0,1.5,0c0.1,0,1.1,0,1.9,0c0.2,0,0.3,0,0.3-0.1c0,0,0-0.1-0.1-0.1
			c-0.1,0-0.5,0-0.7-0.1c-0.5-0.1-0.6-0.4-0.6-0.9c-0.1-0.7-0.1-1.9-0.1-3.4v-0.4c0-0.1,0-0.1,0.1-0.1l1.9,0c0.1,0,0.1,0,0.2,0.1
			c0.3,0.4,1.1,1.5,1.7,2.3c0.9,1.2,1.4,1.9,2.1,2.3c0.4,0.2,0.8,0.3,1.7,0.3h1.1c0.3,0,0.4,0,0.4-0.1c0,0-0.1-0.1-0.1-0.1
			c-0.1,0-0.3,0-0.6,0c-0.4-0.1-1.1-0.2-1.9-1.1c-0.9-1-2-2.4-3.3-4c1.4-1.3,1.9-2.5,1.9-3.6c0-1.1-0.7-1.9-1.1-2.1
			c-0.8-0.6-1.9-0.7-2.9-0.7c-0.5,0-1.7,0-1.9,0c-0.1,0-1.1,0-1.8,0c-0.2,0-0.3,0-0.3,0.1c0,0.1,0.1,0.1,0.1,0.1c0.1,0,0.4,0,0.5,0
			c0.5,0.1,0.6,0.4,0.7,0.9c0,0.5,0,0.9,0,3.4V80.7z M169.3,74.1c0-0.1,0-0.2,0.1-0.2c0.2,0,0.6-0.1,1.1-0.1c1.7,0,2.7,1.2,2.7,3.1
			c0,1.2-0.4,2-1,2.4c-0.4,0.3-0.8,0.3-1.2,0.3c-0.7,0-1.4-0.1-1.6-0.3c-0.1,0-0.1-0.1-0.1-0.2V74.1z M168,80.7c0,1.5,0,2.7-0.1,3.4
			c-0.1,0.5-0.1,0.8-0.5,0.9c-0.1,0-0.3,0.1-0.5,0.1c-0.1,0-0.1,0-0.1,0.1c0,0.1,0.1,0.1,0.3,0.1c0.5,0,1.5,0,1.5,0
			c0.1,0,1.1,0,1.9,0c0.2,0,0.3,0,0.3-0.1c0,0,0-0.1-0.1-0.1c-0.1,0-0.5,0-0.7-0.1c-0.5-0.1-0.6-0.4-0.6-0.9
			c-0.1-0.7-0.1-1.9-0.1-3.4v-0.4c0-0.1,0-0.1,0.1-0.1l1.9,0c0.1,0,0.1,0,0.2,0.1c0.3,0.4,1.1,1.5,1.7,2.3c0.9,1.2,1.4,1.9,2.1,2.3
			c0.4,0.2,0.8,0.3,1.7,0.3h1.1c0.3,0,0.4,0,0.4-0.1c0,0-0.1-0.1-0.1-0.1c-0.1,0-0.3,0-0.6,0c-0.4-0.1-1.1-0.2-1.9-1.1
			c-0.9-1-2-2.4-3.3-4c1.4-1.3,1.9-2.5,1.9-3.6c0-1.1-0.7-1.9-1.1-2.1c-0.8-0.6-1.9-0.7-2.9-0.7c-0.5,0-1.7,0-1.9,0
			c-0.1,0-1.1,0-1.8,0c-0.2,0-0.3,0-0.3,0.1c0,0.1,0.1,0.1,0.1,0.1c0.1,0,0.4,0,0.5,0c0.5,0.1,0.6,0.4,0.7,0.9c0,0.5,0,0.9,0,3.4
			V80.7z M159.2,80.7c0,1.5,0,2.7-0.1,3.4c-0.1,0.5-0.1,0.8-0.5,0.9c-0.1,0-0.3,0.1-0.5,0.1c-0.1,0-0.1,0-0.1,0.1
			c0,0.1,0.1,0.1,0.3,0.1c0.2,0,0.6,0,0.9,0c0.3,0,0.6,0,0.6,0c0.2,0,0.6,0,1.2,0c0.6,0,1.5,0,2.7,0c0.6,0,0.7,0,0.8-0.4
			c0.1-0.3,0.2-1.4,0.2-1.5c0-0.1,0-0.2-0.1-0.2c-0.1,0-0.1,0.1-0.1,0.2c-0.1,0.6-0.3,1-0.7,1.1c-0.4,0.2-1.1,0.2-1.5,0.2
			c-1.5,0-1.8-0.2-1.8-1.3c0-0.3,0-2.1,0-2.7v-1.4c0-0.1,0-0.1,0.1-0.1c0.3,0,1.8,0,2.2,0.1c0.6,0.1,0.8,0.3,0.8,0.5
			c0.1,0.2,0.1,0.4,0.1,0.5c0,0.1,0,0.1,0.1,0.1c0.1,0,0.1-0.2,0.1-0.3c0-0.1,0-0.7,0.1-1c0-0.5,0.1-0.8,0.1-0.9
			c0-0.1,0-0.1-0.1-0.1c-0.1,0-0.1,0.1-0.2,0.2c-0.1,0.2-0.4,0.2-0.7,0.2c-0.4,0-2.3,0-2.5,0c-0.1,0-0.1,0-0.1-0.2v-4.3
			c0-0.1,0-0.2,0.1-0.2c0.2,0,1.9,0,2.1,0c0.8,0.1,1,0.3,1.1,0.5c0.1,0.2,0.1,0.5,0.1,0.6c0,0.1,0,0.2,0.1,0.2
			c0.1,0,0.1-0.1,0.1-0.2c0-0.2,0.1-0.9,0.1-1c0-0.4,0.1-0.6,0.1-0.7c0-0.1,0-0.1-0.1-0.1c-0.1,0-0.1,0.1-0.2,0.1
			c-0.1,0-0.4,0.1-0.7,0.1c-0.4,0-3.5,0-3.6,0l-0.6,0c-0.3,0-0.8,0-1.1,0c-0.2,0-0.3,0-0.3,0.1c0,0.1,0.1,0.1,0.1,0.1
			c0.1,0,0.4,0,0.5,0c0.5,0.1,0.6,0.4,0.7,0.9c0,0.5,0,0.9,0,3.4V80.7z M152.7,85.4c1,0,2.2-0.1,2.8-0.4c0.3-0.1,0.3-0.2,0.4-0.5
			c0.2-0.5,0.3-1.9,0.3-2c0-0.1,0-0.2-0.1-0.2c-0.1,0-0.1,0.1-0.2,0.2c0,0.3-0.3,1-0.6,1.3c-0.6,0.6-1.6,0.8-2.7,0.8
			c-3.4,0-5.7-2.7-5.7-5.7c0-1.6,0.3-3,1.4-4.1c0.5-0.5,1.5-1.1,3.6-1.1c1.4,0,2.6,0.4,3.1,0.9c0.4,0.3,0.7,1,0.7,1.6
			c0,0.2,0,0.3,0.1,0.3c0.1,0,0.1-0.1,0.1-0.3c0-0.2,0-1.1,0-1.6c0-0.6,0.1-0.8,0.1-0.9c0-0.1,0-0.2-0.2-0.2c-0.5,0-1-0.1-1.6-0.2
			c-0.8-0.1-1.6-0.2-2.3-0.2c-2.4,0-3.8,0.7-4.8,1.7c-1.4,1.4-1.8,3.2-1.8,4.3c0,1.5,0.4,3.3,1.9,4.6
			C148.7,84.9,150.3,85.4,152.7,85.4 M142.8,77.9c0-2.4,0-2.9,0-3.4c0-0.5,0.2-0.8,0.6-0.9c0.2,0,0.3,0,0.4,0c0.1,0,0.1,0,0.1-0.1
			c0-0.1-0.1-0.1-0.3-0.1c-0.5,0-1.5,0-1.5,0c-0.1,0-1.1,0-1.6,0c-0.2,0-0.3,0-0.3,0.1c0,0.1,0.1,0.1,0.1,0.1c0.1,0,0.3,0,0.5,0.1
			c0.3,0.1,0.5,0.3,0.5,0.9c0,0.5,0,0.9,0,3.4v2.8c0,1.5,0,2.7-0.1,3.4c-0.1,0.5-0.1,0.8-0.5,0.9c-0.1,0-0.3,0.1-0.5,0.1
			c-0.1,0-0.1,0-0.1,0.1c0,0.1,0.1,0.1,0.3,0.1c0.5,0,1.5,0,1.5,0c0.1,0,1.1,0,1.9,0c0.2,0,0.3,0,0.3-0.1c0,0,0-0.1-0.1-0.1
			c-0.1,0-0.5,0-0.7-0.1c-0.5-0.1-0.6-0.4-0.6-0.9c-0.1-0.7-0.1-1.9-0.1-3.4V77.9z M131,75.3c-0.2-0.6-0.4-1.1-0.4-1.3
			c0-0.1,0-0.2,0.2-0.3c0.1-0.1,0.4-0.1,0.6-0.1c0.1,0,0.2,0,0.2-0.1c0-0.1-0.1-0.1-0.4-0.1c-0.6,0-1.3,0-1.5,0c-0.2,0-1.1,0-1.8,0
			c-0.3,0-0.4,0-0.4,0.1c0,0.1,0,0.1,0.1,0.1c0.1,0,0.4,0,0.6,0.1c0.5,0.2,0.8,0.3,1.1,1.2l3.8,9.6c0.3,0.8,0.4,1,0.6,1
			c0.2,0,0.2-0.3,0.7-1.2c0.4-0.8,1.1-2.5,2-4.8c0.8-1.9,1.6-3.8,1.8-4.2c0.4-1.1,0.7-1.3,0.9-1.5c0.3-0.2,0.6-0.2,0.8-0.2
			c0.1,0,0.2,0,0.2-0.1c0-0.1-0.1-0.1-0.3-0.1c-0.5,0-1.1,0-1.2,0c-0.2,0-0.9,0-1.5,0c-0.3,0-0.3,0-0.3,0.1c0,0.1,0.1,0.1,0.2,0.1
			c0.2,0,0.4,0,0.6,0.1c0.2,0.1,0.2,0.2,0.2,0.4c0,0.1-0.1,0.4-0.1,0.6c-0.3,1.1-2.4,6.6-3.4,8.7L131,75.3z"/>
	</g>
	<g>
		<g>
			<path fill="#FFFFFF" d="M3.4,116.6v-0.1h1.6v0.1H4.8c-0.2,0-0.3,0.1-0.4,0.2c0,0.1-0.1,0.2-0.1,0.5v1.8c0,0.4,0,0.8-0.1,1
				c-0.1,0.2-0.3,0.5-0.5,0.6C3.4,120.9,3,121,2.6,121c-0.5,0-0.9-0.1-1.1-0.3c-0.3-0.2-0.4-0.4-0.5-0.7c-0.1-0.2-0.1-0.6-0.1-1.1
				v-1.7c0-0.3,0-0.5-0.1-0.5c-0.1-0.1-0.2-0.1-0.4-0.1H0.2v-0.1h1.9v0.1H1.9c-0.2,0-0.3,0.1-0.4,0.2c-0.1,0.1-0.1,0.2-0.1,0.5v1.9
				c0,0.2,0,0.4,0,0.6c0,0.2,0.1,0.4,0.2,0.5c0.1,0.1,0.2,0.2,0.4,0.3c0.2,0.1,0.3,0.1,0.6,0.1c0.3,0,0.5-0.1,0.8-0.2
				c0.2-0.1,0.4-0.3,0.5-0.5c0.1-0.2,0.1-0.5,0.1-1v-1.8c0-0.3,0-0.5-0.1-0.5c-0.1-0.1-0.2-0.1-0.4-0.1H3.4z"/>
			<path fill="#FFFFFF" d="M4.9,116.5h1.2l2.7,3.3v-2.6c0-0.3,0-0.4-0.1-0.5c-0.1-0.1-0.2-0.1-0.4-0.1H8.2v-0.1h1.5v0.1H9.6
				c-0.2,0-0.3,0.1-0.4,0.2c0,0.1-0.1,0.2-0.1,0.5v3.7H9l-2.9-3.6v2.7c0,0.3,0,0.4,0.1,0.5c0.1,0.1,0.2,0.1,0.4,0.1h0.2v0.1H5.2
				v-0.1h0.2c0.2,0,0.3-0.1,0.4-0.2c0-0.1,0.1-0.2,0.1-0.5v-3.1c-0.1-0.2-0.2-0.3-0.3-0.3c-0.1,0-0.2-0.1-0.3-0.1
				c-0.1,0-0.2,0-0.3,0V116.5z"/>
			<path fill="#FFFFFF" d="M11.9,120.8v0.1H10v-0.1h0.2c0.2,0,0.3-0.1,0.4-0.2c0.1-0.1,0.1-0.2,0.1-0.5v-2.9c0-0.2,0-0.4,0-0.4
				c0-0.1-0.1-0.1-0.1-0.1c-0.1-0.1-0.2-0.1-0.3-0.1H10v-0.1h1.9v0.1h-0.2c-0.2,0-0.3,0.1-0.4,0.2c-0.1,0.1-0.1,0.2-0.1,0.5v2.9
				c0,0.2,0,0.4,0,0.4c0,0.1,0.1,0.1,0.1,0.1c0.1,0.1,0.2,0.1,0.3,0.1H11.9z"/>
			<path fill="#FFFFFF" d="M16.8,116.5v0.1c-0.2,0-0.3,0.1-0.4,0.2c-0.1,0.1-0.2,0.3-0.3,0.5l-1.5,3.8h-0.1l-1.7-3.8
				c-0.1-0.2-0.1-0.3-0.2-0.4c-0.1-0.1-0.1-0.1-0.2-0.2c-0.1,0-0.2-0.1-0.3-0.1v-0.1h1.8v0.1c-0.2,0-0.3,0.1-0.4,0.1
				c-0.1,0-0.1,0.1-0.1,0.2c0,0.1,0,0.3,0.2,0.5l1.1,2.6l1-2.6c0.1-0.3,0.2-0.4,0.2-0.5c0-0.1,0-0.1-0.1-0.2
				c-0.1-0.1-0.2-0.1-0.3-0.1c0,0,0,0-0.1,0v-0.1H16.8z"/>
			<path fill="#FFFFFF" d="M18.3,116.7v1.8h1c0.3,0,0.4,0,0.5-0.1c0.1-0.1,0.2-0.3,0.2-0.5h0.1v1.5H20c0-0.2-0.1-0.4-0.1-0.4
				c0-0.1-0.1-0.1-0.2-0.2c-0.1,0-0.2-0.1-0.4-0.1h-1v1.5c0,0.2,0,0.3,0,0.4c0,0,0,0.1,0.1,0.1c0,0,0.1,0,0.2,0h0.8
				c0.3,0,0.4,0,0.5-0.1c0.1,0,0.2-0.1,0.3-0.2c0.1-0.1,0.3-0.3,0.4-0.6h0.1l-0.4,1.1H17v-0.1h0.2c0.1,0,0.2,0,0.3-0.1
				c0.1,0,0.1-0.1,0.1-0.2c0-0.1,0-0.2,0-0.4v-2.9c0-0.3,0-0.5-0.1-0.5c-0.1-0.1-0.2-0.1-0.4-0.1H17v-0.1h3.4l0,1h-0.1
				c0-0.2-0.1-0.4-0.2-0.5c-0.1-0.1-0.1-0.2-0.2-0.2c-0.1,0-0.2,0-0.5,0H18.3z"/>
			<path fill="#FFFFFF" d="M22.1,118.6c0,0,0.1,0,0.1,0h0.1c0.4,0,0.7-0.1,1-0.3c0.2-0.2,0.3-0.4,0.3-0.7c0-0.3-0.1-0.5-0.3-0.7
				c-0.2-0.2-0.4-0.3-0.7-0.3c-0.1,0-0.3,0-0.5,0.1V118.6z M25.3,120.9h-1.2l-1.5-2.1c-0.1,0-0.2,0-0.3,0h-0.1c0,0-0.1,0-0.1,0v1.3
				c0,0.3,0,0.5,0.1,0.5c0.1,0.1,0.2,0.1,0.4,0.1h0.2v0.1h-1.9v-0.1H21c0.2,0,0.3-0.1,0.4-0.2c0-0.1,0.1-0.2,0.1-0.5v-2.9
				c0-0.3,0-0.5-0.1-0.5c-0.1-0.1-0.2-0.1-0.4-0.1h-0.2v-0.1h1.6c0.5,0,0.8,0,1,0.1c0.2,0.1,0.4,0.2,0.6,0.4
				c0.2,0.2,0.2,0.4,0.2,0.7c0,0.3-0.1,0.5-0.3,0.7c-0.2,0.2-0.5,0.3-0.8,0.4l0.9,1.3c0.2,0.3,0.4,0.5,0.5,0.6
				c0.2,0.1,0.3,0.2,0.6,0.2V120.9z"/>
			<path fill="#FFFFFF" d="M30.3,120.8v0.1h-1.9v-0.1h0.2c0.2,0,0.3-0.1,0.4-0.2c0.1-0.1,0.1-0.2,0.1-0.5v-2.9c0-0.2,0-0.4,0-0.4
				c0-0.1-0.1-0.1-0.1-0.1c-0.1-0.1-0.2-0.1-0.3-0.1h-0.2v-0.1h1.9v0.1h-0.2c-0.2,0-0.3,0.1-0.4,0.2c-0.1,0.1-0.1,0.2-0.1,0.5v2.9
				c0,0.2,0,0.4,0,0.4c0,0.1,0.1,0.1,0.1,0.1c0.1,0.1,0.2,0.1,0.3,0.1H30.3z"/>
			<path fill="#FFFFFF" d="M32,120.6c0.3,0.1,0.5,0.1,0.7,0.1c0.5,0,0.9-0.2,1.3-0.5c0.3-0.4,0.5-0.8,0.5-1.4c0-0.6-0.2-1.1-0.5-1.5
				c-0.3-0.4-0.8-0.5-1.3-0.5c-0.2,0-0.4,0-0.7,0.1V120.6z M30.7,120.9v-0.1h0.2c0.2,0,0.3-0.1,0.4-0.2c0-0.1,0.1-0.2,0.1-0.5v-2.9
				c0-0.3,0-0.5-0.1-0.5c-0.1-0.1-0.2-0.1-0.4-0.1h-0.2v-0.1h1.8c0.7,0,1.2,0.1,1.5,0.2c0.3,0.2,0.6,0.4,0.8,0.8
				c0.2,0.4,0.3,0.8,0.3,1.2c0,0.6-0.2,1.1-0.6,1.5c-0.4,0.5-1.1,0.7-1.9,0.7H30.7z"/>
			<path fill="#FFFFFF" d="M37.7,119.2l-0.8-1.8l-0.8,1.8H37.7z M37.8,119.4h-1.7l-0.3,0.7c-0.1,0.2-0.1,0.3-0.1,0.4
				c0,0.1,0,0.1,0.1,0.2c0.1,0,0.2,0.1,0.4,0.1v0.1h-1.4v-0.1c0.2,0,0.3-0.1,0.4-0.1c0.1-0.1,0.2-0.3,0.4-0.6l1.6-3.7h0.1l1.5,3.7
				c0.1,0.3,0.2,0.5,0.3,0.6c0.1,0.1,0.2,0.1,0.4,0.1v0.1h-1.8v-0.1c0.2,0,0.3,0,0.4-0.1c0.1-0.1,0.1-0.1,0.1-0.2
				c0-0.1,0-0.2-0.1-0.5L37.8,119.4z"/>
			<path fill="#FFFFFF" d="M40.8,120.6c0.3,0.1,0.5,0.1,0.7,0.1c0.5,0,0.9-0.2,1.3-0.5c0.3-0.4,0.5-0.8,0.5-1.4
				c0-0.6-0.2-1.1-0.5-1.5c-0.3-0.4-0.8-0.5-1.3-0.5c-0.2,0-0.4,0-0.7,0.1V120.6z M39.5,120.9v-0.1h0.2c0.2,0,0.3-0.1,0.4-0.2
				c0-0.1,0.1-0.2,0.1-0.5v-2.9c0-0.3,0-0.5-0.1-0.5c-0.1-0.1-0.2-0.1-0.4-0.1h-0.2v-0.1h1.8c0.7,0,1.2,0.1,1.5,0.2
				c0.3,0.2,0.6,0.4,0.8,0.8c0.2,0.4,0.3,0.8,0.3,1.2c0,0.6-0.2,1.1-0.6,1.5c-0.4,0.5-1.1,0.7-1.9,0.7H39.5z"/>
			<path fill="#FFFFFF" d="M28,116.4l0.2,1.4H28c0-0.1-0.1-0.4-0.2-0.6c-0.1-0.2-0.3-0.3-0.4-0.4c-0.2-0.1-0.4-0.2-0.6-0.2
				c-0.2,0-0.4,0.1-0.6,0.3c-0.1,0.1-0.1,0.3-0.1,0.4c0,0.1,0,0.3,0.1,0.4c0.2,0.2,0.4,0.3,0.9,0.7c0.3,0.2,0.6,0.4,0.8,0.6
				c0.1,0.1,0.2,0.2,0.3,0.3c0.1,0.2,0.1,0.4,0.1,0.6c0,0.3-0.1,0.6-0.3,0.8c-0.3,0.3-0.7,0.4-1,0.4c-0.1,0-0.2,0-0.4,0
				c-0.2,0-0.2,0-0.4-0.1c-0.2-0.1-0.3-0.1-0.3-0.1c-0.1,0-0.1,0-0.1,0.1c0,0,0,0.1-0.1,0.2h-0.2l-0.2-1.4h0.2
				c0.1,0.3,0.2,0.5,0.4,0.7c0.1,0.2,0.2,0.3,0.4,0.4c0.2,0.1,0.3,0.1,0.6,0.1c0.2,0,0.4,0,0.6-0.2c0.1-0.1,0.2-0.2,0.2-0.5
				c0-0.1,0-0.3-0.1-0.4c-0.1-0.1-0.1-0.1-0.2-0.2c-0.1-0.1-0.3-0.2-0.6-0.4c-0.5-0.3-0.7-0.4-1-0.7c-0.1-0.1-0.1-0.2-0.2-0.3
				c0-0.1-0.1-0.2-0.1-0.4c0-0.3,0.1-0.5,0.3-0.8c0.3-0.3,0.6-0.4,0.9-0.4c0.2,0,0.5,0.1,0.8,0.2c0.1,0,0.1,0,0.2,0
				c0.1,0,0.1,0,0.1-0.1c0-0.1,0.1-0.1,0.1-0.2H28z"/>
			<path fill="#FFFFFF" d="M52.7,119.2l-0.8-1.8l-0.8,1.8H52.7z M52.8,119.4h-1.7l-0.3,0.7c-0.1,0.2-0.1,0.3-0.1,0.4
				c0,0.1,0,0.1,0.1,0.2c0.1,0,0.2,0.1,0.4,0.1v0.1h-1.4v-0.1c0.2,0,0.3-0.1,0.4-0.1c0.1-0.1,0.2-0.3,0.4-0.6l1.6-3.7h0.1l1.5,3.7
				c0.1,0.3,0.2,0.5,0.3,0.6c0.1,0.1,0.2,0.1,0.4,0.1v0.1h-1.8v-0.1c0.2,0,0.3,0,0.4-0.1c0.1-0.1,0.1-0.1,0.1-0.2
				c0-0.1,0-0.2-0.1-0.5L52.8,119.4z"/>
			<path fill="#FFFFFF" d="M54.2,116.5h1.2l2.7,3.3v-2.6c0-0.3,0-0.4-0.1-0.5c-0.1-0.1-0.2-0.1-0.4-0.1h-0.2v-0.1h1.5v0.1h-0.2
				c-0.2,0-0.3,0.1-0.4,0.2c0,0.1-0.1,0.2-0.1,0.5v3.7h-0.1l-2.9-3.6v2.7c0,0.3,0,0.4,0.1,0.5c0.1,0.1,0.2,0.1,0.4,0.1H56v0.1h-1.5
				v-0.1h0.2c0.2,0,0.3-0.1,0.4-0.2c0-0.1,0.1-0.2,0.1-0.5v-3.1c-0.1-0.2-0.2-0.3-0.3-0.3c-0.1,0-0.2-0.1-0.3-0.1
				c-0.1,0-0.2,0-0.3,0V116.5z"/>
			<path fill="#FFFFFF" d="M63,116.5l0,1H63c0-0.2-0.1-0.3-0.1-0.4c-0.1-0.1-0.2-0.2-0.3-0.3c-0.1-0.1-0.3-0.1-0.4-0.1h-0.6v3.4
				c0,0.3,0,0.4,0.1,0.5c0.1,0.1,0.2,0.1,0.4,0.1h0.2v0.1h-1.9v-0.1h0.2c0.2,0,0.3-0.1,0.4-0.2c0-0.1,0.1-0.2,0.1-0.5v-3.4h-0.5
				c-0.2,0-0.4,0-0.4,0c-0.1,0-0.2,0.1-0.3,0.2c-0.1,0.1-0.1,0.3-0.1,0.5h-0.1l0.1-1H63z"/>
			<path fill="#FFFFFF" d="M65.5,116.6c-0.4,0-0.7,0.1-1,0.4c-0.3,0.4-0.4,0.9-0.4,1.6c0,0.7,0.2,1.3,0.5,1.7
				c0.2,0.3,0.6,0.4,0.9,0.4c0.4,0,0.8-0.2,1-0.5c0.3-0.3,0.4-0.8,0.4-1.5c0-0.8-0.1-1.3-0.4-1.7C66.3,116.8,65.9,116.6,65.5,116.6
				 M65.6,116.4c0.6,0,1.1,0.2,1.5,0.7c0.4,0.4,0.6,1,0.6,1.6c0,0.7-0.2,1.2-0.6,1.7c-0.4,0.4-0.9,0.7-1.5,0.7
				c-0.6,0-1.1-0.2-1.5-0.7c-0.4-0.4-0.6-1-0.6-1.7c0-0.7,0.2-1.3,0.7-1.7C64.5,116.6,65,116.4,65.6,116.4"/>
			<path fill="#FFFFFF" d="M49.3,116.4l0.2,1.4h-0.2c0-0.1-0.1-0.4-0.2-0.6c-0.1-0.2-0.3-0.3-0.4-0.4c-0.2-0.1-0.4-0.2-0.6-0.2
				c-0.2,0-0.4,0.1-0.6,0.3c-0.1,0.1-0.1,0.3-0.1,0.4c0,0.1,0,0.3,0.1,0.4c0.2,0.2,0.4,0.3,0.9,0.7c0.3,0.2,0.6,0.4,0.8,0.6
				c0.1,0.1,0.2,0.2,0.3,0.3c0.1,0.2,0.1,0.4,0.1,0.6c0,0.3-0.1,0.6-0.3,0.8c-0.3,0.3-0.7,0.4-1,0.4c-0.1,0-0.2,0-0.4,0
				c-0.2,0-0.2,0-0.4-0.1c-0.2-0.1-0.3-0.1-0.3-0.1c0,0-0.1,0-0.1,0.1c0,0,0,0.1-0.1,0.2h-0.2l-0.2-1.4h0.2c0.1,0.3,0.2,0.5,0.4,0.7
				c0.1,0.2,0.2,0.3,0.4,0.4c0.2,0.1,0.3,0.1,0.6,0.1c0.2,0,0.4,0,0.6-0.2c0.1-0.1,0.2-0.2,0.2-0.5c0-0.1,0-0.3-0.1-0.4
				c-0.1-0.1-0.1-0.1-0.2-0.2c-0.1-0.1-0.3-0.2-0.6-0.4c-0.5-0.3-0.7-0.4-1-0.7c-0.1-0.1-0.1-0.2-0.2-0.3c0-0.1-0.1-0.2-0.1-0.4
				c0-0.3,0.1-0.5,0.3-0.8c0.3-0.3,0.6-0.4,0.9-0.4c0.2,0,0.5,0.1,0.8,0.2c0.1,0,0.1,0,0.2,0c0.1,0,0.1,0,0.1-0.1
				c0-0.1,0.1-0.1,0.1-0.2H49.3z"/>
			<path fill="#FFFFFF" d="M73.5,116.5l0,1h-0.1c0-0.2-0.1-0.3-0.1-0.4c-0.1-0.1-0.2-0.2-0.3-0.3c-0.1-0.1-0.3-0.1-0.4-0.1H72v3.4
				c0,0.3,0,0.4,0.1,0.5c0.1,0.1,0.2,0.1,0.4,0.1h0.2v0.1h-1.9v-0.1h0.2c0.2,0,0.3-0.1,0.4-0.2c0-0.1,0.1-0.2,0.1-0.5v-3.4h-0.5
				c-0.2,0-0.4,0-0.4,0c-0.1,0-0.2,0.1-0.3,0.2c-0.1,0.1-0.1,0.3-0.1,0.5h-0.1l0.1-1H73.5z"/>
			<path fill="#FFFFFF" d="M75.9,116.6c-0.4,0-0.7,0.1-1,0.4c-0.3,0.4-0.5,0.9-0.5,1.6c0,0.7,0.2,1.3,0.5,1.7
				c0.2,0.3,0.6,0.4,0.9,0.4c0.4,0,0.8-0.2,1-0.5c0.3-0.3,0.4-0.8,0.4-1.5c0-0.8-0.1-1.3-0.4-1.7C76.7,116.8,76.4,116.6,75.9,116.6
				 M76,116.4c0.6,0,1.1,0.2,1.5,0.7c0.4,0.4,0.6,1,0.6,1.6c0,0.7-0.2,1.2-0.6,1.7c-0.4,0.4-0.9,0.7-1.5,0.7c-0.6,0-1.1-0.2-1.5-0.7
				c-0.4-0.4-0.6-1-0.6-1.7c0-0.7,0.2-1.3,0.7-1.7C74.9,116.6,75.4,116.4,76,116.4"/>
			<path fill="#FFFFFF" d="M81,120.9l-1.7-3.7v3c0,0.3,0,0.4,0.1,0.5c0.1,0.1,0.2,0.1,0.4,0.1h0.2v0.1h-1.5v-0.1h0.2
				c0.2,0,0.3-0.1,0.4-0.2c0-0.1,0.1-0.2,0.1-0.5v-2.9c0-0.2,0-0.3-0.1-0.4c0-0.1-0.1-0.1-0.2-0.2c-0.1,0-0.2-0.1-0.4-0.1v-0.1h1.3
				l1.6,3.5l1.6-3.5H84v0.1h-0.2c-0.2,0-0.3,0.1-0.4,0.2c0,0.1-0.1,0.2-0.1,0.5v2.9c0,0.3,0,0.4,0.1,0.5c0.1,0.1,0.2,0.1,0.4,0.1H84
				v0.1h-1.9v-0.1h0.2c0.2,0,0.3-0.1,0.4-0.2c0-0.1,0.1-0.2,0.1-0.5v-3l-1.7,3.7H81z"/>
			<path fill="#FFFFFF" d="M87,119.2l-0.8-1.8l-0.8,1.8H87z M87.1,119.4h-1.7l-0.3,0.7c-0.1,0.2-0.1,0.3-0.1,0.4
				c0,0.1,0,0.1,0.1,0.2c0.1,0,0.2,0.1,0.4,0.1v0.1H84v-0.1c0.2,0,0.3-0.1,0.4-0.1c0.1-0.1,0.2-0.3,0.4-0.6l1.6-3.7h0.1l1.5,3.7
				c0.1,0.3,0.2,0.5,0.3,0.6c0.1,0.1,0.2,0.1,0.4,0.1v0.1H87v-0.1c0.2,0,0.3,0,0.4-0.1c0.1-0.1,0.1-0.1,0.1-0.2c0-0.1,0-0.2-0.1-0.5
				L87.1,119.4z"/>
			<path fill="#FFFFFF" d="M91.7,116.4l0.2,1.4h-0.2c0-0.1-0.1-0.4-0.2-0.6c-0.1-0.2-0.3-0.3-0.4-0.4c-0.2-0.1-0.4-0.2-0.6-0.2
				c-0.2,0-0.4,0.1-0.6,0.3c-0.1,0.1-0.1,0.3-0.1,0.4c0,0.1,0,0.3,0.1,0.4c0.2,0.2,0.4,0.3,0.9,0.7c0.3,0.2,0.6,0.4,0.8,0.6
				c0.1,0.1,0.2,0.2,0.3,0.3c0.1,0.2,0.1,0.4,0.1,0.6c0,0.3-0.1,0.6-0.3,0.8c-0.3,0.3-0.7,0.4-1,0.4c-0.1,0-0.2,0-0.4,0
				c-0.2,0-0.2,0-0.4-0.1c-0.2-0.1-0.3-0.1-0.3-0.1c-0.1,0-0.1,0-0.1,0.1c0,0,0,0.1-0.1,0.2h-0.1l-0.2-1.4h0.2
				c0.1,0.3,0.2,0.5,0.4,0.7c0.1,0.2,0.2,0.3,0.4,0.4c0.2,0.1,0.3,0.1,0.6,0.1c0.2,0,0.4,0,0.6-0.2c0.1-0.1,0.2-0.2,0.2-0.5
				c0-0.1,0-0.3-0.1-0.4c-0.1-0.1-0.1-0.1-0.2-0.2c-0.1-0.1-0.3-0.2-0.6-0.4c-0.5-0.3-0.7-0.4-1-0.7c-0.1-0.1-0.1-0.2-0.2-0.3
				c0-0.1-0.1-0.2-0.1-0.4c0-0.3,0.1-0.5,0.3-0.8c0.3-0.3,0.6-0.4,0.9-0.4c0.2,0,0.5,0.1,0.8,0.2c0.1,0,0.1,0,0.2,0
				c0.1,0,0.1,0,0.1-0.1c0-0.1,0.1-0.1,0.1-0.2H91.7z"/>
		</g>
		<rect x="0.2" y="112.1" fill="#FFFFFF" width="91.8" height="0.8"/>
		<g>
			<path fill="#FFFFFF" d="M25.2,73.2v-1h12.5v1h-1.3c-1.4,0-2.5,0.6-3.2,1.8c-0.4,0.5-0.5,1.8-0.5,3.8v14.4c0,3.6-0.4,6.3-1.1,8.3
				c-0.7,2-2.1,3.6-4.2,5c-2.1,1.4-4.9,2.1-8.4,2.1c-3.9,0-6.8-0.7-8.8-2c-2-1.3-3.4-3.1-4.3-5.4c-0.6-1.5-0.8-4.5-0.8-8.7V78.5
				c0-2.2-0.3-3.6-0.9-4.3c-0.6-0.7-1.6-1-2.9-1H0v-1h15.3v1H14c-1.5,0-2.5,0.5-3.1,1.4c-0.4,0.6-0.7,1.9-0.7,3.9v15.4
				c0,1.4,0.1,3,0.4,4.7c0.3,1.8,0.7,3.2,1.4,4.2c0.7,1,1.6,1.8,2.8,2.5c1.3,0.6,2.8,1,4.6,1c2.3,0,4.4-0.5,6.2-1.5
				c1.8-1,3.1-2.3,3.7-3.9c0.7-1.6,1-4.3,1-8V78.5c0-2.2-0.2-3.6-0.7-4.2c-0.7-0.8-1.7-1.1-3-1.1H25.2z"/>
			<path fill="#FFFFFF" d="M58.4,71.8l1.2,11.3h-1.3c-0.2-0.8-0.9-3-1.8-4.5c-0.8-1.3-2-2.5-3.5-3.4c-1.5-0.8-3-1.3-4.7-1.3
				c-1.7,0-3.3,0.7-4.4,2c-0.8,1-0.9,2.2-0.9,2.8c0,1.1,0.2,2.3,1.2,3.4c1.3,1.5,3.1,2.7,7.2,5.2c2,1.2,4.6,2.8,6.2,4.3
				c0.9,0.8,1.4,1.3,2.1,2.6c0.8,1.2,1.1,2.8,1.1,4.3c0,2.4-0.7,4.5-2.7,6.6c-2.4,2.5-5.8,3.2-8.2,3.2c-1.1,0-1.9-0.1-3-0.3
				c-1.5-0.3-1.4-0.3-3.2-0.9c-1.5-0.5-2.2-0.7-2.5-0.7c-0.4,0-0.9,0.2-1.1,0.5c-0.1,0.2-0.3,0.5-0.4,1.2h-1.2l-1.6-11.3h1.3
				c0.8,2.3,1.8,4.1,2.9,5.5c1,1.2,2,2.2,3.4,2.8c1.3,0.6,2.4,1.2,4.7,1.2c1.3,0,3.1-0.3,4.8-1.9c0.5-0.4,1.6-1.7,1.6-4.2
				c0-0.9-0.2-2.1-0.8-3c-0.5-0.9-0.8-1.1-1.3-1.7c-0.9-0.8-2-1.6-4.8-3.3c-4.2-2.7-5.9-3.4-7.8-5.3c-1.1-1.1-1.2-1.4-1.8-2.4
				c-0.3-0.6-0.9-1.9-0.8-3.5c0-2.2,0.6-4.3,2.4-6.4c2-2.1,4.5-2.9,7.4-2.9c1.9,0,3.9,0.7,6.1,1.5c0.9,0.3,1,0.3,1.5,0.3
				c0.5,0,0.8-0.1,1.1-0.4c0.4-0.5,0.5-0.8,0.6-1.4H58.4z"/>
			<path fill="#FFFFFF" d="M91.8,72.2l0.4,8.3h-1c-0.2-1.5-0.5-2.5-0.8-3.1c-0.5-1-1.3-1.7-2.2-2.2c-0.9-0.5-2.1-0.7-3.5-0.7h-5
				v27.1c0,2.2,0.2,3.5,0.7,4.1c0.7,0.7,1.7,1.1,3.1,1.1h1.2v1h-15v-1H71c1.5,0,2.6-0.5,3.2-1.4c0.4-0.6,0.6-1.8,0.6-3.8V74.4h-4.3
				c-1.7,0-2.8,0.1-3.5,0.4c-0.9,0.3-1.7,1-2.3,1.9c-0.6,0.9-1,2.2-1.1,3.8h-1l0.4-8.3H91.8z"/>
		</g>
		<polygon fill="#FFFFFF" points="88.1,115.4 87.1,116.4 87,116.4 87.4,115.4 		"/>
		<g>
			<path fill="#FFFFFF" d="M89.9,105.1c0.2,0,0.4,0,0.5,0.1c0.2,0.1,0.3,0.3,0.3,0.5c0,0.2-0.1,0.3-0.2,0.4c-0.1,0-0.2,0.1-0.3,0.1
				c0.2,0,0.3,0.1,0.3,0.2c0.1,0.1,0.1,0.2,0.1,0.3v0.1c0,0,0,0.1,0,0.1c0,0.1,0,0.1,0,0.1l0,0h-0.3c0,0,0,0,0,0c0,0,0,0,0,0l0-0.1
				v-0.2c0-0.2-0.1-0.4-0.2-0.5c-0.1,0-0.2-0.1-0.4-0.1h-0.3v0.8h-0.4v-2H89.9z M90.3,105.4c-0.1,0-0.2-0.1-0.4-0.1h-0.3v0.7h0.3
				c0.1,0,0.3,0,0.3,0c0.1-0.1,0.2-0.2,0.2-0.3C90.4,105.6,90.4,105.5,90.3,105.4 M91.3,107.4c-0.4,0.4-0.8,0.5-1.3,0.5
				c-0.5,0-0.9-0.2-1.3-0.5c-0.4-0.4-0.5-0.8-0.5-1.3c0-0.5,0.2-0.9,0.5-1.3c0.4-0.4,0.8-0.5,1.3-0.5c0.5,0,0.9,0.2,1.3,0.5
				c0.4,0.4,0.5,0.8,0.5,1.3C91.8,106.6,91.6,107.1,91.3,107.4 M88.9,105c-0.3,0.3-0.5,0.7-0.5,1.1c0,0.4,0.2,0.8,0.5,1.1
				c0.3,0.3,0.7,0.5,1.1,0.5c0.4,0,0.8-0.2,1.1-0.5c0.3-0.3,0.5-0.7,0.5-1.1c0-0.4-0.2-0.8-0.5-1.1c-0.3-0.3-0.7-0.5-1.1-0.5
				C89.5,104.5,89.2,104.7,88.9,105"/>
		</g>
		<g>
			<g>
				<g>
					<path fill="#FFFFFF" d="M46.2,53.7c-14.8,0-26.9-12.1-26.9-26.9C19.3,12.1,31.3,0,46.2,0C61,0,73,12.1,73,26.9
						C73,41.7,61,53.7,46.2,53.7z M46.2,1.1c-14.2,0-25.8,11.6-25.8,25.8c0,14.2,11.6,25.8,25.8,25.8C60.4,52.7,72,41.1,72,26.9
						C72,12.6,60.4,1.1,46.2,1.1z"/>
				</g>
				<g>
					<path fill="#FFFFFF" d="M59.9,29.8l-0.8-0.2c0.2-0.9,0.3-1.9,0.3-2.8c0-7.4-6-13.4-13.4-13.4c-6.6,0-12.1,4.7-13.2,11.2
						l-0.8-0.1c1.1-6.9,7-11.8,14-11.8c7.8,0,14.2,6.4,14.2,14.2C60.2,27.8,60.1,28.8,59.9,29.8z"/>
				</g>
				<path fill="none" stroke="#FFFFFF" stroke-width="1.115" stroke-linecap="round" stroke-miterlimit="3.864" d="M39.9,39.1
					c-1.1-0.6-2.1-1.2-3-2"/>
				<path fill-rule="evenodd" clip-rule="evenodd" fill="#FFFFFF" d="M43.8,43.8c-0.6-1.9-1-3.3-1-5.2c0-1.3,0.5-2.5,0.2-3.8
					c1.4,0.4,0.9,1.9,2.1,1.9c-0.2-0.3-0.4-0.5-0.5-0.8c0-0.5-0.4-0.8-0.6-1.1c0,0-0.2-0.2-0.2-0.2c0.7,0,1.7,2,2.3,2.4
					c0.2,0.2-0.1,0.7,0.6,0.6c0-0.2,0-0.2,0-0.3c0-0.3,0.2-0.4,0.1-0.7c0.2,0.1,0.2,0.1,0.2,0.2c0,0.1,0.6,0.7,0.7,0.7
					c-0.1,0-0.3,0.1-0.3,0.2c0,0.4,1.6,1,2.1,1.1c0.4,0,0.3-0.2,0.3-0.4c-0.9-0.6-2.2-1.1-2.5-2.1c-0.5-0.3-1-0.5-1.4-0.9
					c-0.5-0.5-0.6-1.1-1.5-1.2c-0.1,0-0.2,0-0.3-0.1c0.1-0.2,0.3-0.2,0.4-0.2c0.1,0,2.1,0.8,2.3,0.9c0.2,0,0.3,0,0.4-0.1
					c-0.2-0.3-1.2-0.5-1.2-0.8l0.2-0.1c0.9,0,1.7,0.5,2.6,0.7c0-0.2-0.1-0.4-0.2-0.5c0.1-0.1,0.3-0.1,0.5-0.1c0.4,0,0.9,0.3,1.4,0.4
					c0.6-0.2,1.1-0.2,1.6-0.2c1.6,0,1,0.7,1.8,0.7c0.2,0,0.3-0.1,0.3-0.2c0-0.2-0.4-0.8-0.8-0.8c-0.2,0-0.5-0.1-0.5-0.3
					c-0.3,0-2.5-0.2-2.6-0.3c1.8-0.4,2.6-1.5,3.9-2.5c0.1,0,0.2,0,0.4,0c0.4,0,0.8,0.2,1.1,0.3c0,0.2,0.1,0.3,0.1,0.5
					c0,0.4-0.1,0.7-0.1,1.1c0,0.2,0,0.4,0.1,0.5c-0.1,0.1-0.2,0-0.3,0c-0.8,0-0.3,2.4-1.7,2.4l-0.3-0.2c-0.3,0-1,0.1-1.3,0.1
					c-0.1,0-0.3-0.2-0.4-0.2c-0.1,0.1-1.3-0.4-1.5-0.5c-0.1,0-0.2,0-0.3,0c-0.2,0-0.2-0.1-0.4-0.1c-0.1,0-0.2,0-0.3,0
					c1.2,0.7,2.7,1.1,4.2,1.1c0.9,0,0.9-0.1,1.7-0.5c1.3-0.7,1-2,1-3.1c0-0.3,0-0.7,0.2-1l0.2,0c0.6,0.5,0.3,1.4,1.1,1.8
					c0,0.1,0.1,0.2,0.1,0.3c0,0.7-0.7,1.3-0.7,2.1c0,0.1,0,0.2,0.1,0.3c0,0,0.4,0,0.4,0.1c0,0.2-0.5,0.5-0.7,0.6l-0.3-0.1
					C56.1,37.3,55,38.4,55,39c0,0-0.3,0.2-0.4,0.2c-1.3,0-2.5-0.4-3.8-0.4c-0.1,0-0.2,0-0.3,0c0.6,0.1,1.6,0.4,1.9,0.8
					c-0.7,0.3-1.4,0.3-2.1,0.3c-0.9,0-2.1,0.2-3,0.4c0.6-0.4,1.4-0.1,1.8-0.5c-0.2,0-0.5-0.1-0.7-0.1c-0.5,0-1.1,0.1-1.5,0.3
					c-0.2,0.2-0.4,0.4-0.8,0.5c-0.4-0.4-1.2-0.7-1.2-1.3c-1-0.6-0.2-2.3-0.9-2.3c-0.1,0.8,0,1.5,0,2.2c0,0.1,0,0.4,0.2,0.4
					c0.1,0,0.2-0.1,0.2-0.1c0,0.1-0.2,0.2-0.2,0.2l0.1,0.2c0.5,0.2,0.4,0.6,1.1,0.6c0.4,0,0.2,0.4,0.5,0.4c0.2,0,0.5-0.1,0.8-0.1
					c-0.2,0.2-0.3,0.2-0.3,0.3c0.4,0.1,0.6,0,0.8,0c0.2,0,0.2,0.1,0.4,0.1c0.3,0,0.5-0.2,0.5-0.3l0.4-0.1c0,0.1-0.1,0.2,0,0.3
					c-0.7,0.3-1.8,0.2-2.4,0.6c-0.2,0.2-0.5,1.1-0.8,1.1c0-0.2,0.4-0.3,0.1-0.5c0.1-0.2,0.1-0.4,0.1-0.6c0-0.2-0.6-1.4-0.9-1.4
					c-0.1,0.6,0.2,0.9,0,1.3c0,0.1,0.3,0,0.5,0.2c-0.3,0.4-0.4,0.8-0.6,1.2c0,0-0.1,0.9,0,1C44.4,44.1,43.9,44.2,43.8,43.8 M51,35
					l0-0.4l1.2,0.5c0.2,0,0.3,0,0.5,0.1c0,0.1,0.2,0.1,0.2,0.2c0,0.1-0.2,0.1-0.2,0.1C52.5,35.5,51.2,35.1,51,35 M54.9,37.9l0.2-0.2
					C55.1,37.8,55,37.9,54.9,37.9L54.9,37.9z M53.6,39c-0.2,0-0.7-0.1-0.6-0.3c-0.9,0-2,0-2.8-0.4c0.7-0.1,1.4-0.2,2.1-0.2
					c0.6,0,1,0.1,1.6,0.3c0.1,0.1,0,0.3,0.1,0.4c0,0,0.2,0,0.3,0C54.1,39,53.8,39,53.6,39 M42.3,41.9c-0.1-0.1-0.1-0.3-0.1-0.4
					c0.2-0.1,0.2,0,0.3,0C42.4,41.8,42.4,41.9,42.3,41.9L42.3,41.9z M45.6,43.2c0.1-0.4,0.9-0.7,1.2-1l0.3,0c-0.5,0.4-0.6,0.8-1.2,1
					C45.9,43.2,45.7,43.2,45.6,43.2 M55.5,34.4l0.3-0.7c0,0.1,0,0.2,0,0.2C55.8,34.2,55.7,34.4,55.5,34.4 M39.9,34.5
					c0.1-0.2,0-0.2,0.1-0.2l0.2,0l0.3,0.2c0.1,0.2,0,0.3-0.1,0.2l-0.4-0.1L39.9,34.5z M39.4,36.8c0.3,0.1,0.6,0.1,0.9,0.1
					c0.1-0.1-0.2-0.4-0.3-0.4c-0.4-0.1-0.7-0.2-1-0.4c-0.1,0-0.2-0.2-0.2-0.3c0.2,0,0.9,0.2,1.1,0.2c0.1,0,0.3-0.1,0.3-0.2
					c0-0.2-1.8-0.5-1.8-0.9c0.7-0.1,1.3,0.2,1.9,0.2c0.4,0,0.8-0.2,1.2-0.2l0.4,0.2c0.2,0.3,0.5,0.7,0.5,1.1v0.3
					c0,0.2-0.1,0.5-0.2,0.7c-0.5,0-0.8,0.1-1.1,0.1C40.8,37.3,39.4,37,39.4,36.8 M35.6,38.5l-0.5,0c-0.1-0.1-0.5-0.3-0.6-0.4
					c-1.7-2.8-3.7-5.3-5.4-8.1c1.1,1.5,2.4,2.8,3.4,4.3c0.7,1,1,2,1.7,3C34.6,37.7,35.1,38.2,35.6,38.5 M41.6,38.1l0.2-0.2l0.2,0
					l-0.2,0.2L41.6,38.1z M40.2,40.5c-0.2-0.9-0.6-1.5-0.6-2.4c0-0.2,0.3-0.2,0.4-0.2h0.3c0.3,0,0.6,0.1,0.8,0.1l0,0.2
					c-0.4,0-0.6-0.1-0.9-0.1c-0.1,0-0.3,0.1-0.4,0.2c0,0.2,0.1,0.3,0.2,0.3L40.2,40.5z M42.9,34.6l-0.6-0.5c0.2-0.2,0.1-0.5,0.1-0.7
					c0.1,0.1,0.2,0.2,0.3,0.3c0.2,0.3,0.3,0.6,0.4,0.9L42.9,34.6z M44.7,18.2l0.1-0.3l0.2,0C44.9,18.1,44.8,18.2,44.7,18.2
					L44.7,18.2z M47.1,18.7c-0.2-0.1-0.4,0-0.6-0.1c0,0,0-0.2,0-0.2c0-0.2,0.1-0.3,0.2-0.4l0.2,0l0.5,0.6L47.1,18.7z M45.5,19.2
					c-0.1,0-0.1-0.3-0.1-0.4c0-0.1,0-0.2,0.1-0.3l0.3-0.1C45.7,18.7,45.7,18.9,45.5,19.2L45.5,19.2z M47.5,19.6
					c-0.2,0.1-0.2-0.1-0.3-0.1c-0.1,0-0.2,0-0.3,0c-0.1-0.1-0.1-0.4-0.3-0.4c-0.1,0-0.3,0.2-0.4,0.2c0.1-0.6,0.1-1.2,0.1-1.8l-0.2,0
					c0,0.1-0.1,0.2-0.1,0.3c-0.3,0-0.4-0.3-0.7-0.4c-0.5,0-1.1,0.2-1.5,0.2c0.6-1,2.1-1.7,3.3-1.7c0.9,0,2.3,0.4,2.7,1.3
					c0.2,0.3,0.2,0.6,0.3,1c0.1,0.4,0.3,0.7,0.3,1.1c0,0.1,0,0.2,0,0.3c-0.4-0.2-0.5-0.1-0.9-0.1c-0.4,0-0.7-0.5-1-0.6
					c0,0-0.2,0.3-0.1,0.3c-0.3-0.2-0.1-0.2-0.5-0.6c-0.2,0.2-0.1,0.4-0.1,0.5c0,0.2-0.1,0.2-0.1,0.4H47.5z M52.5,20.2
					c0.2-0.2,0.2-0.3,0.2-0.3c-0.1-0.2-0.3-0.2-0.3-0.2l0.3,0c0,0,0.1,0.2,0.1,0.3l-0.1,0.2L52.5,20.2z M51.1,20.7v-0.2
					c0.1-0.1,0.2-0.2,0.3-0.2c0.2-0.2,0.3-0.3,0.7-0.3L51.1,20.7z M51.6,21.2c0.3-0.2,0.4-0.4,0.6-0.4l0.2,0.1L51.6,21.2z
					 M48.1,19.7c0.2,0.1,0.3,0.5,0.3,0.6c0,0.3-0.1,1-0.3,1c0-0.4,0.1-0.6,0.1-0.9c0-0.3-0.3-0.4-0.3-0.4
					C47.9,19.8,48,19.7,48.1,19.7 M51.1,21.8C51,21.6,51,21.5,51,21.5c0.1-0.1,0.2-0.2,0.2-0.2c0,0.2,0.1,0.3,0.1,0.4L51.1,21.8z
					 M46.6,24.1c0.2-0.2,0.5-0.4,0.7-0.6c0.1-0.2,0.2-0.3,0.3-0.5c0-0.1,0.1-0.2,0.1-0.2c0.1,0.3-0.1,0.7-0.3,0.9
					C47.3,23.7,46.8,24,46.6,24.1 M35.2,23.8l0.2-0.3l0.2,0c-0.2,0.2-0.2,0.2-0.3,0.2L35.2,23.8z M39.7,25.5c1-0.8,2.2-1.2,3.5-1.2
					c0.2,0,1.3,0.1,1.4,0.2c-1.4,0.1-2.4,0.5-3,0.7c-0.2,0.1-0.5,0-0.7,0C40.4,25.3,40.1,25.4,39.7,25.5 M38.8,25.6
					c0.1,0,0.4,0,0.4,0.1c0,0.1-0.3,0.1-0.3,0.1c-0.1,0-0.2,0-0.3,0.1c-0.1,0.1-0.2,0.3-0.4,0.3c-0.2,0.2-0.2,0.3-0.3,0.3
					c-0.1-0.1,0-0.2,0-0.2c0.1-0.2,0.2-0.2,0.5-0.4C38.6,25.6,38.8,25.6,38.8,25.6 M34,25.2c0.5-0.4,1.1-0.8,1.6-1.2
					C35.4,24.3,34.4,25.2,34,25.2 M30.1,28l2-1.4c0,0.2-0.3,0.4-0.5,0.5C31.4,27.3,30.3,28.1,30.1,28 M28.9,29.4l0-0.2l0.2-0.3
					c0.1-0.1,0.8-0.5,1-0.5C29.8,28.5,29.1,29.2,28.9,29.4 M43.5,29.3l-0.2-0.3c0.2-0.1,0.3-0.1,0.3-0.1c0.1,0.2,0.1,0.3,0.1,0.3
					L43.5,29.3z M58.9,30.8c-0.8-0.5-0.6-0.2-1.3-0.2c-0.2,0-0.2-0.4-0.4-0.6C57.1,30,57,30,56.9,30c-0.8,0-1.4-0.8-2.2-0.8
					c-0.3,0-0.5,0.1-0.8,0.1c-0.8,0-1.5,0.6-2.3,0.6c-0.3,0-0.6-0.2-0.9-0.2c-1.2,0-2.3,0.6-3.5,0.6c-0.4,0-1.4,0.1-1.4-0.5L44.5,29
					l-0.6-1.4c0.3,0.2,0.8,0.8,1,0.8l-0.6-2c1,0,0.8,1.5,1.6,1.5c0.2,0,0.6-0.3,0.7-0.4c-0.5-0.5-1-0.1-1.1-1.1h2
					c0.4-0.3,0.9-0.3,1.3-0.2c0.1-0.1,0-0.3,0.1-0.4c0.1-0.1,0.6-0.1,0.8-0.1c0.9,0,0.8-1.2,3.2-1.2c1,0,1.9,0.1,2.8,0.4
					c0,0.5,0.9,0.5,1.2,0.8h0.3c0.2,0.1,0.2,1.2,0.7,1.2c0.1,0,0.5-0.2,0.5-0.3c0-0.1-0.4-0.4-0.4-0.6c-0.2-0.7-0.4-2.3-1.4-2.3
					c-0.6,0-1.2,0.4-1.8,0.4c-0.2,0-0.5-0.1-0.7-0.2l0.1-0.4c-0.2-0.2-0.4-0.2-0.6-0.2c-0.3,0-0.6,0.2-1,0.1
					c-2.1,1.4-4.7,2.4-7.3,2.4c-0.3,0-0.3-0.3-0.3-0.5L45,25.3c0.3-0.3,0.6-0.3,0.6-0.7c-0.7,0-0.6-0.3-0.6-0.7
					c0-0.4-0.3-0.1-0.3-0.5c0-0.2,0.4,0,0.4-0.3c0-0.2-0.5,0-0.6,0c-0.1,0-0.2,0-0.2-0.2c0-0.4,0.2-0.1,0.4-0.1
					c0.1-0.2-0.2-0.8-0.2-0.8c-0.1,0,0,0.3,0,0.3c-0.5,0.1-0.5,0.4-0.7,0.4l-0.1-1.6c0.3,0.2,0.4,0.8,0.6,0.8c0.1,0,0.1-0.4,0.2-0.5
					c0.1-0.1,0.4-0.2,0.4-0.4c0-0.6-0.9-0.5-1.2-0.5c-0.2,0-0.1-0.1-0.1-0.2c0-0.3-0.2-0.6-0.2-1c0-0.1,0-0.2,0-0.3
					c0.2-0.1,0.4-0.1,0.6-0.1c0.9,0,0.9,0.7,1.9,0.7c0.4,0,0.3,0.5,0.5,0.5c0.4-0.1,0.2,0.3,0.9,0.3c0.2,0.1,0.1,0.9,0.4,1.1
					c0.1,0.1,0.4-0.1,0.5-0.1c0.1,0.3-0.3,0.3-0.3,0.5c0.7,0.1,0.7-0.5,0.9-0.9l0.3-0.1c0-0.3-0.1-0.5-0.1-0.7
					c0-0.3,0.2-0.2,0.2-0.5l0-0.3c0.3-0.1,0.5,0,0.7,0l0.2,0c0.1,0.2-0.1,0.4-0.1,0.7c0,0.4-0.4,0.2-0.5,0.2c-0.2,0-0.2,0.1-0.2,0.2
					c0,0.5,0.3,0.5,0.7,0.5c0.4,0,0.7,0.6,0.7,1c-1.6,1.1-3.2,2-5,2.3C45.7,25,46,25,46.1,25c0.8,0,2.8-0.9,3.5-1.3l2.2-1.2
					c0.8-0.4,1.8-2.6,1.8-3.4c0-0.2-0.3-0.2-0.3-0.4c0.2-0.1,0.4-0.2,0.5-0.2c0.1,0,0.2,0,0.3,0.1l0.4,1l1,0.8
					c0,0.6-0.9,0.5-0.8,1.1c-0.1,0.1-0.3-0.1-0.5-0.1c-0.5,0-5.6,3.6-8.2,3.8c-0.1,0.3,0.1,0.3,0.3,0.3c1.9,0,3.7-1.6,5.4-2.3
					c0.8-0.4,1.7-0.5,2.6-0.7c0-0.1,0.1-0.3,0.1-0.3c0.6-0.2,0.8-0.5,1.1-0.9l0.7,0.7c-0.1,0-1.6,0-1.7,0.4l1.8,0.3
					c0.1,0.1,0.1,0.3,0.2,0.4c1.1,0.6,1.1,1.2,1.7,2c0,1.3,0,0.7,0.3,1.4c-0.2,0.2-0.4,0.5-0.4,0.8c0,0.6,0.2,1.2,0.3,1.8
					c-0.1-0.1-1.2-2.2-1.8-2.2c-0.2,0-0.2,0.1-0.2,0.2c0,0.5,0.5,0.9,0.9,1c0.2,1,1.2,1.6,1.5,2.6L58.9,30.8z M50.1,29.7l2.2-1.5
					c0.1,0.1,0.3,0.1,0.4,0.1c0.2-0.2,0.3-0.3,0.5-0.5l-2.3,0.5c-0.1,0.1,0,0.2-0.1,0.3c-0.6,0.3-1.3,0.2-1.8,0.6
					c0.3,0.1,0.5,0,0.8,0c0.1,0,0.2,0.1,0.3,0.1V29.7z M52.4,27.4c0.1,0,0.1,0,0.2,0c0.2,0,0.4,0,0.6-0.2c0-0.2-0.3-0.1-0.3-0.2
					l0-0.2c-0.1,0-0.2-0.1-0.3-0.1c-0.2,0-0.3,0-0.3,0c0,0.4,0.3,0.2,0.4,0.4L52.4,27.4z M49.7,28.1c0.1,0,0.3,0,0.5-0.1
					c0.6-0.1,1.4,0.1,1.8-0.5c0.2-0.1,0.3,0,0.3-0.1c-0.1-0.1-0.2-0.2-0.4-0.2c-0.1,0-0.2,0-0.3,0c-0.7,0.2-1.4,0.4-1.8,0.8V28.1z
					 M47.3,27.5c1.1-0.3,1.6-0.6,2.5-0.9l2.1-0.7l-0.1-0.2c-0.4-0.1-0.7-0.3-1.1-0.3h-0.2c0,0.2,0.1,0.2,0.1,0.3l-3.8,1.6
					C47.1,27.5,47.2,27.5,47.3,27.5 M42.1,30.8c0-0.1,0.1-0.2,0.1-0.3v-0.2c0-0.1,0-0.3,0-0.4c0-0.1,0-0.2,0.1-0.3
					c0.1,0.1,0.1-0.1,0.2,0.2c-0.2,0.2-0.1,0.5-0.2,0.8c0,0.1-0.1,0.2-0.1,0.3L42.1,30.8z M50.4,31.1c0.1-0.2,0.2-0.3,0.2-0.4
					c0.1-0.1,0.1-0.2,0.2-0.3c0.2-0.1,0.2-0.1,0.3-0.1C51.2,30.7,50.7,30.9,50.4,31.1L50.4,31.1z M58.4,31.7c-0.1,0-0.1-0.1-0.2-0.1
					l-0.1-0.3l0-0.2C58.2,31.2,58.5,31.4,58.4,31.7L58.4,31.7z M44.1,31.7l0.3-1.8l0.3-0.1L44.3,31c0.1,0,0.2,0.1,0.2,0.1
					C44.5,31.5,44.4,31.5,44.1,31.7 M47.7,31.8L48,31c0,0.1,0,0.2,0,0.3c0,0.1,0,0.2,0,0.2C47.8,31.7,47.7,31.8,47.7,31.8 M39,32.2
					c0-0.2,0.1-0.2,0.1-0.2C39.2,32,39.1,32.1,39,32.2L39,32.2z M45.5,32.3c0-0.1-0.1-0.2-0.1-0.3v-0.2c0-0.1,0.1-0.3,0.1-0.3
					l0.6-0.6l-0.6,1.4H45.5z M46.5,32.3c0-0.3,0.1-0.6,0.2-0.7c0.1,0.4,0.1,0.5-0.1,0.7H46.5z M42.9,32.4v-2.2
					c0.2,0.1,0.2,0.2,0.2,0.3c0,0.3-0.2,0.7-0.2,1c0,0.2,0.1,0.4,0.2,0.5C43.1,32.1,43.1,32.4,42.9,32.4L42.9,32.4z M43.8,33.1
					c0-0.1-0.1-0.2-0.1-0.4c0-0.4,0.1-0.6,0.2-0.7L43.8,33.1L43.8,33.1z M49.1,33.2c0-0.4,0.5-0.7,0.8-0.8c0.3-0.5,0.8-0.8,1.2-1.2
					c0.3-0.3,0.5-0.4,0.7-0.6c0.3,0,0.7,0,1,0c-0.5,0.5-1,1.6-1.7,1.8l0.3-0.7c-0.7-0.1-1,0.9-1.4,1.2
					C49.7,33.1,49.4,33.2,49.1,33.2L49.1,33.2z M29.7,29.9c2.7,2.5,3.7,4.9,5.7,7.8c-1.4-1.6-2.4-3.6-3.5-5.3
					C31.2,31.5,30.4,30.8,29.7,29.9L29.7,29.9z M44.7,33.8c0,0-0.3-0.1-0.3-0.1l0.4-1.4L44.7,33.8z M58.7,34l-0.1-1.5
					c0.1,0.3,0.2,0.5,0.2,0.8v0.4C58.8,33.8,58.8,33.9,58.7,34L58.7,34z M41.7,34.5c-0.8-0.4-1.2-0.6-1.2-1.6c0-0.8,0.4-1.5,0.7-2.2
					l-0.1-0.3l-0.2,0l-0.4,1l-0.6-0.5c-0.1-0.3,0-0.6-0.2-0.9c-0.3-0.4-0.4-0.1-0.7-0.8c-0.2-0.3-0.2-1-0.2-1.1
					c-0.2-0.4-0.5-0.7-0.9-1c0-0.2,0-0.3,0.1-0.3l0.5,0.1c0.3,0.1,0.9,0.9,1.1,0.9c0-0.2-0.1-0.3-0.1-0.4c0.4,0,0.4-0.2,0.5-0.2
					c0.1,0,0.3,0,0.3-0.1c0-0.2-0.4,0.1-0.4-0.5c0-0.1,0-0.3,0.1-0.4c0.2,0.1,0.6,0.4,0.6,0.7c0,0.9-0.3,1.7-0.3,2.6
					c0,0,0.6,0.6,0.7,0.6c0.3,0,0.2-0.7,0.3-0.9c0.4,0.4,0.4,0.7,0.4,1.2c0,0.1-0.1,0.9-0.1,1c0,0.1-0.2,0.2-0.2,0.3
					c0.1,0.7,0.1,1.4,0.1,2.1c0,0.2,0.3,0.6,0.5,0.8L41.7,34.5z M36.4,27.7c0.3-0.1,0.6-0.2,0.9-0.3c0.1,0,0.2-0.2,0.4-0.2
					c0.1,0,0.1,0.5,0.2,0.6c-0.1,0.2-0.1,0.4-0.1,0.6c0,0.5,0.3,2.3,1.1,2.3c0.1,0,0.2,0.4,0.2,0.5c0,0.4-0.6,0.8-0.6,1.2
					c0,0.1,0,0.2,0.1,0.3c0.3,0,0.2,0.4,0.3,0.6c0,0.1,0.3,0.1,0.4,0.2c-0.8,0.4-1.2,0.9-1.2,1.8c0,0.3,0.1,0.6,0.1,0.9
					c-0.8,0.5-1.1,1.4-1.9,1.9c-1.7-2.2-2.8-4.7-4.3-7c-0.4-0.7-1.3-1.1-1.6-1.9c0.8-1.4,3.4-1,3.4-3.1c1.2,1.6,3.7,5.3,4.3,7.2
					l0.6,0.2c-0.5-1.2-1.3-2.1-1.9-3.2c-0.9-1.5-1.7-3-2.7-4.5c1.6-0.6,2-0.8,2.1-2.5c0.8,0.2,1,1.4,1.5,1.9l0.1,1.4
					C37.5,26.7,36.5,27.5,36.4,27.7 M35.9,27.9c0.1,0,0.3-0.1,0.3-0.1c0.1-0.2-0.1-0.4-0.1-0.4c-0.1,0.1-0.2,0.2-0.2,0.2L35.9,27.9z
					 M37.1,25.7c0,0-0.2-0.1-0.2-0.1c0,0-0.3,0.3-0.3,0.2c-0.1,0-0.2,0.3-0.3,0.4c-0.2,0.2-0.2,0.3-0.2,0.3
					c-0.2-0.1-0.5,0.2-0.6,0.3c-0.1,0.2-0.1,0.4,0.1,0.4c0.1-0.1,0.3-0.2,0.4-0.3l0.2-0.2c0.1,0,0.3-0.3,0.4-0.4
					c0-0.1,0.2-0.2,0.2-0.2c0.1,0,0.3-0.2,0.3-0.2C37.2,26,37.2,25.7,37.1,25.7 M37.9,34.2c0.1,0,0.3-0.2,0.3-0.3
					c0-0.2-0.2-0.3-0.3-0.3c-0.1,0-0.5,0.4-0.6,0.4c-0.1,0.1-0.1,0.2-0.1,0.2c0,0.2,0,0.2,0,0.3c0.3,0,0.4-0.3,0.6-0.3H37.9z
					 M35.5,35.8c0,0.2,0,0.2,0,0.3c0.4-0.1,0.9-0.6,0.9-0.6c0.1-0.1,0.3-0.3,0.4-0.4c0-0.2,0-0.2,0-0.2l-0.2,0
					c-0.1,0-0.6,0.5-0.6,0.5C35.8,35.3,35.6,35.6,35.5,35.8 M35.9,34.4l-0.2,0c-0.1,0-0.3,0.1-0.3,0.2L35,34.6
					c-0.1,0.1-0.2,0.2-0.2,0.4l0.1,0.3c0.2,0,0.6-0.4,0.7-0.4c0,0,0.3-0.2,0.4-0.2L35.9,34.4z M36.1,34.3l0.5-0.2
					c0.1-0.1,0.2-0.2,0.3-0.3c0,0,0.6-0.6,0.6-0.6c0.1,0,0.3-0.2,0.3-0.3c-0.3-0.1-0.6,0-0.6,0c0,0-0.3,0.3-0.3,0.4
					c-0.2,0.1-0.3,0.3-0.5,0.3c0,0-0.3,0.3-0.3,0.4L36.1,34.3z M34.6,34.4c0.2,0.1,0.5-0.3,0.5-0.3c0.3,0,0.8-0.8,0.8-0.9
					c-0.1-0.1-0.1-0.2-0.3-0.2c-0.1,0-0.2,0.3-0.2,0.4c0,0-0.4,0.3-0.4,0.3c-0.2,0.2-0.5,0.3-0.5,0.6L34.6,34.4z M35.6,32.3
					c-0.3,0-0.7,0.2-0.8,0.4c-0.1,0.2-0.2,0.3-0.3,0.4c-0.2,0.1-0.5,0.2-0.5,0.3c-0.1,0.1-0.1,0.3,0,0.3l0.5-0.1
					c0.2,0,0.3-0.5,0.6-0.5c0,0,0.4-0.3,0.5-0.4C35.7,32.4,35.7,32.4,35.6,32.3L35.6,32.3z M37.2,32.3c-0.3-0.2-0.3-0.1-0.3-0.1
					c-0.2,0.1-0.4,0.2-0.6,0.3c0,0.2,0,0.2,0,0.3c-0.1,0.1-0.1,0.2,0,0.2c0.2,0,0.6-0.2,0.7-0.3c0.1-0.1,0.2-0.2,0.2-0.3L37.2,32.3z
					 M33.6,32.7c0.1,0.2,0.1,0.3,0.2,0.3c0.2-0.1,0.3-0.3,0.4-0.4c0.2-0.1,0.3-0.3,0.5-0.4c0.1-0.1,0.2-0.1,0.3-0.2
					c0-0.2,0-0.2,0-0.2c-0.1-0.1-0.1-0.1-0.3-0.1c-0.2,0-0.3,0.1-0.3,0.3l-0.3,0.4c-0.1,0.1-0.3,0.1-0.4,0.2L33.6,32.7z M35.8,31.8
					c0.1,0.2,0.1,0.4,0.2,0.4c0.1,0,0.1-0.3,0.3-0.3c0.2-0.1,0.4-0.3,0.5-0.5c0-0.1-0.2-0.2-0.3-0.2c-0.1,0.1-0.3,0.2-0.3,0.3
					c-0.1,0.1-0.1,0.1-0.2,0.2L35.8,31.8z M35.4,31.5c0.2-0.1,0.3-0.2,0.4-0.2c0.1-0.1,0.3-0.2,0.4-0.3c0.1-0.1,0.1-0.2,0.2-0.2
					c-0.1-0.1-0.1-0.2-0.2-0.2c-0.1,0-0.5,0.2-0.4,0.3c-0.1,0.1-0.2,0.2-0.2,0.2C35.4,31.3,35.4,31.4,35.4,31.5 M34.1,31.3
					c-0.2-0.1-0.3,0-0.3,0c-0.3,0.2-0.7,0.6-0.7,0.6c-0.1,0.1-0.1,0.2,0,0.2c0.2,0,0.7-0.3,0.9-0.5C34,31.6,34,31.5,34.1,31.3
					L34.1,31.3z M34.4,31.3c0-0.1,0.2-0.1,0.2-0.1c0.3,0,0.2-0.6,0.6-0.7c0.1-0.1,0.3-0.2,0.3-0.2c0.2,0,0.3-0.3,0.3-0.3l-0.1-0.2
					c-0.2-0.1-0.2,0-0.3,0l-0.2,0.2c0,0-0.3,0.3-0.3,0.3c-0.1,0.1-0.2,0.1-0.3,0.2c-0.2,0.1-0.2,0.1-0.3,0.2c0,0-0.2,0.2-0.2,0.2
					c0,0.2,0,0.4,0.1,0.4L34.4,31.3z M33.1,30c-0.1-0.2-0.3-0.1-0.3-0.1c-0.2,0.2-0.4,0-0.5,0.4c-0.2,0.3-0.2,0.4-0.1,0.4
					c0.2,0.1,0.3,0,0.3,0c0.3-0.2,0.3-0.3,0.3-0.3c0.1,0,0.3-0.2,0.3-0.2L33.1,30z M35.4,29.3c-0.1-0.2-0.1-0.2-0.2-0.2
					c-0.1,0-0.2,0-0.3,0.1c-0.1,0.3-0.5,0.2-0.5,0.4l-0.1,0.2l0.1,0.3c0.1,0,0.2-0.1,0.3-0.1c0.2-0.1,0.2-0.2,0.2-0.2
					C35.2,29.6,35.4,29.4,35.4,29.3L35.4,29.3z M32.8,31.5c0.2-0.3,0.2-0.3,0.3-0.3c0.1-0.1,0.4-0.3,0.5-0.3
					c0.2-0.1,0.3-0.3,0.3-0.3c0.1-0.3,0-0.4-0.1-0.4c-0.2,0-0.4,0.5-0.4,0.5c-0.1,0.2-0.5,0.1-0.5,0.3c-0.1,0.2-0.2,0.3-0.2,0.3
					C32.7,31.4,32.7,31.5,32.8,31.5 M33.4,29.9c0.1,0,0.1-0.2,0.3-0.2c0.3-0.2,0.5-0.2,0.5-0.3c0,0,0.6-0.7,0.6-0.7l0.2-0.3
					l-0.2-0.2c-0.2,0.1-0.3,0.2-0.3,0.2c-0.1,0-0.3,0.3-0.3,0.4c-0.3,0.2-0.4,0.4-0.5,0.4c0,0-0.3,0.2-0.3,0.2c0,0.2,0,0.2,0,0.2
					C33.4,29.7,33.4,29.9,33.4,29.9 M34.4,27.4c-0.1,0.1-0.5,0.5-0.5,0.5l-0.2,0.2c-0.1,0-0.4,0-0.4,0.2c0,0.2,0,0.2,0,0.3l0.1,0.3
					c0.3-0.2,0.5-0.3,0.5-0.4c0.1-0.1,0.4-0.3,0.4-0.3c0.1-0.1,0.3-0.1,0.4-0.4C34.5,27.5,34.4,27.5,34.4,27.4L34.4,27.4z M31.8,30
					l0.4-0.3c0.1-0.1,0.5-0.3,0.5-0.4c0.1-0.2,0.2-0.1,0.3-0.2l-0.1-0.3c-0.1,0-0.6,0-0.6,0.2c-0.2,0.3-0.2,0.3-0.4,0.3l-0.2,0.3
					C31.6,29.9,31.7,30,31.8,30"/>
				<path fill-rule="evenodd" clip-rule="evenodd" fill="#FFFFFF" d="M28.9,40L28.9,40L28,40.3L26.6,38l0.1,0l0.1,0.1
					c0.1,0.1,0.2,0.2,0.3,0.2c0.1,0,0.2,0,0.4-0.2l1.9-1.2c0.2-0.1,0.3-0.2,0.3-0.3c0-0.1,0-0.2-0.1-0.3l-0.1-0.1l0.1-0.1l0.8,1.4
					l-0.1,0.1c-0.1-0.2-0.2-0.3-0.2-0.3c-0.1,0-0.1-0.1-0.2-0.1c-0.1,0-0.2,0.1-0.4,0.2l-1.9,1.1c-0.1,0.1-0.2,0.1-0.2,0.2
					c0,0,0,0.1,0,0.1c0,0,0.1,0.2,0.2,0.4l0.1,0.2c0.1,0.2,0.3,0.4,0.3,0.5c0.1,0.1,0.2,0.1,0.3,0.1C28.5,40,28.7,40,28.9,40"/>
				<path fill-rule="evenodd" clip-rule="evenodd" fill="#FFFFFF" d="M32.6,40.5L32.6,40.5l0.9,0.9l-0.1,0.1l-0.1-0.1
					c-0.1-0.1-0.2-0.1-0.3-0.1c-0.1,0-0.2,0.1-0.3,0.2l-1.1,0.9c-0.3,0.2-0.5,0.4-0.7,0.5c-0.2,0.1-0.4,0.1-0.6,0
					c-0.2-0.1-0.5-0.2-0.7-0.5c-0.3-0.3-0.4-0.5-0.4-0.8c0-0.2,0-0.5,0.1-0.7c0.1-0.1,0.3-0.4,0.6-0.6l1-0.9
					c0.2-0.1,0.2-0.3,0.3-0.4c0-0.1,0-0.2-0.1-0.3l-0.1-0.1l0.1-0.1l1,1.1l-0.1,0.1l-0.1-0.1c-0.1-0.1-0.2-0.2-0.3-0.1
					c-0.1,0-0.2,0.1-0.3,0.2l-1.1,1c-0.1,0.1-0.2,0.2-0.3,0.3c-0.1,0.1-0.2,0.3-0.2,0.4c0,0.1,0,0.2,0,0.4c0,0.1,0.1,0.3,0.2,0.4
					c0.2,0.2,0.3,0.3,0.5,0.4c0.2,0.1,0.4,0.1,0.5,0c0.2-0.1,0.4-0.2,0.7-0.5l1.1-0.9c0.2-0.1,0.2-0.3,0.3-0.3
					C32.8,40.8,32.7,40.7,32.6,40.5L32.6,40.5z"/>
				<path fill-rule="evenodd" clip-rule="evenodd" fill="#FFFFFF" d="M34,43.8l-0.1,1.3c0,0.4,0,0.6,0,0.7c0,0.1,0.1,0.2,0.2,0.3
					l-0.1,0.1l-1.2-0.9l0.1-0.1c0.1,0.1,0.1,0.1,0.2,0.1c0,0,0.1,0,0.1,0c0,0,0.1,0,0.1-0.1c0,0,0-0.1,0.1-0.1c0,0,0-0.1,0-0.3
					l0.1-1.1l-1.1,0.3c-0.1,0-0.2,0.1-0.2,0.1c0,0-0.1,0-0.1,0.1c0,0,0,0.1,0,0.2c0,0.1,0.1,0.1,0.2,0.2l-0.1,0.1l-1-0.7l0.1-0.1
					c0.1,0,0.1,0.1,0.2,0.1c0.1,0,0.2,0,0.4,0c0.1,0,0.3,0,0.5-0.1l1.3-0.3l0.1-1.2c0-0.3,0-0.6-0.1-0.7c-0.1-0.1-0.1-0.3-0.3-0.4
					l0.1-0.1l1.3,1l-0.1,0.1c-0.1-0.1-0.2-0.1-0.3-0.1c-0.1,0-0.1,0-0.1,0.1c0,0.1-0.1,0.2-0.1,0.3l-0.1,1l1-0.3
					c0.1,0,0.2-0.1,0.2-0.1c0,0,0.1,0,0.1-0.1c0,0,0-0.1,0-0.1c0,0,0-0.1,0-0.1c0,0-0.1-0.1-0.2-0.2l0.1-0.1l1,0.7L36,43.5
					c-0.1-0.1-0.2-0.1-0.2-0.1c-0.1,0-0.2,0-0.3,0c-0.1,0-0.3,0-0.5,0.1L34,43.8z"/>
				<path fill-rule="evenodd" clip-rule="evenodd" fill="#FFFFFF" d="M38.8,45l-0.5,1.3l0.7,0.3c0.2,0.1,0.3,0.1,0.4,0.1
					c0.1,0,0.2-0.2,0.3-0.3l0.1,0l-0.4,1.1l-0.1,0c0-0.2,0.1-0.3,0.1-0.3c0-0.1,0-0.1-0.1-0.2c-0.1-0.1-0.1-0.1-0.3-0.2l-0.7-0.3
					l-0.4,1.1c-0.1,0.1-0.1,0.2-0.1,0.3c0,0,0,0.1,0,0.1c0,0,0.1,0.1,0.2,0.1l0.6,0.2c0.2,0.1,0.3,0.1,0.4,0.1c0.1,0,0.2,0,0.3-0.1
					c0.1-0.1,0.3-0.2,0.5-0.3l0.1,0l-0.6,0.7l-2.5-1l0-0.1l0.1,0c0.1,0,0.2,0,0.2,0c0.1,0,0.1,0,0.1-0.1c0,0,0.1-0.1,0.1-0.3
					l0.8-2.1c0.1-0.2,0.1-0.3,0.1-0.4c0-0.1-0.1-0.2-0.3-0.2l-0.1,0l0-0.1l2.5,1l-0.2,0.7l-0.1,0c0-0.2,0-0.3,0-0.4
					c0-0.1-0.1-0.2-0.1-0.2c-0.1,0-0.2-0.1-0.3-0.2L38.8,45z"/>
				<path fill-rule="evenodd" clip-rule="evenodd" fill="#FFFFFF" d="M43.5,46.1L43.4,47l-0.1,0c0-0.1,0-0.3,0-0.3
					c0-0.1-0.1-0.2-0.2-0.3c-0.1-0.1-0.2-0.1-0.3-0.1l-0.5-0.1l-0.5,2.6c0,0.2,0,0.3,0,0.4c0,0.1,0.1,0.1,0.3,0.2l0.1,0l0,0.1
					l-1.5-0.3l0-0.1l0.1,0c0.1,0,0.3,0,0.3-0.1c0,0,0.1-0.2,0.1-0.4l0.5-2.6L41.4,46c-0.2,0-0.3,0-0.3,0c-0.1,0-0.2,0.1-0.3,0.1
					c-0.1,0.1-0.1,0.2-0.2,0.3l-0.1,0l0.2-0.8L43.5,46.1z"/>
				<path fill-rule="evenodd" clip-rule="evenodd" fill="#FFFFFF" d="M49,46L49,46c-0.1,0.1-0.2,0.2-0.3,0.2
					c-0.1,0.1-0.2,0.2-0.2,0.4l-1,3.1l-0.1,0l-1.6-2.9c-0.1-0.1-0.1-0.2-0.2-0.3c0-0.1-0.1-0.1-0.2-0.1c-0.1,0-0.1,0-0.3,0l0-0.1
					l1.4-0.1l0,0.1c-0.2,0-0.3,0.1-0.3,0.1c0,0-0.1,0.1-0.1,0.2c0,0.1,0.1,0.2,0.2,0.4l1.1,2l0.6-2.1c0.1-0.2,0.1-0.3,0.1-0.4
					c0,0,0-0.1-0.1-0.1c-0.1,0-0.1-0.1-0.3-0.1c0,0,0,0,0,0l0-0.1L49,46z"/>
				<path fill-rule="evenodd" clip-rule="evenodd" fill="#FFFFFF" d="M50,45.9l0.4,1.3l0.7-0.2c0.2-0.1,0.3-0.1,0.4-0.2
					c0.1-0.1,0.1-0.2,0-0.4l0.1,0l0.3,1.2l-0.1,0c-0.1-0.2-0.1-0.3-0.2-0.3c0-0.1-0.1-0.1-0.2-0.1c-0.1,0-0.2,0-0.3,0l-0.7,0.2
					l0.3,1.1c0,0.2,0.1,0.2,0.1,0.3c0,0,0.1,0,0.1,0.1c0,0,0.1,0,0.2,0l0.6-0.2c0.2-0.1,0.3-0.1,0.4-0.2c0.1,0,0.1-0.1,0.2-0.2
					c0.1-0.1,0.1-0.3,0.2-0.5l0.1,0l-0.1,0.9l-2.6,0.7l0-0.1l0.1,0c0.1,0,0.2-0.1,0.2-0.1c0,0,0.1-0.1,0.1-0.1c0-0.1,0-0.2-0.1-0.3
					l-0.6-2.2c-0.1-0.2-0.1-0.3-0.2-0.4c-0.1,0-0.2-0.1-0.3,0l-0.1,0l0-0.1l2.6-0.7l0.2,0.7l-0.1,0c-0.1-0.2-0.2-0.3-0.2-0.3
					c-0.1-0.1-0.1-0.1-0.2-0.1c-0.1,0-0.2,0-0.4,0.1L50,45.9z"/>
				<path fill-rule="evenodd" clip-rule="evenodd" fill="#FFFFFF" d="M56.6,46.9l-0.8,0.4l-1.8-1c-0.1,0-0.1,0.1-0.2,0.1
					c0,0,0,0-0.1,0c0,0,0,0-0.1,0l0.4,0.9c0.1,0.2,0.2,0.3,0.2,0.3c0.1,0,0.2,0,0.3,0l0.1-0.1l0,0.1l-1.4,0.6l0-0.1l0.1-0.1
					c0.1-0.1,0.2-0.2,0.2-0.3c0-0.1,0-0.2-0.1-0.4l-1-2c-0.1-0.2-0.2-0.3-0.2-0.3c-0.1,0-0.2,0-0.3,0L52,45.3l0-0.1l1.2-0.5
					c0.3-0.2,0.6-0.2,0.8-0.3c0.2,0,0.4,0,0.5,0.1c0.2,0.1,0.3,0.2,0.4,0.4c0.1,0.2,0.1,0.4,0,0.6c-0.1,0.2-0.2,0.4-0.4,0.6l1.1,0.6
					c0.2,0.1,0.4,0.2,0.6,0.2C56.2,46.9,56.3,46.9,56.6,46.9L56.6,46.9z M53.5,46.4C53.6,46.3,53.6,46.3,53.5,46.4
					c0.1,0,0.1-0.1,0.1-0.1c0.3-0.1,0.5-0.3,0.6-0.5c0.1-0.2,0.1-0.4,0-0.6c-0.1-0.2-0.2-0.3-0.4-0.4c-0.2-0.1-0.4-0.1-0.6,0
					c-0.1,0-0.2,0.1-0.3,0.2L53.5,46.4z"/>
				<path fill-rule="evenodd" clip-rule="evenodd" fill="#FFFFFF" d="M58.1,45.8L58.1,45.8l-1.2,0.9l-0.1-0.1l0.1-0.1
					c0.1-0.1,0.2-0.2,0.2-0.3c0-0.1,0-0.2-0.2-0.4L55.7,44c-0.1-0.1-0.2-0.2-0.2-0.3c0,0-0.1,0-0.2,0c-0.1,0-0.2,0-0.2,0.1L55,43.9
					L55,43.8l1.3-0.8l0.1,0.1l-0.1,0.1c-0.1,0.1-0.2,0.2-0.2,0.3c0,0.1,0,0.2,0.2,0.4l1.2,1.9c0.1,0.1,0.2,0.2,0.2,0.3
					c0,0,0.1,0,0.2,0c0.1,0,0.2,0,0.2-0.1L58.1,45.8z"/>
				<path fill-rule="evenodd" clip-rule="evenodd" fill="#FFFFFF" d="M58.7,40.9l0.6,0.6l-0.1,0.1c-0.1-0.1-0.2-0.2-0.3-0.2
					c-0.1,0-0.2-0.1-0.3,0c-0.1,0-0.2,0.1-0.3,0.2l-0.4,0.3l1.7,2c0.1,0.2,0.2,0.3,0.3,0.3c0.1,0,0.2,0,0.3-0.1l0.1-0.1l0.1,0.1
					l-1.1,1l-0.1-0.1l0.1-0.1c0.1-0.1,0.2-0.2,0.2-0.3c0-0.1-0.1-0.2-0.2-0.3l-1.7-2l-0.3,0.3c-0.1,0.1-0.2,0.2-0.2,0.3
					c0,0.1-0.1,0.2-0.1,0.3c0,0.1,0.1,0.2,0.2,0.4L57,43.4l-0.5-0.7L58.7,40.9z"/>
				<path fill-rule="evenodd" clip-rule="evenodd" fill="#FFFFFF" d="M61.6,41l-0.9,1l0.3,0.5c0.1,0.1,0.1,0.2,0.2,0.3
					c0,0,0.1,0,0.2,0c0.1,0,0.2-0.1,0.3-0.2l0.1,0.1L61,43.6l-0.1-0.1c0.1-0.1,0.1-0.2,0.1-0.3c0-0.1-0.1-0.3-0.2-0.5l-1.4-2.8
					l0.1-0.1l3,0.9c0.2,0.1,0.4,0.1,0.5,0.1c0.1,0,0.2-0.1,0.3-0.2l0.1,0.1l-0.9,1.1l-0.1-0.1c0.1-0.1,0.1-0.2,0.1-0.3
					c0-0.1,0-0.1-0.1-0.1c-0.1,0-0.2-0.1-0.3-0.2L61.6,41z M61.4,40.9L60,40.5l0.7,1.4L61.4,40.9z"/>
				<path fill-rule="evenodd" clip-rule="evenodd" fill="#FFFFFF" d="M61.7,36.7l1,0.6l-0.1,0.1c-0.2-0.1-0.4-0.1-0.6-0.1
					c-0.2,0-0.3,0-0.5,0.1c-0.1,0.1-0.3,0.2-0.3,0.3c-0.1,0.2-0.1,0.3-0.1,0.5c0,0.2,0.1,0.3,0.2,0.3c0.1,0.1,0.2,0.1,0.3,0.1
					c0.2,0,0.4-0.1,0.8-0.4c0.3-0.2,0.6-0.3,0.7-0.4c0.1-0.1,0.3-0.1,0.4-0.1c0.1,0,0.3,0.1,0.4,0.1c0.2,0.1,0.4,0.3,0.4,0.6
					c0.1,0.3,0,0.5-0.2,0.8c-0.1,0.1-0.1,0.2-0.2,0.2c0,0-0.1,0.1-0.3,0.2c-0.1,0.1-0.2,0.2-0.2,0.2c0,0,0,0.1,0,0.1
					c0,0,0,0.1,0.1,0.1l0,0.1l-1-0.6l0.1-0.1c0.2,0.1,0.4,0.1,0.6,0.1c0.1,0,0.3,0,0.4-0.1c0.2-0.1,0.3-0.2,0.4-0.4
					c0.1-0.2,0.2-0.4,0.1-0.5c0-0.2-0.1-0.3-0.2-0.4c-0.1,0-0.2-0.1-0.3-0.1c-0.1,0-0.2,0-0.3,0.1c-0.1,0-0.3,0.1-0.6,0.3
					c-0.3,0.2-0.5,0.3-0.7,0.3c-0.1,0.1-0.3,0.1-0.4,0.1c-0.1,0-0.3-0.1-0.4-0.1c-0.2-0.1-0.3-0.3-0.4-0.6c-0.1-0.3,0-0.5,0.2-0.8
					c0.1-0.2,0.2-0.3,0.4-0.4c0.1-0.1,0.1-0.1,0.2-0.1c0,0,0-0.1,0-0.1C61.7,36.9,61.7,36.9,61.7,36.7L61.7,36.7z"/>
				<path fill="#FFFFFF" d="M22.1,26.9c0,13.3,10.8,24,24,24c13.3,0,24-10.8,24-24c0-13.3-10.8-24-24-24
					C32.9,2.8,22.1,13.6,22.1,26.9 M21.6,26.9c0-13.5,11-24.5,24.5-24.5c13.5,0,24.5,11,24.5,24.5c0,13.5-11,24.5-24.5,24.5
					C32.6,51.4,21.6,40.4,21.6,26.9"/>
				<path fill-rule="evenodd" clip-rule="evenodd" fill="#FFFFFF" d="M24,24l1.9,0.2l0,0.1c-0.4,0-0.7,0.1-0.9,0.2
					c-0.2,0.1-0.4,0.3-0.5,0.5c-0.1,0.2-0.2,0.4-0.2,0.7c0,0.3,0,0.5,0.2,0.7c0.2,0.2,0.3,0.3,0.5,0.3c0.2,0,0.3,0,0.5-0.1
					c0.2-0.1,0.5-0.5,0.9-1.1c0.3-0.5,0.6-0.8,0.7-1c0.2-0.2,0.3-0.3,0.5-0.4C27.8,24,28,24,28.2,24c0.4,0,0.7,0.2,1,0.6
					c0.3,0.3,0.4,0.8,0.3,1.3c0,0.2,0,0.3-0.1,0.4c0,0.1-0.1,0.2-0.2,0.5c-0.1,0.2-0.2,0.4-0.2,0.5c0,0.1,0,0.1,0,0.2
					c0,0,0.1,0.1,0.2,0.1l0,0.1l-1.8-0.2l0-0.1c0.4,0,0.7-0.1,0.9-0.2c0.2-0.1,0.4-0.3,0.5-0.5c0.1-0.2,0.2-0.5,0.3-0.8
					c0-0.3,0-0.6-0.2-0.8c-0.2-0.2-0.4-0.3-0.6-0.3c-0.1,0-0.3,0-0.4,0.1c-0.1,0.1-0.3,0.2-0.4,0.3c-0.1,0.1-0.3,0.4-0.6,0.8
					c-0.3,0.4-0.5,0.7-0.7,0.9c-0.2,0.2-0.4,0.3-0.5,0.4c-0.2,0.1-0.4,0.1-0.6,0.1c-0.4,0-0.7-0.2-1-0.5c-0.3-0.3-0.4-0.7-0.3-1.2
					c0-0.3,0.1-0.6,0.3-0.9c0.1-0.1,0.1-0.2,0.1-0.3c0-0.1,0-0.1,0-0.2c0,0-0.1-0.1-0.2-0.1L24,24z"/>
				<path fill-rule="evenodd" clip-rule="evenodd" fill="#FFFFFF" d="M29.1,19.8l-0.8,1.9l0.7,0.7c0.2,0.2,0.3,0.3,0.4,0.3
					c0.1,0,0.2,0,0.2,0c0.1-0.1,0.2-0.2,0.3-0.4l0.1,0.1l-0.6,1.6l-0.1-0.1c0-0.2,0.1-0.4,0-0.5c-0.1-0.2-0.3-0.4-0.6-0.7l-3.4-3.4
					l0.1-0.1l4.9-0.1c0.4,0,0.7,0,0.8-0.1c0.1-0.1,0.3-0.2,0.4-0.4l0.1,0.1l-0.8,2l-0.1-0.1c0.1-0.2,0.1-0.4,0.1-0.4
					c0-0.1-0.1-0.2-0.2-0.2c-0.1,0-0.3-0.1-0.6-0.1L29.1,19.8z M28.8,19.8l-2.4,0l1.7,1.7L28.8,19.8z"/>
				<path fill-rule="evenodd" clip-rule="evenodd" fill="#FFFFFF" d="M27.4,15.1l1-1.1l5.2,0.3l-2.3-2.1c-0.2-0.2-0.4-0.3-0.5-0.3
					c-0.1,0-0.3,0.1-0.4,0.2l-0.1,0.1l-0.1-0.1l1.3-1.4l0.1,0.1L31.3,11c-0.2,0.2-0.2,0.3-0.2,0.5c0,0.1,0.1,0.3,0.4,0.5l3.4,3
					l-0.1,0.1l-5.6-0.3l2.5,2.2c0.2,0.2,0.4,0.3,0.5,0.3c0.1,0,0.3-0.1,0.4-0.2l0.1-0.1l0.1,0.1l-1.3,1.4l-0.1-0.1l0.1-0.1
					c0.2-0.2,0.2-0.3,0.2-0.5c0-0.1-0.1-0.3-0.4-0.5l-2.8-2.5c-0.2,0-0.4,0-0.5,0c-0.1,0-0.2,0.1-0.4,0.2c-0.1,0-0.2,0.1-0.3,0.2
					L27.4,15.1z"/>
				<path fill-rule="evenodd" clip-rule="evenodd" fill="#FFFFFF" d="M36.5,7.4l0.7,1.1L37,8.5c-0.1-0.2-0.3-0.3-0.3-0.3
					C36.5,8.1,36.4,8,36.2,8c-0.2,0-0.3,0.1-0.5,0.2l-0.7,0.4l2.1,3.5c0.2,0.3,0.3,0.4,0.4,0.5c0.1,0,0.3,0,0.5-0.1l0.2-0.1l0.1,0.1
					l-2,1.2l-0.1-0.1l0.2-0.1c0.2-0.1,0.3-0.3,0.3-0.4c0-0.1-0.1-0.3-0.2-0.5L34.4,9l-0.6,0.3c-0.2,0.1-0.4,0.2-0.4,0.3
					c-0.1,0.1-0.1,0.3-0.2,0.4c0,0.2,0,0.4,0.1,0.6l-0.1,0.1l-0.6-1.1L36.5,7.4z"/>
				<path fill-rule="evenodd" clip-rule="evenodd" fill="#FFFFFF" d="M40.7,5.9c0.7-0.2,1.3-0.1,2,0.3c0.6,0.4,1,1,1.2,1.7
					c0.2,0.8,0.1,1.5-0.3,2.2c-0.4,0.7-0.9,1.1-1.6,1.2c-0.7,0.2-1.4,0.1-2-0.3c-0.6-0.4-1-1-1.2-1.8c-0.2-0.8-0.1-1.6,0.3-2.2
					C39.5,6.4,40,6,40.7,5.9 M40.7,6.2c-0.5,0.1-0.8,0.4-1,0.8c-0.2,0.5-0.3,1.2-0.1,2c0.2,0.9,0.6,1.5,1,1.8
					c0.4,0.3,0.8,0.4,1.2,0.2c0.5-0.1,0.8-0.4,1.1-0.9c0.2-0.5,0.2-1.1,0-1.9c-0.2-0.9-0.6-1.5-1-1.9C41.7,6.1,41.2,6,40.7,6.2"/>
				<path fill-rule="evenodd" clip-rule="evenodd" fill="#FFFFFF" d="M51.5,6l-0.1,1.3l-0.1,0c0-0.2,0-0.4,0-0.5
					c-0.1-0.2-0.2-0.3-0.3-0.4c-0.1-0.1-0.3-0.2-0.5-0.2l-0.7-0.1L49,10.1c-0.1,0.3-0.1,0.5,0,0.6c0.1,0.1,0.2,0.2,0.4,0.2l0.2,0
					l0,0.1l-2.3-0.4l0-0.1l0.2,0c0.2,0,0.4,0,0.5-0.1c0.1-0.1,0.1-0.3,0.2-0.6l0.6-4.1l-0.6-0.1c-0.2,0-0.4,0-0.5,0
					c-0.1,0-0.3,0.1-0.4,0.2c-0.1,0.1-0.2,0.3-0.3,0.5l-0.1,0l0.3-1.2L51.5,6z"/>
				<path fill-rule="evenodd" clip-rule="evenodd" fill="#FFFFFF" d="M56,7.8c0.6,0.3,1,0.8,1.2,1.6c0.2,0.7,0.1,1.4-0.3,2.1
					c-0.4,0.7-0.9,1.2-1.6,1.4c-0.7,0.2-1.4,0.2-2-0.2c-0.7-0.3-1.1-0.9-1.3-1.6c-0.2-0.7-0.1-1.4,0.3-2.2c0.4-0.8,1-1.2,1.8-1.4
					C54.7,7.4,55.3,7.4,56,7.8 M55.8,8c-0.4-0.2-0.9-0.2-1.3-0.1c-0.5,0.2-1,0.7-1.4,1.5c-0.4,0.8-0.6,1.5-0.5,2.1
					c0.1,0.5,0.3,0.8,0.8,1c0.4,0.2,0.9,0.3,1.4,0.1c0.5-0.2,0.9-0.7,1.3-1.4c0.4-0.8,0.6-1.5,0.5-2.1C56.5,8.6,56.2,8.2,55.8,8"/>
				<path fill-rule="evenodd" clip-rule="evenodd" fill="#FFFFFF" d="M58.1,16.3l2.1-4.5l-2.8,2.3c-0.3,0.2-0.4,0.4-0.4,0.5
					c0,0.1,0,0.3,0.2,0.5l0.1,0.1l-0.1,0.1l-1.2-1.4l0.1-0.1l0.1,0.1c0.1,0.2,0.3,0.3,0.5,0.2c0.1,0,0.3-0.1,0.5-0.3l2.7-2.3
					c0.2-0.2,0.3-0.3,0.3-0.4c0-0.1,0-0.2,0-0.3c0-0.1-0.1-0.2-0.2-0.4l0.1-0.1l1,1.2l-2,4.2l4.5-1.2l1,1.2l-0.1,0.1l-0.1-0.1
					c-0.1-0.2-0.3-0.3-0.5-0.2c-0.1,0-0.3,0.1-0.5,0.3L60.8,18c-0.3,0.2-0.4,0.4-0.4,0.5c0,0.1,0,0.3,0.2,0.5l0.1,0.1l-0.1,0.1
					l-1.5-1.8l0.1-0.1l0.1,0.1c0.1,0.2,0.3,0.3,0.5,0.2c0.1,0,0.3-0.1,0.5-0.3l2.8-2.3l-4.8,1.3L58.1,16.3z"/>
				<path fill-rule="evenodd" clip-rule="evenodd" fill="#FFFFFF" d="M63.4,22.3l-0.6-2l-0.9-0.1c-0.2,0-0.4,0-0.5,0
					c-0.1,0-0.1,0.1-0.2,0.2c0,0.1,0,0.3,0,0.5l-0.1,0l-0.5-1.6l0.1,0c0.1,0.2,0.2,0.3,0.3,0.4c0.2,0.1,0.5,0.2,0.9,0.2l4.8,0.4
					l0,0.1L63,23.6c-0.3,0.3-0.5,0.5-0.5,0.6c-0.1,0.2-0.1,0.3,0,0.5l-0.1,0l-0.7-2l0.1,0c0.1,0.2,0.2,0.3,0.2,0.4
					c0.1,0.1,0.2,0.1,0.2,0c0.1,0,0.3-0.1,0.5-0.3L63.4,22.3z M63.6,22.1l1.8-1.5l-2.4-0.2L63.6,22.1z M68.5,21.7L66.8,21l0-0.1
					l1.4,0L68.5,21.7z"/>
				<path fill-rule="evenodd" clip-rule="evenodd" fill="#FFFFFF" d="M67.8,28.2l-1.9,0l0-0.1c0.4-0.1,0.6-0.1,0.9-0.3
					c0.2-0.1,0.4-0.3,0.5-0.5c0.1-0.2,0.2-0.5,0.2-0.7c0-0.3-0.1-0.5-0.3-0.7c-0.2-0.2-0.4-0.3-0.6-0.3c-0.2,0-0.3,0.1-0.4,0.2
					C66,26,65.7,26.4,65.4,27c-0.3,0.5-0.5,0.9-0.6,1c-0.1,0.2-0.3,0.3-0.5,0.4c-0.2,0.1-0.4,0.2-0.6,0.2c-0.4,0-0.8-0.1-1.1-0.5
					c-0.3-0.3-0.5-0.7-0.5-1.2c0-0.2,0-0.3,0-0.4c0-0.1,0.1-0.3,0.1-0.5c0.1-0.3,0.1-0.4,0.1-0.5c0-0.1,0-0.1-0.1-0.2
					c0,0-0.1-0.1-0.2-0.1l0-0.1l1.9,0l0,0.1c-0.4,0.1-0.7,0.2-0.9,0.3c-0.2,0.1-0.3,0.3-0.5,0.5c-0.1,0.2-0.2,0.5-0.2,0.8
					c0,0.3,0.1,0.6,0.3,0.8c0.2,0.2,0.4,0.3,0.6,0.3c0.1,0,0.3,0,0.4-0.1c0.1-0.1,0.3-0.2,0.4-0.3c0.1-0.1,0.2-0.4,0.5-0.9
					c0.3-0.5,0.5-0.8,0.6-1c0.2-0.2,0.3-0.3,0.5-0.5c0.2-0.1,0.4-0.2,0.6-0.2c0.4,0,0.7,0.1,1,0.4c0.3,0.3,0.4,0.7,0.4,1.1
					c0,0.3-0.1,0.6-0.2,0.9c-0.1,0.2-0.1,0.3-0.1,0.3c0,0.1,0,0.1,0.1,0.2c0,0,0.1,0.1,0.3,0.1L67.8,28.2z"/>
			</g>
		</g>
	</g>
</g>
</svg>
