<?xml version="1.0" encoding="utf-8"?>
<!-- Generator: Adobe Illustrator 20.0.0, SVG Export Plug-In . SVG Version: 6.00 Build 0)  -->
<svg version="1.1" id="Capa_1" xmlns="http://www.w3.org/2000/svg" xmlns:xlink="http://www.w3.org/1999/xlink" x="0px" y="0px"
	 width="223px" height="100px" viewBox="0 0 223 100" style="enable-background:new 0 0 223 100;" xml:space="preserve">
<style type="text/css">
	.st0{fill:#004136;}
	.st1{clip-path:url(#SVGID_2_);fill:#1D1D1B;}
	.st2{clip-path:url(#SVGID_2_);fill:#00ABA8;}
</style>
<g>
	<g>
		<path class="st0" d="M1.8,77.3c-0.3-0.2-0.4-0.3-0.4-0.8c0-1.1,0.1-2,0.1-2.3s0.1-0.4,0.2-0.4s0.2,0.1,0.2,0.3s0,0.5,0.1,0.8
			c0.4,1.6,2.1,2.2,3.6,2.2c2.3,0,3.4-1.3,3.4-2.9c0-1.5-0.8-2.3-2.9-3.8l-1-0.9c-2.4-1.8-3.2-3.2-3.2-4.7c0-2.6,2.1-4.2,5.1-4.2
			c0.9,0,1.8,0.1,2.3,0.3C9.8,61,9.9,61,10.1,61s0.3,0,0.3,0.2c0,0.1-0.1,0.8-0.1,2.3c0,0.4,0,0.5-0.2,0.5s-0.2-0.1-0.2-0.3
			c0-0.3-0.2-0.8-0.4-1.1s-0.9-1.1-3-1.1c-1.6,0-3.1,0.8-3.1,2.3c0,1.4,0.7,2.2,3,3.7L7,68c2.8,1.9,3.7,3.4,3.7,5.3
			c0,1.3-0.5,2.7-2.1,3.8c-1,0.6-2.3,0.8-3.6,0.8C4.1,77.8,2.7,77.7,1.8,77.3"/>
		<path class="st0" d="M19.9,61.4c0.3-0.7,0.4-0.8,0.5-0.8c0.3,0,0.3,0.3,0.5,0.8c0.5,0.9,4.1,10,5.4,13.4c0.8,2,1.4,2.3,1.9,2.4
			c0.4,0.1,0.6,0.1,0.9,0.1c0.1,0,0.3,0.1,0.3,0.2s-0.2,0.1-0.5,0.1c-0.4,0-2,0-3.6-0.1c-0.5,0-0.8,0-0.8-0.2c0-0.1,0.1-0.1,0.2-0.2
			s0.4-0.3,0.2-0.6l-2.1-5.1c-0.1-0.1-0.1-0.1-0.2-0.1h-5.2c-0.1,0-0.2,0.1-0.3,0.2L15.8,75c-0.2,0.5-0.4,1.1-0.4,1.4
			c0,0.5,0.4,0.6,0.8,0.6h0.2c0.2,0,0.3,0.1,0.3,0.2s-0.1,0.2-0.4,0.2c-0.5,0-1.8-0.1-2.1-0.1s-1.4,0.1-2.3,0.1
			c-0.3,0-0.5-0.1-0.5-0.2s0.1-0.2,0.2-0.2c0.2,0,0.5,0,0.6-0.1c1-0.1,1.4-0.9,1.9-2L19.9,61.4z M22.5,70.5c0.1,0,0.1-0.1,0.1-0.2
			l-2.3-6c-0.1-0.4-0.3-0.4-0.4,0l-2.1,6c0,0.1,0,0.2,0.1,0.2H22.5z"/>
		<path class="st0" d="M32.8,74.6c0.1,1.8,0.3,2.3,0.9,2.5c0.5,0.1,0.9,0.1,1.2,0.1c0.1,0,0.2,0.1,0.2,0.2s-0.2,0.2-0.5,0.2
			c-1.3,0-2.2-0.1-2.4-0.1c-0.2,0-1.2,0.1-2.2,0.1c-0.3,0-0.4,0-0.4-0.2c0-0.1,0.1-0.2,0.2-0.2c0.2,0,0.6,0,0.9-0.1
			c0.5-0.2,0.6-0.7,0.6-2.7V61.8c0-0.9,0.1-1.1,0.3-1.1c0.3,0,0.6,0.5,0.9,0.6c0.4,0.4,3.7,3.9,7.2,7.5c2.3,2.3,4.7,5,5.4,5.7
			l-0.3-11c0-1.4-0.2-1.9-0.8-2.1c-0.5-0.1-0.9-0.1-1.1-0.1s-0.2-0.1-0.2-0.2s0.2-0.2,0.5-0.2c1,0,2.1,0.1,2.3,0.1s1-0.1,2-0.1
			c0.3,0,0.5,0,0.5,0.2c0,0.1-0.1,0.2-0.3,0.2c-0.1,0-0.3,0-0.5,0.1c-0.7,0.2-0.8,0.6-0.8,1.9l-0.2,12.8c0,1.4,0,1.5-0.2,1.5
			c-0.3,0-0.5-0.2-1.7-1.4c-0.3-0.2-3.5-3.4-6-6c-2.6-2.8-5.2-5.4-5.9-6.2L32.8,74.6z"/>
		<path class="st0" d="M57.5,71.1c0,2.2,0,3.9,0.1,4.8c0.1,0.6,0.2,1.1,0.9,1.2c0.3,0.1,0.8,0.1,1,0.1s0.2,0.1,0.2,0.2
			s-0.1,0.2-0.4,0.2c-1.3,0-2.7-0.1-2.8-0.1s-1.7,0.1-2.3,0.1c-0.3,0-0.4-0.1-0.4-0.2s0.1-0.2,0.2-0.2c0.2,0,0.5-0.1,0.6-0.1
			c0.5-0.1,0.6-0.5,0.6-1.2c0.1-0.9,0.1-2.6,0.1-4.8v-9.2L52.2,62c-1.4,0-2,0.2-2.3,0.7c-0.3,0.4-0.3,0.5-0.4,0.7s-0.1,0.2-0.3,0.2
			c-0.1,0-0.2-0.1-0.2-0.2c0-0.3,0.5-2.2,0.5-2.3c0.1-0.1,0.2-0.5,0.3-0.5c0.2,0,0.4,0.2,1,0.3s1.5,0.1,1.8,0.1h8.6
			c0.7,0,1.3-0.1,1.6-0.1c0.4-0.1,0.5-0.1,0.6-0.1s0.1,0.1,0.1,0.3c0,0.6-0.1,2.3-0.1,2.5s-0.1,0.3-0.2,0.3S63,63.8,63,63.5v-0.3
			c-0.1-0.6-0.5-1.2-2.7-1.2l-2.9-0.1L57.5,71.1L57.5,71.1z"/>
		<path class="st0" d="M73.3,60.7c5.1,0,9,3.2,9,8.2c0,4.9-3.6,8.9-9.1,8.9c-6.2,0-8.9-4.7-8.9-8.7C64.3,65.6,67,60.7,73.3,60.7
			 M73.8,76.9c2.1,0,6.1-1.1,6.1-7.5c0-5.2-3.2-8-6.8-8c-3.8,0-6.6,2.3-6.6,7.1C66.7,73.7,69.8,76.9,73.8,76.9"/>
		<path class="st0" d="M8.5,93.4c0,2.1,0,3.8,0.1,4.7c0.1,0.6,0.2,1.1,0.9,1.2c0.3,0.1,0.8,0.1,1,0.1s0.2,0.1,0.2,0.2
			s-0.1,0.2-0.4,0.2c-1.3,0-2.6-0.1-2.8-0.1c-0.1,0-1.6,0.1-2.3,0.1c-0.3,0-0.4-0.1-0.4-0.2s0.1-0.2,0.2-0.2c0.2,0,0.5-0.1,0.6-0.1
			c0.5-0.1,0.6-0.5,0.6-1.2c0.1-0.9,0.1-2.6,0.1-4.7v-9.1l-3.2,0.1c-1.4,0-2,0.2-2.3,0.7c-0.3,0.4-0.3,0.5-0.4,0.7S0.4,86,0.2,86
			C0.1,86,0,85.9,0,85.8c0-0.3,0.5-2.2,0.5-2.3C0.8,83.2,0.9,83,1,83c0.2,0,0.4,0.2,1,0.3c0.6,0.1,1.5,0.1,1.8,0.1h8.5
			c0.7,0,1.3-0.1,1.6-0.1c0.4-0.1,0.5-0.1,0.6-0.1s0.1,0.1,0.1,0.3c0,0.6-0.1,2.3-0.1,2.4s-0.1,0.3-0.2,0.3s-0.2-0.1-0.2-0.4v-0.3
			c-0.1-0.6-0.5-1.2-2.7-1.2l-2.8-0.1L8.5,93.4L8.5,93.4z"/>
		<path class="st0" d="M24.2,83c5.1,0,8.9,3.1,8.9,8.1c0,4.9-3.6,8.8-9,8.8c-6.1,0-8.8-4.6-8.8-8.6C15.3,88,18,83,24.2,83
			 M24.6,99.1c2,0,6-1.1,6-7.4c0-5.2-3.2-7.9-6.8-7.9c-3.8,0-6.5,2.3-6.5,7C17.6,95.9,20.6,99.1,24.6,99.1"/>
		<path class="st0" d="M52.4,96.9c0.1,0.8,0.3,2,1.2,2.3c0.6,0.2,1.3,0.2,1.4,0.2s0.2,0.1,0.2,0.2s-0.2,0.2-0.5,0.2
			c-0.5,0-3-0.1-3.9-0.1c-0.5-0.1-0.6-0.1-0.6-0.3c0-0.1,0.1-0.2,0.2-0.2s0.2-0.4,0.1-0.8l-1.1-10.9h-0.1l-5.4,11.1
			c-0.5,0.9-0.6,1.2-0.8,1.2c-0.2,0-0.4-0.2-0.8-1c-0.6-1.1-2.1-3.9-2.6-5.1c-0.6-1.4-2.4-5.1-2.9-6h-0.1l-0.9,9.8
			c0,0.4,0,0.7,0,1.1s0.2,0.5,0.5,0.6c0.4,0.1,0.7,0.1,0.9,0.1c0.1,0,0.2,0.1,0.2,0.2c0,0.2-0.2,0.2-0.5,0.2c-0.8,0-1.9-0.1-2.1-0.1
			s-1.3,0.1-1.9,0.1c-0.3,0-0.4-0.1-0.4-0.2s0.1-0.2,0.3-0.2s0.4,0,0.6-0.1c0.7-0.1,0.7-0.9,0.9-1.7L36,83.3c0-0.3,0.1-0.4,0.3-0.4
			s0.4,0.1,0.5,0.4l6.8,13.5l6.6-13.4c0.1-0.2,0.2-0.4,0.4-0.4s0.3,0.2,0.4,0.6L52.4,96.9z"/>
		<path class="st0" d="M62.9,83.8c0.3-0.7,0.4-0.8,0.5-0.8c0.3,0,0.3,0.3,0.5,0.8c0.5,0.9,4,9.9,5.4,13.2c0.8,2,1.4,2.3,1.9,2.3
			c0.4,0.1,0.6,0.1,0.9,0.1c0.1,0,0.3,0.1,0.3,0.2s-0.3,0.2-0.5,0.2c-0.4,0-2,0-3.5-0.1c-0.5,0-0.8,0-0.8-0.2c0-0.1,0.1-0.1,0.2-0.2
			s0.4-0.3,0.2-0.6l-2-5c-0.1-0.1-0.1-0.1-0.2-0.1h-5.2c-0.1,0-0.2,0.1-0.3,0.2L59,97.3c-0.2,0.5-0.4,1.1-0.4,1.4
			c0,0.5,0.4,0.6,0.7,0.6h0.4c0.2,0,0.3,0.1,0.3,0.2s-0.1,0.2-0.4,0.2c-0.5,0-1.8-0.1-2-0.1c-0.3,0-1.4,0.1-2.3,0.1
			c-0.3,0-0.5-0.1-0.5-0.2s0.1-0.2,0.2-0.2c0.2,0,0.5,0,0.6-0.1c1-0.1,1.4-0.9,1.9-2L62.9,83.8z M65.4,92.8c0.1,0,0.1-0.1,0.1-0.2
			l-2.3-6c-0.1-0.4-0.3-0.4-0.4,0l-2.1,6c0,0.1,0,0.2,0.1,0.2H65.4z M67.4,79.9c0.1,0.3,0,0.3-0.1,0.3s-0.4-0.1-0.7,0
			c-1.3,0.1-3.1,0.7-3.9,1.1c-0.2,0.1-0.4,0.1-0.4,0.1c-0.1,0-0.1-0.1-0.1-0.2s0.1-0.1,0.2-0.2c0.9-0.6,3.3-2.1,3.5-2.2
			c0.5-0.3,0.6-0.4,0.7-0.4c0.1,0,0.1,0.1,0.3,0.3C67,79,67.1,79.3,67.4,79.9"/>
		<path class="st0" d="M73,99.5c-0.3-0.2-0.4-0.3-0.4-0.8c0-1.1,0.1-2,0.1-2.3s0.1-0.4,0.2-0.4s0.2,0.1,0.2,0.3s0,0.5,0.1,0.8
			c0.4,1.6,2.1,2.2,3.5,2.2c2.3,0,3.3-1.3,3.3-2.9c0-1.5-0.8-2.3-2.8-3.8l-1-0.7c-2.4-1.8-3.2-3.2-3.2-4.7c0-2.5,2-4.1,5-4.1
			c0.9,0,1.8,0.1,2.3,0.3c0.5,0.1,0.6,0.1,0.8,0.1s0.3,0,0.3,0.2c0,0.1-0.1,0.8-0.1,2.3c0,0.4,0,0.5-0.2,0.5s-0.2-0.1-0.2-0.3
			c0-0.3-0.2-0.8-0.4-1.1S79.6,84,77.6,84c-1.6,0-3,0.8-3,2.3c0,1.4,0.7,2.2,2.9,3.7l0.6,0.5c2.7,1.9,3.7,3.3,3.7,5.2
			c0,1.3-0.5,2.6-2.1,3.7c-0.9,0.6-2.3,0.7-3.6,0.7C75.3,100,73.9,99.8,73,99.5"/>
		<path class="st0" d="M83.3,60.8c-0.3,0.2-0.5,0.4-0.6,0.6c-0.2,0.3-0.3,0.5-0.3,0.9c0,0.3,0.1,0.6,0.3,0.9s0.4,0.5,0.6,0.6
			c0.3,0.2,0.5,0.3,0.9,0.3c0.3,0,0.6-0.1,0.9-0.3c0.3-0.2,0.5-0.4,0.6-0.6c0.2-0.3,0.3-0.5,0.3-0.9c0-0.3-0.1-0.6-0.3-0.9
			s-0.4-0.5-0.6-0.6c-0.3-0.2-0.5-0.3-0.9-0.3S83.6,60.7,83.3,60.8 M84.8,61c0.3,0.1,0.5,0.3,0.5,0.5s0.2,0.5,0.2,0.7
			c0,0.3-0.1,0.5-0.2,0.7c-0.1,0.3-0.3,0.5-0.5,0.5c-0.3,0.1-0.9,0.2-0.7,0.2c0.3,0-0.5-0.1-0.7-0.2c-0.3-0.1-0.5-0.3-0.5-0.5
			s-0.2-0.5-0.2-0.7c0-0.3,0.1-0.5,0.2-0.7c0.1-0.3,0.4-0.5,0.5-0.5c0.3-0.1,0.5-0.2,0.7-0.2S84.6,60.9,84.8,61 M83.7,63.4v-0.8h0.2
			c0.1,0,0.2,0,0.3,0.1s0.2,0.2,0.4,0.5l0.2,0.3h0.4l-0.3-0.4c-0.1-0.2-0.2-0.3-0.3-0.4c0,0-0.1-0.1-0.2-0.1c0.2,0,0.3-0.1,0.4-0.2
			S85,62.2,85,62c0-0.1,0-0.2-0.1-0.3s-0.2-0.2-0.3-0.2s-0.3-0.1-0.5-0.1h-0.6v1.9h0.2V63.4z M83.7,61.7h0.4c0.2,0,0.3,0,0.3,0
			c0.1,0,0.1,0.1,0.1,0.1s0.1,0.1,0.1,0.2s0,0.2-0.1,0.2c-0.1,0.1-0.2,0.1-0.4,0.1h-0.4L83.7,61.7L83.7,61.7z"/>
		<path class="st0" d="M37.4,32.7L37.4,32.7V33l0.9,0.6v-0.1l0.1,0.1c0,0,0-0.2,0-0.3c0,0-0.3-0.3-0.3-0.4
			C38.2,32.9,37.4,32.7,37.4,32.7"/>
		<path class="st0" d="M20.1,21.6c0-11.9,9.7-21.7,21.7-21.7s21.7,9.7,21.7,21.7c0,11.9-9.7,21.7-21.7,21.7S20.1,33.5,20.1,21.6
			 M21.4,21.6c0,11.3,9.1,20.4,20.4,20.4s20.4-9.1,20.4-20.4S53.1,1.2,41.8,1.2S21.4,10.3,21.4,21.6"/>
		<path class="st0" d="M22.3,21.6c0-10.7,8.8-19.5,19.5-19.5C52.5,2,61.3,10.8,61.3,21.6c0,10.7-8.8,19.5-19.5,19.5
			S22.3,32.3,22.3,21.6 M22.8,21.6c0,10.5,8.5,19,19,19s19-8.5,19-19s-8.5-19-19-19S22.8,11.1,22.8,21.6"/>
		<path class="st0" d="M42.7,19c0.2-0.2,0.4-0.4,0.5-0.5s0.2-0.3,0.3-0.4c0-0.1,0.1-0.2,0.3-0.2c0,0.3-0.2,0.5-0.4,0.7
			C43.2,18.7,42.9,18.9,42.7,19 M47.5,21.7c0-0.1,0.1-0.2,0.2-0.3c0-0.2-0.4,0-0.3-0.4c0.1,0,0.1,0,0.3,0c0.1,0,0.2,0,0.3,0.1v0.2
			c0,0.1,0.3,0,0.3,0.2c-0.1,0.2-0.3,0.2-0.5,0.2S47.5,21.7,47.5,21.7 M45.5,23.5v-0.2c-0.1-0.1-0.2-0.1-0.3-0.1
			c-0.2,0-0.4,0.1-0.6,0.1c0.4-0.5,1-0.4,1.4-0.6c0-0.1,0-0.2,0.1-0.3l1.9-0.5c-0.1,0.2-0.2,0.3-0.4,0.5c-0.1-0.1-0.3-0.1-0.4-0.1
			L45.5,23.5z M43.2,21.8c-0.1,0-0.2,0-0.3,0s-0.2,0-0.2-0.1l3.2-1.3c0-0.1-0.1-0.1-0.1-0.2l0.2-0.1c0.4,0,0.5,0.2,0.9,0.3l0.1,0.2
			l-1.7,0.5C44.6,21.2,44.2,21.5,43.2,21.8 M45.2,22.3L45.2,22.3c0.4-0.4,0.9-0.5,1.4-0.5l0.1-0.2c0.1,0,0.2,0,0.3,0
			s0.3,0.1,0.3,0.2s-0.1,0.1-0.3,0.1c-0.4,0.5-0.9,0.4-1.4,0.5C45.5,22.2,45.3,22.3,45.2,22.3 M43,14.6c-0.2-0.1-0.3,0-0.5-0.1
			c0,0,0-0.1,0-0.2c0-0.2,0.1-0.3,0.2-0.4h0.2l0.4,0.5L43,14.6z M35.5,27.2L35.5,27.2c-0.3,0-0.4,0.3-0.5,0.4c0-0.1,0-0.1,0-0.3
			c0,0,0-0.1,0.1-0.2c0.1,0,0.5-0.4,0.5-0.4c0.1,0,0.3,0.1,0.3,0.2C35.6,27.1,35.5,27.2,35.5,27.2 M33.6,28.4
			c0.1-0.1,0.2-0.4,0.3-0.4c0,0,0.4-0.5,0.5-0.5c0,0,0.1,0,0.2,0c0,0,0.1,0,0,0.2c-0.1,0.1-0.2,0.3-0.3,0.4c0,0-0.5,0.4-0.7,0.5
			C33.6,28.6,33.5,28.6,33.6,28.4 M32.8,27.4L32.8,27.4c0-0.3,0.2-0.4,0.5-0.5l0.4-0.2c0-0.1,0.1-0.3,0.2-0.3s0.2,0.1,0.2,0.2
			s-0.5,0.7-0.6,0.7C33.2,27.1,32.8,27.4,32.8,27.4 M34.9,25.7L34.9,25.7c-0.1,0.2-0.1,0.3-0.2,0.4s-0.5,0.3-0.5,0.2
			c0,0,0-0.1,0-0.2v-0.2c0.2-0.1,0.4-0.1,0.5-0.3C34.7,25.6,34.8,25.7,34.9,25.7 M33.5,25c0-0.1-0.1-0.1,0-0.4
			c0.1,0,0.1-0.1,0.2-0.2c0-0.1,0.3-0.3,0.4-0.3s0.1,0.1,0.2,0.2c0,0,0,0.1-0.2,0.2c-0.1,0.1-0.2,0.2-0.3,0.2
			C33.7,24.8,33.7,24.9,33.5,25 M31.9,26L31.9,26c0.2-0.2,0.4-0.2,0.5-0.3l0.2-0.4c0.1-0.1,0.2-0.2,0.3-0.2s0.2,0,0.2,0.1
			c0,0,0.1,0.1,0,0.2s-0.2,0.2-0.3,0.2c-0.1,0.1-0.3,0.2-0.4,0.4c-0.1,0.1-0.2,0.2-0.4,0.3C32,26.2,32.1,26.2,31.9,26 M33.5,23.2
			L33.5,23.2c0,0.1-0.2,0.3-0.3,0.3c0,0-0.1,0.1-0.2,0.2c-0.1,0-0.2,0.2-0.2,0.2l-0.2-0.3v-0.2c0-0.2,0.4-0.1,0.5-0.3
			c0-0.2,0.1-0.1,0.3-0.1L33.5,23.2z M31.3,25c-0.1,0-0.1-0.1-0.1-0.3l0.1-0.2c0-0.2,0.4-0.2,0.5-0.3c0,0,0.2-0.4,0.4-0.5
			c0.1,0,0.2,0.1,0.3,0.3l-0.2,0.1c0,0-0.1,0.2-0.3,0.3c-0.1,0-0.4,0.2-0.5,0.4C31.4,24.9,31.4,24.9,31.3,25 M32.6,21.7
			c0,0,0.1,0.1,0.2,0.2c-0.1,0.2-0.2,0.2-0.4,0.3c0,0-0.2,0.2-0.3,0.2c-0.1,0.1-0.3,0.3-0.4,0.4c-0.1,0-0.1,0-0.2-0.1
			c0-0.1,0-0.1,0-0.2v-0.2c0.1-0.1,0.3-0.2,0.4-0.2l0.2-0.2C32.1,22,32.5,21.8,32.6,21.7 M30.4,23.8c-0.1,0-0.1-0.2-0.2-0.2
			c0-0.1,0.1-0.1,0.2-0.3l0.1-0.2c0.1-0.1,0.2,0,0.3-0.1c0,0,0-0.1,0-0.2c0-0.2,0.4-0.2,0.5-0.1v0.2c0,0.1-0.2,0.1-0.2,0.2
			s-0.3,0.3-0.5,0.4C30.7,23.7,30.6,23.7,30.4,23.8 M34.8,20.2v0.3c-0.1,0-0.2,0.2-0.3,0.2c0,0-0.2,0.1-0.2,0.2
			c-0.1,0.1-0.3,0.4-0.4,0.3l-0.2,0.1c-0.1,0-0.3,0.1-0.3,0.2c-0.2-0.1-0.2-0.2-0.1-0.4c0.1-0.1,0.3-0.3,0.5-0.4
			c0.1,0,0.1-0.1,0.2-0.1c0.1-0.1,0.2-0.4,0.3-0.4l0.3-0.2C34.7,20.2,34.8,20.2,34.8,20.2 M33.8,22.1c0,0-0.1-0.2,0-0.3
			c0,0,0.1-0.1,0.2-0.2c0,0,0.2,0.2,0.1,0.4C34.1,22,34,22.1,33.8,22.1 M31.6,23.8L31.6,23.8c0,0.1-0.2,0.3-0.2,0.3
			c-0.1,0.1-0.1,0.1-0.2,0.2S31,24.4,31,24.4s-0.1,0-0.2,0.1l-0.1-0.2c0.1-0.1,0.2-0.1,0.2-0.2c0.1-0.3,0.3-0.2,0.5-0.4
			C31.3,23.7,31.5,23.7,31.6,23.8 M31.9,23.8l-0.1-0.2c-0.1,0-0.1-0.1,0-0.2l0.3-0.2c0.1,0,0.2-0.2,0.3-0.2c0,0,0.2-0.1,0.2-0.2
			s0.2-0.3,0.2-0.3c0.1-0.1,0.2-0.2,0.2-0.2c0.1,0,0.1,0,0.2,0c0,0,0,0.1,0.1,0.2c-0.1,0.1-0.1,0.1-0.2,0.2l-0.5,0.5
			c0,0.1-0.2,0.1-0.3,0.2c0,0-0.1,0.1-0.2,0.1C31.9,23.6,31.9,23.8,31.9,23.8 M32.3,24.8L32.3,24.8c0,0.2-0.1,0.2-0.1,0.3
			c-0.2,0.2-0.5,0.5-0.7,0.5v-0.2c0.1-0.1,0.4-0.5,0.6-0.5C32.1,24.8,32.2,24.8,32.3,24.8 M32.6,24.8L32.6,24.8
			c-0.1,0-0.2-0.2-0.2-0.2s0,0,0.1-0.2l0.2-0.2c0.1,0,0.1,0,0.3-0.2c0.1,0,0.1-0.1,0.2-0.1c0-0.1,0.3-0.4,0.3-0.4
			c0.1-0.1,0.2-0.1,0.2-0.2c0,0,0.1,0,0.2,0l0.1,0.2c-0.1,0-0.1,0.3-0.3,0.3c0,0-0.3,0.1-0.3,0.2c-0.4,0.1-0.3,0.5-0.5,0.5
			C32.8,24.7,32.6,24.7,32.6,24.8 M33.8,25.3L33.8,25.3c0.2-0.2,0.3-0.2,0.3-0.3c0.1-0.1,0.3-0.2,0.3-0.3c0.1,0,0.2,0,0.2,0.2
			c0,0.1-0.2,0.3-0.4,0.4s-0.2,0.3-0.3,0.3C33.8,25.6,33.8,25.4,33.8,25.3 M33.7,25.7c0.1,0.1,0.1,0.1,0,0.3
			c-0.1,0.1-0.5,0.3-0.5,0.4c-0.3,0-0.4,0.4-0.5,0.5L32.5,27c-0.1,0-0.1-0.1-0.2,0c-0.1,0-0.1-0.1,0-0.2c0-0.2,0.3-0.3,0.4-0.3
			s0.2-0.1,0.3-0.3C33.1,25.8,33.4,25.7,33.7,25.7 M33.9,27.3c0-0.1-0.1-0.1-0.1-0.2s0.2-0.4,0.2-0.4c0.2-0.1,0.3-0.2,0.5-0.3
			l0.3-0.3c0-0.1,0.3-0.1,0.4-0.1s0.2,0,0.2,0.1s-0.1,0.2-0.2,0.3l-0.5,0.5c-0.1,0.1-0.1,0.2-0.3,0.3L33.9,27.3z M33.8,27.4
			c0.1,0.1,0.1,0.1,0.1,0.2s-0.3,0.2-0.3,0.2c-0.1,0.1-0.4,0.4-0.5,0.4h-0.2c0-0.1-0.1-0.1-0.1-0.2s0.1-0.3,0.2-0.3l0.3-0.1
			c0-0.1,0.3-0.2,0.3-0.2H33.8z M29.7,20.6c0.5-6.2,5.7-11.1,12-11.1c6.7,0,12.1,5.4,12.1,12.1c0,2.1-0.2,3.5-1.1,5.1
			c-0.1,0.4-0.1,1.4-0.1,1.8c0,0,0,0.7-0.5,2c-0.2,0.5-0.5,0.8-0.8,1.2c-0.7,0.7-1.4,1-2.4,1.4c-0.1,0-0.6,0.2-0.6,0.1
			c-0.1,0-0.3,0-0.3,0c-0.4,0.1-0.5,0.3-0.9,0.4s-0.9,0-1.4,0.2c-0.9,0.3-1.4,0.4-2.1,0.7c-0.4,0.1-0.8,0.4-1.2,0.5
			c-0.5,0.2-0.7,0.3-1,0.5c-0.2,0.1-0.7,0.4-1.1,0.4s-0.6-0.7-0.8-0.8c-0.8-0.5-1.5-2-1.6-2.3c-1.9-0.5-2.2-1.2-3.8-2.2
			c0,0-0.1,0.1-0.2,0.2c-0.2,0.1-0.6,0.4-0.6,0.4l-2.7-3.5l-1.7-2.5l-1.5-2.7l1.2-0.9C28.9,21.2,29.4,20.9,29.7,20.6 M29.7,24.8
			l0.1-0.2c-0.3-0.3-0.7-0.6-1.1-0.9C29.1,24.1,29.4,24.5,29.7,24.8 M28.7,23c0,0,0.5,0.4,1.1,0.9c0.3,0.2,0.6,0.7,0.8,1
			c1.2,1.9,2,3.5,3.3,5.2h0.2c0.6-0.4,0.9-1.1,1.6-1.5c-0.1-0.3-0.1-0.5-0.1-0.7c0-0.7,0.4-1.2,1-1.4c-0.1-0.1-0.3-0.1-0.3-0.2
			c-0.1-0.2,0-0.5-0.3-0.5c-0.1-0.1-0.1-0.2-0.1-0.3c0-0.3,0.5-0.6,0.5-1c0-0.1-0.1-0.4-0.2-0.4c-0.6,0-0.9-1.4-0.9-1.9
			c0-0.2,0-0.3,0.1-0.5c-0.1,0-0.1-0.5-0.2-0.5c-0.2,0-0.2,0.2-0.3,0.2c-0.3,0.1-0.5,0.1-0.8,0.3c0.1-0.2,0.9-0.8,1.1-0.9l-0.1-1.2
			c-0.5-0.5-0.6-1.4-1.3-1.5c-0.1,1.4-0.4,1.5-1.7,2c0.8,1.2,1.4,2.4,2.3,3.6c0.5,0.9,1.2,1.6,1.5,2.5L35.4,26
			c-0.5-1.5-2.5-4.5-3.6-5.9C32,21.6,28.7,23,28.7,23 M30.1,25.1l0.1,0.3c0.1,0.1,0.2,0.3,0.3,0.4c1,1.4,1.8,3,2.9,4.3
			C32.2,28.3,31.1,26.1,30.1,25.1 M28.2,23.7c0.8,1.4,4,5.9,5.1,7h0.3c-0.5-0.3-0.7-0.6-1.1-1.1c-0.8-1.1-1.4-2-1.4-2.3
			C30.9,27.1,28.4,23.8,28.2,23.7 M33.8,31c1.2,1.1,3,2.1,4.6,2.5c-0.1-0.1-0.1-0.2-0.2-0.3c-0.1,0-0.7-0.2-0.8-0.3
			c0,0-0.3-0.5-0.5-0.9c-0.9-0.5-1.8-1-2.5-1.6l-0.5,0.5C33.9,30.8,33.9,30.9,33.8,31L33.8,31 M40.1,34.1c0.2,0.8,0.7,1.5,0.9,0.1
			c0.1-0.3,0.2-0.5,0.4-0.8c-0.1-0.2-0.4-0.1-0.5-0.2c0.2-0.4-0.1-0.6,0-1.1c0.2,0,0.7,1,0.7,1.2s0,0.3-0.1,0.5
			c0.3,0.2-0.1,0.3-0.1,0.5c0.3,0,0.5-0.7,0.7-0.9c0.5-0.4,1.4-0.3,1.9-0.5c-0.1-0.1,0-0.1,0-0.2l-0.3,0.1c0,0.2-0.1,0.3-0.4,0.3
			c-0.2,0-0.2-0.1-0.4-0.1c-0.1,0-0.4,0.2-0.6,0c0-0.1,0.1-0.1,0.3-0.2c-0.2,0-0.5,0.1-0.6,0.1s-0.1-0.3-0.4-0.3
			c-0.5,0-0.5-0.4-0.9-0.5v-0.4c0-0.1,0.2-0.1,0.1-0.2c-0.1,0-0.2,0.1-0.2,0.1c-0.2,0-0.2-0.3-0.2-0.4c0-0.6-0.1-1.2-0.1-1.8
			c0.1,0,0.1,0,0.1,0c0.5,0-0.1,1.4,0.7,1.8c0,0.5,0.6,0.7,1,1.1c0.4,0,0.5-0.2,0.7-0.4c0.4-0.1,0.9-0.2,1.3-0.2c0.2,0,0.4,0,0.5,0
			c-0.4,0.4-1,0.1-1.5,0.5c0.7-0.2,1.7-0.4,2.5-0.4c0.5,0,1.1,0,1.7-0.2c-0.3-0.3-1.1-0.5-1.5-0.6c0.1,0,0.2,0,0.3,0
			c1,0,2.1,0.3,3.1,0.3l0.3-0.2c0-0.5,0.8-1.4,1.4-1.9l0.2,0.1c0.2-0.1,0.5-0.4,0.5-0.5s-0.3,0-0.4-0.1c0-0.1,0-0.2,0-0.3
			c0-0.6,0.6-1.1,0.6-1.7c0-0.1,0-0.2-0.1-0.3c-0.6-0.3-0.5-1.1-0.9-1.4h-0.2c-0.1,0.3-0.2,0.5-0.2,0.8c0,0.8,0.3,1.9-0.8,2.5
			c-0.7,0.4-0.6,0.4-1.4,0.4c-1.2,0-2.4-0.4-3.5-0.7l0.1-0.2c0.1,0,0.2,0,0.3,0s0.1,0.1,0.3,0.1c0.1,0,0.2,0,0.3,0
			c0.2,0.1,1.2,0.5,1.3,0.4c0.1,0,0.3,0.2,0.4,0.2c0.3,0,0.8-0.1,1.1-0.1l0.3,0.2c1.2,0,0.7-1.9,1.4-1.9c0.1,0,0.2,0.1,0.3,0
			c-0.1-0.2-0.1-0.3-0.1-0.5c0-0.3,0.1-0.6,0.1-0.9c0-0.2,0-0.3-0.1-0.5c-0.3-0.1-0.5-0.3-0.9-0.3c-0.1,0-0.2,0-0.3,0
			c-1,0.7-1.7,1.7-3.2,2c0.1,0.1,1.9,0.2,2.2,0.2c0,0.2,0.3,0.2,0.5,0.2c0.3,0,0.6,0.5,0.6,0.6s-0.1,0.2-0.3,0.2
			c-0.6,0-0.2-0.5-1.4-0.5c-0.4,0-0.8,0-1.2,0.1c0,0.1-0.2,0.1-0.2,0.1c-0.4-0.1-0.7-0.3-1.1-0.3c-0.1,0-0.3,0-0.4,0.1
			c0,0.1,0.1,0.2,0.1,0.4c-0.7-0.2-1.4-0.5-2.2-0.5l-0.2,0.1c0,0.2,0.8,0.5,1,0.5v0.2c-0.1,0-0.2,0.1-0.4,0.1
			c-0.2-0.1-1.8-0.7-1.9-0.7s-0.2,0-0.4,0.2c0.1,0.1,0.2,0,0.3,0.1c0.7,0.2,0.8,0.6,1.3,1c0.3,0.3,0.7,0.5,1.2,0.7
			c0.3,0.8,1.3,1.2,2.1,1.7c-0.1,0.2,0.1,0.4-0.3,0.4c-0.4-0.1-1.7-0.5-1.7-0.9c0-0.1,0.1-0.1,0.2-0.2c-0.1,0-0.5-0.5-0.5-0.6
			s-0.1-0.1-0.2-0.2c0.1,0.3-0.1,0.4-0.1,0.5s0,0.1,0,0.3c-0.6,0.1-0.4-0.4-0.5-0.5c-0.5-0.4-1.4-2-1.9-2c0,0,0.2,0.1,0.2,0.2
			c0.2,0.2,0.5,0.5,0.5,0.7c0,0.1,0,0.1,0,0.2c0.1,0.2,0.3,0.4,0.5,0.5l-0.1,0.2c-1,0-0.6-1.3-1.7-1.5c0.2,1-0.2,2.1-0.2,3.1
			C39.4,32.1,39.7,33.1,40.1,34.1 M42,34.3c0.2,0,0.4,0,0.5,0c0.2-0.2,0.4-0.4,0.6-0.6h-0.3C42.6,33.9,42.2,34,42,34.3 M52.4,26
			c0.6-1.4,1.1-2.9,1.1-4.5c0-6.5-5.3-11.6-11.7-11.6c-6,0-10.8,4.5-11.6,10.2c0.3-0.3,0.5-0.5,0.7-0.7c0.9-5.1,5.4-8.9,10.8-8.9
			c6,0,11,4.9,11,10.9c0,0.7-0.1,1.4-0.2,2.1l0.5,1C53.2,25.7,52.8,26.1,52.4,26 M27.9,23h0.2c0.2-0.2,2.2-1.5,2.3-1.6
			c0.2-0.1,0.5-0.3,0.5-0.5L27.9,23z M52.8,24.5L52.8,24.5c-0.2-0.8-1-1.4-1.2-2.2c-0.4-0.1-0.7-0.5-0.7-0.8c0-0.1,0-0.2,0.1-0.2
			c0.5,0,1.4,1.7,1.5,1.8c0-0.5-0.3-1-0.3-1.4c0-0.3,0.2-0.5,0.4-0.7c-0.3-0.5-0.3-0.1-0.3-1.1c-0.5-0.6-0.5-1.2-1.4-1.6
			c-0.1-0.1-0.1-0.3-0.1-0.3l-1.5-0.3c0.1-0.3,1.4-0.3,1.4-0.4l-0.5-0.5c-0.3,0.3-0.5,0.6-0.9,0.7c0,0.1-0.1,0.2-0.1,0.3
			c-0.7,0.1-1.4,0.3-2.2,0.5c-1.4,0.5-2.9,1.9-4.4,1.9c-0.1,0-0.3,0-0.2-0.3c2.1-0.2,6.3-3.1,6.8-3.1c0.2,0,0.3,0.2,0.5,0.3
			l-0.2-0.2c-0.1-0.5,0.6-0.5,0.6-0.9l-0.8-0.6L49,14.6c-0.1,0-0.2-0.1-0.3-0.1s-0.3,0-0.5,0.2c0,0.1,0.3,0.2,0.3,0.3
			c0,0.6-0.8,2.3-1.4,2.7l-1.8,1c-0.6,0.4-2.3,1.1-2.9,1.1c-0.1,0-0.3,0-0.3-0.1s0.1-0.1,0.1-0.2c1.5-0.3,2.8-1,4.1-1.8
			c0-0.3-0.3-0.8-0.5-0.8c-0.4,0-0.5,0-0.5-0.4c0-0.1,0-0.2,0.2-0.2c0.1,0,0.5,0.2,0.5-0.2c0-0.3,0.2-0.4,0.1-0.5h-0.2
			c-0.2,0-0.4-0.1-0.5,0v0.3c0,0.2-0.2,0.2-0.2,0.4s0.1,0.3,0.1,0.5L45,16.9c-0.2,0.4-0.2,0.8-0.6,0.9l-0.1-0.2
			c0-0.2,0.3-0.2,0.3-0.5c-0.1,0-0.4,0.1-0.5,0c-0.2-0.2-0.1-0.8-0.3-0.9c-0.6,0-0.4-0.4-0.7-0.3c-0.2,0-0.1-0.5-0.5-0.5
			c-0.8,0-0.8-0.5-1.5-0.5c-0.2,0-0.4,0-0.5,0.1c0,0.1,0,0.2,0,0.3c0,0.3,0.2,0.6,0.2,0.8c0,0.1-0.1,0.2,0.1,0.2c0.3,0,1-0.1,1,0.4
			c0,0.2-0.3,0.3-0.3,0.4c-0.1,0.1,0,0.4-0.2,0.4s-0.3-0.5-0.5-0.6v1.3c0.2,0,0.2-0.3,0.5-0.3v-0.3c0,0,0.3,0.5,0.2,0.6
			c-0.2,0-0.4-0.2-0.4,0.1c0,0.1,0.1,0.2,0.2,0.2s0.5-0.1,0.5,0c0,0.3-0.4,0.1-0.4,0.3c0,0.3,0.3,0.1,0.3,0.4s-0.1,0.5,0.5,0.5
			c0,0.3-0.3,0.3-0.5,0.4v0.2h0.2c-0.1,0.2,0,0.4,0.2,0.4c2.1,0,4.2-0.8,6-2c0.3,0.1,0.5-0.1,0.8-0.1c0.2,0,0.4,0,0.5,0.2l0.1,0.2
			l-0.5,0.1c0.2,0.1,0.4,0.2,0.5,0.2c0.5,0,1-0.4,1.4-0.4c0.8,0,1,1.3,1.1,1.8c0.1,0.2,0.4,0.5,0.4,0.5c0,0.1-0.4,0.2-0.4,0.2
			c-0.5,0-0.5-0.9-0.5-0.9h-0.3c-0.3-0.2-1-0.3-1-0.6c-0.7-0.3-1.5-0.4-2.3-0.4c-2,0-1.9,1-2.6,1c-0.1,0-0.5-0.1-0.6,0.1
			c-0.1,0.1,0,0.3-0.1,0.4c-0.4-0.1-0.8-0.1-1.1,0.2h-1.6c0.1,0.8,0.5,0.5,0.9,0.9c-0.1,0.1-0.5,0.4-0.6,0.4c-0.6,0-0.5-1.3-1.3-1.3
			l0.7,1.6h-0.2c-0.2,0-0.5-0.5-0.7-0.7h-0.2l0.5,1.2l1.2,0.7c0,0.5,0.8,0.4,1.2,0.4c1,0,1.9-0.5,2.9-0.5c0.3,0,0.5,0.1,0.7,0.1
			c0.6,0,1.3-0.5,1.9-0.5c0.3,0,0.4-0.1,0.6-0.1c0.6,0,1.2,0.6,1.8,0.6c0.1,0,0.2,0,0.2,0c0.2,0.1,0.2,0.5,0.4,0.5
			C52.2,24.3,52.2,24,52.8,24.5 M43.4,15.4L43.4,15.4c0.1-0.2,0.2-0.2,0.2-0.4c0-0.1-0.1-0.3,0.1-0.5c0.3,0.3,0.1,0.3,0.3,0.5
			l0.2-0.1c-0.1,0,0-0.3,0-0.3c0.3,0.1,0.5,0.5,0.8,0.5c0.4,0,0.5-0.1,0.7,0.1c0-0.1,0-0.2,0-0.3c0-0.3-0.1-0.6-0.2-0.9
			s-0.1-0.5-0.3-0.8c-0.4-0.7-1.4-1.1-2.3-1.1c-1,0-2.2,0.5-2.7,1.4c0.3,0,0.8-0.2,1.3-0.2c0.2,0.1,0.3,0.4,0.5,0.4l0.1-0.2h0.2
			c0,0.5,0,1-0.1,1.4c0.1,0,0.2-0.1,0.3-0.1c0.2,0,0.2,0.3,0.3,0.4s0.2,0,0.3,0C43.2,15.3,43.2,15.4,43.4,15.4 M38.6,27.5l0.2-0.1
			c-0.1-0.2-0.5-0.5-0.5-0.6c0-0.5,0-1.2-0.1-1.7c0-0.1,0.2-0.2,0.2-0.2s0.1-0.7,0.1-0.8c0-0.4,0-0.6-0.4-1c-0.1,0.2,0,0.7-0.3,0.7
			c-0.1,0-0.5-0.5-0.5-0.5c0-0.7,0.3-1.4,0.3-2.1c0-0.3-0.4-0.5-0.5-0.5C37,20.8,37,21,37,21c0,0.5,0.3,0.3,0.3,0.5
			c0,0.1-0.2,0.1-0.3,0.1s-0.1,0.2-0.2,0.2c0,0-0.2-0.1-0.2,0s0.1,0.2,0.1,0.4c-0.2,0-0.7-0.6-0.9-0.7l-0.5-0.1
			c-0.1,0-0.2,0.1-0.1,0.3c0.4,0.3,0.5,0.5,0.7,0.8c0.1,0.1,0.1,0.6,0.2,0.9c0.3,0.5,0.4,0.4,0.6,0.6s0.1,0.5,0.2,0.7l0.5,0.4
			l0.4-0.8h0.2l0.1,0.3c-0.3,0.5-0.5,1.2-0.5,1.8C37.6,27,38,27.2,38.6,27.5 M52.2,27.5c0.1-0.2,0.2-0.4,0.2-0.4c0-0.1,0-0.3,0-0.4
			v-0.4c0-0.3-0.1-0.5-0.2-0.7V27.5z M41.1,26.8l0.3-1.4l-0.2,0.1l-0.4,1.2C40.8,26.8,41,26.8,41.1,26.8 M44.7,26.4
			c0.3-0.1,0.5-0.1,0.7-0.3c0.4-0.2,0.6-1.1,1-1.1l0.2,0.1l-0.2,0.5c0.6-0.1,1.1-1,1.4-1.4c-0.3,0-0.6,0-0.8,0
			c-0.2,0.1-0.4,0.2-0.5,0.5c-0.4,0.3-0.8,0.5-1,0.9C45.1,25.8,44.7,26,44.7,26.4 M40.3,26.3L40.3,26.3l0.3-0.7l-0.2-0.2
			c-0.1,0.1-0.2,0.3-0.2,0.5v0.2C40.2,26.1,40.2,26.2,40.3,26.3 M39.6,25.7c0.2,0,0.2-0.3,0.2-0.4c-0.1-0.1-0.2-0.3-0.2-0.4
			c0-0.3,0.2-0.5,0.2-0.8c0-0.1,0-0.3-0.2-0.3V25.7z M42.5,25.7L42.5,25.7c0.2-0.2,0.3-0.3,0.3-0.5c0-0.1,0-0.2,0-0.3
			c-0.1,0.1-0.1,0.1-0.2,0.2C42.6,25.2,42.5,25.5,42.5,25.7 M41.8,25.7L41.8,25.7l0.5-1.2L41.8,25c0,0.1-0.1,0.2-0.1,0.3v0.2
			C41.7,25.5,41.8,25.7,41.8,25.7 M36.4,25.6c0.1-0.1,0.2-0.1,0.2-0.3l-0.2,0.1V25.6z M43.5,25.3c0,0,0.1-0.1,0.3-0.2
			c0-0.1,0-0.2,0-0.2c0-0.1,0-0.2,0-0.3L43.5,25.3z M40.6,25.2c0.2-0.2,0.3-0.2,0.4-0.5c0,0-0.1-0.1-0.2-0.1l0.4-1L41,23.7
			L40.6,25.2z M52.3,25.2c0.1-0.2-0.2-0.5-0.3-0.5c0,0,0,0.1,0,0.2c0,0,0,0.1,0.1,0.3C52.2,25.1,52.2,25.2,52.3,25.2 M45.8,24.7
			c0.2-0.2,0.6-0.4,0.5-0.6c0,0-0.1,0.1-0.2,0.1c-0.1,0.1-0.1,0.2-0.2,0.2C45.9,24.5,45.8,24.6,45.8,24.7 M39,24.5L39,24.5
			c0.1-0.1,0.2-0.2,0.2-0.2c0-0.2,0-0.5,0.1-0.6c-0.2-0.2-0.2-0.1-0.2-0.2c0,0.1-0.1,0.2-0.1,0.3c0,0.1,0,0.3,0,0.4v0.2
			C39,24.3,39,24.4,39,24.5 M40.1,23.2l0.2-0.2c0,0,0-0.1-0.1-0.2c-0.1,0-0.1,0-0.2,0c0,0-0.1,0-0.1,0.2L40.1,23.2z M32.3,19.9
			c0.3,0,1.2-0.5,1.4-1C33.2,19.2,32.8,19.5,32.3,19.9 M36.3,20.2c-0.1,0-0.2,0-0.4,0.2c-0.2,0.1-0.3,0.2-0.4,0.4c0,0-0.1,0.1,0,0.2
			c0.1,0,0.1-0.1,0.3-0.3c0.2,0,0.3-0.2,0.4-0.3s0.2,0,0.3-0.1h0.3C36.5,20.2,36.3,20.2,36.3,20.2 M36.9,20.1
			c0.4-0.1,0.5-0.2,0.9-0.2c0.2,0,0.5,0.1,0.6,0c0.5-0.2,1.4-0.5,2.5-0.6c-0.1-0.1-1-0.2-1.2-0.2C38.7,19.2,37.8,19.5,36.9,20.1
			 M32.8,19.1l0.8-0.5c0.1,0,0.1,0,0.1-0.2c0,0-0.1,0-0.2,0.1L32.8,19.1z M46.3,17.1L46.3,17.1c0.1-0.2,0-0.2,0-0.4
			c0,0-0.1,0.1-0.2,0.2C46.2,16.9,46.3,17,46.3,17.1 M43.9,15.4l-0.1,0.2c0,0.1,0.2,0.1,0.2,0.4s-0.1,0.5-0.1,0.7
			c0.2,0,0.3-0.5,0.3-0.6v-0.2C44.1,15.7,44,15.5,43.9,15.4 M46.7,16.6l0.7-0.4h-0.2C47,16.4,46.9,16.4,46.7,16.6 M46.4,16.3
			l0.7-0.6c-0.3,0-0.4,0.1-0.5,0.3c-0.1,0.1-0.2,0.1-0.2,0.2V16.3z M47.5,15.9h0.2l0.1-0.2l-0.1-0.2h-0.3c0,0,0.1,0,0.3,0.2
			C47.6,15.8,47.6,15.8,47.5,15.9C47.6,15.7,47.5,15.8,47.5,15.9 M41.7,15L41.7,15c0.2-0.2,0.2-0.5,0.2-0.6l-0.2,0.1
			c-0.1,0.1-0.1,0.2-0.1,0.2L41.7,15 M41.1,14.2L41.1,14.2c0.1-0.1,0.2-0.1,0.2-0.2v-0.2l-0.2,0.1V14.2z M39.6,27.5h0.2
			c-0.1-0.3-0.2-0.5-0.3-0.7c-0.1-0.1-0.2-0.2-0.3-0.3c-0.1,0.2,0.1,0.4-0.1,0.6L39.6,27.5z M37.5,32.3l-0.1-1.6
			c-0.1,0-0.2-0.1-0.2-0.3c0.1-0.1,0.2-0.2,0.3-0.2c0.2,0,0.5,0.1,0.7,0.1v-0.2c-0.3,0-0.5,0-0.7,0h-0.2c-0.2,0-0.4,0-0.4,0.2
			C36.9,31.2,37.2,31.6,37.5,32.3 M51,31.2c0.5-0.5,1-0.7,1.2-1.4l-1.1,1.1C51.1,30.9,51.1,31,51,31.2 M38.5,30.3L38.5,30.3h0.3
			c0,0,0.1,0,0-0.2h-0.2h-0.2L38.5,30.3L38.5,30.3z M36.7,29.4c0,0.2,1.1,0.5,1.4,0.5s0.5-0.1,0.8-0.1c0.1,0,0.1,0,0.2,0
			c0.1-0.1,0.2-0.5,0.2-0.5V29c0-0.4-0.3-0.6-0.5-0.9l-0.3-0.2c-0.4,0-0.6,0.1-1,0.1c-0.5,0-1-0.3-1.4-0.3c0,0-0.1,0-0.2,0.1
			c0,0.4,1.4,0.6,1.4,0.7s-0.2,0.2-0.2,0.2c-0.2,0-0.7-0.2-0.9-0.2c0,0.1,0.1,0.2,0.2,0.2c0.3,0.2,0.5,0.3,0.8,0.4
			c0.1,0,0.4,0.3,0.2,0.4C37.3,29.4,37,29.4,36.7,29.4 M37.2,27.5L37.2,27.5l0.5,0.2c0,0,0.1-0.1,0.1-0.2l-0.3-0.2h-0.2
			C37.2,27.3,37.2,27.3,37.2,27.5 M50,27.4c0.2-0.1,0.3-0.2,0.3-0.4c0-0.1,0-0.1,0-0.2L50,27.4z M39.1,33.5c0.1-0.1,0.1-0.2,0.1-0.2
			c0-0.1,0-0.1,0-0.2c-0.1,0-0.1-0.1-0.2,0C39,33.2,39,33.4,39.1,33.5"/>
		<path class="st0" d="M28.2,31.9L28.2,31.9l-0.7,0.3l-1.1-1.8h0.1l0.1,0.1c0.1,0.1,0.2,0.2,0.3,0.2c0.1,0,0.2,0,0.3-0.1l1.5-0.9
			c0.2-0.1,0.3-0.2,0.3-0.2c0-0.1,0-0.2,0-0.3l-0.1-0.1H29l0.6,1.1h-0.1c-0.1-0.1-0.2-0.2-0.2-0.3c-0.1,0-0.1-0.1-0.2-0.1
			s-0.2,0.1-0.3,0.1l-1.5,0.9c-0.1,0.1-0.2,0.1-0.2,0.2v0.1c0,0,0.1,0.1,0.2,0.3l0.1,0.2c0.1,0.2,0.2,0.3,0.3,0.4s0.2,0.1,0.3,0.1
			C27.9,31.9,28.1,31.9,28.2,31.9"/>
		<path class="st0" d="M31.1,32.2L31.1,32.2l0.7,0.7h-0.1l-0.1-0.1c-0.1-0.1-0.2-0.1-0.3-0.1s-0.1,0.1-0.3,0.2l-0.8,0.7
			c-0.2,0.2-0.4,0.3-0.5,0.4s-0.4,0.1-0.5,0s-0.4-0.2-0.5-0.4c-0.2-0.3-0.4-0.5-0.4-0.6c0-0.2,0-0.4,0.1-0.5s0.2-0.3,0.5-0.5
			l0.8-0.7c0.1-0.1,0.2-0.2,0.2-0.3s0-0.2-0.1-0.2l-0.1-0.1l0.1-0.1l0.8,0.9l-0.1,0.1l-0.1-0.1c0,0-0.1,0-0.2,0s-0.2,0.1-0.3,0.2
			L29,32.5c-0.1,0.1-0.2,0.2-0.3,0.3s-0.2,0.2-0.2,0.3c0,0.1,0,0.2,0,0.3s0.1,0.2,0.2,0.4c0.1,0.1,0.3,0.3,0.5,0.3
			c0.2,0.1,0.3,0.1,0.5,0c0.1,0,0.3-0.2,0.5-0.4L31,33c0.1-0.1,0.2-0.2,0.2-0.3S31.2,32.4,31.1,32.2L31.1,32.2z"/>
		<path class="st0" d="M32.2,34.9L32.1,36c0,0.3,0,0.5,0,0.6s0.1,0.2,0.2,0.3V37l-1-0.7v-0.1c0.1,0.1,0.1,0.1,0.2,0.1h0.1
			c0,0,0.1,0,0.1-0.1v-0.1c0,0,0-0.1,0-0.2l0.1-0.8L31,35.4c-0.1,0-0.2,0.1-0.2,0.1s-0.1,0-0.1,0.1v0.1c0,0,0.1,0.1,0.2,0.2L30.7,36
			L30,35.2v-0.1c0.1,0,0.1,0.1,0.2,0.1s0.2,0,0.3,0s0.2,0,0.4-0.1l1-0.3v-1c0-0.3,0-0.5-0.1-0.5c0-0.1-0.1-0.2-0.2-0.3l0.1-0.1
			l1,0.8l0.1,0.1c-0.1-0.1-0.2-0.1-0.2-0.1c-0.1,0-0.1,0-0.1,0.1c0,0-0.1,0.1-0.1,0.3v0.7l0.8-0.2c0.1,0,0.2,0,0.2-0.1
			c0,0,0.1,0,0.1-0.1v-0.1v-0.1c0,0-0.1-0.1-0.2-0.1l0.1-0.1l0.8,0.6l-0.1,0.1c-0.1,0-0.1-0.1-0.2-0.1s-0.2,0-0.3,0s-0.2,0-0.4,0.1
			L32.2,34.9z"/>
		<path class="st0" d="M36.1,35.8l-0.4,1l0.5,0.2c0.2,0.1,0.3,0.1,0.4,0.1s0.2-0.1,0.3-0.3H37l-0.4,0.9h-0.1c0-0.1,0-0.2,0-0.3
			s0-0.1-0.1-0.2c0-0.1-0.1-0.1-0.2-0.1l-0.5-0.2l-0.5,0.8c0,0.1-0.1,0.2-0.1,0.2V38c0,0,0.1,0.1,0.2,0.1l0.5,0.2
			c0.2,0.1,0.3,0.1,0.4,0.1s0.2,0,0.3-0.1s0.3-0.2,0.4-0.3H37l-0.5,0.6l-2-0.8v-0.1h0.1c0.1,0,0.1,0,0.2,0s0.1,0,0.1-0.1
			c0,0,0.1-0.1,0.1-0.3l0.6-1.7c0.1-0.2,0.1-0.3,0.1-0.4s-0.1-0.1-0.2-0.2h-0.1v-0.1l2,0.8l-0.1,0.8h-0.1c0-0.2,0-0.3,0-0.3
			c0-0.1,0-0.1-0.1-0.2c0,0-0.1-0.1-0.3-0.1L36.1,35.8z"/>
		<path class="st0" d="M39.9,36.8l-0.1,0.6h-0.1c0-0.1,0-0.2,0-0.3s-0.1-0.2-0.1-0.2c-0.1-0.1-0.2-0.1-0.3-0.1l-0.4-0.1l-0.4,2.1
			c0,0.2,0,0.3,0,0.4s0.1,0.1,0.2,0.1h0.1v0.1l-1.2-0.2v-0.1h0.1c0.1,0,0.2,0,0.3-0.1c0,0,0.1-0.1,0.1-0.3l0.4-2.1l-0.4-0.1
			c-0.1,0-0.2,0-0.3,0s-0.2,0.1-0.2,0.1c-0.1,0.1-0.1,0.2-0.2,0.3h-0.1l0.2-0.6L39.9,36.8z"/>
		<path class="st0" d="M44.2,36.7L44.2,36.7c-0.1,0.1-0.2,0.2-0.2,0.2c-0.1,0.1-0.1,0.2-0.2,0.4l-0.7,2.4H43l-1.3-2.3
			c-0.1-0.1-0.1-0.2-0.1-0.2l-0.1-0.1c-0.1,0-0.1,0-0.2,0V37l1.2-0.1V37c-0.1,0-0.2,0.1-0.3,0.1l-0.1,0.1c0,0.1,0.1,0.2,0.1,0.3
			L43,39l0.5-1.6c0.1-0.2,0.1-0.3,0.1-0.4c0,0,0-0.1-0.1-0.1c0,0-0.1-0.1-0.2-0.1l0,0v-0.1L44.2,36.7z"/>
		<path class="st0" d="M45,36.6l0.3,1.1l0.6-0.2c0.2,0,0.3-0.1,0.3-0.2c0.1-0.1,0.1-0.2,0-0.4h0.1l0.3,0.9h-0.1
			c-0.1-0.1-0.1-0.2-0.1-0.3c0,0-0.1-0.1-0.2-0.1s-0.2,0-0.3,0l-0.6,0.3l0.3,0.9c0,0.1,0.1,0.2,0.1,0.2s0,0,0.1,0.1c0,0,0.1,0,0.2,0
			l0.5-0.1c0.2,0,0.3-0.1,0.4-0.1s0.1-0.1,0.2-0.2s0.1-0.3,0.2-0.5h0.1l-0.2,0.6l-2.1,0.5V39h0.1c0.1,0,0.1-0.1,0.2-0.1l0.1-0.1
			c0-0.1,0-0.1-0.1-0.3l-0.5-1.7c-0.1-0.2-0.1-0.3-0.1-0.3c-0.1,0-0.2,0-0.3,0h-0.1v-0.1l2.1-0.5l0.2,0.5h-0.1
			c-0.1-0.1-0.1-0.2-0.2-0.3c-0.1,0-0.1-0.1-0.2-0.1s-0.2,0-0.3,0.1L45,36.6z"/>
		<path class="st0" d="M47.8,36.9L47.8,36.9C47.9,36.9,47.9,36.9,47.8,36.9c0.4-0.2,0.5-0.4,0.5-0.5s0.1-0.4,0-0.5
			c-0.1-0.2-0.2-0.3-0.4-0.3c-0.2-0.1-0.3,0-0.5,0c-0.1,0-0.2,0.1-0.3,0.2L47.8,36.9z M50.2,37.4l-0.6,0.3L48.2,37
			c0,0-0.1,0-0.1,0.1c0,0,0,0-0.1,0c0,0,0,0-0.1,0l0.4,0.7c0.1,0.2,0.2,0.3,0.2,0.3c0.1,0,0.2,0,0.3,0l0.1-0.1v0.1l-1.1,0.5v-0.1
			h0.1c0.1-0.1,0.2-0.1,0.2-0.2s0-0.2-0.1-0.3l-0.7-1.7c-0.1-0.2-0.2-0.3-0.2-0.3c-0.1,0-0.2,0-0.3,0h-0.1v-0.1l0.9-0.5
			c0.3-0.1,0.5-0.2,0.6-0.2s0.3,0,0.5,0.1s0.3,0.2,0.3,0.3c0.1,0.2,0.1,0.3,0,0.5s-0.2,0.3-0.4,0.5l0.9,0.5c0.2,0.1,0.4,0.2,0.5,0.2
			C49.9,37.4,50,37.4,50.2,37.4L50.2,37.4z"/>
		<path class="st0" d="M51.4,36.5L51.4,36.5l-1,0.7v-0.1l0.1-0.1c0.1-0.1,0.2-0.2,0.2-0.2c0-0.1,0-0.2-0.1-0.3l-1-1.5
			c-0.1-0.1-0.1-0.2-0.2-0.2h-0.1c-0.1,0-0.1,0-0.2,0.1L49,35v-0.1l1-0.6v0.1l-0.1,0.1c-0.1,0.1-0.2,0.1-0.2,0.2s0,0.2,0.1,0.3
			l1,1.5c0.1,0.1,0.1,0.2,0.2,0.2h0.1C51.3,36.6,51.3,36.6,51.4,36.5L51.4,36.5z"/>
		<path class="st0" d="M51.9,32.5l0.5,0.5l-0.1,0.1c-0.1-0.1-0.2-0.1-0.2-0.2c-0.1,0-0.2,0-0.3,0S51.6,33,51.5,33l-0.2,0.4l1.4,1.6
			c0.1,0.1,0.2,0.2,0.3,0.2s0.2,0,0.3-0.1l0.1-0.1l0.1,0.1l-0.9,0.7l-0.1-0.1l0.1-0.1c0.1-0.1,0.1-0.2,0.1-0.3s-0.1-0.2-0.2-0.3
			l-1.4-1.6l-0.3,0.2c-0.1,0.1-0.2,0.2-0.2,0.2c0,0.1-0.1,0.2,0,0.3c0,0.1,0.1,0.2,0.1,0.3l-0.1,0.1L50.2,34L51.9,32.5z"/>
		<path class="st0" d="M54.1,32.6l-1.2-0.4l0.5,1.1L54.1,32.6z M54.2,32.6l-0.7,0.8l0.2,0.5c0.1,0.1,0.1,0.2,0.2,0.2H54
			c0.1,0,0.1-0.1,0.2-0.2l0.1,0.1l-0.5,0.6l-0.1-0.1c0.1-0.1,0.1-0.2,0.1-0.2c0-0.1-0.1-0.3-0.2-0.5l-1-2.1l0.1-0.1l2.4,0.7
			c0.2,0.1,0.4,0.1,0.5,0.1s0.2-0.1,0.3-0.2l0.1,0.1l-0.7,0.8L55.2,33c0.1-0.1,0.1-0.2,0.1-0.2c0-0.1,0-0.1-0.1-0.1
			c0,0-0.2-0.1-0.3-0.1L54.2,32.6z"/>
		<path class="st0" d="M54.2,29.3l0.8,0.5v0.1c-0.2-0.1-0.4-0.1-0.5-0.1s-0.3,0-0.4,0.1s-0.2,0.2-0.3,0.3s-0.1,0.3-0.1,0.4
			s0.1,0.2,0.2,0.3c0.1,0,0.2,0.1,0.3,0.1s0.4-0.1,0.6-0.3s0.5-0.3,0.5-0.3s0.3-0.1,0.4-0.1s0.2,0,0.3,0.1c0.2,0.1,0.3,0.3,0.4,0.5
			c0,0.2,0,0.5-0.2,0.6c0,0.1-0.1,0.1-0.2,0.2c0,0-0.1,0.1-0.2,0.2s-0.2,0.2-0.2,0.2v0.1c0,0,0,0.1,0.1,0.1v0.1l-0.8-0.5v-0.1
			c0.2,0.1,0.4,0.1,0.5,0.1s0.3,0,0.4-0.1s0.2-0.2,0.3-0.3c0.1-0.2,0.1-0.3,0.1-0.5c0-0.1-0.1-0.3-0.2-0.3s-0.1-0.1-0.2-0.1
			s-0.2,0-0.3,0s-0.2,0.1-0.5,0.3c-0.3,0.1-0.5,0.2-0.5,0.3c-0.1,0-0.3,0.1-0.4,0.1s-0.2,0-0.3-0.1c-0.2-0.1-0.3-0.3-0.3-0.5
			s0-0.5,0.1-0.6s0.2-0.3,0.4-0.4c0.1-0.1,0.1-0.1,0.1-0.1v-0.1C54.3,29.4,54.2,29.4,54.2,29.3L54.2,29.3z"/>
		<path class="st0" d="M24.4,19.1l1.4,0.1v0.1c-0.3,0-0.5,0.1-0.7,0.2s-0.4,0.2-0.5,0.4s-0.2,0.4-0.2,0.5c0,0.2,0,0.4,0.2,0.5
			c0.1,0.2,0.3,0.3,0.5,0.3c0.1,0,0.3,0,0.4-0.1c0.2-0.1,0.5-0.5,0.7-0.9c0.3-0.4,0.5-0.6,0.5-0.8s0.3-0.3,0.5-0.3
			c0.2-0.1,0.4-0.1,0.5-0.1c0.4,0,0.6,0.2,0.8,0.5s0.3,0.6,0.3,1c0,0.1,0,0.3-0.1,0.4c0,0.1-0.1,0.2-0.2,0.4s-0.1,0.4-0.1,0.4
			c0,0.1,0,0.1,0,0.1s0.1,0.1,0.2,0.1V22l-1.4-0.1v-0.3c0.3,0,0.5-0.1,0.7-0.2s0.3-0.2,0.5-0.4c0.1-0.2,0.2-0.4,0.2-0.6
			c0-0.3,0-0.5-0.2-0.6c-0.1-0.2-0.3-0.3-0.5-0.3c-0.1,0-0.2,0-0.4,0.1c-0.1,0.1-0.2,0.1-0.4,0.3c-0.1,0.1-0.2,0.3-0.5,0.6
			c-0.3,0.4-0.5,0.6-0.5,0.7c-0.2,0.2-0.3,0.3-0.5,0.3c-0.2,0.1-0.4,0.1-0.5,0.1c-0.3,0-0.5-0.2-0.7-0.5s-0.3-0.5-0.3-0.9
			c0-0.3,0.1-0.5,0.3-0.7c0.1-0.1,0.1-0.2,0.1-0.3s0-0.1,0-0.2C24.5,19.1,24.5,19,24.4,19.1L24.4,19.1z"/>
		<path class="st0" d="M28.2,15.7h-1.9l1.4,1.4L28.2,15.7z M28.4,15.7l-0.6,1.5l0.5,0.5c0.1,0.1,0.3,0.2,0.3,0.3c0.1,0,0.1,0,0.2,0
			s0.2-0.2,0.3-0.4h0.1l-0.5,1.3h-0.1c0-0.2,0-0.3,0-0.4c-0.1-0.2-0.2-0.4-0.5-0.5l-2.7-2.7v-0.1l3.9-0.1c0.3,0,0.5,0,0.6-0.1
			s0.2-0.2,0.3-0.4h0.1l-0.6,1.5h-0.1c0.1-0.2,0.1-0.3,0.1-0.4s-0.1-0.1-0.1-0.2c-0.1,0-0.3-0.1-0.5-0.1L28.4,15.7z"/>
		<path class="st0" d="M27,12l0.8-0.9l4.2,0.2l-1.8-1.6c-0.2-0.2-0.4-0.3-0.5-0.3s-0.3,0.1-0.4,0.2l-0.1,0.1l-0.1-0.1l1-1.1l0.1,0.1
			l-0.1,0.1C30,8.9,29.9,9,29.9,9.2c0,0.1,0.1,0.2,0.3,0.4l2.7,2.4l-0.1,0.1l-4.4-0.2l2,1.8c0.2,0.2,0.4,0.3,0.5,0.3
			s0.3-0.1,0.4-0.2l0.1-0.1l0.1,0.1l-1,1.1l-0.1-0.1l0.1-0.1c0.1-0.2,0.2-0.3,0.2-0.4s-0.1-0.2-0.3-0.4l-2.3-2c-0.2,0-0.4,0-0.4,0
			c-0.1,0-0.2,0.1-0.3,0.1C27.3,11.9,27.2,12,27,12L27,12z"/>
		<path class="st0" d="M34.2,5.9l0.5,0.8l-0.1,0.1c-0.1-0.2-0.2-0.3-0.3-0.3c-0.1-0.1-0.3-0.1-0.4-0.1s-0.3,0.1-0.5,0.2l-0.5,0.3
			l1.7,2.8c0.2,0.3,0.3,0.4,0.4,0.4s0.3,0,0.4-0.1l0.1-0.1l0.1,0.1l-1.5,0.9L34,10.8l0.1-0.1c0.2-0.1,0.3-0.2,0.3-0.4
			c0-0.1-0.1-0.3-0.2-0.5l-1.6-2.7l-0.5,0.3c-0.2,0.1-0.3,0.2-0.4,0.3c0,0.1-0.1,0.2-0.1,0.4s0,0.3,0.1,0.5l-0.1,0.1l-0.5-0.9
			L34.2,5.9z"/>
		<path class="st0" d="M37.6,4.9C37.2,5,37,5.2,36.8,5.5c-0.2,0.5-0.2,1,0,1.6c0.2,0.7,0.5,1.2,0.8,1.4c0.3,0.2,0.6,0.3,1,0.2
			s0.6-0.4,0.8-0.7s0.2-0.9,0-1.5c-0.2-0.7-0.5-1.2-0.8-1.5C38.4,4.9,38,4.8,37.6,4.9 M37.6,4.6c0.5-0.1,1.1-0.1,1.5,0.3
			c0.5,0.3,0.8,0.8,1,1.4s0.1,1.2-0.2,1.7c-0.3,0.5-0.7,0.8-1.3,1S37.5,9.1,37,8.7c-0.5-0.3-0.8-0.8-1-1.4S35.9,6,36.3,5.5
			C36.6,5.1,37.1,4.8,37.6,4.6"/>
		<path class="st0" d="M46.2,4.8l-0.1,1H46c0-0.2,0-0.3,0-0.4s-0.1-0.3-0.2-0.3C45.7,5,45.5,5,45.3,4.9l-0.6-0.1L44.2,8
			c0,0.3,0,0.5,0,0.5c0.1,0.1,0.2,0.2,0.4,0.2h0.2v0.1L43,8.5V8.4h0.2c0.2,0,0.3,0,0.5-0.1c0.1-0.1,0.1-0.2,0.2-0.5l0.5-3.2
			l-0.5-0.1c-0.2,0-0.4,0-0.5,0s-0.2,0.1-0.3,0.2S42.9,5,42.9,5.2h-0.1l0.2-1L46.2,4.8z"/>
		<path class="st0" d="M49.6,6.3c-0.4-0.2-0.7-0.2-1-0.1c-0.5,0.2-0.8,0.5-1.1,1.2C47.1,8,47,8.6,47,9.1c0.1,0.4,0.3,0.6,0.6,0.8
			s0.7,0.2,1.1,0.1c0.4-0.2,0.7-0.5,1.1-1.2s0.5-1.2,0.4-1.6S50,6.5,49.6,6.3 M49.8,6.2c0.5,0.3,0.8,0.6,1,1.3
			C51,8,50.9,8.6,50.6,9.2c-0.3,0.5-0.7,1-1.3,1.2c-0.5,0.2-1.1,0.2-1.6-0.1s-0.9-0.7-1-1.3c-0.2-0.5-0.1-1.2,0.3-1.7
			c0.4-0.6,0.8-1,1.4-1.2C48.7,5.9,49.3,5.9,49.8,6.2"/>
		<path class="st0" d="M51.5,13l1.7-3.6L51,11.2c-0.3,0.2-0.4,0.4-0.4,0.5s0,0.3,0.2,0.4l0.1,0.1l-0.1,0.1l-1-1.2l0.1-0.1l0.1,0.1
			c0.1,0.2,0.3,0.2,0.4,0.2s0.2-0.1,0.4-0.3L53,9.2c0.2-0.1,0.3-0.3,0.3-0.3c0-0.1,0-0.2,0-0.2c0-0.1-0.1-0.2-0.2-0.4l0.1-0.1
			L54,9.1l-1.6,3.4l3.5-1l0.8,0.9l-0.1,0.1l-0.1-0.1c-0.1-0.2-0.3-0.2-0.4-0.2s-0.2,0.1-0.4,0.3l-2.2,1.8c-0.2,0.2-0.3,0.3-0.4,0.4
			c0,0.1,0,0.3,0.1,0.4l0.1,0.1v0.1l-1.2-1.4l0.1-0.1l0.1,0.1c0.1,0.2,0.3,0.2,0.4,0.2s0.2-0.1,0.4-0.3l2.2-1.8L51.5,13L51.5,13z"/>
		<path class="st0" d="M59.7,17.3l-1.4-0.5v-0.2h1.2L59.7,17.3z M55.9,17.5l1.4-1.3l-1.9-0.1L55.9,17.5z M55.7,17.7l-0.5-1.5
			l-0.7-0.1c-0.2,0-0.3,0-0.4,0s-0.1,0.1-0.2,0.2c0,0.1,0,0.2,0,0.5h-0.1l-0.4-1.4h0.1c0.1,0.2,0.2,0.3,0.3,0.3
			c0.1,0.1,0.4,0.1,0.7,0.2l3.8,0.4v0.1l-3,2.5c-0.3,0.2-0.4,0.4-0.5,0.5s-0.1,0.3,0,0.5h-0.1l-0.5-1.5h0.1c0.1,0.2,0.1,0.3,0.2,0.3
			s0.1,0.1,0.2,0c0.1,0,0.2-0.1,0.4-0.3L55.7,17.7z"/>
		<path class="st0" d="M59.2,22.5h-1.4v-0.1c0.3,0,0.5-0.1,0.7-0.2s0.3-0.3,0.4-0.5s0.2-0.4,0.2-0.5s-0.1-0.4-0.2-0.5
			c-0.1-0.2-0.3-0.2-0.5-0.2c-0.1,0-0.3,0.1-0.4,0.2c-0.2,0.1-0.4,0.5-0.6,0.9s-0.4,0.7-0.5,0.8c-0.1,0.2-0.3,0.3-0.4,0.4
			c-0.2,0.1-0.4,0.1-0.5,0.1c-0.4,0-0.6-0.1-0.8-0.4c-0.3-0.3-0.4-0.5-0.4-1c0-0.1,0-0.3,0-0.4s0.1-0.2,0.1-0.5
			c0.1-0.2,0.1-0.4,0.1-0.4c0-0.1,0-0.1-0.1-0.1c0,0-0.1-0.1-0.2-0.1v-0.1h1.4V20c-0.3,0.1-0.5,0.2-0.7,0.3s-0.3,0.3-0.4,0.5
			s-0.2,0.4-0.2,0.6s0.1,0.5,0.2,0.6c0.2,0.2,0.3,0.3,0.5,0.2c0.1,0,0.2,0,0.4-0.1c0.1-0.1,0.2-0.2,0.3-0.3s0.2-0.3,0.4-0.7
			c0.2-0.4,0.4-0.6,0.5-0.8c0.1-0.2,0.3-0.3,0.4-0.4c0.2-0.1,0.3-0.1,0.5-0.1c0.3,0,0.5,0.1,0.8,0.4s0.4,0.5,0.4,0.9
			c0,0.3-0.1,0.5-0.2,0.7c-0.1,0.1-0.1,0.2-0.1,0.3s0,0.1,0.1,0.1C59,22.3,59.1,22.4,59.2,22.5L59.2,22.5z"/>
	</g>
	<g>
		<defs>
			<rect id="SVGID_1_" x="102.4" y="64" width="120.7" height="36"/>
		</defs>
		<clipPath id="SVGID_2_">
			<use xlink:href="#SVGID_1_"  style="overflow:visible;"/>
		</clipPath>
		<path class="st1" d="M147,81.8l-2.3,7.7h-0.2l-5-16.7c-0.1-0.3-0.2-0.4-0.6-0.4h-2.5c-0.2,0-0.4,0.2-0.4,0.4v26.5
			c0,0.2,0.2,0.4,0.4,0.4h2.2c0.2,0,0.4-0.2,0.4-0.4V80.4h0.2l4.1,14.1c0.1,0.2,0.2,0.4,0.5,0.4h1.3c0.2,0,0.4-0.2,0.5-0.4l3.8-12.7
			 M122.8,96.4V75.6c0-0.2,0.1-0.2,0.2-0.2h2.2c1.8,0,2.9,0.7,3.5,2.3c0.4,1.1,0.5,2.6,0.5,8.3c0,5.7-0.2,7.2-0.5,8.3
			c-0.6,1.6-1.6,2.3-3.5,2.3h-2.2C122.9,96.7,122.8,96.6,122.8,96.4 M119.6,99.3c0,0.2,0.2,0.4,0.4,0.4h5.7c3.5,0,5.4-1.4,6.3-4.3
			c0.5-1.5,0.6-3.3,0.6-9.4c0-6.1-0.2-7.9-0.6-9.4c-0.9-2.8-2.9-4.3-6.3-4.3H120c-0.2,0-0.4,0.2-0.4,0.4V99.3z M107.3,90.5l2.5-11.9
			h0.1l2.3,11.9H107.3z M102.4,99.3c0,0.2,0.1,0.4,0.4,0.4h2.4c0.2,0,0.4-0.2,0.4-0.4l1.2-6h6.1l1.2,6c0,0.2,0.2,0.4,0.4,0.4h2.4
			c0.2,0,0.4-0.2,0.4-0.4l-5.7-26.5c0-0.2-0.2-0.4-0.4-0.4h-2.4c-0.2,0-0.4,0.2-0.4,0.4L102.4,99.3z"/>
		<path class="st2" d="M151.5,99.3c0,0.2,0.2,0.4,0.4,0.4h2.3c0.2,0,0.4-0.2,0.4-0.4V72.8c0-0.2-0.2-0.4-0.4-0.4h-3.9
			c-0.3,0-0.4,0.1-0.7,0.2l-2.2,6.7c-0.1,0.2,0.1,0.4,0.3,0.4h1.8c0.2,0,0.2,0.1,0.4-0.1l1.5-4.2l0,0.6V99.3"/>
		<path class="st2" d="M160.2,75.3h5.4v0.1l-7.1,23.9c-0.1,0.3,0,0.5,0.2,0.5h2.4c0.3,0,0.4-0.1,0.5-0.4l7-23.9
			c0-0.2,0.1-0.3,0.1-0.5v-2.1c0-0.2-0.2-0.4-0.4-0.4h-10.8c-0.2,0-0.4,0.2-0.4,0.4v2.1c0,0.2,0.2,0.4,0.4,0.4h2.1"/>
		<path class="st1" d="M209.9,99.3c0,0.2,0.2,0.4,0.4,0.4h2.1c0.2,0,0.4-0.2,0.4-0.4V78.8h0.2l6.2,20.5c0.1,0.3,0.3,0.4,0.6,0.4h2.9
			c0.2,0,0.4-0.2,0.4-0.4V72.8c0-0.2-0.2-0.4-0.4-0.4h-2.1c-0.2,0-0.4,0.2-0.4,0.4v20.5H220l-6.1-20.5c-0.1-0.3-0.3-0.4-0.6-0.4h-3
			c-0.2,0-0.4,0.2-0.4,0.4V99.3z M199.6,97c-1.4,0-2.4-0.7-2.9-1.9c-0.3-0.8-0.4-1.4-0.4-9s0.1-8.2,0.4-9c0.4-1.2,1.4-1.9,2.9-1.9
			c1.4,0,2.5,0.7,2.9,1.9c0.2,0.8,0.3,1.4,0.3,9s-0.1,8.2-0.3,9C202.1,96.3,201,97,199.6,97 M199.6,100.1c3.1,0,5.2-1.4,6-4.1
			c0.4-1.2,0.5-2.2,0.5-10s-0.1-8.8-0.5-10c-0.8-2.6-2.9-4.1-6-4.1c-3.1,0-5.1,1.4-6,4.1c-0.4,1.2-0.5,2.2-0.5,10s0.1,8.8,0.5,10
			C194.4,98.6,196.5,100.1,199.6,100.1 M200.1,69.1c0.3,0,0.5-0.1,0.8-0.4l3.7-4.2c0.2-0.2,0-0.4-0.2-0.4h-2.3
			c-0.3,0-0.4,0.1-0.6,0.4l-3.1,4.2c-0.2,0.2,0,0.4,0.2,0.4H200.1z M186.2,99.3c0,0.2,0.2,0.4,0.4,0.4h2.4c0.2,0,0.4-0.2,0.4-0.4
			V72.8c0-0.2-0.2-0.4-0.4-0.4h-2.4c-0.2,0-0.4,0.2-0.4,0.4V99.3z M183.1,92c0-4.5-1.2-6.3-4.7-7.8l-1.6-0.6
			c-2.2-0.8-2.9-1.8-2.9-4.6c0-2.8,1-4,3-4c2.1,0,3,1.3,3.1,4c0,0.2,0.2,0.4,0.4,0.3l2.2-0.4c0.2,0,0.4-0.2,0.4-0.4
			c-0.2-4.3-2.1-6.5-6.2-6.5c-4.1,0-6.1,2.4-6.1,7.1c0,4.2,1,6.1,4.8,7.5l1.6,0.6c2.2,0.8,2.8,2,2.8,5.1c0,3.7-1,4.7-3.1,4.7
			c-2.1,0-3.2-1.2-3.3-4.6c0-0.2-0.2-0.4-0.4-0.4l-2.4,0.4c-0.2,0-0.3,0.2-0.3,0.4c0.2,4.7,2.3,7,6.4,7
			C181.4,100.1,183.1,97.5,183.1,92"/>
	</g>
</g>
</svg>
