<?xml version="1.0" encoding="utf-8"?>
<!-- Generator: Adobe Illustrator 18.1.1, SVG Export Plug-In . SVG Version: 6.00 Build 0)  -->
<!DOCTYPE svg PUBLIC "-//W3C//DTD SVG 1.1//EN" "http://www.w3.org/Graphics/SVG/1.1/DTD/svg11.dtd">
<svg version="1.1" id="Capa_1" xmlns="http://www.w3.org/2000/svg" xmlns:xlink="http://www.w3.org/1999/xlink" x="0px" y="0px"
	 width="86px" height="100px" viewBox="0 0 86 100" enable-background="new 0 0 86 100" xml:space="preserve">
<g>
	<path fill="#004136" d="M2.5,76.2c-0.3-0.2-0.3-0.2-0.3-0.8c0-1.1,0.1-1.9,0.1-2.3c0-0.2,0.1-0.4,0.2-0.4c0.1,0,0.2,0.1,0.2,0.3
		c0,0.2,0,0.5,0.1,0.8c0.4,1.6,2,2.1,3.5,2.1c2.2,0,3.3-1.2,3.3-2.9c0-1.5-0.8-2.3-2.8-3.8l-1-0.8c-2.4-1.8-3.2-3.1-3.2-4.6
		c0-2.5,2-4.1,4.9-4.1c0.9,0,1.8,0.1,2.3,0.3c0.4,0.1,0.6,0.1,0.8,0.1c0.2,0,0.2,0,0.2,0.2c0,0.1-0.1,0.8-0.1,2.3
		c0,0.3,0,0.5-0.2,0.5c-0.2,0-0.2-0.1-0.2-0.3c0-0.3-0.2-0.8-0.3-1.1c-0.2-0.3-0.9-1.1-2.9-1.1c-1.6,0-3,0.8-3,2.3
		c0,1.4,0.7,2.2,2.9,3.7l0.6,0.4c2.7,1.9,3.7,3.3,3.7,5.2c0,1.3-0.5,2.6-2.1,3.7c-0.9,0.6-2.3,0.8-3.6,0.8
		C4.7,76.8,3.4,76.6,2.5,76.2"/>
	<path fill="#004136" d="M20.3,60.6c0.3-0.7,0.4-0.8,0.5-0.8c0.2,0,0.3,0.3,0.5,0.8c0.4,0.9,4,9.8,5.4,13.1c0.8,1.9,1.4,2.2,1.9,2.4
		c0.3,0.1,0.7,0.1,0.9,0.1c0.1,0,0.3,0.1,0.3,0.2s-0.3,0.2-0.5,0.2c-0.3,0-2,0-3.5-0.1c-0.4,0-0.8,0-0.8-0.2c0-0.1,0.1-0.1,0.2-0.2
		c0.1-0.1,0.4-0.2,0.2-0.6l-2-4.9c-0.1-0.1-0.1-0.1-0.2-0.1H18c-0.1,0-0.2,0.1-0.2,0.2l-1.3,3.5c-0.2,0.5-0.3,1.1-0.3,1.4
		c0,0.4,0.4,0.6,0.8,0.6h0.2c0.2,0,0.2,0.1,0.2,0.2c0,0.1-0.1,0.2-0.3,0.2c-0.5,0-1.7-0.1-2-0.1c-0.2,0-1.3,0.1-2.3,0.1
		c-0.3,0-0.4-0.1-0.4-0.2c0-0.1,0.1-0.2,0.2-0.2c0.2,0,0.5,0,0.7-0.1c1-0.1,1.4-0.9,1.9-2L20.3,60.6z M22.8,69.6
		c0.1,0,0.1-0.1,0.1-0.2l-2.2-5.9c-0.1-0.3-0.3-0.3-0.4,0l-2.1,5.9c0,0.1,0,0.2,0.1,0.2H22.8z"/>
	<path fill="#004136" d="M32.9,73.6c0.1,1.8,0.3,2.3,0.9,2.5c0.4,0.1,0.9,0.1,1.1,0.1c0.1,0,0.2,0.1,0.2,0.2c0,0.1-0.2,0.2-0.4,0.2
		c-1.3,0-2.2-0.1-2.4-0.1c-0.2,0-1.1,0.1-2.2,0.1c-0.2,0-0.4,0-0.4-0.2c0-0.1,0.1-0.2,0.2-0.2c0.2,0,0.6,0,0.9-0.1
		c0.6-0.2,0.6-0.7,0.6-2.7V61c0-0.9,0.1-1.1,0.3-1.1c0.3,0,0.6,0.4,0.9,0.7c0.4,0.4,3.6,3.8,7.1,7.4c2.2,2.3,4.6,4.8,5.3,5.6
		l-0.2-10.8c0-1.4-0.2-1.9-0.8-2c-0.4-0.1-0.9-0.1-1.1-0.1c-0.2,0-0.2-0.1-0.2-0.2c0-0.1,0.2-0.2,0.4-0.2c1,0,2.1,0.1,2.3,0.1
		c0.3,0,1-0.1,1.9-0.1c0.2,0,0.4,0,0.4,0.2c0,0.1-0.1,0.2-0.3,0.2c-0.1,0-0.3,0-0.5,0.1c-0.7,0.2-0.8,0.6-0.8,1.9l-0.1,12.6
		c0,1.4,0,1.5-0.2,1.5c-0.2,0-0.5-0.2-1.7-1.3c-0.2-0.2-3.4-3.4-5.8-5.8c-2.6-2.7-5.1-5.4-5.8-6.1L32.9,73.6z"/>
	<path fill="#004136" d="M57.2,70.2c0,2.1,0,3.8,0.1,4.7c0.1,0.6,0.2,1,0.9,1.1c0.3,0.1,0.8,0.1,1,0.1c0.2,0,0.2,0.1,0.2,0.2
		c0,0.1-0.1,0.2-0.4,0.2c-1.2,0-2.6-0.1-2.8-0.1c-0.1,0-1.6,0.1-2.3,0.1c-0.3,0-0.4,0-0.4-0.2c0-0.1,0.1-0.2,0.2-0.2
		c0.2,0,0.5-0.1,0.7-0.1c0.5-0.1,0.6-0.5,0.7-1.2c0.1-0.9,0.1-2.6,0.1-4.7v-9.1l-3.2,0.1c-1.4,0-1.9,0.2-2.3,0.7
		c-0.3,0.4-0.3,0.5-0.4,0.7c0,0.2-0.1,0.2-0.2,0.2c-0.1,0-0.2-0.1-0.2-0.2c0-0.2,0.5-2.2,0.5-2.3c0.1-0.1,0.2-0.4,0.2-0.4
		c0.2,0,0.4,0.2,1,0.3c0.6,0.1,1.5,0.1,1.7,0.1h8.4c0.7,0,1.2-0.1,1.6-0.1c0.3,0,0.5-0.1,0.6-0.1c0.1,0,0.1,0.1,0.1,0.3
		c0,0.7-0.1,2.2-0.1,2.5c0,0.2-0.1,0.3-0.2,0.3c-0.1,0-0.2-0.1-0.2-0.4l0-0.2c-0.1-0.7-0.6-1.1-2.7-1.2l-2.8-0.1V70.2z"/>
	<path fill="#004136" d="M72.7,59.9c5,0,8.8,3.1,8.8,8.1c0,4.8-3.6,8.8-9,8.8c-6.1,0-8.7-4.6-8.7-8.5C63.8,64.8,66.5,59.9,72.7,59.9
		 M73.2,75.9c2,0,6-1.1,6-7.3c0-5.2-3.1-7.9-6.7-7.9c-3.7,0-6.4,2.3-6.4,7C66.2,72.8,69.2,75.9,73.2,75.9"/>
	<path fill="#004136" d="M9.1,92.1c0,2.1,0,3.7,0.1,4.6c0.1,0.6,0.2,1,0.9,1.1c0.3,0.1,0.8,0.1,1,0.1c0.1,0,0.2,0.1,0.2,0.2
		c0,0.1-0.1,0.2-0.4,0.2c-1.2,0-2.6-0.1-2.7-0.1c-0.1,0-1.6,0.1-2.3,0.1c-0.3,0-0.4,0-0.4-0.2c0-0.1,0.1-0.2,0.2-0.2
		c0.2,0,0.5,0,0.7-0.1c0.5-0.1,0.6-0.5,0.7-1.2c0.1-0.9,0.1-2.6,0.1-4.6v-9l-3.2,0.1c-1.4,0-1.9,0.2-2.2,0.7
		c-0.2,0.4-0.3,0.5-0.4,0.7c-0.1,0.2-0.1,0.2-0.2,0.2c0,0-0.1,0-0.1-0.2c0-0.2,0.5-2.1,0.5-2.3c0-0.1,0.1-0.4,0.2-0.4
		c0.2,0,0.4,0.2,1,0.3c0.6,0.1,1.5,0.1,1.7,0.1h8.3c0.7,0,1.2-0.1,1.6-0.1c0.3,0,0.5-0.1,0.6-0.1c0.1,0,0.1,0.1,0.1,0.3
		c0,0.7-0.1,2.2-0.1,2.4c0,0.2-0.1,0.3-0.2,0.3c-0.1,0-0.2-0.1-0.2-0.4l0-0.2c-0.1-0.7-0.6-1.1-2.7-1.2l-2.8-0.1V92.1z"/>
	<path fill="#004136" d="M24.5,81.8c5,0,8.7,3,8.7,8c0,4.8-3.5,8.7-8.9,8.7c-6,0-8.6-4.5-8.6-8.4C15.7,86.7,18.4,81.8,24.5,81.8
		 M25,97.7c2,0,6-1.1,6-7.2c0-5.1-3.1-7.8-6.6-7.8c-3.7,0-6.3,2.3-6.3,6.9C18,94.6,21,97.7,25,97.7"/>
	<path fill="#004136" d="M52.2,95.5c0.1,0.8,0.2,1.9,1.1,2.2c0.6,0.2,1.2,0.2,1.4,0.2c0.1,0,0.2,0.1,0.2,0.2c0,0.1-0.2,0.2-0.5,0.2
		c-0.5,0-3,0-3.8-0.1c-0.5-0.1-0.6-0.1-0.6-0.2c0-0.1,0.1-0.1,0.2-0.2c0.1,0,0.2-0.4,0.1-0.8l-1.1-10.8h-0.1L44,97.1
		c-0.5,0.9-0.6,1.1-0.8,1.1c-0.2,0-0.3-0.2-0.8-1c-0.6-1.1-2-3.8-2.6-4.9c-0.7-1.4-2.4-4.9-2.8-5.8h-0.1l-0.9,9.6c0,0.3,0,0.7,0,1.1
		c0,0.3,0.2,0.5,0.5,0.6c0.4,0.1,0.7,0.1,0.9,0.1c0.1,0,0.2,0.1,0.2,0.2c0,0.2-0.2,0.2-0.4,0.2c-0.8,0-1.9-0.1-2.1-0.1
		c-0.2,0-1.3,0.1-1.9,0.1c-0.2,0-0.4,0-0.4-0.2c0-0.1,0.1-0.2,0.2-0.2c0.2,0,0.3,0,0.7-0.1c0.7-0.1,0.8-0.9,0.9-1.7l1.6-13.9
		c0-0.2,0.1-0.4,0.3-0.4c0.2,0,0.3,0.1,0.5,0.3l6.7,13.2L50,82.2c0.1-0.2,0.2-0.4,0.4-0.4c0.1,0,0.3,0.2,0.3,0.6L52.2,95.5z"/>
	<path fill="#004136" d="M62.5,82.6c0.3-0.7,0.4-0.8,0.5-0.8c0.2,0,0.3,0.3,0.5,0.8c0.4,0.9,3.9,9.7,5.3,12.9
		c0.8,1.9,1.4,2.2,1.9,2.3c0.3,0.1,0.7,0.1,0.9,0.1c0.1,0,0.3,0.1,0.3,0.2c0,0.1-0.3,0.2-0.5,0.2c-0.3,0-2,0-3.5,0
		c-0.4,0-0.8,0-0.8-0.2c0-0.1,0-0.1,0.1-0.2c0.1,0,0.4-0.2,0.2-0.6l-2-4.9c0-0.1-0.1-0.1-0.2-0.1h-5.1c-0.1,0-0.2,0-0.2,0.2
		l-1.3,3.4c-0.2,0.5-0.3,1.1-0.3,1.4c0,0.4,0.4,0.6,0.8,0.6h0.2c0.2,0,0.2,0.1,0.2,0.2c0,0.1-0.1,0.2-0.3,0.2c-0.5,0-1.7-0.1-2-0.1
		c-0.2,0-1.3,0.1-2.2,0.1c-0.3,0-0.4,0-0.4-0.2c0-0.1,0.1-0.2,0.2-0.2c0.2,0,0.5,0,0.7,0c1-0.1,1.4-0.9,1.9-2L62.5,82.6z M65,91.4
		c0.1,0,0.1-0.1,0.1-0.2l-2.2-5.8c-0.1-0.3-0.3-0.3-0.4,0l-2.1,5.8c0,0.1,0,0.2,0.1,0.2H65z M66.9,78.8c0.1,0.2,0,0.3-0.1,0.3
		c-0.1,0-0.3-0.1-0.8,0c-1.2,0.1-3,0.7-3.8,1.1c-0.2,0.1-0.3,0.1-0.4,0.1c0,0-0.1,0-0.1-0.1c0-0.1,0.1-0.1,0.2-0.2
		c0.9-0.6,3.2-2,3.4-2.1c0.4-0.3,0.6-0.3,0.7-0.3c0.1,0,0.1,0,0.3,0.2C66.5,77.9,66.6,78.3,66.9,78.8"/>
	<path fill="#004136" d="M72.4,98c-0.3-0.2-0.3-0.2-0.3-0.8c0-1.1,0.1-1.9,0.1-2.3c0-0.2,0.1-0.4,0.2-0.4c0.1,0,0.2,0.1,0.2,0.3
		c0,0.2,0,0.5,0.1,0.8c0.4,1.6,2,2.1,3.5,2.1c2.2,0,3.3-1.2,3.3-2.8c0-1.5-0.8-2.3-2.8-3.7l-1-0.8c-2.4-1.8-3.2-3.1-3.2-4.6
		c0-2.5,2-4,4.9-4c0.9,0,1.8,0.1,2.3,0.3c0.4,0.1,0.6,0.1,0.8,0.1c0.2,0,0.2,0,0.2,0.1c0,0.1-0.1,0.8-0.1,2.3c0,0.3,0,0.5-0.2,0.5
		c-0.2,0-0.2-0.1-0.2-0.3c0-0.3-0.2-0.8-0.3-1.1c-0.1-0.3-0.9-1.1-2.9-1.1c-1.6,0-2.9,0.8-2.9,2.3c0,1.4,0.7,2.1,2.9,3.6l0.6,0.4
		c2.7,1.8,3.6,3.3,3.6,5.1c0,1.3-0.5,2.6-2.1,3.6c-0.9,0.6-2.3,0.8-3.5,0.8C74.6,98.5,73.3,98.4,72.4,98"/>
	<path fill="#004136" d="M82.4,60.1c-0.3,0.2-0.5,0.4-0.7,0.6c-0.2,0.3-0.2,0.6-0.2,0.9c0,0.3,0.1,0.6,0.2,0.9
		c0.2,0.3,0.4,0.5,0.6,0.6c0.3,0.2,0.6,0.2,0.9,0.2c0.3,0,0.6-0.1,0.9-0.2c0.3-0.2,0.5-0.4,0.6-0.6c0.2-0.3,0.2-0.6,0.2-0.9
		c0-0.3-0.1-0.6-0.2-0.9c-0.2-0.3-0.4-0.5-0.7-0.6c-0.3-0.1-0.6-0.2-0.9-0.2C83,59.9,82.7,59.9,82.4,60.1 M84,60.3
		c0.2,0.1,0.4,0.3,0.5,0.5c0.1,0.2,0.2,0.5,0.2,0.7c0,0.3-0.1,0.5-0.2,0.7c-0.1,0.2-0.3,0.4-0.5,0.5c-0.2,0.1-0.9,0.2-0.7,0.2
		c0.2,0-0.5-0.1-0.7-0.2c-0.2-0.1-0.4-0.3-0.5-0.5c-0.1-0.2-0.2-0.5-0.2-0.7c0-0.3,0.1-0.5,0.2-0.7c0.1-0.2,0.3-0.4,0.5-0.5
		c0.2-0.1,0.5-0.2,0.7-0.2C83.6,60.1,83.8,60.2,84,60.3 M82.8,62.6v-0.8H83c0.1,0,0.2,0,0.2,0.1c0.1,0.1,0.2,0.2,0.3,0.4l0.2,0.3
		h0.4l-0.2-0.4c-0.1-0.2-0.2-0.3-0.3-0.4c0,0-0.1-0.1-0.2-0.1c0.2,0,0.3-0.1,0.4-0.2c0.1-0.1,0.1-0.2,0.1-0.4c0-0.1,0-0.2-0.1-0.3
		c-0.1-0.1-0.1-0.1-0.2-0.2c-0.1,0-0.3-0.1-0.5-0.1h-0.6v1.9H82.8z M82.8,60.9h0.3c0.1,0,0.3,0,0.3,0c0.1,0,0.1,0.1,0.1,0.1
		c0,0,0,0.1,0,0.1c0,0.1,0,0.2-0.1,0.2c-0.1,0.1-0.2,0.1-0.4,0.1h-0.4V60.9z"/>
	<path fill="#004136" d="M37.5,32.5l-0.1,0.1c0,0,0.1,0.1,0.1,0.2c0,0,0.9,0.6,0.9,0.6l0-0.1l0.1,0.1c0,0,0-0.2,0-0.2
		c0,0-0.3-0.3-0.3-0.3C38.2,32.6,37.5,32.5,37.5,32.5"/>
	<path fill="#004136" d="M20.5,21.6C20.5,9.9,30,0.4,41.8,0.4S63,9.9,63,21.6c0,11.7-9.5,21.2-21.2,21.2S20.5,33.3,20.5,21.6
		 M21.8,21.6c0,11,8.9,20,20,20c11,0,20-8.9,20-20c0-11-8.9-20-20-20C30.7,1.6,21.8,10.6,21.8,21.6"/>
	<path fill="#004136" d="M22.6,21.6c0-10.6,8.6-19.2,19.2-19.2c10.6,0,19.2,8.6,19.2,19.2c0,10.6-8.6,19.2-19.2,19.2
		C31.2,40.7,22.6,32.2,22.6,21.6 M23.2,21.6c0,10.3,8.3,18.6,18.6,18.6c10.3,0,18.6-8.3,18.6-18.6C60.3,11.3,52,3,41.8,3
		C31.5,3,23.2,11.3,23.2,21.6"/>
	<path fill="#004136" d="M42.6,19c0.2-0.2,0.4-0.3,0.5-0.5c0.1-0.1,0.2-0.3,0.3-0.4c0-0.1,0.1-0.1,0.2-0.2c0,0.2-0.2,0.6-0.3,0.7
		C43.2,18.7,42.8,19,42.6,19 M47.3,21.7c0-0.1,0.1-0.2,0.1-0.3c0-0.2-0.3,0-0.3-0.3c0.1,0,0.1,0,0.3,0c0.1,0,0.2,0,0.2,0.1l0,0.2
		c0,0.1,0.3,0,0.3,0.2c-0.1,0.2-0.3,0.2-0.5,0.2C47.4,21.7,47.4,21.7,47.3,21.7 M45.4,23.5v-0.2c-0.1-0.1-0.2-0.1-0.3-0.1
		c-0.2,0-0.4,0.1-0.6,0.1c0.4-0.5,1-0.4,1.4-0.6c0-0.1,0-0.2,0.1-0.3l1.9-0.4c-0.1,0.2-0.2,0.3-0.4,0.4c-0.1,0-0.2-0.1-0.3-0.1
		L45.4,23.5z M43.2,21.8c-0.1,0-0.2,0-0.3,0c-0.1,0-0.1,0-0.1-0.1l3.1-1.3c0-0.1-0.1-0.1-0.1-0.2l0.2-0.1c0.3,0,0.6,0.2,0.9,0.2
		l0.1,0.2l-1.7,0.5C44.5,21.3,44.1,21.6,43.2,21.8 M45.1,22.3v-0.1c0.4-0.3,0.9-0.5,1.4-0.4l0.1-0.2c0.1,0,0.2,0,0.3,0
		c0.1,0,0.3,0,0.3,0.2c0,0.1-0.1,0.1-0.3,0.1c-0.3,0.5-0.9,0.4-1.4,0.4C45.4,22.2,45.2,22.3,45.1,22.3 M43,14.8
		c-0.2-0.1-0.3,0-0.5-0.1c0,0,0-0.1,0-0.2c0-0.1,0.1-0.2,0.2-0.3l0.2,0l0.4,0.5L43,14.8z M35.5,27.1L35.5,27.1
		c-0.2,0-0.4,0.3-0.5,0.3c0-0.1,0-0.1,0-0.3c0,0,0-0.1,0.1-0.2c0.1,0,0.4-0.3,0.4-0.3c0.1,0,0.3,0.1,0.3,0.2
		C35.7,27,35.6,27.1,35.5,27.1 M33.7,28.3c0.1-0.1,0.2-0.3,0.3-0.3c0,0,0.4-0.4,0.5-0.4c0,0,0.1,0,0.2,0c0,0,0.1,0,0,0.2
		c0,0.1-0.2,0.3-0.3,0.3c0,0-0.4,0.4-0.7,0.5C33.7,28.5,33.6,28.5,33.7,28.3 M32.9,27.3l0-0.1c0-0.2,0.2-0.3,0.4-0.4
		c0,0,0.3-0.2,0.3-0.2c0,0,0.1-0.3,0.2-0.3c0.1,0,0.1,0.1,0.2,0.2c0,0.1-0.4,0.7-0.6,0.7C33.3,27,33,27.3,32.9,27.3 M35,25.6
		L35,25.6c-0.1,0.2-0.1,0.3-0.2,0.3c-0.1,0.1-0.4,0.2-0.6,0.2c0,0,0-0.1,0-0.2l0-0.2c0.2-0.1,0.3-0.1,0.5-0.3
		C34.9,25.5,34.9,25.6,35,25.6 M33.6,25c0-0.1-0.1-0.1,0-0.3c0,0,0.1-0.1,0.2-0.2c0-0.1,0.3-0.3,0.4-0.3c0.1,0,0.1,0.1,0.2,0.2
		c0,0,0,0.1-0.1,0.2c-0.1,0.1-0.2,0.1-0.3,0.2C33.8,24.8,33.8,24.9,33.6,25 M32.1,25.9l0.1-0.1c0.1-0.1,0.3-0.1,0.3-0.2l0.2-0.4
		c0.1-0.1,0.1-0.2,0.3-0.2c0.1,0,0.1,0,0.2,0.1c0,0,0,0.1,0,0.2c0,0.1-0.2,0.1-0.2,0.2c-0.1,0.1-0.2,0.2-0.4,0.3
		c-0.1,0.1-0.2,0.2-0.4,0.3C32.2,26.1,32.2,26.1,32.1,25.9 M33.6,23.2L33.6,23.2c0,0.1-0.2,0.2-0.3,0.3c0,0-0.1,0.1-0.2,0.2
		c-0.1,0-0.2,0.1-0.2,0.1l-0.1-0.2l0.1-0.2c0-0.2,0.3-0.1,0.4-0.3c0-0.1,0.1-0.1,0.3-0.1L33.6,23.2z M31.5,25
		c-0.1,0-0.1-0.1-0.1-0.3l0.1-0.2c0-0.2,0.3-0.1,0.4-0.3c0,0,0.2-0.4,0.3-0.4c0.1,0,0.2,0.1,0.3,0.3l-0.2,0.1c0,0-0.1,0.2-0.2,0.3
		c-0.1,0-0.4,0.2-0.5,0.4C31.6,24.9,31.5,24.9,31.5,25 M32.8,21.7c0,0,0.1,0.1,0.1,0.2c-0.1,0.2-0.2,0.2-0.3,0.3
		c0,0-0.2,0.2-0.3,0.2c-0.1,0.1-0.2,0.2-0.4,0.3c-0.1,0-0.1,0-0.2-0.1c0-0.1,0-0.1,0-0.2l0-0.1c0-0.1,0.2-0.1,0.3-0.1l0.2-0.1
		C32.3,22.1,32.6,21.8,32.8,21.7 M30.6,23.8c-0.1,0-0.1-0.1-0.1-0.2c0-0.1,0.1-0.1,0.2-0.2c0,0,0.1-0.2,0.1-0.1c0.1,0,0.2,0,0.3-0.1
		c0,0,0-0.1,0-0.1c0-0.2,0.3-0.1,0.5-0.1l0,0.2c0,0.1-0.1,0.1-0.2,0.2c0,0.1-0.3,0.3-0.4,0.3C30.9,23.6,30.8,23.7,30.6,23.8
		 M35,20.3c0,0,0,0.3,0,0.3c-0.1,0-0.2,0.2-0.3,0.2c0,0-0.2,0.1-0.2,0.1c-0.1,0.1-0.2,0.3-0.3,0.3L34,21.3c-0.1,0-0.3,0.1-0.3,0.2
		c-0.2,0-0.1-0.2-0.1-0.3c0.1-0.1,0.3-0.3,0.5-0.3c0,0,0.1-0.1,0.1-0.1c0.1-0.1,0.1-0.3,0.2-0.3c0,0,0.2-0.2,0.3-0.2
		C34.8,20.2,35,20.3,35,20.3 M34,22.1c0,0-0.1-0.2,0-0.2c0,0,0.1-0.1,0.2-0.2c0,0,0.2,0.1,0.1,0.3C34.2,22.1,34.1,22.2,34,22.1
		 M31.7,23.8L31.7,23.8c0,0.1-0.2,0.3-0.2,0.3c-0.1,0-0.1,0.1-0.2,0.2c-0.1,0-0.1,0.1-0.2,0.1c0,0-0.1,0-0.2,0.1l-0.1-0.2
		c0.1-0.1,0.2-0.1,0.2-0.2c0.1-0.3,0.3-0.2,0.4-0.3C31.5,23.7,31.6,23.6,31.7,23.8 M32,23.7c0,0-0.1-0.2-0.1-0.2
		c-0.1,0-0.1-0.1,0-0.2c0,0,0.2-0.2,0.3-0.2c0.1,0,0.2-0.2,0.3-0.2c0,0,0.2,0,0.2-0.1c0,0,0.2-0.2,0.2-0.2c0.1-0.1,0.2-0.1,0.2-0.2
		c0.1,0,0.1,0,0.2,0c0,0,0,0.1,0.1,0.2c-0.1,0.1-0.1,0.1-0.1,0.2c0,0-0.5,0.5-0.5,0.5c0,0.1-0.2,0.1-0.2,0.1c0,0-0.1,0.1-0.1,0.1
		C32.1,23.6,32.1,23.7,32,23.7 M32.5,24.8L32.5,24.8c0,0.1-0.1,0.2-0.1,0.3c-0.2,0.2-0.5,0.5-0.7,0.4c0,0,0-0.2,0-0.2
		c0.1-0.1,0.4-0.4,0.6-0.5C32.3,24.8,32.4,24.8,32.5,24.8 M32.7,24.8L32.7,24.8c-0.1,0-0.2-0.1-0.2-0.1c0,0,0,0,0-0.2
		c0,0,0.2-0.2,0.2-0.2c0,0,0.1,0,0.2-0.1c0.1,0,0.1-0.1,0.2-0.1c0-0.1,0.2-0.3,0.3-0.3c0.1-0.1,0.1-0.1,0.2-0.2c0,0,0.1,0,0.2,0
		l0.1,0.2c-0.1,0-0.1,0.2-0.2,0.3c0,0-0.2,0.1-0.3,0.2c-0.3,0.1-0.2,0.5-0.5,0.5C32.9,24.7,32.7,24.7,32.7,24.8 M33.9,25.2
		L33.9,25.2c0.2-0.2,0.2-0.2,0.3-0.2c0.1-0.1,0.2-0.2,0.3-0.3c0.1,0,0.2,0,0.2,0.1c0,0.1-0.2,0.3-0.3,0.4c-0.2,0.1-0.2,0.3-0.3,0.3
		C34,25.5,33.9,25.4,33.9,25.2 M33.8,25.6c0,0.1,0.1,0.1,0,0.2c-0.1,0.1-0.4,0.3-0.4,0.3c-0.2,0-0.3,0.4-0.5,0.4l-0.2,0.1
		c-0.1,0-0.1-0.1-0.2,0c-0.1,0-0.1-0.1,0-0.2c0-0.1,0.2-0.2,0.3-0.3c0.1,0,0.2-0.1,0.3-0.3C33.2,25.8,33.5,25.6,33.8,25.6
		 M34.1,27.2c0-0.1-0.1-0.1-0.1-0.2c0-0.1,0.2-0.3,0.2-0.3c0.2-0.1,0.3-0.2,0.4-0.3c0,0,0.3-0.3,0.3-0.3c0-0.1,0.3-0.1,0.3-0.1
		c0.1,0,0.1,0,0.2,0.1c0,0.1-0.1,0.2-0.2,0.3c0,0-0.5,0.4-0.5,0.4c-0.1,0.1-0.1,0.2-0.2,0.2L34.1,27.2z M33.9,27.3
		c0.1,0.1,0.1,0.1,0.1,0.2c0,0.1-0.3,0.2-0.3,0.2c-0.1,0.1-0.4,0.3-0.4,0.3l-0.2,0c0-0.1-0.1-0.1-0.1-0.2c0-0.1,0.1-0.2,0.2-0.3
		l0.2-0.1c0-0.1,0.2-0.2,0.3-0.2L33.9,27.3z M29.9,20.6c0.5-6.1,5.6-10.9,11.8-10.9c6.5,0,11.8,5.3,11.8,11.8c0,2-0.2,3.4-1.1,5.1
		c-0.1,0.4-0.1,1.4-0.1,1.8c0,0,0,0.7-0.5,2c-0.2,0.4-0.4,0.8-0.8,1.2c-0.7,0.7-1.3,1-2.4,1.4c-0.1,0-0.6,0.1-0.6,0.1
		c0,0-0.3,0-0.3,0c-0.4,0.1-0.4,0.2-0.9,0.3c-0.4,0.1-0.9,0-1.3,0.2c-0.9,0.2-1.3,0.4-2,0.7c-0.3,0.1-0.8,0.4-1.1,0.5
		c-0.4,0.2-0.7,0.3-1,0.5c-0.2,0.1-0.7,0.3-1.1,0.3c-0.3,0-0.6-0.7-0.8-0.8c-0.8-0.4-1.5-2-1.6-2.2c-1.8-0.6-2.1-1.1-3.7-2.2
		c0,0-0.1,0.1-0.2,0.2c-0.2,0.1-0.6,0.3-0.6,0.3l-2.6-3.5l-1.7-2.5l-1.6-2.6l1.2-0.9C29.1,21.3,29.6,20.9,29.9,20.6 M29.9,24.8
		l0.1-0.2c-0.3-0.3-0.7-0.6-1.1-0.9C29.3,24.1,29.6,24.4,29.9,24.8 M28.9,23c0,0,0.5,0.4,1.1,0.9c0.2,0.2,0.6,0.7,0.8,1
		c1.1,1.8,2,3.4,3.2,5.2h0.1c0.6-0.4,0.9-1.1,1.6-1.5c-0.1-0.2-0.1-0.5-0.1-0.7c0-0.7,0.3-1.1,1-1.4c-0.1-0.1-0.3-0.1-0.3-0.2
		c-0.1-0.1,0-0.4-0.2-0.5c-0.1-0.1-0.1-0.2-0.1-0.3c0-0.3,0.5-0.6,0.5-0.9c0-0.1,0-0.4-0.2-0.4c-0.6,0-0.9-1.4-0.9-1.8
		c0-0.2,0-0.3,0.1-0.4c-0.1,0-0.1-0.5-0.2-0.5c-0.2,0-0.2,0.2-0.3,0.2c-0.3,0.1-0.5,0.1-0.8,0.2c0.1-0.2,0.9-0.8,1.1-0.9l-0.1-1.1
		c-0.4-0.4-0.6-1.3-1.2-1.5c-0.1,1.4-0.4,1.5-1.7,2c0.8,1.1,1.4,2.4,2.2,3.6c0.5,0.8,1.2,1.6,1.5,2.5l-0.5-0.2
		c-0.5-1.5-2.5-4.4-3.5-5.7C32.2,21.6,28.9,23,28.9,23 M30.3,25.1l0.1,0.2c0.1,0.1,0.2,0.2,0.3,0.3c0.9,1.4,1.7,3,2.9,4.2
		C32.4,28.2,31.4,26,30.3,25.1 M28.5,23.7c0.8,1.3,3.9,5.8,4.9,6.9l0.3,0c-0.4-0.3-0.7-0.7-1-1c-0.8-1-1.3-2-1.4-2.2
		C31.1,27,28.6,23.8,28.5,23.7 M34,30.8c1.2,1.1,2.9,2,4.5,2.4c-0.1-0.1-0.1-0.2-0.2-0.3c-0.1,0-0.7-0.2-0.8-0.3
		c0,0-0.3-0.5-0.5-0.9c-0.9-0.4-1.7-1-2.5-1.6l-0.5,0.5C34.1,30.7,34,30.7,34,30.8C34,30.8,34,30.8,34,30.8 M40.1,33.9
		c0.2,0.8,0.7,1.5,0.9,0.1c0.1-0.3,0.2-0.5,0.4-0.8c-0.1-0.1-0.4-0.1-0.4-0.2c0.2-0.4-0.1-0.6,0-1.1c0.2,0,0.7,1,0.7,1.1
		c0,0.2,0,0.3-0.1,0.4c0.2,0.2-0.1,0.2-0.1,0.4c0.3,0,0.5-0.7,0.7-0.9c0.5-0.3,1.4-0.3,1.9-0.5c-0.1-0.1,0-0.1,0-0.2l-0.3,0.1
		c0,0.1-0.1,0.3-0.4,0.3c-0.1,0-0.2-0.1-0.3-0.1c-0.1,0-0.3,0.1-0.6,0c0-0.1,0.1-0.1,0.2-0.2c-0.2,0-0.4,0.1-0.6,0.1
		c-0.2,0-0.1-0.3-0.4-0.3c-0.6,0-0.5-0.3-0.9-0.5l-0.1-0.2c0-0.1,0.1-0.1,0.1-0.2c-0.1,0-0.1,0.1-0.2,0.1c-0.2,0-0.2-0.2-0.2-0.3
		c0-0.6-0.1-1.1-0.1-1.8c0,0,0.1,0,0.1,0c0.5,0-0.1,1.3,0.7,1.8c0,0.4,0.6,0.7,1,1c0.3,0,0.5-0.2,0.7-0.4c0.3-0.1,0.9-0.2,1.2-0.2
		c0.2,0,0.4,0,0.6,0c-0.3,0.3-1,0.1-1.5,0.4c0.7-0.2,1.7-0.3,2.5-0.3c0.5,0,1.1,0,1.7-0.2c-0.2-0.3-1.1-0.5-1.5-0.6
		c0.1,0,0.2,0,0.3,0c1,0,2,0.3,3,0.3c0,0,0.3-0.1,0.3-0.2c0-0.5,0.8-1.4,1.3-1.9l0.2,0.1c0.1-0.1,0.5-0.4,0.5-0.5
		c0-0.1-0.3,0-0.3-0.1c0-0.1,0-0.1,0-0.2c0-0.6,0.6-1.1,0.6-1.6c0-0.1,0-0.2-0.1-0.3c-0.6-0.3-0.4-1-0.9-1.4l-0.2,0
		c-0.1,0.2-0.1,0.5-0.1,0.8c0,0.8,0.3,1.9-0.8,2.4c-0.7,0.3-0.6,0.4-1.4,0.4c-1.2,0-2.4-0.3-3.4-0.7l0-0.2c0.1,0,0.2,0,0.3,0
		c0.1,0,0.1,0.1,0.3,0.1c0.1,0,0.2,0,0.2,0c0.2,0.1,1.1,0.4,1.2,0.4c0.1,0,0.2,0.2,0.3,0.2c0.2,0,0.8-0.1,1.1-0.1l0.2,0.2
		c1.1,0,0.7-1.9,1.4-1.9c0.1,0,0.2,0.1,0.2,0C50,26.4,50,26.3,50,26.1c0-0.3,0.1-0.6,0.1-0.9c0-0.1,0-0.3-0.1-0.4
		c-0.3-0.1-0.6-0.3-0.9-0.3c-0.1,0-0.2,0-0.3,0c-1,0.7-1.7,1.6-3.1,2c0.1,0.1,1.8,0.2,2.1,0.2c0,0.1,0.2,0.2,0.4,0.2
		c0.3,0,0.6,0.4,0.6,0.6c0,0.1-0.1,0.2-0.2,0.2c-0.6,0-0.2-0.6-1.4-0.6c-0.4,0-0.8,0-1.1,0.1c0,0.1-0.1,0.1-0.1,0.1
		c-0.3-0.1-0.7-0.3-1.1-0.3c-0.1,0-0.2,0-0.4,0.1c0,0.1,0.1,0.2,0.1,0.4c-0.7-0.1-1.3-0.6-2.1-0.6l-0.2,0c0,0.2,0.8,0.4,1,0.5v0.1
		c-0.1,0-0.1,0.1-0.3,0.1c-0.2-0.1-1.8-0.7-1.9-0.7c-0.1,0-0.2,0-0.3,0.2c0,0.1,0.2,0,0.2,0c0.7,0.1,0.8,0.6,1.2,1
		c0.3,0.3,0.7,0.5,1.1,0.7c0.3,0.8,1.3,1.1,2,1.6c-0.1,0.1,0,0.3-0.3,0.3c-0.4-0.1-1.7-0.5-1.7-0.9c0-0.1,0.1-0.1,0.2-0.2
		c0,0-0.5-0.5-0.5-0.6c0-0.1-0.1-0.1-0.2-0.2c0.1,0.2-0.1,0.3-0.1,0.6c0,0.1,0,0.1,0,0.2c-0.6,0.1-0.3-0.4-0.5-0.5
		c-0.5-0.3-1.3-2-1.9-2c0,0,0.2,0.1,0.2,0.1c0.2,0.2,0.5,0.5,0.5,0.7c0,0,0,0.1,0,0.1c0.1,0.2,0.3,0.4,0.5,0.5l-0.1,0.1
		c-1,0-0.6-1.2-1.7-1.5c0.2,1-0.2,2-0.2,3C39.5,31.9,39.7,32.8,40.1,33.9 M42,34.1c0.2,0,0.3,0,0.5,0c0.2-0.2,0.3-0.4,0.6-0.6
		l-0.2,0C42.6,33.7,42.2,33.8,42,34.1 M52.2,26c0.6-1.4,1-2.8,1-4.5c0-6.3-5.2-11.4-11.5-11.4c-5.8,0-10.6,4.4-11.3,10
		c0.3-0.2,0.5-0.5,0.7-0.7c0.9-5,5.3-8.8,10.6-8.8c6,0,10.8,4.8,10.8,10.7c0,0.7-0.1,1.4-0.2,2.1l0.6,1C52.9,25.6,52.6,26,52.2,26
		 M28.1,23l0.2,0c0.2-0.1,2.1-1.5,2.2-1.6c0.2-0.1,0.4-0.3,0.4-0.4L28.1,23z M52.6,24.4L52.6,24.4c-0.2-0.8-1-1.3-1.1-2.1
		c-0.4-0.1-0.8-0.4-0.8-0.8c0-0.1,0-0.2,0.1-0.2c0.5,0,1.4,1.7,1.5,1.8c0-0.5-0.2-1-0.2-1.4c0-0.2,0.1-0.5,0.3-0.7
		c-0.2-0.5-0.3-0.1-0.3-1.1c-0.6-0.6-0.6-1.2-1.4-1.6c-0.1,0-0.1-0.2-0.1-0.3l-1.5-0.3c0.1-0.3,1.3-0.3,1.4-0.3l-0.6-0.6
		c-0.3,0.3-0.5,0.6-0.9,0.7c0,0.1-0.1,0.2-0.1,0.3c-0.7,0.1-1.4,0.2-2.1,0.5c-1.4,0.6-2.8,1.8-4.4,1.8c-0.1,0-0.3,0-0.2-0.3
		c2.1-0.2,6.2-3,6.6-3c0.2,0,0.3,0.2,0.5,0.3l-0.1-0.2c-0.1-0.5,0.6-0.4,0.6-0.9l-0.8-0.6l-0.3-0.8c-0.1,0-0.2-0.1-0.3-0.1
		c-0.1,0-0.2,0-0.4,0.1c0,0.1,0.3,0.2,0.3,0.3c0,0.6-0.8,2.3-1.4,2.7l-1.8,1c-0.6,0.3-2.2,1-2.8,1c-0.1,0-0.3,0-0.3-0.1
		c0-0.1,0.1-0.1,0.1-0.2c1.5-0.3,2.8-1,4-1.8c0-0.3-0.2-0.8-0.6-0.8c-0.3,0-0.6,0-0.6-0.4c0-0.1,0-0.2,0.1-0.2
		c0.1,0,0.4,0.2,0.4-0.2c0-0.2,0.2-0.4,0.1-0.6l-0.2,0c-0.2,0-0.4-0.1-0.6,0l0,0.3c0,0.2-0.2,0.1-0.2,0.4c0,0.1,0.1,0.3,0.1,0.5
		l-0.2,0.1c-0.1,0.3-0.2,0.8-0.7,0.9l-0.1-0.2c0-0.2,0.3-0.2,0.3-0.4c-0.1,0-0.4,0.1-0.4,0c-0.2-0.2-0.1-0.8-0.3-0.9
		c-0.6,0-0.4-0.3-0.7-0.2c-0.2,0-0.1-0.4-0.4-0.4c-0.8,0-0.8-0.6-1.5-0.6c-0.2,0-0.4,0-0.5,0.1c0,0.1,0,0.2,0,0.2
		c0,0.3,0.2,0.6,0.2,0.8c0,0.1-0.1,0.2,0.1,0.2c0.3,0,0.9-0.1,0.9,0.4c0,0.1-0.2,0.2-0.3,0.3c0,0.1,0,0.4-0.1,0.4
		c-0.2,0-0.3-0.5-0.5-0.6l0,1.2c0.2,0,0.2-0.2,0.6-0.3c0,0,0-0.3,0-0.3c0,0,0.3,0.5,0.2,0.6c-0.1,0-0.3-0.2-0.3,0.1
		c0,0.1,0.1,0.1,0.2,0.1c0.1,0,0.5-0.1,0.5,0c0,0.3-0.3,0.1-0.3,0.3c0,0.3,0.3,0.1,0.3,0.4c0,0.3-0.1,0.6,0.5,0.5
		c0,0.3-0.2,0.3-0.5,0.4V20l0.2,0c-0.1,0.2,0,0.4,0.2,0.4c2.1,0,4.2-0.8,5.9-1.9c0.3,0.1,0.5-0.1,0.8-0.1c0.2,0,0.4,0,0.5,0.2
		l0.1,0.2L48.7,19c0.1,0.1,0.3,0.2,0.5,0.2c0.5,0,0.9-0.4,1.5-0.4c0.8,0,0.9,1.3,1.1,1.8c0,0.2,0.3,0.4,0.3,0.5
		c0,0.1-0.3,0.2-0.4,0.2c-0.4,0-0.4-0.9-0.5-0.9H51c-0.3-0.2-1-0.3-1-0.6c-0.8-0.2-1.5-0.3-2.3-0.3c-1.9,0-1.9,0.9-2.6,0.9
		c-0.1,0-0.6-0.1-0.6,0c-0.1,0.1,0,0.3-0.1,0.4c-0.4-0.1-0.8-0.1-1.1,0.2h-1.6c0.1,0.8,0.4,0.5,0.9,0.9c-0.1,0.1-0.5,0.3-0.6,0.3
		c-0.7,0-0.5-1.2-1.3-1.2l0.7,1.6l-0.2,0c-0.2,0-0.5-0.5-0.7-0.7h-0.1l0.4,1.1l1.1,0.7c0,0.4,0.8,0.4,1.1,0.4c1,0,1.9-0.5,2.9-0.5
		c0.3,0,0.5,0.1,0.8,0.1c0.6,0,1.2-0.5,1.8-0.5c0.2,0,0.4-0.1,0.6-0.1c0.6,0,1.1,0.6,1.8,0.6c0.1,0,0.1,0,0.2,0
		c0.2,0.1,0.2,0.5,0.3,0.5C52.1,24.2,51.9,24,52.6,24.4 M43.3,15.5h0.1c0-0.2,0.1-0.2,0.1-0.3c0-0.1-0.1-0.2,0.1-0.4
		c0.3,0.2,0.1,0.3,0.2,0.5l0.1-0.1c-0.1,0,0-0.2,0-0.3c0.3,0,0.5,0.4,0.8,0.4s0.4-0.1,0.7,0.1c0-0.1,0-0.2,0-0.3
		c0-0.3-0.1-0.6-0.2-0.9c-0.1-0.3-0.1-0.5-0.2-0.8c-0.4-0.7-1.5-1-2.2-1c-1,0-2.1,0.5-2.7,1.3c0.3,0,0.8-0.2,1.2-0.2
		c0.2,0.1,0.3,0.4,0.5,0.3c0,0,0.1-0.2,0.1-0.2l0.2,0c0,0.5,0,0.9-0.1,1.4c0.1,0,0.2-0.1,0.3-0.1c0.2,0,0.2,0.2,0.3,0.3
		c0.1,0.1,0.2,0,0.2,0C43.1,15.4,43.2,15.5,43.3,15.5 M38.7,27.4l0.1-0.1c-0.1-0.1-0.4-0.4-0.4-0.6c0-0.6,0-1.1-0.1-1.7
		c0-0.1,0.1-0.2,0.2-0.2c0,0,0.1-0.7,0.1-0.8c0-0.4,0-0.6-0.3-0.9c-0.1,0.1,0,0.7-0.2,0.7c-0.1,0-0.6-0.4-0.6-0.4
		c0-0.7,0.3-1.4,0.3-2.1c0-0.3-0.3-0.4-0.5-0.6c0,0.1-0.1,0.2-0.1,0.3c0,0.5,0.3,0.3,0.3,0.4c0,0.1-0.2,0.1-0.3,0.1
		c-0.1,0-0.1,0.2-0.2,0.2c0,0-0.2-0.1-0.2,0c0,0.1,0.1,0.1,0.1,0.3c-0.2,0-0.7-0.6-0.9-0.7l-0.4-0.1c-0.1,0-0.1,0.1-0.1,0.2
		c0.3,0.2,0.5,0.4,0.7,0.8c0.1,0.1,0.1,0.6,0.2,0.9c0.2,0.5,0.4,0.3,0.6,0.6c0.2,0.2,0.1,0.5,0.2,0.7l0.5,0.4L38,24l0.2,0l0.1,0.3
		c-0.2,0.6-0.5,1.2-0.5,1.8C37.7,26.9,38,27.1,38.7,27.4 M52,27.5c0.1-0.1,0.2-0.4,0.2-0.4c0-0.1,0-0.3,0-0.3v-0.3
		c0-0.2-0.1-0.5-0.2-0.7L52,27.5z M41,26.8l0.2-1.3l-0.2,0.1l-0.3,1.1C40.8,26.7,41,26.8,41,26.8 M44.6,26.3c0.2,0,0.5-0.1,0.7-0.2
		c0.4-0.2,0.6-1,1-1l0.2,0.1l-0.2,0.6c0.6-0.1,1-1,1.4-1.4c-0.3,0-0.6,0-0.8,0c-0.2,0.1-0.3,0.2-0.5,0.5c-0.3,0.3-0.8,0.5-1,0.9
		C45.1,25.7,44.6,26,44.6,26.3 M40.3,26.2L40.3,26.2l0.2-0.7l-0.1-0.1c-0.1,0.1-0.2,0.3-0.2,0.4V26C40.3,26,40.3,26.1,40.3,26.2
		 M39.6,25.7c0.2,0,0.1-0.3,0.2-0.3c-0.1-0.1-0.2-0.2-0.2-0.4c0-0.3,0.2-0.6,0.2-0.8c0-0.1,0-0.2-0.2-0.3V25.7z M42.5,25.6
		L42.5,25.6c0.2-0.2,0.3-0.3,0.3-0.5c0-0.1,0-0.2,0-0.3c0,0-0.1,0.1-0.1,0.2C42.6,25.1,42.5,25.4,42.5,25.6 M41.8,25.6L41.8,25.6
		l0.5-1.1L41.8,25c0,0-0.1,0.2-0.1,0.3v0.2C41.7,25.5,41.7,25.6,41.8,25.6 M36.5,25.5c0.1-0.1,0.1-0.1,0.1-0.2l-0.1,0.1V25.5z
		 M43.5,25.2c0,0,0.1-0.1,0.2-0.2c0,0,0-0.1,0-0.2c0-0.1,0-0.2,0-0.3L43.5,25.2z M40.6,25.1c0.2-0.2,0.3-0.2,0.4-0.5
		c0,0-0.1-0.1-0.2-0.1l0.3-0.9l-0.2,0.1L40.6,25.1z M52.1,25.2c0.1-0.2-0.2-0.4-0.2-0.5c0,0,0,0.1,0,0.2c0,0,0,0.1,0.1,0.2
		C52,25.1,52,25.1,52.1,25.2 M45.7,24.7c0.2-0.2,0.6-0.4,0.5-0.6c0,0-0.1,0.1-0.1,0.1c-0.1,0.1-0.1,0.1-0.1,0.2
		C45.8,24.4,45.8,24.5,45.7,24.7 M39,24.4L39,24.4c0.1-0.1,0.1-0.2,0.2-0.3c0-0.2,0-0.5,0.1-0.6c-0.1-0.2-0.1-0.1-0.2-0.2
		c0,0.1-0.1,0.2-0.1,0.3c0,0.1,0,0.2,0,0.4v0.2C39.1,24.3,39,24.3,39,24.4 M40.1,23.2l0.2-0.2c0,0,0-0.1-0.1-0.2c0,0-0.1,0-0.1,0
		c0,0-0.1,0-0.1,0.2L40.1,23.2z M32.5,19.9c0.3,0,1.2-0.5,1.3-0.9C33.3,19.3,32.9,19.6,32.5,19.9 M36.3,20.3c-0.1,0-0.2,0-0.4,0.2
		c-0.2,0.1-0.3,0.1-0.4,0.3c0,0-0.1,0.1,0,0.2c0.1,0,0.1-0.1,0.3-0.2c0.2,0,0.3-0.2,0.3-0.3c0.1-0.1,0.1,0,0.2-0.1c0,0,0.2,0,0.2,0
		C36.6,20.3,36.4,20.3,36.3,20.3 M37,20.2c0.3-0.1,0.6-0.2,0.9-0.2c0.2,0,0.4,0.1,0.6,0c0.5-0.2,1.3-0.5,2.4-0.6
		c-0.1-0.1-1-0.2-1.1-0.2C38.8,19.3,37.8,19.6,37,20.2 M32.9,19.1l0.8-0.5c0.1,0,0.1,0,0.1-0.2c0,0-0.1,0-0.2,0.1L32.9,19.1z
		 M46.2,17.2l0.1-0.1c0-0.1,0-0.1-0.1-0.3c0,0-0.1,0.1-0.1,0.2C46.1,17,46.2,17.1,46.2,17.2 M43.8,15.5c0,0-0.1,0.2-0.1,0.2
		c0,0,0.2,0.1,0.2,0.4c0,0.2-0.1,0.4-0.1,0.7c0.2,0,0.2-0.5,0.2-0.6V16C44,15.9,44,15.6,43.8,15.5 M46.6,16.7l0.7-0.4l-0.2,0
		C46.9,16.4,46.8,16.5,46.6,16.7 M46.2,16.4l0.8-0.6c-0.3,0-0.4,0.1-0.5,0.3c-0.1,0.1-0.1,0.1-0.2,0.2V16.4z M47.3,16l0.2,0l0.1-0.2
		c0,0-0.1-0.2-0.1-0.2l-0.2,0c0,0,0.1,0,0.2,0.1c0,0-0.1,0.1-0.1,0.1C47.4,15.9,47.4,15.9,47.3,16 M41.7,15.2L41.7,15.2
		c0.2-0.2,0.2-0.4,0.2-0.6l-0.2,0.1c-0.1,0.1-0.1,0.1-0.1,0.2C41.6,14.9,41.6,15.1,41.7,15.2 M41,14.4L41,14.4
		c0.1-0.1,0.2-0.1,0.2-0.2l0-0.2l-0.2,0.1L41,14.4z M39.6,27.4l0.2,0c-0.1-0.3-0.1-0.5-0.3-0.7c-0.1-0.1-0.2-0.2-0.2-0.3
		c0,0.2,0.1,0.4-0.1,0.6L39.6,27.4z M37.5,32.1l-0.1-1.6c-0.1,0-0.2-0.1-0.2-0.2c0.1-0.1,0.2-0.1,0.3-0.1c0.2,0,0.4,0.1,0.7,0.1
		l0-0.2c-0.2,0-0.5,0-0.7,0h-0.2c-0.1,0-0.3,0-0.3,0.2C37,31,37.3,31.4,37.5,32.1 M50.8,31c0.5-0.4,1-0.7,1.2-1.3l-1.1,1.1
		C50.9,30.8,50.9,30.9,50.8,31 M38.6,30.2l0.1,0l0.2,0c0,0,0.1,0,0-0.1l-0.1,0l-0.1,0V30.2z M36.8,29.2c0,0.2,1.1,0.4,1.4,0.4
		c0.3,0,0.5-0.1,0.8-0.1c0,0,0.1,0,0.1,0c0.1-0.1,0.2-0.4,0.2-0.5v-0.2c0-0.3-0.3-0.6-0.4-0.9l-0.3-0.2c-0.3,0-0.6,0.1-1,0.1
		c-0.5,0-1-0.3-1.4-0.3c0,0-0.1,0-0.1,0.1c0,0.3,1.5,0.6,1.5,0.7c0,0.1-0.1,0.2-0.2,0.2c-0.2,0-0.7-0.2-0.9-0.2
		c0,0.1,0.1,0.2,0.2,0.2c0.3,0.2,0.5,0.2,0.8,0.3c0.1,0,0.3,0.2,0.2,0.3C37.3,29.3,37.1,29.2,36.8,29.2 M37.2,27.4l0.1,0.1l0.3,0.1
		c0,0,0.1-0.1,0.1-0.2l-0.2-0.1l-0.2,0C37.2,27.2,37.2,27.2,37.2,27.4 M49.8,27.3c0.2,0,0.3-0.2,0.3-0.4c0-0.1,0-0.1,0-0.2
		L49.8,27.3z M39.1,33.3c0.1-0.1,0.1-0.1,0.1-0.2c0,0,0-0.1,0-0.1c-0.1,0-0.1-0.1-0.2,0C39,33,39.1,33.2,39.1,33.3"/>
	<path fill="#004136" d="M28.4,31.7L28.4,31.7l-0.7,0.2l-1.1-1.8l0.1,0l0.1,0.1c0.1,0.1,0.1,0.2,0.2,0.2c0.1,0,0.1,0,0.3-0.1
		l1.5-0.9c0.1-0.1,0.2-0.2,0.2-0.2c0-0.1,0-0.2,0-0.2l-0.1-0.1l0.1,0l0.6,1.1l-0.1,0c-0.1-0.1-0.1-0.2-0.2-0.2c-0.1,0-0.1,0-0.2,0
		c0,0-0.1,0-0.3,0.1l-1.5,0.9c-0.1,0.1-0.2,0.1-0.2,0.1c0,0,0,0.1,0,0.1c0,0,0.1,0.1,0.1,0.3l0.1,0.2c0.1,0.2,0.2,0.3,0.3,0.4
		c0.1,0.1,0.2,0.1,0.3,0.1C28.1,31.7,28.3,31.7,28.4,31.7"/>
	<path fill="#004136" d="M31.3,32.1L31.3,32.1l0.7,0.7l-0.1,0l-0.1-0.1c-0.1-0.1-0.2-0.1-0.3-0.1c0,0-0.1,0.1-0.2,0.2l-0.8,0.7
		c-0.2,0.2-0.4,0.3-0.5,0.4c-0.1,0.1-0.3,0.1-0.5,0c-0.2,0-0.4-0.2-0.6-0.4c-0.2-0.2-0.3-0.4-0.3-0.6c0-0.2,0-0.4,0.1-0.5
		c0.1-0.1,0.2-0.3,0.5-0.5l0.8-0.7c0.1-0.1,0.2-0.2,0.2-0.3c0-0.1,0-0.1-0.1-0.2L30,30.6l0.1-0.1l0.8,0.9l-0.1,0l-0.1-0.1
		c-0.1-0.1-0.2-0.1-0.2-0.1c-0.1,0-0.1,0.1-0.3,0.2l-0.9,0.8c-0.1,0.1-0.2,0.2-0.3,0.3c-0.1,0.1-0.1,0.2-0.2,0.3c0,0.1,0,0.2,0,0.3
		c0,0.1,0.1,0.2,0.2,0.3c0.1,0.1,0.3,0.2,0.4,0.3c0.2,0.1,0.3,0.1,0.4,0c0.1,0,0.3-0.2,0.5-0.4l0.8-0.7c0.1-0.1,0.2-0.2,0.2-0.3
		C31.4,32.3,31.4,32.2,31.3,32.1L31.3,32.1z"/>
	<path fill="#004136" d="M32.4,34.6l-0.1,1c0,0.3,0,0.5,0,0.6c0,0.1,0.1,0.2,0.2,0.3l0,0.1l-0.9-0.7l0-0.1c0.1,0,0.1,0.1,0.2,0.1
		c0,0,0.1,0,0.1,0c0,0,0.1,0,0.1,0c0,0,0-0.1,0-0.1c0,0,0-0.1,0-0.2l0.1-0.8L31.1,35C31,35,31,35,30.9,35c0,0,0,0-0.1,0.1
		c0,0,0,0.1,0,0.1c0,0,0.1,0.1,0.1,0.2l0,0.1l-0.8-0.6l0-0.1c0.1,0,0.1,0.1,0.2,0.1c0.1,0,0.2,0,0.3,0c0.1,0,0.2,0,0.4-0.1l1-0.3
		l0-1c0-0.3,0-0.4,0-0.6c0-0.1-0.1-0.2-0.2-0.3l0-0.1l1,0.8l0,0.1c-0.1-0.1-0.2-0.1-0.2-0.1c0,0-0.1,0-0.1,0c0,0,0,0.1-0.1,0.2
		l0,0.8l0.8-0.2c0.1,0,0.1,0,0.2-0.1c0,0,0,0,0.1-0.1c0,0,0,0,0-0.1c0,0,0-0.1,0-0.1c0,0-0.1-0.1-0.1-0.1l0-0.1l0.8,0.6l0,0.1
		c-0.1,0-0.1-0.1-0.2-0.1c-0.1,0-0.2,0-0.2,0c-0.1,0-0.2,0-0.4,0.1L32.4,34.6z"/>
	<path fill="#004136" d="M36.1,35.6l-0.4,1l0.6,0.2c0.1,0.1,0.2,0.1,0.3,0c0.1,0,0.2-0.1,0.2-0.3l0.1,0l-0.3,0.9l-0.1,0
		c0-0.1,0-0.2,0-0.3c0-0.1,0-0.1-0.1-0.1c0,0-0.1-0.1-0.2-0.1l-0.6-0.2l-0.3,0.8c0,0.1-0.1,0.2-0.1,0.2c0,0,0,0.1,0,0.1
		c0,0,0.1,0,0.1,0.1l0.4,0.2c0.1,0.1,0.3,0.1,0.3,0.1c0.1,0,0.1,0,0.2,0c0.1,0,0.2-0.1,0.4-0.3l0.1,0l-0.5,0.6l-2-0.8l0-0.1l0.1,0
		c0.1,0,0.1,0,0.2,0c0,0,0.1,0,0.1-0.1c0,0,0.1-0.1,0.1-0.2l0.6-1.7c0.1-0.2,0.1-0.3,0.1-0.3c0-0.1-0.1-0.1-0.2-0.2l-0.1,0l0-0.1
		l2,0.8l-0.2,0.6l-0.1,0c0-0.1,0-0.2,0-0.3c0-0.1,0-0.1-0.1-0.2c0,0-0.1-0.1-0.3-0.1L36.1,35.6z"/>
	<path fill="#004136" d="M39.9,36.5l-0.1,0.6l-0.1,0c0-0.1,0-0.2,0-0.2c0-0.1-0.1-0.2-0.1-0.2c-0.1,0-0.1-0.1-0.3-0.1l-0.4-0.1
		l-0.4,2c0,0.2,0,0.3,0,0.3c0,0.1,0.1,0.1,0.2,0.1l0.1,0l0,0.1l-1.1-0.2l0-0.1l0.1,0c0.1,0,0.2,0,0.3-0.1c0,0,0.1-0.1,0.1-0.3l0.4-2
		l-0.3-0.1c-0.1,0-0.2,0-0.3,0c-0.1,0-0.1,0-0.2,0.1c-0.1,0.1-0.1,0.2-0.1,0.3l-0.1,0l0.2-0.6L39.9,36.5z"/>
	<path fill="#004136" d="M44.1,36.4L44.1,36.4c-0.1,0.1-0.2,0.1-0.2,0.2c-0.1,0.1-0.1,0.2-0.2,0.3L43,39.3l-0.1,0L41.7,37
		c-0.1-0.1-0.1-0.2-0.1-0.2c0,0-0.1-0.1-0.1-0.1c0,0-0.1,0-0.2,0l0-0.1l1.1-0.1l0,0.1c-0.1,0-0.2,0.1-0.2,0.1c0,0,0,0.1,0,0.1
		c0,0.1,0,0.2,0.1,0.3l0.8,1.5l0.5-1.6c0-0.2,0.1-0.3,0.1-0.3c0,0,0-0.1-0.1-0.1c0,0-0.1-0.1-0.2-0.1c0,0,0,0,0,0l0-0.1L44.1,36.4z"
		/>
	<path fill="#004136" d="M44.9,36.3l0.3,1l0.6-0.2c0.1,0,0.2-0.1,0.3-0.1c0.1-0.1,0.1-0.2,0-0.3l0.1,0l0.2,0.9l-0.1,0
		c-0.1-0.1-0.1-0.2-0.1-0.2c0,0-0.1-0.1-0.1-0.1c-0.1,0-0.1,0-0.3,0l-0.6,0.2l0.2,0.9c0,0.1,0.1,0.2,0.1,0.2c0,0,0,0,0.1,0
		c0,0,0.1,0,0.2,0l0.4-0.1c0.1,0,0.3-0.1,0.3-0.1c0.1,0,0.1-0.1,0.2-0.2c0.1-0.1,0.1-0.2,0.1-0.4l0.1,0l0,0.7l-2,0.5l0-0.1l0.1,0
		c0.1,0,0.1,0,0.2-0.1c0,0,0.1-0.1,0.1-0.1c0,0,0-0.1,0-0.3l-0.5-1.7c0-0.2-0.1-0.3-0.1-0.3c-0.1,0-0.1,0-0.3,0l-0.1,0l0-0.1l2-0.5
		l0.2,0.6l-0.1,0c-0.1-0.1-0.1-0.2-0.2-0.3c0,0-0.1-0.1-0.2-0.1c-0.1,0-0.2,0-0.3,0L44.9,36.3z"/>
	<path fill="#004136" d="M47.7,36.6C47.7,36.6,47.7,36.6,47.7,36.6c0.1,0,0.1,0,0.1,0c0.2-0.1,0.4-0.2,0.5-0.4
		c0.1-0.2,0.1-0.3,0-0.5c-0.1-0.2-0.2-0.3-0.3-0.3c-0.1-0.1-0.3,0-0.5,0c-0.1,0-0.2,0.1-0.3,0.2L47.7,36.6z M50,37.1l-0.7,0.3
		L48,36.6c-0.1,0-0.1,0.1-0.1,0.1c0,0,0,0-0.1,0c0,0,0,0-0.1,0l0.3,0.7c0.1,0.2,0.1,0.2,0.2,0.3c0.1,0,0.2,0,0.2,0l0.1,0l0,0.1
		l-1.1,0.5l0-0.1l0.1,0c0.1,0,0.2-0.1,0.2-0.2c0,0,0-0.1-0.1-0.3L47,36c-0.1-0.2-0.1-0.2-0.2-0.3c-0.1,0-0.2,0-0.2,0l-0.1,0l0-0.1
		l0.9-0.4c0.3-0.1,0.5-0.2,0.6-0.2c0.1,0,0.3,0,0.4,0.1c0.1,0.1,0.2,0.2,0.3,0.3c0.1,0.2,0.1,0.3,0,0.5c0,0.2-0.2,0.3-0.3,0.5
		l0.8,0.5c0.2,0.1,0.3,0.2,0.5,0.2C49.7,37.1,49.8,37.1,50,37.1L50,37.1z"/>
	<path fill="#004136" d="M51.2,36.2L51.2,36.2l-0.9,0.7l0-0.1l0.1-0.1c0.1-0.1,0.1-0.1,0.2-0.2c0-0.1,0-0.1-0.1-0.3l-1-1.5
		c-0.1-0.1-0.1-0.2-0.2-0.2c0,0-0.1,0-0.1,0c-0.1,0-0.1,0-0.2,0.1l-0.1,0.1l0-0.1l1-0.6l0,0.1l-0.1,0.1c-0.1,0.1-0.1,0.1-0.1,0.2
		c0,0.1,0,0.2,0.1,0.3l1,1.5c0.1,0.1,0.1,0.2,0.2,0.2c0,0,0.1,0,0.1,0C51,36.3,51.1,36.3,51.2,36.2L51.2,36.2z"/>
	<path fill="#004136" d="M51.7,32.4l0.4,0.5l-0.1,0c-0.1-0.1-0.2-0.1-0.2-0.1c-0.1,0-0.2,0-0.2,0c-0.1,0-0.2,0.1-0.2,0.1l-0.3,0.2
		l1.3,1.6c0.1,0.1,0.2,0.2,0.2,0.2c0.1,0,0.2,0,0.2-0.1l0.1-0.1l0,0.1l-0.9,0.7l0-0.1l0.1-0.1c0.1-0.1,0.1-0.2,0.1-0.2
		c0-0.1-0.1-0.1-0.2-0.3l-1.3-1.6l-0.2,0.2c-0.1,0.1-0.2,0.1-0.2,0.2c0,0.1-0.1,0.1,0,0.2c0,0.1,0,0.2,0.1,0.3l-0.1,0L50,33.8
		L51.7,32.4z"/>
	<path fill="#004136" d="M53.8,32.4L52.7,32l0.5,1.1L53.8,32.4z M54,32.4l-0.7,0.8l0.2,0.4c0.1,0.1,0.1,0.2,0.1,0.2c0,0,0.1,0,0.1,0
		c0,0,0.1-0.1,0.2-0.2l0.1,0l-0.6,0.7l-0.1,0c0.1-0.1,0.1-0.2,0.1-0.2c0-0.1-0.1-0.2-0.2-0.4l-1.1-2.2l0-0.1l2.3,0.7
		c0.2,0.1,0.3,0.1,0.4,0.1c0.1,0,0.2-0.1,0.2-0.1l0.1,0l-0.7,0.8l-0.1,0c0.1-0.1,0.1-0.2,0.1-0.2c0,0,0-0.1,0-0.1
		c0,0-0.1-0.1-0.3-0.1L54,32.4z"/>
	<path fill="#004136" d="M54,29.1l0.8,0.5l0,0.1c-0.2-0.1-0.3-0.1-0.4-0.1c-0.1,0-0.2,0-0.4,0.1c-0.1,0.1-0.2,0.1-0.3,0.3
		c-0.1,0.1-0.1,0.2-0.1,0.4c0,0.1,0.1,0.2,0.2,0.3c0.1,0,0.1,0.1,0.2,0c0.1,0,0.3-0.1,0.7-0.3c0.3-0.1,0.4-0.2,0.5-0.3
		c0.1,0,0.2-0.1,0.3,0c0.1,0,0.2,0,0.3,0.1c0.2,0.1,0.3,0.3,0.3,0.5c0,0.2,0,0.4-0.1,0.6c0,0.1-0.1,0.1-0.1,0.2c0,0-0.1,0.1-0.2,0.2
		c-0.1,0.1-0.2,0.1-0.2,0.2c0,0,0,0.1,0,0.1c0,0,0,0.1,0.1,0.1l0,0.1l-0.8-0.5l0-0.1c0.2,0.1,0.3,0.1,0.4,0.1c0.1,0,0.2,0,0.3-0.1
		c0.1-0.1,0.2-0.2,0.3-0.3C56,31,56,30.9,56,30.8c0-0.1-0.1-0.2-0.2-0.3c-0.1,0-0.1-0.1-0.2-0.1c-0.1,0-0.2,0-0.3,0
		c-0.1,0-0.2,0.1-0.4,0.2c-0.2,0.1-0.4,0.2-0.5,0.3c-0.1,0-0.2,0.1-0.3,0.1c-0.1,0-0.2,0-0.3-0.1c-0.2-0.1-0.3-0.3-0.3-0.5
		c0-0.2,0-0.4,0.1-0.6c0.1-0.1,0.2-0.2,0.3-0.3c0.1,0,0.1-0.1,0.1-0.1c0,0,0-0.1,0-0.1C54,29.3,54,29.2,54,29.1L54,29.1z"/>
	<path fill="#004136" d="M24.7,19.2l1.5,0.1l0,0.1c-0.3,0-0.5,0.1-0.7,0.1c-0.2,0.1-0.3,0.2-0.4,0.4c-0.1,0.2-0.2,0.3-0.2,0.5
		c0,0.2,0,0.4,0.2,0.5c0.1,0.2,0.3,0.2,0.4,0.3c0.1,0,0.2,0,0.4-0.1c0.2-0.1,0.4-0.4,0.7-0.9c0.2-0.4,0.4-0.6,0.6-0.8
		c0.1-0.1,0.3-0.2,0.4-0.3c0.2-0.1,0.3-0.1,0.5-0.1c0.3,0,0.6,0.2,0.8,0.4c0.2,0.3,0.3,0.6,0.3,1c0,0.1,0,0.2-0.1,0.3
		c0,0.1-0.1,0.2-0.1,0.4c-0.1,0.2-0.1,0.3-0.1,0.4c0,0.1,0,0.1,0,0.1c0,0,0.1,0.1,0.2,0.1l0,0.1l-1.4-0.1l0-0.1
		c0.3,0,0.5-0.1,0.7-0.2c0.2-0.1,0.3-0.2,0.4-0.4c0.1-0.2,0.2-0.4,0.2-0.6c0-0.3,0-0.5-0.2-0.6c-0.1-0.2-0.3-0.3-0.5-0.3
		c-0.1,0-0.2,0-0.3,0.1c-0.1,0-0.2,0.1-0.3,0.2c-0.1,0.1-0.2,0.3-0.4,0.6c-0.2,0.3-0.4,0.6-0.5,0.7c-0.1,0.1-0.3,0.2-0.4,0.3
		c-0.2,0.1-0.3,0.1-0.5,0.1c-0.3,0-0.5-0.2-0.7-0.4c-0.2-0.3-0.3-0.6-0.2-0.9c0-0.2,0.1-0.5,0.2-0.7c0.1-0.1,0.1-0.2,0.1-0.2
		c0-0.1,0-0.1,0-0.1c0,0-0.1-0.1-0.2-0.1L24.7,19.2z"/>
	<path fill="#004136" d="M28.4,15.9l-1.8,0l1.3,1.3L28.4,15.9z M28.6,15.9L28,17.4l0.5,0.5c0.1,0.1,0.2,0.2,0.3,0.2
		c0.1,0,0.1,0,0.2,0c0.1,0,0.1-0.2,0.2-0.3l0.1,0l-0.5,1.2l-0.1,0c0-0.2,0-0.3,0-0.4c-0.1-0.1-0.2-0.3-0.4-0.6l-2.7-2.7l0-0.1l3.8,0
		c0.3,0,0.5,0,0.6-0.1c0.1-0.1,0.2-0.2,0.3-0.3l0.1,0l-0.6,1.5l-0.1,0c0.1-0.2,0.1-0.3,0-0.3c0-0.1-0.1-0.1-0.1-0.1
		c-0.1,0-0.2-0.1-0.4,0L28.6,15.9z"/>
	<path fill="#004136" d="M27.3,12.2l0.8-0.8l4.1,0.2l-1.8-1.6c-0.2-0.2-0.3-0.3-0.4-0.3c-0.1,0-0.2,0.1-0.3,0.2L29.5,10l-0.1-0.1
		l1-1.1l0.1,0.1L30.3,9c-0.1,0.1-0.2,0.3-0.1,0.4c0,0.1,0.1,0.2,0.3,0.4l2.6,2.4l-0.1,0.1L28.7,12l1.9,1.7c0.2,0.2,0.3,0.3,0.4,0.3
		c0.1,0,0.2-0.1,0.3-0.2l0.1-0.1l0.1,0.1l-1,1.1l-0.1-0.1l0.1-0.1c0.1-0.1,0.2-0.3,0.1-0.4c0-0.1-0.1-0.2-0.3-0.4l-2.2-2
		c-0.2,0-0.3,0-0.4,0c-0.1,0-0.2,0.1-0.3,0.1C27.5,12.1,27.5,12.2,27.3,12.2L27.3,12.2z"/>
	<path fill="#004136" d="M34.4,6.2L34.9,7l-0.1,0.1c-0.1-0.1-0.2-0.2-0.3-0.3c-0.1-0.1-0.2-0.1-0.4-0.1c-0.1,0-0.3,0.1-0.4,0.1
		l-0.5,0.3l1.7,2.8c0.1,0.2,0.2,0.3,0.3,0.4c0.1,0,0.2,0,0.4-0.1l0.1-0.1l0.1,0.1l-1.5,0.9L34.2,11l0.1-0.1c0.2-0.1,0.2-0.2,0.2-0.3
		c0-0.1-0.1-0.2-0.2-0.4l-1.7-2.8l-0.4,0.3C32.1,7.8,32,7.9,32,8c-0.1,0.1-0.1,0.2-0.1,0.3c0,0.1,0,0.3,0.1,0.5l-0.1,0.1l-0.5-0.9
		L34.4,6.2z"/>
	<path fill="#004136" d="M37.7,5.2c-0.4,0.1-0.6,0.3-0.8,0.6c-0.2,0.4-0.2,0.9,0,1.6c0.2,0.7,0.4,1.1,0.8,1.4c0.3,0.2,0.6,0.3,1,0.2
		C39,9,39.3,8.7,39.5,8.4c0.2-0.4,0.2-0.9,0-1.5c-0.2-0.7-0.4-1.2-0.8-1.5C38.4,5.2,38.1,5.1,37.7,5.2 M37.7,5c0.5-0.1,1,0,1.5,0.3
		c0.5,0.3,0.8,0.8,1,1.4c0.2,0.6,0.1,1.2-0.2,1.7c-0.3,0.5-0.7,0.8-1.3,1c-0.6,0.1-1.1,0.1-1.6-0.2c-0.5-0.3-0.8-0.8-1-1.4
		C36,7,36.1,6.4,36.4,5.9C36.7,5.4,37.2,5.1,37.7,5"/>
	<path fill="#004136" d="M46.1,5.1l-0.1,1l-0.1,0c0-0.2,0-0.3,0-0.4c0-0.1-0.1-0.2-0.2-0.3c-0.1-0.1-0.2-0.1-0.4-0.2l-0.6-0.1
		l-0.5,3.2c0,0.3,0,0.4,0,0.5C44.2,8.9,44.3,9,44.5,9l0.1,0l0,0.1l-1.8-0.3l0-0.1l0.1,0c0.2,0,0.3,0,0.4-0.1
		c0.1-0.1,0.1-0.2,0.1-0.4l0.5-3.2L43.6,5c-0.2,0-0.3,0-0.4,0C43,5,42.9,5,42.8,5.1c-0.1,0.1-0.2,0.2-0.2,0.4l-0.1,0l0.2-1L46.1,5.1
		z"/>
	<path fill="#004136" d="M49.4,6.7c-0.3-0.2-0.7-0.2-1-0.1c-0.4,0.2-0.8,0.6-1.1,1.1C47,8.4,46.9,8.9,47,9.4
		c0.1,0.4,0.3,0.6,0.6,0.8c0.3,0.2,0.7,0.2,1.1,0.1c0.4-0.2,0.7-0.5,1-1.1c0.3-0.6,0.5-1.2,0.4-1.6C50,7.1,49.8,6.9,49.4,6.7
		 M49.6,6.5c0.5,0.3,0.8,0.7,1,1.2c0.2,0.6,0.1,1.1-0.2,1.7c-0.3,0.6-0.7,0.9-1.3,1.1c-0.6,0.2-1.1,0.1-1.6-0.1
		c-0.5-0.3-0.8-0.7-1-1.2c-0.2-0.5-0.1-1.1,0.2-1.7c0.3-0.6,0.8-1,1.4-1.1C48.6,6.2,49.1,6.2,49.6,6.5"/>
	<path fill="#004136" d="M51.3,13.2L53,9.7l-2.2,1.8c-0.2,0.2-0.3,0.3-0.3,0.4c0,0.1,0,0.2,0.1,0.4l0.1,0.1l-0.1,0.1l-0.9-1.1
		l0.1-0.1l0.1,0.1c0.1,0.1,0.2,0.2,0.4,0.2c0.1,0,0.2-0.1,0.4-0.2l2.1-1.8C52.9,9.4,53,9.3,53,9.2C53,9.1,53,9,53,9
		c0-0.1-0.1-0.2-0.2-0.3l0.1-0.1l0.8,0.9l-1.5,3.3l3.5-1l0.8,0.9l-0.1,0.1l-0.1-0.1c-0.1-0.1-0.2-0.2-0.4-0.2
		c-0.1,0-0.2,0.1-0.4,0.2l-2.1,1.8c-0.2,0.2-0.3,0.3-0.3,0.4c0,0.1,0,0.2,0.1,0.4l0.1,0.1l-0.1,0.1L52,14.1l0.1-0.1l0.1,0.1
		c0.1,0.1,0.2,0.2,0.4,0.2c0.1,0,0.2-0.1,0.4-0.2l2.2-1.8L51.3,13.2L51.3,13.2z"/>
	<path fill="#004136" d="M59.4,17.3l-1.3-0.5l0-0.1l1.1,0L59.4,17.3z M55.6,17.7l1.4-1.2l-1.8-0.2L55.6,17.7z M55.4,17.8l-0.5-1.6
		l-0.7-0.1c-0.2,0-0.3,0-0.4,0c-0.1,0-0.1,0.1-0.1,0.1c0,0.1,0,0.2,0,0.4l-0.1,0l-0.4-1.3l0.1,0c0.1,0.2,0.2,0.3,0.2,0.3
		c0.1,0.1,0.4,0.1,0.7,0.1l3.8,0.3l0,0.1l-2.9,2.5c-0.2,0.2-0.4,0.4-0.4,0.5c0,0.1-0.1,0.3,0,0.4l-0.1,0L54,18.2l0.1,0
		c0.1,0.2,0.1,0.3,0.2,0.3c0.1,0,0.1,0.1,0.2,0c0.1,0,0.2-0.1,0.4-0.3L55.4,17.8z"/>
	<path fill="#004136" d="M58.9,22.5l-1.5,0l0-0.1c0.3,0,0.5-0.1,0.7-0.2c0.2-0.1,0.3-0.2,0.4-0.4c0.1-0.2,0.1-0.4,0.1-0.6
		c0-0.2-0.1-0.4-0.2-0.5c-0.1-0.1-0.3-0.2-0.5-0.2c-0.1,0-0.2,0-0.3,0.1c-0.2,0.1-0.4,0.4-0.6,0.9c-0.2,0.4-0.4,0.7-0.5,0.8
		c-0.1,0.1-0.2,0.3-0.4,0.3c-0.2,0.1-0.3,0.1-0.5,0.1c-0.3,0-0.6-0.1-0.8-0.4c-0.2-0.2-0.4-0.6-0.4-0.9c0-0.1,0-0.2,0-0.3
		c0-0.1,0-0.2,0.1-0.4c0.1-0.2,0.1-0.3,0.1-0.4c0-0.1,0-0.1,0-0.1c0,0-0.1,0-0.2-0.1l0-0.1l1.4,0l0,0.1c-0.3,0.1-0.5,0.1-0.7,0.2
		c-0.1,0.1-0.3,0.2-0.4,0.4c-0.1,0.2-0.1,0.4-0.1,0.6c0,0.3,0.1,0.5,0.2,0.6c0.1,0.1,0.3,0.2,0.5,0.2c0.1,0,0.2,0,0.3-0.1
		c0.1-0.1,0.2-0.1,0.3-0.3c0.1-0.1,0.2-0.3,0.4-0.7c0.2-0.4,0.4-0.6,0.5-0.8c0.1-0.2,0.2-0.3,0.4-0.4c0.1-0.1,0.3-0.1,0.5-0.1
		c0.3,0,0.6,0.1,0.8,0.3c0.2,0.2,0.3,0.5,0.3,0.9c0,0.2,0,0.5-0.2,0.7c0,0.1-0.1,0.2-0.1,0.2c0,0.1,0,0.1,0,0.1c0,0,0.1,0.1,0.2,0.1
		L58.9,22.5z"/>
</g>
</svg>
