<?xml version="1.0" encoding="iso-8859-1"?>
<!-- Generator: Adobe Illustrator 19.2.0, SVG Export Plug-In . SVG Version: 6.00 Build 0)  -->
<svg version="1.1" id="Capa_1" xmlns="http://www.w3.org/2000/svg" xmlns:xlink="http://www.w3.org/1999/xlink" x="0px" y="0px"
	 viewBox="0 0 215.811 99.456" style="enable-background:new 0 0 215.811 99.456;" xml:space="preserve">
<g>
	<g>
		<path style="fill:#004237;" d="M5.663,74.37c-0.28-0.14-0.304-0.21-0.304-0.747c0-0.982,0.094-1.776,0.117-2.103
			c0-0.21,0.047-0.327,0.163-0.327c0.117,0,0.188,0.069,0.188,0.234c0,0.162,0,0.442,0.069,0.724
			c0.327,1.448,1.869,1.962,3.247,1.962c2.032,0,3.084-1.146,3.084-2.64c0-1.426-0.771-2.102-2.594-3.458L8.7,67.314
			c-2.219-1.658-2.944-2.874-2.944-4.252c0-2.336,1.845-3.737,4.555-3.737c0.818,0,1.636,0.117,2.126,0.234
			c0.397,0.093,0.56,0.093,0.724,0.093s0.21,0.024,0.21,0.14c0,0.094-0.094,0.747-0.094,2.103c0,0.304-0.023,0.444-0.164,0.444
			c-0.139,0-0.163-0.093-0.187-0.257c-0.023-0.234-0.186-0.772-0.304-0.982c-0.14-0.233-0.816-0.981-2.662-0.981
			c-1.495,0-2.733,0.748-2.733,2.149c0,1.261,0.631,1.986,2.663,3.364l0.582,0.397c2.5,1.705,3.365,3.083,3.365,4.789
			c0,1.167-0.444,2.428-1.916,3.387c-0.864,0.559-2.149,0.701-3.271,0.701C7.696,74.908,6.504,74.766,5.663,74.37"/>
		<path style="fill:#004237;" d="M24.325,68.297c0.094,0,0.094-0.048,0.071-0.141l-2.032-5.443c-0.118-0.303-0.235-0.303-0.351,0
			l-1.915,5.443c-0.024,0.093,0,0.141,0.069,0.141H24.325z M22.037,60.026c0.256-0.654,0.351-0.77,0.49-0.77
			c0.21,0,0.281,0.28,0.491,0.724c0.374,0.841,3.667,9.042,4.929,12.055c0.747,1.774,1.309,2.033,1.752,2.172
			c0.304,0.093,0.607,0.116,0.818,0.116c0.116,0,0.257,0.047,0.257,0.164c0,0.117-0.234,0.164-0.468,0.164
			c-0.303,0-1.823,0-3.246-0.047c-0.398-0.023-0.724-0.023-0.724-0.14c0-0.093,0.046-0.093,0.139-0.14
			c0.117-0.046,0.328-0.21,0.187-0.537l-1.845-4.555c-0.046-0.094-0.07-0.117-0.188-0.117h-4.742c-0.094,0-0.164,0.046-0.209,0.164
			l-1.169,3.177c-0.186,0.49-0.303,0.981-0.303,1.331c0,0.397,0.35,0.537,0.701,0.537h0.186c0.164,0,0.21,0.071,0.21,0.164
			c0,0.117-0.117,0.164-0.304,0.164c-0.49,0-1.611-0.07-1.845-0.07c-0.211,0-1.238,0.07-2.079,0.07
			c-0.258,0-0.397-0.047-0.397-0.164c0-0.093,0.094-0.164,0.186-0.164c0.141,0,0.445-0.023,0.607-0.046
			c0.936-0.117,1.333-0.819,1.729-1.822L22.037,60.026z"/>
		<path style="fill:#004237;" d="M33.62,71.941c0.048,1.634,0.234,2.126,0.795,2.266c0.374,0.093,0.84,0.116,1.027,0.116
			c0.094,0,0.163,0.07,0.163,0.163c0,0.118-0.139,0.164-0.373,0.164c-1.168,0-1.985-0.07-2.172-0.07s-1.052,0.07-1.985,0.07
			c-0.211,0-0.327-0.023-0.327-0.164c0-0.093,0.07-0.163,0.163-0.163c0.164,0,0.537-0.023,0.842-0.116
			c0.513-0.14,0.584-0.677,0.584-2.476V60.354c0-0.795,0.116-1.004,0.279-1.004c0.234,0,0.585,0.397,0.796,0.606
			c0.327,0.327,3.317,3.504,6.494,6.775c2.032,2.103,4.228,4.462,4.859,5.115l-0.21-9.952c-0.023-1.285-0.14-1.728-0.771-1.845
			c-0.375-0.071-0.841-0.094-1.005-0.094c-0.139,0-0.163-0.117-0.163-0.186c0-0.117,0.163-0.14,0.397-0.14
			c0.934,0,1.916,0.047,2.149,0.047c0.233,0,0.911-0.047,1.752-0.047c0.21,0,0.373,0.024,0.373,0.14
			c0,0.069-0.093,0.186-0.234,0.186c-0.093,0-0.256,0-0.49,0.047c-0.678,0.14-0.724,0.537-0.724,1.728l-0.046,11.634
			c0,1.309-0.024,1.426-0.164,1.426c-0.21,0-0.421-0.163-1.565-1.216c-0.211-0.187-3.178-3.106-5.351-5.372
			c-2.382-2.501-4.694-4.931-5.326-5.632L33.62,71.941z"/>
		<path style="fill:#004237;" d="M55.972,68.88c0,1.915,0,3.481,0.094,4.299c0.071,0.585,0.164,0.958,0.794,1.05
			c0.28,0.047,0.747,0.094,0.934,0.094c0.141,0,0.164,0.094,0.164,0.164c0,0.093-0.095,0.162-0.328,0.162
			c-1.121,0-2.429-0.069-2.547-0.069c-0.092,0-1.518,0.069-2.126,0.069c-0.234,0-0.327-0.046-0.327-0.162
			c0-0.071,0.048-0.141,0.164-0.141c0.187,0,0.419-0.047,0.607-0.093c0.421-0.094,0.537-0.49,0.607-1.075
			c0.095-0.818,0.095-2.383,0.095-4.299v-8.34l-2.968,0.046c-1.285,0.024-1.775,0.165-2.079,0.631
			c-0.233,0.351-0.257,0.491-0.327,0.631c-0.047,0.164-0.117,0.187-0.21,0.187c-0.047,0-0.141-0.046-0.141-0.164
			c0-0.209,0.42-1.985,0.445-2.148c0.046-0.118,0.139-0.374,0.21-0.374c0.141,0,0.351,0.162,0.911,0.233
			c0.584,0.07,1.378,0.094,1.612,0.094h7.756c0.678,0,1.145-0.047,1.472-0.094c0.303-0.046,0.491-0.093,0.585-0.093
			c0.094,0,0.094,0.116,0.094,0.234c0,0.606-0.071,2.032-0.071,2.265c0,0.163-0.093,0.257-0.187,0.257
			c-0.093,0-0.14-0.07-0.162-0.35l-0.024-0.21c-0.07-0.608-0.513-1.051-2.478-1.099l-2.569-0.046
			C55.972,60.539,55.972,68.88,55.972,68.88z"/>
		<path style="fill:#004237;" d="M70.756,74.09c1.846,0,5.56-0.981,5.56-6.728c0-4.767-2.897-7.266-6.144-7.266
			c-3.434,0-5.911,2.149-5.911,6.471C64.261,71.193,67.042,74.09,70.756,74.09 M70.29,59.35c4.624,0,8.129,2.826,8.129,7.451
			c0,4.438-3.294,8.107-8.246,8.107c-5.631,0-8.036-4.228-8.036-7.802C62.136,63.904,64.612,59.35,70.29,59.35"/>
		<path style="fill:#004237;" d="M11.722,88.977c0,1.895,0,3.444,0.093,4.252c0.07,0.578,0.162,0.948,0.785,1.039
			c0.277,0.047,0.74,0.093,0.924,0.093c0.139,0,0.163,0.093,0.163,0.162c0,0.092-0.093,0.161-0.324,0.161
			c-1.11,0-2.403-0.069-2.518-0.069c-0.093,0-1.501,0.069-2.103,0.069c-0.23,0-0.323-0.045-0.323-0.161
			c0-0.07,0.046-0.14,0.162-0.14c0.185,0,0.416-0.045,0.6-0.093c0.415-0.093,0.531-0.484,0.601-1.062
			c0.094-0.808,0.094-2.356,0.094-4.252v-8.248L6.94,80.775c-1.27,0.024-1.755,0.162-2.055,0.624
			c-0.231,0.348-0.254,0.486-0.323,0.623c-0.046,0.163-0.116,0.185-0.207,0.185c-0.048,0-0.139-0.046-0.139-0.161
			c0-0.209,0.416-1.964,0.439-2.127c0.046-0.116,0.138-0.369,0.208-0.369c0.139,0,0.346,0.162,0.902,0.23
			c0.576,0.07,1.362,0.094,1.593,0.094h7.671c0.669,0,1.131-0.046,1.455-0.094c0.299-0.045,0.485-0.091,0.577-0.091
			c0.093,0,0.093,0.114,0.093,0.23c0,0.601-0.07,2.011-0.07,2.241c0,0.162-0.093,0.254-0.184,0.254c-0.093,0-0.14-0.07-0.162-0.347
			l-0.023-0.207c-0.069-0.603-0.508-1.039-2.449-1.087l-2.542-0.047v8.251H11.722z"/>
		<path style="fill:#004237;" d="M26.343,94.13c1.825,0,5.498-0.971,5.498-6.653c0-4.715-2.864-7.184-6.075-7.184
			c-3.396,0-5.845,2.125-5.845,6.398C19.92,91.264,22.67,94.13,26.343,94.13 M25.881,79.551c4.574,0,8.039,2.795,8.039,7.369
			c0,4.39-3.258,8.018-8.155,8.018c-5.569,0-7.947-4.182-7.947-7.717C17.818,84.056,20.267,79.551,25.881,79.551"/>
		<path style="fill:#004237;" d="M51.439,92.142c0.07,0.693,0.208,1.756,1.04,2.033c0.577,0.185,1.109,0.185,1.317,0.185
			c0.092,0,0.161,0.047,0.161,0.139c0,0.114-0.184,0.184-0.416,0.184c-0.462,0-2.725-0.045-3.465-0.115
			c-0.485-0.045-0.577-0.114-0.577-0.208c0-0.069,0.046-0.138,0.139-0.161c0.115-0.024,0.139-0.324,0.092-0.694l-0.971-9.934h-0.045
			l-4.898,10.027c-0.415,0.855-0.531,1.039-0.716,1.039c-0.184,0-0.3-0.184-0.693-0.901c-0.532-0.97-1.871-3.489-2.38-4.551
			c-0.599-1.248-2.241-4.552-2.588-5.36h-0.092l-0.785,8.871c-0.023,0.299-0.023,0.671-0.023,0.995c0,0.298,0.184,0.484,0.485,0.554
			c0.347,0.093,0.647,0.115,0.786,0.115c0.069,0,0.161,0.069,0.161,0.139c0,0.139-0.137,0.184-0.369,0.184
			c-0.763,0-1.733-0.07-1.894-0.07c-0.185,0-1.155,0.07-1.709,0.07c-0.209,0-0.347-0.045-0.347-0.184
			c0-0.07,0.093-0.139,0.207-0.139c0.162,0,0.301-0.023,0.602-0.069c0.669-0.116,0.692-0.832,0.785-1.571l1.478-12.823
			c0.023-0.208,0.115-0.346,0.231-0.346c0.139,0,0.3,0.069,0.416,0.3l6.145,12.199l5.915-12.175
			c0.092-0.186,0.184-0.324,0.323-0.324c0.139,0,0.255,0.162,0.3,0.533L51.439,92.142z"/>
		<path style="fill:#004237;" d="M64.964,76.732c0.116,0.207,0,0.278-0.091,0.278c-0.07,0-0.3-0.048-0.693,0
			c-1.133,0.116-2.75,0.647-3.513,0.97c-0.161,0.068-0.299,0.115-0.346,0.115c-0.046,0-0.115-0.047-0.115-0.138
			c0-0.071,0.048-0.117,0.162-0.186c0.832-0.577,2.981-1.871,3.142-1.964c0.392-0.231,0.531-0.299,0.647-0.299
			c0.069,0,0.115,0.045,0.231,0.208C64.549,75.947,64.712,76.271,64.964,76.732 M63.163,88.399c0.093,0,0.093-0.046,0.071-0.139
			l-2.01-5.381c-0.115-0.3-0.231-0.3-0.347,0l-1.894,5.381c-0.023,0.093,0,0.139,0.069,0.139H63.163z M60.9,80.221
			c0.254-0.647,0.346-0.762,0.485-0.762c0.208,0,0.278,0.278,0.485,0.717c0.369,0.832,3.627,8.941,4.874,11.921
			c0.739,1.755,1.294,2.009,1.732,2.149c0.302,0.093,0.601,0.115,0.809,0.115c0.116,0,0.254,0.046,0.254,0.162
			c0,0.114-0.231,0.161-0.463,0.161c-0.299,0-1.802,0-3.21-0.046c-0.393-0.023-0.715-0.023-0.715-0.139
			c0-0.092,0.045-0.092,0.138-0.138c0.116-0.046,0.323-0.209,0.184-0.532l-1.825-4.505c-0.046-0.093-0.069-0.116-0.183-0.116h-4.691
			c-0.093,0-0.162,0.047-0.208,0.162l-1.155,3.142c-0.184,0.485-0.299,0.97-0.299,1.316c0,0.394,0.345,0.532,0.692,0.532h0.184
			c0.162,0,0.209,0.07,0.209,0.162c0,0.114-0.116,0.161-0.301,0.161c-0.485,0-1.593-0.069-1.824-0.069
			c-0.209,0-1.226,0.069-2.057,0.069c-0.255,0-0.392-0.046-0.392-0.161c0-0.093,0.092-0.162,0.185-0.162
			c0.139,0,0.439-0.023,0.6-0.046c0.924-0.116,1.317-0.81,1.709-1.802L60.9,80.221z"/>
		<path style="fill:#004237;" d="M69.998,94.406c-0.277-0.138-0.299-0.208-0.299-0.739c0-0.971,0.092-1.756,0.115-2.079
			c0-0.208,0.047-0.323,0.162-0.323c0.116,0,0.186,0.069,0.186,0.23c0,0.163,0,0.438,0.069,0.717c0.323,1.431,1.849,1.94,3.212,1.94
			c2.009,0,3.049-1.132,3.049-2.611c0-1.41-0.763-2.079-2.565-3.418l-0.924-0.694c-2.195-1.64-2.912-2.84-2.912-4.204
			c0-2.311,1.825-3.696,4.505-3.696c0.808,0,1.617,0.116,2.102,0.23c0.393,0.093,0.555,0.093,0.717,0.093
			c0.161,0,0.208,0.024,0.208,0.138c0,0.093-0.092,0.739-0.092,2.08c0,0.3-0.024,0.439-0.162,0.439
			c-0.139,0-0.162-0.093-0.186-0.255c-0.023-0.23-0.184-0.762-0.301-0.97c-0.139-0.231-0.808-0.97-2.632-0.97
			c-1.48,0-2.703,0.739-2.703,2.125c0,1.248,0.624,1.964,2.633,3.328l0.578,0.392c2.472,1.686,3.327,3.049,3.327,4.736
			c0,1.155-0.439,2.402-1.894,3.351c-0.855,0.554-2.126,0.692-3.235,0.692C72.008,94.938,70.831,94.8,69.998,94.406"/>
		<path style="fill:#004237;" d="M79.634,60.311h0.317c0.137,0,0.23,0.011,0.28,0.031c0.051,0.02,0.09,0.049,0.118,0.09
			s0.042,0.086,0.042,0.138c0,0.079-0.028,0.143-0.087,0.192c-0.059,0.047-0.17,0.071-0.331,0.071h-0.339V60.311z M79.634,61.805
			v-0.733h0.164c0.098,0,0.173,0.019,0.223,0.059c0.074,0.053,0.171,0.188,0.292,0.402l0.152,0.272h0.341l-0.211-0.338
			c-0.101-0.16-0.185-0.275-0.255-0.343c-0.037-0.035-0.086-0.067-0.147-0.092c0.149-0.011,0.269-0.063,0.358-0.158
			c0.09-0.093,0.135-0.203,0.135-0.33c0-0.088-0.028-0.173-0.08-0.253c-0.055-0.079-0.126-0.135-0.217-0.166
			c-0.091-0.033-0.238-0.048-0.441-0.048h-0.593v1.728C79.355,61.805,79.634,61.805,79.634,61.805z M80.717,59.751
			c0.214,0.116,0.381,0.282,0.501,0.496c0.119,0.215,0.18,0.438,0.18,0.671c0,0.231-0.06,0.453-0.177,0.665
			c-0.118,0.213-0.283,0.377-0.497,0.497c-0.211,0.118-0.85,0.177-0.666,0.177c0.232,0-0.453-0.059-0.666-0.177
			c-0.213-0.12-0.378-0.284-0.496-0.497c-0.119-0.211-0.178-0.433-0.178-0.665c0-0.233,0.06-0.456,0.181-0.671
			c0.12-0.215,0.288-0.38,0.501-0.496c0.214-0.116,0.433-0.174,0.658-0.174C80.283,59.577,80.503,59.635,80.717,59.751
			 M79.27,59.519c-0.256,0.138-0.457,0.336-0.6,0.593c-0.145,0.258-0.216,0.527-0.216,0.806c0,0.276,0.071,0.543,0.213,0.798
			c0.141,0.256,0.34,0.454,0.595,0.594c0.253,0.143,0.521,0.213,0.798,0.213c0.278,0,0.545-0.07,0.8-0.213
			c0.254-0.14,0.452-0.338,0.593-0.594c0.142-0.255,0.212-0.521,0.212-0.798c0-0.279-0.071-0.548-0.215-0.806
			c-0.143-0.257-0.343-0.455-0.6-0.593c-0.256-0.138-0.52-0.207-0.789-0.207C79.789,59.311,79.527,59.381,79.27,59.519"/>
	</g>
	<g>
		<path style="fill:#004237;" d="M37.843,34.087l-0.102,0.094c0,0,0.061,0.134,0.082,0.142c0.02,0.008,0.837,0.556,0.837,0.556
			l0.026-0.117l0.105,0.061c0,0,0.024-0.179,0.024-0.215c0-0.037-0.232-0.233-0.273-0.298
			C38.502,34.246,37.843,34.087,37.843,34.087"/>
		<path style="fill:#004237;" d="M23.396,24.065c0,10.162,8.237,18.4,18.4,18.4c10.162,0,18.4-8.239,18.4-18.4
			c0-10.163-8.239-18.4-18.4-18.4C31.634,5.665,23.396,13.902,23.396,24.065 M22.249,24.065c0-10.796,8.752-19.547,19.547-19.547
			c10.796,0,19.548,8.751,19.548,19.547s-8.752,19.547-19.548,19.547S22.249,34.861,22.249,24.065"/>
		<path style="fill:#004237;" d="M24.682,24.065c0,9.453,7.662,17.115,17.115,17.115c9.451,0,17.114-7.662,17.114-17.115
			c0-9.452-7.662-17.115-17.114-17.115C32.344,6.95,24.682,14.613,24.682,24.065 M24.158,24.065c0-9.741,7.896-17.639,17.638-17.639
			c9.741,0,17.637,7.898,17.637,17.639s-7.896,17.639-17.637,17.639C32.054,41.704,24.158,33.806,24.158,24.065"/>
		<path style="fill:#004237;" d="M39.375,34.833c0.064-0.058,0.087-0.131,0.092-0.163c0.006-0.043-0.009-0.088,0.007-0.13
			c-0.05-0.02-0.081-0.061-0.194-0.006C39.3,34.619,39.301,34.764,39.375,34.833 M49.205,29.327c0.17-0.04,0.23-0.19,0.23-0.356
			c0-0.059-0.028-0.119-0.022-0.179L49.205,29.327z M37.606,29.383l0.109,0.085l0.315,0.062c0.035,0.007,0.093-0.061,0.046-0.178
			l-0.204-0.124L37.7,29.213C37.642,29.228,37.643,29.252,37.606,29.383 M37.252,31.069c0,0.168,1.017,0.388,1.25,0.388
			c0.236,0,0.464-0.085,0.7-0.085c0.045,0,0.09-0.001,0.134,0.016c0.062-0.112,0.166-0.368,0.166-0.497v-0.217
			c0-0.298-0.257-0.588-0.402-0.838l-0.268-0.148c-0.302,0-0.59,0.116-0.887,0.116c-0.447,0-0.902-0.233-1.305-0.233
			c-0.041,0-0.071,0.006-0.134,0.094c0,0.292,1.337,0.556,1.337,0.668c0,0.069-0.136,0.155-0.197,0.155
			c-0.158,0-0.648-0.176-0.809-0.155c0,0.051,0.116,0.175,0.157,0.201c0.265,0.167,0.455,0.223,0.763,0.303
			c0.057,0.015,0.29,0.211,0.196,0.319C37.732,31.154,37.505,31.115,37.252,31.069 M38.894,32.016l0.103-0.015l0.165,0.008
			c0.02,0,0.06-0.023-0.009-0.133l-0.125-0.007l-0.134,0.023C38.894,31.892,38.894,32.016,38.894,32.016z M50.108,32.719
			c0.461-0.373,0.896-0.647,1.076-1.219l-0.966,0.993C50.191,32.522,50.196,32.597,50.108,32.719 M37.855,33.773l-0.067-1.432
			c-0.073-0.005-0.143-0.093-0.143-0.209c0.059-0.077,0.171-0.123,0.268-0.123c0.193,0,0.374,0.085,0.644,0.077l-0.023-0.178
			c-0.21,0.008-0.42-0.039-0.629-0.039h-0.196c-0.123,0-0.315,0.02-0.315,0.178C37.393,32.69,37.68,33.144,37.855,33.773
			 M39.838,29.445l0.142-0.023c-0.046-0.247-0.133-0.461-0.284-0.668c-0.063-0.085-0.146-0.158-0.212-0.24
			c-0.042,0.195,0.048,0.358-0.086,0.535L39.838,29.445z M41.135,17.424l0.063-0.024c0.045-0.029,0.109-0.075,0.134-0.124
			l0.008-0.14l-0.142,0.094L41.135,17.424z M41.732,18.154l0.063-0.062c0.098-0.138,0.125-0.332,0.118-0.474l-0.197,0.047
			c-0.049,0.053-0.078,0.13-0.078,0.202C41.638,17.92,41.695,18.12,41.732,18.154 M46.929,18.907l0.18-0.031l0.086-0.17
			c0-0.025-0.065-0.174-0.086-0.202l-0.205,0.023c0.013,0.01,0.095,0.012,0.205,0.124c-0.027,0.045-0.054,0.091-0.086,0.132
			C47.001,18.81,46.962,18.84,46.929,18.907 M45.921,19.249l0.692-0.582c-0.247,0.022-0.33,0.077-0.503,0.248
			c-0.06,0.059-0.132,0.109-0.19,0.171L45.921,19.249L45.921,19.249z M46.268,19.583l0.613-0.334L46.73,19.27
			C46.557,19.318,46.479,19.414,46.268,19.583 M43.658,18.472c-0.037,0.032-0.102,0.146-0.102,0.195c0,0.044,0.197,0.11,0.197,0.325
			c0,0.206-0.102,0.396-0.079,0.676c0.138,0.027,0.22-0.505,0.22-0.574v-0.148C43.894,18.825,43.832,18.533,43.658,18.472
			 M45.89,20.018l0.11-0.07c0-0.055-0.047-0.116-0.054-0.28c-0.013,0.005-0.083,0.081-0.126,0.156
			C45.82,19.842,45.842,19.94,45.89,20.018 M33.662,21.805l0.698-0.467c0.061-0.031,0.088-0.024,0.086-0.163
			c-0.023,0.01-0.059,0.018-0.143,0.085L33.662,21.805z M37.425,22.798c0.291-0.105,0.518-0.194,0.834-0.194
			c0.173,0,0.381,0.064,0.543,0.008c0.493-0.173,1.213-0.492,2.246-0.544c-0.095-0.07-0.936-0.14-1.051-0.14
			C39.053,21.928,38.178,22.237,37.425,22.798 M36.804,22.836c-0.052,0-0.177,0.013-0.338,0.148
			c-0.153,0.114-0.235,0.125-0.338,0.296c-0.02,0.033-0.046,0.082,0,0.163c0.082,0,0.113-0.094,0.249-0.217
			c0.158,0,0.24-0.202,0.317-0.249c0.08-0.047,0.134-0.026,0.213-0.054c0.031,0.017,0.204-0.008,0.22-0.038
			C37.081,22.862,36.86,22.836,36.804,22.836 M33.227,22.542c0.284-0.013,1.074-0.492,1.203-0.87
			C34.028,21.963,33.606,22.217,33.227,22.542 M40.239,25.578l0.172-0.14c-0.014-0.04-0.003-0.081-0.086-0.147
			c-0.041,0.015-0.084,0.001-0.126,0.006c-0.039,0.006-0.107,0.035-0.091,0.14L40.239,25.578z M39.256,26.673l0.086-0.03
			c0.023-0.066,0.052-0.135,0.063-0.203c0.032-0.184-0.003-0.419,0.118-0.575c-0.135-0.199-0.123-0.093-0.181-0.139
			c-0.032,0.072-0.062,0.155-0.062,0.233c0,0.109,0.023,0.218,0.023,0.326v0.163C39.303,26.52,39.283,26.606,39.256,26.673
			 M45.435,26.906c0.196-0.145,0.545-0.325,0.425-0.575c-0.016,0.02-0.123,0.072-0.134,0.085c-0.048,0.055-0.084,0.133-0.125,0.194
			C45.556,26.676,45.491,26.734,45.435,26.906 M51.328,27.358c0.058-0.179-0.143-0.371-0.21-0.461
			c-0.006,0.013-0.024,0.058-0.024,0.171c0,0.022,0.021,0.094,0.079,0.207C51.236,27.295,51.272,27.33,51.328,27.358 M40.726,27.333
			c0.182-0.158,0.281-0.196,0.322-0.451c-0.009-0.001-0.101-0.059-0.18-0.093l0.291-0.87l-0.189,0.094L40.726,27.333z
			 M43.383,27.396c0.031-0.01,0.067-0.059,0.22-0.156c0.015-0.042,0.031-0.125,0.031-0.171c0-0.083-0.014-0.167-0.031-0.249
			L43.383,27.396z M36.945,27.682c0.054-0.073,0.135-0.11,0.125-0.224l-0.125,0.101V27.682z M41.795,27.768h0.086l0.409-1.033
			l-0.456,0.451c-0.042,0.042-0.094,0.173-0.094,0.233v0.155C41.741,27.628,41.762,27.724,41.795,27.768 M42.488,27.784h0.086
			c0.096-0.142,0.146-0.277,0.157-0.45c0.005-0.078-0.009-0.157,0.008-0.234c-0.045,0.041-0.096,0.096-0.126,0.148
			C42.559,27.341,42.488,27.574,42.488,27.784 M39.838,27.845c0.141,0,0.136-0.231,0.158-0.287c-0.089-0.093-0.15-0.228-0.15-0.358
			c0-0.259,0.157-0.507,0.157-0.738c0-0.102-0.004-0.206-0.165-0.256V27.845z M40.475,28.343l0.062-0.016l0.165-0.645l-0.126-0.124
			c-0.09,0.086-0.15,0.256-0.15,0.381v0.147C40.427,28.17,40.45,28.263,40.475,28.343 M44.428,28.428
			c0.215-0.045,0.446-0.104,0.622-0.21c0.337-0.203,0.533-0.947,0.919-0.947l0.149,0.062l-0.197,0.512
			c0.553-0.109,0.942-0.901,1.298-1.297c-0.242-0.012-0.53-0.016-0.769,0c-0.143,0.11-0.287,0.197-0.497,0.435
			c-0.316,0.271-0.714,0.451-0.903,0.846C44.835,27.883,44.421,28.099,44.428,28.428 M41.135,28.839l0.205-1.196l-0.142,0.062
			l-0.291,1.057C40.915,28.776,41.103,28.831,41.135,28.839 M51.27,29.492c0.096-0.136,0.176-0.363,0.176-0.363
			c0.006-0.063,0.012-0.248,0.012-0.313v-0.295c0-0.214-0.058-0.417-0.142-0.613L51.27,29.492z M38.966,29.383l0.126-0.085
			c-0.119-0.13-0.37-0.405-0.37-0.582c0-0.51-0.025-1.031-0.063-1.554c-0.005-0.074,0.126-0.139,0.158-0.201
			c0.012-0.025,0.07-0.638,0.07-0.699c0-0.365-0.019-0.569-0.291-0.863c-0.051,0.139-0.009,0.652-0.213,0.652
			c-0.067,0-0.511-0.38-0.511-0.404c0-0.628,0.236-1.275,0.236-1.902c0-0.247-0.3-0.411-0.48-0.521
			c-0.043,0.049-0.062,0.207-0.062,0.272c0,0.435,0.267,0.25,0.267,0.381c0,0.084-0.195,0.058-0.243,0.069
			c-0.069,0.018-0.06,0.17-0.189,0.17c-0.022,0-0.15-0.057-0.15-0.014c0,0.069,0.102,0.137,0.095,0.295
			c-0.174,0-0.617-0.582-0.818-0.637l-0.378-0.101c-0.087-0.024-0.134,0.11-0.11,0.225c0.29,0.214,0.485,0.377,0.652,0.707
			c0.049,0.096,0.059,0.574,0.174,0.816c0.229,0.483,0.352,0.29,0.55,0.551c0.143,0.188,0.09,0.446,0.165,0.652l0.432,0.357
			l0.314-0.699l0.181,0.032l0.047,0.231c-0.227,0.514-0.503,1.073-0.503,1.647C38.054,28.939,38.37,29.116,38.966,29.383
			 M43.234,18.426h0.11c0-0.16,0.11-0.19,0.11-0.318c0-0.11-0.086-0.228,0.063-0.389c0.263,0.221,0.094,0.251,0.204,0.467
			l0.134-0.062c-0.1,0,0.033-0.22,0.039-0.233c0.262,0.045,0.472,0.404,0.763,0.404c0.289,0,0.39-0.06,0.683,0.085
			c0.014-0.081,0.024-0.166,0.024-0.248c0-0.276-0.115-0.541-0.197-0.8c-0.076-0.243-0.102-0.484-0.227-0.714
			c-0.347-0.641-1.341-0.947-2.029-0.947c-0.893,0-1.973,0.443-2.444,1.212c0.28,0,0.767-0.151,1.101-0.179
			c0.176,0.074,0.248,0.334,0.495,0.318c-0.009-0.039,0.066-0.155,0.086-0.194l0.165,0.023c-0.029,0.441-0.013,0.866-0.088,1.305
			c0.072,0.018,0.196-0.116,0.283-0.116c0.192,0,0.168,0.228,0.259,0.302c0.059,0.049,0.145,0.011,0.213,0.023
			C43.074,18.381,43.088,18.488,43.234,18.426 M51.739,26.673l0.079-0.03c-0.262-0.688-0.985-1.169-1.133-1.887
			c-0.347-0.088-0.691-0.403-0.691-0.77c0-0.097-0.003-0.178,0.118-0.178c0.476,0,1.288,1.556,1.352,1.646
			c-0.03-0.451-0.213-0.877-0.213-1.327c0-0.222,0.136-0.469,0.299-0.615c-0.216-0.492-0.251-0.06-0.251-1.009
			c-0.511-0.587-0.513-1.068-1.298-1.475c-0.079-0.042-0.05-0.219-0.117-0.264l-1.369-0.233c0.083-0.279,1.203-0.277,1.281-0.286
			l-0.526-0.521c-0.274,0.28-0.432,0.555-0.841,0.668c-0.014,0.061-0.114,0.193-0.104,0.248c-0.66,0.121-1.334,0.226-1.956,0.489
			c-1.256,0.528-2.584,1.685-4.032,1.685c-0.098,0-0.259-0.02-0.189-0.248c1.904-0.15,5.722-2.764,6.075-2.764
			c0.165,0,0.274,0.138,0.48,0.232l-0.126-0.14c-0.101-0.503,0.582-0.399,0.575-0.838l-0.747-0.583l-0.283-0.753
			c-0.082-0.022-0.174-0.054-0.26-0.054c-0.105,0-0.222,0.04-0.385,0.132c0.022,0.11,0.235,0.151,0.235,0.272
			c0,0.589-0.739,2.137-1.327,2.461l-1.619,0.894c-0.546,0.301-2,0.955-2.594,0.955c-0.049,0-0.283,0.014-0.283-0.093
			c0-0.072,0.063-0.099,0.102-0.148c1.358-0.235,2.546-0.886,3.703-1.669c0-0.27-0.207-0.723-0.511-0.723
			c-0.296,0-0.511,0.035-0.511-0.364c0-0.099,0.009-0.171,0.126-0.171c0.09,0,0.393,0.17,0.393-0.156
			c0-0.221,0.149-0.359,0.079-0.521l-0.167,0.003c-0.159-0.02-0.328-0.065-0.514,0.013l-0.034,0.248
			c-0.031,0.168-0.157,0.128-0.157,0.334c0,0.137,0.081,0.276,0.078,0.489l-0.228,0.101c-0.134,0.316-0.187,0.743-0.605,0.807
			l-0.08-0.139c-0.003-0.152,0.284-0.164,0.236-0.373c-0.085,0-0.328,0.086-0.385,0.039c-0.171-0.145-0.121-0.773-0.268-0.831
			c-0.536,0.016-0.353-0.319-0.684-0.226c-0.201-0.036-0.111-0.388-0.4-0.388c-0.71,0-0.739-0.521-1.399-0.521
			c-0.157,0-0.332,0.007-0.479,0.062c-0.024,0.07-0.031,0.144-0.031,0.217c0,0.265,0.141,0.531,0.141,0.715
			c0,0.083-0.082,0.162,0.063,0.162c0.239,0,0.872-0.073,0.872,0.334c0,0.138-0.214,0.219-0.275,0.304
			c-0.043,0.06-0.031,0.357-0.134,0.357c-0.141,0-0.238-0.444-0.463-0.582l0.039,1.141c0.146,0,0.156-0.209,0.518-0.272
			c0-0.03-0.022-0.256,0.024-0.256c0.013,0,0.244,0.43,0.165,0.567c-0.132,0-0.298-0.181-0.298,0.101
			c0,0.094,0.097,0.124,0.181,0.124c0.065,0,0.464-0.107,0.464,0.023c0,0.267-0.315,0.062-0.315,0.233
			c0,0.261,0.252,0.056,0.252,0.334c0,0.235-0.067,0.513,0.416,0.49c0,0.249-0.22,0.245-0.439,0.341v0.139l0.18,0.039
			c-0.066,0.15-0.01,0.35,0.189,0.35c1.897,0,3.824-0.738,5.401-1.755c0.249,0.058,0.474-0.054,0.714-0.054
			c0.164,0,0.327,0.028,0.441,0.156l0.055,0.186l-0.133,0.109c0.133,0.113,0.314,0.163,0.487,0.163c0.459,0,0.872-0.326,1.336-0.326
			c0.739,0,0.862,1.167,1.014,1.67c0.043,0.144,0.314,0.367,0.314,0.434c0,0.071-0.29,0.188-0.354,0.188
			c-0.367,0-0.377-0.784-0.495-0.847h-0.228c-0.235-0.184-0.902-0.242-0.927-0.583c-0.69-0.229-1.358-0.302-2.083-0.302
			c-1.762,0-1.725,0.862-2.39,0.862c-0.114,0-0.513-0.048-0.581,0.046c-0.067,0.093,0.018,0.25-0.079,0.327
			c-0.328-0.078-0.719-0.097-0.99,0.147H41.78c0.073,0.704,0.414,0.455,0.809,0.807c-0.077,0.104-0.435,0.311-0.55,0.311
			c-0.612,0-0.459-1.125-1.171-1.118l0.613,1.437l-0.15,0.008c-0.178,0-0.496-0.471-0.629-0.614h-0.126l0.409,1.041l1.022,0.684
			c0,0.403,0.705,0.364,1.021,0.364c0.888,0,1.734-0.435,2.634-0.435c0.243,0,0.458,0.117,0.691,0.117
			c0.592,0,1.106-0.419,1.682-0.419c0.213,0,0.363-0.094,0.566-0.094c0.576,0,1.022,0.576,1.635,0.576
			c0.062,0,0.137-0.027,0.197-0.039c0.199,0.118,0.198,0.435,0.314,0.435C51.281,26.495,51.156,26.293,51.739,26.673 M29.227,25.41
			l0.183,0.017c0.19-0.127,1.955-1.426,2.01-1.465c0.153-0.111,0.379-0.237,0.4-0.388L29.227,25.41z M51.429,28.1
			c0.545-1.268,0.952-2.617,0.952-4.1c0-5.845-4.797-10.511-10.583-10.511c-5.367,0-9.793,4.037-10.406,9.239
			c0.236-0.222,0.459-0.43,0.671-0.623c0.821-4.61,4.893-8.112,9.795-8.112c5.492,0,9.945,4.398,9.945,9.825
			c0,0.651-0.065,1.288-0.186,1.903l0.514,0.884C52.061,27.753,51.747,28.17,51.429,28.1 M41.985,35.551
			c0.147-0.002,0.291-0.007,0.436-0.016c0.192-0.155,0.301-0.356,0.537-0.546l-0.215,0.016
			C42.568,35.202,42.186,35.352,41.985,35.551 M40.253,35.443c0.16,0.768,0.681,1.352,0.824,0.086
			c0.099-0.255,0.164-0.498,0.365-0.741c-0.114-0.134-0.338-0.058-0.367-0.162c0.142-0.326-0.054-0.568,0.015-0.984
			c0.18,0,0.658,0.895,0.658,1.022c0,0.145-0.034,0.275-0.107,0.411c0.208,0.144-0.1,0.228-0.084,0.373
			c0.263,0,0.436-0.684,0.612-0.811c0.434-0.315,1.245-0.236,1.753-0.471c-0.057-0.046,0.023-0.096,0-0.188l-0.269,0.048
			c0,0.132-0.107,0.243-0.359,0.243c-0.129,0-0.183-0.097-0.298-0.097c-0.117,0-0.291,0.13-0.567,0.027
			c0.031-0.061,0.09-0.09,0.23-0.2c-0.189,0-0.404,0.065-0.559,0.065c-0.201,0-0.073-0.265-0.337-0.265
			c-0.526,0-0.423-0.299-0.818-0.438l-0.062-0.167c-0.017-0.048,0.138-0.091,0.123-0.162c-0.052,0-0.128,0.086-0.176,0.086
			c-0.162,0-0.154-0.218-0.154-0.297c0-0.563-0.09-1.046-0.122-1.617c0.042-0.005,0.077-0.027,0.122-0.027
			c0.49,0-0.08,1.233,0.666,1.656c0.009,0.401,0.588,0.652,0.904,0.946c0.307-0.015,0.458-0.195,0.628-0.346
			c0.32-0.097,0.797-0.194,1.148-0.194c0.175,0,0.339,0.013,0.512,0.038c-0.315,0.312-0.934,0.12-1.37,0.389
			c0.674-0.141,1.56-0.308,2.258-0.308c0.471,0,1.003,0.032,1.538-0.2c-0.231-0.274-0.986-0.468-1.409-0.568
			c0.079-0.019,0.155-0.032,0.238-0.032c0.931,0,1.865,0.252,2.802,0.276c0.038,0.001,0.26-0.126,0.26-0.158
			c0-0.472,0.751-1.263,1.226-1.719l0.145,0.059c0.136-0.079,0.498-0.33,0.498-0.459c0-0.063-0.284-0.027-0.307-0.059
			c-0.019-0.066-0.038-0.138-0.038-0.205c0-0.578,0.551-1.005,0.551-1.52c0-0.086-0.027-0.166-0.061-0.25
			c-0.596-0.28-0.407-0.953-0.85-1.33l-0.161,0.023c-0.101,0.223-0.138,0.468-0.138,0.703c0,0.759,0.277,1.739-0.716,2.25
			c-0.626,0.323-0.586,0.367-1.289,0.367c-1.096,0-2.216-0.294-3.146-0.687l0.042-0.139c0.074,0.026,0.169-0.019,0.247,0.01
			c0.114,0.04,0.078,0.097,0.26,0.097c0.067,0,0.151,0.003,0.215-0.01c0.15,0.051,1.039,0.382,1.148,0.345
			c0.047,0.04,0.226,0.158,0.298,0.158c0.208,0,0.724-0.075,0.973-0.098l0.221,0.14c1.038,0,0.689-1.741,1.256-1.741
			c0.05,0,0.169,0.081,0.206,0.027c-0.063-0.127-0.092-0.261-0.092-0.395c0-0.269,0.084-0.533,0.084-0.801
			c0-0.126-0.017-0.249-0.054-0.373c-0.243-0.109-0.525-0.248-0.827-0.248c-0.089,0-0.175,0.004-0.26,0.026
			c-0.918,0.669-1.536,1.51-2.879,1.807c0.092,0.075,1.702,0.179,1.938,0.2c0.019,0.134,0.227,0.194,0.39,0.194
			c0.268,0,0.56,0.402,0.56,0.578c0,0.082-0.086,0.147-0.215,0.147c-0.563,0-0.137-0.513-1.325-0.513
			c-0.358,0-0.703,0.03-1.055,0.069c-0.027,0.068-0.139,0.047-0.123,0.103c-0.312-0.067-0.689-0.281-1.009-0.281
			c-0.119,0-0.232,0.007-0.337,0.048c0.014,0.1,0.12,0.186,0.115,0.362c-0.642-0.135-1.238-0.514-1.929-0.514l-0.185,0.043
			c0,0.199,0.725,0.399,0.889,0.471v0.13c-0.073,0.03-0.137,0.054-0.298,0.054c-0.175-0.07-1.646-0.643-1.73-0.643
			c-0.087,0-0.195,0.007-0.291,0.14c0.043,0.057,0.149,0.029,0.221,0.043c0.644,0.126,0.769,0.555,1.103,0.908
			c0.262,0.279,0.675,0.45,1.041,0.666c0.268,0.716,1.18,1.044,1.883,1.514c-0.057,0.132,0.047,0.295-0.253,0.313
			c-0.347-0.099-1.545-0.504-1.545-0.822c0-0.074,0.108-0.117,0.19-0.14c-0.043-0.021-0.505-0.496-0.505-0.54
			c0-0.086-0.051-0.106-0.176-0.168c0.064,0.216-0.061,0.321-0.061,0.509c0,0.055,0.005,0.107-0.016,0.221
			c-0.569,0.051-0.312-0.334-0.475-0.449c-0.44-0.311-1.188-1.811-1.714-1.795c0,0.017,0.139,0.105,0.162,0.131
			c0.159,0.187,0.451,0.439,0.451,0.665c0,0.044-0.009,0.093-0.03,0.135c0.07,0.188,0.246,0.333,0.483,0.428l-0.092,0.124
			c-0.886,0-0.554-1.118-1.569-1.395c0.196,0.923-0.176,1.845-0.176,2.768C39.72,33.516,39.927,34.412,40.253,35.443 M34.606,32.547
			c1.08,1.015,2.68,1.855,4.123,2.251c-0.053-0.102-0.093-0.164-0.142-0.258c-0.078-0.033-0.639-0.199-0.698-0.243
			c0,0-0.279-0.473-0.436-0.837c-0.824-0.401-1.596-0.896-2.276-1.492l-0.433,0.474c0-0.006-0.05,0.043-0.096,0.081
			C34.648,32.525,34.608,32.547,34.606,32.547 M29.593,25.998c0.73,1.187,3.577,5.325,4.558,6.325l0.239,0.002
			c-0.373-0.257-0.663-0.603-0.939-0.961c-0.732-0.953-1.211-1.828-1.324-2.01C31.947,29.067,29.699,26.14,29.593,25.998
			 M31.244,27.299l0.111,0.219c0.08,0.101,0.157,0.205,0.229,0.312c0.866,1.283,1.599,2.729,2.633,3.891
			C33.141,30.138,32.215,28.13,31.244,27.299 M29.988,25.41c0,0,0.443,0.346,1.013,0.831c0.222,0.201,0.57,0.661,0.729,0.917
			c1.048,1.675,1.829,3.161,2.991,4.757h0.134c0.58-0.341,0.855-1.001,1.429-1.359c-0.068-0.208-0.109-0.441-0.109-0.66
			c0-0.674,0.308-1.04,0.92-1.313c-0.072-0.085-0.231-0.111-0.268-0.155c-0.103-0.128-0.022-0.406-0.227-0.427
			c-0.047-0.078-0.063-0.168-0.063-0.257c0-0.267,0.448-0.585,0.448-0.862c0-0.065-0.044-0.357-0.148-0.357
			c-0.563,0-0.81-1.291-0.81-1.693c0-0.139,0.033-0.28,0.102-0.403c-0.067-0.04-0.089-0.435-0.173-0.435
			c-0.139,0-0.178,0.141-0.267,0.172c-0.239,0.078-0.465,0.112-0.699,0.217c0.108-0.159,0.793-0.719,0.975-0.807l-0.088-1.041
			c-0.383-0.379-0.555-1.237-1.116-1.39c-0.051,1.243-0.347,1.348-1.533,1.809c0.751,1.054,1.332,2.19,2.013,3.285
			c0.483,0.774,1.075,1.467,1.423,2.321l-0.439-0.178c-0.481-1.366-2.305-4.067-3.223-5.266C32.983,24.07,29.988,25.41,29.988,25.41
			 M30.891,26.988L31,26.848c-0.258-0.284-0.677-0.565-0.988-0.85C30.283,26.351,30.593,26.667,30.891,26.988 M30.906,23.174
			c0.462-5.599,5.152-9.998,10.87-9.998c6.025,0,10.909,4.883,10.909,10.908c0,1.836-0.196,3.144-1.006,4.678
			c-0.046,0.341-0.074,1.261-0.074,1.623c0,0-0.035,0.634-0.499,1.797c-0.162,0.404-0.399,0.713-0.75,1.093
			c-0.63,0.682-1.18,0.88-2.179,1.267c-0.065,0.025-0.582,0.132-0.58,0.095c-0.043-0.038-0.262,0.015-0.262,0.015
			c-0.361,0.084-0.382,0.212-0.784,0.297c-0.372,0.079-0.806,0.036-1.233,0.144c-0.816,0.208-1.187,0.366-1.876,0.628
			c-0.311,0.118-0.753,0.356-1.046,0.486c-0.38,0.169-0.613,0.274-0.915,0.468c-0.182,0.118-0.619,0.312-0.993,0.312
			c-0.293,0-0.567-0.612-0.738-0.702c-0.766-0.401-1.412-1.8-1.481-2.009c-1.681-0.526-1.949-1.027-3.391-1.991
			c-0.015,0.028-0.109,0.107-0.168,0.16c-0.195,0.109-0.539,0.302-0.539,0.302l-2.421-3.19l-1.541-2.287l-1.451-2.354l1.071-0.809
			C30.172,23.767,30.601,23.466,30.906,23.174 M34.603,29.29c0.057,0.055,0.097,0.104,0.087,0.148
			c-0.039,0.062-0.275,0.155-0.275,0.155c-0.049,0.048-0.366,0.309-0.377,0.311l-0.181-0.023c-0.029-0.047-0.055-0.111-0.055-0.155
			c0-0.089,0.094-0.224,0.173-0.265l0.213-0.062c0.02-0.056,0.212-0.14,0.259-0.14L34.603,29.29z M34.737,29.236
			c-0.025-0.049-0.052-0.093-0.063-0.148c-0.031-0.088,0.181-0.295,0.181-0.295c0.15-0.048,0.251-0.154,0.385-0.233
			c0.023-0.014,0.235-0.27,0.259-0.265c0.035-0.053,0.233-0.116,0.299-0.116c0.061,0,0.137,0.027,0.15,0.093
			c0.001,0.091-0.112,0.203-0.181,0.248c-0.023-0.015-0.461,0.369-0.463,0.389c-0.067,0.085-0.116,0.158-0.22,0.209L34.737,29.236z
			 M34.422,27.784c0.045,0.052,0.056,0.073,0.008,0.21c-0.121,0.067-0.381,0.276-0.401,0.311c-0.219,0.039-0.291,0.366-0.417,0.389
			l-0.182,0.093c-0.055-0.018-0.121-0.047-0.141-0.016c-0.103,0.008-0.099-0.11-0.023-0.186c0.012-0.136,0.229-0.211,0.323-0.279
			c0.11-0.031,0.183-0.112,0.243-0.256C33.934,27.903,34.222,27.776,34.422,27.784 M34.533,27.426l0.054-0.069
			c0.086-0.077,0.151-0.102,0.197-0.148c0.058-0.058,0.214-0.186,0.251-0.232c0.099,0,0.2,0.015,0.204,0.123
			c-0.033,0.116-0.201,0.254-0.291,0.327c-0.164,0.095-0.175,0.248-0.251,0.279C34.635,27.681,34.584,27.542,34.533,27.426
			 M33.479,26.991l-0.078,0.039c-0.022,0-0.092-0.165-0.102-0.171c-0.018-0.034-0.015-0.038,0.047-0.147
			c0.027-0.018,0.174-0.156,0.174-0.156c0.044-0.025,0.1-0.035,0.212-0.132c0.054-0.039,0.118-0.071,0.173-0.109
			c0.018-0.049,0.217-0.295,0.252-0.288c0.057-0.056,0.123-0.107,0.18-0.163c0.01,0.015,0.078-0.025,0.194,0.034l0.058,0.153
			c-0.058,0.025-0.123,0.208-0.227,0.233c-0.025-0.008-0.212,0.061-0.252,0.139c-0.294,0.078-0.212,0.497-0.456,0.497
			C33.617,26.922,33.484,26.952,33.479,26.991 M33.267,27.039l0.023,0.069c-0.043,0.061-0.084,0.131-0.134,0.186
			c-0.153,0.172-0.505,0.416-0.637,0.396c-0.026-0.032-0.039-0.14-0.039-0.14c0.06-0.054,0.334-0.367,0.558-0.49
			C33.069,27.026,33.144,26.984,33.267,27.039 M32.795,26.013c-0.021,0-0.06-0.146-0.063-0.163
			c-0.052-0.028-0.055-0.048,0.008-0.155c0.008-0.006,0.214-0.148,0.243-0.148c0.066,0,0.162-0.139,0.238-0.189
			c0.004-0.021,0.192-0.045,0.156-0.127c0.01-0.043,0.155-0.225,0.18-0.219c0.057-0.07,0.147-0.137,0.173-0.163
			c0.063-0.012,0.068-0.029,0.165-0.008c0.012,0.031,0.036,0.054,0.082,0.164c-0.057,0.068-0.104,0.1-0.137,0.162
			c-0.025,0.01-0.479,0.469-0.479,0.49c0,0.08-0.155,0.113-0.231,0.132c-0.021,0.005-0.105,0.108-0.131,0.108
			C32.898,25.897,32.874,26.013,32.795,26.013 M32.567,26.083v0.069c-0.037,0.053-0.164,0.165-0.197,0.172
			c-0.088,0.044-0.104,0.11-0.15,0.155c-0.078,0.044-0.134,0.095-0.148,0.109c-0.013-0.014-0.087,0.023-0.157,0.062l-0.079-0.187
			c0.088-0.054,0.15-0.078,0.15-0.139c0.08-0.286,0.242-0.191,0.378-0.311C32.361,25.99,32.469,25.954,32.567,26.083 M34.651,24.562
			c-0.009-0.016-0.054-0.145,0.016-0.218c0.031-0.01,0.098-0.097,0.165-0.171c0,0,0.164,0.135,0.078,0.288
			C34.876,24.493,34.751,24.583,34.651,24.562 M35.53,22.899c0.033,0.02,0.027,0.242,0.024,0.241
			c-0.047,0.03-0.142,0.143-0.244,0.163c-0.022,0-0.168,0.075-0.157,0.132c-0.049,0.06-0.22,0.293-0.291,0.279l-0.173,0.117
			c-0.073,0.038-0.237,0.111-0.268,0.187c-0.153-0.044-0.125-0.142-0.078-0.304c0.062-0.061,0.252-0.269,0.425-0.302
			c0.046-0.04,0.087-0.065,0.125-0.117c0.056-0.076,0.128-0.292,0.212-0.319c0.014,0.038,0.225-0.148,0.259-0.148
			C35.411,22.828,35.532,22.887,35.53,22.899 M31.554,26.09c-0.073,0-0.119-0.13-0.126-0.186c0.026-0.06,0.08-0.102,0.141-0.217
			c0-0.024,0.094-0.138,0.102-0.132c0.119-0.043,0.172-0.022,0.275-0.117c0.016,0.006,0.024-0.091,0.024-0.132
			c0-0.148,0.319-0.132,0.486-0.078l-0.03,0.148c-0.031,0.087-0.135,0.057-0.19,0.171c0,0.059-0.284,0.234-0.385,0.311
			C31.766,25.926,31.672,25.984,31.554,26.09 M33.503,24.173c0.026,0.03,0.072,0.084,0.125,0.178
			c-0.058,0.173-0.197,0.179-0.299,0.273c0,0-0.184,0.201-0.259,0.201c-0.057,0.079-0.212,0.205-0.33,0.288
			c-0.077,0.026-0.095,0.005-0.141-0.046c-0.014-0.05-0.025-0.084,0.007-0.172l-0.007-0.123c0.041-0.1,0.227-0.133,0.321-0.133
			l0.181-0.132C33.101,24.507,33.405,24.241,33.503,24.173 M32.316,27.201c-0.1,0-0.071-0.108-0.079-0.279l0.079-0.14
			c0.023-0.169,0.314-0.124,0.393-0.241c0,0,0.17-0.337,0.307-0.373c0.074,0.005,0.151,0.093,0.236,0.232l-0.141,0.071
			c-0.019,0.011-0.09,0.172-0.22,0.256c-0.055-0.011-0.329,0.164-0.433,0.326C32.421,27.077,32.388,27.133,32.316,27.201
			 M34.273,25.539v0.07c-0.04,0.043-0.146,0.154-0.26,0.187c-0.037,0.027-0.055,0.076-0.173,0.155
			c-0.045,0.02-0.156,0.125-0.189,0.125l-0.109-0.172l0.047-0.155c0-0.148,0.299-0.102,0.368-0.256
			c0.016-0.124,0.099-0.107,0.252-0.078L34.273,25.539z M32.944,28.055l0.094-0.101c0.09-0.079,0.247-0.08,0.299-0.139l0.189-0.326
			c0.05-0.099,0.125-0.194,0.252-0.194c0.102,0,0.125,0.015,0.196,0.085c0.01,0.01,0.043,0.049,0.024,0.163
			c-0.045,0.058-0.153,0.123-0.213,0.162c-0.121,0.08-0.228,0.187-0.362,0.288c-0.098,0.072-0.19,0.17-0.33,0.272
			C33.032,28.265,33.034,28.229,32.944,28.055 M34.289,27.17c0-0.097-0.062-0.111,0.007-0.288c0.043-0.025,0.09-0.065,0.157-0.147
			c-0.009-0.094,0.245-0.233,0.331-0.24c0.107,0,0.115,0.107,0.18,0.155c-0.019,0.034-0.034,0.078-0.125,0.163
			c-0.086,0.067-0.2,0.129-0.283,0.194C34.501,27.05,34.46,27.113,34.289,27.17 M35.577,27.776v0.069
			c-0.051,0.085-0.112,0.172-0.173,0.218c-0.098,0.075-0.398,0.207-0.527,0.194c-0.022-0.023-0.031-0.077,0.023-0.179l0.032-0.187
			c0.149-0.056,0.314-0.088,0.496-0.256C35.471,27.636,35.512,27.789,35.577,27.776 M33.628,29.29l-0.031-0.116
			c0-0.175,0.188-0.248,0.37-0.405c0,0,0.287-0.183,0.291-0.201c0.01-0.043,0.106-0.273,0.157-0.273c0.105,0,0.135,0.09,0.197,0.163
			c0.031,0.079-0.376,0.617-0.582,0.645C34.012,29.084,33.754,29.336,33.628,29.29 M34.36,30.292
			c0.048-0.078,0.189-0.318,0.282-0.318c0.011,0,0.325-0.382,0.433-0.396c0.027,0.016,0.05,0.039,0.173,0.015
			c0.016,0.023,0.051,0.029,0.031,0.172c-0.043,0.087-0.189,0.264-0.267,0.318c0,0-0.374,0.351-0.645,0.427
			C34.361,30.461,34.324,30.411,34.36,30.292 M36.073,29.15h-0.079c-0.148,0.029-0.247,0.267-0.425,0.288
			c-0.033-0.071-0.039-0.099-0.007-0.241c0-0.033-0.037-0.102,0.063-0.163c0.053,0,0.382-0.294,0.378-0.302
			c0.118-0.016,0.246,0.094,0.259,0.155C36.261,29.02,36.128,29.12,36.073,29.15 M42.92,17.781c-0.164-0.08-0.273-0.018-0.432-0.062
			c-0.027-0.033-0.031-0.12-0.031-0.162c0-0.128,0.077-0.231,0.18-0.295l0.165,0.023l0.346,0.466L42.92,17.781z M44.908,24.709
			v-0.117c0.354-0.232,0.827-0.427,1.258-0.412l0.102-0.147c0.076,0.007,0.157-0.023,0.236-0.023c0.108,0,0.233,0.044,0.282,0.147
			c-0.039,0.078-0.09,0.067-0.235,0.108c-0.294,0.445-0.851,0.348-1.305,0.396C45.145,24.672,45.007,24.721,44.908,24.709
			 M43.131,24.242c-0.079,0-0.178-0.016-0.267-0.016c-0.064,0-0.13-0.034-0.126-0.109l2.845-1.18c0-0.073-0.07-0.119-0.07-0.187
			l0.187-0.046c0.293,0,0.515,0.152,0.787,0.21l0.047,0.163l-1.572,0.497C44.297,23.785,43.982,24.034,43.131,24.242 M45.151,25.834
			v-0.171c-0.068-0.053-0.146-0.093-0.235-0.093c-0.189,0-0.365,0.104-0.55,0.093c0.35-0.433,0.875-0.351,1.321-0.551
			c0.037-0.075,0.013-0.185,0.063-0.241l1.713-0.404c-0.095,0.172-0.191,0.272-0.354,0.388c-0.091-0.044-0.215-0.059-0.291-0.1
			L45.151,25.834z M46.904,24.157c0.011-0.119,0.117-0.195,0.126-0.232c-0.022-0.172-0.298-0.004-0.267-0.296
			c0.05,0.005,0.095-0.023,0.252-0.023c0.065,0,0.141,0.036,0.204,0.054l0.031,0.171c0.018,0.097,0.246,0.011,0.251,0.179
			c-0.104,0.169-0.253,0.14-0.431,0.14C47.015,24.149,46.959,24.161,46.904,24.157 M42.597,21.719
			c0.16-0.166,0.348-0.295,0.495-0.466c0.101-0.117,0.18-0.234,0.259-0.366c0.034-0.054,0.062-0.13,0.205-0.17
			c0,0.215-0.195,0.516-0.315,0.621C43.124,21.444,42.745,21.67,42.597,21.719"/>
		<path style="fill:#004237;" d="M29.534,33.355l0.02,0.058l-0.695,0.168l-1.001-1.667l0.058-0.036l0.049,0.081
			c0.054,0.092,0.122,0.138,0.206,0.142c0.047,0.001,0.132-0.035,0.255-0.108l1.389-0.835c0.134-0.08,0.209-0.146,0.225-0.196
			c0.022-0.069,0.008-0.144-0.041-0.226l-0.047-0.081l0.058-0.036l0.586,0.975l-0.059,0.035c-0.069-0.116-0.127-0.19-0.177-0.222
			s-0.096-0.046-0.14-0.043c-0.044,0.003-0.131,0.043-0.258,0.12l-1.352,0.814c-0.088,0.052-0.143,0.097-0.166,0.134
			c-0.015,0.026-0.02,0.056-0.015,0.088c0.005,0.033,0.049,0.118,0.133,0.256l0.095,0.158c0.099,0.164,0.181,0.274,0.245,0.325
			c0.064,0.052,0.143,0.087,0.238,0.106C29.237,33.383,29.368,33.38,29.534,33.355"/>
		<path style="fill:#004237;" d="M32.145,33.731l0.051-0.046l0.595,0.661l-0.051,0.046l-0.063-0.07
			c-0.065-0.074-0.148-0.103-0.244-0.086c-0.045,0.006-0.12,0.056-0.224,0.15l-0.757,0.682c-0.186,0.169-0.35,0.281-0.487,0.336
			c-0.136,0.056-0.29,0.063-0.463,0.02c-0.171-0.041-0.341-0.156-0.509-0.343c-0.184-0.204-0.288-0.39-0.312-0.56
			c-0.025-0.169,0.003-0.33,0.083-0.481c0.055-0.103,0.195-0.255,0.421-0.457l0.729-0.658c0.113-0.103,0.175-0.186,0.182-0.251
			c0.006-0.063-0.021-0.131-0.084-0.201l-0.063-0.07L31,32.358l0.726,0.806l-0.051,0.046l-0.064-0.072
			c-0.069-0.078-0.143-0.11-0.222-0.1c-0.053,0.008-0.132,0.057-0.236,0.152l-0.815,0.732c-0.071,0.066-0.149,0.147-0.231,0.243
			c-0.081,0.098-0.131,0.188-0.153,0.27c-0.021,0.082-0.019,0.171,0.005,0.266c0.026,0.097,0.082,0.193,0.168,0.289
			c0.109,0.122,0.235,0.207,0.375,0.255c0.14,0.049,0.266,0.053,0.381,0.014s0.272-0.149,0.47-0.327l0.755-0.681
			c0.117-0.105,0.178-0.183,0.185-0.235c0.007-0.073-0.02-0.143-0.083-0.214L32.145,33.731z"/>
		<path style="fill:#004237;" d="M33.175,36.069l-0.053,0.966c-0.015,0.266-0.012,0.445,0.009,0.536
			c0.025,0.091,0.079,0.171,0.163,0.243l-0.041,0.055l-0.86-0.649l0.04-0.054c0.058,0.042,0.105,0.068,0.14,0.078
			c0.027,0.008,0.054,0.007,0.08-0.002c0.029-0.008,0.05-0.021,0.063-0.04c0.018-0.023,0.031-0.048,0.038-0.078
			c0.006-0.022,0.012-0.086,0.018-0.192l0.047-0.771l-0.826,0.222c-0.087,0.023-0.143,0.042-0.166,0.054
			c-0.023,0.013-0.042,0.029-0.058,0.05c-0.024,0.031-0.029,0.067-0.019,0.109c0.011,0.04,0.053,0.091,0.125,0.149L31.836,36.8
			l-0.711-0.535l0.041-0.055c0.054,0.033,0.105,0.055,0.154,0.067c0.08,0.021,0.164,0.03,0.252,0.028
			c0.088-0.002,0.201-0.021,0.34-0.057l0.923-0.241l0.039-0.876c0.012-0.238-0.003-0.409-0.04-0.514
			c-0.038-0.105-0.104-0.197-0.199-0.273l0.041-0.054l0.926,0.698l-0.041,0.055c-0.081-0.057-0.145-0.084-0.192-0.084
			c-0.045,0.001-0.079,0.016-0.099,0.043c-0.028,0.037-0.044,0.108-0.049,0.213l-0.039,0.692l0.697-0.182
			c0.081-0.022,0.134-0.04,0.158-0.053c0.025-0.013,0.044-0.029,0.06-0.05c0.016-0.021,0.023-0.043,0.023-0.068
			c0.001-0.031-0.007-0.06-0.023-0.085c-0.017-0.025-0.059-0.066-0.13-0.12l0.041-0.055l0.711,0.537l-0.041,0.054
			c-0.059-0.039-0.11-0.064-0.158-0.077c-0.069-0.017-0.142-0.023-0.215-0.018c-0.074,0.005-0.19,0.028-0.348,0.07L33.175,36.069z"
			/>
		<path style="fill:#004237;" d="M36.629,36.954l-0.355,0.928l0.515,0.197c0.133,0.052,0.23,0.065,0.291,0.042
			c0.08-0.03,0.15-0.111,0.207-0.242l0.064,0.024l-0.313,0.817l-0.064-0.025c0.027-0.12,0.039-0.199,0.036-0.238
			c-0.005-0.048-0.027-0.093-0.065-0.134c-0.039-0.041-0.107-0.081-0.205-0.118l-0.515-0.198l-0.297,0.773
			c-0.039,0.104-0.058,0.169-0.058,0.196c0.001,0.026,0.01,0.049,0.028,0.072c0.018,0.022,0.059,0.045,0.124,0.069l0.398,0.153
			c0.132,0.051,0.232,0.079,0.299,0.083s0.138-0.01,0.214-0.043c0.099-0.043,0.214-0.124,0.344-0.238l0.069,0.026l-0.428,0.51
			l-1.806-0.693l0.024-0.064l0.083,0.032c0.055,0.021,0.113,0.028,0.172,0.02c0.044-0.004,0.08-0.022,0.107-0.054
			c0.028-0.032,0.064-0.105,0.108-0.219l0.583-1.523c0.057-0.149,0.078-0.246,0.061-0.292c-0.023-0.063-0.084-0.111-0.181-0.149
			l-0.083-0.031l0.025-0.064l1.806,0.693l-0.17,0.524L37.58,37.76c0.023-0.132,0.028-0.226,0.016-0.284
			c-0.011-0.057-0.04-0.109-0.089-0.156c-0.04-0.033-0.118-0.074-0.233-0.119L36.629,36.954z"/>
		<path style="fill:#004237;" d="M40.05,37.77l-0.085,0.583l-0.068-0.013c0.006-0.104,0.001-0.18-0.012-0.23
			c-0.025-0.077-0.064-0.138-0.122-0.183c-0.054-0.045-0.134-0.08-0.235-0.099l-0.346-0.066l-0.367,1.883
			c-0.029,0.152-0.032,0.249-0.006,0.293c0.036,0.059,0.102,0.099,0.198,0.118l0.085,0.015l-0.013,0.068l-1.045-0.203l0.013-0.067
			l0.087,0.017c0.105,0.02,0.183,0.003,0.241-0.052c0.033-0.034,0.064-0.121,0.091-0.258l0.366-1.883l-0.296-0.058
			c-0.115-0.022-0.198-0.029-0.251-0.022c-0.067,0.012-0.13,0.045-0.188,0.103c-0.057,0.056-0.101,0.139-0.132,0.248l-0.068-0.012
			l0.141-0.573L40.05,37.77z"/>
		<path style="fill:#004237;" d="M43.986,37.68l0.008,0.068c-0.089,0.024-0.153,0.058-0.195,0.102
			c-0.06,0.066-0.11,0.163-0.149,0.292l-0.687,2.206l-0.067,0.005l-1.127-2.073c-0.058-0.108-0.097-0.172-0.119-0.195
			c-0.035-0.035-0.075-0.061-0.122-0.078c-0.046-0.019-0.108-0.027-0.184-0.026l-0.006-0.068l1.022-0.09l0.005,0.068
			c-0.113,0.021-0.187,0.047-0.219,0.079c-0.033,0.03-0.046,0.068-0.043,0.113c0.005,0.061,0.042,0.155,0.109,0.28l0.765,1.411
			l0.464-1.5c0.046-0.147,0.065-0.249,0.061-0.304c-0.003-0.036-0.024-0.069-0.063-0.097c-0.038-0.03-0.1-0.049-0.187-0.054
			c-0.006-0.001-0.017-0.002-0.032-0.003l-0.006-0.069L43.986,37.68z"/>
		<path style="fill:#004237;" d="M44.722,37.622l0.257,0.959l0.533-0.143c0.138-0.037,0.224-0.082,0.261-0.136
			c0.046-0.072,0.057-0.178,0.026-0.318l0.066-0.018l0.226,0.844l-0.067,0.019c-0.047-0.115-0.085-0.185-0.11-0.214
			c-0.032-0.037-0.077-0.06-0.132-0.071c-0.055-0.01-0.133-0.002-0.235,0.025l-0.533,0.143l0.214,0.8
			c0.03,0.107,0.052,0.172,0.067,0.193c0.015,0.02,0.038,0.034,0.065,0.042c0.026,0.006,0.074,0.001,0.14-0.017l0.412-0.11
			c0.137-0.037,0.234-0.073,0.291-0.109c0.056-0.035,0.107-0.09,0.148-0.161c0.055-0.093,0.1-0.225,0.138-0.395l0.071-0.019
			L46.514,39.6l-1.869,0.5l-0.018-0.065l0.086-0.023c0.055-0.014,0.107-0.043,0.151-0.084c0.032-0.029,0.052-0.066,0.054-0.106
			c0.004-0.042-0.01-0.122-0.041-0.24l-0.423-1.576c-0.04-0.154-0.081-0.244-0.122-0.272c-0.055-0.036-0.134-0.04-0.232-0.014
			l-0.087,0.023l-0.018-0.066l1.869-0.5l0.169,0.524l-0.069,0.019c-0.059-0.121-0.111-0.201-0.154-0.24
			c-0.043-0.04-0.097-0.064-0.163-0.074c-0.053-0.005-0.139,0.01-0.26,0.041L44.722,37.622z"/>
		<path style="fill:#004237;" d="M49.394,38.338l-0.606,0.283l-1.267-0.705c-0.055,0.029-0.102,0.052-0.137,0.069
			c-0.015,0.006-0.03,0.014-0.047,0.022c-0.018,0.007-0.036,0.014-0.054,0.021l0.309,0.661c0.068,0.143,0.124,0.225,0.171,0.244
			c0.065,0.029,0.142,0.024,0.227-0.015l0.088-0.042l0.028,0.062l-0.974,0.455l-0.03-0.062l0.086-0.04
			c0.096-0.045,0.151-0.108,0.162-0.19c0.007-0.046-0.019-0.134-0.08-0.263l-0.685-1.47c-0.067-0.143-0.124-0.225-0.172-0.245
			c-0.068-0.028-0.143-0.023-0.23,0.017l-0.085,0.04l-0.028-0.062l0.83-0.387c0.241-0.113,0.428-0.177,0.558-0.194
			c0.132-0.019,0.259,0.001,0.383,0.058c0.124,0.056,0.217,0.15,0.278,0.281c0.065,0.14,0.077,0.283,0.033,0.429
			c-0.043,0.145-0.15,0.283-0.322,0.415l0.775,0.434c0.177,0.1,0.315,0.156,0.416,0.169c0.1,0.013,0.215-0.002,0.345-0.046
			L49.394,38.338z M47.233,37.921c0.022-0.009,0.04-0.017,0.056-0.024c0.016-0.008,0.028-0.014,0.039-0.018
			c0.217-0.101,0.36-0.225,0.424-0.369c0.068-0.147,0.068-0.292-0.001-0.437c-0.066-0.142-0.164-0.236-0.295-0.283
			c-0.13-0.048-0.269-0.039-0.415,0.029c-0.065,0.031-0.147,0.082-0.248,0.156L47.233,37.921z"/>
		<path style="fill:#004237;" d="M50.506,37.513l0.036,0.057l-0.902,0.587l-0.038-0.058l0.075-0.048
			c0.088-0.056,0.134-0.123,0.141-0.199c0.004-0.05-0.037-0.137-0.118-0.264l-0.884-1.36c-0.069-0.107-0.122-0.173-0.157-0.198
			c-0.028-0.019-0.063-0.027-0.107-0.025c-0.062,0.004-0.118,0.023-0.167,0.054l-0.074,0.05l-0.038-0.058l0.903-0.586l0.037,0.057
			l-0.076,0.05c-0.086,0.055-0.132,0.122-0.139,0.198c-0.004,0.051,0.035,0.138,0.117,0.265l0.883,1.36
			c0.07,0.107,0.122,0.173,0.157,0.198c0.027,0.019,0.064,0.027,0.109,0.025c0.06-0.005,0.115-0.023,0.164-0.054L50.506,37.513z"/>
		<path style="fill:#004237;" d="M50.967,33.982l0.401,0.433l-0.055,0.045c-0.077-0.071-0.139-0.115-0.184-0.134
			c-0.076-0.03-0.149-0.038-0.219-0.022c-0.071,0.014-0.146,0.054-0.225,0.121l-0.272,0.226l1.233,1.47
			c0.101,0.118,0.175,0.181,0.224,0.188c0.07,0.011,0.143-0.016,0.216-0.079l0.067-0.056l0.044,0.053l-0.816,0.684l-0.044-0.053
			l0.068-0.057c0.081-0.068,0.118-0.142,0.111-0.219c-0.005-0.047-0.053-0.126-0.143-0.233L50.14,34.88l-0.231,0.193
			c-0.09,0.076-0.149,0.136-0.176,0.181c-0.033,0.059-0.046,0.128-0.039,0.209c0.009,0.081,0.045,0.168,0.111,0.26l-0.053,0.045
			l-0.356-0.472L50.967,33.982z"/>
		<path style="fill:#004237;" d="M53.06,34.062l-0.624,0.745l0.194,0.385c0.049,0.095,0.091,0.158,0.126,0.188
			c0.03,0.025,0.067,0.033,0.114,0.024c0.045-0.009,0.11-0.057,0.193-0.145l0.053,0.044l-0.508,0.606l-0.053-0.044
			c0.054-0.093,0.078-0.16,0.076-0.202c-0.005-0.087-0.052-0.217-0.142-0.393l-1.015-2.005l0.042-0.05l2.161,0.673
			c0.174,0.054,0.298,0.076,0.373,0.064c0.076-0.012,0.148-0.056,0.219-0.131l0.053,0.044l-0.636,0.759l-0.054-0.043
			c0.061-0.08,0.091-0.143,0.091-0.188c0.002-0.045-0.013-0.081-0.044-0.107c-0.042-0.035-0.123-0.071-0.245-0.109L53.06,34.062z
			 M52.922,34.013l-1.052-0.326l0.498,0.987L52.922,34.013z"/>
		<path style="fill:#004237;" d="M53.075,31.017l0.735,0.46l-0.034,0.058c-0.154-0.07-0.288-0.107-0.401-0.109
			c-0.114-0.005-0.225,0.023-0.33,0.082c-0.106,0.059-0.188,0.137-0.249,0.234c-0.069,0.109-0.091,0.219-0.069,0.332
			c0.021,0.113,0.075,0.196,0.16,0.249c0.064,0.04,0.137,0.054,0.219,0.042c0.119-0.015,0.321-0.104,0.604-0.266
			c0.231-0.133,0.398-0.217,0.501-0.253c0.102-0.038,0.204-0.053,0.305-0.043c0.103,0.009,0.197,0.04,0.281,0.093
			c0.162,0.101,0.261,0.251,0.299,0.45c0.039,0.198-0.003,0.394-0.126,0.59c-0.038,0.062-0.08,0.117-0.123,0.167
			c-0.026,0.028-0.086,0.084-0.183,0.166c-0.097,0.081-0.154,0.135-0.17,0.162c-0.017,0.026-0.022,0.052-0.016,0.078
			c0.006,0.024,0.031,0.054,0.077,0.094l-0.038,0.057l-0.73-0.456l0.036-0.059c0.17,0.068,0.308,0.105,0.413,0.106
			s0.211-0.03,0.32-0.093c0.11-0.064,0.201-0.152,0.27-0.266c0.082-0.13,0.113-0.255,0.091-0.374
			c-0.022-0.12-0.081-0.208-0.174-0.268c-0.052-0.032-0.114-0.05-0.187-0.054c-0.07-0.005-0.148,0.008-0.232,0.04
			c-0.056,0.021-0.193,0.092-0.408,0.21c-0.216,0.118-0.379,0.197-0.487,0.236c-0.11,0.039-0.212,0.054-0.311,0.049
			c-0.097-0.006-0.191-0.037-0.279-0.092c-0.153-0.096-0.248-0.236-0.284-0.422c-0.037-0.187,0-0.37,0.113-0.551
			c0.071-0.113,0.173-0.216,0.309-0.308c0.062-0.042,0.101-0.076,0.116-0.099c0.016-0.027,0.023-0.055,0.018-0.081
			c-0.007-0.028-0.031-0.063-0.073-0.104L53.075,31.017z"/>
		<path style="fill:#004237;" d="M26.045,21.833l1.337,0.117l-0.009,0.106c-0.259,0.012-0.469,0.056-0.629,0.132
			c-0.159,0.074-0.291,0.19-0.395,0.345c-0.103,0.156-0.162,0.321-0.178,0.496c-0.017,0.198,0.029,0.367,0.14,0.506
			c0.108,0.14,0.239,0.216,0.393,0.23c0.118,0.01,0.229-0.021,0.333-0.094c0.153-0.105,0.367-0.37,0.644-0.791
			c0.225-0.345,0.396-0.578,0.512-0.7c0.114-0.124,0.244-0.215,0.391-0.273c0.148-0.06,0.298-0.083,0.452-0.069
			c0.293,0.025,0.535,0.162,0.728,0.408c0.192,0.245,0.272,0.547,0.24,0.903c-0.01,0.113-0.028,0.217-0.054,0.314
			c-0.013,0.059-0.059,0.178-0.135,0.36c-0.076,0.179-0.117,0.293-0.121,0.342c-0.005,0.048,0.006,0.086,0.032,0.118
			c0.026,0.029,0.083,0.054,0.172,0.075l-0.01,0.107l-1.325-0.116l0.008-0.105c0.282-0.027,0.496-0.074,0.643-0.145
			c0.144-0.072,0.269-0.189,0.375-0.352c0.107-0.165,0.169-0.35,0.186-0.555c0.021-0.237-0.025-0.431-0.139-0.578
			c-0.113-0.15-0.256-0.232-0.426-0.247c-0.095-0.008-0.193,0.01-0.295,0.055c-0.101,0.042-0.198,0.115-0.292,0.218
			c-0.063,0.069-0.201,0.261-0.415,0.575c-0.215,0.315-0.384,0.537-0.507,0.668c-0.122,0.13-0.253,0.225-0.392,0.285
			c-0.14,0.061-0.289,0.084-0.449,0.071c-0.277-0.026-0.507-0.152-0.688-0.383c-0.182-0.229-0.259-0.51-0.23-0.838
			c0.018-0.206,0.088-0.418,0.208-0.64c0.057-0.102,0.086-0.175,0.091-0.219c0.005-0.05-0.006-0.091-0.032-0.123
			c-0.027-0.034-0.085-0.065-0.173-0.093L26.045,21.833z"/>
		<path style="fill:#004237;" d="M29.698,18.815l-0.562,1.393l0.469,0.473c0.115,0.117,0.208,0.189,0.277,0.217
			c0.055,0.022,0.113,0.015,0.176-0.018c0.063-0.037,0.135-0.139,0.217-0.308l0.099,0.04l-0.458,1.132l-0.098-0.04
			c0.034-0.161,0.039-0.272,0.014-0.333c-0.049-0.124-0.181-0.294-0.397-0.509L26.987,18.4l0.037-0.093l3.499-0.043
			c0.281-0.005,0.475-0.032,0.579-0.083c0.105-0.055,0.191-0.154,0.259-0.297l0.098,0.04l-0.574,1.42l-0.098-0.04
			c0.051-0.146,0.065-0.252,0.045-0.318c-0.02-0.068-0.059-0.113-0.118-0.137c-0.078-0.03-0.215-0.045-0.412-0.042L29.698,18.815z
			 M29.472,18.809l-1.7,0.023l1.201,1.214L29.472,18.809z"/>
		<path style="fill:#004237;" d="M28.466,15.432l0.705-0.782l3.75,0.184l-1.663-1.497c-0.177-0.159-0.306-0.239-0.385-0.239
			c-0.107-0.001-0.212,0.055-0.313,0.169l-0.091,0.1l-0.079-0.07l0.904-1.004l0.08,0.07l-0.092,0.102
			c-0.11,0.122-0.152,0.241-0.123,0.36c0.017,0.071,0.107,0.18,0.269,0.325l2.431,2.19l-0.07,0.076l-4.033-0.19l1.776,1.6
			c0.177,0.159,0.304,0.239,0.384,0.241c0.107-0.001,0.211-0.057,0.313-0.169l0.092-0.102l0.079,0.07l-0.905,1.004l-0.079-0.071
			l0.091-0.1c0.111-0.123,0.153-0.243,0.125-0.362c-0.018-0.071-0.108-0.181-0.269-0.327l-2.005-1.806
			c-0.174-0.004-0.296,0.002-0.367,0.018c-0.069,0.014-0.155,0.052-0.257,0.111c-0.051,0.029-0.113,0.086-0.188,0.17L28.466,15.432z
			"/>
		<path style="fill:#004237;" d="M34.978,9.868l0.506,0.758l-0.094,0.057c-0.1-0.128-0.183-0.211-0.25-0.251
			c-0.109-0.064-0.218-0.093-0.33-0.086c-0.111,0.005-0.234,0.048-0.372,0.131l-0.469,0.282l1.528,2.541
			c0.122,0.204,0.221,0.32,0.295,0.343c0.104,0.031,0.22,0.008,0.35-0.068l0.115-0.07l0.054,0.091L34.9,14.443l-0.054-0.091
			l0.117-0.07c0.141-0.084,0.216-0.187,0.223-0.308c0.004-0.074-0.05-0.203-0.161-0.39l-1.528-2.542L33.1,11.281
			c-0.155,0.093-0.259,0.171-0.311,0.233c-0.066,0.082-0.103,0.185-0.11,0.311c-0.008,0.124,0.028,0.265,0.107,0.422l-0.093,0.056
			l-0.43-0.804L34.978,9.868z"/>
		<path style="fill:#004237;" d="M38.05,8.787c0.489-0.121,0.958-0.041,1.408,0.241c0.452,0.282,0.747,0.7,0.885,1.255
			c0.144,0.571,0.081,1.092-0.185,1.559c-0.267,0.467-0.656,0.765-1.17,0.894c-0.518,0.129-1.001,0.053-1.445-0.227
			c-0.444-0.281-0.739-0.714-0.885-1.299c-0.15-0.597-0.067-1.136,0.245-1.615C37.176,9.179,37.558,8.91,38.05,8.787 M38.049,9.003
			c-0.336,0.084-0.577,0.276-0.717,0.577c-0.177,0.374-0.19,0.861-0.04,1.461c0.153,0.615,0.401,1.055,0.748,1.32
			c0.265,0.202,0.562,0.262,0.894,0.179c0.354-0.089,0.611-0.299,0.771-0.632c0.162-0.334,0.17-0.797,0.022-1.392
			c-0.161-0.644-0.408-1.093-0.741-1.346C38.721,8.969,38.408,8.914,38.049,9.003"/>
		<path style="fill:#004237;" d="M45.817,8.899l-0.1,0.905L45.61,9.787c0.004-0.161-0.006-0.278-0.031-0.353
			c-0.041-0.118-0.106-0.21-0.197-0.277c-0.087-0.068-0.21-0.114-0.368-0.139l-0.54-0.085l-0.464,2.928
			c-0.037,0.236-0.035,0.386,0.006,0.453c0.059,0.091,0.164,0.148,0.313,0.171l0.133,0.021l-0.016,0.105l-1.625-0.257l0.015-0.105
			l0.136,0.021c0.161,0.026,0.284-0.005,0.367-0.093c0.052-0.053,0.094-0.188,0.128-0.402l0.464-2.928l-0.46-0.073
			c-0.179-0.028-0.309-0.036-0.388-0.021C42.98,8.773,42.885,8.829,42.8,8.92c-0.086,0.091-0.15,0.221-0.191,0.392L42.5,9.295
			l0.188-0.891L45.817,8.899z"/>
		<path style="fill:#004237;" d="M49.021,10.164c0.445,0.237,0.739,0.611,0.884,1.122c0.149,0.51,0.087,1.019-0.181,1.524
			c-0.277,0.52-0.672,0.866-1.183,1.035c-0.511,0.169-0.999,0.13-1.467-0.119c-0.472-0.25-0.779-0.629-0.923-1.135
			c-0.141-0.505-0.07-1.023,0.212-1.556c0.29-0.544,0.71-0.89,1.265-1.036C48.108,9.87,48.573,9.925,49.021,10.164 M48.874,10.323
			c-0.306-0.163-0.613-0.18-0.918-0.051c-0.382,0.16-0.718,0.512-1.008,1.059c-0.297,0.559-0.407,1.054-0.328,1.482
			c0.061,0.327,0.243,0.57,0.545,0.731c0.321,0.171,0.653,0.187,0.996,0.046c0.345-0.139,0.661-0.478,0.948-1.02
			c0.312-0.586,0.428-1.084,0.351-1.495C49.396,10.747,49.201,10.496,48.874,10.323"/>
		<path style="fill:#004237;" d="M50.575,16.328l1.537-3.247l-1.987,1.666c-0.182,0.154-0.28,0.27-0.293,0.347
			c-0.016,0.106,0.025,0.217,0.124,0.334l0.089,0.106L49.964,15.6l-0.868-1.035l0.082-0.067l0.087,0.106
			c0.106,0.125,0.218,0.182,0.338,0.17c0.073-0.006,0.195-0.08,0.36-0.22l1.943-1.629c0.132-0.111,0.214-0.205,0.248-0.283
			c0.025-0.055,0.028-0.123,0.009-0.202c-0.016-0.079-0.075-0.178-0.177-0.3l0.082-0.068l0.706,0.842l-1.422,3.03l3.217-0.891
			l0.706,0.842l-0.081,0.069l-0.086-0.103c-0.106-0.126-0.22-0.185-0.34-0.174c-0.074,0.007-0.194,0.081-0.361,0.22l-1.942,1.63
			c-0.182,0.154-0.278,0.27-0.29,0.349c-0.016,0.106,0.025,0.216,0.123,0.333l0.086,0.103l-0.081,0.069l-1.059-1.264l0.08-0.067
			l0.089,0.104c0.107,0.128,0.219,0.186,0.339,0.173c0.074-0.007,0.193-0.081,0.361-0.22l1.986-1.667l-3.463,0.953L50.575,16.328z"
			/>
		<path style="fill:#004237;" d="M54.357,20.593l-0.465-1.43l-0.664-0.06c-0.163-0.016-0.28-0.012-0.351,0.011
			c-0.057,0.018-0.098,0.06-0.125,0.128c-0.023,0.068-0.013,0.193,0.033,0.375l-0.102,0.033l-0.377-1.162l0.101-0.033
			c0.077,0.146,0.146,0.234,0.204,0.264c0.117,0.064,0.326,0.11,0.63,0.135l3.46,0.312l0.03,0.095l-2.652,2.282
			c-0.214,0.184-0.343,0.33-0.391,0.437c-0.045,0.109-0.047,0.239-0.008,0.393l-0.1,0.033l-0.474-1.456l0.101-0.032
			c0.054,0.144,0.112,0.235,0.17,0.272c0.059,0.039,0.118,0.049,0.178,0.029c0.08-0.025,0.193-0.103,0.343-0.231L54.357,20.593z
			 M54.533,20.45l1.288-1.11l-1.7-0.157L54.533,20.45z M58.032,20.155l-1.2-0.499l-0.03-0.092l1.031-0.02L58.032,20.155z"/>
		<path style="fill:#004237;" d="M57.54,24.878l-1.342,0.023l-0.002-0.105c0.256-0.039,0.46-0.105,0.611-0.197
			c0.152-0.091,0.271-0.218,0.357-0.383c0.086-0.167,0.129-0.337,0.125-0.513c-0.003-0.198-0.068-0.361-0.192-0.489
			c-0.122-0.128-0.26-0.19-0.415-0.188c-0.118,0.002-0.225,0.045-0.321,0.129c-0.142,0.121-0.327,0.406-0.558,0.855
			c-0.188,0.366-0.333,0.615-0.436,0.749c-0.1,0.135-0.222,0.239-0.362,0.312c-0.139,0.076-0.286,0.114-0.441,0.117
			c-0.293,0.005-0.549-0.105-0.767-0.33c-0.216-0.223-0.326-0.516-0.333-0.874c-0.002-0.113,0.005-0.218,0.021-0.318
			c0.008-0.059,0.04-0.183,0.096-0.371c0.058-0.186,0.086-0.303,0.085-0.353c-0.001-0.048-0.016-0.086-0.045-0.114
			c-0.028-0.026-0.087-0.045-0.178-0.057l-0.001-0.107l1.331-0.023l0.001,0.107c-0.277,0.053-0.485,0.124-0.623,0.21
			c-0.135,0.087-0.248,0.216-0.337,0.39c-0.088,0.175-0.132,0.366-0.128,0.571c0.004,0.24,0.07,0.426,0.198,0.561
			c0.13,0.137,0.279,0.204,0.451,0.201c0.095-0.002,0.19-0.031,0.287-0.085c0.096-0.053,0.185-0.136,0.268-0.247
			c0.056-0.076,0.174-0.281,0.353-0.616c0.18-0.334,0.326-0.574,0.433-0.717c0.108-0.141,0.228-0.249,0.361-0.325
			c0.132-0.074,0.278-0.114,0.438-0.116c0.28-0.005,0.52,0.097,0.724,0.308c0.207,0.209,0.312,0.481,0.318,0.81
			c0.004,0.205-0.043,0.425-0.14,0.658c-0.045,0.107-0.069,0.183-0.067,0.227c0.001,0.049,0.016,0.089,0.045,0.119
			c0.031,0.031,0.09,0.057,0.181,0.074L57.54,24.878z"/>
	</g>
	<g>
		<rect x="91.148" y="4.518" style="fill:#004237;" width="0.5" height="90.42"/>
	</g>
	<g>
		<path style="fill:#004237;" d="M116.503,26.736h-5.383l-0.943,2.194c-0.232,0.54-0.349,0.943-0.349,1.21
			c0,0.212,0.101,0.398,0.303,0.559c0.201,0.161,0.637,0.265,1.307,0.313v0.379h-4.378v-0.379c0.581-0.103,0.957-0.236,1.128-0.4
			c0.349-0.328,0.735-0.995,1.159-2l4.891-11.443h0.359l4.84,11.566c0.39,0.93,0.744,1.533,1.061,1.81
			c0.318,0.276,0.761,0.432,1.328,0.466v0.379h-5.486v-0.379c0.554-0.027,0.928-0.12,1.123-0.277s0.292-0.349,0.292-0.574
			c0-0.301-0.137-0.776-0.41-1.425L116.503,26.736z M116.216,25.978l-2.358-5.619l-2.42,5.619H116.216z"/>
		<path style="fill:#004237;" d="M122.419,31.392v-0.379h0.523c0.588,0,1.005-0.188,1.251-0.564c0.15-0.226,0.226-0.731,0.226-1.518
			v-8.982c0-0.868-0.096-1.412-0.287-1.63c-0.267-0.301-0.663-0.451-1.189-0.451h-0.523v-0.379h5.66
			c2.078,0,3.659,0.236,4.743,0.708c1.083,0.472,1.955,1.258,2.614,2.358s0.99,2.372,0.99,3.814c0,1.935-0.588,3.551-1.764,4.85
			c-1.319,1.449-3.329,2.174-6.029,2.174h-6.215V31.392z M126.387,30.387c0.868,0.191,1.596,0.287,2.184,0.287
			c1.586,0,2.902-0.557,3.948-1.671s1.569-2.625,1.569-4.532c0-1.921-0.523-3.435-1.569-4.542s-2.389-1.661-4.03-1.661
			c-0.615,0-1.316,0.099-2.102,0.297V30.387z"/>
		<path style="fill:#004237;" d="M145.819,31.392l-5.373-11.7v9.29c0,0.854,0.092,1.388,0.277,1.6
			c0.253,0.287,0.653,0.431,1.2,0.431h0.492v0.379h-4.84v-0.379h0.492c0.588,0,1.005-0.178,1.251-0.533
			c0.15-0.219,0.226-0.718,0.226-1.497v-9.085c0-0.615-0.068-1.06-0.205-1.333c-0.096-0.198-0.271-0.364-0.528-0.498
			c-0.256-0.133-0.668-0.2-1.235-0.2v-0.379h3.938l5.045,10.879l4.963-10.879h3.938v0.379h-0.482c-0.595,0-1.015,0.178-1.261,0.533
			c-0.15,0.219-0.226,0.718-0.226,1.497v9.085c0,0.854,0.096,1.388,0.287,1.6c0.253,0.287,0.653,0.431,1.2,0.431h0.482v0.379h-5.906
			v-0.379h0.492c0.595,0,1.012-0.178,1.251-0.533c0.15-0.219,0.226-0.718,0.226-1.497v-9.29l-5.363,11.7h-0.341V31.392z"/>
		<path style="fill:#004237;" d="M162.379,31.012v0.379h-5.958v-0.379h0.492c0.574,0,0.991-0.167,1.251-0.502
			c0.164-0.219,0.246-0.745,0.246-1.579v-8.982c0-0.704-0.044-1.169-0.133-1.395c-0.068-0.171-0.208-0.318-0.42-0.441
			c-0.301-0.164-0.615-0.246-0.943-0.246h-0.492v-0.379h5.958v0.379h-0.502c-0.567,0-0.981,0.167-1.241,0.502
			c-0.171,0.219-0.256,0.745-0.256,1.579v8.982c0,0.704,0.044,1.169,0.133,1.395c0.068,0.171,0.212,0.318,0.431,0.441
			c0.294,0.164,0.605,0.246,0.933,0.246H162.379z"/>
		<path style="fill:#004237;" d="M172.52,17.169v4.809h-0.379c-0.123-0.923-0.344-1.658-0.661-2.205
			c-0.318-0.547-0.771-0.981-1.359-1.302s-1.196-0.482-1.825-0.482c-0.711,0-1.299,0.217-1.764,0.651
			c-0.465,0.435-0.697,0.928-0.697,1.482c0,0.424,0.147,0.81,0.441,1.159c0.424,0.513,1.432,1.196,3.025,2.051
			c1.299,0.697,2.186,1.232,2.661,1.604c0.475,0.373,0.841,0.812,1.098,1.318c0.256,0.506,0.384,1.036,0.384,1.589
			c0,1.053-0.409,1.96-1.225,2.723c-0.817,0.762-1.868,1.143-3.153,1.143c-0.403,0-0.783-0.031-1.138-0.092
			c-0.212-0.034-0.651-0.159-1.318-0.374c-0.666-0.216-1.088-0.323-1.266-0.323c-0.171,0-0.306,0.051-0.405,0.154
			c-0.1,0.103-0.173,0.314-0.221,0.636h-0.379v-4.768h0.379c0.178,0.998,0.417,1.745,0.718,2.24c0.301,0.496,0.76,0.908,1.379,1.236
			s1.297,0.492,2.036,0.492c0.854,0,1.529-0.226,2.025-0.677s0.744-0.984,0.744-1.6c0-0.342-0.094-0.687-0.282-1.036
			c-0.188-0.349-0.48-0.673-0.877-0.974c-0.267-0.205-0.995-0.641-2.184-1.307c-1.189-0.667-2.036-1.198-2.538-1.595
			c-0.503-0.396-0.884-0.834-1.144-1.312s-0.39-1.005-0.39-1.579c0-0.998,0.383-1.857,1.148-2.579
			c0.766-0.721,1.74-1.082,2.922-1.082c0.738,0,1.521,0.181,2.348,0.543c0.383,0.171,0.653,0.256,0.81,0.256
			c0.178,0,0.323-0.053,0.436-0.159c0.112-0.106,0.203-0.32,0.271-0.641h0.38V17.169z"/>
		<path style="fill:#004237;" d="M181.051,31.012v0.379h-5.958v-0.379h0.492c0.574,0,0.991-0.167,1.251-0.502
			c0.164-0.219,0.246-0.745,0.246-1.579v-8.982c0-0.704-0.044-1.169-0.133-1.395c-0.068-0.171-0.208-0.318-0.42-0.441
			c-0.301-0.164-0.615-0.246-0.943-0.246h-0.492v-0.379h5.958v0.379h-0.502c-0.567,0-0.981,0.167-1.241,0.502
			c-0.171,0.219-0.256,0.745-0.256,1.579v8.982c0,0.704,0.044,1.169,0.133,1.395c0.068,0.171,0.212,0.318,0.431,0.441
			c0.294,0.164,0.605,0.246,0.933,0.246H181.051z"/>
		<path style="fill:#004237;" d="M189.244,17.169c1.805,0,3.369,0.686,4.691,2.056c1.323,1.371,1.984,3.081,1.984,5.132
			c0,2.112-0.667,3.866-2,5.26s-2.946,2.092-4.84,2.092c-1.914,0-3.522-0.68-4.825-2.041c-1.302-1.36-1.953-3.121-1.953-5.281
			c0-2.208,0.752-4.009,2.256-5.404C185.864,17.774,187.426,17.169,189.244,17.169z M189.049,17.918
			c-1.244,0-2.242,0.461-2.994,1.384c-0.937,1.148-1.405,2.83-1.405,5.045c0,2.27,0.485,4.016,1.456,5.24
			c0.745,0.93,1.729,1.395,2.953,1.395c1.306,0,2.384-0.509,3.235-1.528c0.852-1.019,1.277-2.625,1.277-4.819
			c0-2.379-0.468-4.153-1.405-5.322C191.414,18.383,190.375,17.918,189.049,17.918z M191.377,12.965l-3.025,3.538h-0.349
			l1.077-3.538H191.377z"/>
		<path style="fill:#004237;" d="M196.452,17.487h3.773l8.5,10.428v-8.019c0-0.854-0.096-1.388-0.287-1.6
			c-0.253-0.287-0.653-0.431-1.2-0.431h-0.482v-0.379h4.84v0.379h-0.492c-0.588,0-1.005,0.178-1.251,0.533
			c-0.15,0.219-0.226,0.718-0.226,1.497v11.72h-0.369l-9.167-11.197v8.562c0,0.854,0.092,1.388,0.277,1.6
			c0.26,0.287,0.66,0.431,1.2,0.431h0.492v0.379h-4.84v-0.379h0.482c0.595,0,1.015-0.178,1.261-0.533
			c0.15-0.219,0.226-0.718,0.226-1.497v-9.669c-0.403-0.472-0.709-0.783-0.918-0.933s-0.514-0.291-0.917-0.42
			c-0.198-0.062-0.499-0.092-0.902-0.092L196.452,17.487L196.452,17.487z"/>
	</g>
</g>
</svg>
